<svg width="48" height="48" viewBox="0 0 48 48" fill="none" xmlns="http://www.w3.org/2000/svg">
<path fill-rule="evenodd" clip-rule="evenodd" d="M34.9847 9.68621C34.9949 9.62455 35 9.56247 35 9.5C35 9.47225 34.999 9.44457 34.997 9.41697C34.999 9.3449 35 9.27256 35 9.19995H34.9602C34.4819 7.40741 29.7575 6 24 6C18.2426 6 13.5182 7.40741 13.0399 9.19995H13C13 9.27256 13.0011 9.3449 13.0031 9.41697C13.0011 9.44457 13 9.47225 13 9.5C13 9.56247 13.0052 9.62455 13.0153 9.68621C13.3262 14.6058 18.3299 18.2 24 18.2C24.0764 18.2 24.1526 18.1993 24.2287 18.198C24.1313 18.2097 24.0333 18.223 23.9349 18.2381C21.6845 18.5822 19.2805 19.8054 16.793 22.2929L5.79297 33.2929L7.20747 34.7068L18.2072 23.7071C20.4697 21.4446 22.5033 20.4803 24.2372 20.2151C25.9701 19.9501 27.5183 20.3658 28.843 21.0704C30.1769 21.7799 31.2606 22.7715 32.0188 23.6034C32.2881 23.8988 32.5129 24.1702 32.6898 24.396L32.567 24.5189C31.3407 23.9293 29.9572 23.9286 28.656 24.2761C26.9595 24.7291 25.2955 25.7903 23.9804 27.1054C22.6683 28.4175 21.6188 30.0677 21.2632 31.7724C21.009 32.9913 21.1146 34.2417 21.725 35.3609L16.293 40.7929L17.7072 42.2071L35.2744 24.6399L34.8437 23.9632L34.0001 24.5C34.8437 23.9632 34.8431 23.9622 34.8431 23.9622L34.8424 23.961L34.8403 23.9578L34.8343 23.9485L34.8145 23.9182C34.7979 23.893 34.7744 23.8579 34.7442 23.8138C34.6838 23.7256 34.5964 23.6014 34.4831 23.4491C34.2567 23.1447 33.9251 22.7259 33.4969 22.2561C32.6459 21.3224 31.3858 20.1576 29.7822 19.3047C28.5097 18.6278 27.0067 18.1407 25.3232 18.1344C30.428 17.6266 34.6983 14.219 34.9847 9.68621ZM33.1041 9.11164C33.1041 9.11164 33.1012 9.11677 33.0922 9.12679C33.0991 9.11662 33.1041 9.11164 33.1041 9.11164ZM32.5603 9.5C32.2332 9.32063 31.7757 9.12313 31.1718 8.93098C29.426 8.37548 26.89 8 24 8C21.11 8 18.5741 8.37548 16.8283 8.93098C16.2244 9.12313 15.7669 9.32063 15.4398 9.5C15.7669 9.67937 16.2244 9.87687 16.8283 10.069C18.5741 10.6245 21.11 11 24 11C26.89 11 29.426 10.6245 31.1718 10.069C31.7757 9.87687 32.2332 9.67938 32.5603 9.5ZM14.896 9.11164C14.896 9.11164 14.901 9.11662 14.9079 9.1268C14.8989 9.11676 14.896 9.11164 14.896 9.11164ZM32.3582 11.7755C30.3407 12.525 27.3447 13 24 13C20.6554 13 17.6594 12.525 15.6419 11.7755C16.936 14.2931 20.0728 16.2 24 16.2C27.9273 16.2 31.0641 14.2931 32.3582 11.7755ZM23.2489 33.837L30.9919 26.094C30.4452 25.9919 29.834 26.0316 29.172 26.2084C27.8841 26.5523 26.5169 27.3973 25.3946 28.5196C24.2692 29.6451 23.4749 30.9636 23.2211 32.1807C23.0993 32.7647 23.0999 33.3207 23.2489 33.837Z" fill="black"/>
</svg>
