<svg width="48" height="48" viewBox="0 0 48 48" fill="none" xmlns="http://www.w3.org/2000/svg">
<path fill-rule="evenodd" clip-rule="evenodd" d="M14.213 9.32087C20.6958 10.2537 25.0398 14.0598 28.6264 17.6013L30.0864 14.924C29.9883 14.738 29.856 14.499 29.6888 14.2222C29.2651 13.5208 28.6235 12.5867 27.7544 11.6558C26.0138 9.79156 23.4232 8 19.8658 8C17.6286 8 15.8807 8.45424 14.213 9.32087ZM31.213 14.9468C32.1286 14.5445 32.1282 14.5437 32.1282 14.5437L32.1266 14.5401L32.1233 14.5328L32.1129 14.5096C32.1041 14.4904 32.0919 14.4639 32.0761 14.4305C32.0445 14.3636 31.9987 14.2691 31.9385 14.151C31.8181 13.9149 31.6395 13.5833 31.4007 13.188C30.9242 12.3993 30.202 11.3467 29.2162 10.291C27.2471 8.18183 24.1641 6 19.8658 6C15.9827 6 13.3213 7.22708 10.5466 9.30526C7.20894 11.805 5 15.6092 5 20.2446C5 24.5893 7.1348 27.4953 9.22851 29.283C10.271 30.1732 11.3099 30.7937 12.0879 31.1923C12.3393 31.321 12.5646 31.4273 12.7557 31.5125V42H14.7557V30.8403C14.7557 30.4129 14.484 30.0327 14.0797 29.8943L14.0706 29.891C14.0606 29.8875 14.0437 29.8813 14.0203 29.8725C13.9734 29.8549 13.9006 29.8267 13.8056 29.7873C13.6152 29.7083 13.3369 29.5849 12.9998 29.4123C12.3237 29.0659 11.4236 28.5274 10.5272 27.762C9.07398 26.5212 7.64802 24.7042 7.16904 22.1263C13.4453 25.6766 19.1524 25.9413 24.9998 24.9048L24.3143 26.3122C23.2831 28.4294 24.8249 30.8954 27.18 30.8954H28.4673V33.3722H22.4844C21.9321 33.3722 21.4844 33.82 21.4844 34.3722V42H23.4844V35.3722H29.4673C30.0196 35.3722 30.4673 34.9245 30.4673 34.3722V30.8954H31.8897C33.6501 30.8954 35.0772 29.4683 35.0772 27.7079V27.1693H36.2745V42H38.2745V26.1693C38.2745 25.617 37.8268 25.1693 37.2745 25.1693H33.0212C32.5604 25.1693 32.1866 24.7955 32.1866 24.3344C32.1866 23.8736 32.5602 23.5 33.0209 23.5H39C39.5523 23.5 40 23.9477 40 24.5V42H42V24.5C42 22.8431 40.6569 21.5 39 21.5H33.8098L32.1856 14.714C32.1717 14.6559 32.1522 14.5984 32.1282 14.5437L31.213 14.9468ZM30.8458 17.7088L31.8173 21.7675C30.8537 22.2202 30.1866 23.1995 30.1866 24.3344C30.1866 25.8998 31.4556 27.1693 33.0212 27.1693H33.0772V27.7079C33.0772 28.3637 32.5456 28.8954 31.8897 28.8954H27.18C26.3026 28.8954 25.7282 27.9767 26.1124 27.1879L29.7546 19.7098L30.8458 17.7088ZM27.6543 19.4545C23.5458 15.3638 18.9448 11.2292 11.4824 11.1084C8.87986 13.1622 7.16835 16.1222 7.01175 19.7045C13.7548 23.931 19.681 24.0136 26.0963 22.6535L27.6543 19.4545Z" fill="black"/>
</svg>
