<svg width="48" height="48" viewBox="0 0 48 48" fill="none" xmlns="http://www.w3.org/2000/svg">
<path fill-rule="evenodd" clip-rule="evenodd" d="M14 36C17.3137 36 20 33.3137 20 30C20 26.6863 17.3137 24 14 24C10.6863 24 8.00002 26.6863 8.00002 30C8.00002 33.3137 10.6863 36 14 36ZM14 38C18.4183 38 22 34.4183 22 30C22 25.5817 18.4183 22 14 22C9.58174 22 6.00002 25.5817 6.00002 30C6.00002 34.4183 9.58174 38 14 38Z" fill="currentColor"/>
<path fill-rule="evenodd" clip-rule="evenodd" d="M34 36C37.3137 36 40 33.3137 40 30C40 26.6863 37.3137 24 34 24C30.6863 24 28 26.6863 28 30C28 33.3137 30.6863 36 34 36ZM34 38C38.4183 38 42 34.4183 42 30C42 25.5817 38.4183 22 34 22C29.5817 22 26 25.5817 26 30C26 34.4183 29.5817 38 34 38Z" fill="currentColor"/>
<path fill-rule="evenodd" clip-rule="evenodd" d="M23.9726 30C23.2365 30.0011 22.4653 30.184 21.3682 30.6185C20.8548 30.8218 20.2736 30.5704 20.0703 30.0569C19.8669 29.5435 20.1183 28.9624 20.6318 28.759C21.8395 28.2807 22.8774 28.0016 23.9696 28C25.0603 27.9984 26.1165 28.2735 27.3616 28.7564C27.8765 28.9561 28.1321 29.5354 27.9324 30.0503C27.7327 30.5652 27.1534 30.8208 26.6384 30.6211C25.5015 30.1802 24.7102 29.9989 23.9726 30Z" fill="currentColor"/>
<path fill-rule="evenodd" clip-rule="evenodd" d="M8.00551 10.5239C8.05909 10.0149 8.48826 9.62854 9.00002 9.62854H13C13.5523 9.62854 14 10.0763 14 10.6285C14 11.1808 13.5523 11.6285 13 11.6285H9.90028L7.99453 29.7332C7.93671 30.2825 7.44459 30.6809 6.89534 30.623C6.34609 30.5652 5.9477 30.0731 6.00551 29.5239L8.00551 10.5239Z" fill="currentColor"/>
<path fill-rule="evenodd" clip-rule="evenodd" d="M39.9984 10.5239C39.9449 10.0149 39.5157 9.62854 39.0039 9.62854H35.0039C34.4516 9.62854 34.0039 10.0763 34.0039 10.6285C34.0039 11.1808 34.4516 11.6285 35.0039 11.6285H38.1037L40.0094 29.7332C40.0672 30.2825 40.5594 30.6809 41.1086 30.623C41.6579 30.5652 42.0562 30.0731 41.9984 29.5239L39.9984 10.5239Z" fill="currentColor"/>
</svg>
