<svg width="48" height="48" viewBox="0 0 48 48" fill="none" xmlns="http://www.w3.org/2000/svg">
<path fill-rule="evenodd" clip-rule="evenodd" d="M37.4344 9.44336C38.35 10.505 39.4008 12.3715 40.9051 15.5749C42.5499 19.0774 42.2952 23.5958 41.7078 26.8558C41.4103 28.5073 41.0141 29.9081 40.6825 30.7903C40.599 31.0122 40.5155 31.2125 40.4341 31.3815C40.362 31.5312 40.2605 31.7229 40.1283 31.8796C40.0768 31.9405 39.9206 32.1212 39.6578 32.2216C39.5047 32.2801 39.2833 32.3228 39.0322 32.2599C38.7777 32.1961 38.5968 32.0499 38.4833 31.9124C38.2917 31.6804 38.2506 31.4274 38.2383 31.3466C38.2204 31.2287 38.2184 31.1149 38.2206 31.0224L38.2211 30.9991L38.2228 30.9759C38.4853 27.2408 38.3694 24.5565 37.606 22.1581C36.8766 19.8664 35.5271 17.7476 33.169 15.1956L31.461 15.1956L29.5144 13.2489L29.5904 12.749C29.7523 11.6851 30.4982 10.5307 31.317 9.68162C31.7422 9.24074 32.2293 8.83695 32.7428 8.53741C33.2456 8.2441 33.8424 8.01085 34.4676 8.01083C34.9123 8.01082 35.4168 8.05069 35.9511 8.28162C36.4834 8.51176 36.9607 8.89407 37.4344 9.44336ZM35.1575 10.1174C34.9821 10.0416 34.7891 10.0108 34.4676 10.0108C34.3267 10.0108 34.0838 10.0705 33.7505 10.2649C33.428 10.4531 33.0828 10.7318 32.7567 11.0699C32.2552 11.5899 31.8891 12.1535 31.7006 12.6068L32.2895 13.1956L34.035 13.1956L34.331 13.5095C36.9854 16.3243 38.6284 18.7762 39.5118 21.5515C39.7588 22.3276 39.9439 23.1215 40.0765 23.9466C40.2889 21.3705 40.1157 18.599 39.0948 16.425C37.5825 13.2046 36.6332 11.5766 35.9199 10.7496C35.5792 10.3546 35.3347 10.1941 35.1575 10.1174Z" fill="black"/>
<path fill-rule="evenodd" clip-rule="evenodd" d="M29.3461 16.8864L27.9319 15.4722L26.9202 16.4838L28.3344 17.8981L29.3461 16.8864ZM27.9319 12.6437L24.0918 16.4838L28.3344 20.7265L32.1745 16.8864L27.9319 12.6437Z" fill="black"/>
<path fill-rule="evenodd" clip-rule="evenodd" d="M11.0307 36.6162L24.2679 23.3789C25.049 22.5979 25.049 21.3315 24.2679 20.5505C23.4869 19.7694 22.2205 19.7694 21.4395 20.5505L8.20224 33.7877C7.42119 34.5688 7.42119 35.8351 8.20224 36.6162C8.98329 37.3972 10.2496 37.3972 11.0307 36.6162ZM25.6821 19.1363C24.12 17.5742 21.5874 17.5742 20.0253 19.1363L6.78803 32.3735C5.22593 33.9356 5.22593 36.4683 6.78803 38.0304C8.35012 39.5925 10.8828 39.5925 12.4449 38.0304L25.6821 24.7931C27.2442 23.231 27.2442 20.6984 25.6821 19.1363Z" fill="black"/>
</svg>
