<svg width="48" height="48" viewBox="0 0 48 48" fill="none" xmlns="http://www.w3.org/2000/svg">
<path fill-rule="evenodd" clip-rule="evenodd" d="M4.07971 18.2218L18.2218 4.07971L26 11.8579L11.8579 26L4.07971 18.2218ZM6.90814 18.2218L11.8579 23.1716L23.1716 11.8579L18.2218 6.90814L6.90814 18.2218Z" fill="black"/>
<path fill-rule="evenodd" clip-rule="evenodd" d="M11.8579 23.1716L23.1716 11.8579L40.8493 29.5356C43.9735 32.6597 43.9735 37.7251 40.8493 40.8493C37.7251 43.9735 32.6597 43.9735 29.5356 40.8493L11.8579 23.1716ZM14.6863 23.1716L30.9498 39.435C33.2929 41.7782 37.0919 41.7782 39.435 39.435C41.7782 37.0919 41.7782 33.2929 39.435 30.9498L23.1716 14.6863L14.6863 23.1716Z" fill="black"/>
<path fill-rule="evenodd" clip-rule="evenodd" d="M19.6361 23.8787L27.4142 16.1005L39.435 28.1213L31.6569 35.8995L19.6361 23.8787ZM22.4645 23.8787L31.6569 33.0711L36.6066 28.1213L27.4142 18.929L22.4645 23.8787Z" fill="black"/>
<path fill-rule="evenodd" clip-rule="evenodd" d="M8.32235 13.9792L15.747 21.4038L14.3328 22.818L6.90814 15.3934L8.32235 13.9792Z" fill="black"/>
<path fill-rule="evenodd" clip-rule="evenodd" d="M11.8579 10.4437L19.2825 17.8683L17.8683 19.2825L10.4437 11.8579L11.8579 10.4437Z" fill="black"/>
<path fill-rule="evenodd" clip-rule="evenodd" d="M15.3934 6.90814L22.818 14.3328L21.4038 15.747L13.9792 8.32235L15.3934 6.90814Z" fill="black"/>
<path fill-rule="evenodd" clip-rule="evenodd" d="M25.6023 32.2314C24.9634 32.8702 24.5738 33.4408 24.4738 33.7409L22.5765 33.1084C22.83 32.3478 23.5011 31.5042 24.1881 30.8172C24.9001 30.1052 25.7812 29.4108 26.6134 28.9947L27.5079 30.7835C26.9259 31.0745 26.2161 31.6176 25.6023 32.2314Z" fill="black"/>
</svg>
