<svg width="48" height="48" viewBox="0 0 48 48" fill="none" xmlns="http://www.w3.org/2000/svg">
<path fill-rule="evenodd" clip-rule="evenodd" d="M7.7361 16.5645C7.26475 16.0932 6.99994 15.4539 6.99994 14.7873V13.2426C6.99994 12.9774 6.89459 12.723 6.70705 12.5355L4.99994 10.8284C3.43784 9.26627 3.43785 6.73361 4.99994 5.17151L5.17151 4.99994C6.73361 3.43785 9.26627 3.43784 10.8284 4.99994L12.5355 6.70705C12.723 6.89459 12.9774 6.99994 13.2426 6.99994H14.7873C15.4539 6.99994 16.0932 7.26475 16.5645 7.7361L25.3535 16.5251C26.4077 17.5793 26.9999 19.0091 26.9999 20.4999C26.9999 20.9299 27.1708 21.3423 27.4748 21.6464L42.9142 37.0857C44.5236 38.6952 44.5236 41.3047 42.9142 42.9142C41.3047 44.5236 38.6952 44.5236 37.0857 42.9142L21.6464 27.4748C21.3423 27.1708 20.9299 26.9999 20.4999 26.9999C19.0091 26.9999 17.5793 26.4077 16.5251 25.3535L7.7361 16.5645ZM6.41416 6.58573L6.58573 6.41416C7.36678 5.63311 8.63311 5.63311 9.41416 6.41416L11.1213 8.12126C11.6839 8.68387 12.4469 8.99994 13.2426 8.99994H14.7873C14.9234 8.99994 15.054 9.05403 15.1503 9.15032L23.9393 17.9393C24.6184 18.6184 24.9999 19.5395 24.9999 20.4999C24.9999 21.4604 25.3815 22.3815 26.0606 23.0606L41.4999 38.4999C42.3284 39.3284 42.3284 40.6715 41.4999 41.4999C40.6715 42.3284 39.3284 42.3284 38.4999 41.4999L23.0606 26.0606C22.3815 25.3815 21.4604 24.9999 20.4999 24.9999C19.5395 24.9999 18.6184 24.6184 17.9393 23.9393L9.15032 15.1503C9.05403 15.054 8.99994 14.9234 8.99994 14.7873V13.2426C8.99994 12.4469 8.68387 11.6839 8.12126 11.1213L6.41416 9.41415C5.63311 8.63311 5.63311 7.36678 6.41416 6.58573Z" fill="black"/>
<path d="M26.9999 25.9999C26.9999 26.5522 26.5522 26.9999 25.9999 26.9999C25.4477 26.9999 24.9999 26.5522 24.9999 25.9999C24.9999 25.4477 25.4477 24.9999 25.9999 24.9999C26.5522 24.9999 26.9999 25.4477 26.9999 25.9999Z" fill="black"/>
<path d="M8.99994 7.99994C8.99994 8.55223 8.55223 8.99994 7.99994 8.99994C7.44766 8.99994 6.99994 8.55223 6.99994 7.99994C6.99994 7.44766 7.44766 6.99994 7.99994 6.99994C8.55223 6.99994 8.99994 7.44766 8.99994 7.99994Z" fill="black"/>
<path d="M29.9999 28.9999C29.9999 29.5522 29.5522 29.9999 28.9999 29.9999C28.4477 29.9999 27.9999 29.5522 27.9999 28.9999C27.9999 28.4477 28.4477 27.9999 28.9999 27.9999C29.5522 27.9999 29.9999 28.4477 29.9999 28.9999Z" fill="black"/>
<path d="M32.9999 31.9999C32.9999 32.5522 32.5522 32.9999 31.9999 32.9999C31.4477 32.9999 30.9999 32.5522 30.9999 31.9999C30.9999 31.4477 31.4477 30.9999 31.9999 30.9999C32.5522 30.9999 32.9999 31.4477 32.9999 31.9999Z" fill="black"/>
<path d="M35.9999 34.9999C35.9999 35.5522 35.5522 35.9999 34.9999 35.9999C34.4477 35.9999 33.9999 35.5522 33.9999 34.9999C33.9999 34.4477 34.4477 33.9999 34.9999 33.9999C35.5522 33.9999 35.9999 34.4477 35.9999 34.9999Z" fill="black"/>
<path d="M38.9999 37.9999C38.9999 38.5522 38.5522 38.9999 37.9999 38.9999C37.4477 38.9999 36.9999 38.5522 36.9999 37.9999C36.9999 37.4477 37.4477 36.9999 37.9999 36.9999C38.5522 36.9999 38.9999 37.4477 38.9999 37.9999Z" fill="black"/>
<path fill-rule="evenodd" clip-rule="evenodd" d="M12.5857 10.9999C13.3668 10.2189 14.6331 10.2189 15.4142 10.9999L22.9999 18.5857C23.781 19.3668 23.781 20.6331 22.9999 21.4142L21.4142 22.9999C20.6331 23.781 19.3668 23.781 18.5857 22.9999L10.9999 15.4142C10.2189 14.6331 10.2189 13.3668 10.9999 12.5857L12.5857 10.9999ZM13.9999 12.4142L12.4142 13.9999L19.9999 21.5857L21.5857 19.9999L13.9999 12.4142Z" fill="black"/>
</svg>
