<svg width="48" height="48" viewBox="0 0 48 48" fill="none" xmlns="http://www.w3.org/2000/svg">
<path d="M35.9721 39.531L34.105 40.7237L35.894 43.5244C36.2234 44.04 36.9084 44.1909 37.4239 43.8616C37.9395 43.5322 38.0905 42.8473 37.7612 42.3317L35.9721 39.531Z" fill="black"/>
<path d="M24.0565 20.1068L19.1474 12.4217L16.5857 14.0581L21.4948 21.7431L24.0565 20.1068Z" fill="black"/>
<path fill-rule="evenodd" clip-rule="evenodd" d="M33.0324 39.0356L33.1328 39.1926L35 37.9999L34.8997 37.8429C27.7957 26.698 27.7993 24.1659 27.8013 22.7512C27.8018 22.4078 27.8022 22.1303 27.7008 21.8113C27.5373 21.297 27.4324 20.8745 27.338 20.4937C27.1314 19.6613 26.9742 19.0276 26.3604 18.0668L17.8766 4.78566C17.282 3.85479 16.0453 3.58222 15.1145 4.17684L10.8003 6.93265C9.86944 7.52727 9.59687 8.76392 10.1915 9.69478L18.6753 22.976C19.289 23.9368 19.7978 24.3458 20.4664 24.8832C20.7721 25.1291 21.1114 25.4017 21.5093 25.7664C21.7561 25.9925 22.0084 26.1088 22.3206 26.2526C23.606 26.845 25.9077 27.9056 33.0324 39.0356ZM11.877 8.61812L16.1911 5.86231L17.8897 8.52135L13.5708 11.2698L11.877 8.61812ZM14.6474 12.9552L18.9663 10.2068L24.675 19.1435C25.1093 19.8235 25.2045 20.2001 25.3968 20.9754L25.3996 20.9866C25.4938 21.3662 25.6111 21.8392 25.7937 22.4137L25.7947 22.4225L25.796 22.436C25.7977 22.4567 25.7994 22.4888 25.8004 22.5416C25.8015 22.5973 25.8014 22.6585 25.8013 22.7484C25.8 23.6389 25.8332 24.8144 26.7019 27.0689C25.0205 25.3331 23.9668 24.8091 23.1576 24.4362C23.0759 24.3986 23.0203 24.3729 22.9702 24.3486C22.9226 24.3255 22.8943 24.3104 22.8763 24.3002C22.8738 24.2988 22.8716 24.2975 22.8696 24.2964C22.8636 24.2929 22.8597 24.2905 22.8574 24.289C22.413 23.882 22.0333 23.5767 21.7285 23.3317L21.7194 23.3244C21.0968 22.824 20.7951 22.5793 20.3607 21.8993L14.6474 12.9552Z" fill="black"/>
</svg>
