<svg width="24" height="24" viewBox="0 0 24 24" fill="none" xmlns="http://www.w3.org/2000/svg">
<path fill-rule="evenodd" clip-rule="evenodd" d="M16 2.8667H14.3485C13.7207 2.33266 12.9063 2 12 2C11.0937 2 10.2793 2.33266 9.6515 2.8667H8C6.34315 2.8667 5 4.20985 5 5.8667V16C5 17.6569 6.34315 19 8 19C8.00002 19.5523 8.44773 20 9 20H11V22H13V20H15C15.5523 20 16 19.5523 16 19C17.6569 19 19 17.6569 19 16V5.8667C19 4.20984 17.6569 2.8667 16 2.8667ZM16 4.8667H13.4437C13.1556 4.34859 12.6169 4 12 4C11.3831 4 10.8445 4.34859 10.5563 4.8667H8C7.44772 4.8667 7 5.31441 7 5.8667V14.0246C8.04361 13.947 9.82952 13.5504 12 12C14.1705 10.4497 15.9564 11.2068 17 12.0056V5.8667C17 5.31441 16.5523 4.8667 16 4.8667Z" fill="black"/>
</svg>
