<svg width="24" height="24" viewBox="0 0 24 24" fill="none" xmlns="http://www.w3.org/2000/svg">
<path d="M18 3C18 2.44772 17.5523 2 17 2C16.4477 2 16 2.44772 16 3V4.5C16 5.05228 16.4477 5.5 17 5.5C17.5523 5.5 18 5.05228 18 4.5V3Z" fill="black"/>
<path fill-rule="evenodd" clip-rule="evenodd" d="M3 4C2.44772 4 2 4.44772 2 5V19H4.05001C4.01722 19.1616 4 19.3288 4 19.5C4 20.8807 5.11929 22 6.5 22C7.88071 22 9 20.8807 9 19.5C9 19.3288 8.98278 19.1616 8.94999 19H15.05C15.0172 19.1616 15 19.3288 15 19.5C15 20.8807 16.1193 22 17.5 22C18.8807 22 20 20.8807 20 19.5C20 19.3288 19.9828 19.1616 19.95 19H22V14.2703C22 13.9162 21.906 13.5685 21.7276 13.2626L19.8199 9.99226C19.4614 9.37782 18.8036 9 18.0923 9H18V8C18 7.44772 17.5523 7 17 7C16.4477 7 16 7.44772 16 8V9H15V5C15 4.44772 14.5523 4 14 4H3ZM13 15V17H4V15H13ZM15 15V17H20V15H15ZM18.0923 11H15V13H19.259L18.0923 11ZM7.5 7V8.5H6V10.5H7.5V12H9.5V10.5H11V8.5H9.5V7H7.5Z" fill="black"/>
<path d="M21.2071 5.20711L20.1464 6.26777C19.7559 6.65829 19.1228 6.65829 18.7322 6.26777C18.3417 5.87724 18.3417 5.24408 18.7322 4.85355L19.7929 3.79289C20.1834 3.40237 20.8166 3.40237 21.2071 3.79289C21.5976 4.18342 21.5976 4.81658 21.2071 5.20711Z" fill="black"/>
<path d="M22 9C22.5523 9 23 8.55228 23 8C23 7.44772 22.5523 7 22 7H20.5C19.9477 7 19.5 7.44772 19.5 8C19.5 8.55228 19.9477 9 20.5 9H22Z" fill="black"/>
</svg>
