<svg width="24" height="24" viewBox="0 0 24 24" fill="none" xmlns="http://www.w3.org/2000/svg">
<path fill-rule="evenodd" clip-rule="evenodd" d="M8.62559 7.0767C8.86508 6.60287 9 6.06719 9 5.5C9 3.567 7.433 2 5.5 2C3.567 2 2 3.567 2 5.5C2 7.433 3.567 9 5.5 9C6.06721 9 6.6029 8.86508 7.07673 8.62557L8.76393 12L7.07671 15.3744C6.60288 15.1349 6.06719 15 5.5 15C3.567 15 2 16.567 2 18.5C2 20.433 3.567 22 5.5 22C7.433 22 9 20.433 9 18.5C9 17.9328 8.86507 17.3971 8.62557 16.9233L12 15.236L15.3744 16.9233C15.1349 17.3971 15 17.9328 15 18.5C15 20.433 16.567 22 18.5 22C20.433 22 22 20.433 22 18.5C22 16.567 20.433 15 18.5 15C17.9328 15 17.3971 15.1349 16.9233 15.3744L15.2361 12L16.9233 8.62557C17.3971 8.86508 17.9328 9 18.5 9C20.433 9 22 7.433 22 5.5C22 3.567 20.433 2 18.5 2C16.567 2 15 3.567 15 5.5C15 6.06719 15.1349 6.60287 15.3744 7.07669L12 8.7639L8.62559 7.0767ZM6.83632 6.18206C6.94097 5.97744 7 5.74561 7 5.5C7 4.67157 6.32843 4 5.5 4C4.67157 4 4 4.67157 4 5.5C4 6.32843 4.67157 7 5.5 7C5.74563 7 5.97746 6.94096 6.1821 6.8363L5.73474 5.94158C5.66474 5.97887 5.58484 6 5.5 6C5.22386 6 5 5.77614 5 5.5C5 5.22386 5.22386 5 5.5 5C5.77614 5 6 5.22386 6 5.5C6 5.58483 5.97888 5.66472 5.9416 5.7347L6.83632 6.18206ZM17.8179 6.8363C18.0225 6.94096 18.2544 7 18.5 7C19.3284 7 20 6.32843 20 5.5C20 4.67157 19.3284 4 18.5 4C17.6716 4 17 4.67157 17 5.5C17 5.74561 17.059 5.97744 17.1637 6.18206L18.0584 5.7347C18.0211 5.66472 18 5.58482 18 5.5C18 5.22386 18.2239 5 18.5 5C18.7761 5 19 5.22386 19 5.5C19 5.77614 18.7761 6 18.5 6C18.4152 6 18.3353 5.97887 18.2653 5.94158L17.8179 6.8363ZM17.1637 17.8179C17.059 18.0225 17 18.2544 17 18.5C17 19.3284 17.6716 20 18.5 20C19.3284 20 20 19.3284 20 18.5C20 17.6716 19.3284 17 18.5 17C18.2544 17 18.0226 17.059 17.8179 17.1637L18.2653 18.0584C18.3353 18.0211 18.4152 18 18.5 18C18.7761 18 19 18.2239 19 18.5C19 18.7761 18.7761 19 18.5 19C18.2239 19 18 18.7761 18 18.5C18 18.4152 18.0211 18.3352 18.0584 18.2652L17.1637 17.8179ZM6.18207 17.1637C5.97744 17.059 5.74562 17 5.5 17C4.67157 17 4 17.6716 4 18.5C4 19.3284 4.67157 20 5.5 20C6.32843 20 7 19.3284 7 18.5C7 18.2544 6.94096 18.0225 6.83629 17.8179L5.94158 18.2652C5.97887 18.3352 6 18.4152 6 18.5C6 18.7761 5.77614 19 5.5 19C5.22386 19 5 18.7761 5 18.5C5 18.2239 5.22386 18 5.5 18C5.58483 18 5.66473 18.0211 5.73471 18.0584L6.18207 17.1637Z" fill="black"/>
</svg>
