<svg width="24" height="24" viewBox="0 0 24 24" fill="none" xmlns="http://www.w3.org/2000/svg">
<path d="M19 5H2V3H19V5Z" fill="black"/>
<path d="M16 21H2V19H16V21Z" fill="black"/>
<path fill-rule="evenodd" clip-rule="evenodd" d="M22.0375 6.41465L21.068 8.99986L22.0375 11.5851L20.1648 12.2873L19.3261 10.0507L16.9738 10.2187C16.881 11.8873 16.5328 13.592 15.8459 14.9795C15.0213 16.6447 13.6141 18 11.4997 18H4.68527C3.90011 18 3.02034 17.5055 2.82987 16.5327C2.54776 15.0918 2.82269 13.2156 4.3933 11.6219C5.55268 10.4454 7.35398 9.48759 10 8.92551V7C10 6.44772 10.4477 6 11 6C11.5523 6 12 6.44772 12 7V8.59806C12.2959 8.56248 12.6002 8.53101 12.913 8.5038L12.9207 8.50313L19.2889 8.04827L20.1648 5.7124L22.0375 6.41465ZM9.99912 14V11C9.99912 11 8.74885 11.2733 7.99922 11.6C7.05436 12.0118 5.5 13 4.79883 14H9.99912Z" fill="black"/>
</svg>
