<svg width="24" height="24" viewBox="0 0 24 24" fill="none" xmlns="http://www.w3.org/2000/svg">
<path fill-rule="evenodd" clip-rule="evenodd" d="M3 3C2.44772 3 2 3.44771 2 4V13V14V16V18H4H4.05001C4.01722 18.1616 4 18.3288 4 18.5C4 19.8807 5.11929 21 6.5 21C7.88071 21 9 19.8807 9 18.5C9 18.3288 8.98278 18.1616 8.94999 18H14H15H15.05C15.0172 18.1616 15 18.3288 15 18.5C15 19.8807 16.1193 21 17.5 21C18.8807 21 20 19.8807 20 18.5C20 18.3288 19.9828 18.1616 19.95 18H21H22V17V13.2361C22 12.9256 21.9277 12.6194 21.7889 12.3416L20.1708 9.10557C19.832 8.428 19.1395 8 18.382 8H16V4C16 3.44772 15.5523 3 15 3H3ZM17.5 16H20V14H16V16H17.5ZM14 16H6.5H4V14H14V16ZM19.382 12L18.382 10H16V12H19.382ZM8 7.5V6H10V7.5H11.5V9.5H10V11H8V9.5H6.5V7.5H8Z" fill="black"/>
</svg>
