<svg width="24" height="24" viewBox="0 0 24 24" fill="none" xmlns="http://www.w3.org/2000/svg">
<path fill-rule="evenodd" clip-rule="evenodd" d="M11.6389 2.47568C13.021 1.61189 14.8164 1.81636 15.9688 2.9688L17 4.00001L15.2143 9.00001H16C17.1046 9.00001 18 9.89544 18 11V20C18 21.1046 17.1046 22 16 22H8C6.89543 22 6 21.1046 6 20V11C6 9.89544 6.89543 9.00001 8 9.00001H8.91176L7 2.50001L9.10635 3.20212C9.17276 3.22426 9.23993 3.24278 9.30757 3.25772C9.81637 3.37011 10.3523 3.27983 10.7988 3.00075L11.6389 2.47568ZM10.9965 9.00001H13.0906L14.6908 4.51926L14.5546 4.38301C14.0607 3.88911 13.2912 3.80148 12.6989 4.17168L11.8588 4.69675C11.2649 5.06791 10.592 5.2721 9.90858 5.30116L10.9965 9.00001ZM10 14H14V17H10V14Z" fill="black"/>
</svg>
