<svg width="24" height="24" viewBox="0 0 24 24" fill="none" xmlns="http://www.w3.org/2000/svg">
<path fill-rule="evenodd" clip-rule="evenodd" d="M14.2122 5.97361L19 7.34155V8.56128C20.6569 8.56128 22 9.90443 22 11.5613V12.5901C22 14.2469 20.6569 15.5901 19 15.5901C18.9963 16.0642 18.7641 16.5082 18.3765 16.7821C14.5549 19.4826 9.44222 19.4841 5.62205 16.7816C5.23478 16.5076 5.00341 16.064 5.00004 15.5901C3.34318 15.5901 2 14.2469 2 12.5901V11.5613C2 9.90443 3.34315 8.56128 5 8.56128V7.34155L9.78779 5.97361C10.3362 5.3752 11.1243 5 12 5C12.8757 5 13.6638 5.3752 14.2122 5.97361ZM5 10.5613C4.44772 10.5613 4 11.009 4 11.5613V12.5901C4 13.1424 4.44772 13.5901 5 13.5901V10.5613ZM19 13.5901C19.5523 13.5901 20 13.1424 20 12.5901V11.5613C20 11.009 19.5523 10.5613 19 10.5613V13.5901ZM12.2785 8.30364L14.7785 9.30364C15.1631 9.45748 15.3502 9.89396 15.1964 10.2785C15.0425 10.6631 14.606 10.8502 14.2215 10.6964L12 9.80777L9.77854 10.6964C9.39396 10.8502 8.95748 10.6631 8.80364 10.2785C8.64981 9.89396 8.83687 9.45748 9.22146 9.30364L11.7215 8.30364C11.9003 8.23212 12.0997 8.23212 12.2785 8.30364Z" fill="black"/>
</svg>
