<svg width="24" height="24" viewBox="0 0 24 24" fill="none" xmlns="http://www.w3.org/2000/svg">
<path d="M17.4016 7.775L18.9614 13.2248C19.0478 13.5266 18.9874 13.8514 18.7985 14.102C18.6095 14.3526 18.3139 14.5 18 14.5H17V17.5C14.6528 17.5 12.75 15.5972 12.75 13.25V7.75H17C17.1353 7.75 17.2687 7.75827 17.3996 7.77433L16.59 6.25H17C19.6233 6.25 22 8.37665 22 11V19H17L17 17.5H20.5V11C20.5 9.50045 19.1957 7.77605 17.4016 7.775Z" fill="black"/>
<path d="M16 19C16.1015 19 16.1994 18.9849 16.2917 18.9568C13.4502 18.6077 11.25 16.1858 11.25 13.25V13H2.54293C2.8779 13.8498 3.32595 14.5692 3.76367 15.1432C4.19659 15.7108 4.62899 16.1495 4.95544 16.4482C5.0128 16.5007 5.06705 16.549 5.11767 16.5931V20C5.11767 20.5523 5.56538 21 6.11767 21H11C11.5523 21 12 20.5523 12 20V19H16Z" fill="black"/>
<path d="M11.25 11.5H2.11656C2.04201 11.0805 2 10.6389 2 10.1765C2 9.29954 2.15439 8.48782 2.43387 7.75L11.25 7.75V11.5Z" fill="black"/>
<path d="M16.5881 6.25C16.3267 5.9076 15.9803 5.50867 15.5407 5.10963C14.3795 4.05534 12.5643 3 10 3C7.3196 3 4.71459 4.18762 3.23862 6.25H16.5881Z" fill="black"/>
</svg>
