<svg width="24" height="24" viewBox="0 0 24 24" fill="none" xmlns="http://www.w3.org/2000/svg">
<path fill-rule="evenodd" clip-rule="evenodd" d="M5 8L12 6L19 8C20.6569 8 22 9.34315 22 11V13C22 14.6569 20.6569 16 19 16H18.9578C18.8174 16.6719 18.3373 17.2367 17.6727 17.474L17.045 17.6982C13.7826 18.8634 10.2174 18.8634 6.95495 17.6982L6.32733 17.474C5.66275 17.2367 5.18264 16.6719 5.04224 16H5C3.34315 16 2 14.6569 2 13V11C2 9.34315 3.34315 8 5 8ZM5 10C4.44772 10 4 10.4477 4 11V13C4 13.5523 4.44772 14 5 14V10ZM19 14C19.5523 14 20 13.5523 20 13V11C20 10.4477 19.5523 10 19 10V14ZM9 10V11.5H15V10H9ZM9 13.5V15H15V13.5H9Z" fill="black"/>
<path fill-rule="evenodd" clip-rule="evenodd" d="M19 8L12 6L5 8C3.34315 8 2 9.34315 2 11V13C2 14.6569 3.34315 16 5 16H5.04224C5.18264 16.6719 5.66275 17.2367 6.32733 17.474L6.95495 17.6982C10.2174 18.8634 13.7826 18.8634 17.045 17.6982L17.6727 17.474C18.3373 17.2367 18.8174 16.6719 18.9578 16H19C20.6569 16 22 14.6569 22 13V11C22 9.34315 20.6569 8 19 8ZM20 11C20 10.4477 19.5523 10 19 10V14C19.5523 14 20 13.5523 20 13V11ZM4 13C4 13.5523 4.44772 14 5 14V10C4.44772 10 4 10.4477 4 11V13ZM15 10H9V11.5H15V10ZM9 15V13.5H15V15H9Z" fill="black"/>
</svg>
