<svg width="24" height="24" viewBox="0 0 24 24" fill="none" xmlns="http://www.w3.org/2000/svg">
<path fill-rule="evenodd" clip-rule="evenodd" d="M7.1214 4.29289C7.30893 4.10536 7.56329 4 7.8285 4H11.0001V7H10.0001C9.44779 7 9.00008 7.44772 9.00008 8V9H8.00008C6.34322 9 5.00008 10.3431 5.00008 12V22H19.0001V12C19.0001 10.3431 17.6569 9 16.0001 9H15.0001V8C15.0001 7.44772 14.5524 7 14.0001 7H13.0001V4H17.0001V2H7.8285C7.03285 2 6.26979 2.31607 5.70718 2.87868L4.29297 4.29289L5.70718 5.70711L7.1214 4.29289ZM11.0001 14V12H13.0001V14H15.0001V16H13.0001V18H11.0001V16H9.00008V14H11.0001Z" fill="black"/>
<path fill-rule="evenodd" clip-rule="evenodd" d="M9.00008 11H8.00008C7.44779 11 7.00008 11.4477 7.00008 12H9.00008V11ZM9.00008 14V16H11.0001V18H13.0001V16H15.0001V14H13.0001V12H11.0001V14H9.00008ZM11.0001 10H13.0001V9H11.0001V10ZM15.0001 11V12H17.0001C17.0001 11.4477 16.5524 11 16.0001 11H15.0001ZM15.0001 18V20H17.0001V18H15.0001ZM9.00008 20V18H7.00008V20H9.00008ZM5.92723 2.67939C6.46107 2.24199 7.13231 2 7.8285 2H17.0001V4H13.0001V7H14.0001C14.5524 7 15.0001 7.44772 15.0001 8V9H16.0001C17.6569 9 19.0001 10.3431 19.0001 12V22H5.00008V12C5.00008 10.3431 6.34322 9 8.00008 9H9.00008V8C9.00008 7.44772 9.44779 7 10.0001 7H11.0001V4H7.8285C7.56329 4 7.30893 4.10536 7.1214 4.29289L5.70718 5.70711L4.29297 4.29289L5.70718 2.87868C5.77751 2.80835 5.85097 2.74188 5.92723 2.67939Z" fill="black"/>
</svg>
