<svg width="24" height="24" viewBox="0 0 24 24" fill="none" xmlns="http://www.w3.org/2000/svg">
<path fill-rule="evenodd" clip-rule="evenodd" d="M9.00003 5C9.00003 3.34315 10.3432 2 12 2C13.6569 2 15 3.34315 15 5L15 7H15.2099C16.229 7 17.0852 7.76627 17.1977 8.77914L17.8252 14.4266C17.9185 15.2659 17.2615 16 16.417 16C16.2718 16 16.1318 15.9782 16 15.9377L16 21C16 21.5523 15.5523 22 15 22H14C13.4477 22 13 21.5523 13 21V16H11V21C11 21.5523 10.5523 22 10 22H9.00003C8.44774 22 8.00003 21.5523 8.00003 21V15.9377C7.86821 15.9782 7.72821 16 7.58311 16C6.7386 16 6.08159 15.2659 6.17485 14.4266L6.80235 8.77914C6.91489 7.76627 7.77102 7 8.79011 7H9.00003V5ZM14 4H10V4.5C10 5.32843 10.6716 6 11.5 6H12.5C13.3285 6 14 5.32843 14 4.5V4ZM11.5 12L11.5 9H12.5L12.5 12H15V13H9.00003V12H11.5Z" fill="black"/>
</svg>
