<svg width="24" height="24" viewBox="0 0 24 24" fill="none" xmlns="http://www.w3.org/2000/svg">
<path fill-rule="evenodd" clip-rule="evenodd" d="M12 5.34424L5 7.34424V8.56396C3.34315 8.56396 2 9.90711 2 11.564V12.5928C2 14.2496 3.34315 15.5928 5 15.5928C5.00332 16.0667 5.23467 16.5103 5.62188 16.7843C9.44393 19.4887 14.5561 19.4887 18.3781 16.7843C18.7653 16.5103 18.9966 16.0667 19 15.5928C20.6568 15.5928 22 14.2496 22 12.5928V11.564C22 9.90711 20.6569 8.56396 19 8.56396V7.34424L12 5.34424ZM19 10.564V13.5928C19.5523 13.5928 20 13.1451 20 12.5928V11.564C20 11.0117 19.5523 10.564 19 10.564ZM5 13.5928V10.564C4.44772 10.564 4 11.0117 4 11.564V12.5928C4 13.1451 4.44772 13.5928 5 13.5928ZM12.7017 15.2075V8.94922H11.2983V15.2075H12.7017ZM16.4445 13.7172C16.4445 14.3255 15.9514 14.8186 15.3431 14.8186C14.7348 14.8186 14.2416 14.3255 14.2416 13.7172C14.2416 13.1089 14.7348 12.6157 15.3431 12.6157C15.9514 12.6157 16.4445 13.1089 16.4445 13.7172Z" fill="black"/>
<path fill-rule="evenodd" clip-rule="evenodd" d="M19 7.34424L12 5.34424L5 7.34424V8.56396C3.34315 8.56396 2 9.90711 2 11.564V12.5928C2 14.2496 3.34315 15.5928 5 15.5928C5.00332 16.0667 5.23467 16.5103 5.62188 16.7843C9.44393 19.4887 14.5561 19.4887 18.3781 16.7843C18.7653 16.5103 18.9966 16.0667 19 15.5928C20.6568 15.5928 22 14.2496 22 12.5928V11.564C22 9.90711 20.6569 8.56396 19 8.56396V7.34424ZM17 8.85284V11.0949C16.5207 10.7914 15.9524 10.6157 15.3431 10.6157C15.1232 10.6157 14.9086 10.6386 14.7017 10.6821V8.19617L17 8.85284ZM9.29834 8.19617V16.4001C8.49676 16.1493 7.72238 15.7841 7 15.3045V8.85284L9.29834 8.19617ZM12.7017 15.2075V8.94922H11.2983V15.2075H12.7017ZM19 13.5928C19.0345 13.5928 19.0686 13.591 19.1022 13.5876C19.6065 13.5364 20 13.1105 20 12.5928V11.564C20 11.0117 19.5523 10.564 19 10.564V11.5928C18.6358 11.5928 18.3171 11.7874 18.1423 12.0784C18.3171 12.3693 18.6358 12.564 19 12.564V13.5928ZM14.7017 14.6127C14.8823 14.7423 15.1038 14.8186 15.3431 14.8186C15.9514 14.8186 16.4445 14.3255 16.4445 13.7172C16.4445 13.1089 15.9514 12.6157 15.3431 12.6157C15.1038 12.6157 14.8823 12.692 14.7017 12.8217C14.4231 13.0215 14.2416 13.3482 14.2416 13.7172C14.2416 14.0862 14.4231 14.4128 14.7017 14.6127ZM5 10.564C4.44772 10.564 4 11.0117 4 11.564V12.5928C4 13.1451 4.44772 13.5928 5 13.5928V12.564C5.36416 12.564 5.68286 12.3693 5.85772 12.0784C5.68286 11.7874 5.36416 11.5928 5 11.5928V10.564Z" fill="black"/>
</svg>
