<svg width="24" height="24" viewBox="0 0 24 24" fill="none" xmlns="http://www.w3.org/2000/svg">
<path fill-rule="evenodd" clip-rule="evenodd" d="M19.7494 18.3208C21.1562 16.5981 22 14.3976 22 12C22 6.47715 17.5228 2 12 2C9.6024 2 7.40188 2.84378 5.67918 4.25059L19.7494 18.3208ZM15.6395 9.91006C16.2164 9.76967 16.7858 9.33984 17.1561 8.69854C17.7774 7.62238 17.6026 6.35823 16.7655 5.87498C15.9285 5.39173 14.7463 5.87238 14.125 6.94854C13.6353 7.7968 13.6402 8.76186 14.0741 9.36922C14.0671 9.71401 14.0539 10.0572 14.0259 10.2872V10.3324L14.0786 10.4027L15.0786 11.4027C15.3052 11.1761 15.3564 11.1209 15.4786 10.9027C15.5855 10.7118 15.595 10.5164 15.603 10.3498C15.6057 10.2949 15.6082 10.2431 15.614 10.1957C15.6259 10.0979 15.634 10.0031 15.6395 9.91006Z" fill="black"/>
<path fill-rule="evenodd" clip-rule="evenodd" d="M18.3366 19.7365C16.6116 21.151 14.4049 22 12 22C6.47715 22 2 17.5228 2 12C2 9.59506 2.84895 7.3884 4.26353 5.66337L18.3366 19.7365ZM10.8425 15.7113C10.7941 15.9774 10.6833 16.2936 10.4162 16.5606C10.1825 16.7944 9.89603 16.8667 9.66435 16.8737C9.44673 16.8803 9.24176 16.832 9.08213 16.7827C8.81928 16.7016 8.52207 16.5645 8.2752 16.4506C8.23046 16.43 8.18734 16.4101 8.14642 16.3915C8.03978 16.3429 7.94236 16.3 7.85324 16.2631C7.73148 16.2128 7.62277 16.3271 7.68169 16.4449C7.8976 16.8767 8.22622 17.31 8.4162 17.5L7.35553 18.5606C7.04551 18.2506 6.62414 17.6839 6.34005 17.1157C6.19834 16.8323 6.06588 16.5 6.01841 16.1676C5.9726 15.847 5.98781 15.3677 6.35555 15C6.78933 14.5662 7.34719 14.5788 7.71921 14.6514C8.09236 14.7242 8.47449 14.8927 8.7681 15.0264C8.82443 15.052 8.87783 15.0765 8.92859 15.0998C9.00249 15.1337 9.07079 15.1651 9.13446 15.1937C9.25505 15.2479 9.38586 15.1625 9.38586 15.0303L9.38585 15.0073C9.38575 14.8354 9.38562 14.589 9.42921 14.3493C9.47758 14.0832 9.58846 13.7671 9.85553 13.5L10.9162 14.5606C10.9192 14.5577 10.9212 14.5551 10.9224 14.5533C10.9193 14.5597 10.9122 14.5782 10.905 14.6176C10.8881 14.7107 10.8859 14.8277 10.8859 15.0303L10.8859 15.0533C10.886 15.2252 10.8861 15.4716 10.8425 15.7113Z" fill="black"/>
</svg>
