<svg width="24" height="24" viewBox="0 0 24 24" fill="none" xmlns="http://www.w3.org/2000/svg">
<path fill-rule="evenodd" clip-rule="evenodd" d="M3.94453 14.0154C3.68761 9.39089 7.36835 5.5 12 5.5C16.6317 5.5 20.3124 9.39089 20.0555 14.0154L19.9992 15.0277C19.9845 15.2927 19.7654 15.5 19.5 15.5H4.5C4.23464 15.5 4.01549 15.2927 4.00077 15.0277L3.94453 14.0154ZM8.67082 10.8354C8.88023 10.4166 9.19568 9.99866 9.55059 9.69444C9.91403 9.38293 10.2464 9.25 10.5 9.25C10.9142 9.25 11.25 8.91421 11.25 8.5C11.25 8.08579 10.9142 7.75 10.5 7.75C9.75355 7.75 9.08597 8.11707 8.57441 8.55556C8.05432 9.00134 7.61977 9.58341 7.32918 10.1646C7.14394 10.5351 7.29411 10.9856 7.66459 11.1708C8.03507 11.3561 8.48558 11.2059 8.67082 10.8354Z" fill="black"/>
<path d="M2 15.5C2 14.6716 2.67157 14 3.5 14H20.5C21.3284 14 22 14.6716 22 15.5C22 16.3284 21.3284 17 20.5 17H3.5C2.67157 17 2 16.3284 2 15.5Z" fill="black"/>
</svg>
