<svg width="24" height="24" viewBox="0 0 24 24" fill="none" xmlns="http://www.w3.org/2000/svg">
<path fill-rule="evenodd" clip-rule="evenodd" d="M3 4C3 3.44772 3.44772 3 4 3H12.5C13.0523 3 13.5 3.44772 13.5 4V9C13.5 9.55228 13.0523 10 12.5 10H4C3.44772 10 3 9.55228 3 9V4ZM4.5 5.25C4.5 5.66421 4.83579 6 5.25 6C5.66421 6 6 5.66421 6 5.25C6 4.83579 5.66421 4.5 5.25 4.5C4.83579 4.5 4.5 4.83579 4.5 5.25ZM7.25 6C6.83579 6 6.5 5.66421 6.5 5.25C6.5 4.83579 6.83579 4.5 7.25 4.5C7.66421 4.5 8 4.83579 8 5.25C8 5.66421 7.66421 6 7.25 6ZM8.5 5.25C8.5 5.66421 8.83579 6 9.25 6C9.66421 6 10 5.66421 10 5.25C10 4.83579 9.66421 4.5 9.25 4.5C8.83579 4.5 8.5 4.83579 8.5 5.25ZM11.25 6C10.8358 6 10.5 5.66421 10.5 5.25C10.5 4.83579 10.8358 4.5 11.25 4.5C11.6642 4.5 12 4.83579 12 5.25C12 5.66421 11.6642 6 11.25 6ZM4.5 7.75C4.5 8.16421 4.83579 8.5 5.25 8.5C5.66421 8.5 6 8.16421 6 7.75C6 7.33579 5.66421 7 5.25 7C4.83579 7 4.5 7.33579 4.5 7.75ZM7.25 8.5C6.83579 8.5 6.5 8.16421 6.5 7.75C6.5 7.33579 6.83579 7 7.25 7C7.66421 7 8 7.33579 8 7.75C8 8.16421 7.66421 8.5 7.25 8.5ZM8.5 7.75C8.5 8.16421 8.83579 8.5 9.25 8.5C9.66421 8.5 10 8.16421 10 7.75C10 7.33579 9.66421 7 9.25 7C8.83579 7 8.5 7.33579 8.5 7.75ZM11.25 8.5C10.8358 8.5 10.5 8.16421 10.5 7.75C10.5 7.33579 10.8358 7 11.25 7C11.6642 7 12 7.33579 12 7.75C12 8.16421 11.6642 8.5 11.25 8.5Z" fill="black"/>
<path fill-rule="evenodd" clip-rule="evenodd" d="M17 6.69401C16.5858 6.69401 16.25 7.0298 16.25 7.44401V8.35352C15.0957 8.67998 14.25 9.74122 14.25 11V19.5H14C13.5858 19.5 13.25 19.8358 13.25 20.25C13.25 20.6642 13.5858 21 14 21H20C20.4142 21 20.75 20.6642 20.75 20.25C20.75 19.8358 20.4142 19.5 20 19.5H19.75V11C19.75 9.74122 18.9043 8.67998 17.75 8.35352V7.44401C17.75 7.0298 17.4142 6.69401 17 6.69401ZM15.75 11C15.75 10.3096 16.3096 9.75 17 9.75C17.6904 9.75 18.25 10.3096 18.25 11V19.5H15.75V11Z" fill="black"/>
<path d="M3.74455 12.0855C3.34445 12.1927 3.10701 12.6039 3.21422 13.004C3.32142 13.4041 3.73268 13.6416 4.13278 13.5344L7.00006 12.7661V20C7.00006 20.4142 7.33585 20.75 7.75006 20.75C8.16427 20.75 8.50006 20.4142 8.50006 20V12.7661L11.3674 13.5344C11.7675 13.6416 12.1788 13.4041 12.286 13.004C12.3932 12.6039 12.1558 12.1927 11.7557 12.0855L9.58232 11.5031C8.78809 11.2903 7.97188 11.7566 7.7501 12.546C7.52832 11.7566 6.71211 11.2903 5.91788 11.5031L3.74455 12.0855Z" fill="black"/>
</svg>
