<svg width="24" height="24" viewBox="0 0 24 24" fill="none" xmlns="http://www.w3.org/2000/svg">
<path fill-rule="evenodd" clip-rule="evenodd" d="M4 3.87592C4 3.37549 4.37264 2.95338 4.8692 2.89131L10.0154 2.24802C11.0692 2.1163 12 2.93797 12 3.99996C12 2.93797 12.9308 2.1163 13.9846 2.24802L19.1308 2.89131C19.6274 2.95338 20 3.37549 20 3.87592C20 4.47277 19.4769 4.93457 18.8846 4.86054L13 4.12496V16.1707C14.1652 16.5825 15 17.6937 15 19C15 20.6568 13.6569 22 12 22C10.3431 22 9 20.6568 9 19C9 17.6937 9.83481 16.5825 11 16.1707V4.12496L5.11535 4.86054C4.52311 4.93457 4 4.47277 4 3.87592ZM13 19C13 19.5522 12.5523 20 12 20C11.4477 20 11 19.5522 11 19C11 18.4477 11.4477 18 12 18C12.5523 18 13 18.4477 13 19Z" fill="black"/>
</svg>
