<svg width="24" height="24" viewBox="0 0 24 24" fill="none" xmlns="http://www.w3.org/2000/svg">
<path fill-rule="evenodd" clip-rule="evenodd" d="M9.58539 7.42C9.52986 7.60357 9.5 7.7983 9.5 8V19H13.5V8C13.5 6.89543 12.6046 6 11.5 6C10.5971 6 9.83399 6.59827 9.58539 7.42ZM13 4.29076C13.0191 4.29848 13.0381 4.30634 13.057 4.31434C14.4926 4.92157 15.5 6.34315 15.5 8V19H16.5C17.3284 19 18 19.6716 18 20.5C18 21.3284 17.3284 22 16.5 22H6.5C5.67157 22 5 21.3284 5 20.5C5 19.6716 5.67157 19 6.5 19H7.5V8C7.5 6.32131 8.53409 4.88415 10 4.29076V3.5C10 2.67157 10.6716 2 11.5 2C12.3284 2 13 2.67157 13 3.5V4.29076Z" fill="black"/>
</svg>
