<svg width="24" height="24" viewBox="0 0 24 24" fill="none" xmlns="http://www.w3.org/2000/svg">
<path d="M18.2574 3.04039C16.6079 3.3153 15.3153 4.60785 15.0404 6.25731C14.9261 6.94343 15.1179 7.59015 15.5007 8.08229L15.1947 8.49031C14.8361 8.96852 14.2732 9.24995 13.6754 9.24995H12.8524C10.9372 9.24995 9.58486 11.1262 10.1905 12.9431L10.3037 13.2827C10.5666 14.0715 9.88821 14.8537 9.07014 14.705C7.36157 14.3943 5.83623 15.8176 6.02801 17.5435L6.05171 17.7569C6.12353 18.4033 5.68919 18.9973 5.05144 19.1248L4.35291 19.2645C3.94674 19.3458 3.68333 19.7409 3.76456 20.147C3.8458 20.5532 4.24092 20.8166 4.64709 20.7354L5.34562 20.5957C6.74631 20.3155 7.70028 19.0109 7.54253 17.5912L7.51883 17.3779C7.43795 16.65 8.08124 16.0497 8.80181 16.1808C10.7416 16.5334 12.3502 14.6787 11.7267 12.8083L11.6135 12.4688C11.3317 11.6232 11.9611 10.75 12.8524 10.75H13.6754C14.7453 10.75 15.7528 10.2462 16.3947 9.39031L16.7517 8.9143C17.0623 8.99708 17.3975 9.01704 17.7426 8.95951C19.3921 8.6846 20.6847 7.39205 20.9596 5.7426C21.2244 4.15334 19.8466 2.77552 18.2574 3.04039Z" fill="black"/>
<path d="M11.0548 3.32416C10.1507 3.47484 9.41308 4.15197 9.17192 5.03625C9.06125 5.44203 9.13468 5.83765 9.32677 6.15771L8.8594 6.85877C8.69647 7.10316 8.42219 7.24995 8.12847 7.24995H7.75C6.64543 7.24995 5.75 8.14538 5.75 9.24995C5.75 9.52609 5.52614 9.74995 5.25 9.74995C4.14543 9.74995 3.25 10.6454 3.25 11.75V12C3.25 12.4142 3.58579 12.75 4 12.75C4.41421 12.75 4.75 12.4142 4.75 12V11.75C4.75 11.4738 4.97386 11.25 5.25 11.25C6.35457 11.25 7.25 10.3545 7.25 9.24995C7.25 8.97381 7.47386 8.74995 7.75 8.74995H8.12847C8.92372 8.74995 9.66635 8.35251 10.1075 7.69082L10.6492 6.87823C10.7526 6.87326 10.8578 6.85692 10.9637 6.82804C11.848 6.58687 12.5251 5.84929 12.6758 4.94518C12.8347 3.9918 12.0081 3.16526 11.0548 3.32416Z" fill="black"/>
<path d="M18.1471 11.3088C17.2045 11.4659 16.4659 12.2045 16.3088 13.147C16.2724 13.3658 16.2904 13.5775 16.3514 13.7709L15.0321 15.31C14.7928 15.5892 14.4434 15.75 14.0756 15.75C13.1529 15.75 12.2912 16.2111 11.7793 16.9789L11.7373 17.0419C11.4196 17.5185 11.25 18.0785 11.25 18.6513V19C11.25 19.4142 11.5858 19.75 12 19.75C12.4142 19.75 12.75 19.4142 12.75 19V18.6513C12.75 18.3747 12.8319 18.1042 12.9854 17.874L13.0274 17.8109C13.261 17.4605 13.6544 17.25 14.0756 17.25C14.8813 17.25 15.6467 16.8979 16.171 16.2862L17.5255 14.706C17.6318 14.7141 17.7415 14.7097 17.8529 14.6911C18.7955 14.534 19.5341 13.7954 19.6912 12.8529C19.8425 11.9447 19.0552 11.1574 18.1471 11.3088Z" fill="black"/>
</svg>
