<svg width="24" height="24" viewBox="0 0 24 24" fill="none" xmlns="http://www.w3.org/2000/svg">
<path d="M14.2903 12.75C14.712 12.75 15.0539 12.4142 15.0539 12C15.0539 11.5858 14.712 11.25 14.2903 11.25C13.8685 11.25 13.5266 11.5858 13.5266 12C13.5266 12.4142 13.8685 12.75 14.2903 12.75Z" fill="black"/>
<path d="M17.3448 12C17.3448 12.4142 17.0029 12.75 16.5812 12.75C16.1595 12.75 15.8176 12.4142 15.8176 12C15.8176 11.5858 16.1595 11.25 16.5812 11.25C17.0029 11.25 17.3448 11.5858 17.3448 12Z" fill="black"/>
<path d="M7.41751 12.75C7.83925 12.75 8.18115 12.4142 8.18115 12C8.18115 11.5858 7.83925 11.25 7.41751 11.25C6.99576 11.25 6.65387 11.5858 6.65387 12C6.65387 12.4142 6.99576 12.75 7.41751 12.75Z" fill="black"/>
<path d="M10.4721 12C10.4721 12.4142 10.1302 12.75 9.70842 12.75C9.28667 12.75 8.94478 12.4142 8.94478 12C8.94478 11.5858 9.28667 11.25 9.70842 11.25C10.1302 11.25 10.4721 11.5858 10.4721 12Z" fill="black"/>
<path d="M11.9993 12.75C12.4211 12.75 12.763 12.4142 12.763 12C12.763 11.5858 12.4211 11.25 11.9993 11.25C11.5776 11.25 11.2357 11.5858 11.2357 12C11.2357 12.4142 11.5776 12.75 11.9993 12.75Z" fill="black"/>
<path d="M8.70144 16.6842C9.08381 17.0814 9.07111 17.7149 8.67307 18.0991L8.02821 18.7216C7.63018 19.1058 6.99753 19.0953 6.61517 18.6981C6.2328 18.3008 6.2455 17.6674 6.64353 17.2832L7.2884 16.6607C7.68643 16.2765 8.31907 16.287 8.70144 16.6842Z" fill="black"/>
<path d="M11.5931 18.0991C11.9911 17.7149 12.0038 17.0814 11.6215 16.6842C11.2391 16.287 10.6064 16.2765 10.2084 16.6607L9.56355 17.2832C9.16551 17.6674 9.15281 18.3008 9.53518 18.6981C9.91755 19.0953 10.5502 19.1058 10.9482 18.7216L11.5931 18.0991Z" fill="black"/>
<path d="M14.5414 16.6842C14.9238 17.0814 14.9111 17.7149 14.5131 18.0991L13.8682 18.7216C13.4702 19.1058 12.8375 19.0953 12.4552 18.6981C12.0728 18.3008 12.0855 17.6674 12.4835 17.2832L13.1284 16.6607C13.5264 16.2765 14.1591 16.287 14.5414 16.6842Z" fill="black"/>
<path d="M17.4331 18.0991C17.8311 17.7149 17.8438 17.0814 17.4614 16.6842C17.0791 16.287 16.4464 16.2765 16.0484 16.6607L15.4035 17.2832C15.0055 17.6674 14.9928 18.3008 15.3752 18.6981C15.7575 19.0953 16.3902 19.1058 16.7882 18.7216L17.4331 18.0991Z" fill="black"/>
<path d="M8.70144 13.8042C9.08381 14.2014 9.07111 14.8349 8.67307 15.2191L8.02821 15.8416C7.63018 16.2258 6.99753 16.2153 6.61517 15.8181C6.2328 15.4208 6.2455 14.7874 6.64353 14.4032L7.2884 13.7807C7.68643 13.3965 8.31907 13.407 8.70144 13.8042Z" fill="black"/>
<path d="M11.5931 15.2191C11.9911 14.8349 12.0038 14.2014 11.6215 13.8042C11.2391 13.407 10.6064 13.3965 10.2084 13.7807L9.56355 14.4032C9.16551 14.7874 9.15281 15.4208 9.53518 15.8181C9.91755 16.2153 10.5502 16.2258 10.9482 15.8416L11.5931 15.2191Z" fill="black"/>
<path d="M14.5414 13.8042C14.9238 14.2014 14.9111 14.8349 14.5131 15.2191L13.8682 15.8416C13.4702 16.2258 12.8375 16.2153 12.4552 15.8181C12.0728 15.4208 12.0855 14.7874 12.4835 14.4032L13.1284 13.7807C13.5264 13.3965 14.1591 13.407 14.5414 13.8042Z" fill="black"/>
<path d="M17.4331 15.2191C17.8311 14.8349 17.8438 14.2014 17.4614 13.8042C17.0791 13.407 16.4464 13.3965 16.0484 13.7807L15.4035 14.4032C15.0055 14.7874 14.9928 15.4208 15.3752 15.8181C15.7575 16.2153 16.3902 16.2258 16.7882 15.8416L17.4331 15.2191Z" fill="black"/>
<path d="M8.70144 8.1842C9.08381 8.58142 9.07111 9.21489 8.67307 9.59911L8.02821 10.2216C7.63018 10.6058 6.99753 10.5953 6.61517 10.1981C6.2328 9.80085 6.2455 9.16737 6.64353 8.78315L7.2884 8.16067C7.68643 7.77646 8.31907 7.78699 8.70144 8.1842Z" fill="black"/>
<path d="M11.5931 9.59911C11.9911 9.21489 12.0038 8.58142 11.6215 8.1842C11.2391 7.78699 10.6064 7.77646 10.2084 8.16067L9.56355 8.78315C9.16551 9.16737 9.15281 9.80085 9.53518 10.1981C9.91755 10.5953 10.5502 10.6058 10.9482 10.2216L11.5931 9.59911Z" fill="black"/>
<path d="M14.5414 8.1842C14.9238 8.58142 14.9111 9.21489 14.5131 9.59911L13.8682 10.2216C13.4702 10.6058 12.8375 10.5953 12.4552 10.1981C12.0728 9.80085 12.0855 9.16737 12.4835 8.78315L13.1284 8.16067C13.5264 7.77646 14.1591 7.78699 14.5414 8.1842Z" fill="black"/>
<path d="M17.4331 9.59911C17.8311 9.21489 17.8438 8.58142 17.4614 8.1842C17.0791 7.78699 16.4464 7.77646 16.0484 8.16067L15.4035 8.78315C15.0055 9.16737 14.9928 9.80085 15.3752 10.1981C15.7575 10.5953 16.3902 10.6058 16.7882 10.2216L17.4331 9.59911Z" fill="black"/>
<path d="M8.70144 5.3042C9.08381 5.70142 9.07111 6.33489 8.67307 6.71911L8.02821 7.34159C7.63018 7.7258 6.99753 7.71527 6.61517 7.31806C6.2328 6.92085 6.2455 6.28737 6.64353 5.90315L7.2884 5.28067C7.68643 4.89646 8.31907 4.90699 8.70144 5.3042Z" fill="black"/>
<path d="M11.5931 6.71911C11.9911 6.33489 12.0038 5.70142 11.6215 5.3042C11.2391 4.90699 10.6064 4.89646 10.2084 5.28067L9.56355 5.90315C9.16551 6.28737 9.15281 6.92085 9.53518 7.31806C9.91755 7.71527 10.5502 7.7258 10.9482 7.34159L11.5931 6.71911Z" fill="black"/>
<path d="M14.5414 5.3042C14.9238 5.70142 14.9111 6.33489 14.5131 6.71911L13.8682 7.34159C13.4702 7.7258 12.8375 7.71527 12.4552 7.31806C12.0728 6.92085 12.0855 6.28737 12.4835 5.90315L13.1284 5.28067C13.5264 4.89646 14.1591 4.90699 14.5414 5.3042Z" fill="black"/>
<path d="M17.4331 6.71911C17.8311 6.33489 17.8438 5.70142 17.4614 5.3042C17.0791 4.90699 16.4464 4.89646 16.0484 5.28067L15.4035 5.90315C15.0055 6.28737 14.9928 6.92085 15.3752 7.31806C15.7575 7.71527 16.3902 7.7258 16.7882 7.34159L17.4331 6.71911Z" fill="black"/>
<path fill-rule="evenodd" clip-rule="evenodd" d="M6.01819 2C4.91362 2 4.01819 2.89543 4.01819 4V20C4.01819 21.1046 4.91362 22 6.01819 22H18.0533C19.1578 22 20.0533 21.1046 20.0533 20V4C20.0533 2.89543 19.1578 2 18.0533 2H6.01819ZM6.01819 4L18.0533 4L18.0533 20H6.01819V4Z" fill="black"/>
</svg>
