<svg width="24" height="24" viewBox="0 0 24 24" fill="none" xmlns="http://www.w3.org/2000/svg">
<path fill-rule="evenodd" clip-rule="evenodd" d="M5.62132 3.66412C6.24988 2.5998 7.82375 2.70986 8.29806 3.8513L10.8216 9.92409C11.2495 10.9538 10.4441 12.0738 9.33178 11.996L3.46414 11.5857C2.35178 11.5079 1.71016 10.2867 2.27719 9.32661L5.62132 3.66412ZM4.4107 9.64704L8.66424 9.94447L6.83491 5.54221L4.4107 9.64704Z" fill="black"/>
<path d="M15.7588 5.28407C15.2254 5.14113 14.677 5.45771 14.5341 5.99118C14.3912 6.52465 14.7077 7.07298 15.2412 7.21593L17.1731 7.73356C17.7065 7.87651 18.2549 7.55992 18.3978 7.02646C18.5407 6.49299 18.2242 5.94465 17.6907 5.80171L15.7588 5.28407Z" fill="black"/>
<path fill-rule="evenodd" clip-rule="evenodd" d="M16.5 2C14.0147 2 12 4.01472 12 6.5C12 8.98528 14.0147 11 16.5 11C18.9853 11 21 8.98528 21 6.5C21 4.01472 18.9853 2 16.5 2ZM14 6.5C14 5.11929 15.1193 4 16.5 4C17.8807 4 19 5.11929 19 6.5C19 7.88071 17.8807 9 16.5 9C15.1193 9 14 7.88071 14 6.5Z" fill="black"/>
<path fill-rule="evenodd" clip-rule="evenodd" d="M6.23829 19.3346C5.52994 17.3884 6.53339 15.2365 8.47956 14.5282L14.5876 12.3051C16.5337 11.5967 18.6856 12.6002 19.394 14.5463C20.1023 16.4925 19.0989 18.6444 17.1527 19.3527L11.0447 21.5759C9.09854 22.2842 6.94664 21.2808 6.23829 19.3346ZM13.1463 14.958L15.2716 14.1844C16.1798 13.8539 17.184 14.3222 17.5146 15.2304C17.8452 16.1386 17.3769 17.1428 16.4687 17.4734L14.3434 18.2469L13.1463 14.958ZM11.2669 15.642L9.1636 16.4076C8.25539 16.7381 7.78711 17.7424 8.11767 18.6506C8.44824 19.5588 9.45246 20.0271 10.3607 19.6965L12.464 18.931L11.2669 15.642Z" fill="black"/>
</svg>
