<svg width="24" height="24" viewBox="0 0 24 24" fill="none" xmlns="http://www.w3.org/2000/svg">
<path d="M12.7071 7.25008C13.1213 7.25008 13.4571 6.91429 13.4571 6.50008C13.4571 6.08586 13.1213 5.75008 12.7071 5.75008H11.2929C10.8787 5.75008 10.5429 6.08586 10.5429 6.50008C10.5429 6.91429 10.8787 7.25008 11.2929 7.25008H12.7071Z" fill="black"/>
<path fill-rule="evenodd" clip-rule="evenodd" d="M16.5 6.5C16.5 8.98528 14.4853 11 12 11C9.51472 11 7.5 8.98528 7.5 6.5C7.5 4.01472 9.51472 2 12 2C14.4853 2 16.5 4.01472 16.5 6.5ZM14.5 6.5C14.5 7.88071 13.3807 9 12 9C10.6193 9 9.5 7.88071 9.5 6.5C9.5 5.11929 10.6193 4 12 4C13.3807 4 14.5 5.11929 14.5 6.5Z" fill="black"/>
<path d="M7.53033 17.5303C7.82322 17.2374 7.82322 16.7626 7.53033 16.4697C7.23744 16.1768 6.76256 16.1768 6.46967 16.4697L5.46967 17.4697C5.17678 17.7626 5.17678 18.2374 5.46967 18.5303C5.76256 18.8232 6.23744 18.8232 6.53033 18.5303L7.53033 17.5303Z" fill="black"/>
<path fill-rule="evenodd" clip-rule="evenodd" d="M11 17.5C11 19.9853 8.98528 22 6.5 22C4.01472 22 2 19.9853 2 17.5C2 15.0147 4.01472 13 6.5 13C8.98528 13 11 15.0147 11 17.5ZM9 17.5C9 18.8807 7.88071 20 6.5 20C5.11929 20 4 18.8807 4 17.5C4 16.1193 5.11929 15 6.5 15C7.88071 15 9 16.1193 9 17.5Z" fill="black"/>
<path d="M16.4697 16.5303C16.7626 16.8232 17.2374 16.8232 17.5303 16.5303C17.8232 16.2374 17.8232 15.7626 17.5303 15.4697L16.5303 14.4697C16.2374 14.1768 15.7626 14.1768 15.4697 14.4697C15.1768 14.7626 15.1768 15.2374 15.4697 15.5303L16.4697 16.5303Z" fill="black"/>
<path fill-rule="evenodd" clip-rule="evenodd" d="M21 15.5C21 17.9853 18.9853 20 16.5 20C14.0147 20 12 17.9853 12 15.5C12 13.0147 14.0147 11 16.5 11C18.9853 11 21 13.0147 21 15.5ZM19 15.5C19 16.8807 17.8807 18 16.5 18C15.1193 18 14 16.8807 14 15.5C14 14.1193 15.1193 13 16.5 13C17.8807 13 19 14.1193 19 15.5Z" fill="black"/>
</svg>
