<svg width="24" height="24" viewBox="0 0 24 24" fill="none" xmlns="http://www.w3.org/2000/svg">
<path d="M9.03033 7.03033C9.32322 6.73744 9.32322 6.26256 9.03033 5.96967C8.73744 5.67678 8.26256 5.67678 7.96967 5.96967L5.96967 7.96967C5.67678 8.26256 5.67678 8.73744 5.96967 9.03033C6.26256 9.32322 6.73744 9.32322 7.03033 9.03033L9.03033 7.03033Z" fill="black"/>
<path fill-rule="evenodd" clip-rule="evenodd" d="M13 7.5C13 10.5376 10.5376 13 7.5 13C4.46243 13 2 10.5376 2 7.5C2 4.46243 4.46243 2 7.5 2C10.5376 2 13 4.46243 13 7.5ZM11 7.5C11 9.433 9.433 11 7.5 11C5.567 11 4 9.433 4 7.5C4 5.567 5.567 4 7.5 4C9.433 4 11 5.567 11 7.5Z" fill="black"/>
<path d="M16.9697 18.0303C17.2626 18.3232 17.7374 18.3232 18.0303 18.0303C18.3232 17.7374 18.3232 17.2626 18.0303 16.9697L16.0303 14.9697C15.7374 14.6768 15.2626 14.6768 14.9697 14.9697C14.6768 15.2626 14.6768 15.7374 14.9697 16.0303L16.9697 18.0303Z" fill="black"/>
<path fill-rule="evenodd" clip-rule="evenodd" d="M22 16.5C22 19.5376 19.5376 22 16.5 22C13.4624 22 11 19.5376 11 16.5C11 13.4624 13.4624 11 16.5 11C19.5376 11 22 13.4624 22 16.5ZM20 16.5C20 18.433 18.433 20 16.5 20C14.567 20 13 18.433 13 16.5C13 14.567 14.567 13 16.5 13C18.433 13 20 14.567 20 16.5Z" fill="black"/>
</svg>
