<svg width="24" height="24" viewBox="0 0 24 24" fill="none" xmlns="http://www.w3.org/2000/svg">
<path d="M7.53033 17.5303C7.82322 17.2374 7.82322 16.7626 7.53033 16.4697C7.23744 16.1768 6.76256 16.1768 6.46967 16.4697L5.46967 17.4697C5.17678 17.7626 5.17678 18.2374 5.46967 18.5303C5.76256 18.8232 6.23744 18.8232 6.53033 18.5303L7.53033 17.5303Z" fill="black"/>
<path fill-rule="evenodd" clip-rule="evenodd" d="M11 17.5C11 19.9853 8.98528 22 6.5 22C4.01472 22 2 19.9853 2 17.5C2 15.0147 4.01472 13 6.5 13C8.98528 13 11 15.0147 11 17.5ZM9 17.5C9 18.8807 7.88071 20 6.5 20C5.11929 20 4 18.8807 4 17.5C4 16.1193 5.11929 15 6.5 15C7.88071 15 9 16.1193 9 17.5Z" fill="black"/>
<path d="M7.46967 8.53033C7.76256 8.82322 8.23744 8.82322 8.53033 8.53033C8.82322 8.23744 8.82322 7.76256 8.53033 7.46967L7.53033 6.46967C7.23744 6.17678 6.76256 6.17678 6.46967 6.46967C6.17678 6.76256 6.17678 7.23744 6.46967 7.53033L7.46967 8.53033Z" fill="black"/>
<path fill-rule="evenodd" clip-rule="evenodd" d="M12 7.5C12 9.98528 9.98528 12 7.5 12C5.01472 12 3 9.98528 3 7.5C3 5.01472 5.01472 3 7.5 3C9.98528 3 12 5.01472 12 7.5ZM10 7.5C10 8.88071 8.88071 10 7.5 10C6.11929 10 5 8.88071 5 7.5C5 6.11929 6.11929 5 7.5 5C8.88071 5 10 6.11929 10 7.5Z" fill="black"/>
<path d="M18.5303 6.53033C18.8232 6.23744 18.8232 5.76256 18.5303 5.46967C18.2374 5.17678 17.7626 5.17678 17.4697 5.46967L16.4697 6.46967C16.1768 6.76256 16.1768 7.23744 16.4697 7.53033C16.7626 7.82322 17.2374 7.82322 17.5303 7.53033L18.5303 6.53033Z" fill="black"/>
<path fill-rule="evenodd" clip-rule="evenodd" d="M22 6.5C22 8.98528 19.9853 11 17.5 11C15.0147 11 13 8.98528 13 6.5C13 4.01472 15.0147 2 17.5 2C19.9853 2 22 4.01472 22 6.5ZM20 6.5C20 7.88071 18.8807 9 17.5 9C16.1193 9 15 7.88071 15 6.5C15 5.11929 16.1193 4 17.5 4C18.8807 4 20 5.11929 20 6.5Z" fill="black"/>
<path d="M16.7929 16.75C16.3787 16.75 16.0429 17.0858 16.0429 17.5C16.0429 17.9143 16.3787 18.25 16.7929 18.25H18.2071C18.6213 18.25 18.9571 17.9143 18.9571 17.5C18.9571 17.0858 18.6213 16.75 18.2071 16.75H16.7929Z" fill="black"/>
<path fill-rule="evenodd" clip-rule="evenodd" d="M22 17.5C22 19.9853 19.9853 22 17.5 22C15.0147 22 13 19.9853 13 17.5C13 15.0147 15.0147 13 17.5 13C19.9853 13 22 15.0147 22 17.5ZM20 17.5C20 18.8807 18.8807 20 17.5 20C16.1193 20 15 18.8807 15 17.5C15 16.1193 16.1193 15 17.5 15C18.8807 15 20 16.1193 20 17.5Z" fill="black"/>
</svg>
