<svg width="24" height="24" viewBox="0 0 24 24" fill="none" xmlns="http://www.w3.org/2000/svg">
<path fill-rule="evenodd" clip-rule="evenodd" d="M11.9888 4C11.2491 3.37604 10.2935 3 9.25 3C8.20654 3 7.25091 3.37604 6.51124 4H2L3 8V18C2.44772 18 2 18.4477 2 19C2 19.5523 2.44772 20 3 20H21C21.5523 20 22 19.5523 22 19C22 18.4477 21.5523 18 21 18V8L22 4H11.9888ZM13.434 8C13.0798 9.98951 11.3413 11.5 9.25 11.5C7.1587 11.5 5.4202 9.98951 5.06597 8H5V18H12V12H17V18H19V8H13.434ZM10 5V6.5H11.5V8H10V9.5H8.5V8H7V6.5H8.5V5H10Z" fill="black"/>
</svg>
