<svg width="24" height="24" viewBox="0 0 24 24" fill="none" xmlns="http://www.w3.org/2000/svg">
<path fill-rule="evenodd" clip-rule="evenodd" d="M6.57498 9C5.70242 9 4.93057 9.56568 4.66781 10.3977L2.45729 17.3977C2.05022 18.6868 3.01266 20 4.36445 20H14.5829C15.4555 20 16.2273 19.4343 16.4901 18.6023L18.2171 13.1332L19.7096 17.3035L18 18L17.5 20L20.318 19.2087C21.3961 18.8644 21.974 17.695 21.5927 16.6295L19 9H6.57498ZM14.5829 18H4.36444L6.57497 11H16.7934L14.5829 18Z" fill="black"/>
<path d="M11.9702 12.7425C12.1041 12.2067 11.7784 11.6638 11.2426 11.5299C10.7068 11.3959 10.1638 11.7217 10.0299 12.2575L9.7184 13.5034L8.49513 13.5093C7.94285 13.512 7.4973 13.9618 7.49996 14.5141C7.50262 15.0664 7.95249 15.512 8.50477 15.5093L9.21779 15.5059L9.02988 16.2575C8.89593 16.7933 9.2217 17.3362 9.75749 17.4701C10.2933 17.6041 10.8362 17.2783 10.9702 16.7425L11.2809 15.4998L12.4998 15.5C13.0521 15.5001 13.4999 15.0525 13.5 14.5002C13.5001 13.9479 13.0524 13.5001 12.5002 13.5L11.7808 13.4999L11.9702 12.7425Z" fill="black"/>
<path fill-rule="evenodd" clip-rule="evenodd" d="M17.5 5.5H14.5V6.5H17.5V5.5ZM13 4V8H19V4H13Z" fill="black"/>
<path d="M17.5 4H19V9H17.5V4Z" fill="black"/>
</svg>
