<svg width="24" height="24" viewBox="0 0 24 24" fill="none" xmlns="http://www.w3.org/2000/svg">
<path d="M13 6.70557V5.19384H11V6.70557H9.48804V8.70557H11V10.2162H13V8.70557H14.5119V6.70557H13Z" fill="black"/>
<path fill-rule="evenodd" clip-rule="evenodd" d="M4 21C2.89543 21 2 20.1048 2 19.0006V9.71051C2 8.60628 2.89543 7.71113 4 7.71113H6.05267V3.99938C6.05267 2.89515 6.9481 2 8.05267 2H15.9473C17.0518 2 17.9473 2.89515 17.9473 3.99938V7.71051L19.9999 7.71113C21.1045 7.71113 21.9999 8.60628 21.9999 9.71051V19.0006C21.9999 20.1048 21.1045 21 19.9999 21H4ZM6.05267 9.71051H4L4 19L4.05267 19.0006H6.05267V9.71051ZM9.43759 19H8.05267V4H15.9473V19H14.5623V13.5511H9.43759V19ZM17.9473 19.0006H19.9999V9.71113L19.9473 9.71051H17.9473V19.0006ZM11.1484 18.9801V15.5199H12.8515V18.9801H11.1484Z" fill="black"/>
</svg>
