<svg width="24" height="24" viewBox="0 0 24 24" fill="none" xmlns="http://www.w3.org/2000/svg">
<path fill-rule="evenodd" clip-rule="evenodd" d="M19.589 8H14.4928C14.3634 5.76916 12.5133 4 10.25 4C7.98671 4 6.13664 5.76916 6.00723 8H4.41093C3.68081 8 3.05995 8.53283 2.94917 9.25449L2.63353 11.3107C2.50226 12.1659 2.85462 13.0236 3.54918 13.5395C3.69001 13.6441 3.84132 13.7318 4 13.8018V21H9V16.5H12V21H20V13.8017C20.1586 13.7318 20.3099 13.644 20.4507 13.5395C21.1453 13.0236 21.4976 12.1659 21.3664 11.3107L21.0507 9.25449C20.94 8.53283 20.3191 8 19.589 8ZM14.1241 10C13.863 10.5771 13.4768 11.0855 13 11.4905V11.6365L13.2044 11.7378C13.5528 11.9103 13.9362 12 14.3249 12C14.7333 12 15.1334 11.901 15.4919 11.7141L15.497 10H14.1241ZM6.49995 10.2517C6.45592 10.1694 6.41452 10.0854 6.37587 10H4.85816L4.61038 11.6141C4.59154 11.7368 4.6421 11.8599 4.74175 11.9339C4.79952 11.9768 4.86957 12 4.94153 12H5.3784C5.6333 12 5.88476 11.9411 6.11319 11.828L6.49995 11.6365V10.2517ZM6 13.9468V19H7V14.5H14V19H18V13.9472C17.6548 13.888 17.3188 13.7794 17.0026 13.6238L16.5633 13.4076C15.884 13.7943 15.113 14 14.3249 14C13.6283 14 12.9411 13.8392 12.3169 13.53L12.0705 13.4081C11.3898 13.7945 10.6177 14 9.82869 14C9.12962 14 8.43999 13.8386 7.81352 13.5284L7.49995 13.3731L7.00072 13.6203C6.68366 13.7773 6.3465 13.887 6 13.9468ZM18.6194 12H19.0584C19.1303 12 19.2004 11.9768 19.2581 11.9339C19.3578 11.8599 19.4084 11.7368 19.3895 11.6141L19.1417 10H17.497L17.4922 11.6357L17.8856 11.8292C18.1139 11.9416 18.365 12 18.6194 12ZM11 6V7.5H12.5V9H11V10.5H9.5V9H8V7.5H9.5V6H11Z" fill="black"/>
</svg>
