<svg width="24" height="24" viewBox="0 0 24 24" fill="none" xmlns="http://www.w3.org/2000/svg">
<path d="M4.79292 4.29289C5.18345 3.90237 5.81661 3.90237 6.20714 4.29289L9.41424 7.5L8.06822 8.84603V9.09095C8.06822 9.50516 7.73243 9.84095 7.31822 9.84095C6.904 9.84095 6.56822 9.50516 6.56822 9.09095V7.4824L5.50003 6.41421L4.43184 7.4824V9.09095C4.43184 9.50516 4.09606 9.84095 3.68184 9.84095C3.26763 9.84095 2.93184 9.50516 2.93184 9.09095V8.84603L1.58582 7.5L4.79292 4.29289Z" fill="black"/>
<path d="M15.0682 9.34603L15 9.41421L13.5858 8L17.2929 4.29289C17.6834 3.90237 18.3166 3.90237 18.7071 4.29289L22.4142 8L21 9.41421L20.9318 9.34603V9.90909C20.9318 10.3233 20.5961 10.6591 20.1818 10.6591C19.7676 10.6591 19.4318 10.3233 19.4318 9.90909V7.84603L18 6.41421L16.5682 7.84603V9.90909C16.5682 10.3233 16.2324 10.6591 15.8182 10.6591C15.404 10.6591 15.0682 10.3233 15.0682 9.90909V9.34603Z" fill="black"/>
<path d="M11.2929 9.29289C11.6834 8.90237 12.3166 8.90237 12.7071 9.29289L18.9142 15.5L17.5 16.9142L17 16.4142V19C17 19.5523 16.5523 20 16 20C15.4477 20 15 19.5523 15 19V14.5C15 14.4722 15.0012 14.4447 15.0034 14.4176L12 11.4142L8.99668 14.4176C8.9989 14.4447 9.00003 14.4722 9.00003 14.5V19C9.00003 19.5523 8.55231 20 8.00003 20C7.44774 20 7.00003 19.5523 7.00003 19V16.4142L6.50003 16.9142L5.08582 15.5L11.2929 9.29289Z" fill="black"/>
<path d="M12 15C11.1716 15 10.5 15.6716 10.5 16.5V20H13.5V16.5C13.5 15.6716 12.8285 15 12 15Z" fill="black"/>
</svg>
