<svg width="24" height="24" viewBox="0 0 24 24" fill="none" xmlns="http://www.w3.org/2000/svg">
<path d="M19.4648 6.758L19.9374 7.22879L19.4213 7.74301L19.3776 7.78646L18.2898 8.87028L18.2398 8.92014L16.0494 11.1025C15.336 11.8132 14.26 11.9487 13.4089 11.5032L12.9215 11.248L12.9109 11.2586L12.5736 10.7485C11.9995 9.8802 12.0965 8.70063 12.8636 7.9363L15.0098 5.79806L15.4468 5.36265L15.8553 4.95566L16.2867 4.52584L16.7556 4.05871L17.3426 4.64361L17.872 5.17099L18.4013 4.64362L18.7493 4.29694C18.8473 4.19928 19.0074 4.19928 19.1054 4.29694L19.8128 5.00174C19.9093 5.09787 19.9093 5.25256 19.8128 5.34869L19.4649 5.69537L18.9316 6.22668L19.4648 6.758ZM19.5661 9.33358L19.5391 9.03757L19.8395 9.06472C19.9684 9.07637 20.0659 9.1845 20.0659 9.31038C20.0659 9.44404 19.9564 9.55712 19.8155 9.55712C19.6829 9.55712 19.5772 9.45632 19.5661 9.33358ZM8.22028 15.7837L8.61444 15.8179L8.89924 16.1436C8.71984 15.9592 8.48404 15.8301 8.22028 15.7837ZM9.25232 17.0131C9.25232 16.8515 9.22166 16.6972 9.16589 16.5558C9.22217 16.6972 9.25296 16.8514 9.25296 17.0131C9.25296 17.1406 9.23358 17.2638 9.19756 17.3799C9.23316 17.264 9.25232 17.1408 9.25232 17.0131ZM6.7519 17.0131C6.7519 17.6492 7.22708 18.1707 7.83813 18.2508L6.83629 18.2085L7.20957 19.2564C7.23691 19.3332 7.25211 19.4165 7.25211 19.5049C7.25211 19.9138 6.91866 20.25 6.50148 20.25C6.17375 20.25 5.8952 20.0415 5.79277 19.7516L5.60815 19.2292L5.16399 19.2476C5.77544 19.1679 6.25106 18.6463 6.25106 18.0098C6.25106 17.6072 6.06076 17.2506 5.76617 17.0227L6.50019 17.5129L6.82103 16.602C6.8265 16.5864 6.83226 16.5711 6.83832 16.5558C6.78256 16.6973 6.7519 16.8515 6.7519 17.0131ZM3.75063 18.0098C3.75063 18.1376 3.7698 18.2607 3.8054 18.3766C3.76938 18.2606 3.75 18.1373 3.75 18.0098C3.75 17.8822 3.76938 17.759 3.8054 17.643C3.7698 17.7589 3.75063 17.882 3.75063 18.0098ZM15.0505 4.24524L15.2236 4.73326L14.7295 4.55931C14.6302 4.52438 14.5634 4.43123 14.5634 4.32671C14.5634 4.19305 14.6729 4.07997 14.8138 4.07997C14.9234 4.07997 15.0165 4.14933 15.0505 4.24524Z" fill="black" stroke="black" stroke-width="1.5"/>
</svg>
