<svg width="48" height="48" viewBox="0 0 48 48" fill="none" xmlns="http://www.w3.org/2000/svg">
<path d="M35.1365 11.4696C34.7474 11.0795 34.1166 11.0795 33.7274 11.4696L33.0229 12.1761L35.8411 15.0019L36.5456 14.2954C36.9347 13.9053 36.9347 13.2727 36.5456 12.8825L35.1365 11.4696Z" fill="black"/>
<path fill-rule="evenodd" clip-rule="evenodd" d="M35.1394 6L33.2455 7.899C32.88 7.46216 32.3315 7.18445 31.7183 7.18445C30.6178 7.18445 29.7256 8.07906 29.7256 9.18261C29.7256 9.79745 30.0025 10.3474 30.4381 10.714L29.2263 11.9291C27.5732 13.5867 27.3625 16.1429 28.5943 18.0296L12.8671 33.7999C12.5476 32.7628 11.5824 32.0092 10.4414 32.0092C9.03976 32.0092 7.90347 33.1465 7.90347 34.5494C7.90347 34.5781 7.90395 34.6067 7.90489 34.6351C6.82118 34.9245 6.02293 35.9138 6.02293 37.0896C6.02293 37.3513 6.06244 37.6036 6.13581 37.8411C6.0482 38.06 6 38.299 6 38.5492C6 39.6014 6.85221 40.4544 7.90347 40.4544C8.25588 40.4544 8.58592 40.3585 8.86899 40.1914C9.37935 41.261 10.4701 42 11.7334 42C13.4855 42 14.9058 40.5784 14.9058 38.8247C14.9058 38.3234 14.7897 37.8492 14.583 37.4276C15.1135 37.0895 15.4653 36.4956 15.4653 35.8195C15.4653 35.3206 15.2737 34.8665 14.9602 34.5269L30.0035 19.4424C31.885 20.6771 34.434 20.4658 36.0869 18.8084L37.027 17.8657C37.3926 18.3028 37.9412 18.5807 38.5546 18.5807C39.6551 18.5807 40.5473 17.6861 40.5473 16.5825C40.5473 15.9675 40.2702 15.4174 39.8343 15.0508L42 12.8793L35.1394 6ZM39.1819 12.8793L35.1394 8.82579L30.6354 13.342C29.5191 14.4613 29.5191 16.2761 30.6354 17.3955C31.7517 18.5148 33.5616 18.5148 34.6779 17.3955L39.1819 12.8793ZM11.7529 39.8465C12.3164 39.8465 12.7732 39.3893 12.7732 38.8253C12.7732 38.2614 12.3164 37.8042 11.7529 37.8042C11.1894 37.8042 10.7326 38.2614 10.7326 38.8253C10.7326 39.3893 11.1894 39.8465 11.7529 39.8465ZM11.5366 34.9788C11.5366 35.5428 11.0799 35.9999 10.5164 35.9999C9.9529 35.9999 9.49611 35.5428 9.49611 34.9788C9.49611 34.4148 9.9529 33.9576 10.5164 33.9576C11.0799 33.9576 11.5366 34.4148 11.5366 34.9788Z" fill="black"/>
<path d="M37.4268 6.88011C37.8159 6.48995 38.4468 6.48995 38.8359 6.88011L41.1179 9.16836C41.507 9.55852 41.507 10.1911 41.1179 10.5813L40.4134 11.2877L36.7223 7.58656L37.4268 6.88011Z" fill="black"/>
</svg>
