<svg width="24" height="24" viewBox="0 0 24 24" fill="none" xmlns="http://www.w3.org/2000/svg">
<path d="M14 15C14.5523 15 15 14.5523 15 14C15 13.4477 14.5523 13 14 13C13.4477 13 13 13.4477 13 14C13 14.5523 13.4477 15 14 15Z" fill="black"/>
<path d="M7 17C7.55228 17 8 16.5523 8 16C8 15.4477 7.55228 15 7 15C6.44772 15 6 15.4477 6 16C6 16.5523 6.44772 17 7 17Z" fill="black"/>
<path d="M11 17C11 17.5523 10.5523 18 10 18C9.44772 18 9 17.5523 9 17C9 16.4477 9.44772 16 10 16C10.5523 16 11 16.4477 11 17Z" fill="black"/>
<path d="M13 18C13.5523 18 14 17.5523 14 17C14 16.4477 13.5523 16 13 16C12.4477 16 12 16.4477 12 17C12 17.5523 12.4477 18 13 18Z" fill="black"/>
<path d="M11 14C11 14.5523 10.5523 15 10 15C9.44772 15 9 14.5523 9 14C9 13.4477 9.44772 13 10 13C10.5523 13 11 13.4477 11 14Z" fill="black"/>
<path fill-rule="evenodd" clip-rule="evenodd" d="M18.8321 16.0547C18.2636 16.9074 17.641 17.7948 17.0431 18.5544L16.9706 18.658L16.9645 18.6537C16.5447 19.1809 16.1389 19.6411 15.7745 19.9774C14.3629 21.2804 12.4644 22 10.5 22C8.53556 22 6.63706 21.2804 5.22553 19.9774C3.8113 18.672 3 16.8835 3 15V8.5C3 7.11929 4.11929 6 5.5 6C5.68502 6 5.86534 6.0201 6.03891 6.05823C6.24752 4.88823 7.27003 4 8.5 4C8.68502 4 8.86534 4.0201 9.03891 4.05823C9.24752 2.88823 10.27 2 11.5 2C12.73 2 13.7525 2.88823 13.9611 4.05823C14.1347 4.0201 14.315 4 14.5 4C15.8807 4 17 5.11929 17 6.5V10.0851C17.8449 9.44994 19.0344 9.39826 19.9456 10.0363C21.0803 10.8308 21.3561 12.3948 20.5615 13.5295L18.8057 16.0371L18.8321 16.0547ZM9 6.5C9 6.22386 8.77614 6 8.5 6C8.22386 6 8 6.22386 8 6.5V13H6V8.5C6 8.22386 5.77614 8 5.5 8C5.22386 8 5 8.22386 5 8.5V15C5 16.2991 5.55834 17.5628 6.58209 18.5078C7.60853 19.4553 9.01663 20 10.5 20C11.9834 20 13.3915 19.4553 14.4179 18.5078C14.7087 18.2394 15.0564 17.843 15.4351 17.3639L18.9232 12.3824C19.0842 12.1525 19.0283 11.8356 18.7984 11.6746C18.5703 11.5149 18.2561 11.5685 18.0939 11.7949L17.4403 12.7069C16.6781 13.7705 15 13.2313 15 11.9227V6.5C15 6.22386 14.7761 6 14.5 6C14.2239 6 14 6.22386 14 6.5V12H12V4.5C12 4.22386 11.7761 4 11.5 4C11.2239 4 11 4.22386 11 4.5V12H9V6.5Z" fill="black"/>
</svg>
