<svg width="24" height="24" viewBox="0 0 24 24" fill="none" xmlns="http://www.w3.org/2000/svg">
<path d="M12 7C13.3807 7 14.5 5.88071 14.5 4.5C14.5 3.11929 13.3807 2 12 2C10.6193 2 9.5 3.11929 9.5 4.5C9.5 5.88071 10.6193 7 12 7Z" fill="black"/>
<path fill-rule="evenodd" clip-rule="evenodd" d="M7.26756 8C7.61337 7.4022 8.25972 7 9 7C9.74028 7 10.3866 7.4022 10.7324 8H17C17.5523 8 18 8.44772 18 9C18 9.55228 17.5523 10 17 10H15.792C15.9258 10.3062 16 10.6444 16 11C16 11.8179 15.6072 12.5441 15 13.0002V14.5894L17.2256 20.1341C17.4393 20.6666 17.229 21.2753 16.7321 21.5622C16.2351 21.8491 15.6029 21.7269 15.2486 21.2756L11.9821 17.1141L11.4848 17.7476C11.3928 18.4928 10.8908 19.1111 10.2115 19.3697L8.71554 21.2756C8.36125 21.7269 7.72898 21.8491 7.23206 21.5622C6.73514 21.2753 6.5248 20.6666 6.73854 20.1341L7.57596 18.0478C7.52648 17.8737 7.5 17.69 7.5 17.5C7.5 16.7645 7.89707 16.1216 8.48855 15.7742L9 14.5V11C8.25972 11 7.61337 10.5978 7.26757 10H7C6.44772 10 6 9.55229 6 9C6 8.44772 6.44772 8 7 8H7.26756ZM9 10C9.55228 10 10 9.55228 10 9C10 8.44772 9.55228 8 9 8C8.44772 8 8 8.44772 8 9C8 9.55228 8.44772 10 9 10ZM13.5 12.5C14.3284 12.5 15 11.8284 15 11C15 10.1716 14.3284 9.5 13.5 9.5C12.6716 9.5 12 10.1716 12 11C12 11.8284 12.6716 12.5 13.5 12.5ZM9.5 18.5C10.0523 18.5 10.5 18.0523 10.5 17.5C10.5 16.9477 10.0523 16.5 9.5 16.5C8.94772 16.5 8.5 16.9477 8.5 17.5C8.5 18.0523 8.94772 18.5 9.5 18.5Z" fill="black"/>
</svg>
