<svg width="24" height="24" viewBox="0 0 24 24" fill="none" xmlns="http://www.w3.org/2000/svg">
<path d="M12.5251 6.66157C12.3353 6.85832 12.1458 7.05614 11.9587 7.25261L11.3182 6.58195C11.1056 6.35924 11.2634 5.99023 11.5714 5.99023H12.2582C12.4117 5.99023 12.5352 6.07647 12.5986 6.22996C12.6628 6.38524 12.6375 6.54497 12.5251 6.66157Z" fill="black"/>
<path fill-rule="evenodd" clip-rule="evenodd" d="M3.97859 7.96777L5.85583 3H18.1311L20.0084 7.96777C21.6373 12.2783 21.1488 17.1034 18.6891 21H12.75V17.3107L16.0304 14.0303L14.9697 12.9697L12 15.9393L9.03035 12.9697L7.96969 14.0303L11.25 17.3107V21H5.29786C2.83816 17.1034 2.34971 12.2783 3.97859 7.96777ZM11.5714 4.49023C9.9437 4.49023 9.10931 6.44068 10.2334 7.61786L10.9278 8.34501C10.6128 8.68166 10.319 8.99811 10.0593 9.27922C9.72453 9.64154 9.44597 9.94562 9.25098 10.1592C9.15348 10.2661 9.07685 10.3503 9.02452 10.4079L8.94421 10.4964L10.0562 11.5031L10.1348 11.4165C10.1864 11.3597 10.2622 11.2764 10.3589 11.1705C10.5522 10.9587 10.8287 10.6569 11.161 10.2971C11.4032 10.035 11.6748 9.74236 11.9653 9.43158L13.9576 11.518L15.0424 10.482L12.9958 8.33868C13.1968 8.12744 13.4007 7.91449 13.6047 7.7029C14.7351 6.53091 13.9369 4.49023 12.2582 4.49023H11.5714Z" fill="black"/>
</svg>
