<svg width="24" height="24" viewBox="0 0 24 24" fill="none" xmlns="http://www.w3.org/2000/svg">
<path fill-rule="evenodd" clip-rule="evenodd" d="M10 4C5.91232 4 2 6.76204 2 11.1765C2 13.4553 3.28222 14.9543 4.45883 15.8368C5.04755 16.2783 5.63049 16.5836 6.06392 16.7787L6.11767 16.8026V19C6.11767 19.5523 6.56538 20 7.11767 20H11.2353C11.7876 20 12.2353 19.5523 12.2353 19V18.7647H14.5294C15.0817 18.7647 15.5294 18.317 15.5294 17.7647V15.0588H17C17.3173 15.0588 17.6159 14.9082 17.8044 14.6529C17.9929 14.3977 18.0491 14.0681 17.9558 13.7647L16.3087 8.4118C16.297 8.37364 16.283 8.33622 16.2668 8.29974L16.266 8.29808L16.2651 8.29607L16.2629 8.29103L16.2564 8.27691L16.2494 8.2618L16.2359 8.23316C16.2187 8.19733 16.1947 8.14838 16.1637 8.08818C16.1016 7.96793 16.0111 7.80193 15.891 7.60539C15.6519 7.21415 15.2894 6.69175 14.7932 6.16632C13.8024 5.11725 12.219 4 10 4ZM11.5 16C12.0523 16 12.5 15.5523 12.5 15C12.5 14.4477 12.0523 14 11.5 14C10.9477 14 10.5 14.4477 10.5 15C10.5 15.5523 10.9477 16 11.5 16ZM9.5 14C9.5 14.5523 9.05228 15 8.5 15C7.94772 15 7.5 14.5523 7.5 14C7.5 13.4477 7.94772 13 8.5 13C9.05228 13 9.5 13.4477 9.5 14Z" fill="black"/>
<path d="M20 16C20.5523 16 21 15.5523 21 15C21 14.4477 20.5523 14 20 14C19.4477 14 19 14.4477 19 15C19 15.5523 19.4477 16 20 16Z" fill="black"/>
<path d="M20 12C20 12.5523 19.5523 13 19 13C18.4477 13 18 12.5523 18 12C18 11.4477 18.4477 11 19 11C19.5523 11 20 11.4477 20 12Z" fill="black"/>
<path d="M21 19C21.5523 19 22 18.5523 22 18C22 17.4477 21.5523 17 21 17C20.4477 17 20 17.4477 20 18C20 18.5523 20.4477 19 21 19Z" fill="black"/>
<path d="M22 9C22 9.55229 21.5523 10 21 10C20.4477 10 20 9.55229 20 9C20 8.44771 20.4477 8 21 8C21.5523 8 22 8.44771 22 9Z" fill="black"/>
<path d="M17.5 18C18.0523 18 18.5 17.5523 18.5 17C18.5 16.4477 18.0523 16 17.5 16C16.9477 16 16.5 16.4477 16.5 17C16.5 17.5523 16.9477 18 17.5 18Z" fill="black"/>
</svg>
