<svg width="24" height="24" viewBox="0 0 24 24" fill="none" xmlns="http://www.w3.org/2000/svg">
<path fill-rule="evenodd" clip-rule="evenodd" d="M7.59741 5.99999C7.80431 5.99999 7.86456 6.01921 7.89878 6.04529C7.90644 6.05112 7.95135 6.08533 7.99996 6.20916C8.01284 6.24197 8.02602 6.28127 8.03858 6.32793C7.73371 6.43333 7.43998 6.56263 7.15964 6.71357C7.06923 6.58444 6.91936 6.5 6.74976 6.5C6.47362 6.5 6.24976 6.72386 6.24976 7C6.24976 7.09486 6.27617 7.18355 6.32205 7.25911C6.15162 7.39152 5.98852 7.53292 5.83346 7.6826C5.42389 7.24807 4.93151 6.99229 4.46657 6.85587C3.85373 6.67607 3.25749 6.69144 2.85346 6.7734C2.31097 6.88344 1.96266 7.40988 2.07549 7.94924C2.18832 8.48859 2.71957 8.83661 3.26206 8.72657C3.37892 8.70287 3.63969 8.68965 3.90496 8.76748C4.14771 8.8387 4.36034 8.97326 4.50914 9.22875C4.53817 9.27858 4.57085 9.325 4.60666 9.36786C4.54116 9.50182 4.48051 9.63858 4.42492 9.77792C4.37322 9.75983 4.31764 9.75 4.25977 9.75C3.98363 9.75 3.75977 9.97386 3.75977 10.25C3.75977 10.4826 3.91864 10.6782 4.13381 10.734C4.0949 10.9152 4.06417 11.0994 4.04202 11.2862C3.87174 11.2853 3.70365 11.3034 3.53789 11.3407C2.95113 11.4728 2.54902 11.8181 2.33677 12.0046C1.92101 12.3701 1.88091 13.0001 2.2472 13.4117C2.61349 13.8233 3.24747 13.8608 3.66323 13.4953C3.84879 13.3322 3.92249 13.2964 3.97418 13.2848C3.98445 13.2824 4.03536 13.2705 4.14055 13.297C4.17834 13.4685 4.22348 13.6373 4.27561 13.8029C4.11202 13.8851 3.99976 14.0545 3.99976 14.25C3.99976 14.5261 4.22362 14.75 4.49976 14.75C4.55341 14.75 4.60509 14.7415 4.65353 14.7259C4.73019 14.8759 4.81297 15.0223 4.90156 15.1648C4.07524 15.6592 3.62496 16.4758 3.47182 16.9313C3.29579 17.4547 3.57745 18.0218 4.10093 18.1978C4.62441 18.3739 5.19148 18.0922 5.36751 17.5687C5.40441 17.459 5.52226 17.2295 5.72289 17.0407C5.88611 16.8871 6.08365 16.7767 6.33928 16.7542C6.39651 16.7984 6.45455 16.8415 6.51339 16.8836C6.50448 16.9209 6.49976 16.9599 6.49976 17C6.49976 17.2761 6.72362 17.5 6.99976 17.5C7.1266 17.5 7.2424 17.4528 7.33055 17.3749C7.45018 17.4345 7.57207 17.4901 7.69607 17.5417C7.63421 17.8585 7.60921 18.1777 7.63939 18.4778C7.66954 18.7775 7.76461 19.1532 8.03288 19.4707C8.33144 19.824 8.75324 19.9967 9.19783 19.9967C9.75193 19.9967 10.2029 19.5505 10.205 19.0001C10.2065 18.6037 9.97499 18.2614 9.63837 18.1007C9.64152 18.0667 9.64615 18.0297 9.65242 17.9901C9.76744 17.9967 9.88333 18 10 18C10.8284 18 11.5 17.3284 11.5 16.5V7.5C11.5 6.67663 10.8366 6.00821 10.0152 6.00008C9.87322 5.32601 9.57267 4.80643 9.1112 4.45468C8.51096 3.99716 7.84118 3.99925 7.61949 3.99994L7.59741 3.99999C7.04513 3.99999 6.59741 4.4477 6.59741 4.99999C6.59741 5.55227 7.04513 5.99999 7.59741 5.99999ZM9.64126 18.3053C9.64124 18.3053 9.64131 18.3055 9.64126 18.3053V18.3053ZM7.21997 9.46967C7.51287 9.17678 7.98774 9.17678 8.28063 9.46967L8.98774 10.1768C9.28063 10.4697 9.28063 10.9445 8.98774 11.2374C8.69485 11.5303 8.21997 11.5303 7.92708 11.2374L7.21997 10.5303C6.92708 10.2374 6.92708 9.76256 7.21997 9.46967ZM8.9806 12.9999C8.68771 12.7071 8.21284 12.7071 7.91994 12.9999L7.21284 13.7071C6.91994 13.9999 6.91994 14.4748 7.21284 14.7677C7.50573 15.0606 7.9806 15.0606 8.2735 14.7677L8.9806 14.0606C9.2735 13.7677 9.2735 13.2928 8.9806 12.9999Z" fill="black"/>
<path fill-rule="evenodd" clip-rule="evenodd" d="M16.4026 18C16.1957 18 16.1354 17.9808 16.1012 17.9547C16.0936 17.9489 16.0486 17.9147 16 17.7908C15.9872 17.758 15.974 17.7187 15.9614 17.6721C16.2689 17.5658 16.565 17.4352 16.8475 17.2826C16.9376 17.4139 17.0887 17.5 17.26 17.5C17.5362 17.5 17.76 17.2761 17.76 17C17.76 16.903 17.7324 16.8124 17.6846 16.7358C17.8526 16.6048 18.0135 16.4651 18.1665 16.3174C18.5761 16.7519 19.0685 17.0077 19.5334 17.1441C20.1463 17.3239 20.7425 17.3086 21.1465 17.2266C21.689 17.1166 22.0373 16.5901 21.9245 16.0508C21.8117 15.5114 21.2804 15.1634 20.7379 15.2734C20.6211 15.2971 20.3603 15.3104 20.095 15.2325C19.8523 15.1613 19.6397 15.0267 19.4909 14.7713C19.4618 14.7214 19.4292 14.675 19.3933 14.6321C19.4593 14.4972 19.5204 14.3594 19.5763 14.219C19.6304 14.239 19.6889 14.25 19.75 14.25C20.0261 14.25 20.25 14.0261 20.25 13.75C20.25 13.514 20.0865 13.3163 19.8667 13.2637C19.9054 13.0833 19.9359 12.8998 19.958 12.7138C20.1244 12.7138 20.2886 12.6958 20.4504 12.6599C21.039 12.5293 21.4439 12.1882 21.6632 11.9954C22.079 11.6299 22.1191 10.9999 21.7528 10.5883C21.3865 10.1767 20.7525 10.1392 20.3368 10.5047C20.1583 10.6615 20.0786 10.7016 20.0199 10.7146C20.0067 10.7175 19.9574 10.7285 19.8603 10.7069C19.8227 10.5355 19.7777 10.3668 19.7257 10.2012C19.8939 10.1207 20.01 9.9489 20.01 9.75C20.01 9.47386 19.7862 9.25 19.51 9.25C19.4533 9.25 19.3987 9.25946 19.3479 9.27688C19.2708 9.12586 19.1876 8.97855 19.0985 8.83526C19.9248 8.34077 20.3751 7.52416 20.5282 7.06875C20.7042 6.54527 20.4226 5.9782 19.8991 5.80217C19.3756 5.62614 18.8086 5.9078 18.6325 6.43128C18.5956 6.54103 18.4778 6.77047 18.2771 6.95928C18.1139 7.11288 17.9164 7.22326 17.6607 7.24578C17.6062 7.20373 17.5509 7.16259 17.4949 7.1224C17.5048 7.08323 17.51 7.04223 17.51 7C17.51 6.72386 17.2862 6.5 17.01 6.5C16.8815 6.5 16.7643 6.54849 16.6757 6.62818C16.5541 6.56748 16.4301 6.51078 16.3039 6.45826C16.3658 6.14149 16.3908 5.82239 16.3606 5.52226C16.3304 5.22253 16.2354 4.84682 15.9671 4.52937C15.6686 4.17607 15.2467 4.00334 14.8021 4.00331C14.248 4.00326 13.7971 4.44947 13.795 4.99993C13.7934 5.3963 14.025 5.73865 14.3616 5.89928C14.3585 5.93335 14.3538 5.97029 14.3476 6.0099C14.2325 6.00333 14.1167 6 14 6C13.1716 6 12.5 6.67157 12.5 7.5V16.5C12.5 17.3234 13.1634 17.9918 13.9848 17.9999C14.1268 18.674 14.4273 19.1936 14.8888 19.5453C15.489 20.0028 16.1588 20.0008 16.3805 20.0001L16.4026 20C16.9549 20 17.4026 19.5523 17.4026 19C17.4026 18.4477 16.9549 18 16.4026 18ZM15.7197 9.46967C16.0126 9.17678 16.4875 9.17678 16.7804 9.46967C17.0733 9.76256 17.0733 10.2374 16.7804 10.5303L16.0733 11.2374C15.7804 11.5303 15.3055 11.5303 15.0126 11.2374C14.7197 10.9445 14.7197 10.4697 15.0126 10.1768L15.7197 9.46967ZM16.0804 12.9999C15.7875 12.7071 15.3127 12.7071 15.0198 12.9999C14.7269 13.2928 14.7269 13.7677 15.0198 14.0606L15.7269 14.7677C16.0198 15.0606 16.4947 15.0606 16.7875 14.7677C17.0804 14.4748 17.0804 13.9999 16.7875 13.7071L16.0804 12.9999Z" fill="black"/>
</svg>
