<svg width="24" height="24" viewBox="0 0 24 24" fill="none" xmlns="http://www.w3.org/2000/svg">
<path fill-rule="evenodd" clip-rule="evenodd" d="M11.2107 4.49998C11.2107 3.67155 10.5391 2.99999 9.71071 3C8.88228 3.00001 8.21072 3.6716 8.21073 4.50002L8.21074 5.14292C8.09568 5.15957 7.97738 5.17558 7.85331 5.19238C7.77141 5.20346 7.68678 5.21492 7.59912 5.22709C7.32619 5.265 6.98684 5.31456 6.70504 5.38603C5.85718 5.60106 5.22702 6.08634 4.81782 6.5364C4.6111 6.76376 4.43962 7.00478 4.31124 7.23932C4.22205 7.40226 4.02667 7.7834 4.02338 8.23917C4.01302 9.67413 5.08651 11.4363 7.29448 11.5851C7.59419 11.6053 7.96663 11.617 8.33776 11.6287L8.56791 11.6361C9.03146 11.6513 9.50372 11.67 9.94401 11.7059C10.3903 11.7423 10.7463 11.7922 10.9948 11.8545L10.9945 12C10.9945 12.0878 10.9963 12.1704 10.9976 12.2346L10.9985 12.274C10.7921 12.3791 10.4712 12.437 9.83303 12.4179C9.67425 12.4131 9.48278 12.4017 9.26802 12.3889C8.6126 12.3497 7.74014 12.2976 6.91759 12.3831C5.11737 12.5702 3.76166 14.1174 4.03389 15.9683C4.25764 17.4895 5.62098 18.6562 7.07265 18.6562C7.36108 18.6562 7.65137 18.6478 7.89697 18.6407C7.98654 18.6381 8.07016 18.6357 8.14558 18.6339L8.21073 18.6325L8.21073 19.4994C8.21075 20.3279 8.88234 21 9.71077 21C10.5392 21 11.2108 20.3284 11.2107 19.5V17.8334C11.2107 17.249 11.002 16.6229 10.4485 16.1766C9.98489 15.8028 9.45111 15.703 9.12254 15.6644C8.76923 15.6229 8.39049 15.6273 8.07467 15.6347C7.96824 15.6372 7.86623 15.6402 7.76606 15.6431C7.54852 15.6494 7.33933 15.6555 7.1129 15.6562C7.10165 15.6502 7.08552 15.64 7.0676 15.6244C7.04324 15.6031 7.02524 15.5801 7.01414 15.5608C7.00362 15.5424 7.00196 15.5317 7.00196 15.5317C6.99802 15.5049 7.00098 15.4899 7.00304 15.4825C7.00533 15.4744 7.0097 15.4646 7.0191 15.4531C7.03397 15.435 7.08845 15.3815 7.22771 15.367C7.79013 15.3086 8.27206 15.3377 8.84274 15.3722C9.11634 15.3888 9.41034 15.4066 9.74337 15.4165C10.6411 15.4434 11.84 15.3988 12.9024 14.6113C13.4449 14.2093 13.7991 13.7011 13.9348 13.0743C13.9921 12.8097 13.9996 12.5704 14 12.4046C14.0002 12.3243 13.9985 12.2448 13.9972 12.1829L13.997 12.1753C13.9956 12.1067 13.9945 12.0532 13.9945 12C13.9945 11.9783 13.9948 11.9532 13.995 11.9252C13.997 11.7209 14.0005 11.3615 13.9216 11.0244C13.8114 10.5545 13.5801 10.1993 13.3534 9.89882C13.0938 9.55472 12.7653 9.34911 12.5153 9.22552C12.2553 9.09703 11.9836 9.01017 11.7378 8.94791C11.2485 8.82398 10.6964 8.75726 10.1878 8.7158C9.66927 8.67353 9.13437 8.65309 8.66639 8.63772L8.41118 8.62952C8.04108 8.61775 7.73724 8.60809 7.4962 8.59184C7.35326 8.58221 7.26581 8.55084 7.21552 8.52587C7.17917 8.50781 7.15091 8.48749 7.12814 8.4662C7.22569 8.38219 7.33444 8.32138 7.44253 8.29397C7.5396 8.26935 7.7193 8.2392 8.01183 8.19857C8.07636 8.18961 8.14636 8.18013 8.21984 8.17019C8.43863 8.14058 8.68827 8.1068 8.91613 8.0699C9.20783 8.02268 9.58363 7.95285 9.91097 7.83563C10.0678 7.77948 10.3208 7.67596 10.5605 7.48583C10.8059 7.29127 11.2107 6.85696 11.2107 6.17007V4.49998ZM8.83025 18.6535C8.83025 18.6535 8.82467 18.6527 8.81515 18.6501C8.82576 18.652 8.83025 18.6535 8.83025 18.6535Z" fill="black"/>
<path d="M14.6227 4.55239C14.2648 4.76077 14.1435 5.21989 14.3518 5.57788C14.5602 5.93586 15.0193 6.05715 15.3773 5.84877L16.7915 5.02562L17.0409 6.62266C17.144 7.28339 17.8794 7.63355 18.4574 7.29713L20.5675 6.06893C20.9254 5.86055 21.0467 5.40143 20.8384 5.04344C20.63 4.68546 20.1709 4.56418 19.8129 4.77255L18.3987 5.5957L18.1493 3.99866C18.0461 3.33793 17.3107 2.98777 16.7328 3.32419L14.6227 4.55239Z" fill="black"/>
<path d="M16.4041 9.59594C15.9933 9.64893 15.7032 10.0249 15.7562 10.4357C15.8092 10.8465 16.1852 11.1366 16.596 11.0836L18.1362 10.8849L17.7639 12.462C17.6114 13.108 18.1517 13.7073 18.8101 13.6224L21.1385 13.322C21.5494 13.269 21.8394 12.8931 21.7864 12.4822C21.7334 12.0714 21.3574 11.7814 20.9466 11.8344L19.4064 12.0331L19.7787 10.456C19.9312 9.80992 19.3909 9.21063 18.7325 9.29556L16.4041 9.59594Z" fill="black"/>
<path d="M14.9387 15.4688C15.0307 15.065 15.4326 14.8121 15.8365 14.9041L18.5538 15.5229C19.2233 15.6753 19.5149 16.4657 19.1049 17.0164L18.1471 18.3032L20.0412 18.7345C20.4451 18.8265 20.6979 19.2284 20.606 19.6323C20.514 20.0362 20.112 20.289 19.7082 20.1971L16.9908 19.5783C16.3214 19.4258 16.0298 18.6354 16.4397 18.0847L17.3976 16.798L15.5035 16.3666C15.0996 16.2747 14.8467 15.8727 14.9387 15.4688Z" fill="black"/>
</svg>
