<svg width="24" height="24" viewBox="0 0 24 24" fill="none" xmlns="http://www.w3.org/2000/svg">
<path d="M12 6C11.45 6 10.9792 5.80417 10.5875 5.4125C10.1959 5.02083 10 4.55 10 4C10 3.45 10.1959 2.97917 10.5875 2.5875C10.9792 2.19583 11.45 2 12 2C12.55 2 13.0209 2.19583 13.4125 2.5875C13.8042 2.97917 14 3.45 14 4C14 4.55 13.8042 5.02083 13.4125 5.4125C13.0209 5.80417 12.55 6 12 6Z" fill="black"/>
<path d="M8.31737 10.7327L5.05002 14L3.65002 12.6L8.17502 8.075C8.52502 7.725 8.91669 7.45833 9.35002 7.275C9.78336 7.09167 10.25 7 10.75 7H13.25C13.75 7 14.2167 7.09167 14.65 7.275C15.0834 7.45833 15.475 7.725 15.825 8.075L20.35 12.6L18.95 14L15.6826 10.7326C16.2131 12.9296 16.2723 15.2145 15.8556 17.4368L15 22H13V17H11V22H9.00002L8.14441 17.4368C7.72772 15.2145 7.78687 12.9296 8.31737 10.7327Z" fill="black"/>
</svg>
