<svg width="24" height="24" viewBox="0 0 24 24" fill="none" xmlns="http://www.w3.org/2000/svg">
<path fill-rule="evenodd" clip-rule="evenodd" d="M12 4C12.5523 4 13 4.44772 13 5L13 9.70711L14.1464 10.8536C14.3417 11.0488 14.6583 11.0488 14.8536 10.8536C15.0488 10.6583 15.0488 10.3417 14.8536 10.1464L14 9.29289V8C14 7.44772 14.4477 7 15 7H17C17.3229 7 17.626 7.15597 17.8137 7.41876C19.1833 9.33618 20.1304 11.0123 20.7845 12.8291C21.4376 14.6433 21.7815 16.5509 21.9959 18.9095C22.0212 19.1882 21.9286 19.4647 21.7406 19.672C21.5525 19.8792 21.2863 19.9982 21.0064 20L20.901 20.0007C19.6725 20.0086 18.577 20.0157 17.5483 19.809C16.4528 19.5888 15.4627 19.1362 14.3817 18.286C14.1407 18.0964 14 17.8067 14 17.5V13.3663C13.926 13.3235 13.8562 13.2704 13.7929 13.2071L12 11.4142L10.2071 13.2071C10.1438 13.2704 10.074 13.3235 10 13.3663V17.5C10 17.8067 9.85929 18.0964 9.61826 18.286C8.53734 19.1362 7.54722 19.5888 6.45165 19.809C5.42303 20.0157 4.3275 20.0086 3.09902 20.0007L2.99358 20C2.71375 19.9982 2.44746 19.8792 2.25942 19.672C2.07138 19.4647 1.97877 19.1882 2.00411 18.9095C2.21852 16.5509 2.5624 14.6433 3.21549 12.8291C3.86956 11.0123 4.81669 9.33618 6.18627 7.41876C6.37398 7.15597 6.67705 7 7 7H9C9.55229 7 10 7.44772 10 8V9.29289L9.14645 10.1464C8.95118 10.3417 8.95118 10.6583 9.14645 10.8536C9.34171 11.0488 9.65829 11.0488 9.85355 10.8536L11 9.70711L11 5C11 4.44772 11.4477 4 12 4ZM16 10C16 10.5523 16.4477 11 17 11C17.5523 11 18 10.5523 18 10C18 9.44772 17.5523 9 17 9C16.4477 9 16 9.44772 16 10ZM18 14C18 14.5523 18.4477 15 19 15C19.5523 15 20 14.5523 20 14C20 13.4477 19.5523 13 19 13C18.4477 13 18 13.4477 18 14ZM16 17C16 17.5523 16.4477 18 17 18C17.5523 18 18 17.5523 18 17C18 16.4477 17.5523 16 17 16C16.4477 16 16 16.4477 16 17ZM20 19C19.4477 19 19 18.5523 19 18C19 17.4477 19.4477 17 20 17C20.5523 17 21 17.4477 21 18C21 18.5523 20.5523 19 20 19ZM16 14C15.4477 14 15 13.5523 15 13C15 12.4477 15.4477 12 16 12C16.5523 12 17 12.4477 17 13C17 13.5523 16.5523 14 16 14ZM8 17C8 17.5523 7.55228 18 7 18C6.44772 18 6 17.5523 6 17C6 16.4477 6.44772 16 7 16C7.55228 16 8 16.4477 8 17ZM5 15C5.55228 15 6 14.5523 6 14C6 13.4477 5.55228 13 5 13C4.44772 13 4 13.4477 4 14C4 14.5523 4.44772 15 5 15ZM5 18C5 18.5523 4.55228 19 4 19C3.44772 19 3 18.5523 3 18C3 17.4477 3.44772 17 4 17C4.55228 17 5 17.4477 5 18ZM7 11C7.55228 11 8 10.5523 8 10C8 9.44772 7.55228 9 7 9C6.44772 9 6 9.44772 6 10C6 10.5523 6.44772 11 7 11ZM9 13C9 13.5523 8.55228 14 8 14C7.44772 14 7 13.5523 7 13C7 12.4477 7.44772 12 8 12C8.55228 12 9 12.4477 9 13Z" fill="black"/>
</svg>
