<svg width="24" height="24" viewBox="0 0 24 24" fill="none" xmlns="http://www.w3.org/2000/svg">
<path fill-rule="evenodd" clip-rule="evenodd" d="M7.80135 4.12031C8.12125 2.90462 9.21212 1.99042 10.7134 2.00008L13.6252 2.00008C15.0873 2.0002 16.1435 2.95118 16.4556 4.11209L17.3072 5.24222L17.3083 5.24368C18.5351 6.85687 18.5354 9.10684 17.3092 10.7203L17.3039 10.7272L15.6502 12.852L12.8587 9.35852L14.9049 6.72795C14.5025 6.51172 14.0373 6.38277 13.575 6.38277H10.6608C10.1752 6.38277 9.69266 6.50076 9.28904 6.73024L12.2968 10.5972L14.7569 13.6926L19 19.1283L15.7961 22L11.9344 17.0993L11.9332 17.0978L6.92216 10.7709L6.91746 10.7647C5.69277 9.15139 5.69355 6.90269 6.9198 5.29019L7.80135 4.12031ZM9.20041 4.87412C9.20041 4.16285 9.71657 3.50883 10.7057 3.51597L10.7119 3.51599L13.6251 3.51599C14.6707 3.51608 15.1928 4.36976 15.0092 5.12269C14.5596 4.96046 14.0728 4.86686 13.575 4.86686H10.6608C10.1816 4.86686 9.69066 4.94418 9.22282 5.10702C9.208 5.02869 9.20041 4.95028 9.20041 4.87412Z" fill="black"/>
<path d="M8.5218 14.9016L11.3457 18.3021L8.44436 21.9841L5 19.3869L8.5218 14.9016Z" fill="black"/>
</svg>
