<svg width="24" height="24" viewBox="0 0 24 24" fill="none" xmlns="http://www.w3.org/2000/svg">
<path fill-rule="evenodd" clip-rule="evenodd" d="M13 10.5257C13.0003 11.0458 13.011 11.7457 13.1987 12.3088C13.2901 12.5831 13.4011 12.7513 13.5081 12.8463C13.5945 12.9231 13.7286 13 14 13V13.5133C14 11.1126 14.4457 9.70082 15.135 8.88867C15.8803 8.01055 16.7623 8 17.0644 8C17.5216 8 17.9281 8.18638 18.2359 8.39164C18.5541 8.60375 18.8395 8.8835 19.0716 9.18184C19.8228 10.1474 20.2991 11.319 20.6409 12.4174C20.8746 13.1681 21.0611 13.9439 21.222 14.6127C21.293 14.9078 21.359 15.1823 21.4218 15.4244C21.6473 16.2939 21.8361 17.1919 21.9318 17.989C22.0227 18.7458 22.0492 19.5495 21.8425 20.147C21.6249 20.7759 21.2746 21.2786 20.7706 21.6053C20.2697 21.9299 19.7102 22.0202 19.1862 21.9964C18.1891 21.9511 17.11 21.4778 16.2431 21.0599C15.3217 20.6158 14.7719 19.7585 14.4578 19.0077C14.1394 18.2465 13.9999 17.4455 14 16.9057V15C13.2714 15 12.6555 14.7644 12.1794 14.3412C12.116 14.2848 12.0562 14.2262 12 14.1658C11.9438 14.2262 11.884 14.2848 11.8206 14.3412C11.3445 14.7644 10.7286 15 10 15V16.9057C10.0001 17.4455 9.86055 18.2465 9.54218 19.0077C9.22812 19.7585 8.67827 20.6158 7.75692 21.0599C6.89002 21.4778 5.81089 21.9511 4.81379 21.9964C4.28975 22.0202 3.7303 21.9299 3.22941 21.6053C2.7254 21.2786 2.37508 20.7759 2.15753 20.147C1.95083 19.5495 1.97731 18.7458 2.0682 17.989C2.16393 17.1919 2.35274 16.2939 2.57824 15.4244C2.64104 15.1822 2.70702 14.9079 2.778 14.6127C2.93885 13.9439 3.12542 13.1681 3.35905 12.4174C3.70086 11.319 4.17722 10.1474 4.9284 9.18184C5.16051 8.8835 5.4459 8.60375 5.76405 8.39164C6.07195 8.18638 6.4784 8 6.93561 8C7.23765 8 8.11969 8.01055 8.86497 8.88867C9.55427 9.70082 10 11.1126 10 13.5133V13C10.2714 13 10.4055 12.9231 10.4919 12.8463C10.5989 12.7513 10.7099 12.5831 10.8013 12.3088C10.989 11.7457 10.9997 11.0458 11 10.5257L11 2H13L13 10.5257ZM18 12C18.4142 12 18.75 11.6642 18.75 11.25C18.75 10.8358 18.4142 10.5 18 10.5C17.5858 10.5 17.25 10.8358 17.25 11.25C17.25 11.6642 17.5858 12 18 12ZM20 15.5C20 15.9142 19.6642 16.25 19.25 16.25C18.8358 16.25 18.5 15.9142 18.5 15.5C18.5 15.0858 18.8358 14.75 19.25 14.75C19.6642 14.75 20 15.0858 20 15.5ZM17.5 18.25C18.0523 18.25 18.5 17.8023 18.5 17.25C18.5 16.6977 18.0523 16.25 17.5 16.25C16.9477 16.25 16.5 16.6977 16.5 17.25C16.5 17.8023 16.9477 18.25 17.5 18.25ZM18.25 13.75C18.25 14.4404 17.6904 15 17 15C16.3096 15 15.75 14.4404 15.75 13.75C15.75 13.0596 16.3096 12.5 17 12.5C17.6904 12.5 18.25 13.0596 18.25 13.75Z" fill="black"/>
</svg>
