<svg width="24" height="24" viewBox="0 0 24 24" fill="none" xmlns="http://www.w3.org/2000/svg">
<path fill-rule="evenodd" clip-rule="evenodd" d="M9.50001 3C9.50001 2.44772 9.94772 2 10.5 2H13.5C14.0523 2 14.5 2.44772 14.5 3C14.5 3.55228 14.0523 4 13.5 4H13V5C13 5.02367 12.9992 5.04716 12.9976 5.07042C14.9319 5.34641 16.6113 6.41317 17.698 7.93282C17.7611 7.8677 17.8341 7.81015 17.9166 7.76257L18.7826 7.26257L18.5326 6.8296C18.2565 6.35131 18.4204 5.73972 18.8987 5.46357C19.3769 5.18743 19.9885 5.35131 20.2647 5.8296L21.7647 8.42768C22.0408 8.90597 21.8769 9.51756 21.3987 9.7937C20.9204 10.0698 20.3088 9.90597 20.0326 9.42768L19.7826 8.99462L18.9166 9.49462C18.8103 9.55596 18.6975 9.59559 18.5832 9.61489C18.8529 10.3593 19 11.1624 19 11.9999C19 12.7934 18.868 13.5561 18.6247 14.2672C18.7322 14.2876 18.8382 14.3261 18.9384 14.3839L19.8044 14.8839L20.0544 14.4509C20.3305 13.9726 20.9421 13.8088 21.4204 14.0849C21.8987 14.3611 22.0625 14.9726 21.7864 15.4509L20.2864 18.049C20.0103 18.5273 19.3987 18.6912 18.9204 18.415C18.4421 18.1389 18.2782 17.5273 18.5544 17.049L18.8044 16.616L17.9384 16.116C17.8718 16.0775 17.8114 16.0327 17.7574 15.9825C16.6731 17.547 14.9675 18.6483 12.9976 18.9293C12.9992 18.9527 13 18.9762 13 19V20H13.5C14.0523 20 14.5 20.4477 14.5 21C14.5 21.5523 14.0523 22 13.5 22H10.5C9.94772 22 9.50001 21.5523 9.50001 21C9.50001 20.4477 9.94772 20 10.5 20H11V19C11 18.9762 11.0008 18.9527 11.0025 18.9293C9.03064 18.648 7.32371 17.545 6.23957 15.9781C6.18435 16.03 6.12232 16.0764 6.05385 16.116L5.18782 16.616L5.43785 17.049C5.71399 17.5273 5.55011 18.1389 5.07182 18.415C4.59353 18.6912 3.98194 18.5273 3.7058 18.049L2.2058 15.4509C1.92965 14.9726 2.09353 14.3611 2.57182 14.0849C3.05011 13.8088 3.66171 13.9726 3.93785 14.4509L4.18782 14.8839L5.05385 14.3839C5.15628 14.3248 5.26483 14.2858 5.37488 14.2658C5.13188 13.5551 5.00001 12.7929 5.00001 11.9999C5.00001 11.1628 5.14692 10.3601 5.41637 9.6161C5.29958 9.59729 5.18417 9.55728 5.07563 9.49462L4.2096 8.99462L3.95958 9.42768C3.68343 9.90597 3.07184 10.0698 2.59355 9.7937C2.11526 9.51756 1.95138 8.90597 2.22753 8.42768L3.72753 5.8296C4.00367 5.35131 4.61526 5.18743 5.09355 5.46357C5.57184 5.73972 5.73572 6.35131 5.45958 6.8296L5.2096 7.26257L6.07563 7.76257C6.16001 7.81129 6.23461 7.87045 6.29873 7.93748C7.38526 6.41535 9.06614 5.34669 11.0024 5.07042C11.0008 5.04716 11 5.02367 11 5V4H10.5C9.94772 4 9.50001 3.55228 9.50001 3ZM8.00001 10.25C8.27615 10.25 8.50001 10.4738 8.50001 10.75V11.5H9.16667V10.75C9.16667 10.4738 9.39053 10.25 9.66667 10.25C9.94282 10.25 10.1667 10.4738 10.1667 10.75V13.25C10.1667 13.5261 9.94282 13.75 9.66667 13.75C9.39053 13.75 9.16667 13.5261 9.16667 13.25V12.5H8.50001V13.25C8.50001 13.5261 8.27615 13.75 8.00001 13.75C7.72387 13.75 7.50001 13.5261 7.50001 13.25V10.75C7.50001 10.4738 7.72387 10.25 8.00001 10.25ZM15.5032 13.4423C15.4256 13.6286 15.2435 13.75 15.0417 13.75C14.8398 13.75 14.6578 13.6286 14.5801 13.4423L13.5385 10.9423C13.4323 10.6874 13.5528 10.3946 13.8077 10.2884C14.0626 10.1822 14.3553 10.3028 14.4615 10.5577L15.0417 11.95L15.6218 10.5577C15.728 10.3028 16.0207 10.1822 16.2756 10.2884C16.5305 10.3946 16.6511 10.6874 16.5449 10.9423L15.5032 13.4423ZM10.5 10.75C10.5 10.4738 10.7239 10.25 11 10.25H12.6667C12.9428 10.25 13.1667 10.4738 13.1667 10.75C13.1667 11.0261 12.9428 11.25 12.6667 11.25H12.3333V12.75H12.6667C12.9428 12.75 13.1667 12.9738 13.1667 13.25C13.1667 13.5261 12.9428 13.75 12.6667 13.75H11C10.7239 13.75 10.5 13.5261 10.5 13.25C10.5 12.9738 10.7239 12.75 11 12.75H11.3333V11.25H11C10.7239 11.25 10.5 11.0261 10.5 10.75Z" fill="black"/>
</svg>
