<svg width="24" height="24" viewBox="0 0 24 24" fill="none" xmlns="http://www.w3.org/2000/svg">
<path d="M9.4849 3C9.4849 2.44772 9.93602 2 10.4925 2H13.5154C14.0718 2 14.523 2.44772 14.523 3C14.523 3.55228 14.0718 4 13.5154 4H13.0116V5C13.0116 5.55228 12.5604 6 12.0039 6C11.4474 6 10.9963 5.55228 10.9963 5V4H10.4925C9.93602 4 9.4849 3.55228 9.4849 3Z" fill="black"/>
<path d="M10.4925 20H10.9963V19C10.9963 18.4477 11.4474 18 12.0039 18C12.5604 18 13.0116 18.4477 13.0116 19V20H13.5154C14.0718 20 14.523 20.4477 14.523 21C14.523 21.5523 14.0719 22 13.5154 22H10.4925C9.93602 22 9.4849 21.5523 9.4849 21C9.4849 20.4477 9.93602 20 10.4925 20Z" fill="black"/>
<path d="M18.6082 17.0488L18.8601 16.6158L17.9875 16.1158C17.5055 15.8396 17.3404 15.228 17.6187 14.7497C17.8969 14.2715 18.5132 14.1076 18.9951 14.3837L19.8677 14.8837L20.1196 14.4508C20.3978 13.9725 21.0141 13.8086 21.496 14.0847C21.978 14.3609 22.1431 14.9725 21.8648 15.4508L20.3534 18.0488C20.0752 18.5271 19.4589 18.691 18.977 18.4149C18.4951 18.1387 18.3299 17.5271 18.6082 17.0488Z" fill="black"/>
<path d="M5.39183 17.0488L5.1399 16.6158L6.01252 16.1158C6.49445 15.8396 6.65958 15.228 6.38133 14.7497C6.10309 14.2715 5.48684 14.1076 5.0049 14.3837L4.13228 14.8837L3.8804 14.4508C3.60216 13.9725 2.98591 13.8086 2.50398 14.0847C2.02204 14.3609 1.85692 14.9725 2.13516 15.4508L3.64659 18.0488C3.92483 18.5271 4.54108 18.691 5.02302 18.4149C5.50495 18.1387 5.67007 17.5271 5.39183 17.0488Z" fill="black"/>
<path d="M20.0977 9.42773L19.8458 8.99468L18.9732 9.49468C18.4912 9.77082 17.875 9.60694 17.5968 9.12865C17.3185 8.65036 17.4836 8.03877 17.9656 7.76262L18.8382 7.26262L18.5863 6.82966C18.3081 6.35137 18.4732 5.73978 18.9551 5.46363C19.4371 5.18749 20.0533 5.35137 20.3315 5.82966L21.843 8.42773C22.1212 8.90603 21.9561 9.51762 21.4742 9.79376C20.9922 10.0699 20.376 9.90603 20.0977 9.42773Z" fill="black"/>
<path d="M3.90227 9.42773L4.1542 8.99468L5.02682 9.49468C5.50876 9.77082 6.125 9.60694 6.40325 9.12865C6.68149 8.65036 6.51637 8.03877 6.03444 7.76262L5.16182 7.26262L5.41369 6.82966C5.69194 6.35137 5.52681 5.73978 5.04488 5.46363C4.56294 5.18749 3.9467 5.35137 3.66845 5.82966L2.15703 8.42773C1.87878 8.90603 2.0439 9.51762 2.52584 9.79376C3.00777 10.0699 3.62402 9.90603 3.90227 9.42773Z" fill="black"/>
<path d="M12.1215 11.5H11.5757V11.25H12.1215C12.1911 11.25 12.2475 11.306 12.2475 11.375C12.2475 11.444 12.1911 11.5 12.1215 11.5Z" fill="black"/>
<path fill-rule="evenodd" clip-rule="evenodd" d="M12.0039 7C11.4474 7 10.9963 6.55228 10.9963 6V5.0708C9.06021 5.34565 7.37773 6.40083 6.28274 7.90503L6.90705 8.26275C7.38899 8.53889 7.55411 9.15048 7.27586 9.62877C6.99762 10.1071 6.38137 10.2709 5.89943 9.9948L5.34769 9.67865C5.0905 10.4051 4.95063 11.1863 4.95063 11.9999C4.95063 12.772 5.07658 13.5149 5.3092 14.2095L5.87748 13.8838C6.35941 13.6077 6.97566 13.7716 7.25391 14.2499C7.53215 14.7282 7.36703 15.3398 6.88509 15.6159L6.21488 15.9999C7.30753 17.5546 9.01975 18.6484 10.9963 18.929V18C10.9963 17.4477 11.4474 17 12.0039 17C12.5604 17 13.0116 17.4477 13.0116 18V18.929C14.9868 18.6486 16.698 17.5561 17.7907 16.0031L17.1149 15.6159C16.633 15.3398 16.4678 14.7282 16.7461 14.2499C17.0243 13.7716 17.6406 13.6077 18.1225 13.8838L18.6974 14.2132C18.9308 13.5176 19.0572 12.7734 19.0572 11.9999C19.0572 11.1849 18.9169 10.4024 18.6589 9.6749L18.1006 9.9948C17.6186 10.2709 17.0024 10.1071 16.7241 9.62877C16.4459 9.15048 16.611 8.53889 17.0929 8.26275L17.7228 7.90184C16.6278 6.39934 14.9463 5.34545 13.0116 5.0708V6C13.0116 6.55228 12.5604 7 12.0039 7ZM7.97347 10.25C8.25172 10.25 8.47728 10.4739 8.47728 10.75V11.5H9.14902V10.75C9.14902 10.4739 9.37459 10.25 9.65283 10.25C9.93108 10.25 10.1566 10.4739 10.1566 10.75V13.25C10.1566 13.5261 9.93108 13.75 9.65283 13.75C9.37459 13.75 9.14902 13.5261 9.14902 13.25V12.5H8.47728V13.25C8.47728 13.5261 8.25172 13.75 7.97347 13.75C7.69523 13.75 7.46966 13.5261 7.46966 13.25V10.75C7.46966 10.4739 7.69523 10.25 7.97347 10.25ZM11.0719 10.25C10.7937 10.25 10.5681 10.4739 10.5681 10.75V13.25C10.5681 13.5261 10.7937 13.75 11.0719 13.75C11.3502 13.75 11.5757 13.5261 11.5757 13.25V12.5H12.1215C12.7476 12.5 13.2551 11.9963 13.2551 11.375C13.2551 10.7537 12.7476 10.25 12.1215 10.25H11.0719ZM15.0688 13.75C15.2722 13.75 15.4556 13.6286 15.5338 13.4423L16.5834 10.9423C16.6904 10.6874 16.569 10.3947 16.3121 10.2885C16.0553 10.1823 15.7603 10.3028 15.6533 10.5577L15.0688 11.95L14.4842 10.5577C14.3772 10.3028 14.0822 10.1823 13.8254 10.2885C13.5686 10.3947 13.4471 10.6874 13.5541 10.9423L14.6037 13.4423C14.6819 13.6286 14.8654 13.75 15.0688 13.75Z" fill="black"/>
</svg>
