<svg width="24" height="24" viewBox="0 0 24 24" fill="none" xmlns="http://www.w3.org/2000/svg">
<path d="M16.7499 6.5C17.9926 6.5 18.9999 5.49264 18.9999 4.25C18.9999 3.00736 17.9926 2 16.7499 2C15.5073 2 14.4999 3.00736 14.4999 4.25C14.4999 5.49264 15.5073 6.5 16.7499 6.5Z" fill="black"/>
<path d="M15.4701 7.25746C15.3546 6.79542 14.9349 6.48957 14.478 6.50002C13.4738 6.50146 11.6953 6.6092 10.4999 9C8.99994 12 8.99994 14 9.49994 15C9.99343 15.987 10.5023 16.5009 10.9999 16.7637V21C10.9999 21.5523 11.4477 22 11.9999 22C12.5522 22 12.9999 21.5523 12.9999 21V16.9753C13.0024 14.3339 13.3917 11.313 14.1679 10.2951L14.4678 11.4945C14.5846 11.9618 14.9187 12.3445 15.3659 12.5234L17.6285 13.4285C18.1413 13.6336 18.7233 13.3842 18.9284 12.8714C19.1335 12.3586 18.8841 11.7766 18.3713 11.5715L16.3461 10.7614L15.4701 7.25746Z" fill="black"/>
<path d="M17.4999 15.8875C17.4999 15.7593 17.5467 15.6847 17.6241 15.6238C17.7203 15.5481 17.8653 15.5 17.9999 15.5C18.1346 15.5 18.2796 15.5481 18.3758 15.6238C18.4532 15.6847 18.4999 15.7593 18.4999 15.8875V21.25C18.4999 21.6642 18.8357 22 19.2499 22C19.6642 22 19.9999 21.6642 19.9999 21.25V15.8875C19.9999 15.2574 19.7079 14.7632 19.3034 14.445C18.9177 14.1415 18.4377 14 17.9999 14C17.5622 14 17.0822 14.1415 16.6965 14.445C16.292 14.7632 15.9999 15.2574 15.9999 15.8875C15.9999 16.3017 16.3357 16.6375 16.7499 16.6375C17.1642 16.6375 17.4999 16.3017 17.4999 15.8875Z" fill="black"/>
<path d="M4.09876 4.3779C4.30427 4.01826 4.76241 3.89332 5.12205 4.09882L8.44921 6.00006C9.05609 6.34685 9.0083 7.23714 8.36779 7.51697L7.67438 7.81992L9.10521 8.58948C9.47 8.78569 9.60667 9.24047 9.41047 9.60527C9.21426 9.97006 8.75948 10.1067 8.39469 9.91053L5.78686 8.50792C5.16241 8.17206 5.19944 7.26429 5.84919 6.98042L6.58156 6.66046L4.37784 5.40119C4.0182 5.19568 3.89326 4.73754 4.09876 4.3779Z" fill="black"/>
<path d="M4.93183 10.2724C4.52999 10.172 4.12279 10.4163 4.02233 10.8182C3.92186 11.22 4.16619 11.6272 4.56803 11.7277L5.53555 11.9695L5.20461 12.466C4.87855 12.955 5.13544 13.6195 5.7057 13.7621L7.56803 14.2277C7.96988 14.3281 8.37708 14.0838 8.47754 13.682C8.578 13.2801 8.33368 12.8729 7.93183 12.7724L6.96431 12.5306L7.29526 12.0341C7.62131 11.5451 7.36442 10.8806 6.79417 10.738L4.93183 10.2724Z" fill="black"/>
</svg>
