<svg width="24" height="24" viewBox="0 0 24 24" fill="none" xmlns="http://www.w3.org/2000/svg">
<path d="M7.77307 2.38409L5.72653 8.2679C4.37423 12.1558 4.78973 16.4406 6.86383 19.9962L7.3677 20.86L5.64015 21.8677L5.13627 21.0039C2.76776 16.9436 2.29328 12.0506 3.83754 7.61086L5.88408 1.72705L7.77307 2.38409Z" fill="black"/>
<path d="M16.227 2.38409L18.2736 8.2679C19.6259 12.1558 19.2104 16.4406 17.1363 19.9962L16.6324 20.86L18.36 21.8677L18.8638 21.0039C21.2323 16.9436 21.7068 12.0506 20.1626 7.61086L18.116 1.72705L16.227 2.38409Z" fill="black"/>
<path d="M13.0001 21.0001V15.9143L16.2072 12.7072L14.7929 11.293L12.0001 14.0859L9.20716 11.293L7.79295 12.7072L11.0001 15.9143V21.0001H13.0001Z" fill="black"/>
<path fill-rule="evenodd" clip-rule="evenodd" d="M11.6329 3.00007C9.98249 3.00007 9.13716 4.97844 10.278 6.17111L10.9622 6.88643L8.95807 8.98165L10.042 10.0185L12.0001 7.97147L13.9581 10.0185L15.042 8.98165L13.0379 6.88643L13.7221 6.17111C14.8629 4.97844 14.0176 3.00007 12.3672 3.00007H11.6329ZM12.6382 5.13428L12.0001 5.8014L11.3619 5.13428C11.1338 4.89574 11.3028 4.50007 11.6329 4.50007H12.3672C12.6973 4.50007 12.8663 4.89574 12.6382 5.13428Z" fill="black"/>
</svg>
