<svg width="24" height="24" viewBox="0 0 24 24" fill="none" xmlns="http://www.w3.org/2000/svg">
<path d="M14 4C14 5.10457 13.1046 6 12 6C10.8954 6 10 5.10457 10 4C10 2.89543 10.8954 2 12 2C13.1046 2 14 2.89543 14 4Z" fill="black"/>
<path fill-rule="evenodd" clip-rule="evenodd" d="M9 11.9228C8.23053 11.6774 7.72368 10.8816 7.89223 10.0388L8.4124 7.438C8.46333 7.18332 8.68695 7 8.94667 7H14.9864C15.285 7 15.5422 7.2108 15.6007 7.50365L16.0686 9.84324C16.2428 10.7142 15.761 11.5396 15 11.8599V22H13V16H11V22H9V11.9228ZM10 10V9H14V10H10ZM9 13H13V12H9V13Z" fill="black"/>
<path d="M5.62854 6.83464C5.5612 6.91882 5.5 7.06318 5.5 7.25C5.5 7.43682 5.5612 7.58118 5.62854 7.66536C5.69479 7.74817 5.74251 7.75 5.75 7.75C6.16421 7.75 6.5 8.08579 6.5 8.5C6.5 8.91421 6.16421 9.25 5.75 9.25C5.74251 9.25 5.69479 9.25183 5.62854 9.33464C5.5612 9.41882 5.5 9.56318 5.5 9.75C5.5 9.93682 5.5612 10.0812 5.62854 10.1654C5.69479 10.2482 5.74251 10.25 5.75 10.25C6.16421 10.25 6.5 10.5858 6.5 11C6.5 11.4142 6.16421 11.75 5.75 11.75C5.74251 11.75 5.69479 11.7518 5.62854 11.8346C5.5612 11.9188 5.5 12.0632 5.5 12.25C5.5 12.4368 5.5612 12.5812 5.62854 12.6654C5.69479 12.7482 5.74251 12.75 5.75 12.75C6.16421 12.75 6.5 13.0858 6.5 13.5C6.5 13.9142 6.16421 14.25 5.75 14.25C5.74251 14.25 5.69479 14.2518 5.62854 14.3346C5.5612 14.4188 5.5 14.5632 5.5 14.75C5.5 14.9368 5.5612 15.0812 5.62854 15.1654C5.69479 15.2482 5.74251 15.25 5.75 15.25C6.16421 15.25 6.5 15.5858 6.5 16C6.5 16.4142 6.16421 16.75 5.75 16.75C4.63598 16.75 4 15.6897 4 14.75C4 14.321 4.13253 13.8669 4.38258 13.5C4.13253 13.1331 4 12.679 4 12.25C4 11.821 4.13253 11.3669 4.38258 11C4.13253 10.6331 4 10.179 4 9.75C4 9.321 4.13253 8.86689 4.38258 8.5C4.13253 8.13311 4 7.679 4 7.25C4 6.31025 4.63598 5.25 5.75 5.25C6.16421 5.25 6.5 5.58579 6.5 6C6.5 6.41421 6.16421 6.75 5.75 6.75C5.74251 6.75 5.69479 6.75183 5.62854 6.83464Z" fill="black"/>
<path d="M18.3715 6.83464C18.4388 6.91882 18.5 7.06318 18.5 7.25C18.5 7.43682 18.4388 7.58118 18.3715 7.66536C18.3052 7.74817 18.2575 7.75 18.25 7.75C17.8358 7.75 17.5 8.08579 17.5 8.5C17.5 8.91421 17.8358 9.25 18.25 9.25C18.2575 9.25 18.3052 9.25183 18.3715 9.33464C18.4388 9.41882 18.5 9.56318 18.5 9.75C18.5 9.93682 18.4388 10.0812 18.3715 10.1654C18.3052 10.2482 18.2575 10.25 18.25 10.25C17.8358 10.25 17.5 10.5858 17.5 11C17.5 11.4142 17.8358 11.75 18.25 11.75C18.2575 11.75 18.3052 11.7518 18.3715 11.8346C18.4388 11.9188 18.5 12.0632 18.5 12.25C18.5 12.4368 18.4388 12.5812 18.3715 12.6654C18.3052 12.7482 18.2575 12.75 18.25 12.75C17.8358 12.75 17.5 13.0858 17.5 13.5C17.5 13.9142 17.8358 14.25 18.25 14.25C18.2575 14.25 18.3052 14.2518 18.3715 14.3346C18.4388 14.4188 18.5 14.5632 18.5 14.75C18.5 14.9368 18.4388 15.0812 18.3715 15.1654C18.3052 15.2482 18.2575 15.25 18.25 15.25C17.8358 15.25 17.5 15.5858 17.5 16C17.5 16.4142 17.8358 16.75 18.25 16.75C19.364 16.75 20 15.6897 20 14.75C20 14.321 19.8675 13.8669 19.6174 13.5C19.8675 13.1331 20 12.679 20 12.25C20 11.821 19.8675 11.3669 19.6174 11C19.8675 10.6331 20 10.179 20 9.75C20 9.321 19.8675 8.86689 19.6174 8.5C19.8675 8.13311 20 7.679 20 7.25C20 6.31025 19.364 5.25 18.25 5.25C17.8358 5.25 17.5 5.58579 17.5 6C17.5 6.41421 17.8358 6.75 18.25 6.75C18.2575 6.75 18.3052 6.75183 18.3715 6.83464Z" fill="black"/>
</svg>
