<svg width="24" height="24" viewBox="0 0 24 24" fill="none" xmlns="http://www.w3.org/2000/svg">
<path fill-rule="evenodd" clip-rule="evenodd" d="M4 11.1765C4 8.18375 6.67049 6 10 6C11.4864 6 12.5795 6.73518 13.3392 7.53957C13.7179 7.94061 13.9989 8.34468 14.1844 8.64829C14.2766 8.79918 14.3437 8.92272 14.3862 9.00513L14.4182 9.06839L14.3902 9.0128C14.4015 9.03478 14.4107 9.05315 14.4182 9.06839L15.646 13.0588H15.5294C14.4249 13.0588 13.5294 13.9543 13.5294 15.0588V16.7647H12.2353C11.1307 16.7647 10.2353 17.6601 10.2353 18.7647V19C10.2353 19.5523 10.683 20 11.2353 20C11.7876 20 12.2353 19.5523 12.2353 19V18.7647H14.5294C15.0817 18.7647 15.5294 18.317 15.5294 17.7647V15.0588H17C17.3173 15.0588 17.6159 14.9082 17.8044 14.6529C17.9929 14.3977 18.0491 14.0681 17.9558 13.7647L16.3087 8.4118C16.2967 8.37268 16.2823 8.33433 16.2655 8.29698L16.265 8.29575L16.2625 8.29024L16.2573 8.27881L16.2386 8.23892L16.2359 8.23314C16.2187 8.19734 16.1947 8.14839 16.1637 8.08819C16.1016 7.96794 16.0111 7.80193 15.891 7.60539C15.6519 7.21415 15.2894 6.69175 14.7932 6.16632C13.8017 5.1165 12.2182 4 10 4C5.90415 4 2 6.76889 2 11.1765C2 13.4538 3.2806 14.9531 4.45883 15.8368C5.04675 16.2777 5.62911 16.5829 6.06232 16.7779L6.06393 16.7787L6.06714 16.7801L6.11767 16.8026V19C6.11767 19.5523 6.56538 20 7.11767 20C7.66995 20 8.11767 19.5523 8.11767 19V16.8026C8.11767 16.0131 7.65311 15.2974 6.93205 14.9759L6.88463 14.9548L6.88301 14.9541C6.54456 14.8017 6.09881 14.5668 5.65883 14.2368C4.77556 13.5743 4 12.6026 4 11.1765ZM14.3902 9.0128L14.3698 8.97211C14.3652 8.96295 14.3681 8.96883 14.385 9.00263L14.3862 9.00513L14.3902 9.0128Z" fill="black"/>
<path d="M11.5 16C12.0523 16 12.5 15.5523 12.5 15C12.5 14.4477 12.0523 14 11.5 14C10.9477 14 10.5 14.4477 10.5 15C10.5 15.5523 10.9477 16 11.5 16Z" fill="black"/>
<path d="M9.5 14C9.5 14.5523 9.05229 15 8.5 15C7.94772 15 7.5 14.5523 7.5 14C7.5 13.4477 7.94772 13 8.5 13C9.05229 13 9.5 13.4477 9.5 14Z" fill="black"/>
<path d="M17.5 18C18.0523 18 18.5 17.5523 18.5 17C18.5 16.4477 18.0523 16 17.5 16C16.9477 16 16.5 16.4477 16.5 17C16.5 17.5523 16.9477 18 17.5 18Z" fill="black"/>
<path d="M21 15C21 15.5523 20.5523 16 20 16C19.4477 16 19 15.5523 19 15C19 14.4477 19.4477 14 20 14C20.5523 14 21 14.4477 21 15Z" fill="black"/>
<path d="M19 13C19.5523 13 20 12.5523 20 12C20 11.4477 19.5523 11 19 11C18.4477 11 18 11.4477 18 12C18 12.5523 18.4477 13 19 13Z" fill="black"/>
<path d="M22 18C22 18.5523 21.5523 19 21 19C20.4477 19 20 18.5523 20 18C20 17.4477 20.4477 17 21 17C21.5523 17 22 17.4477 22 18Z" fill="black"/>
<path d="M21 10C21.5523 10 22 9.55229 22 9C22 8.44771 21.5523 8 21 8C20.4477 8 20 8.44771 20 9C20 9.55229 20.4477 10 21 10Z" fill="black"/>
</svg>
