<svg width="24" height="24" viewBox="0 0 24 24" fill="none" xmlns="http://www.w3.org/2000/svg">
<path fill-rule="evenodd" clip-rule="evenodd" d="M12.9071 5C10.5049 5 8.51798 6.59217 7.96747 8.69743L6.03253 8.19146C6.81788 5.18812 9.61387 3 12.9071 3C16.793 3 20 6.05597 20 9.89474C20 11.3583 19.6207 12.4671 18.9977 13.3393C18.3916 14.1878 17.602 14.7422 16.9265 15.173C16.762 15.2779 16.6087 15.3733 16.4653 15.4626C15.9697 15.7711 15.5928 16.0057 15.2862 16.3002C14.9605 16.6129 14.7775 16.941 14.7775 17.4737C14.7775 19.4521 13.1293 21 11.1663 21C9.20327 21 7.55504 19.4521 7.55504 17.4737H9.55504C9.55504 18.2857 10.245 19 11.1663 19C12.0876 19 12.7775 18.2857 12.7775 17.4737C12.7775 16.3127 13.2474 15.4852 13.9009 14.8576C14.3747 14.4026 14.9866 14.0239 15.5066 13.702C15.6273 13.6273 15.7431 13.5556 15.8511 13.4867C16.4811 13.0849 16.9972 12.6991 17.3703 12.1768C17.7264 11.6782 18 10.9858 18 9.89474C18 7.22236 15.7513 5 12.9071 5Z" fill="black"/>
<path fill-rule="evenodd" clip-rule="evenodd" d="M12.9535 8C12.5224 8 12.127 8.12588 11.8008 8.33816L10.71 6.66184C11.3542 6.24263 12.1273 6 12.9535 6C15.1569 6 17 7.73639 17 9.94737C17 10.8806 16.7233 11.5903 16.2683 12.1386L14.7291 10.8614C14.8656 10.6969 15 10.4476 15 9.94737C15 8.90277 14.1152 8 12.9535 8Z" fill="black"/>
<path fill-rule="evenodd" clip-rule="evenodd" d="M6.47405 13L4 10.5259L5.52595 9L8 11.4741L10.4741 9L12 10.5259L9.52595 13L12 15.4741L10.4741 17L8 14.5259L5.52595 17L4 15.4741L6.47405 13Z" fill="black"/>
</svg>
