<svg width="24" height="24" viewBox="0 0 24 24" fill="none" xmlns="http://www.w3.org/2000/svg">
<path d="M18.75 7.5C19.9926 7.5 21 6.49264 21 5.25C21 4.00736 19.9926 3 18.75 3C17.5074 3 16.5 4.00736 16.5 5.25C16.5 6.49264 17.5074 7.5 18.75 7.5Z" fill="black"/>
<path d="M14.6327 14.1769L13.2433 12.5462L13.6457 11.9139C13.7146 11.8056 13.8037 11.7116 13.9081 11.637L14.6667 11.0952L14.5878 11.7309C14.4903 12.5162 14.865 13.2852 15.5436 13.6923L17.4855 14.8575C17.9591 15.1416 18.5734 14.9881 18.8575 14.5145C19.1417 14.0409 18.9881 13.4266 18.5145 13.1425L16.5726 11.9773L16.9931 8.59008C17.0116 8.50218 17.0227 8.41303 17.0261 8.32366L17.0324 8.2732C17.0609 8.04379 17.0093 7.8229 16.8994 7.6386C16.8225 7.4595 16.711 7.29183 16.565 7.14581C15.6402 6.22109 14.141 6.22109 13.2162 7.14581L10.3117 10.0504C10.217 10.145 10.1338 10.2468 10.0621 10.354C9.71952 10.8565 9.70107 11.3129 9.70008 11.5599C9.69997 11.5867 9.70212 11.6133 9.7063 11.6398C9.89277 12.8208 10.5847 13.8619 11.6014 14.4911L13.0327 15.3769L14.505 20.0995C14.56 20.649 15.05 21.05 15.5995 20.995C16.1491 20.9401 16.55 20.45 16.4951 19.9005L15.0228 15.1779C14.9865 14.8149 14.8516 14.4688 14.6327 14.1769Z" fill="black"/>
<path d="M7 20.9973C6.91737 20.9991 6.83401 21 6.75 21C4.67893 21 3 20.4404 3 19.75C3 19.0596 4.67893 18.5 6.75 18.5C8.22022 18.5 9.49283 18.782 10.1075 19.1926C10.783 19.5137 11.25 20.2023 11.25 21H7V20.9973Z" fill="black"/>
<path d="M11.0547 15.6679C11.5142 15.9743 11.6384 16.5952 11.3321 17.0547L10.8321 17.8047C10.5257 18.2642 9.90484 18.3884 9.44531 18.082C8.98579 17.7757 8.86161 17.1548 9.16796 16.6953L9.66796 15.9453C9.97432 15.4858 10.5952 15.3616 11.0547 15.6679Z" fill="black"/>
<path d="M9.35749 14.5145C9.64164 14.0409 9.48807 13.4267 9.01449 13.1425C8.54091 12.8584 7.92665 13.012 7.64251 13.4855L6.14251 15.9855C5.85836 16.4591 6.01192 17.0734 6.4855 17.3575C6.95908 17.6417 7.57334 17.4881 7.85749 17.0145L9.35749 14.5145Z" fill="black"/>
</svg>
