<svg width="24" height="24" viewBox="0 0 24 24" fill="none" xmlns="http://www.w3.org/2000/svg">
<path d="M7.11974 9.96966C7.41264 9.67677 7.88751 9.67677 8.1804 9.96966L8.71073 10.5C9.00363 10.7929 9.00363 11.2678 8.71073 11.5607C8.41784 11.8535 7.94297 11.8535 7.65007 11.5607L7.11974 11.0303C6.82685 10.7374 6.82685 10.2626 7.11974 9.96966Z" fill="black"/>
<path d="M7.65002 12.4697C7.94291 12.1768 8.41779 12.1768 8.71068 12.4697C9.00357 12.7626 9.00357 13.2374 8.71068 13.5303L8.18035 14.0607C7.88745 14.3535 7.41258 14.3535 7.11969 14.0607C6.82679 13.7678 6.82679 13.2929 7.11969 13L7.65002 12.4697Z" fill="black"/>
<path fill-rule="evenodd" clip-rule="evenodd" d="M7.89878 6.04529C7.86456 6.01921 7.80431 5.99999 7.59741 5.99999C7.04513 5.99999 6.59741 5.55227 6.59741 4.99999C6.59741 4.4477 7.04513 3.99999 7.59741 3.99999L7.61949 3.99994C7.84118 3.99925 8.51096 3.99716 9.1112 4.45468C9.57267 4.80643 9.87322 5.32601 10.0152 6.00008C10.8366 6.00821 11.5 6.67663 11.5 7.5V16.5C11.5 17.3284 10.8284 18 10 18C9.88333 18 9.76744 17.9967 9.65242 17.9901C9.64615 18.0297 9.64152 18.0667 9.63837 18.1007C9.97499 18.2614 10.2065 18.6037 10.205 19.0001C10.2029 19.5505 9.75193 19.9967 9.19783 19.9967C8.75324 19.9967 8.33144 19.824 8.03288 19.4707C7.76461 19.1532 7.66954 18.7775 7.63939 18.4778C7.60921 18.1776 7.63421 17.8585 7.69607 17.5417C7.57207 17.4901 7.45018 17.4345 7.33055 17.3749C7.2424 17.4528 7.1266 17.5 6.99976 17.5C6.72362 17.5 6.49976 17.2761 6.49976 17C6.49976 16.9599 6.50448 16.9209 6.51339 16.8836C6.45455 16.8415 6.39651 16.7984 6.33928 16.7542C6.08365 16.7767 5.88611 16.8871 5.72289 17.0407C5.52226 17.2295 5.40441 17.459 5.36751 17.5687C5.19148 18.0922 4.62441 18.3739 4.10093 18.1978C3.57745 18.0218 3.29579 17.4547 3.47182 16.9313C3.62496 16.4758 4.07524 15.6592 4.90156 15.1648C4.81297 15.0223 4.73019 14.8759 4.65353 14.7259C4.60509 14.7415 4.55341 14.75 4.49976 14.75C4.22362 14.75 3.99976 14.5261 3.99976 14.25C3.99976 14.0545 4.11202 13.8851 4.27561 13.8029C4.22348 13.6373 4.17834 13.4685 4.14055 13.297C4.03536 13.2705 3.98535 13.2822 3.97508 13.2846C3.92339 13.2962 3.84879 13.3322 3.66323 13.4953C3.24747 13.8608 2.61349 13.8233 2.2472 13.4117C1.88091 13.0001 1.92101 12.3701 2.33677 12.0046C2.54902 11.8181 2.95113 11.4728 3.53789 11.3407C3.70365 11.3034 3.87174 11.2853 4.04202 11.2862C4.06416 11.0994 4.0949 10.9152 4.13381 10.734C3.91864 10.6782 3.75977 10.4826 3.75977 10.25C3.75977 9.97386 3.98363 9.75 4.25977 9.75C4.31764 9.75 4.37322 9.75983 4.42492 9.77792C4.4805 9.63858 4.54116 9.50182 4.60666 9.36786C4.57085 9.325 4.53817 9.27858 4.50914 9.22875C4.36034 8.97326 4.14771 8.8387 3.90496 8.76748C3.63969 8.68965 3.37892 8.70287 3.26206 8.72657C2.71957 8.83661 2.18832 8.48859 2.07549 7.94924C1.96266 7.40988 2.31097 6.88344 2.85346 6.7734C3.25749 6.69144 3.85373 6.67607 4.46657 6.85587C4.93151 6.99229 5.42389 7.24807 5.83346 7.6826C5.98852 7.53292 6.15162 7.39152 6.32205 7.25911C6.27617 7.18355 6.24976 7.09486 6.24976 7C6.24976 6.72386 6.47362 6.5 6.74976 6.5C6.91936 6.5 7.06923 6.58444 7.15964 6.71357C7.43998 6.56263 7.73371 6.43333 8.03858 6.32793C8.02602 6.28127 8.01284 6.24197 7.99996 6.20916C7.95135 6.08533 7.90644 6.05112 7.89878 6.04529ZM6 12C6 9.96019 7.52685 8.277 9.5 8.03095V15.9691C7.52685 15.723 6 14.0398 6 12ZM9.64126 18.3053C9.64124 18.3053 9.64131 18.3055 9.64126 18.3053V18.3053Z" fill="black"/>
<path d="M16.8803 9.96966C16.5874 9.67677 16.1125 9.67677 15.8196 9.96966L15.2893 10.5C14.9964 10.7929 14.9964 11.2678 15.2893 11.5607C15.5822 11.8535 16.057 11.8535 16.3499 11.5607L16.8803 11.0303C17.1732 10.7374 17.1732 10.2626 16.8803 9.96966Z" fill="black"/>
<path d="M16.35 12.4697C16.0571 12.1768 15.5822 12.1768 15.2893 12.4697C14.9964 12.7626 14.9964 13.2374 15.2893 13.5303L15.8197 14.0607C16.1126 14.3535 16.5874 14.3535 16.8803 14.0607C17.1732 13.7678 17.1732 13.2929 16.8803 13L16.35 12.4697Z" fill="black"/>
<path fill-rule="evenodd" clip-rule="evenodd" d="M19.8603 10.7069C19.8227 10.5355 19.7777 10.3668 19.7257 10.2012C19.8939 10.1207 20.01 9.9489 20.01 9.75C20.01 9.47386 19.7862 9.25 19.51 9.25C19.4533 9.25 19.3987 9.25946 19.3479 9.27688C19.2708 9.12586 19.1876 8.97855 19.0985 8.83526C19.9248 8.34077 20.3751 7.52416 20.5282 7.06875C20.7042 6.54527 20.4226 5.9782 19.8991 5.80217C19.3756 5.62614 18.8086 5.9078 18.6325 6.43128C18.5956 6.54103 18.4778 6.77047 18.2771 6.95928C18.1139 7.11289 17.9164 7.22326 17.6607 7.24578C17.6062 7.20372 17.5509 7.16259 17.4949 7.1224C17.5048 7.08323 17.51 7.04223 17.51 7C17.51 6.72386 17.2862 6.5 17.01 6.5C16.8815 6.5 16.7643 6.54849 16.6757 6.62818C16.5541 6.56748 16.4301 6.51078 16.3039 6.45826C16.3658 6.14149 16.3908 5.82239 16.3606 5.52226C16.3304 5.22253 16.2354 4.84682 15.9671 4.52937C15.6686 4.17607 15.2467 4.00334 14.8021 4.00331C14.248 4.00326 13.7971 4.44947 13.795 4.99993C13.7934 5.3963 14.025 5.73865 14.3616 5.89928C14.3585 5.93335 14.3538 5.97029 14.3476 6.0099C14.2325 6.00333 14.1167 6 14 6C13.1716 6 12.5 6.67157 12.5 7.5V16.5C12.5 17.3234 13.1634 17.9918 13.9848 17.9999C14.1268 18.674 14.4273 19.1936 14.8888 19.5453C15.489 20.0028 16.1588 20.0008 16.3805 20.0001L16.4026 20C16.9549 20 17.4026 19.5523 17.4026 19C17.4026 18.4477 16.9549 18 16.4026 18C16.1957 18 16.1354 17.9808 16.1012 17.9547C16.0936 17.9489 16.0486 17.9147 16 17.7908C15.9872 17.758 15.974 17.7187 15.9614 17.6721C16.2689 17.5658 16.565 17.4352 16.8475 17.2826C16.9376 17.4139 17.0887 17.5 17.26 17.5C17.5362 17.5 17.76 17.2761 17.76 17C17.76 16.903 17.7324 16.8124 17.6846 16.7358C17.8526 16.6048 18.0135 16.4651 18.1665 16.3174C18.5761 16.7519 19.0685 17.0077 19.5334 17.1441C20.1463 17.3239 20.7425 17.3086 21.1465 17.2266C21.689 17.1166 22.0373 16.5901 21.9245 16.0508C21.8117 15.5114 21.2804 15.1634 20.7379 15.2734C20.6211 15.2971 20.3603 15.3104 20.095 15.2325C19.8523 15.1613 19.6397 15.0267 19.4909 14.7713C19.4618 14.7214 19.4292 14.675 19.3933 14.6321C19.4593 14.4972 19.5204 14.3594 19.5763 14.219C19.6304 14.239 19.6889 14.25 19.75 14.25C20.0261 14.25 20.25 14.0261 20.25 13.75C20.25 13.514 20.0865 13.3163 19.8667 13.2637C19.9054 13.0833 19.9359 12.8998 19.958 12.7138C20.1244 12.7138 20.2886 12.6958 20.4504 12.6599C21.039 12.5293 21.4439 12.1882 21.6632 11.9954C22.079 11.6299 22.1191 10.9999 21.7528 10.5883C21.3865 10.1767 20.7525 10.1392 20.3368 10.5047C20.1583 10.6615 20.0786 10.7016 20.0199 10.7146C20.0067 10.7175 19.9574 10.7285 19.8603 10.7069ZM18 12C18 9.96019 16.4732 8.277 14.5 8.03095V15.9691C16.4732 15.723 18 14.0398 18 12Z" fill="black"/>
</svg>
