<svg width="24" height="24" viewBox="0 0 24 24" fill="none" xmlns="http://www.w3.org/2000/svg">
<path d="M12.3692 2.27869C12.1089 1.95649 11.6367 1.90632 11.3145 2.16663C10.9923 2.42695 10.9421 2.89916 11.2024 3.22136L11.6633 3.79181L10.9874 3.89221C10.7707 3.92439 10.519 4.04558 10.3662 4.30209C10.194 4.59116 10.2108 4.96361 10.434 5.23996L11.6309 6.72136C11.8912 7.04356 12.3634 7.09373 12.6856 6.83342C13.0078 6.57311 13.058 6.10089 12.7977 5.77869L12.3368 5.20824L13.0127 5.10784C13.2294 5.07566 13.4811 4.95447 13.6339 4.69796C13.8061 4.40889 13.7893 4.03644 13.5661 3.7601L12.3692 2.27869Z" fill="black"/>
<path d="M14.0001 9.5C14.0001 10.6046 13.1046 11.5 12.0001 11.5C10.8955 11.5 10.0001 10.6046 10.0001 9.5C10.0001 8.39543 10.8955 7.5 12.0001 7.5C13.1046 7.5 14.0001 8.39543 14.0001 9.5Z" fill="black"/>
<path d="M8.35119 8.5637C8.86831 8.75762 9.13031 9.33403 8.93639 9.85115L8.04478 12.2288L9.33566 12.0136C9.4604 11.9928 9.58359 11.9961 9.70049 12.02L9.82732 12.0327C9.94163 12.0442 10.0531 12.0752 10.1569 12.1245L11.1419 12.5924C11.685 12.8503 12.3152 12.8503 12.8582 12.5924L13.8432 12.1245C13.947 12.0752 14.0585 12.0442 14.1728 12.0327L14.2996 12.02C14.4165 11.9961 14.5397 11.9928 14.6645 12.0136L15.9553 12.2288L15.0637 9.85115C14.8698 9.33403 15.1318 8.75762 15.6489 8.5637C16.1661 8.36978 16.7425 8.63178 16.9364 9.1489L18.3755 12.9867C18.6729 13.7797 18.0002 14.5972 17.1647 14.4579L15.0001 14.0972V16.4648L16.4997 17.4646C16.8666 17.7092 17.052 18.1492 16.9707 18.5826L16.4829 21.1843C16.3811 21.7271 15.8586 22.0846 15.3158 21.9829C14.7729 21.8811 14.4154 21.3585 14.5172 20.8157L14.8953 18.799L13.5001 18.5C12.5059 18.3467 11.4942 18.3467 10.5001 18.5L9.10481 18.799L9.48295 20.8157C9.58473 21.3585 9.22719 21.8811 8.68436 21.9829C8.14154 22.0846 7.61898 21.7271 7.5172 21.1843L7.02938 18.5826C6.94813 18.1492 7.1335 17.7092 7.50037 17.4646L9.00006 16.4648V14.0972L6.83537 14.4579C5.99996 14.5972 5.32719 13.7797 5.62457 12.9867L7.06373 9.1489C7.25765 8.63178 7.83407 8.36978 8.35119 8.5637Z" fill="black"/>
<path d="M6.18237 2.31713C6.4472 1.99863 6.92007 1.95512 7.23857 2.21994L8.83284 3.54551C9.08678 3.75665 9.18207 4.07988 9.11662 4.37442C9.05409 4.65578 8.86002 4.86699 8.62833 4.97322L7.89178 5.31098L8.68769 5.97275C9.00619 6.23757 9.04971 6.71045 8.78489 7.02895C8.52007 7.34745 8.04719 7.39096 7.72869 7.12614L6.13442 5.80057C5.88048 5.58943 5.78519 5.2662 5.85065 4.97166C5.91317 4.6903 6.10724 4.47909 6.33893 4.37286L7.07548 4.0351L6.27957 3.37333C5.96107 3.10851 5.91755 2.63563 6.18237 2.31713Z" fill="black"/>
<path d="M16.7615 2.21994C17.08 1.95512 17.5529 1.99863 17.8177 2.31713C18.0826 2.63563 18.0391 3.10851 17.7206 3.37333L16.9246 4.0351L17.6612 4.37286C17.8929 4.47909 18.087 4.6903 18.1495 4.97166C18.2149 5.2662 18.1196 5.58943 17.8657 5.80057L16.2714 7.12614C15.9529 7.39096 15.4801 7.34745 15.2152 7.02895C14.9504 6.71045 14.9939 6.23757 15.3124 5.97275L16.1083 5.31098L15.3718 4.97322C15.1401 4.86699 14.946 4.65578 14.8835 4.37442C14.8181 4.07988 14.9133 3.75665 15.1673 3.54551L16.7615 2.21994Z" fill="black"/>
</svg>
