<svg width="24" height="24" viewBox="0 0 24 24" fill="none" xmlns="http://www.w3.org/2000/svg">
<path d="M9.97041 4C9.97041 3.44772 9.5227 3 8.97041 3C8.41813 3 7.97041 3.44772 7.97041 4V5.07895L6.96053 5.07895C4.77319 5.07895 3 6.85214 3 9.03947C3 10.2229 3.51906 11.2851 4.34193 12.0109C3.51861 12.7435 3 13.8112 3 15V15.1523C3 17.3615 4.79086 19.1523 7 19.1523H8V20C8 20.5523 8.44772 21 9 21C9.55228 21 10 20.5523 10 20V19.1523C10 18.0478 9.10457 17.1523 8 17.1523H7C5.89543 17.1523 5 16.2569 5 15.1523V15C5 13.8954 5.89543 13 7 13H10C10.5523 13 11 12.5523 11 12C11 11.4477 10.5523 11 10 11H6.96053C5.87776 11 5 10.1222 5 9.03947C5 7.95671 5.87776 7.07895 6.96053 7.07895H7.97041C9.07498 7.07895 9.97041 6.18352 9.97041 5.07895V4Z" fill="black"/>
<path d="M12 3C12.5523 3 13 3.44772 13 4V6C13 6.8933 12.7072 7.71821 12.2123 8.38397C13.5648 9.02554 14.5 10.4036 14.5 12C14.5 13.6367 13.517 15.0438 12.1093 15.6631C12.6495 16.3459 12.9717 17.2092 12.9706 18.1477L12.9685 19.9957C12.9679 20.548 12.5197 20.9952 11.9674 20.9946C11.4151 20.9939 10.9679 20.5457 10.9685 19.9934L10.9706 18.1454C10.9719 17.039 10.0747 16.1418 8.96829 16.1431L8.01032 16.1443C7.45803 16.1449 7.00979 15.6977 7.00914 15.1454L7.00917 15.136C7.00312 15.0915 7 15.0461 7 15C7 14.4477 7.44772 14 8 14H10.5C11.6046 14 12.5 13.1046 12.5 12C12.5 10.8954 11.6046 10 10.5 10H8C7.44772 10 7 9.55228 7 9C7 8.44772 7.44772 8 8 8H9C10.1046 8 11 7.10457 11 6V4C11 3.44772 11.4477 3 12 3Z" fill="black"/>
<path d="M14.6227 4.55264C14.2647 4.76101 14.1434 5.22014 14.3518 5.57812C14.5602 5.93611 15.0193 6.05739 15.3773 5.84902L16.7915 5.02586L17.0408 6.6229C17.144 7.28364 17.8794 7.63379 18.4574 7.29738L20.5674 6.06917C20.9254 5.8608 21.0467 5.40167 20.8383 5.04369C20.6299 4.6857 20.1708 4.56442 19.8128 4.77279L18.3987 5.59595L18.1493 3.99891C18.0461 3.33817 17.3107 2.98802 16.7328 3.32443L14.6227 4.55264Z" fill="black"/>
<path d="M15.7562 10.4357C15.7032 10.0249 15.9932 9.64893 16.4041 9.59594L18.7325 9.29556C19.3909 9.21063 19.9312 9.80992 19.7787 10.456L19.4064 12.0331L20.9466 11.8344C21.3574 11.7814 21.7334 12.0714 21.7864 12.4822C21.8394 12.8931 21.5493 13.269 21.1385 13.322L18.8101 13.6224C18.1517 13.7073 17.6114 13.108 17.7639 12.462L18.1362 10.8849L16.596 11.0836C16.1852 11.1366 15.8092 10.8465 15.7562 10.4357Z" fill="black"/>
<path d="M15.8365 14.9041C15.4326 14.8121 15.0306 15.065 14.9387 15.4688C14.8467 15.8727 15.0995 16.2747 15.5034 16.3666L17.3976 16.798L16.4397 18.0847C16.0297 18.6354 16.3214 19.4258 16.9908 19.5783L19.7081 20.1971C20.112 20.289 20.514 20.0362 20.6059 19.6323C20.6979 19.2284 20.4451 18.8265 20.0412 18.7345L18.1471 18.3032L19.1049 17.0164C19.5149 16.4657 19.2232 15.6753 18.5538 15.5229L15.8365 14.9041Z" fill="black"/>
</svg>
