<svg width="24" height="24" viewBox="0 0 24 24" fill="none" xmlns="http://www.w3.org/2000/svg">
<path d="M13 5C13 4.44772 12.5523 4 12 4C11.4477 4 11 4.44772 11 5L11 9.58579L8.7929 11.7929C8.40237 12.1834 8.40237 12.8166 8.7929 13.2071C9.18342 13.5976 9.81659 13.5976 10.2071 13.2071L12 11.4142L13.7929 13.2071C14.1834 13.5976 14.8166 13.5976 15.2071 13.2071C15.5976 12.8166 15.5976 12.1834 15.2071 11.7929L13 9.58579L13 5Z" fill="black"/>
<path d="M7 7C6.67705 7 6.37398 7.15597 6.18627 7.41876C4.81669 9.33618 3.86956 11.0123 3.21549 12.8291C2.5624 14.6433 2.21852 16.5509 2.00411 18.9095C1.97877 19.1882 2.07138 19.4647 2.25942 19.672C2.44747 19.8792 2.71375 19.9982 2.99359 20L3.09346 20.0006C4.31924 20.0086 5.41227 20.0158 6.43705 19.8119C7.53808 19.5928 8.53221 19.1403 9.61826 18.286C9.85929 18.0964 10 17.8067 10 17.5V15.5C10 14.9477 9.55229 14.5 9 14.5C8.44772 14.5 8 14.9477 8 15.5V16.9972C7.30316 17.4817 6.69456 17.7215 6.04679 17.8503C5.48199 17.9627 4.87394 17.9953 4.10902 18.0019C4.31582 16.2548 4.61861 14.8362 5.09727 13.5066C5.42479 12.5968 5.84021 11.7133 6.37862 10.7836C6.54926 10.9191 6.76518 11 7 11C7.55229 11 8 10.5523 8 10C8 9.60818 7.77465 9.26899 7.44649 9.10497L7.51896 9H8.13379C8.30669 9.2989 8.62986 9.5 9 9.5C9.55229 9.5 10 9.05228 10 8.5V8C10 7.73478 9.89465 7.48043 9.70711 7.29289C9.51957 7.10536 9.26522 7 9 7H7Z" fill="black"/>
<path d="M17 7C17.323 7 17.626 7.15597 17.8137 7.41876C19.1833 9.33618 20.1305 11.0123 20.7845 12.8291C21.4376 14.6433 21.7815 16.5509 21.9959 18.9095C22.0212 19.1882 21.9286 19.4647 21.7406 19.672C21.5525 19.8792 21.2863 19.9982 21.0064 20L20.9065 20.0006C19.6808 20.0086 18.5877 20.0158 17.563 19.8119C16.4619 19.5928 15.4678 19.1403 14.3818 18.286C14.1407 18.0964 14 17.8067 14 17.5V15.5C14 14.9477 14.4477 14.5 15 14.5C15.5523 14.5 16 14.9477 16 15.5V16.9972C16.6968 17.4817 17.3054 17.7215 17.9532 17.8503C18.518 17.9627 19.1261 17.9953 19.891 18.0019C19.6842 16.2548 19.3814 14.8362 18.9027 13.5066C18.5752 12.5968 18.1598 11.7133 17.6214 10.7836C17.4508 10.9191 17.2348 11 17 11C16.4477 11 16 10.5523 16 10C16 9.60818 16.2254 9.26899 16.5535 9.10497C16.5295 9.07009 16.5054 9.0351 16.481 9H15.8662C15.6933 9.2989 15.3701 9.5 15 9.5C14.4477 9.5 14 9.05228 14 8.5V8C14 7.73478 14.1054 7.48043 14.2929 7.29289C14.4804 7.10536 14.7348 7 15 7H17Z" fill="black"/>
<path d="M7 16C7 16.5523 6.55229 17 6 17C5.44772 17 5 16.5523 5 16C5 15.4477 5.44772 15 6 15C6.55229 15 7 15.4477 7 16Z" fill="black"/>
<path d="M7 14C7.55229 14 8 13.5523 8 13C8 12.4477 7.55229 12 7 12C6.44772 12 6 12.4477 6 13C6 13.5523 6.44772 14 7 14Z" fill="black"/>
<path d="M18 17C17.4477 17 17 16.5523 17 16C17 15.4477 17.4477 15 18 15C18.5523 15 19 15.4477 19 16C19 16.5523 18.5523 17 18 17Z" fill="black"/>
<path d="M16 13C16 13.5523 16.4477 14 17 14C17.5523 14 18 13.5523 18 13C18 12.4477 17.5523 12 17 12C16.4477 12 16 12.4477 16 13Z" fill="black"/>
</svg>
