<svg width="24" height="24" viewBox="0 0 24 24" fill="none" xmlns="http://www.w3.org/2000/svg">
<path fill-rule="evenodd" clip-rule="evenodd" d="M10.75 3.51672C9.91084 3.51029 9.41852 4.10119 9.41852 4.83464C9.41852 4.89716 9.42329 4.96088 9.43256 5.02456C9.84913 4.88135 10.2838 4.81287 10.7093 4.81287L13.5231 4.81288C13.9679 4.81288 14.402 4.89651 14.805 5.04186C14.957 4.29631 14.426 3.51684 13.5694 3.51676L10.7565 3.51675L10.75 3.51672ZM10.7587 2.00008L13.5695 2.00009C14.7627 2.0002 15.6358 2.67235 16.0505 3.5652L17.3072 5.23388L17.3083 5.23536C18.5351 6.84935 18.5354 9.10044 17.3092 10.7147L17.3039 10.7216L14.8766 13.8419L19 19.1269L15.7961 22L12.114 17.3249L8.44436 21.9842L5 19.3857L9.35419 13.8375L6.92217 10.7653L6.91747 10.7591C5.69279 9.145 5.69357 6.89517 6.91981 5.28187L8.17991 3.6088L8.18088 3.61395C8.60263 2.67423 9.51905 1.9917 10.7587 2.00008ZM7.6524 7.06046C7.34222 7.98143 7.49088 9.02363 8.09838 9.82839L13.1018 16.1489L15.9833 19.8075L16.9486 18.9419L13.5881 14.6348L11.1247 11.5337L7.78718 7.24065C7.74017 7.18175 7.69525 7.12163 7.6524 7.06046ZM9.32127 6.76419L12.096 10.3333L14.8754 6.75829L14.7674 6.69267C14.3916 6.46443 13.9535 6.32955 13.5231 6.32955L10.7093 6.32954C10.2609 6.32954 9.81453 6.44979 9.44556 6.68497L9.32127 6.76419ZM16.576 7.01448C16.533 7.07543 16.488 7.13538 16.441 7.19422L13.7031 10.7159L14.5621 11.7973L16.1268 9.78588C16.7367 8.98072 16.8864 7.93684 16.576 7.01448ZM9.66408 15.8782L7.13242 19.1041L8.1776 19.8926L10.5039 16.939L9.66408 15.8782Z" fill="black"/>
</svg>
