<svg width="24" height="24" viewBox="0 0 24 24" fill="none" xmlns="http://www.w3.org/2000/svg">
<path d="M14.5001 4.5C14.5001 5.88071 13.3808 7 12.0001 7C10.6194 7 9.50007 5.88071 9.50007 4.5C9.50007 3.11929 10.6194 2 12.0001 2C13.3808 2 14.5001 3.11929 14.5001 4.5Z" fill="black"/>
<path fill-rule="evenodd" clip-rule="evenodd" d="M9.02028 8C8.11504 8 7.30966 8.61106 7.09077 9.50961C6.8412 10.5342 6.39792 12.4716 6.25504 13.9005C6.20008 14.45 6.60103 14.9401 7.15057 14.995C7.70011 15.05 8.19016 14.649 8.24511 14.0995C8.36688 12.8818 8.74766 11.1706 9.00008 10.1228L9.00007 20.9289C9.00007 21.5205 9.47961 22 10.0711 22C10.6042 22 11.0561 21.6081 11.1314 21.0804L11.8572 16H12.1429L12.8687 21.0804C12.9441 21.6081 13.396 22 13.929 22C14.5205 22 15.0001 21.5205 15.0001 20.9289L15.0001 10.1228C15.2525 11.1706 15.6333 12.8818 15.755 14.0995C15.81 14.649 16.3 15.05 16.8496 14.995C17.3991 14.9401 17.8001 14.45 17.7451 13.9005C17.6022 12.4716 17.159 10.5342 16.9094 9.50961C16.6905 8.61106 15.8851 8 14.9799 8H9.02028ZM11.3751 9.74207L10.9993 10.1702L10.9977 10.172L10.9953 10.1748L10.9878 10.1836C10.9816 10.1908 10.9733 10.2006 10.963 10.213C10.9426 10.2377 10.9144 10.2725 10.8811 10.3158C10.8149 10.4019 10.7264 10.524 10.6371 10.6686C10.4715 10.9369 10.2501 11.3661 10.2501 11.8132C10.2501 12.4232 10.7104 13.0001 11.3751 13.0001C12.0397 13.0001 12.5001 12.4232 12.5001 11.8132C12.5001 11.3661 12.2786 10.9369 12.113 10.6686C12.0238 10.524 11.9352 10.4019 11.869 10.3158C11.8357 10.2725 11.8075 10.2377 11.7871 10.213C11.7768 10.2006 11.7685 10.1908 11.7624 10.1836L11.7548 10.1748L11.7524 10.172L11.7509 10.1702L11.3751 9.74207Z" fill="black"/>
<path d="M17.8751 5.24207L17.4993 5.67022L17.4977 5.67198L17.4953 5.6748L17.4878 5.68355C17.4816 5.69074 17.4733 5.70062 17.463 5.71299C17.4426 5.73769 17.4144 5.77251 17.3811 5.81579C17.3149 5.90184 17.2264 6.02396 17.1371 6.16861C16.9715 6.43692 16.7501 6.86609 16.7501 7.31317C16.7501 7.9232 17.2104 8.50004 17.8751 8.50004C18.5397 8.50004 19.0001 7.9232 19.0001 7.31317C19.0001 6.86609 18.7786 6.43692 18.613 6.16861C18.5238 6.02396 18.4352 5.90184 18.369 5.81579C18.3357 5.77251 18.3075 5.73769 18.2871 5.71299C18.2768 5.70062 18.2685 5.69074 18.2624 5.68355L18.2548 5.6748L18.2524 5.67198L18.2509 5.67022L17.8751 5.24207Z" fill="black"/>
<path d="M16.1251 2.09741L15.8182 2.53452L15.8172 2.53587L15.8157 2.53802L15.8112 2.54463L15.7963 2.56679C15.784 2.58537 15.7671 2.61149 15.7471 2.64393C15.7074 2.70848 15.6545 2.79968 15.6013 2.90737C15.5007 3.11115 15.3751 3.42095 15.3751 3.73485C15.3751 3.94784 15.4374 4.15587 15.5567 4.31982C15.6758 4.48342 15.8721 4.62501 16.1251 4.62501C16.378 4.62501 16.5743 4.48342 16.6934 4.31982C16.8128 4.15587 16.8751 3.94784 16.8751 3.73485C16.8751 3.42095 16.7494 3.11115 16.6488 2.90737C16.5956 2.79968 16.5427 2.70848 16.503 2.64393C16.483 2.61149 16.4661 2.58537 16.4538 2.56679L16.4389 2.54463L16.4344 2.53802L16.4329 2.53587L16.432 2.53452L16.1251 2.09741Z" fill="black"/>
</svg>
