<svg width="24" height="24" viewBox="0 0 24 24" fill="none" xmlns="http://www.w3.org/2000/svg">
<path d="M17.5 18.25C18.0523 18.25 18.5 17.8023 18.5 17.25C18.5 16.6977 18.0523 16.25 17.5 16.25C16.9477 16.25 16.5 16.6977 16.5 17.25C16.5 17.8023 16.9477 18.25 17.5 18.25Z" fill="black"/>
<path d="M18.25 13.75C18.25 14.4404 17.6904 15 17 15C16.3096 15 15.75 14.4404 15.75 13.75C15.75 13.0596 16.3096 12.5 17 12.5C17.6904 12.5 18.25 13.0596 18.25 13.75Z" fill="black"/>
<path fill-rule="evenodd" clip-rule="evenodd" d="M13.1987 12.3088C13.0109 11.7453 13.0003 11.0447 13 10.5245L13 2H11L11 10.5245C10.9997 11.0447 10.9891 11.7453 10.8013 12.3088C10.7099 12.5831 10.5989 12.7513 10.4919 12.8463C10.4055 12.9231 10.2714 13 10 13L10 13.5133C10 11.1126 9.55426 9.70082 8.86497 8.88867C8.11969 8.01055 7.23765 8 6.93561 8C6.4784 8 6.07194 8.18638 5.76405 8.39164C5.4459 8.60375 5.16051 8.8835 4.9284 9.18184C4.17722 10.1474 3.70086 11.319 3.35905 12.4174C3.12542 13.1681 2.93885 13.9439 2.778 14.6127C2.70702 14.9079 2.64104 15.1822 2.57824 15.4244C2.35274 16.2939 2.16393 17.1919 2.0682 17.989C1.97731 18.7458 1.95083 19.5495 2.15753 20.147C2.37508 20.7759 2.7254 21.2786 3.22941 21.6053C3.7303 21.9299 4.28975 22.0202 4.81379 21.9964C5.81089 21.9511 6.89002 21.4778 7.75692 21.0599C8.67827 20.6158 9.22812 19.7585 9.54218 19.0077C9.86055 18.2465 10.0001 17.4455 10 16.9057L10 15C10.7286 15 11.3445 14.7644 11.8206 14.3412C11.884 14.2848 11.9438 14.2262 12 14.1658C12.0562 14.2262 12.116 14.2848 12.1794 14.3412C12.6555 14.7644 13.2714 15 14 15V16.9057C13.9999 17.4455 14.1394 18.2465 14.4578 19.0077C14.7719 19.7585 15.3217 20.6158 16.2431 21.0599C17.11 21.4778 18.1891 21.9511 19.1862 21.9964C19.7102 22.0202 20.2697 21.9299 20.7706 21.6053C21.2746 21.2786 21.6249 20.7759 21.8425 20.147C22.0492 19.5495 22.0227 18.7458 21.9318 17.989C21.8361 17.1919 21.6473 16.2939 21.4218 15.4244C21.359 15.1822 21.293 14.9079 21.222 14.6127C21.0612 13.9439 20.8746 13.1681 20.6409 12.4174C20.2991 11.319 19.8228 10.1474 19.0716 9.18184C18.8395 8.8835 18.5541 8.60375 18.2359 8.39164C17.9281 8.18638 17.5216 8 17.0644 8C16.7624 8 15.8803 8.01055 15.135 8.88867C14.4457 9.70082 14 11.1126 14 13.5133V13C13.7286 13 13.5945 12.9231 13.5081 12.8463C13.4011 12.7513 13.2901 12.5831 13.1987 12.3088ZM6.30345 10.2115C6.44299 10.0322 6.59749 9.88786 6.73629 9.79532C6.85673 9.71503 6.92397 9.70036 6.93622 9.69769L6.94973 9.69707C7.08808 9.69673 7.29935 9.6962 7.53565 9.97461C7.83612 10.3286 8.27017 11.2492 8.27017 13.5133V16.906C8.27023 17.2143 8.17884 17.7968 7.94185 18.3634C7.70053 18.9404 7.37052 19.3553 6.99409 19.5368C6.10156 19.967 5.32455 20.2743 4.73371 20.3011C4.46377 20.3134 4.2963 20.2627 4.18292 20.1893C4.07266 20.1178 3.92137 19.9652 3.79558 19.6016C3.72395 19.3945 3.69747 18.9259 3.78614 18.1876C3.86996 17.4897 4.04026 16.6696 4.25466 15.8428C4.33142 15.5468 4.40457 15.2422 4.47954 14.9299C4.63389 14.287 4.79602 13.6117 5.01348 12.9129C5.33152 11.891 5.73495 10.9422 6.30345 10.2115ZM17.2637 9.79532C17.4025 9.88786 17.557 10.0322 17.6965 10.2115C17.77 10.306 17.8407 10.4041 17.9089 10.5055C17.5376 10.5504 17.25 10.8666 17.25 11.25C17.25 11.6642 17.5858 12 18 12C18.225 12 18.4268 11.9009 18.5643 11.744C18.7217 12.1163 18.8608 12.5089 18.9865 12.9129C19.188 13.5605 19.342 14.1879 19.4864 14.788C19.4121 14.7634 19.3326 14.75 19.25 14.75C18.8358 14.75 18.5 15.0858 18.5 15.5C18.5 15.9142 18.8358 16.25 19.25 16.25C19.4624 16.25 19.6541 16.1617 19.7906 16.0199C19.9836 16.7861 20.136 17.5395 20.2139 18.1876C20.3025 18.9259 20.2761 19.3945 20.2044 19.6016C20.0786 19.9652 19.9273 20.1178 19.8171 20.1893C19.7037 20.2627 19.5362 20.3134 19.2663 20.3011C18.6754 20.2743 17.8984 19.967 17.0059 19.5368C16.6295 19.3553 16.2995 18.9404 16.0581 18.3634C15.8212 17.7968 15.7298 17.2143 15.7298 16.906V13.5133C15.7298 11.2492 16.1639 10.3286 16.4644 9.97461C16.7007 9.6962 16.9119 9.69673 17.0503 9.69707L17.0644 9.6971C17.0766 9.69977 17.1433 9.71503 17.2637 9.79532Z" fill="black"/>
</svg>
