<svg width="24" height="24" viewBox="0 0 24 24" fill="none" xmlns="http://www.w3.org/2000/svg">
<path d="M12.0001 6C11.4501 6 10.9793 5.80417 10.5876 5.4125C10.1959 5.02083 10.0001 4.55 10.0001 4C10.0001 3.45 10.1959 2.97917 10.5876 2.5875C10.9793 2.19583 11.4501 2 12.0001 2C12.5501 2 13.0209 2.19583 13.4126 2.5875C13.8043 2.97917 14.0001 3.45 14.0001 4C14.0001 4.55 13.8043 5.02083 13.4126 5.4125C13.0209 5.80417 12.5501 6 12.0001 6Z" fill="black"/>
<path d="M8.17508 8.075C8.52508 7.725 8.91675 7.45833 9.35008 7.275C9.78342 7.09167 10.2501 7 10.7501 7H13.2501C13.7501 7 14.2168 7.09167 14.6501 7.275C15.0834 7.45833 15.4751 7.725 15.8251 8.075L19.3558 11.6057L17.9501 13L15.0001 10.05L14.0001 9L13.5847 9.83078C12.952 11.0961 13.2892 12.6313 14.3939 13.515L15.0001 14V22H13.0001L13.0001 15H11.0001L11.0001 22H9.00008V14L9.60629 13.515C10.7109 12.6313 11.0481 11.0961 10.4155 9.83081L10.0001 9L9.00008 10.05L6.00008 13.05L4.62451 11.6256L8.17508 8.075Z" fill="black"/>
</svg>
