<svg width="24" height="24" viewBox="0 0 24 24" fill="none" xmlns="http://www.w3.org/2000/svg">
<path d="M8.50001 10.75C8.50001 10.4739 8.27615 10.25 8.00001 10.25C7.72386 10.25 7.50001 10.4739 7.50001 10.75V13.25C7.50001 13.5262 7.72386 13.75 8.00001 13.75C8.27615 13.75 8.50001 13.5262 8.50001 13.25V12.5H9.16667V13.25C9.16667 13.5262 9.39053 13.75 9.66667 13.75C9.94282 13.75 10.1667 13.5262 10.1667 13.25V10.75C10.1667 10.4739 9.94282 10.25 9.66667 10.25C9.39053 10.25 9.16667 10.4739 9.16667 10.75V11.5H8.50001V10.75Z" fill="black"/>
<path d="M15.0417 13.75C15.2435 13.75 15.4256 13.6286 15.5032 13.4423L16.5449 10.9423C16.6511 10.6874 16.5305 10.3947 16.2756 10.2885C16.0207 10.1823 15.728 10.3028 15.6218 10.5577L15.0417 11.95L14.4615 10.5577C14.3553 10.3028 14.0626 10.1823 13.8077 10.2885C13.5528 10.3947 13.4323 10.6874 13.5385 10.9423L14.5801 13.4423C14.6578 13.6286 14.8398 13.75 15.0417 13.75Z" fill="black"/>
<path d="M11 10.25C10.7239 10.25 10.5 10.4739 10.5 10.75C10.5 11.0262 10.7239 11.25 11 11.25H11.3333V12.75H11C10.7239 12.75 10.5 12.9739 10.5 13.25C10.5 13.5262 10.7239 13.75 11 13.75H12.6667C12.9428 13.75 13.1667 13.5262 13.1667 13.25C13.1667 12.9739 12.9428 12.75 12.6667 12.75H12.3333V11.25H12.6667C12.9428 11.25 13.1667 11.0262 13.1667 10.75C13.1667 10.4739 12.9428 10.25 12.6667 10.25H11Z" fill="black"/>
<path fill-rule="evenodd" clip-rule="evenodd" d="M9.50001 3C9.50001 2.44772 9.94772 2 10.5 2H13.5C14.0523 2 14.5 2.44772 14.5 3C14.5 3.55228 14.0523 4 13.5 4H13L13 5.07089C14.9201 5.34553 16.5887 6.39934 17.6755 7.90174L18.7826 7.26257L18.5326 6.8296C18.2565 6.35131 18.4204 5.73972 18.8987 5.46357C19.3769 5.18743 19.9885 5.35131 20.2647 5.8296L21.7647 8.42768C22.0408 8.90597 21.8769 9.51756 21.3987 9.7937C20.9204 10.0698 20.3088 9.90597 20.0326 9.42768L19.7826 8.99462L18.6046 9.67476C18.8607 10.4023 19 11.1849 19 12C19 12.7735 18.8746 13.5177 18.6429 14.2133L19.8044 14.8839L20.0544 14.4509C20.3305 13.9726 20.9421 13.8088 21.4204 14.0849C21.8987 14.3611 22.0625 14.9726 21.7864 15.4509L20.2864 18.049C20.0103 18.5273 19.3987 18.6912 18.9204 18.415C18.4421 18.1389 18.2782 17.5273 18.5544 17.049L18.8044 16.616L17.7431 16.0032C16.6586 17.5561 14.9603 18.6487 13 18.9291L13 20H13.5C14.0523 20 14.5 20.4477 14.5 21C14.5 21.5523 14.0523 22 13.5 22H10.5C9.94772 22 9.50001 21.5523 9.50001 21C9.50001 20.4477 9.94772 20 10.5 20H11L11 18.9291C9.03837 18.6485 7.33909 17.5546 6.25469 16L5.18782 16.616L5.43785 17.049C5.71399 17.5273 5.55011 18.1389 5.07182 18.415C4.59353 18.6912 3.98194 18.5273 3.7058 18.049L2.2058 15.4509C1.92965 14.9726 2.09353 14.3611 2.57182 14.0849C3.05011 13.8088 3.66171 13.9726 3.93785 14.4509L4.18782 14.8839L5.35587 14.2095C5.12501 13.515 5.00001 12.7721 5.00001 12C5.00001 11.1863 5.13885 10.405 5.39415 9.67851L4.2096 8.99462L3.95958 9.42768C3.68343 9.90597 3.07184 10.0698 2.59355 9.7937C2.11526 9.51756 1.95138 8.90597 2.22753 8.42768L3.72753 5.8296C4.00367 5.35131 4.61526 5.18743 5.09355 5.46357C5.57184 5.73972 5.73572 6.35131 5.45958 6.8296L5.2096 7.26257L6.3222 7.90492C7.40891 6.40083 9.07861 5.34572 11 5.07089L11 4H10.5C9.94772 4 9.50001 3.55228 9.50001 3ZM17 12C17 14.7614 14.7614 17 12 17C9.23858 17 7.00001 14.7614 7.00001 12C7.00001 9.23858 9.23858 7 12 7C14.7614 7 17 9.23858 17 12Z" fill="black"/>
</svg>
