<svg width="24" height="24" viewBox="0 0 24 24" fill="none" xmlns="http://www.w3.org/2000/svg">
<path d="M8.62843 10.7501C8.62843 10.474 8.40286 10.2501 8.12462 10.2501C7.84637 10.2501 7.62081 10.474 7.62081 10.7501V13.2501C7.62081 13.5263 7.84637 13.7501 8.12462 13.7501C8.40286 13.7501 8.62843 13.5263 8.62843 13.2501V12.5001H9.30017V13.2501C9.30017 13.5263 9.52573 13.7501 9.80397 13.7501C10.0822 13.7501 10.3078 13.5263 10.3078 13.2501V10.7501C10.3078 10.474 10.0822 10.2501 9.80397 10.2501C9.52573 10.2501 9.30017 10.474 9.30017 10.7501V11.5001H8.62843V10.7501Z" fill="black"/>
<path fill-rule="evenodd" clip-rule="evenodd" d="M10.5681 10.7501C10.5681 10.474 10.7937 10.2501 11.0719 10.2501H12.1215C12.7475 10.2501 13.2551 10.7538 13.2551 11.3751C13.2551 11.9965 12.7475 12.5001 12.1215 12.5001H11.5757V13.2501C11.5757 13.5263 11.3501 13.7501 11.0719 13.7501C10.7937 13.7501 10.5681 13.5263 10.5681 13.2501V10.7501ZM11.5757 11.5001H12.1215C12.1911 11.5001 12.2474 11.4442 12.2474 11.3751C12.2474 11.3061 12.1911 11.2501 12.1215 11.2501H11.5757V11.5001Z" fill="black"/>
<path d="M15.3323 13.4424C15.2541 13.6288 15.0706 13.7501 14.8672 13.7501C14.6638 13.7501 14.4804 13.6288 14.4022 13.4424L13.3526 10.9424C13.2456 10.6875 13.367 10.3948 13.6239 10.2886C13.8807 10.1824 14.1757 10.3029 14.2827 10.5578L14.8672 11.9501L15.4518 10.5578C15.5588 10.3029 15.8538 10.1824 16.1106 10.2886C16.3674 10.3948 16.4889 10.6875 16.3819 10.9424L15.3323 13.4424Z" fill="black"/>
<path fill-rule="evenodd" clip-rule="evenodd" d="M9.4849 3C9.4849 2.44772 9.93603 2 10.4925 2H13.5154C14.0718 2 14.523 2.44772 14.523 3C14.523 3.55228 14.0718 4 13.5154 4H13.0115V5.07089C14.9462 5.34553 16.6276 6.39936 17.7227 7.90178L18.8382 7.26262L18.5863 6.82966C18.308 6.35137 18.4732 5.73978 18.9551 5.46363C19.437 5.18749 20.0533 5.35137 20.3315 5.82966L21.8429 8.42773C22.1212 8.90603 21.9561 9.51762 21.4741 9.79376C20.9922 10.0699 20.376 9.90603 20.0977 9.42773L19.8458 8.99468L18.6588 9.67481C18.9168 10.4023 19.0572 11.1849 19.0572 12C19.0572 12.7734 18.9308 13.5176 18.6974 14.2132L19.8677 14.8837L20.1196 14.4508C20.3978 13.9725 21.0141 13.8086 21.496 14.0847C21.978 14.3609 22.1431 14.9725 21.8648 15.4508L20.3534 18.0488C20.0752 18.5271 19.4589 18.691 18.977 18.4149C18.4951 18.1387 18.3299 17.5271 18.6082 17.0488L18.8601 16.6158L17.7908 16.0031C16.6981 17.5561 14.9868 18.6487 13.0115 18.9291V20H13.5154C14.0718 20 14.523 20.4477 14.523 21C14.523 21.5523 14.0718 22 13.5154 22H10.4925C9.93603 22 9.4849 21.5523 9.4849 21C9.4849 20.4477 9.93603 20 10.4925 20H10.9963V18.9291C9.0197 18.6485 7.30744 17.5546 6.21479 15.9999L5.13989 16.6158L5.39182 17.0488C5.67006 17.5271 5.50494 18.1387 5.02301 18.4149C4.54107 18.691 3.92483 18.5271 3.64658 18.0488L2.13516 15.4508C1.85692 14.9725 2.02204 14.3609 2.50397 14.0847C2.98591 13.8086 3.60216 13.9725 3.8804 14.4508L4.13228 14.8837L5.30917 14.2094C5.07658 13.5149 4.95065 12.772 4.95065 12C4.95065 11.1863 5.09054 10.405 5.34777 9.67856L4.15422 8.99468L3.90229 9.42773C3.62405 9.90603 3.0078 10.0699 2.52587 9.79376C2.04394 9.51762 1.87881 8.90603 2.15706 8.42773L3.66848 5.82966C3.94672 5.35137 4.56297 5.18749 5.0449 5.46363C5.52684 5.73978 5.69196 6.35137 5.41371 6.82966L5.16184 7.26262L6.28287 7.90496C7.37786 6.40084 9.06028 5.34573 10.9963 5.07089V4H10.4925C9.93603 4 9.4849 3.55228 9.4849 3ZM17.042 12C17.042 14.7614 14.7864 17 12.0039 17C9.22149 17 6.96587 14.7614 6.96587 12C6.96587 9.23858 9.22149 7 12.0039 7C14.7864 7 17.042 9.23858 17.042 12Z" fill="black"/>
</svg>
