<svg width="24" height="24" viewBox="0 0 24 24" fill="none" xmlns="http://www.w3.org/2000/svg">
<path d="M12.75 7.5C13.9926 7.5 15 6.49264 15 5.25C15 4.00736 13.9926 3 12.75 3C11.5073 3 10.5 4.00736 10.5 5.25C10.5 6.49264 11.5073 7.5 12.75 7.5Z" fill="black"/>
<path d="M7.63268 14.177L6.43061 12.5743L7.61471 11.3942C7.66101 11.8451 7.86004 12.2743 8.19009 12.6044L10.2929 14.7071C10.6834 15.0977 11.3166 15.0977 11.7071 14.7071C12.0976 14.3166 12.0976 13.6834 11.7071 13.2929L9.6043 11.1901L10.2477 8.54101C10.4708 7.92843 10.3368 7.21497 9.84525 6.72345C8.83133 5.70953 7.18743 5.70953 6.17351 6.72345L3.46323 9.43373C2.82092 10.076 2.70352 11.0524 3.12737 11.8168C3.72623 13.2606 4.73741 14.4996 6.03268 15.377L6.50494 20.0996C6.55989 20.6491 7.04994 21.05 7.59948 20.9951C8.14902 20.9401 8.54997 20.4501 8.49501 19.9006L8.02276 15.178C7.98646 14.815 7.85156 14.4688 7.63268 14.177Z" fill="black"/>
<path d="M21 19.75C21 20.4404 19.321 21 17.25 21C15.1789 21 13.5 20.4404 13.5 19.75C13.5 19.0596 15.1789 18.5 17.25 18.5C17.334 18.5 17.4173 18.5009 17.5 18.5027L17.5 18.5C17.5 17.9477 17.9477 17.5 18.5 17.5C19.0523 17.5 19.5 17.9477 19.5 18.5C19.5 18.5837 19.4897 18.6649 19.4703 18.7426C20.398 18.9701 21 19.3366 21 19.75Z" fill="black"/>
<path d="M17 12C17 12.5523 16.5523 13 16 13C15.4477 13 15 12.5523 15 12C15 11.4477 15.4477 11 16 11C16.5523 11 17 11.4477 17 12Z" fill="black"/>
<path d="M18.25 15.5C18.6642 15.5 19 15.1642 19 14.75C19 14.3358 18.6642 14 18.25 14C17.8358 14 17.5 14.3358 17.5 14.75C17.5 15.1642 17.8358 15.5 18.25 15.5Z" fill="black"/>
<path d="M16.5 16.25C16.5 16.6642 16.1642 17 15.75 17C15.3358 17 15 16.6642 15 16.25C15 15.8358 15.3358 15.5 15.75 15.5C16.1642 15.5 16.5 15.8358 16.5 16.25Z" fill="black"/>
<path d="M14.75 10C15.1642 10 15.5 9.66421 15.5 9.25C15.5 8.83579 15.1642 8.5 14.75 8.5C14.3358 8.5 14 8.83579 14 9.25C14 9.66421 14.3358 10 14.75 10Z" fill="black"/>
</svg>
