<svg width="48" height="48" viewBox="0 0 48 48" fill="none" xmlns="http://www.w3.org/2000/svg">
<g clip-path="url(#clip0)">
<path fill-rule="evenodd" clip-rule="evenodd" d="M48 0H0V48H48V0ZM9.5 6C7.84315 6 6.5 7.34314 6.5 9V39C6.5 40.6569 7.84314 42 9.5 42H39.5C41.1569 42 42.5 40.6569 42.5 39V9C42.5 7.34315 41.1569 6 39.5 6H9.5Z" fill="#333333"/>
<path fill-rule="evenodd" clip-rule="evenodd" d="M25.8947 10.5248C25.1975 10.3284 24.256 10.3208 23.2724 10.3208C22.0892 10.3208 21.3841 10.6265 20.9401 11.0076C20.4855 11.3978 20.1891 11.9663 20.014 12.6967C19.8377 13.4318 19.801 14.2624 19.8166 15.0918C19.8192 15.2301 19.8232 15.3667 19.828 15.5016H33.0438C33.5961 15.5016 34.0523 15.9527 33.9612 16.4974C33.326 20.294 29.1084 23.2275 24.0001 23.2275C18.8917 23.2275 14.6741 20.294 14.039 16.4974C13.9479 15.9527 14.4041 15.5016 14.9563 15.5016H17.8268C17.8227 15.3796 17.8193 15.2553 17.8169 15.1294C17.8002 14.2397 17.834 13.2107 18.0691 12.2303C18.3053 11.2452 18.761 10.2423 19.6374 9.49006C20.5244 8.7287 21.729 8.32082 23.2724 8.32082L23.3407 8.32081C24.2374 8.32062 25.4452 8.32037 26.4369 8.59971C26.9583 8.74658 27.5141 8.9943 27.9456 9.44076C28.4024 9.91345 28.6443 10.5312 28.6443 11.2523C28.6443 11.8046 28.1966 12.2523 27.6443 12.2523C27.092 12.2523 26.6443 11.8046 26.6443 11.2523C26.6443 11.0077 26.5755 10.9011 26.5074 10.8306C26.4139 10.7338 26.2304 10.6194 25.8947 10.5248ZM18.8193 37.452H17.8193V39.452H18.8193H29.1808H30.1808V37.452H29.1808H18.8193Z" fill="#333333"/>
<path fill-rule="evenodd" clip-rule="evenodd" d="M29.0835 20.292C30.3232 21.0634 30.8303 22.216 30.8303 23.4889C30.8303 24.7567 30.3282 25.9244 29.0969 26.7179C28.3157 27.2213 27.2866 27.5438 26 27.699V25.6816C26.9473 25.5447 27.5906 25.3092 28.0135 25.0367C28.6038 24.6563 28.8303 24.1642 28.8303 23.4889C28.8303 22.8188 28.6088 22.3522 28.0269 21.9901C27.3546 21.5718 26.1248 21.2505 24.0011 21.2505V19.2505C26.2493 19.2505 27.9341 19.5768 29.0835 20.292ZM22 25.8392V27.842C21.3388 27.8765 20.7559 27.9461 20.2731 28.0867C19.8301 28.2157 19.5692 28.3795 19.4197 28.5474C19.2884 28.6949 19.1719 28.9237 19.1719 29.3544C19.1719 29.7881 19.2889 30.0189 19.4208 30.1675C19.5706 30.3363 19.8314 30.5004 20.2739 30.6297C21.1909 30.8976 22.4693 30.9087 23.9597 30.9089L23.9731 30.9079C24.0113 30.9052 24.0636 30.902 24.128 30.8995C24.2563 30.8945 24.4346 30.892 24.6466 30.9009C25.0645 30.9185 25.6447 30.9817 26.2425 31.1769C26.84 31.3719 27.5049 31.7154 28.0225 32.3258C28.5539 32.9525 28.8633 33.7823 28.8633 34.8164C28.8633 35.8499 28.5538 36.6771 28.0077 37.2924C27.4769 37.8903 26.7979 38.2035 26.1962 38.3682C26.1305 38.3862 26.0651 38.4026 26 38.4175V36.3228C26.2096 36.2302 26.3819 36.1112 26.5119 35.9647C26.69 35.7641 26.8633 35.4299 26.8633 34.8164C26.8633 34.2037 26.6899 33.8466 26.4971 33.6193C26.2906 33.3758 25.9899 33.1983 25.6219 33.0781C25.2541 32.9581 24.8688 32.912 24.5625 32.8991C24.4125 32.8928 24.289 32.8947 24.2061 32.898C24.1648 32.8996 24.1342 32.9015 24.1159 32.9028L24.0981 32.9042L24.098 32.9042L24.0967 32.9043L24.0966 32.9043L24.051 32.9089H24.0011L23.9045 32.9089C22.5208 32.9091 20.9449 32.9093 19.7131 32.5495C19.0626 32.3594 18.4126 32.0446 17.9249 31.495C17.4192 30.9251 17.1719 30.1979 17.1719 29.3544C17.1719 28.512 17.4197 27.786 17.926 27.2175C18.414 26.6694 19.0639 26.3557 19.7139 26.1665C20.4 25.9667 21.1929 25.8783 22 25.8392Z" fill="#333333"/>
<path fill-rule="evenodd" clip-rule="evenodd" d="M23.0889 34.0001V38.2932H25.0889V34.0001H23.0889ZM23.0889 30.0001H25.0889V21.0232H23.0889V30.0001Z" fill="#333333"/>
</g>
<defs>
<clipPath id="clip0">
<rect width="48" height="48" fill="white"/>
</clipPath>
</defs>
</svg>
