<svg width="24" height="24" viewBox="0 0 24 24" fill="none" xmlns="http://www.w3.org/2000/svg">
<path d="M12.5 6.83909C12.7318 6.94958 12.9312 7.14175 13.0503 7.4156L13.2424 7.85757C13.274 7.93018 13.3046 8.00316 13.3342 8.07648L15.5 6.72288V4.75969L18.1877 2.60957C18.4033 2.43706 18.7179 2.47202 18.8904 2.68765C19.0629 2.90328 19.028 3.21793 18.8123 3.39043L16.5 5.24031V7.27712L13.665 9.04897C13.8868 9.84514 14 10.6696 14 11.5V12.7889C14 12.845 13.9988 12.901 13.9965 12.9569L17.6106 15.8481L16.6505 18.0659L18.7149 19.0485C18.9642 19.1672 19.0701 19.4655 18.9515 19.7149C18.8328 19.9642 18.5345 20.0701 18.2851 19.9515L15.3495 18.5542L16.3894 16.1519L13.7888 14.0714C13.6845 14.3796 13.5425 14.6753 13.3649 14.9516L15.102 16.3413L14.0563 18.9554L15.4287 21.2428C15.5708 21.4795 15.494 21.7867 15.2572 21.9287C15.0205 22.0708 14.7133 21.994 14.5713 21.7572L12.9437 19.0446L13.898 16.6587L12.8079 15.7866C12.41 16.3341 11.59 16.3341 11.1921 15.7866L10.102 16.6587L11.0563 19.0446L9.42875 21.7572C9.28667 21.994 8.97954 22.0708 8.74275 21.9287C8.50596 21.7867 8.42918 21.4795 8.57125 21.2428L9.94365 18.9554L8.898 16.3413L10.6346 14.952L10.5504 14.8255C10.3975 14.5962 10.275 14.3498 10.1847 14.0925L7.61057 16.1519L8.65051 18.5542L5.71489 19.9515C5.46555 20.0701 5.16721 19.9642 5.04853 19.7149C4.92985 19.4655 5.03577 19.1672 5.28511 19.0485L7.34949 18.0659L6.38943 15.8481L10 12.9597V11.9819C10 10.9982 10.1267 10.021 10.3753 9.07418L7.5 7.27712V5.24031L5.18765 3.39043C4.97202 3.21793 4.93706 2.90328 5.10957 2.68765C5.28207 2.47202 5.59672 2.43706 5.81235 2.60957L8.5 4.75969V6.72288L10.6827 8.08704C10.7645 7.86078 10.8535 7.63685 10.9497 7.4156C11.0688 7.14175 11.2682 6.94958 11.5 6.83909V2H12.5V6.83909Z" fill="black"/>
<path fill-rule="evenodd" clip-rule="evenodd" d="M9.81434 9.61117C9.93176 9.70609 10 9.849 10 10C10 10.9074 9.125 13.0586 6.07071 13.495C4.60201 13.7048 3.59005 13.5004 2.92727 13.0691C2.25861 12.6339 2 12.0002 2 11.5C2 11.2642 2.1647 11.0605 2.39524 11.0111L9.39524 9.5111C9.54288 9.47946 9.69691 9.51624 9.81434 9.61117ZM3.11865 11.8788C3.19102 11.9969 3.30323 12.1206 3.47273 12.2309C3.85995 12.4829 4.59799 12.6952 5.92929 12.505C7.71392 12.2501 8.50547 11.3308 8.81926 10.6572L3.11865 11.8788Z" fill="black"/>
<path fill-rule="evenodd" clip-rule="evenodd" d="M14 10C14 9.849 14.0682 9.70609 14.1857 9.61117C14.3031 9.51624 14.4571 9.47946 14.6048 9.5111L21.6048 11.0111C21.8353 11.0605 22 11.2642 22 11.5C22 12.0002 21.7414 12.6339 21.0727 13.0691C20.4099 13.5004 19.398 13.7048 17.9293 13.495C14.875 13.0586 14 10.9074 14 10ZM20.5273 12.2309C20.6968 12.1206 20.809 11.9969 20.8813 11.8788L15.1807 10.6572C15.4945 11.3308 16.2861 12.2501 18.0707 12.505C19.402 12.6952 20.1401 12.4829 20.5273 12.2309Z" fill="black"/>
</svg>
