<svg width="48" height="48" viewBox="0 0 48 48" fill="none" xmlns="http://www.w3.org/2000/svg">
<path fill-rule="evenodd" clip-rule="evenodd" d="M31.1836 15.5513C31.5267 15.437 31.9048 15.5168 32.1725 15.7601L37.6725 20.7601C37.9324 20.9964 38.0493 21.3517 37.9804 21.6961L36.4804 29.1961C36.4057 29.5695 36.1254 29.8681 35.7574 29.9663L28.2574 31.9663C27.9506 32.0481 27.6231 31.9793 27.3751 31.7809L24.8751 29.7809C24.4438 29.4359 24.3739 28.8066 24.7189 28.3753C25.0639 27.9441 25.6932 27.8741 26.1245 28.2192L27.361 29.2084L28.4014 24.353L24.463 20.7726L24.4485 20.8162C24.2738 21.3402 23.7075 21.6234 23.1836 21.4487C22.6596 21.2741 22.3765 20.7077 22.5511 20.1838L23.0511 18.6838C23.1506 18.3852 23.385 18.1509 23.6836 18.0513L31.1836 15.5513ZM25.936 19.4087L29.7604 22.8855L32.7251 22.0385C33.2561 21.8868 33.8096 22.1943 33.9613 22.7253C34.113 23.2563 33.8055 23.8098 33.2745 23.9615L30.3518 24.7966L29.3197 29.6131L34.6412 28.194L35.9082 21.8591L31.2604 17.6339L25.936 19.4087Z" fill="black"/>
<path fill-rule="evenodd" clip-rule="evenodd" d="M16.2631 19.0353C15.9169 18.9408 15.5467 19.0392 15.2929 19.2929L10.7929 23.7929C10.5392 24.0467 10.4408 24.4169 10.5353 24.7631L12.0353 30.2631C12.1284 30.6047 12.3953 30.8716 12.7369 30.9648L18.2369 32.4648C18.5629 32.5537 18.9118 32.4719 19.1644 32.2474L23.6644 28.2474C23.9426 28.0001 24.0605 27.6187 23.9702 27.2575L22.4702 21.2575C22.3824 20.9066 22.1121 20.6304 21.7631 20.5353L16.2631 19.0353ZM13.4256 23.9887L16.2968 21.1175L19.5744 22.0114L16.7033 24.8826L13.4256 23.9887ZM18.1175 26.2968L20.9582 23.456L21.883 27.155L19.0406 29.6816L18.1175 26.2968ZM16.1856 26.8144L17.0748 30.0748L13.8144 29.1856L12.9252 25.9252L16.1856 26.8144Z" fill="black"/>
<path fill-rule="evenodd" clip-rule="evenodd" d="M24 44C35.0457 44 44 35.0457 44 24C44 12.9543 35.0457 4 24 4C12.9543 4 4 12.9543 4 24C4 35.0457 12.9543 44 24 44ZM37.3359 36.0896C40.2341 32.8945 42 28.6535 42 24C42 14.0589 33.9411 6 24 6C19.3466 6 15.1056 7.76582 11.9106 10.6639L15.7645 14.5178C16.155 14.9083 16.155 15.5415 15.7645 15.932C15.374 16.3225 14.7408 16.3225 14.3503 15.932L10.5056 12.0874C7.70164 15.2613 6 19.4319 6 24C6 33.9411 14.0589 42 24 42C28.568 42 32.7386 40.2984 35.9124 37.4945L32.0126 33.5947C31.6221 33.2042 31.6221 32.571 32.0126 32.1805C32.4031 31.79 33.0363 31.79 33.4268 32.1805L37.3359 36.0896Z" fill="black"/>
</svg>
