<svg width="48" height="48" viewBox="0 0 48 48" fill="none" xmlns="http://www.w3.org/2000/svg">
<path d="M14.1138 12.3856C14.6088 12.1405 15.2086 12.3437 15.4533 12.8394L16.2451 14.4427L17.8575 12.7123C18.2342 12.308 18.867 12.2861 19.2708 12.6633C19.6745 13.0406 19.6965 13.6742 19.3197 14.0785L17.1925 16.3614L17.9951 17.9869L19.3264 16.7742C19.735 16.402 20.3674 16.432 20.739 16.8411C21.1106 17.2501 21.0807 17.8834 20.6722 18.2555L18.9171 19.8542L19.9731 21.9927C20.2179 22.4884 20.015 23.089 19.52 23.3341C19.0249 23.5792 18.4252 23.376 18.1804 22.8803L17.0852 20.6623L15.1213 21.0603C14.58 21.17 14.0524 20.8195 13.9429 20.2775C13.8333 19.7355 14.1833 19.2072 14.7246 19.0975L16.1681 18.805L15.3728 17.1944L12.3337 17.6528C11.7876 17.7351 11.2783 17.3586 11.196 16.8118C11.1138 16.265 11.4898 15.7549 12.0359 15.6725L14.4421 15.3097L13.6606 13.727C13.4158 13.2313 13.6187 12.6307 14.1138 12.3856Z" fill="black"/>
<path d="M36.714 21.249C37.2633 21.1916 37.7551 21.5908 37.8124 22.1408C38.0115 24.0484 37.1719 25.8512 35.5847 26.9247C35.127 27.2342 34.5055 27.1136 34.1964 26.6554C33.8872 26.1971 34.0077 25.5747 34.4653 25.2652C35.4405 24.6057 35.9456 23.5209 35.8234 22.3489C35.766 21.7989 36.1648 21.3065 36.714 21.249Z" fill="black"/>
<path fill-rule="evenodd" clip-rule="evenodd" d="M10.1086 41.9988C13.0735 41.8492 14.9238 41.0251 16.0736 39.8074C16.4759 40.3806 17.1732 40.7176 17.9315 40.5991C21.9046 39.9786 30.7619 38.3468 40.7137 34.9047C42.4288 34.3115 42.4288 31.979 40.7137 31.3858C39.5856 30.9957 38.4716 30.6288 37.3772 30.284C39.3625 29.2371 40.8846 27.4797 41.4812 25.2502C42.8259 20.2252 39.296 15.8532 34.7147 17.2436C34.3921 14.9384 35.1404 12.8138 37.1033 11.679L36.1034 9.94472C33.6755 11.3483 32.6551 13.7488 32.6458 16.2076C30.9247 14.8908 28.8386 14.8412 27.0664 15.768C27.0579 15.4683 27.0168 15.1745 26.9404 14.889C26.635 13.7476 25.8208 12.9327 24.7009 12.4636C24.4703 11.4083 23.9402 10.1257 22.9388 9.16997C21.7798 8.06396 20.113 7.51399 17.9417 8.04845C17.476 7.41802 16.7838 6.77296 15.8645 6.37738C14.5289 5.80265 12.8516 5.81458 10.9605 6.9037C8.98266 7.82886 8.02982 9.18986 7.76729 10.617C7.58884 11.587 7.74395 12.507 7.99886 13.2333C6.32073 14.7045 5.81625 16.384 6.05721 17.9668C6.2656 19.3356 7.01211 20.5056 7.74403 21.2996C7.48604 22.4866 7.68681 23.6211 8.44612 24.5256C8.64197 24.7589 8.86644 24.9663 9.11582 25.1492C9.11132 25.1893 9.10926 25.2301 9.10977 25.2715C9.13276 27.1288 9.2386 28.5984 9.61965 29.7399C8.39191 30.2086 7.23375 31.1618 6.17846 32.5995C5.94051 32.9237 5.94051 33.3668 6.17846 33.691C7.22531 35.1172 8.3734 36.0667 9.59021 36.5393C9.26564 37.6475 9.14071 39.1053 9.11143 41.0175C9.10297 41.5704 9.55701 42.0266 10.1086 41.9988ZM17.9204 33.1453C17.9204 34.1754 17.8795 35.2056 17.7162 36.1803V38.6059C18.6868 38.4534 19.943 38.241 21.4303 37.9574V34.2548H23.4302V37.5601C26.2878 36.9696 29.7527 36.1573 33.5527 35.0665V33.1451H35.5526V34.4754C36.8957 34.0669 38.2728 33.6242 39.6729 33.1453C37.6827 32.4644 35.739 31.8571 33.8734 31.3165C33.8369 31.3199 33.8004 31.3231 33.7639 31.3262L30.4702 30.3785C29.9513 30.2427 29.4411 30.1124 28.9402 29.9874V34.255H26.9403V29.5039C22.9633 28.5734 19.7269 28.0006 17.7162 27.6846V30.1104C17.8795 31.0851 17.9204 32.1152 17.9204 33.1453ZM15.7163 36.0056V30.2851C15.5759 29.5247 15.3512 28.8821 15.0071 28.3521C14.4818 27.543 13.471 26.7019 11.139 26.3927C11.1904 27.6152 11.3052 28.4723 11.5164 29.1051L12.1245 30.9268L10.3321 31.6111C9.70915 31.8489 9.01862 32.3232 8.30103 33.1453C9.01152 33.9591 9.69552 34.4322 10.3134 34.6722L12.0263 35.3375L11.5093 37.1028C11.3192 37.7517 11.2009 38.6413 11.1444 39.8973C13.4726 39.5875 14.4822 38.7471 15.0071 37.9386C15.3512 37.4085 15.5759 36.766 15.7163 36.0056ZM16.6628 25.9347C15.5185 25.0465 14.152 24.3548 12.4815 24.2097C11.1284 24.0922 10.3492 23.6803 9.97697 23.237C9.64675 22.8436 9.49201 22.25 9.81008 21.3301L10.0278 20.7004L9.53178 20.2562C8.89743 19.6881 8.1938 18.7129 8.03426 17.665C7.8917 16.7285 8.1512 15.5487 9.80899 14.3484L10.524 13.8307L10.1 13.0559C9.83013 12.5627 9.58945 11.766 9.73409 10.9798C9.86579 10.2638 10.345 9.39192 11.8404 8.70249L11.884 8.68238L11.9255 8.65818C13.3492 7.82779 14.3757 7.91638 15.0749 8.21725C15.833 8.54347 16.362 9.18863 16.5993 9.66855L16.99 10.4588L17.8223 10.1706C19.7567 9.50082 20.873 9.9649 21.5591 10.6196C22.3261 11.3517 22.7211 12.4875 22.8225 13.3326L22.9018 13.9937L23.5413 14.1761C24.4782 14.4434 24.8759 14.9114 25.0086 15.4073C25.1581 15.9658 25.0488 16.8396 24.3692 18.0152C23.8194 18.9661 23.5364 19.9446 23.4265 20.9132C23.1096 22.4863 23.2967 24.071 23.8895 25.5145C23.9783 25.8703 24.07 26.2128 24.1574 26.5388L24.1918 26.6674C24.2085 26.7298 24.2236 26.7917 24.2372 26.8531C21.5847 26.2967 19.4168 25.9234 17.9315 25.6914C17.468 25.619 17.0273 25.7168 16.6628 25.9347ZM34.0545 29.2849C31.9251 28.6745 29.9 28.1504 28.0256 27.7028C27.0147 26.9289 26.2559 25.9447 25.7947 24.873C25.4944 23.6272 25.2882 22.412 25.3999 21.2481C25.4206 21.1498 25.444 21.0518 25.4701 20.9543C26.0231 18.8877 27.3627 17.6613 28.6403 17.2775C29.8285 16.9205 31.2046 17.2041 32.3193 18.7214L33.2674 20.0118L34.7328 19.3689C36.4558 18.6131 37.7892 19.0564 38.6399 19.9605C39.5547 20.9326 40.1025 22.6653 39.5495 24.7319C38.913 27.1104 36.7497 28.9021 34.0545 29.2849Z" fill="black"/>
</svg>
