<svg width="24" height="24" viewBox="0 0 24 24" fill="none" xmlns="http://www.w3.org/2000/svg">
<path fill-rule="evenodd" clip-rule="evenodd" d="M6 2C5.44772 2 5 2.44772 5 3V11.25C5.41421 11.25 5.75 11.5858 5.75 12C5.75 12.4142 5.41421 12.75 5 12.75V21C5 21.5523 5.44772 22 6 22H18C18.5523 22 19 21.5523 19 21V12.75C18.5858 12.75 18.25 12.4142 18.25 12C18.25 11.5858 18.5858 11.25 19 11.25V3C19 2.44772 18.5523 2 18 2H6ZM14.25 12.75C14.6642 12.75 15 12.4142 15 12C15 11.5858 14.6642 11.25 14.25 11.25C13.8358 11.25 13.5 11.5858 13.5 12C13.5 12.4142 13.8358 12.75 14.25 12.75ZM17.25 12C17.25 12.4142 16.9142 12.75 16.5 12.75C16.0858 12.75 15.75 12.4142 15.75 12C15.75 11.5858 16.0858 11.25 16.5 11.25C16.9142 11.25 17.25 11.5858 17.25 12ZM7.5 12.75C7.91421 12.75 8.24999 12.4142 8.24999 12C8.24999 11.5858 7.91421 11.25 7.5 11.25C7.08578 11.25 6.75 11.5858 6.75 12C6.75 12.4142 7.08578 12.75 7.5 12.75ZM10.5 12C10.5 12.4142 10.1642 12.75 9.75 12.75C9.33578 12.75 9 12.4142 9 12C9 11.5858 9.33578 11.25 9.75 11.25C10.1642 11.25 10.5 11.5858 10.5 12ZM12 12.75C12.4142 12.75 12.75 12.4142 12.75 12C12.75 11.5858 12.4142 11.25 12 11.25C11.5858 11.25 11.25 11.5858 11.25 12C11.25 12.4142 11.5858 12.75 12 12.75ZM8.70144 3.8042C9.08381 4.20142 9.07111 4.83489 8.67307 5.21911L8.02821 5.84159C7.63018 6.2258 6.99753 6.21527 6.61517 5.81806C6.2328 5.42085 6.2455 4.78737 6.64353 4.40315L7.2884 3.78067C7.68643 3.39646 8.31907 3.40699 8.70144 3.8042ZM11.5931 5.21911C11.9911 4.83489 12.0038 4.20142 11.6215 3.8042C11.2391 3.40699 10.6064 3.39646 10.2084 3.78067L9.56355 4.40315C9.16551 4.78737 9.15281 5.42085 9.53518 5.81806C9.91755 6.21527 10.5502 6.2258 10.9482 5.84159L11.5931 5.21911ZM14.5414 3.8042C14.9238 4.20142 14.9111 4.83489 14.5131 5.21911L13.8682 5.84159C13.4702 6.2258 12.8375 6.21527 12.4552 5.81806C12.0728 5.42085 12.0855 4.78737 12.4835 4.40315L13.1284 3.78067C13.5264 3.39646 14.1591 3.40699 14.5414 3.8042ZM17.4331 5.21911C17.8311 4.83489 17.8438 4.20142 17.4614 3.8042C17.0791 3.40699 16.4464 3.39646 16.0484 3.78067L15.4035 4.40315C15.0055 4.78737 14.9928 5.42085 15.3752 5.81806C15.7575 6.21527 16.3902 6.2258 16.7882 5.84159L17.4331 5.21911ZM8.70144 7.3042C9.08381 7.70142 9.07111 8.33489 8.67307 8.71911L8.02821 9.34159C7.63018 9.7258 6.99753 9.71527 6.61517 9.31806C6.2328 8.92085 6.2455 8.28737 6.64353 7.90315L7.2884 7.28067C7.68643 6.89646 8.31907 6.90699 8.70144 7.3042ZM11.5931 8.71911C11.9911 8.33489 12.0038 7.70142 11.6215 7.3042C11.2391 6.90699 10.6064 6.89646 10.2084 7.28067L9.56355 7.90315C9.16551 8.28737 9.15281 8.92085 9.53518 9.31806C9.91755 9.71527 10.5502 9.7258 10.9482 9.34159L11.5931 8.71911ZM14.5414 7.3042C14.9238 7.70142 14.9111 8.33489 14.5131 8.71911L13.8682 9.34159C13.4702 9.7258 12.8375 9.71527 12.4552 9.31806C12.0728 8.92085 12.0855 8.28737 12.4835 7.90315L13.1284 7.28067C13.5264 6.89646 14.1591 6.90699 14.5414 7.3042ZM17.4331 8.71911C17.8311 8.33489 17.8438 7.70142 17.4614 7.3042C17.0791 6.90699 16.4464 6.89646 16.0484 7.28067L15.4035 7.90315C15.0055 8.28737 14.9928 8.92085 15.3752 9.31806C15.7575 9.71527 16.3902 9.7258 16.7882 9.34159L17.4331 8.71911ZM8.70144 18.3042C9.08381 18.7014 9.07111 19.3349 8.67307 19.7191L8.02821 20.3416C7.63018 20.7258 6.99753 20.7153 6.61517 20.3181C6.2328 19.9208 6.2455 19.2874 6.64353 18.9032L7.2884 18.2807C7.68643 17.8965 8.31907 17.907 8.70144 18.3042ZM11.5931 19.7191C11.9911 19.3349 12.0038 18.7014 11.6215 18.3042C11.2391 17.907 10.6064 17.8965 10.2084 18.2807L9.56355 18.9032C9.16551 19.2874 9.15281 19.9208 9.53518 20.3181C9.91755 20.7153 10.5502 20.7258 10.9482 20.3416L11.5931 19.7191ZM14.5414 18.3042C14.9238 18.7014 14.9111 19.3349 14.5131 19.7191L13.8682 20.3416C13.4702 20.7258 12.8375 20.7153 12.4552 20.3181C12.0728 19.9208 12.0855 19.2874 12.4835 18.9032L13.1284 18.2807C13.5264 17.8965 14.1591 17.907 14.5414 18.3042ZM17.4331 19.7191C17.8311 19.3349 17.8438 18.7014 17.4614 18.3042C17.0791 17.907 16.4464 17.8965 16.0484 18.2807L15.4035 18.9032C15.0055 19.2874 14.9928 19.9208 15.3752 20.3181C15.7575 20.7153 16.3902 20.7258 16.7882 20.3416L17.4331 19.7191ZM8.70144 14.8042C9.08381 15.2014 9.07111 15.8349 8.67307 16.2191L8.02821 16.8416C7.63018 17.2258 6.99753 17.2153 6.61517 16.8181C6.2328 16.4208 6.2455 15.7874 6.64353 15.4032L7.2884 14.7807C7.68643 14.3965 8.31907 14.407 8.70144 14.8042ZM11.5931 16.2191C11.9911 15.8349 12.0038 15.2014 11.6215 14.8042C11.2391 14.407 10.6064 14.3965 10.2084 14.7807L9.56355 15.4032C9.16551 15.7874 9.15281 16.4208 9.53518 16.8181C9.91755 17.2153 10.5502 17.2258 10.9482 16.8416L11.5931 16.2191ZM14.5414 14.8042C14.9238 15.2014 14.9111 15.8349 14.5131 16.2191L13.8682 16.8416C13.4702 17.2258 12.8375 17.2153 12.4552 16.8181C12.0728 16.4208 12.0855 15.7874 12.4835 15.4032L13.1284 14.7807C13.5264 14.3965 14.1591 14.407 14.5414 14.8042ZM17.4331 16.2191C17.8311 15.8349 17.8438 15.2014 17.4614 14.8042C17.0791 14.407 16.4464 14.3965 16.0484 14.7807L15.4035 15.4032C15.0055 15.7874 14.9928 16.4208 15.3752 16.8181C15.7575 17.2153 16.3902 17.2258 16.7882 16.8416L17.4331 16.2191Z" fill="black"/>
</svg>
