<svg width="24" height="24" viewBox="0 0 24 24" fill="none" xmlns="http://www.w3.org/2000/svg">
<mask id="path-1-inside-1_11030_13234" fill="white">
<path d="M8.29806 3.85128C7.82375 2.70984 6.24988 2.59978 5.62132 3.6641L2.27719 9.32659C1.71016 10.2867 2.35178 11.5079 3.46414 11.5857L9.33178 11.996C10.4441 12.0738 11.2495 10.9538 10.8216 9.92407L8.29806 3.85128Z"/>
<path fill-rule="evenodd" clip-rule="evenodd" d="M16.5 2C14.0147 2 12 4.01472 12 6.5C12 8.98528 14.0147 11 16.5 11C18.9853 11 21 8.98528 21 6.5C21 4.01472 18.9853 2 16.5 2ZM14.0841 5.85617C14.227 5.32271 14.7754 5.00612 15.3088 5.14906L18.2066 5.92552C18.7401 6.06846 19.0567 6.6168 18.9137 7.15027C18.7708 7.68373 18.2224 8.00032 17.689 7.85737L14.7912 7.08092C14.2577 6.93797 13.9411 6.38964 14.0841 5.85617Z"/>
<path fill-rule="evenodd" clip-rule="evenodd" d="M8.82758 21.6841C7.67163 21.3855 6.6775 20.5413 6.23831 19.3346C5.52997 17.3884 6.53342 15.2365 8.47959 14.5282L14.5876 12.3051C16.5338 11.5967 18.6857 12.6002 19.394 14.5463C20.1024 16.4925 19.0989 18.6444 17.1527 19.3527L11.0448 21.5759C10.8015 21.6644 10.555 21.7262 10.3085 21.7628M12.4526 15.2105L15.2716 14.1844C16.1798 13.8539 17.1841 14.3222 17.5146 15.2304C17.8452 16.1386 17.3769 17.1428 16.4687 17.4734L13.6496 18.4994L12.4526 15.2105Z"/>
</mask>
<path d="M8.29806 3.85128C7.82375 2.70984 6.24988 2.59978 5.62132 3.6641L2.27719 9.32659C1.71016 10.2867 2.35178 11.5079 3.46414 11.5857L9.33178 11.996C10.4441 12.0738 11.2495 10.9538 10.8216 9.92407L8.29806 3.85128Z" fill="black"/>
<path fill-rule="evenodd" clip-rule="evenodd" d="M16.5 2C14.0147 2 12 4.01472 12 6.5C12 8.98528 14.0147 11 16.5 11C18.9853 11 21 8.98528 21 6.5C21 4.01472 18.9853 2 16.5 2ZM14.0841 5.85617C14.227 5.32271 14.7754 5.00612 15.3088 5.14906L18.2066 5.92552C18.7401 6.06846 19.0567 6.6168 18.9137 7.15027C18.7708 7.68373 18.2224 8.00032 17.689 7.85737L14.7912 7.08092C14.2577 6.93797 13.9411 6.38964 14.0841 5.85617Z" fill="black"/>
<path fill-rule="evenodd" clip-rule="evenodd" d="M8.82758 21.6841C7.67163 21.3855 6.6775 20.5413 6.23831 19.3346C5.52997 17.3884 6.53342 15.2365 8.47959 14.5282L14.5876 12.3051C16.5338 11.5967 18.6857 12.6002 19.394 14.5463C20.1024 16.4925 19.0989 18.6444 17.1527 19.3527L11.0448 21.5759C10.8015 21.6644 10.555 21.7262 10.3085 21.7628M12.4526 15.2105L15.2716 14.1844C16.1798 13.8539 17.1841 14.3222 17.5146 15.2304C17.8452 16.1386 17.3769 17.1428 16.4687 17.4734L13.6496 18.4994L12.4526 15.2105Z" fill="black"/>
<path d="M10.3616 20.7642L8.88065 20.6855L8.77451 22.6827L10.2554 22.7614L10.3616 20.7642ZM5.62132 3.6641L3.89921 2.64707L3.89921 2.64707L5.62132 3.6641ZM8.29806 3.85128L6.45117 4.61874V4.61874L8.29806 3.85128ZM2.27719 9.32659L3.9993 10.3436L3.9993 10.3436L2.27719 9.32659ZM3.46414 11.5857L3.32463 13.5808H3.32463L3.46414 11.5857ZM9.33178 11.996L9.47129 10.0009L9.33178 11.996ZM10.8216 9.92407L8.97469 10.6915L8.97469 10.6915L10.8216 9.92407ZM15.3088 5.14906L14.7912 7.08092V7.08092L15.3088 5.14906ZM14.0841 5.85617L16.0159 6.37381V6.37381L14.0841 5.85617ZM18.2066 5.92552L17.689 7.85737L18.2066 5.92552ZM18.9137 7.15027L20.8456 7.66791V7.6679L18.9137 7.15027ZM17.689 7.85737L18.2066 5.92552V5.92552L17.689 7.85737ZM14.7912 7.08092L14.2735 9.01277V9.01277L14.7912 7.08092ZM15.2716 14.1844L15.9557 16.0638H15.9557L15.2716 14.1844ZM12.4526 15.2105L11.7685 13.3311L9.88915 14.0151L10.5732 15.8945L12.4526 15.2105ZM17.5146 15.2304L19.394 14.5463V14.5463L17.5146 15.2304ZM16.4687 17.4734L17.1527 19.3527V19.3527L16.4687 17.4734ZM13.6496 18.4994L11.7703 19.1835L12.4543 21.0628L14.3337 20.3788L13.6496 18.4994ZM6.23831 19.3346L4.35893 20.0186L6.23831 19.3346ZM8.47959 14.5282L9.16363 16.4076L8.47959 14.5282ZM14.5876 12.3051L13.9035 10.4257L14.5876 12.3051ZM19.394 14.5463L17.5146 15.2304V15.2304L19.394 14.5463ZM17.1527 19.3527L16.4687 17.4734L16.4687 17.4734L17.1527 19.3527ZM11.0448 21.5759L11.7288 23.4553L11.0448 21.5759ZM7.34342 4.68113C7.1339 5.0359 6.60928 4.99922 6.45117 4.61874L10.145 3.08381C9.03821 0.42045 5.36586 0.163657 3.89921 2.64707L7.34342 4.68113ZM3.9993 10.3436L7.34342 4.68113L3.89921 2.64707L0.55509 8.30955L3.9993 10.3436ZM3.60365 9.59058C3.97443 9.6165 4.18831 10.0236 3.9993 10.3436L0.555091 8.30955C-0.767991 10.5499 0.729134 13.3993 3.32463 13.5808L3.60365 9.59058ZM9.47129 10.0009L3.60365 9.59058L3.32463 13.5808L9.19226 13.9911L9.47129 10.0009ZM8.97469 10.6915C8.83206 10.3483 9.10051 9.97495 9.47129 10.0009L9.19226 13.9911C11.7878 14.1726 13.6669 11.5593 12.6685 9.1566L8.97469 10.6915ZM6.45117 4.61874L8.97469 10.6915L12.6685 9.1566L10.145 3.08381L6.45117 4.61874ZM14 6.5C14 5.11929 15.1193 4 16.5 4V0C12.9102 0 10 2.91015 10 6.5H14ZM16.5 9C15.1193 9 14 7.88071 14 6.5H10C10 10.0899 12.9102 13 16.5 13V9ZM19 6.5C19 7.88071 17.8807 9 16.5 9V13C20.0899 13 23 10.0899 23 6.5H19ZM16.5 4C17.8807 4 19 5.11929 19 6.5H23C23 2.91015 20.0899 0 16.5 0V4ZM15.8265 3.21721C14.2261 2.78839 12.5811 3.73813 12.1522 5.33853L16.0159 6.37381C15.873 6.90728 15.3247 7.22386 14.7912 7.08092L15.8265 3.21721ZM18.7242 3.99367L15.8265 3.21721L14.7912 7.08092L17.689 7.85737L18.7242 3.99367ZM20.8456 7.6679C21.2744 6.0675 20.3246 4.42249 18.7242 3.99367L17.689 7.85737C17.1555 7.71443 16.8389 7.1661 16.9819 6.63263L20.8456 7.6679ZM17.1713 9.78922C18.7717 10.2181 20.4167 9.2683 20.8456 7.66791L16.9819 6.63263C17.1248 6.09916 17.6731 5.78258 18.2066 5.92552L17.1713 9.78922ZM14.2735 9.01277L17.1713 9.78923L18.2066 5.92552L15.3088 5.14906L14.2735 9.01277ZM12.1522 5.33853C11.7234 6.93893 12.6732 8.58394 14.2735 9.01277L15.3088 5.14906C15.8423 5.29201 16.1589 5.84034 16.0159 6.37381L12.1522 5.33853ZM14.5876 12.3051L11.7685 13.3311L13.1366 17.0899L15.9557 16.0638L14.5876 12.3051ZM19.394 14.5463C18.6857 12.6002 16.5338 11.5967 14.5876 12.3051L15.9557 16.0638C15.8259 16.111 15.6825 16.0441 15.6352 15.9144L19.394 14.5463ZM17.1527 19.3527C19.0989 18.6444 20.1024 16.4925 19.394 14.5463L15.6352 15.9144C15.588 15.7847 15.6549 15.6412 15.7847 15.594L17.1527 19.3527ZM14.3337 20.3788L17.1527 19.3527L15.7847 15.594L12.9656 16.62L14.3337 20.3788ZM10.5732 15.8945L11.7703 19.1835L15.529 17.8154L14.332 14.5264L10.5732 15.8945ZM4.35893 20.0186C5.03296 21.8705 6.5608 23.1643 8.32745 23.6205L9.32771 19.7476C8.78245 19.6068 8.32204 19.212 8.1177 18.6506L4.35893 20.0186ZM7.79555 12.6488C4.81142 13.7349 3.2728 17.0345 4.35893 20.0186L8.1177 18.6506C7.78714 17.7424 8.25541 16.7381 9.16363 16.4076L7.79555 12.6488ZM13.9035 10.4257L7.79555 12.6488L9.16363 16.4076L15.2716 14.1844L13.9035 10.4257ZM21.2734 13.8623C20.1873 10.8782 16.8877 9.33954 13.9035 10.4257L15.2716 14.1844C16.1798 13.8539 17.1841 14.3222 17.5146 15.2304L21.2734 13.8623ZM17.8368 21.2321C20.8209 20.146 22.3595 16.8464 21.2734 13.8623L17.5146 15.2304C17.8452 16.1386 17.3769 17.1428 16.4687 17.4734L17.8368 21.2321ZM10.6019 23.7411C10.9808 23.6849 11.3582 23.5901 11.7288 23.4553L10.3607 19.6965C10.2448 19.7387 10.1292 19.7675 10.0151 19.7844L10.6019 23.7411ZM11.7288 23.4553L17.8368 21.2321L16.4687 17.4734L10.3607 19.6965L11.7288 23.4553Z" fill="black" mask="url(#path-1-inside-1_11030_13234)"/>
</svg>
