<svg width="24" height="24" viewBox="0 0 24 24" fill="none" xmlns="http://www.w3.org/2000/svg">
<path fill-rule="evenodd" clip-rule="evenodd" d="M7.5 13C10.5376 13 13 10.5376 13 7.5C13 4.46243 10.5376 2 7.5 2C4.46243 2 2 4.46243 2 7.5C2 10.5376 4.46243 13 7.5 13ZM9.03033 7.03033C9.32322 6.73744 9.32322 6.26256 9.03033 5.96967C8.73744 5.67678 8.26256 5.67678 7.96967 5.96967L5.96967 7.96967C5.67678 8.26256 5.67678 8.73744 5.96967 9.03033C6.26256 9.32322 6.73744 9.32322 7.03033 9.03033L9.03033 7.03033Z" fill="black"/>
<path fill-rule="evenodd" clip-rule="evenodd" d="M16.5 22C19.5376 22 22 19.5376 22 16.5C22 13.4624 19.5376 11 16.5 11C13.4624 11 11 13.4624 11 16.5C11 19.5376 13.4624 22 16.5 22ZM16.9697 18.0303C17.2626 18.3232 17.7374 18.3232 18.0303 18.0303C18.3232 17.7374 18.3232 17.2626 18.0303 16.9697L16.0303 14.9697C15.7374 14.6768 15.2626 14.6768 14.9697 14.9697C14.6768 15.2626 14.6768 15.7374 14.9697 16.0303L16.9697 18.0303Z" fill="black"/>
</svg>
