<svg width="24" height="24" viewBox="0 0 24 24" fill="none" xmlns="http://www.w3.org/2000/svg">
<path fill-rule="evenodd" clip-rule="evenodd" d="M6.5 22C8.98528 22 11 19.9853 11 17.5C11 15.0147 8.98528 13 6.5 13C4.01472 13 2 15.0147 2 17.5C2 19.9853 4.01472 22 6.5 22ZM7.53033 17.5303C7.82322 17.2374 7.82322 16.7626 7.53033 16.4697C7.23744 16.1768 6.76256 16.1768 6.46967 16.4697L5.46967 17.4697C5.17678 17.7626 5.17678 18.2374 5.46967 18.5303C5.76256 18.8232 6.23744 18.8232 6.53033 18.5303L7.53033 17.5303Z" fill="black"/>
<path fill-rule="evenodd" clip-rule="evenodd" d="M7.5 12C9.98528 12 12 9.98528 12 7.5C12 5.01472 9.98528 3 7.5 3C5.01472 3 3 5.01472 3 7.5C3 9.98528 5.01472 12 7.5 12ZM7.46967 8.53033C7.76256 8.82322 8.23744 8.82322 8.53033 8.53033C8.82322 8.23744 8.82322 7.76256 8.53033 7.46967L7.53033 6.46967C7.23744 6.17678 6.76256 6.17678 6.46967 6.46967C6.17678 6.76256 6.17678 7.23744 6.46967 7.53033L7.46967 8.53033Z" fill="black"/>
<path fill-rule="evenodd" clip-rule="evenodd" d="M17.5 11C19.9853 11 22 8.98528 22 6.5C22 4.01472 19.9853 2 17.5 2C15.0147 2 13 4.01472 13 6.5C13 8.98528 15.0147 11 17.5 11ZM18.5303 6.53033C18.8232 6.23744 18.8232 5.76256 18.5303 5.46967C18.2374 5.17678 17.7626 5.17678 17.4697 5.46967L16.4697 6.46967C16.1768 6.76256 16.1768 7.23744 16.4697 7.53033C16.7626 7.82322 17.2374 7.82322 17.5303 7.53033L18.5303 6.53033Z" fill="black"/>
<path fill-rule="evenodd" clip-rule="evenodd" d="M17.5 22C19.9853 22 22 19.9853 22 17.5C22 15.0147 19.9853 13 17.5 13C15.0147 13 13 15.0147 13 17.5C13 19.9853 15.0147 22 17.5 22ZM16.7929 16.7499C16.3787 16.7499 16.0429 17.0857 16.0429 17.4999C16.0429 17.9141 16.3787 18.2499 16.7929 18.2499H18.2071C18.6213 18.2499 18.9571 17.9141 18.9571 17.4999C18.9571 17.0857 18.6213 16.7499 18.2071 16.7499H16.7929Z" fill="black"/>
</svg>
