<svg width="24" height="24" viewBox="0 0 24 24" fill="none" xmlns="http://www.w3.org/2000/svg">
<path fill-rule="evenodd" clip-rule="evenodd" d="M16 2.8667H14.3485C13.7207 2.33266 12.9063 2 12 2C11.0937 2 10.2793 2.33266 9.6515 2.8667H8C6.34315 2.8667 5 4.20985 5 5.8667V16C5 17.6569 6.34315 19 8 19H9C9.00002 19.5523 9.44773 20 10 20H11V22H13V20H14C14.5523 20 15 19.5523 15 19H16C17.6569 19 19 17.6569 19 16V5.8667C19 4.20984 17.6569 2.8667 16 2.8667ZM16 17C16.5523 17 17 16.5523 17 16V13.779C16.9975 13.7773 16.9949 13.7756 16.9924 13.7738C16.757 13.6138 16.4099 13.4126 15.9738 13.2556C15.1206 12.9484 13.9052 12.7985 12.4369 13.5117C10.5774 14.4149 8.96852 14.7832 7.80665 14.9226C7.50661 14.9586 7.23662 14.9793 7 14.9901V16C7 16.5523 7.44772 17 8 17H16ZM7 12.9875C7.16796 12.978 7.35803 12.9621 7.56835 12.9369C8.53148 12.8213 9.92258 12.5096 11.5631 11.7127C13.5948 10.7258 15.3794 10.916 16.6512 11.3738C16.7724 11.4174 16.8887 11.4634 17 11.5108V5.8667C17 5.31441 16.5523 4.8667 16 4.8667H13.4437C13.1556 4.34859 12.6169 4 12 4C11.3831 4 10.8445 4.34859 10.5563 4.8667H8C7.44772 4.8667 7 5.31441 7 5.8667V12.9875Z" fill="black"/>
</svg>
