<svg width="48" height="48" viewBox="0 0 48 48" fill="none" xmlns="http://www.w3.org/2000/svg">
<path fill-rule="evenodd" clip-rule="evenodd" d="M48 0H0V48H48V0ZM8.41801 6.65642C8.54782 6.26219 8.88541 6 9.26322 6H38.7368C39.1146 6 39.4522 6.26218 39.582 6.65642L41.8904 13.6672C41.9629 13.8874 42 14.1199 42 14.3544V17.1429C42 18.7208 40.8487 20 39.4286 20C38.9 20 38.4086 19.8228 38 19.5189C37.9369 19.472 37.8758 19.422 37.8168 19.3692L37.7938 19.3484C37.6823 19.2463 37.5787 19.1339 37.4842 19.0126C37.0935 18.5115 36.8571 17.8579 36.8571 17.1429C36.8571 17.8519 36.6247 18.5006 36.2399 19C36.1697 19.0911 36.0945 19.1772 36.0147 19.2578C35.558 19.7189 34.9514 20 34.2857 20C32.8663 20 31.7154 18.7221 31.7143 17.1452C31.7131 18.7221 30.5623 20 29.1429 20C27.7227 20 26.5714 18.7208 26.5714 17.1429C26.5714 18.7208 25.4202 20 24 20C22.5805 20 21.4297 18.7221 21.4286 17.1452C21.4274 18.7221 20.2766 20 18.8571 20C17.437 20 16.2857 18.7208 16.2857 17.1429C16.2857 18.7208 15.1344 20 13.7143 20C13.0557 20 12.4549 19.7249 12 19.2725C11.9184 19.1914 11.8416 19.1046 11.7699 19.0126C11.3792 18.5115 11.1429 17.8579 11.1429 17.1429C11.1429 17.8519 10.9104 18.5006 10.5256 19C10.4287 19.1258 10.3221 19.2421 10.2071 19.3476L10.2062 19.3484C10.143 19.4063 10.0772 19.4609 10.0091 19.512C9.59874 19.8201 9.10399 20 8.57143 20C7.15127 20 6 18.7208 6 17.1429V14.3544C6 14.1199 6.03709 13.8874 6.10958 13.6672L8.41801 6.65642ZM10 21.2303V29H7.5C7.22386 29 7 29.2239 7 29.5V30.5C7 30.7761 7.22386 31 7.5 31H40.5C40.7761 31 41 30.7761 41 30.5V29.5C41 29.2239 40.7761 29 40.5 29H38V21.2303C37.5766 21.0623 37.1928 20.822 36.8571 20.5266C36.5987 20.754 36.3116 20.9488 36 21.1031V29H22.5C23.3284 29 24 28.3284 24 27.5C24 26.6716 23.3284 26 22.5 26C21.6716 26 21 26.6716 21 27.5C21 28.3284 21.6716 29 22.5 29H19.5C19.7761 29 20 28.7761 20 28.5V27.5C20 27.2239 19.7761 27 19.5 27H18V26.5C18 26.2239 17.7761 26 17.5 26H14.5C14.2239 26 14 26.2239 14 26.5V28.5C14 28.7761 14.2239 29 14.5 29H12V21.1031C11.6884 20.9488 11.4013 20.754 11.1429 20.5266C10.8072 20.822 10.4234 21.0623 10 21.2303ZM8.5 33C8.22386 33 8 33.2239 8 33.5V41C8 41.5523 8.44772 42 9 42H39C39.5523 42 40 41.5523 40 41V33.5C40 33.2239 39.7761 33 39.5 33H8.5Z" fill="#333333"/>
</svg>
