<svg xmlns="http://www.w3.org/2000/svg" width="48" height="48" fill="none"><path fill="#333" fill-rule="evenodd" d="M10 7v30a3 3 0 0 0 3 3h13v-3.535a4 4 0 1 1 4 0V40h5a3 3 0 0 0 3-3V7a3 3 0 0 0-3-3H13a3 3 0 0 0-3 3Zm18 28a2 2 0 1 0 0-4 2 2 0 0 0 0 4ZM18 11a1 1 0 0 1 1-1h10a1 1 0 1 1 0 2H19a1 1 0 0 1-1-1Zm-3 5a1 1 0 1 0 0 2h18a1 1 0 1 0 0-2H15Zm-1 5a1 1 0 0 1 1-1h18a1 1 0 1 1 0 2H15a1 1 0 0 1-1-1Zm1 3a1 1 0 1 0 0 2h18a1 1 0 1 0 0-2H15Z" clip-rule="evenodd"/><path fill="#333" d="M26 44v-4h4v4l-2-1.5-2 1.5Z"/></svg>