<svg xmlns="http://www.w3.org/2000/svg" width="48" height="48" fill="none"><path fill="#333" fill-rule="evenodd" d="M8 40V7H6v34a1 1 0 0 0 1 1h35v-2H8Z" clip-rule="evenodd"/><path fill="#333" fill-rule="evenodd" d="m15.285 26.12-7.5 9.5-1.57-1.24 7.5-9.5 1.57 1.24Zm12.399 2.829-12-4 .632-1.898 12 4-.632 1.898Z" clip-rule="evenodd"/><path fill="#333" fill-rule="evenodd" d="m38.768 16.64-10 12-1.536-1.28 10-12 1.536 1.28Z" clip-rule="evenodd"/><path fill="#333" d="M19 24a3 3 0 1 1-6 0 3 3 0 0 1 6 0Z"/><path fill="#333" fill-rule="evenodd" d="M16 25a1 1 0 1 0 0-2 1 1 0 0 0 0 2Zm0 2a3 3 0 1 0 0-6 3 3 0 0 0 0 6Z" clip-rule="evenodd"/><path fill="#333" d="M31 28a3 3 0 1 1-6 0 3 3 0 0 1 6 0Z"/><path fill="#333" fill-rule="evenodd" d="M28 29a1 1 0 1 0 0-2 1 1 0 0 0 0 2Zm0 2a3 3 0 1 0 0-6 3 3 0 0 0 0 6Z" clip-rule="evenodd"/><path fill="#333" d="M41 16a3 3 0 1 1-6 0 3 3 0 0 1 6 0Z"/><path fill="#333" fill-rule="evenodd" d="M38 17a1 1 0 1 0 0-2 1 1 0 0 0 0 2Zm0 2a3 3 0 1 0 0-6 3 3 0 0 0 0 6Z" clip-rule="evenodd"/></svg>