<svg xmlns="http://www.w3.org/2000/svg" width="48" height="48" fill="none"><path fill="#333" d="M12 31v7a2 2 0 1 0 4 0v-7h-4Zm-5-5v-6a3 3 0 0 1 3-3h6v12h-6a3 3 0 0 1-3-3Zm27-3v-1a3 3 0 0 0-3-3v7a3 3 0 0 0 3-3Zm-16 7V15l9.463-6.022A1 1 0 0 1 29 9.822v25.356a1 1 0 0 1-1.537.844L18 30Z"/><path fill="#333" fill-rule="evenodd" d="M40.832 17.445a1 1 0 0 1-.277 1.387l-3 2a1 1 0 1 1-1.11-1.664l3-2a1 1 0 0 1 1.387.277ZM36 24a1 1 0 0 1 1-1h4a1 1 0 1 1 0 2h-4a1 1 0 0 1-1-1Zm.168 3.445a1 1 0 0 1 1.387-.277l3 2a1 1 0 0 1-1.11 1.664l-3-2a1 1 0 0 1-.277-1.387Z" clip-rule="evenodd"/></svg>