<svg xmlns="http://www.w3.org/2000/svg" width="48" height="48" fill="none"><path fill="#333" fill-rule="evenodd" d="M8 6v34h34v2H7a1 1 0 0 1-1-1V6h2Z" clip-rule="evenodd"/><path fill="#333" fill-rule="evenodd" d="M6 17a1 1 0 0 1 1-1h1.871c2.432 0 4.813.74 6.957 2.14 2.141 1.397 3.984 3.41 5.403 5.859 1.282 2.215 2.919 3.982 4.764 5.186C27.838 30.388 29.844 31 31.86 31h7.64a1 1 0 1 1 0 2h-7.64c-2.432 0-4.813-.74-6.957-2.14-2.141-1.397-3.984-3.41-5.403-5.859-1.283-2.215-2.919-3.982-4.765-5.186C12.892 18.612 10.887 18 8.871 18H7a1 1 0 0 1-1-1Z" clip-rule="evenodd"/><path fill="#333" fill-rule="evenodd" d="M35.293 26.51a1 1 0 0 1 1.414 0l4.78 4.783a1 1 0 0 1 0 1.414l-4.78 4.782a1 1 0 0 1-1.414-1.414L39.366 32l-4.073-4.075a1 1 0 0 1 0-1.415Z" clip-rule="evenodd"/><path fill="#333" d="M41 13.857a1.524 1.524 0 0 0-1.524-1.524h-3.81v-3.81A1.524 1.524 0 0 0 34.144 7h-2.286a1.524 1.524 0 0 0-1.524 1.524v3.81h-3.81A1.524 1.524 0 0 0 25 13.856v2.286a1.524 1.524 0 0 0 1.524 1.524h3.81v3.81A1.524 1.524 0 0 0 31.856 23h2.286a1.524 1.524 0 0 0 1.524-1.524v-3.81h3.81A1.524 1.524 0 0 0 41 16.144v-2.286Z"/></svg>