<svg xmlns="http://www.w3.org/2000/svg" width="48" height="48" fill="none"><path fill="#333" fill-rule="evenodd" d="M39 13a3 3 0 0 0-3 3v2h6v-2a3 3 0 0 0-3-3Zm3 7h-6v16.5l3 4.5 3-4.5V20ZM6 9v30a3 3 0 0 0 3 3h22a3 3 0 0 0 3-3V9a3 3 0 0 0-3-3H9a3 3 0 0 0-3 3Zm14 6a1 1 0 0 1 1-1h8a1 1 0 1 1 0 2h-8a1 1 0 0 1-1-1Zm1 3a1 1 0 1 0 0 2h8a1 1 0 1 0 0-2h-8Zm-1 10a1 1 0 0 1 1-1h8a1 1 0 1 1 0 2h-8a1 1 0 0 1-1-1Zm1 3a1 1 0 1 0 0 2h8a1 1 0 1 0 0-2h-8Zm-9-3v3h3v-3h-3Zm-1-2h5a1 1 0 0 1 1 1v5a1 1 0 0 1-1 1h-5a1 1 0 0 1-1-1v-5a1 1 0 0 1 1-1Zm6.707-10.293a1 1 0 0 0-1.414-1.414L13 17.586l-1.293-1.293a1 1 0 0 0-1.414 1.414L13 20.414l4.707-4.707Z" clip-rule="evenodd"/></svg>