<svg xmlns="http://www.w3.org/2000/svg" width="48" height="48" fill="none"><path fill="#333" d="M42 18a3 3 0 0 0-3-3H9a3 3 0 0 0-3 3v18a3 3 0 0 0 3 3h30a3 3 0 0 0 3-3V18Z"/><path fill="#333" fill-rule="evenodd" d="M9 11h13.082a1 1 0 0 1 .877.518l3.846 7A1 1 0 0 1 25.929 20H9a1 1 0 0 1-1-1v-7a1 1 0 0 1 1-1Zm13.082-2a3 3 0 0 1 2.63 1.555l3.846 7c1.098 2-.348 4.445-2.63 4.445H9a3 3 0 0 1-3-3v-7a3 3 0 0 1 3-3h13.082Z" clip-rule="evenodd"/><path fill="#333" fill-rule="evenodd" d="M8 15h19.5v2H8v-2Z" clip-rule="evenodd"/></svg>