<svg xmlns="http://www.w3.org/2000/svg" width="48" height="48" fill="none"><path fill="#333" fill-rule="evenodd" d="M15 23a2 2 0 0 0-2 2v2a2 2 0 0 0 2 2h2a2 2 0 0 0 2-2v-2a2 2 0 0 0-2-2h-2Zm0 2v2h2v-2h-2Zm6 0a2 2 0 0 1 2-2h2a2 2 0 0 1 2 2v2a2 2 0 0 1-2 2h-2a2 2 0 0 1-2-2v-2Zm2 0h2v2h-2v-2Zm8-2a2 2 0 0 0-2 2v2a2 2 0 0 0 2 2h2a2 2 0 0 0 2-2v-2a2 2 0 0 0-2-2h-2Zm0 2v2h2v-2h-2Zm-18 8a2 2 0 0 1 2-2h2a2 2 0 0 1 2 2v2a2 2 0 0 1-2 2h-2a2 2 0 0 1-2-2v-2Zm2 2v-2h2v2h-2Zm8-4a2 2 0 0 0-2 2v2a2 2 0 0 0 2 2h2a2 2 0 0 0 2-2v-2a2 2 0 0 0-2-2h-2Zm2 2h-2v2h2v-2Zm4 0a2 2 0 0 1 2-2h2a2 2 0 0 1 2 2v2a2 2 0 0 1-2 2h-2a2 2 0 0 1-2-2v-2Zm2 2v-2h2v2h-2Z" clip-rule="evenodd"/><path fill="#333" fill-rule="evenodd" d="M16 6a1 1 0 0 0-1 1v3h-4a4 4 0 0 0-4 4v24a4 4 0 0 0 4 4h26a4 4 0 0 0 4-4V14a4 4 0 0 0-4-4h-2v3a1 1 0 1 1-2 0V7a1 1 0 1 0-2 0v3H19v3a1 1 0 1 1-2 0V7a1 1 0 0 0-1-1ZM9 38V21h30v17a2 2 0 0 1-2 2H11a2 2 0 0 1-2-2Z" clip-rule="evenodd"/></svg>