<svg xmlns="http://www.w3.org/2000/svg" width="48" height="48" fill="none"><path fill="#333" fill-rule="evenodd" d="M28.586 35H25v-2h7v7h-2v-3.586L24.414 42H36v2H12v-2h9.586l-7.293-7.293 1.414-1.414L23 40.586 28.586 35ZM24 4a1 1 0 0 1 1 1v7.771l2.229-2.515.827-2.37a1 1 0 0 1 1.888.659l-.892 2.556a.999.999 0 0 1-.195.334l-2.608 2.943a1 1 0 0 1-1.665-.261.996.996 0 0 1-1.168 0 1 1 0 0 1-1.665.262l-2.608-2.944a1 1 0 0 1-.195-.334l-.892-2.556a1 1 0 0 1 1.888-.66l.827 2.37L23 12.772V5a1 1 0 0 1 1-1Zm-1.786 14.796A1 1 0 1 1 23 20.634l-.223.096a1 1 0 0 1 .562 1.666l-1.001 1.078.435 2.084a1 1 0 0 1-.271.912l-1.524 1.524a1 1 0 0 1-1.415-1.415l1.142-1.141-.43-2.06a1 1 0 0 1 .245-.886l1.227-1.321-.92.393-1.487 1.402a1 1 0 0 1-.443.242l-2.204.554a1 1 0 0 1-.487-1.94l1.952-.49 1.427-1.345a1 1 0 0 1 .292-.191l2.336-1Zm3.537-.015a1 1 0 0 0-.716 1.868l.203.078a1 1 0 0 0-.488 1.755l1.282 1.073-.419 2.003a1 1 0 0 0 .272.912l1.524 1.524a1 1 0 1 0 1.414-1.415l-1.141-1.141.43-2.061a1 1 0 0 0-.337-.971l-1.555-1.302 1.254.48 1.598 1.406a1 1 0 0 0 .417.219l2.205.553a1 1 0 1 0 .487-1.94l-1.97-.494-1.55-1.364a1.002 1.002 0 0 0-.303-.183l-2.607-1Z" clip-rule="evenodd"/><path fill="#333" d="M26 16.715c0 3.038-.895 5.5-2 5.5s-2-2.462-2-5.5c0-3.037.895-5.5 2-5.5s2 2.463 2 5.5Z"/><path fill="#333" fill-rule="evenodd" d="M25.786 14.164v1.122c0 .854.336 2.042 1.29 3.02.976 1.001 2.51 1.694 4.738 1.694 2.123 0 3.55-.46 4.399-1.27.889-.848.986-1.923.745-2.684l-.195-.618-10.977-1.264Zm9.102 3.061a1.03 1.03 0 0 1-.055.057c-.31.295-1.118.718-3.019.718-1.794 0-2.774-.544-3.306-1.09a2.647 2.647 0 0 1-.36-.46l6.74.775Zm-12.674-3.061v1.122c0 .854-.336 2.042-1.29 3.02-.976 1.001-2.51 1.694-4.738 1.694-2.123 0-3.55-.46-4.399-1.27-.889-.848-.986-1.923-.745-2.684l.195-.618 10.977-1.264Zm-9.102 3.061a.994.994 0 0 0 .055.057c.31.295 1.118.718 3.019.718 1.794 0 2.774-.544 3.306-1.09.145-.15.264-.305.36-.46l-6.74.775Z" clip-rule="evenodd"/></svg>