<svg xmlns="http://www.w3.org/2000/svg" width="48" height="48" fill="none"><path fill="#333" d="M21 21a1 1 0 0 1 1-1h4a1 1 0 0 1 1 1v18a1 1 0 0 1-1 1h-4a1 1 0 0 1-1-1V21ZM34 9a1 1 0 0 1 1-1h4a1 1 0 0 1 1 1v30a1 1 0 0 1-1 1h-4a1 1 0 0 1-1-1V9Z"/><path fill="#333" fill-rule="evenodd" d="M48 0H0v48h48V0ZM22 18a3 3 0 0 0-3 3v18a3 3 0 0 0 3 3h4a3 3 0 0 0 3-3V21a3 3 0 0 0-3-3h-4ZM6 33a3 3 0 0 1 3-3h4a3 3 0 0 1 3 3v6a3 3 0 0 1-3 3H9a3 3 0 0 1-3-3v-6ZM35 6a3 3 0 0 0-3 3v30a3 3 0 0 0 3 3h4a3 3 0 0 0 3-3V9a3 3 0 0 0-3-3h-4Z" clip-rule="evenodd"/></svg>