<svg xmlns="http://www.w3.org/2000/svg" width="48" height="48" fill="none"><path fill="#333" d="M23.6 39.8a.6.6 0 1 1 0 1.2.6.6 0 0 1 0-1.2Zm.6-2.4a.6.6 0 1 0-1.2 0 .6.6 0 0 0 1.2 0Zm-.6-3.6a.6.6 0 1 1 0 1.2.6.6 0 0 1 0-1.2Zm.6-2.4a.6.6 0 1 0-1.2 0 .6.6 0 0 0 1.2 0Zm-.6-3.6a.6.6 0 1 1 0 1.2.6.6 0 0 1 0-1.2Zm.6-2.4a.6.6 0 1 0-1.2 0 .6.6 0 0 0 1.2 0Zm-.6-3.6a.6.6 0 1 1 0 1.2.6.6 0 0 1 0-1.2Zm.6-2.4a.6.6 0 1 0-1.2 0 .6.6 0 0 0 1.2 0Zm-.6-3.6a.6.6 0 1 1 0 1.2.6.6 0 0 1 0-1.2Zm.6-2.4a.6.6 0 1 0-1.2 0 .6.6 0 0 0 1.2 0Zm-.6-3.6a.6.6 0 1 1 0 1.2.6.6 0 0 1 0-1.2Zm.6-2.4a.6.6 0 1 0-1.2 0 .6.6 0 0 0 1.2 0Z"/><path fill="#333" fill-rule="evenodd" d="M48 0H0v48h48V0ZM16 4h7.153a.6.6 0 1 0 .894 0H32a4 4 0 0 1 4 4v32a4 4 0 0 1-4 4h-8.4a.6.6 0 1 0 0-1.2.6.6 0 0 0 0 1.2H16a4 4 0 0 1-4-4V8a4 4 0 0 1 4-4Z" clip-rule="evenodd"/><path fill="#333" d="M17.84 6.836a1.182 1.182 0 1 1 1.672 1.671l-1.671 1.672a1.182 1.182 0 0 1-1.672-1.672l1.672-1.671Zm0 5a1.182 1.182 0 1 1 1.672 1.671l-1.671 1.672a1.182 1.182 0 0 1-1.672-1.672l1.672-1.671Zm0 5a1.182 1.182 0 1 1 1.672 1.671l-1.671 1.672a1.182 1.182 0 0 1-1.672-1.672l1.672-1.671Zm0 5a1.182 1.182 0 1 1 1.672 1.671l-1.671 1.672a1.182 1.182 0 0 1-1.672-1.672l1.672-1.671Zm0 5a1.182 1.182 0 1 1 1.672 1.671l-1.671 1.672a1.182 1.182 0 0 1-1.672-1.672l1.672-1.671Zm0 5a1.182 1.182 0 1 1 1.672 1.671l-1.671 1.672a1.182 1.182 0 0 1-1.672-1.672l1.672-1.671Zm0 5a1.182 1.182 0 1 1 1.672 1.671l-1.671 1.672a1.182 1.182 0 0 1-1.672-1.672l1.672-1.671Zm12-30a1.182 1.182 0 1 1 1.672 1.671l-1.671 1.672a1.182 1.182 0 0 1-1.672-1.672l1.672-1.671Zm0 5a1.182 1.182 0 1 1 1.672 1.671l-1.671 1.672a1.182 1.182 0 0 1-1.672-1.672l1.672-1.671Zm0 5a1.182 1.182 0 1 1 1.672 1.671l-1.671 1.672a1.182 1.182 0 0 1-1.672-1.672l1.672-1.671Zm0 5a1.182 1.182 0 1 1 1.672 1.671l-1.671 1.672a1.182 1.182 0 0 1-1.672-1.672l1.672-1.671Zm0 5a1.182 1.182 0 1 1 1.672 1.671l-1.671 1.672a1.182 1.182 0 0 1-1.672-1.672l1.672-1.671Zm0 5a1.182 1.182 0 1 1 1.672 1.671l-1.671 1.672a1.182 1.182 0 0 1-1.672-1.672l1.672-1.671Zm0 5a1.182 1.182 0 1 1 1.672 1.671l-1.671 1.672a1.182 1.182 0 0 1-1.672-1.672l1.672-1.671Z"/></svg>