<svg xmlns="http://www.w3.org/2000/svg" width="48" height="48" fill="none"><path fill="#333" fill-rule="evenodd" d="M48 0H0v48h48V0ZM17 6.048h2v-2h-6v2h2v2h-2.17a3.001 3.001 0 1 0 0 2H15v2.083a6.002 6.002 0 0 0-5 5.917v2h12v-2a6.002 6.002 0 0 0-5-5.917v-2.083h5v-2h-5v-2Zm-7 37v-21h12v21a1 1 0 0 1-1 1H11a1 1 0 0 1-1-1Zm-1-34a1 1 0 1 1 2 0 1 1 0 0 1-2 0Zm21 8a4 4 0 0 0-4 4v6a4 4 0 0 0 8 0v-6a4 4 0 0 0-4-4Zm-2 4a2 2 0 1 1 4 0v6a2 2 0 0 1-4 0v-6Zm10 5h-3v-2h3a3 3 0 1 1 0 6 1 1 0 0 0-1 1v1h4v2h-5a1 1 0 0 1-1-1v-2a3 3 0 0 1 3-3 1 1 0 0 0 0-2Z" clip-rule="evenodd"/></svg>