<svg xmlns="http://www.w3.org/2000/svg" width="49" height="49" fill="none"><g clip-path="url(#a)"><path fill="#333" fill-rule="evenodd" d="M48.02 1.02.02.98l-.04 48 48 .04.04-48ZM13.013 8.95a2 2 0 0 1 2.002-1.998l18 .015a2 2 0 0 1 1.998 2.001l-.026 32a2 2 0 0 1-2.002 1.999l-18-.015a2 2 0 0 1-1.998-2.002l.026-32Zm11.018 2.03a1 1 0 0 0-1 .998l-.004 4a1 1 0 0 0 2 .002l.003-4a1 1 0 0 0-.999-1Zm-.009 11a1 1 0 0 0-1 .998l-.004 4a1 1 0 0 0 2 .002l.003-4a1 1 0 0 0-.999-1Zm-1.01 11.998a1 1 0 1 1 2 .002l-.003 4a1 1 0 0 1-2-.002l.003-4Z" clip-rule="evenodd"/></g><defs><clipPath id="a"><path fill="#fff" d="M.02.98h48v48h-48z"/></clipPath></defs></svg>