<svg xmlns="http://www.w3.org/2000/svg" width="48" height="48" fill="none"><path fill="#333" fill-rule="evenodd" d="M48 0H0v48h48V0ZM9 6a3 3 0 0 0-3 3v30a3 3 0 0 0 3 3h30a3 3 0 0 0 3-3V9a3 3 0 0 0-3-3H9Zm7 17a3 3 0 1 0 0-6 3 3 0 1 0 0 6Zm-3.744 4.24c-.21.211-.256.369-.256.487V31h-2v-3.273c0-.788.37-1.425.837-1.896.459-.461 1.05-.807 1.637-1.064C13.642 24.257 15.028 24 16 24c.971 0 2.358.257 3.526.767.587.257 1.178.603 1.637 1.064.468.471.837 1.108.837 1.896V31h-2v-3.273c0-.118-.047-.276-.256-.486-.218-.22-.564-.442-1.019-.641-.914-.4-2.028-.6-2.725-.6-.697 0-1.81.2-2.725.6-.455.198-.8.42-1.019.64ZM28 27.728c0-.118.047-.276.256-.486.218-.22.564-.442 1.019-.641.914-.4 2.028-.6 2.725-.6.697 0 1.81.2 2.725.6.455.198.8.42 1.019.64.21.211.256.369.256.487V31h2v-3.273c0-.788-.37-1.425-.837-1.896-.458-.461-1.05-.807-1.637-1.064C34.358 24.257 32.971 24 32 24c-.971 0-2.358.257-3.526.767-.587.257-1.178.603-1.637 1.064-.468.471-.837 1.108-.837 1.896V31h2v-3.273ZM35 20a3 3 0 1 1-6 0 3 3 0 1 1 6 0Zm-11 1a3 3 0 1 0 0-6 3 3 0 1 0 0 6Zm-1.303 3.995c-.283.028-.38.092-.451.171l-1.492-1.332c.525-.588 1.18-.774 1.748-.83.344-.033.77-.021 1.12-.012.142.004.272.008.378.008.106 0 .236-.004.379-.008.349-.01.775-.02 1.118.013.57.055 1.224.241 1.749.829l-1.492 1.332c-.07-.079-.168-.143-.451-.17a4.776 4.776 0 0 0-.554-.012l-.202.005c-.17.005-.363.011-.547.011-.184 0-.377-.006-.547-.01a33.01 33.01 0 0 0-.202-.006 4.776 4.776 0 0 0-.554.011Z" clip-rule="evenodd"/></svg>