<svg xmlns="http://www.w3.org/2000/svg" width="48" height="48" fill="none"><path fill="#333" fill-rule="evenodd" d="M48 0H0v48h48V0ZM9 42a1 1 0 1 0 0 2h30a1 1 0 1 0 0-2h-1V25a1 1 0 0 0-1-1h-4V10L17 4v16h-2v-7h-2v7h-2a1 1 0 0 0-1 1v21H9Zm3-20v20h5V22h-5Zm24 20h-2v-2h-3v2h-2V26h7v16ZM22 13h-2v2h2v-2Zm2 0h2v2h-2v-2Zm6 0h-2v2h2v-2Zm-10 4h2v2h-2v-2Zm6 0h-2v2h2v-2Zm2 0h2v2h-2v-2Zm-6 4h-2v2h2v-2Zm2 0h2v2h-2v-2Zm6 0h-2v2h2v-2Zm-10 4h2v2h-2v-2Zm6 0h-2v2h2v-2Zm-4 4h-2v2h2v-2Zm2 0h2v2h-2v-2Zm-4 4h2v2h-2v-2Zm6 0h-2v2h2v-2Zm-4 4h-2v2h2v-2Zm2 0h2v2h-2v-2Zm7-7h3v-2h-3v2Zm3 4h-3v-2h3v2Zm-3 4h3v-2h-3v2Z" clip-rule="evenodd"/></svg>