<svg xmlns="http://www.w3.org/2000/svg" width="48" height="48" fill="none"><path fill="#333" fill-rule="evenodd" d="M8 40V7H6v34a1 1 0 0 0 1 1h34v-2H8Z" clip-rule="evenodd"/><path fill="#333" fill-rule="evenodd" d="m14.772 27.136-7 8.5-1.544-1.272 7-8.5 1.544 1.272Zm9.843 1.287-6-2.5.77-1.846 6 2.5-.77 1.846Zm12.165-9.298-6 7.5-1.56-1.25 6-7.5 1.56 1.25Z" clip-rule="evenodd"/><path fill="#333" fill-rule="evenodd" d="M16 26a2 2 0 1 0 0-4 2 2 0 0 0 0 4Zm0 2a4 4 0 1 0 0-8 4 4 0 0 0 0 8Zm12 2a2 2 0 1 0 0-4 2 2 0 0 0 0 4Zm0 2a4 4 0 1 0 0-8 4 4 0 0 0 0 8Zm10-14a2 2 0 1 0 0-4 2 2 0 0 0 0 4Zm0 2a4 4 0 1 0 0-8 4 4 0 0 0 0 8Z" clip-rule="evenodd"/></svg>