<svg xmlns="http://www.w3.org/2000/svg" width="48" height="48" fill="none"><path fill="#333" fill-rule="evenodd" d="M14 6a2 2 0 0 0-2 2v28a2 2 0 0 0 2 2h11v2H14a4 4 0 0 1-4-4V8a4 4 0 0 1 4-4h20a4 4 0 0 1 4 4v28a4 4 0 0 1-4 4h-3v-2h3a2 2 0 0 0 2-2V8a2 2 0 0 0-2-2H14Z" clip-rule="evenodd"/><path fill="#333" fill-rule="evenodd" d="M18 11a1 1 0 0 1 1-1h10a1 1 0 1 1 0 2H19a1 1 0 0 1-1-1Zm-4 6a1 1 0 0 1 1-1h18a1 1 0 1 1 0 2H15a1 1 0 0 1-1-1Zm0 4a1 1 0 0 1 1-1h18a1 1 0 1 1 0 2H15a1 1 0 0 1-1-1Zm0 4a1 1 0 0 1 1-1h18a1 1 0 1 1 0 2H15a1 1 0 0 1-1-1Zm14 10a2 2 0 1 0 0-4 2 2 0 0 0 0 4Zm0 2a4 4 0 1 0 0-8 4 4 0 0 0 0 8Z" clip-rule="evenodd"/><path fill="#333" fill-rule="evenodd" d="M27 35h-2v9l3-1.5 3 1.5v-9h-2v5.764l-1-.5-1 .5V35Z" clip-rule="evenodd"/></svg>