<svg xmlns="http://www.w3.org/2000/svg" width="48" height="48" fill="none"><path fill="#333" fill-rule="evenodd" d="M24 42c9.941 0 18-8.059 18-18S33.941 6 24 6 6 14.059 6 24s8.059 18 18 18Zm0 2c11.046 0 20-8.954 20-20S35.046 4 24 4 4 12.954 4 24s8.954 20 20 20Z" clip-rule="evenodd"/><path fill="#333" fill-rule="evenodd" d="M13 24a1 1 0 0 1 1-1h20a1 1 0 1 1 0 2H14a1 1 0 0 1-1-1Z" clip-rule="evenodd"/><path fill="#333" fill-rule="evenodd" d="M24 13a1 1 0 0 1 1 1v20a1 1 0 1 1-2 0V14a1 1 0 0 1 1-1Z" clip-rule="evenodd"/></svg>