<svg xmlns="http://www.w3.org/2000/svg" width="48" height="48" fill="none"><path fill="#333" d="M12 8a4 4 0 0 1 4-4h16a4 4 0 0 1 4 4v32a4 4 0 0 1-4 4H16a4 4 0 0 1-4-4V8Z"/><path fill="#333" d="M15 24a1 1 0 1 1-2 0 1 1 0 0 1 2 0Zm4 0a1 1 0 1 1-2 0 1 1 0 0 1 2 0Zm4 0a1 1 0 1 1-2 0 1 1 0 0 1 2 0Zm4 0a1 1 0 1 1-2 0 1 1 0 0 1 2 0Zm4 0a1 1 0 1 1-2 0 1 1 0 0 1 2 0Zm4 0a1 1 0 1 1-2 0 1 1 0 0 1 2 0ZM18 10.5a1.5 1.5 0 1 1-3 0 1.5 1.5 0 0 1 3 0Zm5 0a1.5 1.5 0 1 1-3 0 1.5 1.5 0 0 1 3 0Zm5 0a1.5 1.5 0 1 1-3 0 1.5 1.5 0 0 1 3 0Zm5 0a1.5 1.5 0 1 1-3 0 1.5 1.5 0 0 1 3 0Zm-15 5a1.5 1.5 0 1 1-3 0 1.5 1.5 0 0 1 3 0Zm5 0a1.5 1.5 0 1 1-3 0 1.5 1.5 0 0 1 3 0Zm5 0a1.5 1.5 0 1 1-3 0 1.5 1.5 0 0 1 3 0Zm5 0a1.5 1.5 0 1 1-3 0 1.5 1.5 0 0 1 3 0Zm-15 16a1.5 1.5 0 1 1-3 0 1.5 1.5 0 0 1 3 0Zm5 0a1.5 1.5 0 1 1-3 0 1.5 1.5 0 0 1 3 0Zm5 0a1.5 1.5 0 1 1-3 0 1.5 1.5 0 0 1 3 0Zm5 0a1.5 1.5 0 1 1-3 0 1.5 1.5 0 0 1 3 0Zm-15 5a1.5 1.5 0 1 1-3 0 1.5 1.5 0 0 1 3 0Zm5 0a1.5 1.5 0 1 1-3 0 1.5 1.5 0 0 1 3 0Zm5 0a1.5 1.5 0 1 1-3 0 1.5 1.5 0 0 1 3 0Zm5 0a1.5 1.5 0 1 1-3 0 1.5 1.5 0 0 1 3 0Z"/></svg>