<svg xmlns="http://www.w3.org/2000/svg" width="48" height="48" fill="none"><path fill="#333" fill-rule="evenodd" d="M8 43a1 1 0 0 1 1-1h30a1 1 0 1 1 0 2H9a1 1 0 0 1-1-1Z" clip-rule="evenodd"/><path fill="#333" fill-rule="evenodd" d="M12 22v20h5V22h-5Zm-1-2a1 1 0 0 0-1 1v22a1 1 0 0 0 1 1h7a1 1 0 0 0 1-1V21a1 1 0 0 0-1-1h-7Z" clip-rule="evenodd"/><path fill="#333" fill-rule="evenodd" d="m17 4 16 6v14h-2V11.386l-12-4.5V42h8a1 1 0 0 0 1 1h5v1H17V4Z" clip-rule="evenodd"/><path fill="#333" d="M20 13h2v2h-2v-2Zm4 0h2v2h-2v-2Zm4 0h2v2h-2v-2Zm-8 4h2v2h-2v-2Zm4 0h2v2h-2v-2Zm4 0h2v2h-2v-2Zm-8 4h2v2h-2v-2Zm4 0h2v2h-2v-2Zm4 0h2v2h-2v-2Zm-8 4h2v2h-2v-2Zm4 0h2v2h-2v-2Zm-4 4h2v2h-2v-2Zm4 0h2v2h-2v-2Zm-4 4h2v2h-2v-2Zm4 0h2v2h-2v-2Zm-4 4h2v2h-2v-2Zm4 0h2v2h-2v-2Z"/><path fill="#333" fill-rule="evenodd" d="M29 26v16h7V26h-7Zm-1-2a1 1 0 0 0-1 1v18a1 1 0 0 0 1 1h9a1 1 0 0 0 1-1V25a1 1 0 0 0-1-1h-9Z" clip-rule="evenodd"/><path fill="#333" fill-rule="evenodd" d="M34 30h-3v-2h3v2Zm0 4h-3v-2h3v2Zm0 4h-3v-2h3v2Zm0 4h-3v-2h3v2ZM15 13v9h-2v-9h2Z" clip-rule="evenodd"/></svg>