<svg xmlns="http://www.w3.org/2000/svg" width="48" height="48" fill="none"><path fill="#333" fill-rule="evenodd" d="M13 12a3 3 0 0 1 3-3h10a9 9 0 0 1 4.306 16.904l4.377 8.754a3 3 0 0 1-5.366 2.684L24.146 27H19v9a3 3 0 1 1-6 0V12Zm3-1a1 1 0 0 0-1 1v24a1 1 0 1 0 2 0V26a1 1 0 0 1 1-1h6.764a1 1 0 0 1 .894.553l5.448 10.894a1 1 0 1 0 1.788-.894l-4.834-9.669a1 1 0 0 1 .525-1.377A7.003 7.003 0 0 0 26 11H16Zm1 3a1 1 0 0 1 1-1h8a5 5 0 0 1 0 10h-8a1 1 0 0 1-1-1v-8Zm2 1v6h7a3 3 0 1 0 0-6h-7Z" clip-rule="evenodd"/></svg>