<svg xmlns="http://www.w3.org/2000/svg" width="48" height="48" fill="none"><path fill="#333" d="M19 24a1 1 0 1 1-2 0 1 1 0 0 1 2 0Zm3 1a1 1 0 1 0 0-2 1 1 0 0 0 0 2Zm5-1a1 1 0 1 1-2 0 1 1 0 0 1 2 0Zm3 1a1 1 0 1 0 0-2 1 1 0 0 0 0 2Zm-6-8a3 3 0 1 0 0-6 3 3 0 0 0 0 6Z"/><path fill="#333" fill-rule="evenodd" d="M12 8a4 4 0 0 1 4-4h16a4 4 0 0 1 4 4v32a4 4 0 0 1-4 4H16a4 4 0 0 1-4-4V8Zm20-2a2 2 0 0 1 2 2v15a1 1 0 1 0 0 2v15a2 2 0 0 1-2 2H16a2 2 0 0 1-2-2V25a1 1 0 1 0 0-2V8a2 2 0 0 1 2-2h16Z" clip-rule="evenodd"/></svg>