<svg xmlns="http://www.w3.org/2000/svg" width="48" height="48" fill="none"><path fill="#333" fill-rule="evenodd" d="M13.02 11.985c.057-.71.242-1.384.531-2H6v2.481l4 3.03v26.52h28V15.531l4.5-3.03V9.984H24.449c.29.616.474 1.29.532 2h14.706L36 14.468v25.547H12V14.503l-3.324-2.518h4.343Z" clip-rule="evenodd"/><path fill="#333" fill-rule="evenodd" d="M20 26h-4v4h4v-4Zm-6-2v8h8v-8h-8Zm18 2h-6v14h6V26Zm-8-2v18h10V24H24Z" clip-rule="evenodd"/><path fill="#333" d="M6 41a1 1 0 0 0 1 1h34a1 1 0 1 0 0-2H7a1 1 0 0 0-1 1Z"/><path fill="#333" fill-rule="evenodd" d="M15 16h-5v-2h5v2Zm22.5 0H23v-2h14.5v2Z" clip-rule="evenodd"/><path fill="#333" fill-rule="evenodd" d="M25 12a6 6 0 1 1-12 0 6 6 0 0 1 12 0Zm-5-3v2h2v2h-2v2h-2v-2h-2v-2h2V9h2Z" clip-rule="evenodd"/></svg>