<svg xmlns="http://www.w3.org/2000/svg" width="48" height="48" fill="none"><path fill="#333" fill-rule="evenodd" d="M24 42c9.941 0 18-8.059 18-18S33.941 6 24 6 6 14.059 6 24s8.059 18 18 18Zm0 2c11.046 0 20-8.954 20-20S35.046 4 24 4 4 12.954 4 24s8.954 20 20 20Z" clip-rule="evenodd"/><path fill="#333" fill-rule="evenodd" d="M16.222 31.778a1 1 0 0 1 0-1.414l14.142-14.142a1 1 0 0 1 1.414 1.414L17.636 31.778a1 1 0 0 1-1.414 0Z" clip-rule="evenodd"/><path fill="#333" fill-rule="evenodd" d="M16.222 16.222a1 1 0 0 1 1.414 0l14.142 14.142a1 1 0 0 1-1.414 1.414L16.222 17.636a1 1 0 0 1 0-1.414Z" clip-rule="evenodd"/></svg>