<svg xmlns="http://www.w3.org/2000/svg" width="48" height="48" fill="none"><path fill="#333" fill-rule="evenodd" d="M24 40c8.837 0 16-7.163 16-16S32.837 8 24 8 8 15.163 8 24s7.163 16 16 16Zm0 2c9.941 0 18-8.059 18-18S33.941 6 24 6 6 14.059 6 24s8.059 18 18 18Z" clip-rule="evenodd"/><path fill="#333" fill-rule="evenodd" d="M14 31.5a4.5 4.5 0 0 1 4.5-4.5h11a4.5 4.5 0 1 1 0 9h-11a4.5 4.5 0 0 1-4.5-4.5Zm3 1.5a1 1 0 0 1 1-1h12a1 1 0 1 1 0 2H18a1 1 0 0 1-1-1Zm1-4a1 1 0 1 0 0 2h12a1 1 0 1 0 0-2H18Zm12.5-9a.5.5 0 1 0 0 1 .5.5 0 0 0 0-1Zm-2.5.5a2.5 2.5 0 1 1 5 0 2.5 2.5 0 0 1-5 0ZM17.5 20a.5.5 0 1 0 0 1 .5.5 0 0 0 0-1Zm-2.5.5a2.5 2.5 0 1 1 5 0 2.5 2.5 0 0 1-5 0Z" clip-rule="evenodd"/></svg>