<svg xmlns="http://www.w3.org/2000/svg" width="48" height="48" fill="none"><path fill="#333" fill-rule="evenodd" d="M29.656 8.442 8.443 29.656a2 2 0 0 0 0 2.828l7.07 7.071a2 2 0 0 0 2.83 0l21.212-21.213a2 2 0 0 0 0-2.828l-7.07-7.072a2 2 0 0 0-2.83 0Zm-22.628 19.8a4 4 0 0 0 0 5.656L14.1 40.97a4 4 0 0 0 5.656 0L40.97 19.756a4 4 0 0 0 0-5.657l-7.072-7.07a4 4 0 0 0-5.656 0L7.028 28.24Z" clip-rule="evenodd"/><path fill="#333" d="M16.928 24.706a1.25 1.25 0 1 1-1.768 1.768 1.25 1.25 0 0 1 1.768-1.768Zm2.475-2.475A1.25 1.25 0 1 1 17.635 24a1.25 1.25 0 0 1 1.768-1.768Zm2.475-2.475a1.25 1.25 0 1 1-1.768 1.768 1.25 1.25 0 0 1 1.768-1.768Zm2.475-2.475a1.25 1.25 0 1 1-1.769 1.768 1.25 1.25 0 0 1 1.769-1.768Zm2.474-2.475a1.25 1.25 0 1 1-1.767 1.768 1.25 1.25 0 0 1 1.767-1.768Zm2.475-2.474a1.25 1.25 0 1 1-1.767 1.767 1.25 1.25 0 0 1 1.767-1.767Zm3.182 3.182a1.25 1.25 0 1 1-1.768 1.767 1.25 1.25 0 0 1 1.768-1.767ZM14.453 27.18a1.25 1.25 0 1 1-1.768 1.769 1.25 1.25 0 0 1 1.768-1.768Zm-2.828 2.83-.53 2.297-1.768-1.767 2.298-.53Zm11.667 1.06a1.25 1.25 0 1 1-1.768 1.768 1.25 1.25 0 0 1 1.768-1.768Zm2.475-2.475a1.25 1.25 0 1 1-1.768 1.768 1.25 1.25 0 0 1 1.768-1.768Zm2.475-2.475a1.25 1.25 0 1 1-1.768 1.768 1.25 1.25 0 0 1 1.768-1.768Zm2.474-2.475a1.25 1.25 0 1 1-1.767 1.768 1.25 1.25 0 0 1 1.767-1.768Zm2.475-2.475a1.25 1.25 0 1 1-1.767 1.768 1.25 1.25 0 0 1 1.767-1.768Zm2.475-2.475a1.25 1.25 0 1 1-1.768 1.768 1.25 1.25 0 0 1 1.768-1.768Zm-3.889-8.838a1.25 1.25 0 1 1-1.768 1.768 1.25 1.25 0 0 1 1.768-1.768Zm6.364 6.363a1.25 1.25 0 1 1-1.767 1.768 1.25 1.25 0 0 1 1.767-1.767Zm-3.181-3.181a1.25 1.25 0 1 1-1.769 1.767 1.25 1.25 0 0 1 1.768-1.767ZM20.817 33.545a1.25 1.25 0 1 1-1.767 1.767 1.25 1.25 0 0 1 1.767-1.767Zm-2.475 2.475a1.25 1.25 0 1 1-1.768 1.767 1.25 1.25 0 0 1 1.768-1.767Zm-3.182-3.182a1.25 1.25 0 1 1-1.768 1.767 1.25 1.25 0 0 1 1.768-1.767Zm2.475-2.475a1.25 1.25 0 1 1-1.768 1.768 1.25 1.25 0 0 1 1.768-1.768Z"/></svg>