<svg xmlns="http://www.w3.org/2000/svg" width="48" height="48" fill="none"><path fill="#333" d="M18.105 16.257a1 1 0 1 1-2 0 1 1 0 0 1 2 0Zm-2.918 1.237a.5.5 0 1 0 0-1 .5.5 0 0 0 0 1Zm1.233.482a.5.5 0 1 1-1 0 .5.5 0 0 1 1 0Z"/><path fill="#333" fill-rule="evenodd" d="M9.693 21.994c1.18 1.527 4.627.84 7.698-1.533 3.072-2.374 4.606-5.536 3.426-7.063-1.18-1.527-4.628-.84-7.7 1.533-3.07 2.374-4.604 5.536-3.424 7.063Zm2.75-1.265c1.03-.205 2.38-.811 3.726-1.85 1.344-1.04 2.271-2.194 2.73-3.14.309-.637.324-.97.312-1.1-.123-.044-.45-.114-1.144.024-1.03.205-2.382.811-3.726 1.85-1.345 1.04-2.272 2.194-2.73 3.14-.31.637-.324.97-.313 1.1.124.045.45.114 1.144-.024Z" clip-rule="evenodd"/><path fill="#333" d="M27.775 30.38a1 1 0 1 0 0-2 1 1 0 0 0 0 2Zm2.048.099a.453.453 0 1 1-.906 0 .453.453 0 0 1 .906 0Z"/><path fill="#333" fill-rule="evenodd" d="M31.387 27.535c3.287 1.985 5.151 4.918 4.165 6.552-.987 1.634-4.451 1.35-7.738-.635-3.286-1.984-5.15-4.917-4.164-6.551.986-1.634 4.45-1.35 7.737.634Zm-1.034 1.713c1.437.867 2.476 1.894 3.03 2.768.362.567.421.887.428 1.02-.121.057-.432.152-1.102.097-1.032-.084-2.424-.525-3.86-1.393-1.437-.867-2.476-1.894-3.032-2.768-.36-.567-.42-.887-.427-1.02.122-.057.432-.152 1.102-.097 1.032.084 2.425.525 3.861 1.393Z" clip-rule="evenodd"/><path fill="#333" d="M28.952 17.51a1 1 0 1 0 0-2 1 1 0 0 0 0 2Zm-.274-3.01a.7.7 0 1 1-1.4 0 .7.7 0 0 1 1.4 0Z"/><path fill="#333" fill-rule="evenodd" d="M32.218 23.54c1.75-.817 1.833-4.333.188-7.851-1.646-3.519-4.398-5.707-6.148-4.89-1.749.819-1.832 4.334-.187 7.853 1.646 3.518 4.398 5.707 6.147 4.889Zm-.632-2.96c.025-1.051-.271-2.503-.992-4.044-.72-1.54-1.645-2.698-2.468-3.353-.556-.441-.878-.528-1.008-.546-.07.111-.21.414-.227 1.124-.025 1.051.271 2.503.992 4.043.72 1.54 1.645 2.699 2.468 3.353.556.442.878.529 1.008.546.07-.11.21-.414.227-1.123Z" clip-rule="evenodd"/><path fill="#333" d="M16.769 32.318a1 1 0 1 0 0-2 1 1 0 0 0 0 2Zm1.961.177a.453.453 0 1 1-.906 0 .453.453 0 0 1 .907 0Zm-2.833-2.498a.7.7 0 1 0 0-1.4.7.7 0 0 0 0 1.4Z"/><path fill="#333" fill-rule="evenodd" d="M20.568 30.618c1.784 3.55 1.8 7.146.035 8.033-1.764.887-4.64-1.272-6.425-4.82-1.784-3.55-1.8-7.146-.036-8.033 1.765-.887 4.642 1.271 6.426 4.82Zm-1.787.899c.783 1.558 1.13 3.041 1.135 4.125.004.784-.152 1.099-.22 1.202-.124-.006-.47-.07-1.098-.54-.866-.65-1.85-1.813-2.633-3.372-.784-1.559-1.13-3.041-1.135-4.125-.004-.784.152-1.1.22-1.202.124.006.47.07 1.098.54.866.65 1.85 1.813 2.633 3.372Z" clip-rule="evenodd"/><path fill="#333" fill-rule="evenodd" d="M24 44c11.046 0 20-8.954 20-20S35.046 4 24 4 4 12.954 4 24s8.954 20 20 20Zm0-2c9.941 0 18-8.059 18-18S33.941 6 24 6 6 14.059 6 24s8.059 18 18 18Z" clip-rule="evenodd"/></svg>