<svg width="48" height="48" viewBox="0 0 48 48" fill="none" xmlns="http://www.w3.org/2000/svg">
<path fill-rule="evenodd" clip-rule="evenodd" d="M6.00718 16.3318C6.11513 13.226 7.68046 9.73966 10.2174 7.98577C14.3163 5.14798 19.2459 5.52274 22.5551 8.09721C23.0807 8.50612 23.5654 8.97053 23.9995 9.48638C24.4334 8.97068 24.9179 8.50605 25.4434 8.09668C28.7526 5.51845 33.6824 5.13208 37.7815 7.98577C40.3185 9.73966 41.8838 13.226 41.9917 16.3318C42.348 26.3564 31.0965 36.1034 24 42C16.9343 36.0342 5.67523 26.3918 6.00718 16.3318ZM23.1104 38.617V35.5531H22.2215C20.7487 35.5531 19.5548 34.3587 19.5548 32.8853V31.1068C19.5548 29.6334 20.7487 28.439 22.2215 28.439H23.1104L23.1104 24.8819H17.777V22.2142C17.777 21.723 17.379 21.3249 16.8881 21.3249H15.1104C14.6194 21.3249 14.2215 21.723 14.2215 22.2142V24.8819H10.5386C11.4311 26.405 12.5259 27.9235 13.7694 29.4245C16.6035 32.8457 20.0326 35.9686 23.1104 38.617ZM9.59226 23.1034H12.4437V22.2142C12.4437 20.7408 13.6376 19.5464 15.1103 19.5464H16.8881C18.3609 19.5464 19.5548 20.7408 19.5548 22.2142V23.1034L23.1104 23.1034V17.7678H25.777C26.268 17.7678 26.6659 17.3697 26.6659 16.8786V15.1001C26.6659 14.6089 26.268 14.2108 25.777 14.2108H23.1104V11.5367L22.4694 10.7749C20.2083 8.08758 16.1209 7.10198 12.4562 8.97203C12.4379 8.9814 12.4196 8.99082 12.4014 9.00028L12.4035 8.99911C12.0494 9.18264 11.6994 9.39294 11.3555 9.63105L11.3544 9.63181C9.44624 10.951 8.09754 13.7825 8.00603 16.3996C8.00052 16.5674 7.99882 16.7355 8.00086 16.9037C8.00461 17.2136 8.02103 17.5243 8.04964 17.8356C8.20975 19.5777 8.75169 21.3403 9.59226 23.1034ZM24.8881 11.5372V12.4323H25.777C27.2498 12.4323 28.4437 13.6267 28.4437 15.1001V16.8786C28.4437 18.352 27.2498 19.5464 25.777 19.5464H24.8881L24.8881 23.1034H30.2215L30.2215 25.7712C30.2215 26.2623 30.6194 26.6605 31.1104 26.6605H32.8881C33.3791 26.6605 33.777 26.2623 33.777 25.7712V23.1034H38.4194C38.6156 22.6901 38.7953 22.2769 38.9576 21.8642C39.573 20.2993 39.9373 18.7409 39.9926 17.2047C40.0022 16.9367 40.0025 16.6694 39.993 16.4029L39.993 16.4013C39.902 13.7837 38.5531 10.9513 36.6445 9.63181L36.6392 9.6281C36.2812 9.37888 35.9165 9.16005 35.5475 8.97042L35.5497 8.97164C35.5315 8.96225 35.5132 8.9529 35.4949 8.94361C31.847 7.09842 27.7848 8.09455 25.5296 10.7749L24.8881 11.5372ZM37.4774 24.8819H35.5548V25.7712C35.5548 27.2445 34.3609 28.439 32.8882 28.439H31.1104C29.6376 28.439 28.4437 27.2445 28.4437 25.7712V24.8819L24.8881 24.8819V30.2175H22.2215C21.7305 30.2175 21.3326 30.6156 21.3326 31.1068V32.8853C21.3326 33.3764 21.7305 33.7745 22.2215 33.7745H24.8881V38.6408C27.973 36.0101 31.4126 32.8744 34.2487 29.4396C35.4925 27.9334 36.5866 26.4093 37.4774 24.8819Z" fill="black"/>
</svg>
