<svg width="48" height="48" viewBox="0 0 48 48" fill="none" xmlns="http://www.w3.org/2000/svg">
<path fill-rule="evenodd" clip-rule="evenodd" d="M6.00003 41C6.00003 41.5523 6.44775 42 7.00003 42L41 42C41.5523 42 42 41.5523 42 41L42 7C42 6.44772 41.5523 6 41 6L7 6.00003C6.44772 6.00003 6 6.44774 6 7.00003L6.00003 41ZM23.1111 8.00003V14.2222H25.7778C26.2687 14.2222 26.6667 14.6202 26.6667 15.1111V16.8889C26.6667 17.3798 26.2687 17.7778 25.7778 17.7778H23.1111L23.1111 23.1111L19.5556 23.1111V22.2207C19.5547 20.7487 18.3611 19.5556 16.8889 19.5556H15.1111C13.6383 19.5556 12.4444 20.7495 12.4444 22.2222V23.1111H8V8.00003L23.1111 8.00003ZM24.8889 30.2222V24.8889L28.4445 24.8889V25.7778L28.4445 25.7839C28.4478 27.2538 29.6404 28.4444 31.1111 28.4444H32.8889C34.3617 28.4444 35.5556 27.2505 35.5556 25.7778V24.8889H40V40H24.8889V33.7778H22.2222C21.7313 33.7778 21.3333 33.3798 21.3333 32.8889V31.1111C21.3333 30.6202 21.7313 30.2222 22.2222 30.2222H24.8889ZM22.2222 35.5556H23.1111V40L8.00003 40L8 24.8889H14.2222V22.2222C14.2222 21.7313 14.6202 21.3334 15.1111 21.3334H16.8889C17.3798 21.3334 17.7778 21.7313 17.7778 22.2222V24.8889H23.1111L23.1111 28.4445H22.2222C20.7495 28.4445 19.5556 29.6384 19.5556 31.1111V32.8889C19.5556 34.3617 20.7495 35.5556 22.2222 35.5556ZM32.8889 26.6667C33.3798 26.6667 33.7778 26.2687 33.7778 25.7778V23.1111H40V8L24.8889 8.00003L24.8887 12.5555H25.7776C27.2503 12.5555 28.4442 13.7494 28.4442 15.2222L28.4444 16.8889C28.4444 18.3617 27.2505 19.5556 25.7778 19.5556H24.8889L24.8889 23.1111H30.2222L30.2222 25.7778C30.2222 26.2687 30.6202 26.6667 31.1111 26.6667H32.8889Z" fill="black"/>
</svg>
