<svg width="48" height="48" viewBox="0 0 48 48" fill="none" xmlns="http://www.w3.org/2000/svg">
<path fill-rule="evenodd" clip-rule="evenodd" d="M31.5471 4L16.8797 4C15.7716 4 15.2071 5.34657 15.9978 6.13825L18.5062 8.64989L11.1164 16.0491C10.6279 16.5383 10.6279 17.3322 11.1164 17.8214L19.04 25.7551C19.5273 26.243 20.3166 26.243 20.8039 25.7551L28.1968 18.3528L30.6651 20.8243C31.4487 21.6088 32.7955 21.0576 32.7955 19.9381V5.25211C32.7955 4.55856 32.2345 4 31.5471 4ZM20.4527 7.76375L18.698 6.00686L30.7955 6.00686V18.1197L29.0788 16.4008C28.5914 15.9128 27.8022 15.9128 27.3148 16.4008L19.922 23.8031L13.0629 16.9353L20.4527 9.53603C20.9412 9.04687 20.9412 8.25291 20.4527 7.76375Z" fill="black"/>
<path fill-rule="evenodd" clip-rule="evenodd" d="M28.96 22.2449C28.4727 21.757 27.6835 21.757 27.1961 22.2449L19.8032 29.6472L17.3349 27.1757C16.5514 26.3912 15.2046 26.9424 15.2046 28.0619L15.2046 42.7479C15.2046 43.4415 15.7655 44 16.453 44H31.1203C32.2285 44 32.793 42.6534 32.0023 41.8618L29.4938 39.3501L36.8836 31.9509C37.3722 31.4617 37.3722 30.6678 36.8836 30.1786L28.96 22.2449ZM20.6852 31.5992L28.0781 24.1969L34.9372 31.0647L27.5474 38.464C27.0588 38.9531 27.0588 39.7471 27.5474 40.2362L29.302 41.9931H17.2046L17.2046 29.8803L18.9213 31.5992C19.4086 32.0872 20.1979 32.0872 20.6852 31.5992Z" fill="black"/>
</svg>
