<svg width="48" height="48" viewBox="0 0 48 48" fill="none" xmlns="http://www.w3.org/2000/svg">
<path d="M15.1515 7.00612C14.6527 5.99368 14.3069 4.96687 14.3069 4H16.3069C16.3069 4.52086 16.503 5.22384 16.9456 6.12221C17.3813 7.00672 18.016 8.00167 18.7993 9.08568C20.146 10.9497 21.8668 12.9899 23.6368 15.0885C23.9306 15.4369 24.226 15.7872 24.5211 16.1383C26.5722 18.5787 28.618 21.0722 30.0366 23.3337C30.7466 24.4657 31.3252 25.5792 31.665 26.6313C31.7046 26.7538 31.7413 26.8768 31.7749 27H32C33.1046 27 34 27.8954 34 29C34 30.1046 33.1046 31 32 31H31.3309C29.9682 33.7892 27.0447 36.3155 23.935 37.7387C22.0625 38.5957 19.9688 39.1147 18 38.9774V44H16V38.5806C14.9992 38.2358 14.0711 37.6638 13.2715 36.8134L14.7285 35.4433C16.6095 37.4438 19.8206 37.4222 23.1027 35.9201C26.3596 34.4295 29.1401 31.7008 29.9161 29.1633C30.0554 28.7078 30.0324 28.0838 29.7618 27.246C29.4931 26.4141 29.0083 25.4582 28.3423 24.3965C27.0088 22.2705 25.0523 19.8788 22.99 17.4251C22.7003 17.0803 22.4084 16.7343 22.1162 16.388C20.3506 14.2948 18.5728 12.1873 17.1781 10.257C16.3633 9.12926 15.6571 8.03241 15.1515 7.00612Z" fill="black"/>
<path d="M34.2185 38.5541C33.6042 39.4338 33 40.5619 33 41.596C33 42.9237 34.1193 44 35.5 44C36.8807 44 38 42.9237 38 41.596C38 40.5619 37.3958 39.4338 36.7815 38.5541C36.1462 37.6442 35.5 37 35.5 37C35.5 37 34.8538 37.6442 34.2185 38.5541Z" fill="black"/>
<path d="M32 34.7576C32 34.1371 32.3625 33.4603 32.7311 32.9324C33.1123 32.3865 33.5 32 33.5 32C33.5 32 33.8877 32.3865 34.2689 32.9324C34.6375 33.4603 35 34.1371 35 34.7576C35 35.5542 34.3284 36.2 33.5 36.2C32.6716 36.2 32 35.5542 32 34.7576Z" fill="black"/>
</svg>
