<svg width="48" height="48" viewBox="0 0 48 48" fill="none" xmlns="http://www.w3.org/2000/svg">
<path fill-rule="evenodd" clip-rule="evenodd" d="M11.7488 7.34053C9.49374 8.89889 8.10234 11.5449 8.00638 14.3044C7.749 22.1015 15.3314 28.2636 21.4409 33.2285C22.3352 33.9553 23.198 34.6565 24 35.3333C24.7208 34.7346 25.4898 34.1145 26.2862 33.4723C32.459 28.4948 40.2731 22.1936 39.9927 14.3044C39.8967 11.5449 38.5053 8.89889 36.2503 7.34053C32.661 4.84283 28.3552 6.15555 25.4157 8.65954C24.8974 9.10111 24.4215 9.57972 23.9995 10.081C23.5774 9.57957 23.1014 9.10119 22.5828 8.66008C19.6434 6.15955 15.3378 4.85676 11.7488 7.34053ZM22.9996 26.5392V31.9166L22.6122 31.6017C20.0321 29.5046 17.3166 27.2975 14.9984 24.8173C11.8728 21.4733 9.88475 18.0429 10.0052 14.3722C10.0808 12.2158 11.1752 10.168 12.8858 8.98587L12.8869 8.98512C14.4173 7.92604 16.1313 7.78555 17.8455 8.28208C19.6032 8.79125 21.2846 9.96143 22.4694 11.369L23.9995 13.1867L25.5296 11.369C26.7157 9.95989 28.398 8.78615 30.1552 8.27552C31.8679 7.77783 33.579 7.91823 35.1079 8.98217L35.1132 8.98587C36.8243 10.1683 37.9189 12.2169 37.9939 14.374L37.9939 14.3755C38.1238 18.0302 36.1425 21.4752 33.017 24.8313C30.6177 27.4076 27.7749 29.7007 25.1052 31.8541L24.9996 31.9394V28.408C25.2738 28.3774 25.6408 28.3294 26.0379 28.2579C26.4503 28.1837 26.9144 28.0807 27.3486 27.9383C27.7634 27.8021 28.2411 27.6016 28.6119 27.2905C28.9822 26.9798 29.2622 26.545 29.4681 26.1608C29.6837 25.7587 29.8655 25.3203 30.0102 24.9275C30.2812 24.1917 30.4473 23.5456 30.4716 23.4493C30.5311 23.2208 30.5092 22.9733 30.3999 22.7528C30.2202 22.3902 29.8396 22.1717 29.4359 22.1992L29.4319 22.1995L29.4241 22.2001L29.3974 22.202C29.3748 22.2038 29.3428 22.2063 29.3024 22.2098C29.2217 22.2168 29.1072 22.2275 28.9677 22.2428C28.6899 22.2732 28.3073 22.3222 27.8917 22.397C27.4793 22.4713 27.0152 22.5742 26.581 22.7167C26.1662 22.8528 25.6885 23.0533 25.3177 23.3645C25.2032 23.4605 25.0973 23.5685 24.9996 23.6831V21.408C25.2738 21.3774 25.6408 21.3294 26.0379 21.2579C26.4503 21.1837 26.9144 21.0807 27.3486 20.9383C27.7634 20.8021 28.2411 20.6016 28.6119 20.2905C28.9822 19.9798 29.2622 19.545 29.4681 19.1608C29.6837 18.7587 29.8655 18.3203 30.0102 17.9275C30.2812 17.1917 30.4473 16.5456 30.4716 16.4493C30.5311 16.2208 30.5092 15.9733 30.3999 15.7528C30.2202 15.3902 29.8396 15.1717 29.4359 15.1992L29.4319 15.1995L29.4241 15.2001L29.3974 15.202C29.3748 15.2038 29.3428 15.2063 29.3024 15.2098C29.2217 15.2168 29.1072 15.2275 28.9677 15.2428C28.6899 15.2732 28.3073 15.3222 27.8917 15.397C27.4793 15.4713 27.0152 15.5742 26.581 15.7167C26.1662 15.8528 25.6885 16.0533 25.3177 16.3645C24.9476 16.675 24.6676 17.1096 24.4617 17.4936C24.3739 17.6574 24.2917 17.8273 24.2152 17.9977C24.1368 17.7201 24.0081 17.2938 23.8381 16.8323C23.6934 16.4396 23.5116 16.0014 23.2961 15.5994C23.0902 15.2154 22.8103 14.7809 22.4402 14.4703C22.0694 14.1592 21.5916 13.9587 21.1768 13.8225C20.7427 13.6801 20.2786 13.5771 19.8661 13.5029C19.4505 13.4281 19.0679 13.379 18.7901 13.3486C18.6506 13.3334 18.5362 13.3227 18.4554 13.3157C18.415 13.3122 18.383 13.3096 18.3604 13.3079L18.3337 13.3059L18.3259 13.3053L18.3219 13.3051C17.918 13.2775 17.5372 13.4963 17.3577 13.8592C17.2486 14.0797 17.2268 14.3268 17.2863 14.5552C17.3106 14.6515 17.4767 15.2976 17.7477 16.0334C17.8924 16.4262 18.0742 16.8646 18.2897 17.2667C18.4956 17.6509 18.7757 18.0857 19.1459 18.3963C19.5167 18.7075 19.9945 18.908 20.4093 19.0441C20.8434 19.1866 21.3075 19.2895 21.7199 19.3638C22.1356 19.4386 22.5182 19.4876 22.796 19.518C22.8717 19.5263 22.94 19.5332 22.9996 19.539V22.1067C22.8417 21.8756 22.6563 21.6519 22.4402 21.4705C22.0694 21.1594 21.5916 20.9589 21.1768 20.8228C20.7427 20.6803 20.2786 20.5774 19.8661 20.5031C19.4505 20.4283 19.0679 20.3793 18.7901 20.3489C18.6506 20.3336 18.5362 20.3229 18.4554 20.3159C18.415 20.3124 18.383 20.3099 18.3604 20.3081L18.3337 20.3061L18.3259 20.3056L18.3219 20.3053C17.918 20.2778 17.5372 20.4966 17.3577 20.8595C17.2486 21.0799 17.2268 21.3271 17.2863 21.5554C17.3106 21.6517 17.4767 22.2979 17.7477 23.0337C17.8924 23.4265 18.0742 23.8649 18.2897 24.267C18.4956 24.6512 18.7757 25.0859 19.1459 25.3966C19.5167 25.7077 19.9945 25.9082 20.4093 26.0443C20.8434 26.1868 21.3075 26.2898 21.7199 26.364C22.1356 26.4388 22.5182 26.4879 22.796 26.5183C22.8717 26.5265 22.94 26.5335 22.9996 26.5392ZM20.0525 16.322C19.921 16.0766 19.797 15.793 19.6854 15.5039C19.9888 15.5635 20.2891 15.6362 20.5532 15.7228C20.8869 15.8324 21.0766 15.9369 21.1546 16.0024C21.2324 16.0677 21.3679 16.2357 21.5334 16.5444C21.6649 16.7897 21.789 17.0735 21.9007 17.3628C21.5973 17.3032 21.297 17.2305 21.0329 17.1438C20.6991 17.0343 20.5095 16.9297 20.4315 16.8643C20.3536 16.7989 20.218 16.6308 20.0525 16.322ZM26.7249 19.038C26.4609 19.1246 26.1606 19.1973 25.8572 19.2569C25.9688 18.9677 26.0929 18.6839 26.2244 18.4385C26.3899 18.1298 26.5254 17.9618 26.6032 17.8966C26.6813 17.8311 26.8709 17.7265 27.2047 17.617C27.4687 17.5303 27.769 17.4576 28.0724 17.398C27.9608 17.6871 27.8368 17.9708 27.7054 18.2161C27.5398 18.525 27.4042 18.6931 27.3264 18.7584C27.2483 18.8239 27.0587 18.9284 26.7249 19.038ZM25.8572 26.2569C26.1606 26.1973 26.4609 26.1246 26.7249 26.038C27.0587 25.9284 27.2483 25.8239 27.3264 25.7584C27.4042 25.6931 27.5398 25.525 27.7054 25.2161C27.8368 24.9708 27.9608 24.6871 28.0724 24.398C27.769 24.4576 27.4687 24.5303 27.2047 24.617C26.8709 24.7265 26.6813 24.8311 26.6032 24.8966C26.5254 24.9618 26.3899 25.1298 26.2244 25.4385C26.0929 25.6839 25.9688 25.9677 25.8572 26.2569ZM19.6854 22.5041C19.797 22.7932 19.921 23.0769 20.0525 23.3222C20.218 23.6311 20.3536 23.7992 20.4315 23.8645C20.5095 23.93 20.6991 24.0345 21.0329 24.1441C21.297 24.2307 21.5973 24.3034 21.9007 24.363C21.789 24.0737 21.6649 23.79 21.5334 23.5446C21.3679 23.2359 21.2324 23.0679 21.1546 23.0026C21.0766 22.9372 20.8869 22.8326 20.5532 22.7231C20.2891 22.6364 19.9888 22.5637 19.6854 22.5041Z" fill="black"/>
<path d="M8.95688 34.6349C9.37406 35.0562 9.78801 35.4743 10.1773 36.0068V37H16V36.0068C15.9019 35.2339 15.7299 33.8414 15.715 33.4543C15.6939 32.9098 14.9264 31.9175 14.9264 31.9175L12.5708 29.0888C12.5708 29.0888 11.904 28.4184 11.5224 27.6748C11.1409 26.9312 10.3289 27.8675 10.2209 28.5365C10.113 29.2056 10.3183 29.5582 10.3183 29.5582L11.6643 32.1046C11.6643 32.1046 10.1039 30.0703 9.61945 29.2521C9.37406 28.8377 9.30542 27.9602 9.22871 26.9795C9.15398 26.0243 9.07159 24.971 8.81071 24.152C8.28201 22.4924 6.7516 22.9079 6.48627 23.6494C6.22093 24.3909 5.92219 29.2905 6.01846 30.1074C6.09384 30.7471 6.49876 31.3727 6.9556 32.0784C7.08211 32.2739 7.21262 32.4755 7.3412 32.6853C7.85281 33.5198 8.40766 34.0802 8.95688 34.6349Z" fill="black"/>
<path d="M38.9899 34.6349C39.5373 34.0802 40.0903 33.5198 40.6002 32.6853C40.7283 32.4756 40.8583 32.2741 40.9843 32.0787C41.4397 31.3729 41.8434 30.7471 41.9185 30.1074C42.0145 29.2905 42.0744 24.3909 41.8099 23.6494C41.5455 22.9079 40.0202 22.4924 39.4932 24.152C39.2332 24.971 39.1511 26.0243 39.0766 26.9795C39.0002 27.9602 38.9317 28.8377 38.6872 29.2521C38.2044 30.0703 36.6491 32.1046 36.6491 32.1046L37.9906 29.5582C37.9906 29.5582 38.1952 29.2056 38.0877 28.5365C37.9801 27.8675 37.1708 26.9312 36.7905 27.6748C36.4102 28.4184 35.7456 29.0888 35.7456 29.0888L33.3979 31.9175C33.3979 31.9175 32.6329 32.9098 32.612 33.4543C32.6049 33.6361 32.4911 34.0397 32.3622 34.4967C32.2166 35.0128 32.0519 35.5969 32 36.0068V37H37.7735V36.0068C38.1615 35.4743 38.5741 35.0562 38.9899 34.6349Z" fill="black"/>
<path d="M32 41C32 41.5523 32.4477 42 33 42H37C37.5523 42 38 41.5523 38 41V39C38 38.4477 37.5523 38 37 38H33C32.4477 38 32 38.4477 32 39V41Z" fill="black"/>
<path d="M16 41C16 41.5523 15.5523 42 15 42H11C10.4477 42 10 41.5523 10 41L10 39C10 38.4477 10.4477 38 11 38H15C15.5523 38 16 38.4477 16 39V41Z" fill="black"/>
</svg>
