<svg width="24" height="24" viewBox="0 0 24 24" fill="none" xmlns="http://www.w3.org/2000/svg">
<path d="M8.78988 9.25C9.15367 9.64123 9.56173 9.96395 10.0109 10.2615L9.93599 10.3026C9.39601 10.5992 8.77653 10.9395 8.14879 11.3759C7.65133 10.9735 7.17442 10.4982 6.75208 9.91397C5.6512 8.39109 5 6.25454 5 3H7C7 3.64151 7.02746 4.22251 7.07823 4.75H13.0117C12.4341 5.13402 11.9503 5.64792 11.602 6.25H7.31205C7.44324 6.83119 7.61025 7.32509 7.80224 7.75H11.0622C11.0213 7.99391 11 8.24447 11 8.5C11 8.75553 11.0213 9.00609 11.0622 9.25H8.78988Z" fill="black"/>
<path fill-rule="evenodd" clip-rule="evenodd" d="M13.2101 14.75C12.8463 14.3588 12.4383 14.0361 11.9891 13.7385L12.064 13.6974C12.604 13.4008 13.2235 13.0605 13.8512 12.6241C14.3487 13.0265 14.8256 13.5018 15.2479 14.086C16.3488 15.6089 17 17.7455 17 21H15C15 20.3585 14.9725 19.7775 14.9218 19.25H7.07823C7.02746 19.7775 7 20.3585 7 21H5C5 17.7455 5.6512 15.6089 6.75208 14.086C7.82184 12.6062 9.24177 11.8255 10.4588 11.1564L10.5181 11.1238C10.8623 10.9344 11.1905 10.7528 11.5017 10.567C11.8172 11.1759 12.2677 11.7036 12.8135 12.1104C12.3805 12.3822 11.9495 12.6192 11.5412 12.8436L11.4819 12.8762C10.4242 13.458 9.51829 13.9667 8.78988 14.75L13.2101 14.75ZM7.80224 16.25C7.61025 16.6749 7.44324 17.1688 7.31205 17.75L14.688 17.75C14.5568 17.1688 14.3897 16.6749 14.1978 16.25L7.80224 16.25Z" fill="black"/>
<path d="M14.9745 4.03037C15.1469 4.01031 15.3222 4 15.5 4C16.0132 4 16.5063 4.0859 16.9657 4.2441C16.9884 3.8485 17 3.4342 17 3H15C15 3.36234 14.9912 3.70538 14.9745 4.03037Z" fill="black"/>
<path fill-rule="evenodd" clip-rule="evenodd" d="M15.5 12C16.1027 12 16.6698 11.8477 17.165 11.5794L19.2927 13.7072L20.707 12.293L18.5792 10.1652C18.8476 9.67002 19 9.10281 19 8.5C19 6.567 17.433 5 15.5 5C13.567 5 12 6.567 12 8.5C12 10.433 13.567 12 15.5 12ZM15.5 10C16.3284 10 17 9.32843 17 8.5C17 7.67157 16.3284 7 15.5 7C14.6716 7 14 7.67157 14 8.5C14 9.32843 14.6716 10 15.5 10Z" fill="black"/>
</svg>
