<svg width="24" height="24" viewBox="0 0 24 24" fill="none" xmlns="http://www.w3.org/2000/svg">
<path d="M12.2675 19.3131L13.5 20.5L14.7325 19.3221L14.7661 19.2898C19.1248 15.0997 22 12.3357 22 8.9455C22 6.17602 19.943 4 17.325 4C16.5208 4 15.7343 4.21532 15.035 4.59681C14.4481 4.91695 13.9227 5.35413 13.5 5.87929C13.0773 5.35413 12.5519 4.91695 11.965 4.59681C11.2657 4.21532 10.4792 4 9.675 4C7.057 4 5 6.17602 5 8.9455C5 9.65133 5.12463 10.33 5.36133 11H2V13H9.5L10.3868 11.8175L12.3617 15.2736L14.9806 12H17.5V10H14.0194L12.6383 11.7264L10.6132 8.18246L8.5 11H7.53329C7.15961 10.2563 7 9.59401 7 8.9455C7 7.17311 8.26608 6 9.675 6C10.5052 6 11.3671 6.41922 11.9421 7.13341L13.5 9.06878L15.0579 7.13341C15.6329 6.41922 16.4948 6 17.325 6C18.7339 6 20 7.17311 20 8.9455C20 10.0239 19.5587 11.1405 18.4252 12.6075C17.2935 14.0721 15.6543 15.6613 13.5045 17.7283C12.4523 16.7187 11.5222 15.823 10.7139 15H7.96964C9.12878 16.3022 10.5839 17.6981 12.2567 19.3027L12.2675 19.3131Z" fill="black"/>
</svg>
