<svg width="24" height="24" viewBox="0 0 24 24" fill="none" xmlns="http://www.w3.org/2000/svg">
<path d="M9 9V7H11V9H13V11H11V13H9V11H7V9H9Z" fill="black"/>
<path d="M7 16H17V14H7V16Z" fill="black"/>
<path d="M17 19H7V17H17V19Z" fill="black"/>
<path fill-rule="evenodd" clip-rule="evenodd" d="M14.7781 4H18C19.1046 4 20 4.89543 20 6V20C20 21.1046 19.1046 22 18 22H6C4.89543 22 4 21.1046 4 20V6C4 4.89543 4.89543 4 6 4H9.15228C9.56679 2.83389 10.6697 2 11.9652 2C13.2606 2 14.3636 2.83389 14.7781 4ZM6 6V20H18V6H6ZM11.9651 5.24899C11.9651 5.24899 11.2181 5.23161 11.2181 4.46715C11.2181 4.46715 11.2181 3.73743 11.9652 3.73743C11.9652 3.73743 12.7123 3.73743 12.7123 4.51927C12.7123 4.51927 12.6949 5.24899 11.9651 5.24899Z" fill="black"/>
</svg>
