<svg width="24" height="24" viewBox="0 0 24 24" fill="none" xmlns="http://www.w3.org/2000/svg">
<path fill-rule="evenodd" clip-rule="evenodd" d="M20.6615 3.25C20.4852 3.09441 20.2536 3 20 3H4C3.74639 3 3.51483 3.09441 3.33854 3.25H3.25V3.33854C3.09441 3.51483 3 3.74639 3 4V20C3 20.2536 3.09441 20.4852 3.25 20.6615V20.75H3.33854C3.51483 20.9056 3.74639 21 4 21H20C20.2536 21 20.4852 20.9056 20.6615 20.75H20.75V20.6615C20.9056 20.4852 21 20.2536 21 20V4C21 3.74639 20.9056 3.51483 20.75 3.33854V3.25H20.6615ZM19 5V11.25H18V10.5C18 10.4137 17.9913 10.3295 17.9746 10.2481C17.858 9.67848 17.3541 9.25 16.75 9.25H15.25C14.5596 9.25 14 9.80964 14 10.5V11.25H12.75L12.75 8.5H10.75V7.5H12.75V5H19ZM10 13.5V12.75H11.25V15.5H13.25V16.5H11.25V19H5V12.75H6V13.5C6 14.1904 6.55964 14.75 7.25 14.75H8.75C9.44035 14.75 10 14.1904 10 13.5ZM11.25 11.25H8.5V13.25H7.5V11.25H5V5H11.25V6L10.5 6C10.3274 6 10.163 6.03497 10.0134 6.09823C9.5648 6.28799 9.25 6.73223 9.25 7.25C9.25 7.24999 9.25 7.25 9.25 7.25V8.75C9.25 8.79314 9.25219 8.83578 9.25645 8.8778C9.32047 9.50812 9.85279 10 10.5 10H11.25V11.25ZM19 12.75H16.5V10.75H15.5V12.75H12.75V14H13.5C14.1041 14 14.608 14.4285 14.7246 14.9981C14.7413 15.0795 14.75 15.1637 14.75 15.25V16.75C14.75 17.4404 14.1904 18 13.5 18H12.75V19H19V12.75Z" fill="black"/>
</svg>
