<svg width="24" height="24" viewBox="0 0 24 24" fill="none" xmlns="http://www.w3.org/2000/svg">
<path d="M4.79613 11.5517C4.37584 10.6701 4.10488 9.78884 4.02482 8.9178C4.01051 8.76214 4.0023 8.60681 4.00043 8.45187C3.99941 8.36773 4.00026 8.28371 4.00301 8.19981C4.04877 6.89123 4.72367 5.47513 5.67775 4.81553C5.84333 4.70089 6.01174 4.59914 6.18207 4.50982L11.5552 9.5V9.625L11.5552 11.4267H11.4302M4.79613 11.5517H6.20833V11.4267M4.79613 11.5517L4.90897 11.4979C4.89765 11.4742 4.88644 11.4504 4.87535 11.4267M4.79613 11.5517V11.4267H4.87535M6.20833 11.4267H6.33333V11.1071C6.33333 10.3704 6.93028 9.77319 7.66666 9.77319H8.55555C9.29193 9.77319 9.88889 10.3704 9.88889 11.1071V11.4267H10.0139M6.20833 11.4267V11.1071C6.20833 10.3014 6.8612 9.64819 7.66666 9.64819H8.55555C9.36102 9.64819 10.0139 10.3014 10.0139 11.1071V11.4267M6.20833 11.4267H4.87535M10.0139 11.4267V11.5517L11.4302 11.5517V11.4267M10.0139 11.4267L11.4302 11.4267M11.4302 11.4267L11.4302 9.5V9.375H11.5552H12.8885C13.0649 9.375 13.208 9.23195 13.208 9.05537V8.16611C13.208 7.98953 13.0649 7.84648 12.8885 7.84648H11.5552H11.4302V7.72148L11.4302 5.81395L11.139 5.46791C10.0473 4.17042 8.04122 3.70144 6.25893 4.61072M6.25893 4.61072L4.12542 8.45036C4.12725 8.60189 4.13528 8.75391 4.1493 8.90636C4.22557 9.73628 4.47915 10.5792 4.87535 11.4267M6.25893 4.61072C6.08677 4.69997 5.91643 4.80231 5.7489 4.9183L5.74883 4.91835C4.83389 5.55088 4.17265 6.9262 4.12794 8.20409L6.25893 4.61072ZM2.87866 8.16156L2.87866 8.16178C2.79413 10.7234 4.18433 13.2163 6.01848 15.4303C7.85482 17.647 10.1537 19.6047 11.9193 21.0955L11.9993 21.1631L12.0799 21.0961C13.854 19.622 16.1557 17.66 17.9917 15.4366C19.8253 13.216 21.2115 10.7143 21.1208 8.16146C21.0657 6.57815 20.2696 4.79429 18.962 3.89018C16.8672 2.43194 14.3423 2.62724 12.6449 3.94973C12.4133 4.13012 12.1972 4.33148 11.9997 4.55243C11.8022 4.33142 11.5859 4.13016 11.3543 3.94994C9.65666 2.62923 7.13201 2.44009 5.0376 3.89007C3.72988 4.79416 2.9337 6.57816 2.87866 8.16156ZM8.875 12.441V12.566H9H11.4302L11.4302 13.318H11.1107C10.3053 13.318 9.6524 13.9712 9.6524 14.7769V15.6661C9.6524 16.4718 10.3053 17.125 11.1107 17.125H11.4302L11.4302 19.0355C9.94749 17.7517 8.32826 16.2589 6.98095 14.6325C6.41394 13.948 5.91013 13.2576 5.48953 12.566H7.22222H7.34722V12.441V11.1071C7.34722 10.9305 7.49029 10.7875 7.66667 10.7875H8.55555C8.73193 10.7875 8.875 10.9305 8.875 11.1071V12.441ZM14.625 11.5517V11.4267H14.5H12.5691V10.5143H12.8885C13.694 10.5143 14.3468 9.86106 14.3468 9.05538V8.16612C14.3468 7.36045 13.694 6.70723 12.8885 6.70723H12.5691L12.5691 5.81419L12.8604 5.46791C13.9495 4.17351 15.9445 3.70025 17.7181 4.59717C17.8974 4.68933 18.0764 4.79704 18.2508 4.91849L18.2512 4.91872C19.1663 5.55139 19.8272 6.9276 19.8716 8.20578L19.8716 8.20588C19.8762 8.33611 19.8761 8.46679 19.8714 8.59787C19.8443 9.34923 19.666 10.1144 19.3625 10.8864C19.2918 11.0662 19.2143 11.2463 19.1303 11.4267H16.2778H16.1528V11.5517V12.8856C16.1528 13.0622 16.0097 13.2052 15.8333 13.2052H14.9444C14.7681 13.2052 14.625 13.0622 14.625 12.8856L14.625 11.5517ZM12.4441 14.4572H12.5691V14.3322L12.5691 12.566L13.4861 12.566V12.8856C13.4861 13.6913 14.139 14.3445 14.9445 14.3445H15.8333C16.6388 14.3445 17.2917 13.6913 17.2917 12.8856V12.566H18.519C18.099 13.2599 17.5953 13.9532 17.028 14.6402C15.6795 16.2733 14.0552 17.7724 12.5691 19.0489L12.5691 16.1107V15.9857H12.4441H11.1107C10.9344 15.9857 10.7913 15.8427 10.7913 15.6661V14.7769C10.7913 14.6003 10.9344 14.4572 11.1107 14.4572H12.4441Z" fill="black" stroke="black" stroke-width="0.25"/>
</svg>
