<svg width="24" height="24" viewBox="0 0 24 24" fill="none" xmlns="http://www.w3.org/2000/svg">
<path fill-rule="evenodd" clip-rule="evenodd" d="M14.8336 2.25336C15.2601 2.3973 15.758 2.63539 16.1782 2.99988C16.493 2.87759 16.8263 2.78956 17.1714 2.73962C19.0306 2.47053 21.2909 3.43673 21.6084 5.63086C21.9063 7.68888 20.2589 9.19554 18.5191 9.59659L17.6198 12.4067C17.9115 13.0795 17.9795 13.3491 18.1578 14.0559C18.2327 14.3527 18.327 14.7265 18.4655 15.2395C18.7603 16.3321 18.8909 17.5321 18.9503 18.4345C18.9803 18.8908 18.9927 19.2821 18.9976 19.5605C19.0001 19.6999 19.0007 19.8114 19.0007 19.8892C19.0006 19.9281 19.0005 19.9586 19.0003 19.98L19 20.0051L18.9999 20.0124L18.9999 20.0157L18 20.0001C18.9999 20.016 18.9999 20.0159 18.9999 20.0157L18.984 21.0159L16.9842 20.9841L17.0001 19.9846L17.0002 19.9806L17.0004 19.963C17.0005 19.9468 17.0007 19.9217 17.0007 19.8883C17.0007 19.8216 17.0002 19.7222 16.9979 19.5959C16.9935 19.3431 16.9821 18.9843 16.9546 18.5657C16.8988 17.718 16.7794 16.6681 16.5346 15.7606C16.3727 15.161 16.2714 14.7594 16.197 14.4645C16.0455 13.8638 16.0058 13.7063 15.794 13.2212L12.3956 11.7033L9.20721 9.31874C8.86013 9.43269 8.50137 9.51465 8.14761 9.56585C7.2913 9.68979 6.4182 9.64321 5.67908 9.40023C5.03776 9.18939 3.99481 8.6385 3.82022 7.43224C3.64563 6.22597 4.48958 5.40198 5.04481 5.01796C5.68471 4.57538 6.50877 4.28316 7.36507 4.15922C7.39234 4.15527 7.41959 4.1515 7.44681 4.14791C7.81434 3.62393 8.3261 3.22516 8.81245 2.9395C9.57925 2.4891 10.5262 2.17157 11.5369 2.02527C12.7065 1.85599 13.8733 1.92926 14.8336 2.25336ZM11.7095 8.69275L13.0182 9.6715C13.3595 9.50328 13.5761 9.15562 13.5761 8.77454L13.5761 8.38615C13.226 8.48485 12.8622 8.56191 12.4908 8.61567C12.2285 8.65363 11.9674 8.67928 11.7095 8.69275ZM15.5415 9.22932C15.4616 9.75068 15.2462 10.2368 14.9239 10.6421L15.9394 11.0957L16.4296 9.56394C16.1219 9.48522 15.8224 9.37367 15.5415 9.22932ZM16.9996 4.30555L17.0118 4.30217C17.1327 4.26898 17.2578 4.24275 17.3863 4.22415C18.7402 4.02818 19.9659 4.75418 20.1239 5.84572C20.2819 6.93726 19.3124 7.98099 17.9584 8.17696C16.6044 8.37293 15.3787 7.64693 15.2207 6.55539C15.2045 6.44316 14.7609 6.21162 14.6669 6.27505C14.0709 6.67734 13.2309 6.99292 12.2759 7.13114C11.5108 7.24188 10.7842 7.22251 10.1729 7.09894C10.0939 7.08297 10.0132 7.11393 9.95968 7.1742C9.58555 7.59563 8.83333 7.95098 7.93274 8.08132C6.57877 8.27729 5.40218 7.89049 5.30475 7.21737C5.20733 6.54425 6.22596 5.83972 7.57994 5.64375C7.81065 5.61036 8.03621 5.59389 8.25216 5.59287C8.35709 5.59238 8.44555 5.51429 8.47506 5.4136C8.72571 4.55824 10.0577 3.75499 11.7518 3.5098C13.0877 3.31645 14.3061 3.51974 14.9984 3.98176C15.23 4.13636 15.4028 4.31994 15.5013 4.5273C15.543 4.61523 15.5715 4.70745 15.5854 4.80354C15.5951 4.87061 15.8172 4.96998 15.867 4.92405C15.9422 4.85473 16.0228 4.78915 16.1085 4.72783C16.3653 4.54392 16.6668 4.39837 16.9996 4.30555Z" fill="black"/>
<path d="M6.5 14.5C6.5 15.0523 6.05228 15.5 5.5 15.5C4.94772 15.5 4.5 15.0523 4.5 14.5C4.5 13.9477 4.94772 13.5 5.5 13.5C6.05228 13.5 6.5 13.9477 6.5 14.5Z" fill="black"/>
<path d="M9 12.5C9.55228 12.5 10 12.0523 10 11.5C10 10.9477 9.55228 10.5 9 10.5C8.44772 10.5 8 10.9477 8 11.5C8 12.0523 8.44772 12.5 9 12.5Z" fill="black"/>
<path d="M14 14.5C14 15.0523 14.4477 15.5 15 15.5C15.5523 15.5 16 15.0523 16 14.5C16 13.9477 15.5523 13.5 15 13.5C14.4477 13.5 14 13.9477 14 14.5Z" fill="black"/>
<path d="M6.5 17C6.5 16.4477 6.05228 16 5.5 16C4.94772 16 4.5 16.4477 4.5 17V19C4.5 20.1046 5.39543 21 6.5 21H8.5C9.05228 21 9.5 20.5523 9.5 20C9.5 19.4477 9.05228 19 8.5 19H6.5V17Z" fill="black"/>
<path d="M9 13C9.55228 13 10 13.4477 10 14V16H12C12.5523 16 13 16.4477 13 17C13 17.5523 12.5523 18 12 18H10C8.89543 18 8 17.1046 8 16V14C8 13.4477 8.44772 13 9 13Z" fill="black"/>
<path d="M14 17C14 16.4477 14.4477 16 15 16C15.5523 16 16 16.4477 16 17V19C16 20.1046 15.1046 21 14 21H12C11.4477 21 11 20.5523 11 20C11 19.4477 11.4477 19 12 19H14V17Z" fill="black"/>
</svg>
