<svg width="24" height="24" viewBox="0 0 24 24" fill="none" xmlns="http://www.w3.org/2000/svg">
<path fill-rule="evenodd" clip-rule="evenodd" d="M4.01953 16H4C4 14.9636 3.9982 14.5408 3.96981 14.291C3.95436 14.1551 3.95107 14.1437 3.81609 13.8785L3.81265 13.8717L3.80932 13.8649C3.2902 12.8056 3 11.6263 3 10.3846C3 5.68006 7.10631 2 12 2C16.8937 2 21 5.68006 21 10.3846C21 11.6272 20.7093 12.8074 20.1895 13.8674L20.1862 13.8741L20.1828 13.8807C20.0486 14.1444 20.0455 14.1553 20.0301 14.291C20.0018 14.5407 20 14.9636 20 16H19.9906V16.6953L20.002 16.6974V17.3257C20.002 17.9606 19.3799 18.3996 18.7973 18.652C18.5059 18.7782 18.2517 18.9894 18.0624 19.2627C17.873 19.5359 17.7557 19.8608 17.7233 20.2018C17.624 21.2455 17.4345 22.0022 16.3861 22.0003L15.4284 21.9986V21.992H8.57358V21.9986L7.61432 22.0003C6.56551 22.0022 6.37796 21.246 6.27865 20.2018C6.24622 19.8608 6.12894 19.5359 5.93958 19.2627C5.75023 18.9894 5.49603 18.7782 5.20463 18.652C4.62205 18.3996 4 17.9606 4 17.3257V16.6974L4.01953 16.6938V16ZM5 10.3846C5 6.93235 8.05714 4 12 4C15.9429 4 19 6.93235 19 10.3846C19 11.3088 18.7852 12.1864 18.397 12.9803L18.3949 12.9844C18.2397 13.2892 18.0997 13.5642 18.0428 14.0658C18.0405 14.0865 18.0383 14.1077 18.0362 14.1294C18.0066 14.2239 17.9906 14.3245 17.9906 14.4287V16.699C17.0675 16.8754 16.3773 17.1718 15.9998 17.7165C15.6232 18.2599 15.4306 19.0793 15.4284 19.992H8.57356C8.57138 19.0793 8.37872 18.2599 8.00216 17.7165C7.62581 17.1734 6.93851 16.8772 6.01953 16.7006V14.4287C6.01953 14.3084 5.99829 14.1931 5.95934 14.0862C5.95858 14.0792 5.95781 14.0721 5.95701 14.0652C5.9 13.5636 5.75972 13.288 5.6043 12.9827L5.60206 12.9783C5.21449 12.185 5 11.308 5 10.3846Z" fill="black"/>
<path fill-rule="evenodd" clip-rule="evenodd" d="M14.6986 13.1634C14.5885 13.2918 14.5 13.4961 14.5 13.75C14.5 14.0039 14.5885 14.2082 14.6986 14.3366C14.8069 14.463 14.9166 14.5 15 14.5C15.0834 14.5 15.1931 14.463 15.3014 14.3366C15.4115 14.2082 15.5 14.0039 15.5 13.75C15.5 13.4961 15.4115 13.2918 15.3014 13.1634C15.1931 13.037 15.0834 13 15 13C14.9166 13 14.8069 13.037 14.6986 13.1634ZM12.5 13.75C12.5 12.3814 13.4802 11 15 11C16.5198 11 17.5 12.3814 17.5 13.75C17.5 15.1186 16.5198 16.5 15 16.5C13.4802 16.5 12.5 15.1186 12.5 13.75Z" fill="black"/>
<path fill-rule="evenodd" clip-rule="evenodd" d="M8.6986 13.1634C8.58847 13.2918 8.5 13.4961 8.5 13.75C8.5 14.0039 8.58847 14.2082 8.6986 14.3366C8.80692 14.463 8.9166 14.5 9 14.5C9.0834 14.5 9.19308 14.463 9.3014 14.3366C9.41153 14.2082 9.5 14.0039 9.5 13.75C9.5 13.4961 9.41153 13.2918 9.3014 13.1634C9.19308 13.037 9.0834 13 9 13C8.9166 13 8.80692 13.037 8.6986 13.1634ZM6.5 13.75C6.5 12.3814 7.48022 11 9 11C10.5198 11 11.5 12.3814 11.5 13.75C11.5 15.1186 10.5198 16.5 9 16.5C7.48022 16.5 6.5 15.1186 6.5 13.75Z" fill="black"/>
<path d="M10.5 18.1379C10.5 18.5852 10.8363 19 11.2969 19C11.6005 19 11.8297 18.8321 11.9774 18.5889C11.9876 18.5721 12.0124 18.5721 12.0226 18.5889C12.1703 18.832 12.3995 19 12.7031 19C13.1637 19 13.5 18.5852 13.5 18.1379C13.5 17.1806 12 16.5 12 16.5C12 16.5 10.9896 16.9307 10.6273 17.6372C10.6013 17.6878 10.5787 17.7399 10.56 17.7934C10.5217 17.9027 10.5 18.0177 10.5 18.1379Z" fill="black"/>
</svg>
