<svg width="24" height="24" viewBox="0 0 24 24" fill="none" xmlns="http://www.w3.org/2000/svg">
<path d="M11.0001 9.5C11.0001 10.3284 10.3285 11 9.50006 11C8.67164 11 8.00006 10.3284 8.00006 9.5C8.00006 8.67157 8.67164 8 9.50006 8C10.3285 8 11.0001 8.67157 11.0001 9.5Z" fill="black"/>
<path d="M14.5001 11C15.3285 11 16.0001 10.3284 16.0001 9.5C16.0001 8.67157 15.3285 8 14.5001 8C13.6716 8 13.0001 8.67157 13.0001 9.5C13.0001 10.3284 13.6716 11 14.5001 11Z" fill="black"/>
<path fill-rule="evenodd" clip-rule="evenodd" d="M19.0001 8C19.0001 8.4024 18.9529 8.76725 18.8851 9.08616C18.8671 9.17076 18.8478 9.26043 18.8276 9.35413L18.8263 9.3605C18.6531 10.1636 18.4167 11.2602 18.4167 12V12.0417C18.4167 12.8471 17.7638 13.5 16.9584 13.5H16.7501C16.0597 13.5 15.5001 14.0596 15.5001 14.75C15.5001 15.4404 14.9404 16 14.2501 16H9.75006C9.05971 16 8.50006 15.4404 8.50006 14.75C8.50006 14.0596 7.94042 13.5 7.25006 13.5H7.04173C6.23631 13.5 5.5834 12.8471 5.5834 12.0417V11.0018C5.5834 10.6724 5.49418 10.3512 5.37111 10.0456C5.11403 9.40724 5.00006 8.71842 5.00006 8C5.00006 4.68628 8.13407 2 12.0001 2C15.8661 2 19.0001 4.68628 19.0001 8ZM13.587 14C13.9023 12.6652 15.0407 11.6484 16.4368 11.5149C16.5055 10.6155 16.7345 9.56432 16.8739 8.9244C16.8944 8.83032 16.9129 8.74513 16.9288 8.67062C16.9713 8.47034 17.0001 8.24549 17.0001 8C17.0001 6.06898 15.0618 4 12.0001 4C8.93829 4 7.00006 6.06898 7.00006 8C7.00006 8.50731 7.08033 8.93595 7.22631 9.29842C7.39983 9.72927 7.5834 10.3182 7.5834 11.0018V11.5169C8.97035 11.6582 10.0993 12.6716 10.4131 14H13.587Z" fill="black"/>
<path d="M4.72534 17.9615L8.36001 19L4.72534 20.0385L5.27478 21.9615L12.0001 20.04L18.7253 21.9615L19.2748 20.0385L15.6401 19L19.2748 17.9615L18.7253 16.0385L12.0001 17.96L5.27478 16.0385L4.72534 17.9615Z" fill="black"/>
</svg>
