<svg width="24" height="24" viewBox="0 0 24 24" fill="none" xmlns="http://www.w3.org/2000/svg">
<path d="M16.0301 6H4.00431V9.9375H4.38617L6.40883 6.71381L8.17349 10.2138L8.89586 9.0625H12.5071C12.3547 9.5139 12.2721 9.99732 12.2721 10.5C12.2721 10.6905 12.2839 10.8782 12.307 11.0625H10.0057L7.98307 14.2862L6.2184 10.7862L5.49603 11.9375H4.00431V15H16.0301V14.9378C16.2746 14.9787 16.5257 15 16.7818 15C17.2164 15 17.6367 14.9386 18.0345 14.8241V17H11.0194V18H13.0237C13.5772 18 14.0258 18.4477 14.0258 19C14.0258 19.5523 13.5772 20 13.0237 20H7.01077C6.45729 20 6.00861 19.5523 6.00861 19C6.00861 18.4477 6.45729 18 7.01077 18H9.01507V17H2V4H18.0345V6.17588C17.6367 6.06136 17.2164 6 16.7818 6C16.5257 6 16.2746 6.0213 16.0301 6.06222V6Z" fill="black"/>
<path fill-rule="evenodd" clip-rule="evenodd" d="M19.8677 12.1651C20.1366 11.6699 20.2893 11.1028 20.2893 10.5C20.2893 8.567 18.7189 7 16.7818 7C14.8446 7 13.2742 8.567 13.2742 10.5C13.2742 12.433 14.8446 14 16.7818 14C17.3858 14 17.9542 13.8476 18.4504 13.5793L20.5827 15.7071L22 14.2929L19.8677 12.1651ZM16.7818 12C17.612 12 18.285 11.3284 18.285 10.5C18.285 9.67157 17.612 9 16.7818 9C15.9516 9 15.2785 9.67157 15.2785 10.5C15.2785 11.3284 15.9516 12 16.7818 12Z" fill="black"/>
</svg>
