<svg width="24" height="24" viewBox="0 0 24 24" fill="none" xmlns="http://www.w3.org/2000/svg">
<path d="M12.9738 4.00088C13.3001 4.06532 13.62 4.16216 13.9287 4.29041C14.5402 4.54446 15.0958 4.91682 15.5638 5.38624C16.0318 5.85566 16.4031 6.41294 16.6564 7.02626C16.7842 7.3359 16.8808 7.65676 16.945 7.98402C16.9631 8.0758 16.9909 8.16552 17.0271 8.25022C17.2012 8.65681 17.5722 8.96079 18.02 8.96079C18.5612 8.96079 19.007 8.5186 18.9315 7.98104C18.9138 7.85484 18.8926 7.72916 18.8681 7.60416C18.8525 7.52485 18.8356 7.4458 18.8173 7.36707C18.7307 6.99458 18.6138 6.62895 18.4672 6.27394C18.1154 5.4221 17.5998 4.6481 16.9497 3.99614C16.2997 3.34417 15.5281 2.827 14.6788 2.47415C14.3248 2.3271 13.9603 2.2098 13.5889 2.12298C13.5104 2.10463 13.4316 2.08764 13.3526 2.07202C13.2279 2.0474 13.1026 2.02619 12.9768 2.0084C12.4409 1.93265 12 2.37979 12 2.92266C12 3.37178 12.3031 3.74395 12.7084 3.9185C12.7929 3.95486 12.8823 3.98276 12.9738 4.00088Z" fill="black"/>
<path d="M12 4.94874C9.79116 4.94874 7.99998 6.74394 7.99997 8.96005L7.99998 12.9729C7.99998 13.1558 7.9987 13.348 7.99741 13.5409C7.99538 13.846 7.99333 14.1532 7.99632 14.428C8.00122 14.8785 8.01919 15.3473 8.08884 15.7373C8.18621 16.2826 8.70584 16.6455 9.24948 16.5478C9.79311 16.4501 10.1549 15.9289 10.0575 15.3837C10.0196 15.1716 10.001 14.8481 9.9962 14.4061C9.99333 14.1423 9.9952 13.8734 9.9972 13.5873C9.99856 13.3918 9.99998 13.1882 9.99998 12.9728L9.99997 8.96005C9.99998 7.85248 10.8951 6.95477 12 6.95477C13.1045 6.95477 14 7.8529 14 8.9608V13.9759C14 14.5298 14.4477 14.9789 15 14.9789C15.5523 14.9789 16 14.5298 16 13.9759V8.9608C16 6.745 14.2091 4.94874 12 4.94874Z" fill="black"/>
<path d="M12 7.95778C12.5523 7.95778 13 8.40685 13 8.96079L13 13.975C13 14.3451 13.0982 14.8751 13.3817 15.2813C13.6248 15.6296 14.0633 15.9819 15 15.9819C15.5523 15.9819 16 16.4309 16 16.9849C16 17.5388 15.5523 17.9879 15 17.9879C13.4367 17.9879 12.3752 17.3372 11.7433 16.4317C11.1518 15.5841 11 14.6088 11 13.9759V8.96079C11 8.40685 11.4477 7.95778 12 7.95778Z" fill="black"/>
<path d="M8.24307 5.59103C8.18086 5.66074 8.1117 5.72324 8.03744 5.77754C7.68098 6.03822 7.20724 6.10984 6.8221 5.88074C6.35657 5.60383 6.19802 4.9954 6.53636 4.57168C6.6158 4.4722 6.69791 4.37493 6.78259 4.27997C6.83632 4.21972 6.89109 4.1604 6.94687 4.10204C7.21075 3.82594 7.49729 3.57129 7.80394 3.34095C8.11058 3.11061 8.43483 2.90646 8.77322 2.73016C8.84475 2.69289 8.91691 2.65686 8.98967 2.6221C9.10434 2.56731 9.22051 2.51565 9.33803 2.46718C9.83861 2.26074 10.3761 2.58453 10.51 3.11051C10.6209 3.54565 10.4191 3.98149 10.0694 4.25123C9.99654 4.30742 9.91728 4.35641 9.83309 4.39668C9.53287 4.54012 9.24629 4.7136 8.97883 4.91451C8.71138 5.11541 8.46477 5.34243 8.24307 5.59103Z" fill="black"/>
<path d="M7 7.95778C7 7.40383 6.55228 6.95477 6 6.95477C5.44772 6.95477 5 7.40383 5 7.95778V14.9788C5.00001 15.9914 5.21842 16.9991 5.64847 17.9302C6.3209 19.3861 7.47021 20.567 8.90506 21.2765C10.3399 21.9859 11.9737 22.1809 13.5345 21.8292C14.6107 21.5867 15.6074 21.0943 16.4485 20.3999C16.4702 20.382 16.4918 20.364 16.5132 20.3458C16.6144 20.2602 16.7133 20.1716 16.8097 20.0802C17.21 19.7005 17.1335 19.0648 16.7019 18.7214C16.3463 18.4383 15.861 18.4443 15.4656 18.6546C15.419 18.6794 15.3737 18.707 15.3299 18.7373C15.2945 18.7619 15.2601 18.7882 15.227 18.8162C14.616 19.3331 13.8865 19.699 13.0972 19.8769C11.9812 20.1284 10.813 19.9889 9.78712 19.4817C8.7612 18.9744 7.93945 18.13 7.45866 17.0891C7.11861 16.3528 7 15.4804 7.00026 14.7488C7.00224 14.7056 7.00213 14.6623 7 14.6194V7.95778Z" fill="black"/>
<path d="M19 10.9668C19 10.4129 18.5523 9.96381 18 9.96381C17.4477 9.96381 17 10.4129 17 10.9668V16.9849C17 17.5388 17.4477 17.9879 18 17.9879C18.5523 17.9879 19 17.5388 19 16.9849V10.9668Z" fill="black"/>
</svg>
