<svg width="24" height="24" viewBox="0 0 24 24" fill="none" xmlns="http://www.w3.org/2000/svg">
<path fill-rule="evenodd" clip-rule="evenodd" d="M15.5073 2H8.5561C7.78606 2 7.3933 2.93278 7.94311 3.4814L8.93608 4.47224L5.62972 7.77149C5.2901 8.11038 5.29009 8.6605 5.62972 8.9994L9.38489 12.7465C9.72362 13.0845 10.2721 13.0845 10.6109 12.7465L13.9195 9.44496L14.8943 10.4177C15.4388 10.961 16.375 10.5795 16.375 9.80371V2.86745C16.375 2.38685 15.985 2 15.5073 2ZM10.4444 3.85829L10.0854 3.5L14.875 3.5V8.27935L14.5325 7.93759C14.1938 7.59959 13.6453 7.59959 13.3065 7.93759L9.99788 11.2391L7.13805 8.38544L10.4444 5.08619C10.784 4.7473 10.784 4.19718 10.4444 3.85829Z" fill="black"/>
<path fill-rule="evenodd" clip-rule="evenodd" d="M14.6151 11.2535C14.2764 10.9155 13.7279 10.9155 13.3891 11.2535L10.0805 14.555L9.1057 13.5823C8.56123 13.039 7.625 13.4205 7.625 14.1963L7.625 21.1325C7.625 21.6132 8.01501 22 8.49271 22H15.4439C16.2139 22 16.6067 21.0672 16.0569 20.5186L15.0639 19.5278L18.3703 16.2285C18.7099 15.8896 18.7099 15.3395 18.3703 15.0006L14.6151 11.2535ZM10.6935 16.0624L14.0021 12.7609L16.862 15.6146L13.5556 18.9138C13.216 19.2527 13.216 19.8028 13.5556 20.1417L13.9146 20.5H9.125L9.125 15.7206L9.4675 16.0624C9.80622 16.4004 10.3547 16.4004 10.6935 16.0624Z" fill="black"/>
</svg>
