<svg width="24" height="24" viewBox="0 0 24 24" fill="none" xmlns="http://www.w3.org/2000/svg">
<path d="M10 8C10 6.89543 10.8954 6 12 6C13.1046 6 14 6.89543 14 8C14 9.10457 13.1046 10 12 10C10.8954 10 10 9.10457 10 8Z" fill="black"/>
<path fill-rule="evenodd" clip-rule="evenodd" d="M19.2 21C20.1941 21 21 20.1358 21 19.0698V8.68421C21 8.01434 20.6761 7.39236 20.1443 7.04094L12.9443 3.28694C12.3653 2.90435 11.6347 2.90435 11.0557 3.28694L3.8557 7.04094C3.32388 7.39236 3 8.01434 3 8.68421V19.0698C3 20.1358 3.80589 21 4.8 21H19.2ZM19.2 8.68421L12 4.93022L4.8 8.68421L4.8 19.0698H9.1707C9.01774 18.0427 8.875 17 8.875 17H7.49985C7.22371 17 6.99884 16.7755 7.00913 16.4996C7.12559 13.3767 8.37793 11 12 11C15.6221 11 16.8744 13.3767 16.9909 16.4996C17.0012 16.7755 16.7763 17 16.5002 17H15.125C15.125 17 14.9818 18.0429 14.8288 19.0698H19.2V8.68421ZM12.8854 18.5401C12.8627 18.694 12.8397 18.8485 12.8169 19H11.1826C11.1596 18.8476 11.1365 18.6922 11.1137 18.5373C11.0451 18.0717 10.9808 17.6192 10.9335 17.2825C10.9099 17.1144 10.8906 16.9755 10.8772 16.8789L10.8566 16.7292C10.7364 15.8515 10.0582 15.1713 9.20963 15.028C9.3438 14.4982 9.5343 14.1024 9.75729 13.8211C10.0838 13.4092 10.6686 13 12 13C13.3314 13 13.9162 13.4092 14.2427 13.8211C14.4657 14.1024 14.6562 14.4982 14.7904 15.028C13.9421 15.1713 13.264 15.8506 13.1436 16.728L13.1228 16.8785C13.1093 16.9754 13.0899 17.1146 13.0662 17.2831C13.0187 17.6204 12.9541 18.0738 12.8854 18.5401Z" fill="black"/>
</svg>
