<svg width="24" height="24" viewBox="0 0 24 24" fill="none" xmlns="http://www.w3.org/2000/svg">
<path fill-rule="evenodd" clip-rule="evenodd" d="M21.6644 10.6607L12 2L2.33565 10.6607C1.92286 11.0307 1.88568 11.6679 2.2526 12.0841C2.61952 12.5002 3.25159 12.5377 3.66437 12.1678L4 11.867V20.4877C4 21.3229 4.67157 22 5.5 22H18.5C19.3284 22 20 21.3229 20 20.4877V11.867L20.3356 12.1678C20.7484 12.5377 21.3805 12.5002 21.7474 12.0841C22.1143 11.6679 22.0771 11.0307 21.6644 10.6607ZM18 10.0747L12 4.69778L6 10.0747V19.9837H18V10.0747Z" fill="black"/>
<path d="M7.99999 12.6831C7.99999 11.2401 8.89687 9.90194 10.125 9.90194C10.9329 9.90194 11.5432 10.4414 11.937 11.223C11.9628 11.2741 12.0372 11.2741 12.0629 11.223C12.4568 10.4415 13.0671 9.90194 13.875 9.90194C15.1033 9.90194 16 11.2403 16 12.6831C16 15.7717 12 17.9673 12 17.9673C12 17.9673 9.30558 16.5779 8.33954 14.2987C8.27024 14.1352 8.20983 13.9671 8.15996 13.7946C8.05798 13.442 7.99999 13.0709 7.99999 12.6831Z" fill="black"/>
</svg>
