<svg width="24" height="24" viewBox="0 0 24 24" fill="none" xmlns="http://www.w3.org/2000/svg">
<path d="M14 5C14 6.105 13.105 7 12 7C10.895 7 10 6.105 10 5C10 3.895 10.895 3 12 3C13.105 3 14 3.895 14 5Z" fill="black"/>
<path d="M12.75 12.5V15.25H18C18.6904 15.25 19.25 15.8096 19.25 16.5V18.2007C19.6984 18.46 20 18.9448 20 19.5C20 20.3284 19.3284 21 18.5 21C17.6716 21 17 20.3284 17 19.5C17 18.9448 17.3016 18.46 17.75 18.2007V16.75H12.75V18.2007C13.1984 18.46 13.5 18.9448 13.5 19.5C13.5 20.3284 12.8284 21 12 21C11.1716 21 10.5 20.3284 10.5 19.5C10.5 18.9448 10.8016 18.46 11.25 18.2007V16.75H6.25V18.2007C6.69835 18.46 7 18.9448 7 19.5C7 20.3284 6.32843 21 5.5 21C4.67157 21 4 20.3284 4 19.5C4 18.9448 4.30165 18.46 4.75 18.2007V16.5C4.75 15.8096 5.30964 15.25 6 15.25H11.25V12.5H12.75Z" fill="black"/>
<path d="M12 8C10.665 8 8 8.67437 8 9.77778V11.1111H16V9.77778C16 8.67437 13.335 8 12 8Z" fill="black"/>
</svg>
