<svg width="24" height="24" viewBox="0 0 24 24" fill="none" xmlns="http://www.w3.org/2000/svg">
<path d="M7.67209 5.83718C6.85254 4.65363 6.15331 3.32338 6.15331 2H8.15331C8.15331 2.67662 8.53791 3.5744 9.31637 4.69861C10.0748 5.7939 11.0882 6.94154 12.1258 8.11152L12.1914 8.18551C13.1843 9.30489 14.2059 10.4567 14.9228 11.5162C15.2911 12.0605 15.6104 12.6249 15.8028 13.1879C15.8376 13.2897 15.8691 13.3939 15.8962 13.5H16C16.5523 13.5 17 13.9477 17 14.5C17 15.0523 16.5523 15.5 16 15.5H15.7174C15.0339 17.1161 13.439 18.6509 11.6249 19.4335C10.8069 19.7864 9.90938 19.9987 9 19.9923V22H7V19.5916C6.30509 19.3021 5.63336 18.8441 5.01709 18.1805L6.48268 16.8195C7.74611 18.1802 9.33253 18.2442 10.8326 17.5971C12.3983 16.9217 13.638 15.5532 13.9798 14.4354C14.0082 14.3423 14.022 14.1614 13.9103 13.8348C13.7986 13.5078 13.5861 13.1096 13.2664 12.637C12.6235 11.6869 11.6742 10.6165 10.6317 9.44102L10.6295 9.43857C9.61046 8.28955 8.51166 7.04966 7.67209 5.83718Z" fill="black"/>
<path d="M18.1092 19.277C17.8021 19.7169 17.5 20.2809 17.5 20.798C17.5 21.4618 18.0596 22 18.75 22C19.4404 22 20 21.4618 20 20.798C20 20.2809 19.6979 19.7169 19.3908 19.277C19.0731 18.8221 18.75 18.5 18.75 18.5C18.75 18.5 18.4269 18.8221 18.1092 19.277Z" fill="black"/>
<path d="M17 17.3788C17 17.0686 17.1812 16.7301 17.3655 16.4662C17.5561 16.1933 17.75 16 17.75 16C17.75 16 17.9439 16.1933 18.1345 16.4662C18.3188 16.7301 18.5 17.0686 18.5 17.3788C18.5 17.7771 18.1642 18.1 17.75 18.1C17.3358 18.1 17 17.7771 17 17.3788Z" fill="black"/>
</svg>
