<svg width="24" height="24" viewBox="0 0 24 24" fill="none" xmlns="http://www.w3.org/2000/svg">
<path fill-rule="evenodd" clip-rule="evenodd" d="M12.0037 2C12.1636 2 12.3138 2.0764 12.408 2.20556C12.4157 2.21608 12.678 2.57637 12.9406 3.03523C13.0717 3.26445 13.2083 3.52745 13.3133 3.78997C13.4146 4.0431 13.5045 4.33905 13.5045 4.62128C13.5045 4.90346 13.4146 5.19934 13.3134 5.45241C13.2084 5.71487 13.0719 5.97782 12.9407 6.207C12.9066 6.26675 12.8724 6.32483 12.8387 6.38069C13.0145 6.28654 13.2476 6.16666 13.5074 6.04634C13.788 5.91641 14.1066 5.78269 14.4216 5.68062C14.7294 5.5809 15.0676 5.5 15.3769 5.5C15.6862 5.5 16.0244 5.58091 16.3322 5.68063C16.6473 5.7827 16.9659 5.91643 17.2464 6.04637C17.5281 6.17684 17.7785 6.30681 17.9583 6.404C18.0484 6.4527 18.1213 6.49346 18.1721 6.52231C18.1975 6.53674 18.2175 6.54821 18.2313 6.55622L18.2474 6.5656L18.2519 6.56824L18.2533 6.56902C18.4057 6.65895 18.5 6.82312 18.5 7.00005C18.5 7.17698 18.4063 7.34081 18.2539 7.43073L18.2519 7.43186L18.2474 7.4345L18.2313 7.44387C18.2175 7.45189 18.1975 7.46336 18.1721 7.47779C18.1213 7.50664 18.0484 7.54739 17.9583 7.5961C17.7785 7.69328 17.5281 7.82325 17.2464 7.95371C16.9659 8.08365 16.6472 8.21737 16.3322 8.31944C16.0244 8.41916 15.6862 8.50006 15.3769 8.50006C15.0676 8.50006 14.7294 8.41915 14.4216 8.31943C14.1066 8.21735 13.788 8.08363 13.5074 7.95368C13.3225 7.86804 13.1511 7.78261 13.0042 7.70653V10H16.0059C16.5585 10 17.0065 10.4477 17.0065 11C17.0065 11.5523 16.5585 12 16.0059 12V18C16.0059 20.2091 14.2141 22 12.0037 22C9.79329 22 8.00141 20.2091 8.00141 18L8.00141 12C7.44882 12 7.00085 11.5523 7.00085 11C7.00085 10.4477 7.44882 10 8.00141 10H11.0031V7.70275C10.8547 7.77978 10.6806 7.86664 10.4926 7.95371C10.212 8.08365 9.89343 8.21737 9.5784 8.31944C9.27062 8.41916 8.93242 8.50006 8.6231 8.50006C8.31378 8.50006 7.97557 8.41915 7.66779 8.31943C7.35275 8.21735 7.03415 8.08363 6.7536 7.95368C6.47191 7.82321 6.22149 7.69324 6.04169 7.59605C5.95159 7.54735 5.87869 7.50659 5.82787 7.47774C5.80245 7.46331 5.78252 7.45184 5.76868 7.44382L5.75256 7.43444L5.74806 7.43181L5.74673 7.43103C5.59427 7.3411 5.5 7.17692 5.5 6.99999C5.5 6.82306 5.59368 6.65924 5.74615 6.56932L5.74807 6.56818L5.75257 6.56555L5.76869 6.55617C5.78253 6.54816 5.80246 6.53669 5.82788 6.52226C5.8787 6.49341 5.9516 6.45265 6.04171 6.40395C6.2215 6.30677 6.47192 6.17681 6.75361 6.04634C7.03416 5.91641 7.35276 5.78269 7.6678 5.68062C7.97557 5.5809 8.31378 5.5 8.6231 5.5C8.93242 5.5 9.27063 5.58091 9.5784 5.68063C9.89344 5.7827 10.212 5.91643 10.4926 6.04637C10.7577 6.16918 10.9952 6.29155 11.1721 6.38655C11.1374 6.3289 11.102 6.26884 11.0666 6.20699C10.9355 5.97781 10.799 5.71486 10.694 5.4524C10.5927 5.19933 10.5028 4.90345 10.5028 4.62128C10.5028 4.33905 10.5928 4.0431 10.6941 3.78997C10.7991 3.52745 10.9356 3.26445 11.0668 3.03523C11.3294 2.57637 11.5917 2.21608 11.5993 2.20556C11.6935 2.0764 11.8438 2 12.0037 2ZM10.0025 12V15H14.0048V12H10.0025ZM14.0048 17H10.0025V18C10.0025 19.1046 10.8985 20 12.0037 20C13.1089 20 14.0048 19.1046 14.0048 18V17Z" fill="black"/>
</svg>
