<svg width="24" height="24" viewBox="0 0 24 24" fill="none" xmlns="http://www.w3.org/2000/svg">
<path fill-rule="evenodd" clip-rule="evenodd" d="M14.52 9.06591C12.4736 9.66096 10.1901 9.66136 8.14349 9.06712C7.26812 10.0248 6.45554 11.1897 5.87378 12.3887C5.24343 13.6879 4.95231 14.8843 5.00636 15.8298C5.05541 16.6878 5.37737 17.356 6.13509 17.8807C6.98397 18.4685 8.56592 18.9986 11.3556 18.9986C12.5606 18.9986 13.538 18.8977 14.3271 18.7353L16.0926 20.3179C14.8845 20.751 13.3267 20.9986 11.3556 20.9986C-0.624978 20.9986 2.57538 12.0192 6.87021 7.5L5.03609 4.8C5.29474 4.63002 5.68412 4.4119 6.17453 4.18654C6.38051 4.09189 6.60432 3.99596 6.84375 3.90179C8.04649 3.42872 9.64345 3 11.3556 3C12.9825 3 14.497 3.38711 15.6669 3.83153C15.7226 3.8527 15.7776 3.874 15.8317 3.89539C16.6421 4.21563 17.2716 4.55702 17.6361 4.8L15.7891 7.5C17.4608 9.209 18.9833 11.6569 19.4908 14H17.4309C17.2826 13.4685 17.0655 12.9055 16.7813 12.3253C16.1951 11.1287 15.3823 9.98225 14.52 9.06591ZM13.5307 7.25911C12.1032 7.59736 10.5508 7.59696 9.12357 7.25792L8.86176 6.8725C9.77989 6.9578 10.7356 6.92035 11.6335 6.66061C12.5568 6.39349 13.4931 6.17514 14.3773 6.02157L13.5307 7.25911ZM15.5 4.9465C14.4524 4.9109 12.9286 5.00968 11.5124 5.16974C11.2294 5.20172 10.9335 5.25661 10.6319 5.31255C9.54964 5.51329 8.39376 5.72768 7.5 4.9465C8.07162 4.79973 9.64904 4.50824 11.4367 4.50017L11.5124 4.5C13.331 4.5 14.9286 4.79766 15.5 4.9465Z" fill="black"/>
<path d="M15.71 18.6319L16.7109 17.5153L17.603 18.3149V15.001H19.1027V18.3149L19.9947 17.5153L20.9957 18.6319L18.3528 21.001L15.71 18.6319Z" fill="black"/>
<path fill-rule="evenodd" clip-rule="evenodd" d="M10.75 18V17.4765C9.98969 17.361 9.36692 16.8305 9.11755 16.1249C8.97952 15.7344 9.18421 15.3059 9.57475 15.1679C9.96529 15.0298 10.3938 15.2345 10.5318 15.6251C10.5727 15.7407 10.6502 15.8386 10.75 15.9053V14.8515C9.7592 14.7009 9 13.8454 9 12.8125C9 11.7796 9.75921 10.9241 10.75 10.7735V10.25H12.25V10.7735C13.0103 10.889 13.6331 11.4195 13.8824 12.1251C14.0205 12.5156 13.8158 12.9441 13.4253 13.0821C13.0347 13.2202 12.6062 13.0155 12.4682 12.6249C12.4273 12.5093 12.3498 12.4114 12.25 12.3447V13.3985C13.2408 13.5491 14 14.4046 14 15.4375C14 16.4704 13.2408 17.3259 12.25 17.4765V18H10.75ZM12.5 15.4375C12.5 15.6325 12.4007 15.8044 12.25 15.9053V14.9697C12.4007 15.0706 12.5 15.2425 12.5 15.4375ZM10.5 12.8125C10.5 12.6175 10.5993 12.4456 10.75 12.3447V13.2803C10.5993 13.1794 10.5 13.0075 10.5 12.8125Z" fill="black"/>
</svg>
