<svg width="24" height="24" viewBox="0 0 24 24" fill="none" xmlns="http://www.w3.org/2000/svg">
<path fill-rule="evenodd" clip-rule="evenodd" d="M13.2295 7.14327C12.6143 6.70785 11.9256 6.67435 11.3367 6.84861C11.1042 6.91739 10.8839 7.01874 10.681 7.14294C10.6188 7.18097 10.5584 7.22114 10.4997 7.26318C10.4408 7.22111 10.3801 7.18092 10.3179 7.14289C10.115 7.01904 9.89479 6.91808 9.66254 6.84958C9.074 6.676 8.38615 6.70954 7.77132 7.14256C7.14506 7.58342 6.77717 8.31257 6.75165 9.05981L6.75161 9.06111C6.71441 10.2083 7.32918 11.1451 7.98576 11.8603C8.47801 12.3966 9.07867 12.8934 9.57489 13.3038C9.73327 13.4348 9.88102 13.557 10.0112 13.6688L10.4961 14.0855L10.9843 13.6727C11.1035 13.5719 11.2363 13.4629 11.378 13.3467C11.8865 12.9295 12.5082 12.4194 13.0185 11.8615C13.6747 11.1441 14.2879 10.204 14.2482 9.05981C14.2227 8.3128 13.8554 7.58417 13.2295 7.14327ZM11.7623 8.28696C11.5149 8.36017 11.2602 8.5366 11.078 8.757L10.4999 9.4562L9.92188 8.757C9.74016 8.53719 9.48582 8.36134 9.23821 8.28831C9.00823 8.22048 8.81163 8.2445 8.63491 8.36903C8.41593 8.5231 8.26144 8.80438 8.2508 9.11039C8.23292 9.66944 8.52874 10.2337 9.09076 10.846C9.50679 11.2991 9.98663 11.6963 10.4644 12.0917L10.5028 12.1235C10.992 11.7216 11.4878 11.3125 11.9117 10.8491C12.4739 10.2344 12.7685 9.66753 12.7491 9.11158C12.7386 8.80533 12.5845 8.5235 12.3654 8.36932L12.3633 8.3679C12.1872 8.24306 11.9917 8.21909 11.7623 8.28696Z" fill="black"/>
<path d="M15.75 13.5C16.1642 13.5 16.5 13.1642 16.5 12.75C16.5 12.3358 16.1642 12 15.75 12C15.3358 12 15 12.3358 15 12.75C15 13.1642 15.3358 13.5 15.75 13.5Z" fill="black"/>
<path fill-rule="evenodd" clip-rule="evenodd" d="M15.4538 3.93551C16.6095 4.40189 17.627 5.14318 18.4069 6.09433L18.4283 6.12045L18.4479 6.14796C19.1774 7.17144 19.5851 8.3786 19.6162 9.62505L19.6162 9.6266C19.6239 9.95735 19.6206 10.2343 19.6177 10.4765C19.61 11.1183 19.6053 11.5158 19.8166 12.021C19.8376 12.0422 19.8601 12.0653 19.884 12.0901C20.0096 12.2212 20.1789 12.4097 20.3457 12.6349C20.5097 12.8562 20.6913 13.1393 20.8208 13.4593C20.948 13.7737 21.0542 14.1963 20.9699 14.658C20.8782 15.1597 20.5898 15.5195 20.3129 15.756C20.04 15.9891 19.732 16.1444 19.4802 16.2474C19.4111 16.2757 19.3431 16.3013 19.2771 16.3244C19.1368 17.2954 18.7268 18.0587 18.0874 18.6027C17.3224 19.2535 16.3639 19.4736 15.5424 19.5269C14.7693 19.5771 14.0181 19.4864 13.45 19.3816C13.4305 19.418 13.4084 19.4567 13.3835 19.4973C13.2636 19.6931 13.0787 19.931 12.8019 20.1601C12.2388 20.6262 11.381 20.9864 10.1246 20.9933C9.41196 21.0396 8.57366 20.8403 7.86901 20.5292C7.1745 20.2226 6.36241 19.6981 5.97668 18.9134L5.87411 18.7048V16.0934C4.29624 14.8003 3 13.0031 3 10.6399C3 8.59732 3.85286 6.649 5.35355 5.22047C6.85244 3.79367 8.87526 3.00014 10.9748 3.00001C12.5199 2.99841 14.0481 3.31713 15.4538 3.93551ZM12.9357 17.2035L12.9411 17.2052L12.9771 17.2163C13.0107 17.2264 13.0631 17.2418 13.1316 17.2604C13.2689 17.2977 13.4685 17.3476 13.7091 17.395C14.1987 17.4914 14.8184 17.5697 15.4128 17.5311C16.018 17.4918 16.4863 17.3389 16.7914 17.0794C17.0588 16.8518 17.3311 16.4323 17.3311 15.5407V14.6817L18.1762 14.5527L18.1772 14.5526L18.1799 14.5521C18.1849 14.5513 18.1947 14.5496 18.2085 14.5469C18.2364 14.5416 18.28 14.5327 18.3341 14.5196C18.4453 14.4928 18.5864 14.4522 18.723 14.3963C18.8424 14.3474 18.9292 14.2987 18.9847 14.2582C18.9802 14.2445 18.9744 14.2283 18.9669 14.2096C18.9228 14.1007 18.8444 13.9681 18.7388 13.8257C18.6362 13.6872 18.5264 13.5641 18.4404 13.4744C18.3982 13.4304 18.3636 13.3963 18.3409 13.3746L18.3251 13.3596L18.3171 13.352L18.3143 13.3494L18.3136 13.3488L18.1691 13.2189L18.0836 13.0416C17.5796 11.997 17.5983 11.0186 17.6136 10.2175C17.6172 10.0258 17.6207 9.84407 17.6168 9.67416C17.596 8.84471 17.328 8.03393 16.8387 7.33623C16.2765 6.65979 15.5397 6.12462 14.6933 5.78536L14.6772 5.77889L14.6613 5.77186C13.5086 5.26261 12.2508 4.99863 10.9764 5.00001L10.9753 5.00001C9.3751 5.00001 7.84974 5.60558 6.7325 6.66909C5.61694 7.731 5 9.16045 5 10.6399C5 12.3164 5.97932 13.6892 7.47277 14.8054L7.87411 15.1054V18.1727C8.01345 18.325 8.27505 18.5222 8.67671 18.6995C9.19598 18.9288 9.71494 19.0198 10.0086 18.9965L10.048 18.9934H10.0876C10.9669 18.9934 11.366 18.7524 11.5267 18.6195C11.568 18.5852 11.5999 18.5529 11.624 18.5251V16.7733L12.9341 17.203L12.9357 17.2035Z" fill="black"/>
</svg>
