<svg width="24" height="24" viewBox="0 0 24 24" fill="none" xmlns="http://www.w3.org/2000/svg">
<path fill-rule="evenodd" clip-rule="evenodd" d="M13.0808 2.54004C14.1416 2.54004 16.1836 3.01832 17.2018 4.46575C18.0384 5.65521 18.1553 6.68653 17.9004 8.11485C17.7899 8.73398 17.6228 9.25149 17.3799 9.7091C17.8186 9.75059 18.2723 9.85976 18.768 10.039C20.1324 10.5324 20.9671 11.1493 21.5789 12.4686C22.3234 14.074 21.8934 15.7752 21.1862 17.0002C21.1862 17.0002 21.0429 14.5336 20.02 13.54C18.3334 11.9018 15.2508 12.0366 14.02 14.04C12.8237 15.9874 13.9032 18.6784 16.02 19.54C17.5265 20.1532 20.1254 18.8376 20.1254 18.8376C19.5949 19.7563 18.1597 21.2856 16.3972 21.4436C14.9487 21.5734 13.9971 21.159 12.8877 20.224C12.5287 19.9216 12.2346 19.6202 11.9942 19.3042C11.7538 19.6202 11.4596 19.9216 11.1007 20.224C9.99123 21.159 9.03965 21.5734 7.59121 21.4436C5.82863 21.2856 4.39343 19.7563 3.86303 18.8376C3.86303 18.8376 6.46184 20.1532 7.96836 19.54C10.0852 18.6784 11.1647 15.9874 9.96836 14.04C8.73761 12.0366 5.65494 11.9018 3.96836 13.54C2.9455 14.5336 2.80222 17.0002 2.80222 17.0002C2.09497 15.7752 1.66503 14.074 2.40947 12.4686C3.02124 11.1493 3.85595 10.5324 5.22038 10.039C5.73467 9.85303 6.20376 9.74249 6.65782 9.70471C6.41614 9.24818 6.24984 8.73201 6.13968 8.11485C5.88474 6.68653 6.00162 5.65521 6.83829 4.46575C7.85642 3.01832 9.54472 2.54004 10.9592 2.54004C10.9592 2.54004 8.89467 3.89744 8.54566 5.28004C7.97018 7.55979 9.62828 10.1621 11.9787 10.2262C14.2633 10.2885 16.0541 8.00819 15.7418 5.74414C15.5196 4.13287 13.0808 2.54004 13.0808 2.54004ZM10.5417 8.83401L9.80067 6.97635L9.79783 6.96672C10.4362 6.71221 11.1072 6.57157 11.7818 6.54477C11.9439 6.53833 12.1063 6.53847 12.2684 6.54518C12.9428 6.57312 13.6136 6.71486 14.2514 6.9704L14.2525 6.97084L13.5046 8.83652C12.5541 8.4555 11.4929 8.45479 10.5417 8.83401ZM9.68281 15.7862L8.51422 17.4093C7.9566 17.0077 7.47665 16.5168 7.09163 15.9623C6.99907 15.829 6.91195 15.692 6.8305 15.5516C6.49171 14.9678 6.25085 14.3259 6.12367 13.6507L6.12345 13.6495L8.09878 13.2779C8.28814 14.2842 8.85715 15.1792 9.68806 15.7777L9.68281 15.7862ZM15.9399 13.2841L17.9048 13.6573L17.9145 13.66C17.7862 14.3351 17.5442 14.9767 17.2044 15.56C17.1227 15.7002 17.0353 15.8371 16.9426 15.9702C16.5566 16.524 16.0767 17.0135 15.5185 17.4142L15.5175 17.4149L14.3458 15.7817C15.1779 15.1848 15.7487 14.2901 15.9399 13.2841ZM13.02 12.54C13.02 13.0923 12.5723 13.54 12.02 13.54C11.4677 13.54 11.02 13.0923 11.02 12.54C11.02 11.9878 11.4677 11.54 12.02 11.54C12.5723 11.54 13.02 11.9878 13.02 12.54Z" fill="black"/>
</svg>
