<svg width="24" height="24" viewBox="0 0 24 24" fill="none" xmlns="http://www.w3.org/2000/svg">
<path fill-rule="evenodd" clip-rule="evenodd" d="M20.5 13.4458C21.0523 13.4458 21.5 13.8914 21.5 14.4411C21.5 15.0004 21.297 15.8627 20.8654 16.6757C20.4253 17.5047 19.6805 18.4063 18.5081 18.8539C17.9925 19.0508 17.4141 18.7943 17.2163 18.2811C17.0185 17.7678 17.2762 17.1922 17.7919 16.9954C18.3695 16.7749 18.7997 16.3059 19.0971 15.7457C19.403 15.1695 19.5 14.6242 19.5 14.4411C19.5 13.8914 19.9477 13.4458 20.5 13.4458Z" fill="black"/>
<path fill-rule="evenodd" clip-rule="evenodd" d="M19.6013 11.895L19.6284 11.9432L19.6295 11.9451L19.6328 11.9509L19.6435 11.9696C19.6522 11.9847 19.6645 12.0058 19.6787 12.0298C19.7037 12.0717 19.7482 12.1451 19.7955 12.2124C19.9287 12.4019 20.2363 12.6735 20.7009 12.6338C21.0567 12.6034 21.2689 12.3993 21.3221 12.3465C21.4456 12.2239 21.507 12.0951 21.5152 12.0779L21.5159 12.0763C21.5476 12.0118 21.5664 11.9552 21.5709 11.9415L21.5713 11.9402C21.5851 11.899 21.5962 11.8579 21.6033 11.8312C21.6194 11.7703 21.6382 11.6918 21.6578 11.6046C21.6978 11.4275 21.7481 11.1853 21.7975 10.9161C21.8922 10.3997 22 9.69891 22 9.17295C22 7.37363 21.4362 5.61818 20.4498 4.29052C19.4602 2.9587 17.9918 2 16.2188 2C14.4356 2 13.0199 2.7802 12 4.06982C10.98 2.78015 9.56436 2 7.78125 2C6.00844 2 4.54001 2.95852 3.55039 4.29029C2.56387 5.61789 2 7.37336 2 9.17295C2 10.1356 2.14596 11.0536 2.39989 11.9205C2.52397 12.344 2.67368 12.755 2.84442 13.1527C4.02634 15.9055 6.23423 18.0674 8.07743 19.5157C9.00804 20.2469 9.86714 20.8129 10.4952 21.1971C10.8096 21.3894 11.0673 21.5369 11.2485 21.6374C11.3392 21.6877 11.4108 21.7263 11.461 21.7529C11.486 21.7662 11.5057 21.7765 11.5198 21.7838L11.5366 21.7925L11.5417 21.7951L11.5441 21.7963L12 22L12.409 21.8188L12.4134 21.8168L12.4286 21.81L12.4836 21.7851C12.5308 21.7636 12.5986 21.7324 12.6837 21.6924C12.8537 21.6126 13.0933 21.4974 13.376 21.3542C13.938 21.0696 14.6848 20.6669 15.3953 20.2055C16.3951 19.5563 16.1907 18.2151 15.3655 17.6806C14.452 17.089 12.9706 15.935 12.3094 14.4436C12.2444 14.2971 12.1888 14.1488 12.1434 13.9987C12.0508 13.6927 12 13.3772 12 13.0511C12 12.4544 12.1965 11.8976 12.494 11.5098C12.7875 11.1275 13.1327 10.9576 13.4687 10.9576C13.6228 10.9576 13.9051 11.0495 14.258 11.3366C14.5953 11.6109 14.8896 11.979 15.0652 12.3168C15.457 13.0708 16.5436 13.0724 16.9355 12.3153C17.1134 11.9718 17.4032 11.6034 17.7321 11.3312C18.076 11.0466 18.3492 10.9576 18.5 10.9576C18.7844 10.9576 18.9611 11.0314 19.0972 11.1372C19.2497 11.2558 19.4188 11.4688 19.5801 11.8454L19.6013 11.895ZM4.31995 11.3633C4.11497 10.6635 4 9.93313 4 9.17295C4 5.30429 6.5 3.99058 8 3.99058C10.6808 3.99058 12 6.4788 12 6.4788C12.7548 4.91061 14.803 3.99058 16.2188 3.99058C17.2093 3.99058 18.1315 4.5183 18.8417 5.47409C19.555 6.43406 20 7.76744 20 9.17295C20 9.2252 19.9981 9.28286 19.9945 9.34494C19.5506 9.09181 19.0471 8.96703 18.5 8.96703C17.6931 8.96703 16.9777 9.36668 16.4533 9.8007C16.2927 9.93366 16.1393 10.0785 15.9951 10.2315C15.8467 10.0762 15.6887 9.92955 15.5237 9.79534C14.9933 9.3638 14.2724 8.96703 13.4687 8.96703C12.378 8.96703 11.4889 9.54023 10.9046 10.3016C10.3244 11.0576 10 12.0453 10 13.0511C10 13.5865 10.0839 14.0952 10.2283 14.5725C10.2988 14.8056 10.3835 15.0306 10.4796 15.2473C11.2235 16.9252 12.6379 18.1811 13.6655 18.9302C13.2394 19.1795 12.8209 19.4019 12.4689 19.5801C12.3073 19.662 12.1611 19.7339 12.0365 19.794C11.8996 19.7156 11.7331 19.6178 11.5424 19.5012C10.9658 19.1485 10.1734 18.6265 9.31674 17.9533C7.58533 16.5928 5.6752 14.6802 4.68355 12.3705C4.54243 12.0418 4.42032 11.7059 4.31995 11.3633Z" fill="black"/>
</svg>
