<svg width="24" height="24" viewBox="0 0 24 24" fill="none" xmlns="http://www.w3.org/2000/svg">
<path fill-rule="evenodd" clip-rule="evenodd" d="M9 4.99977C9 4.59427 9.15182 4.2528 9.35647 4.11574C9.50662 4.01517 10.0692 3.78019 11.5461 4.53249C12.0382 4.78317 12.6404 4.58744 12.8911 4.09532C13.1417 3.6032 12.946 3.00105 12.4539 2.75037C10.7308 1.87266 9.29339 1.75088 8.24354 2.454C7.24818 3.12062 7 4.27356 7 5L5.00002 5C4.44773 5 3.99185 5.4506 4.08134 5.99558C4.17607 6.57243 4.35297 7.13797 4.60898 7.67879C5.01102 8.52806 5.60029 9.29974 6.34316 9.94975C7.08603 10.5998 7.96795 11.1154 8.93855 11.4672C9.59963 11.7068 10.293 11.8672 11 11.9451V15H13V11.9451C13.6616 11.8722 14.3113 11.727 14.9338 11.5123C14.7964 12.0323 14.4548 12.4694 14 12.7324V14.874C15.7252 14.4299 17 12.8638 17 11C17 10.8345 16.9598 10.6784 16.8887 10.541C17.1583 10.3588 17.415 10.1614 17.6569 9.94975C18.3997 9.29974 18.989 8.52806 19.3911 7.67878C19.6471 7.13797 19.824 6.57243 19.9187 5.99558C20.0082 5.4506 19.5523 5 19 5L9 4.99977ZM7.66017 8.4446C7.16816 8.01408 6.78096 7.52291 6.50517 7L17.4949 7C17.2191 7.52291 16.8319 8.01408 16.3399 8.44459C15.7922 8.92378 15.1282 9.31568 14.38 9.58685C13.6329 9.85763 12.8248 9.99958 12.0037 10H11.9963C11.1752 9.99958 10.3672 9.85763 9.62004 9.58685C8.87186 9.31568 8.20781 8.92378 7.66017 8.4446Z" fill="black"/>
<path d="M7 20H10.9997C10.9997 19.788 11.0676 19.5834 11.189 19.4148C11.2733 19.2977 11.3835 19.1981 11.5146 19.1255C11.5747 19.092 11.6387 19.0646 11.7057 19.044L13.889 18.3162C13.9553 18.2941 14 18.2321 14 18.1623C14 18.0727 13.9273 18 13.8377 18H9.5C8.11929 18 7 16.8807 7 15.5C7 14.1193 8.11929 13 9.5 13H10V15H9.5C9.22386 15 9 15.2239 9 15.5C9 15.7761 9.22386 16 9.5 16H13.8377C15.0319 16 16 16.9681 16 18.1623C16 18.9219 15.6033 19.6119 14.9774 20H17V22H7L7 20Z" fill="black"/>
</svg>
