<svg width="24" height="24" viewBox="0 0 24 24" fill="none" xmlns="http://www.w3.org/2000/svg">
<path d="M9.19315 17.6426L10.6074 16.2284L9.19315 14.8141L10.6074 13.3999L12.0216 14.8142L13.4358 13.3999L14.85 14.8141L13.4358 16.2284L14.85 17.6426L13.4358 19.0568L12.0216 17.6426L10.6074 19.0568L9.19315 17.6426Z" fill="black"/>
<path fill-rule="evenodd" clip-rule="evenodd" d="M15 6.00018V4.00018C15.5523 4.00018 16 3.55247 16 3.00018C16 2.4479 15.5523 2.00018 15 2.00018L9 2.00018C8.44772 2.00018 8 2.4479 8 3.00018C8 3.55247 8.44772 4.00018 9 4.00018V6.00018C7.34315 6.00018 6 7.34333 6 9.00018L6 20.0002C6 21.1048 6.89543 22.0002 8 22.0002H16C17.1046 22.0002 18 21.1048 18 20.0002L18 9.00018C18 7.34333 16.6569 6.00018 15 6.00018ZM11 4.00018L13 4.00018L13 8.00018L15 8.00018C15.5523 8.00018 16 8.4479 16 9.00018V10.0002L8 10.0002V9.00018C8 8.4479 8.44772 8.00018 9 8.00018H11L11 4.00018ZM8 12.0002L16 12.0002V20.0002H8L8 12.0002Z" fill="black"/>
</svg>
