<svg width="24" height="24" viewBox="0 0 24 24" fill="none" xmlns="http://www.w3.org/2000/svg">
<path fill-rule="evenodd" clip-rule="evenodd" d="M13.498 3.62141C14.6806 2.92933 16.1147 2.69238 17.3539 3.55674C18.342 4.24115 18.9517 5.40324 18.9937 6.61523C19.1166 10.0801 15.6928 12.8474 12.9881 15.0335C12.6392 15.3156 12.3021 15.588 11.9863 15.8509C11.6349 15.5537 11.2569 15.2458 10.865 14.9266C8.18811 12.746 4.8657 10.0396 4.97848 6.61523C5.02052 5.40324 5.63018 4.24115 6.61826 3.55674C7.85956 2.69569 9.29645 2.93329 10.4802 3.62649C11.0585 3.96517 11.5765 4.41262 11.9816 4.89382L11.9853 4.89825H11.9869L11.9906 4.89383C12.3971 4.41095 12.9172 3.96129 13.498 3.62141ZM12.7164 10.9668V12.6674C13.5608 11.9709 14.3822 11.2551 15.1127 10.4689C16.4125 9.06986 17.0329 7.84062 16.9919 6.68656L16.9919 6.68501C16.9708 6.07787 16.6584 5.51547 16.2152 5.20844L16.2098 5.20472C15.909 4.99493 15.5589 4.93868 15.0613 5.10161C14.5166 5.27995 13.9372 5.69369 13.519 6.19152C12.7184 7.1444 11.2541 7.14484 10.4532 6.19152C10.0362 5.6952 9.4577 5.2828 8.91251 5.1048C8.41342 4.94187 8.06033 4.99805 7.75811 5.20769L7.75702 5.20844C7.31417 5.51519 7.00193 6.07685 6.98036 6.68335C6.94283 7.84467 7.56609 9.06801 8.86527 10.4612C9.58652 11.2347 10.3881 11.9338 11.2141 12.6183V10.6022C11.1598 10.5953 11.1031 10.5874 11.045 10.5785C10.8564 10.5494 10.6456 10.5079 10.4498 10.448C10.262 10.3905 10.0512 10.3054 9.89117 10.1709C9.73117 10.0363 9.61094 9.84293 9.52186 9.66754C9.42899 9.48469 9.35159 9.28384 9.29032 9.10267C9.22863 8.92026 9.18079 8.75031 9.14842 8.62637C9.13218 8.56417 9.11969 8.51301 9.11117 8.47698L9.10136 8.43466L9.09872 8.42289L9.09798 8.41951L9.09777 8.41783C9.07806 8.32706 9.09266 8.23442 9.13561 8.1562C9.20388 8.03168 9.33749 7.95577 9.48026 7.96146L9.48132 7.9615L9.48477 7.96165L9.4968 7.96221L9.54008 7.96455C9.57696 7.9667 9.62939 7.97015 9.69332 7.97538C9.82072 7.98581 9.996 8.00352 10.1859 8.03274C10.3746 8.06177 10.5853 8.10329 10.7811 8.16321C10.9689 8.22068 11.1798 8.3058 11.3398 8.44036C11.4998 8.57492 11.62 8.76829 11.7091 8.94367C11.7933 9.10952 11.8648 9.29017 11.9231 9.45751C11.9407 9.4192 11.9589 9.38131 11.9778 9.34417C12.0668 9.16879 12.1871 8.97544 12.347 8.84089C12.507 8.70634 12.7179 8.62123 12.9056 8.56376C13.1014 8.50385 13.3122 8.46233 13.5008 8.4333C13.6907 8.40408 13.866 8.38638 13.9934 8.37595C14.0573 8.37072 14.1097 8.36727 14.1466 8.36512L14.1899 8.36278L14.2019 8.36222L14.2053 8.36207L14.2064 8.36203C14.3557 8.35607 14.495 8.43942 14.5601 8.57429C14.5987 8.65438 14.607 8.74358 14.587 8.82662L14.5851 8.83519L14.5752 8.87751C14.5667 8.91354 14.5542 8.96469 14.538 9.02689C14.5056 9.15082 14.4578 9.32075 14.3961 9.50315C14.3348 9.68431 14.2574 9.88514 14.1646 10.068C14.0755 10.2434 13.9553 10.4367 13.7953 10.5713C13.6353 10.7058 13.4245 10.7909 13.2367 10.8484C13.0665 10.9005 12.8849 10.9387 12.7164 10.9668Z" fill="black"/>
<path d="M5.14275 19.2114C5.14275 19.2114 4.72292 18.7968 4.4805 18.5075L4.39655 18.4074C3.70246 17.5803 3.11355 16.8784 3.02505 15.9856C2.98502 15.5817 3.00241 15.0122 3.01545 14.7224C3.02096 14.6 3.0506 14.4802 3.10049 14.3683L4.47541 11.2858C4.54044 11.14 4.64751 11.0171 4.78284 10.9328C5.17419 10.6891 5.68955 10.8272 5.90737 11.2341L5.94293 11.3006C6.05906 11.5175 6.07812 11.7737 5.9954 12.0055L5.41572 13.63L5.37857 13.7089L5.37805 13.71L5.37653 13.7133L5.37173 13.7239C5.36778 13.7328 5.36234 13.7453 5.35564 13.7614C5.34223 13.7934 5.32376 13.8397 5.30194 13.8998C5.25831 14.0198 5.20127 14.1951 5.14461 14.4223C5.03128 14.8768 4.9195 15.539 4.9195 16.3827V16.6393H5.43133V16.3827C5.43133 15.5847 5.53702 14.9644 5.64117 14.5467C5.65223 14.5024 5.66328 14.4603 5.67418 14.4205C5.70249 14.3173 5.79744 14.2479 5.90426 14.2479C6.22975 14.2479 6.52731 14.4197 6.67287 14.6916C6.72079 14.7812 7.03965 15.4293 7.03965 15.4293L7.78364 16.9421C7.91013 17.1993 7.98159 17.5283 7.97928 17.8151C7.97708 18.0866 7.93031 18.3073 7.80628 18.5487C7.68554 18.7838 7.50796 19.071 7.30013 19.2256C7.26759 19.2498 7.23734 19.2743 7.20822 19.2979C7.09977 19.3857 7.00697 19.4609 6.86977 19.4609H5.57763C5.39837 19.4609 5.14275 19.2114 5.14275 19.2114Z" fill="black"/>
<path d="M5.38654 13.7118C5.38187 13.7096 5.37857 13.7089 5.37857 13.7089L5.38654 13.7118Z" fill="black"/>
<path d="M7.86261 20.7435V19.9922H4.79164V20.7435C4.79164 20.8852 4.90622 21 5.04755 21H7.6067C7.74803 21 7.86261 20.8852 7.86261 20.7435Z" fill="black"/>
<path d="M18.8577 19.2114C18.8577 19.2114 19.2776 18.7968 19.52 18.5075L19.6039 18.4074C20.298 17.5803 20.8869 16.8784 20.9754 15.9856C21.0155 15.5817 20.9981 15.0122 20.985 14.7224C20.9795 14.6 20.9499 14.4802 20.9 14.3683L19.5251 11.2858C19.46 11.14 19.353 11.0171 19.2177 10.9328C18.8263 10.6891 18.3109 10.8272 18.0931 11.2341L18.0576 11.3006C17.9414 11.5175 17.9224 11.7737 18.0051 12.0055L18.5848 13.63L18.6219 13.7089C18.6219 13.7089 18.6186 13.7096 18.6139 13.7118L18.6219 13.7089L18.6224 13.71L18.624 13.7133L18.6288 13.7239C18.6327 13.7328 18.6381 13.7453 18.6449 13.7614C18.6583 13.7934 18.6767 13.8397 18.6985 13.8998C18.7422 14.0198 18.7992 14.1951 18.8559 14.4223C18.9692 14.8768 19.081 15.539 19.081 16.3827V16.6393H18.5692V16.3827C18.5692 15.5847 18.4635 14.9644 18.3593 14.5467C18.3483 14.5024 18.3372 14.4603 18.3263 14.4205C18.298 14.3173 18.203 14.2479 18.0962 14.2479C17.7707 14.2479 17.4732 14.4197 17.3276 14.6916C17.2797 14.7812 16.9608 15.4293 16.9608 15.4293L16.2169 16.9421C16.0904 17.1993 16.0189 17.5283 16.0212 17.8151C16.0234 18.0866 16.0702 18.3073 16.1942 18.5487C16.315 18.7838 16.4925 19.071 16.7004 19.2256C16.7329 19.2498 16.7631 19.2743 16.7923 19.2979C16.9007 19.3857 16.9935 19.4609 17.1307 19.4609H18.4229C18.6021 19.4609 18.8577 19.2114 18.8577 19.2114Z" fill="black"/>
<path d="M16.1379 20.7435V19.9922H19.2088V20.7435C19.2088 20.8852 19.0943 21 18.9529 21H16.3938C16.2525 21 16.1379 20.8852 16.1379 20.7435Z" fill="black"/>
</svg>
