<svg width="24" height="24" viewBox="0 0 24 24" fill="none" xmlns="http://www.w3.org/2000/svg">
<path d="M2.05941 19.2531C1.87003 19.5864 2.11078 20.0001 2.49414 20.0001H19.5258C19.9092 20.0001 20.1499 19.5864 19.9605 19.2531L17.6909 15.2585C17.5348 15.2761 17.3762 15.2851 17.2157 15.2851C16.4338 15.2851 15.7017 15.0723 15.0741 14.7014L16.9483 18.0001H5.07163L11.01 7.54859L12.9999 11.0509C13.004 10.0985 13.3239 9.22064 13.8603 8.51665L11.4447 4.2652C11.253 3.92788 10.7669 3.92787 10.5753 4.2652L2.05941 19.2531Z" fill="black"/>
<path fill-rule="evenodd" clip-rule="evenodd" d="M14.4136 9.49039C14.9654 8.51326 16.0135 7.85356 17.2157 7.85356C18.9917 7.85356 20.4314 9.29331 20.4314 11.0693C20.4314 11.6231 20.2914 12.1442 20.0449 12.5992L21.9999 14.5542L20.7005 15.8535L18.7456 13.8985C18.2906 14.1451 17.7695 14.2851 17.2157 14.2851C17.1895 14.2851 17.1633 14.2848 17.1373 14.2842C16.0756 14.2588 15.1413 13.7188 14.5743 12.904C14.2122 12.3837 13.9999 11.7513 13.9999 11.0693M17.2157 12.4475C17.9768 12.4475 18.5938 11.8305 18.5938 11.0693C18.5938 10.3082 17.9768 9.69114 17.2157 9.69114C16.4545 9.69114 15.8375 10.3082 15.8375 11.0693C15.8375 11.8305 16.4545 12.4475 17.2157 12.4475Z" fill="black"/>
<path d="M13.9999 11.0693C13.9999 10.4955 14.1502 9.95679 14.4136 9.49039L13.9999 11.0693Z" fill="black"/>
<path d="M10.2499 16.9992V15.5H11.7499V16.9992H10.2499Z" fill="black"/>
<path d="M10.9999 11.0002C10.5857 11.0002 10.2499 11.3359 10.2499 11.7502V14.2502C10.2499 14.6644 10.5857 15.0002 10.9999 15.0002C11.4141 15.0002 11.7499 14.6644 11.7499 14.2502V11.7502C11.7499 11.3359 11.4141 11.0002 10.9999 11.0002Z" fill="black"/>
</svg>
