<svg width="24" height="24" viewBox="0 0 24 24" fill="none" xmlns="http://www.w3.org/2000/svg">
<path d="M14.1606 5.26642C14.5852 5.09053 15.0404 5 15.5 5V6.50027C15.2374 6.50027 14.9774 6.552 14.7347 6.65249C14.4921 6.75299 14.2717 6.90029 14.086 7.08598C13.9003 7.27167 13.753 7.49212 13.6525 7.73474C13.552 7.97736 13.5003 8.23739 13.5003 8.5C13.5003 8.76261 13.552 9.02264 13.6525 9.26526C13.753 9.50788 13.9003 9.72833 14.086 9.91402C14.2717 10.0997 14.4921 10.247 14.7347 10.3475C14.9774 10.448 15.2374 10.4997 15.5 10.4997L17 10.5C17.3283 10.5 17.6534 10.5647 17.9567 10.6903C18.26 10.8159 18.5356 11.0001 18.7678 11.2322C18.9999 11.4644 19.1841 11.74 19.3097 12.0433C19.4353 12.3466 19.5 12.6717 19.5 13V14L18 14L18 13C18 12.8688 17.9732 12.7389 17.923 12.6177C17.8728 12.4965 17.7992 12.3863 17.7064 12.2936C17.6137 12.2008 17.5035 12.1272 17.3823 12.077C17.2611 12.0268 17.1312 12.0009 17 12.0009L15.5 12C15.0404 12 14.5852 11.9095 14.1606 11.7336C13.736 11.5577 13.3501 11.2999 13.0251 10.9749C12.7001 10.6499 12.4423 10.264 12.2664 9.83939C12.0905 9.41475 12 8.95963 12 8.5C12 8.04037 12.0905 7.58525 12.2664 7.16061C12.4423 6.73597 12.7001 6.35013 13.0251 6.02513C13.3501 5.70012 13.736 5.44231 14.1606 5.26642Z" fill="black"/>
<path d="M17 7.5C17.2626 7.5 17.5226 7.44783 17.7652 7.34734C18.0078 7.24686 18.2282 7.09957 18.4139 6.9139C18.5996 6.72822 18.7469 6.50779 18.8473 6.26519C18.9478 6.0226 18.9995 5.76258 18.9995 5.5C18.9995 5.23742 18.9478 4.9774 18.8473 4.73481C18.7469 4.49221 18.5996 4.27178 18.4139 4.0861C18.2282 3.90043 18.0078 3.75314 17.7652 3.65266C17.5226 3.55217 17.2626 3.50045 17 3.50045V2C17.4596 2 17.9148 2.09053 18.3394 2.26642C18.764 2.44231 19.1499 2.70012 19.4749 3.02513C19.7999 3.35013 20.0577 3.73597 20.2336 4.16061C20.4095 4.58525 20.5 5.04037 20.5 5.5C20.5 5.95963 20.4095 6.41475 20.2336 6.83939C20.0577 7.26403 19.7999 7.64987 19.4749 7.97487C19.4358 8.01399 19.3958 8.05214 19.3549 8.08929C19.7886 8.32085 20.1866 8.61555 20.5355 8.96447C20.9998 9.42876 21.3681 9.97996 21.6194 10.5866C21.8707 11.1932 22 11.8434 22 12.5V14.0002H20.5V12.5L20.5029 12.5C20.5029 12.04 20.4123 11.5845 20.2363 11.1595C20.0603 10.7345 19.8022 10.3483 19.4769 10.0231C19.1517 9.69777 18.7655 9.43975 18.3405 9.26371C17.9468 9.10061 17.5268 9.01085 17.1014 8.99853C17.0676 8.99951 17.0338 9 17 9V7.5Z" fill="black"/>
<path d="M16.5858 18L19.7929 21.2071L21.2071 19.7929L19.4143 18.0001H19.5V15.5H18V16.5858L17 15.5858V15.5H16.9142L4.20711 2.79289L2.79289 4.20711L14.0858 15.5H2V18H16.5858Z" fill="black"/>
<path d="M20.5 17.9999V15.5H22V17.9999H20.5Z" fill="black"/>
</svg>
