<svg width="24" height="24" viewBox="0 0 24 24" fill="none" xmlns="http://www.w3.org/2000/svg">
<path d="M17 20H2V17.5H17V20Z" fill="black"/>
<path d="M18 20.0001V17.5H19.5V20.0001H18Z" fill="black"/>
<path d="M20.5 17.5V19.9999H22V17.5H20.5Z" fill="black"/>
<path d="M14.1606 7.26642C14.5852 7.09053 15.0404 7 15.5 7V8.50027C15.2374 8.50027 14.9774 8.552 14.7347 8.65249C14.4921 8.75299 14.2717 8.90029 14.086 9.08598C13.9003 9.27167 13.753 9.49212 13.6525 9.73474C13.552 9.97736 13.5003 10.2374 13.5003 10.5C13.5003 10.7626 13.552 11.0226 13.6525 11.2653C13.753 11.5079 13.9003 11.7283 14.086 11.914C14.2717 12.0997 14.4921 12.247 14.7347 12.3475C14.9774 12.448 15.2374 12.4997 15.5 12.4997L17 12.5C17.3283 12.5 17.6534 12.5647 17.9567 12.6903C18.26 12.8159 18.5356 13.0001 18.7678 13.2322C18.9999 13.4644 19.1841 13.74 19.3097 14.0433C19.4353 14.3466 19.5 14.6717 19.5 15V16L18 16L18 15C18 14.8688 17.9732 14.7389 17.923 14.6177C17.8728 14.4965 17.7992 14.3863 17.7064 14.2936C17.6137 14.2008 17.5035 14.1272 17.3823 14.077C17.2611 14.0268 17.1312 14.0009 17 14.0009L15.5 14C15.0404 14 14.5852 13.9095 14.1606 13.7336C13.736 13.5577 13.3501 13.2999 13.0251 12.9749C12.7001 12.6499 12.4423 12.264 12.2664 11.8394C12.0905 11.4148 12 10.9596 12 10.5C12 10.0404 12.0905 9.58525 12.2664 9.16061C12.4423 8.73597 12.7001 8.35013 13.0251 8.02513C13.3501 7.70012 13.736 7.44231 14.1606 7.26642Z" fill="black"/>
<path d="M17 9.5C17.2626 9.5 17.5226 9.44783 17.7652 9.34734C18.0078 9.24686 18.2282 9.09957 18.4139 8.9139C18.5996 8.72822 18.7469 8.50779 18.8473 8.26519C18.9478 8.0226 18.9995 7.76258 18.9995 7.5C18.9995 7.23742 18.9478 6.9774 18.8473 6.73481C18.7469 6.49221 18.5996 6.27178 18.4139 6.0861C18.2282 5.90043 18.0078 5.75314 17.7652 5.65266C17.5226 5.55217 17.2626 5.50045 17 5.50045V4C17.4596 4 17.9148 4.09053 18.3394 4.26642C18.764 4.44231 19.1499 4.70012 19.4749 5.02513C19.7999 5.35013 20.0577 5.73597 20.2336 6.16061C20.4095 6.58525 20.5 7.04037 20.5 7.5C20.5 7.95963 20.4095 8.41475 20.2336 8.83939C20.0577 9.26403 19.7999 9.64987 19.4749 9.97487C19.4358 10.014 19.3958 10.0521 19.3549 10.0893C19.7886 10.3208 20.1866 10.6156 20.5355 10.9645C20.9998 11.4288 21.3681 11.98 21.6194 12.5866C21.8707 13.1932 22 13.8434 22 14.5V16.0002H20.5V14.5L20.5029 14.5C20.5029 14.04 20.4123 13.5845 20.2363 13.1595C20.0603 12.7345 19.8022 12.3483 19.4769 12.0231C19.1517 11.6978 18.7655 11.4397 18.3405 11.2637C17.9468 11.1006 17.5268 11.0108 17.1014 10.9985C17.0676 10.9995 17.0338 11 17 11V9.5Z" fill="black"/>
</svg>
