<svg width="24" height="24" viewBox="0 0 24 24" fill="none" xmlns="http://www.w3.org/2000/svg">
<path fill-rule="evenodd" clip-rule="evenodd" d="M10.7501 9C9.78359 9 9.00009 9.7835 9.00009 10.75C9.00009 11.7165 9.78359 12.5 10.7501 12.5C11.7166 12.5 12.5001 11.7165 12.5001 10.75C12.5001 9.7835 11.7166 9 10.7501 9Z" fill="black"/>
<path d="M13.0001 15C13.0001 15.5523 12.5524 16 12.0001 16C11.4478 16 11.0001 15.5523 11.0001 15C11.0001 14.4477 11.4478 14 12.0001 14C12.5524 14 13.0001 14.4477 13.0001 15Z" fill="black"/>
<path d="M16.0001 12C16.0001 12.5523 15.5524 13 15.0001 13C14.4478 13 14.0001 12.5523 14.0001 12C14.0001 11.4477 14.4478 11 15.0001 11C15.5524 11 16.0001 11.4477 16.0001 12Z" fill="black"/>
<path fill-rule="evenodd" clip-rule="evenodd" d="M9.50009 3C9.50009 2.44772 9.94781 2 10.5001 2H13.5001C14.0524 2 14.5001 2.44772 14.5001 3C14.5001 3.55228 14.0524 4 13.5001 4H13.0001V5.07089C14.9202 5.34554 16.589 6.39943 17.6758 7.90195L18.7827 7.26283L18.5327 6.82976C18.2566 6.35146 18.4204 5.73987 18.8987 5.46373C19.377 5.18759 19.9886 5.35146 20.2648 5.82976L21.7648 8.42783C22.0409 8.90613 21.877 9.51772 21.3987 9.79386C20.9204 10.07 20.3089 9.90613 20.0327 9.42783L19.7827 8.99488L18.6047 9.67501C18.8608 10.4025 19.0001 11.185 19.0001 12C19.0001 12.7735 18.8746 13.5176 18.643 14.2132L19.8046 14.8839L20.0544 14.4512C20.3305 13.9729 20.9421 13.809 21.4204 14.0851C21.8987 14.3613 22.0626 14.9729 21.7865 15.4512L20.2865 18.0492C20.0103 18.5275 19.3987 18.6914 18.9204 18.4153C18.4421 18.1391 18.2783 17.5275 18.5544 17.0492L18.8046 16.6159L17.7432 16.0031C16.6587 17.5561 14.9604 18.6487 13.0001 18.9291V20H13.5001C14.0524 20 14.5001 20.4477 14.5001 21C14.5001 21.5523 14.0524 22 13.5001 22H10.5001C9.94781 22 9.50009 21.5523 9.50009 21C9.50009 20.4477 9.94781 20 10.5001 20H11.0001V18.9291C9.03843 18.6485 7.33913 17.5546 6.25473 15.9999L5.18779 16.6159L5.43797 17.0492C5.71411 17.5275 5.55024 18.1391 5.07194 18.4153C4.59365 18.6914 3.98206 18.5275 3.70592 18.0492L2.20592 15.4512C1.92978 14.9729 2.09365 14.3613 2.57194 14.0851C3.05024 13.809 3.66183 13.9729 3.93797 14.4512L4.18779 14.8839L5.35593 14.2095C5.12508 13.5149 5.00009 12.7721 5.00009 12C5.00009 11.1864 5.13891 10.4052 5.39415 9.67875L4.20963 8.99488L3.95967 9.42783C3.68352 9.90613 3.07193 10.07 2.59364 9.79386C2.11535 9.51772 1.95147 8.90613 2.22762 8.42783L3.72762 5.82976C4.00376 5.35146 4.61535 5.18759 5.09364 5.46373C5.57194 5.73987 5.73581 6.35146 5.45967 6.82976L5.20963 7.26283L6.32213 7.90513C7.40885 6.40092 9.07861 5.34574 11.0001 5.07089V4H10.5001C9.94781 4 9.50009 3.55228 9.50009 3ZM17.0001 12C17.0001 14.7614 14.7615 17 12.0001 17C9.23867 17 7.00009 14.7614 7.00009 12C7.00009 9.23858 9.23867 7 12.0001 7C14.7615 7 17.0001 9.23858 17.0001 12Z" fill="black"/>
</svg>
