<svg width="24" height="24" viewBox="0 0 24 24" fill="none" xmlns="http://www.w3.org/2000/svg">
<path d="M11.0413 9.99949C11.1893 10.5316 11.7406 10.8429 12.2727 10.6949C12.8048 10.5469 13.1161 9.99556 12.9681 9.46348C12.8201 8.9314 12.2688 8.62005 11.7367 8.76807C11.2046 8.91608 10.8933 9.46741 11.0413 9.99949Z" fill="black"/>
<path d="M14.5727 14.1949C14.0406 14.3429 13.4893 14.0316 13.3413 13.4995C13.1933 12.9674 13.5046 12.4161 14.0367 12.2681C14.5688 12.1201 15.1201 12.4314 15.2681 12.9635C15.4161 13.4956 15.1048 14.0469 14.5727 14.1949Z" fill="black"/>
<path d="M8.84128 13.4995C8.9893 14.0316 9.54062 14.3429 10.0727 14.1949C10.6048 14.0469 10.9161 13.4956 10.7681 12.9635C10.6201 12.4314 10.0688 12.1201 9.53669 12.2681C9.00461 12.4161 8.69326 12.9674 8.84128 13.4995Z" fill="black"/>
<path fill-rule="evenodd" clip-rule="evenodd" d="M9.98928 2.22847C9.57511 2.23445 9.2442 2.57504 9.25018 2.98922C9.25616 3.40339 9.59676 3.73429 10.0109 3.72831L11.19 3.71129L11.2094 5.06051C9.88408 5.21753 8.59572 5.75268 7.5193 6.66432L6.62131 5.77601L7.59938 4.78729C7.89068 4.49281 7.88811 4.01795 7.59363 3.72664C7.29915 3.43534 6.82429 3.43791 6.53299 3.73239L5.12069 5.16008C5.08498 5.18527 5.05098 5.21394 5.01918 5.24609C4.98737 5.27825 4.95906 5.31255 4.93426 5.34854L3.71984 6.57619C3.42854 6.87067 3.43111 7.34553 3.72558 7.63684C4.02006 7.92814 4.49493 7.92556 4.78623 7.63109L5.56641 6.8424L6.48351 7.74962C5.68169 8.79178 5.21383 10.0066 5.0786 11.2502L3.68393 11.2971L3.63948 9.97705C3.62553 9.56307 3.27864 9.23878 2.86466 9.25272C2.45068 9.26666 2.12638 9.61356 2.14033 10.0275L2.20967 12.0866L2.20995 12.0972L2.21038 12.1078L2.27496 14.0253C2.2889 14.4392 2.63579 14.7635 3.04977 14.7496C3.46375 14.7357 3.78805 14.3888 3.77411 13.9748L3.73442 12.7963L5.07633 12.7511C5.21663 14.0789 5.7356 15.3736 6.63161 16.4598L5.72708 17.3742L4.78804 16.4453C4.49356 16.154 4.01869 16.1566 3.7274 16.451C3.4361 16.7455 3.43868 17.2204 3.73316 17.5117L5.19783 18.9605L5.20533 18.968L5.21296 18.9755L6.57693 20.3247C6.87141 20.616 7.34627 20.6134 7.63757 20.3189C7.92887 20.0245 7.92628 19.5496 7.6318 19.2583L6.79349 18.429L7.70332 17.5093C8.77597 18.3571 10.038 18.8454 11.3288 18.9759L11.3239 20.2397L10.003 20.2346C9.58883 20.233 9.25175 20.5674 9.25014 20.9816C9.24854 21.3959 9.58302 21.7329 9.99723 21.7345L12.0574 21.7425L12.068 21.7426L12.0787 21.7426L13.9972 21.7501C14.4114 21.7517 14.7485 21.4172 14.7501 21.003C14.7517 20.5888 14.4172 20.2517 14.003 20.2501L12.8239 20.2455L12.8288 18.967C14.1383 18.8188 15.4133 18.3017 16.4853 17.4175L17.3996 18.3219L16.5064 19.2249C16.2151 19.5194 16.2177 19.9942 16.5121 20.2855C16.8066 20.5768 17.2815 20.5743 17.5728 20.2798L18.9919 18.8452L18.9934 18.8436L18.995 18.8421L20.3858 17.4361C20.6771 17.1416 20.6746 16.6667 20.3801 16.3754C20.0856 16.0841 19.6107 16.0867 19.3194 16.3812L18.4545 17.2555L17.5349 16.3459C18.3495 15.3151 18.8324 14.1095 18.9847 12.8716L20.3677 12.8388L20.3956 14.0177C20.4054 14.4318 20.749 14.7595 21.1631 14.7497C21.5772 14.7399 21.905 14.3963 21.8952 13.9822L21.8498 12.0642L21.8496 12.0535L21.8492 12.0429L21.8005 9.98328C21.7907 9.56919 21.447 9.24144 21.0329 9.25125C20.6188 9.26106 20.2911 9.6047 20.3009 10.0188L20.3322 11.3393L19.0081 11.3706C18.8835 10.0085 18.3612 8.6765 17.4431 7.56344L18.3476 6.64903L19.2357 7.52747C19.5302 7.81877 20.005 7.81618 20.2963 7.5217C20.5876 7.22721 20.585 6.75235 20.2905 6.46105L18.8758 5.06161L18.8693 5.05516L18.8628 5.04877L17.4468 3.64807C17.1523 3.35678 16.6774 3.35936 16.3861 3.65385C16.0948 3.94833 16.0974 4.4232 16.3919 4.71449L17.2812 5.59416L16.3713 6.51392C15.2886 5.65818 14.0128 5.16863 12.7093 5.04372L12.6898 3.68964L14.0105 3.67058C14.4247 3.6646 14.7556 3.324 14.7496 2.90983C14.7436 2.49566 14.403 2.16476 13.9889 2.17073L11.9289 2.20047L11.9183 2.20055L11.9076 2.20078L9.98928 2.22847ZM12.0895 16.2277C12.4927 16.2293 12.8204 16.5487 12.836 16.9478C13.6243 16.8209 14.3878 16.5049 15.0531 16.0006C14.7692 15.7085 14.7701 15.2415 15.0579 14.9505C15.3432 14.6621 15.8046 14.6537 16.1002 14.9272C16.5426 14.3123 16.8282 13.6201 16.9573 12.9054C16.6115 12.8457 16.3447 12.5483 16.3361 12.1842C16.3268 11.7922 16.62 11.4634 17.0025 11.421C16.9005 10.5584 16.5742 9.71772 16.0245 8.99346C15.7312 9.24293 15.2906 9.23059 15.0118 8.95476C14.7355 8.68144 14.7162 8.24651 14.9554 7.95062C14.2827 7.46592 13.5172 7.16916 12.7311 7.05966C12.6851 7.42471 12.3762 7.70952 11.9978 7.71498C11.6171 7.72047 11.2985 7.44131 11.2449 7.0745C10.4242 7.20556 9.63026 7.54145 8.94565 8.08139C9.18466 8.37462 9.16893 8.80699 8.89687 9.08202C8.63375 9.348 8.22089 9.37583 7.92645 9.16408C7.49519 9.7851 7.22105 10.4815 7.10352 11.1983C7.44507 11.2587 7.7097 11.5512 7.72183 11.9117C7.7348 12.2971 7.45462 12.6243 7.08185 12.6789C7.1937 13.5139 7.51634 14.3258 8.04898 15.0282C8.34187 14.7587 8.7979 14.7644 9.08384 15.0473C9.36726 15.3276 9.38028 15.778 9.12116 16.074C9.79151 16.5565 10.5537 16.8525 11.3367 16.9626C11.3448 16.554 11.6793 16.2261 12.0895 16.2277Z" fill="black"/>
</svg>
