<svg width="48" height="48" viewBox="0 0 48 48" fill="none" xmlns="http://www.w3.org/2000/svg">
<path fill-rule="evenodd" clip-rule="evenodd" d="M24 4C24.5523 4 25 4.44772 25 5V6.01628C34.1571 6.51704 41.4938 13.8538 41.9946 23.0108C42.0106 23.3038 41.6555 23.354 41.4375 23.1577C40.1602 22.0075 38.4696 21.3075 36.6155 21.3075C34.4478 21.3075 32.5036 22.2643 31.1821 23.7786C31.0563 23.9228 30.8765 24.0108 30.6851 24.0108C30.5156 24.0108 30.354 23.9418 30.2319 23.8243C28.8412 22.4863 27.0217 21.5907 25 21.3641V39.5C25 40.8807 26.1193 42 27.5 42C28.8807 42 30 40.8807 30 39.5V38C30 37.4477 30.4477 37 31 37C31.5523 37 32 37.4477 32 38V39.5C32 41.9853 29.9853 44 27.5 44C25.0147 44 23 41.9853 23 39.5V21.3608C20.9613 21.5824 19.1268 22.4841 17.728 23.8342C17.6126 23.9456 17.4596 24.0108 17.2992 24.0108C17.118 24.0108 16.9478 23.9275 16.829 23.7908C15.5073 22.2694 13.5585 21.3075 11.385 21.3075C9.53084 21.3075 7.8402 22.0075 6.56292 23.1577C6.34479 23.3541 5.98956 23.3039 6.00559 23.0108C6.50637 13.8539 13.843 6.51714 23 6.01629V5C23 4.44772 23.4477 4 24 4Z" fill="black"/>
</svg>
