<svg width="48" height="48" viewBox="0 0 48 48" fill="none" xmlns="http://www.w3.org/2000/svg">
<path fill-rule="evenodd" clip-rule="evenodd" d="M24 11.4018C15.2 7.47453 7 13.7654 4 19.22C5.92721 22.0232 10.0004 24.1137 15 25.2502V29C15 33.9706 19.0294 38 24 38C28.9706 38 33 33.9706 33 29V25.2502C37.9996 24.1137 42.0728 22.0232 44 19.22C41 13.7654 33 7.03827 24 11.4018ZM15 18.7925V23.1959C14.1186 22.9824 13.2731 22.7377 12.4717 22.4639C10.3918 21.7531 8.70094 20.8788 7.44325 19.915C9.15716 19.5672 11.9313 19.1339 15 18.7925ZM33 23.1959V18.7926C36.0687 19.134 38.8429 19.5673 40.5566 19.9151C39.299 20.8788 37.6082 21.7531 35.5283 22.4639C34.7269 22.7377 33.8814 22.9824 33 23.1959ZM40.7143 17.9078C39.3356 16.1847 37.4824 14.5231 35.328 13.4039C32.2908 11.8262 28.7116 11.3401 24.8725 13.2015C24.3415 13.4589 23.7239 13.4687 23.1849 13.2282C19.4291 11.552 15.8125 12.034 12.7199 13.5813C10.5627 14.6606 8.70473 16.2419 7.32645 17.8997C10.9837 17.184 18.3031 16.2202 23.9998 16.2202C29.718 16.2202 37.0711 17.1913 40.7143 17.9078ZM23.0002 18.5586V29C23.0002 29.5523 23.4479 30 24.0002 30C24.5525 30 25.0002 29.5523 25.0002 29V18.5586L31 18.892V20.3598L29.0691 21.2495L27.9445 20.8747C27.4205 20.7 26.8542 20.9832 26.6796 21.5071C26.5049 22.0311 26.7881 22.5974 27.312 22.772L29.1874 23.3971L31 22.5619V26.339L30.0875 26.4705L30.1886 24.9034L27.3916 24.723C26.8405 24.6875 26.3649 25.1055 26.3293 25.6566C26.2938 26.2077 26.7118 26.6833 27.2629 26.7189L28.064 26.7706L27.933 28.8016L31 28.3597V29C31 30.408 30.5843 31.7188 29.869 32.8166L28.5201 30.3436L26.5397 30.0135C25.995 29.9227 25.4797 30.2907 25.3889 30.8355C25.2981 31.3803 25.6662 31.8955 26.2109 31.9863L27.2306 32.1562L28.4545 34.4C27.4563 35.2244 26.2257 35.7773 24.8757 35.9458V35.5528L25.7077 34.3047C26.0141 33.8452 25.8899 33.2243 25.4304 32.9179C24.9708 32.6116 24.35 32.7358 24.0436 33.1953L22.8757 34.9472V35.9102C21.5379 35.6942 20.3271 35.0991 19.357 34.2387L19.8462 33.0156L21.1528 33.8867L22.7075 31.5546C23.0138 31.0951 22.8897 30.4742 22.4301 30.1679C21.9706 29.8615 21.3497 29.9857 21.0434 30.4452L20.5981 31.1132L18.9047 29.9843L17.914 32.4609C17.3323 31.4402 17 30.2589 17 29V28.2922L18.5594 27.5736L19.684 27.9485C20.208 28.1232 20.7743 27.84 20.949 27.3161C21.1236 26.7921 20.8404 26.2258 20.3165 26.0511L18.4411 25.426L17 26.0901V22.1402L17.9105 22.0403L17.7566 23.603L20.5458 23.8778C21.0955 23.9319 21.5849 23.5303 21.6391 22.9807C21.6932 22.431 21.2915 21.9416 20.7419 21.8874L19.943 21.8087L20.1425 19.7833L17 20.1282V18.892L23.0002 18.5586Z" fill="black"/>
</svg>
