<svg width="48" height="48" viewBox="0 0 48 48" fill="none" xmlns="http://www.w3.org/2000/svg">
<path fill-rule="evenodd" clip-rule="evenodd" d="M27.2365 19.0843C26.3048 18.4776 25.1934 18.1252 24 18.1252C20.7121 18.1252 18.0468 20.7996 18.0468 24.0986C18.0468 27.3976 20.7121 30.072 24 30.072C27.2878 30.072 29.9532 27.3976 29.9532 24.0986C29.9532 23.5625 29.8828 23.0428 29.7508 22.5484C29.881 22.246 29.9532 21.9125 29.9532 21.5621C29.9532 20.1875 28.8426 19.0731 27.4727 19.0731C27.393 19.0731 27.3142 19.0769 27.2365 19.0843ZM24 28.0809C26.1919 28.0809 27.9688 26.298 27.9688 24.0986C27.9688 24.0661 27.9684 24.0337 27.9676 24.0014C27.8077 24.0339 27.6422 24.051 27.4727 24.051C26.1027 24.051 24.9922 22.9366 24.9922 21.5621C24.9922 21.1175 25.1083 20.7002 25.3118 20.339C24.9012 20.1948 24.4597 20.1163 24 20.1163C21.8081 20.1163 20.0312 21.8993 20.0312 24.0986C20.0312 26.298 21.8081 28.0809 24 28.0809ZM27.9688 21.5621C27.9688 21.837 27.7467 22.0598 27.4727 22.0598C27.1987 22.0598 26.9766 21.837 26.9766 21.5621C26.9766 21.2871 27.1987 21.0643 27.4727 21.0643C27.7467 21.0643 27.9688 21.2871 27.9688 21.5621Z" fill="black"/>
<path fill-rule="evenodd" clip-rule="evenodd" d="M30.5341 34.5746C26.2669 35.8085 21.7331 35.8085 17.4659 34.5746C13.7002 33.4858 10.2708 31.4732 7.49528 28.7217L4.73038 25.9808C3.77722 25.0358 3.75401 23.499 4.6782 22.5255L7.43447 19.6224C10.234 16.6737 13.7649 14.5253 17.6649 13.3976C21.8041 12.2008 26.1959 12.2008 30.3351 13.3976C34.2351 14.5253 37.766 16.6737 40.5655 19.6224L43.3218 22.5255C44.246 23.499 44.2228 25.0359 43.2696 25.9808L40.5047 28.7217C37.7292 31.4732 34.2998 33.4858 30.5341 34.5746ZM18.0153 32.6613C18.6328 32.8399 19.2563 32.9902 19.884 33.1123C16.4585 31.5432 14.078 28.0761 14.078 24.051C14.078 19.8851 16.628 16.3169 20.2472 14.8321C19.564 14.9572 18.8856 15.1168 18.2144 15.3109C15.8887 15.9833 13.7067 17.0533 11.7606 18.4646L13.3494 19.1023L12.2292 20.7882L12.892 21.2315C13.3479 21.5365 13.4711 22.1546 13.1672 22.6121C12.8632 23.0696 12.2472 23.1932 11.7912 22.8882L9.47737 21.3404L10.3416 20.0396L9.99293 19.8996C9.60636 20.2501 9.23216 20.6156 8.87128 20.9957L6.91583 23.0554H8.42517L10.1634 24.2182C10.6194 24.5232 10.7426 25.1413 10.4386 25.5988C10.1347 26.0563 9.51863 26.1799 9.06268 25.8749L7.82434 25.0466H6.61149L8.88996 27.3053C9.18498 27.5978 9.48811 27.8811 9.79888 28.1551L11.1943 27.3914L11.3629 26.3762C11.453 25.8339 11.9642 25.4675 12.5047 25.5579C13.0452 25.6483 13.4104 26.1612 13.3203 26.7036L12.9928 28.6751L11.4881 29.4987C13.4585 30.9094 15.6648 31.9817 18.0153 32.6613ZM28.1159 33.1123C28.7436 32.9902 29.3672 32.8399 29.9847 32.6613C32.3352 31.9817 34.5415 30.9094 36.5119 29.4987L35.0071 28.6751L34.6796 26.7036C34.5896 26.1612 34.9547 25.6483 35.4952 25.5579C36.0357 25.4675 36.547 25.8339 36.637 26.3762L36.8057 27.3914L38.2011 28.1551C38.5119 27.8811 38.815 27.5978 39.11 27.3053L41.3885 25.0466H40.1756L38.9373 25.8749C38.4813 26.1799 37.8653 26.0563 37.5613 25.5988C37.2574 25.1413 37.3806 24.5232 37.8365 24.2182L39.5748 23.0554H41.0842L39.1287 20.9957C38.7678 20.6156 38.3936 20.2501 38.0071 19.8996L37.6583 20.0396L38.5226 21.3404L36.2087 22.8882C35.7528 23.1932 35.1367 23.0696 34.8328 22.6121C34.5288 22.1546 34.652 21.5365 35.108 21.2315L35.7707 20.7882L34.6506 19.1023L36.2394 18.4646C34.2933 17.0532 32.1113 15.9833 29.7856 15.3109C29.1144 15.1168 28.4359 14.9572 27.7527 14.832C31.372 16.3169 33.922 19.8851 33.922 24.051C33.922 28.0761 31.5414 31.5433 28.1159 33.1123ZM31.9376 24.051C31.9376 28.4497 28.3838 32.0155 24 32.0155C19.6162 32.0155 16.0624 28.4497 16.0624 24.051C16.0624 19.6523 19.6162 16.0864 24 16.0864C28.3838 16.0864 31.9376 19.6523 31.9376 24.051Z" fill="black"/>
</svg>
