<svg width="48" height="48" viewBox="0 0 48 48" fill="none" xmlns="http://www.w3.org/2000/svg">
<path d="M18.0502 27.6547C17.5181 27.5117 16.9712 27.8283 16.8287 28.3618L16.5705 29.3277C16.428 29.8611 16.7437 30.4095 17.2758 30.5524C17.8078 30.6954 18.3547 30.3788 18.4973 29.8453L18.7554 28.8794C18.898 28.3459 18.5823 27.7976 18.0502 27.6547Z" fill="black"/>
<path d="M14.3182 26.2929C14.7077 25.9024 15.3392 25.9024 15.7287 26.2929C16.1182 26.6834 16.1182 27.3166 15.7287 27.7071L15.0235 28.4142C14.634 28.8047 14.0025 28.8047 13.613 28.4142C13.2235 28.0237 13.2235 27.3905 13.613 27L14.3182 26.2929Z" fill="black"/>
<path d="M15.4882 22.7588C15.6308 22.2254 15.315 21.677 14.7829 21.5341L13.3379 21.1459C12.8058 21.0029 12.2589 21.3195 12.1163 21.853C11.9738 22.3864 12.2895 22.9348 12.8216 23.0777L14.2667 23.4659C14.7987 23.6089 15.3456 23.2923 15.4882 22.7588Z" fill="black"/>
<path d="M17.9816 18.2412C17.839 17.7078 17.2921 17.3912 16.7601 17.5341C16.228 17.6771 15.9123 18.2254 16.0548 18.7589L16.442 20.2078C16.5846 20.7412 17.1315 21.0578 17.6636 20.9149C18.1956 20.7719 18.5114 20.2236 18.3688 19.6901L17.9816 18.2412Z" fill="black"/>
<path fill-rule="evenodd" clip-rule="evenodd" d="M15.6325 9.0058C15.0848 8.94685 14.5932 9.34422 14.5344 9.89335C14.4756 10.4425 14.8719 10.9354 15.4196 10.9944C16.8648 11.1499 17.4395 11.8077 17.7162 12.3884C17.8186 12.6035 17.8863 12.8216 17.931 13.027C17.581 13.0517 17.2356 13.0935 16.8957 13.1513C16.7553 12.771 16.3919 12.5001 15.9657 12.5001C15.4179 12.5001 14.9738 12.9478 14.9738 13.5C14.9738 13.5556 14.9783 13.6102 14.9869 13.6633C14.6602 13.7847 14.3411 13.9216 14.0304 14.0733C13.9619 13.9752 13.8767 13.8532 13.7856 13.7302C13.533 13.3891 13.175 12.9539 12.6849 12.5805C12.1859 12.2002 11.5479 11.8827 10.7537 11.7871C9.96258 11.6919 9.09088 11.8257 8.13387 12.2318C7.62496 12.4478 7.3978 13.0285 7.62649 13.529C7.85519 14.0295 8.45313 14.2601 8.96204 14.0442C9.65858 13.7486 10.1689 13.7019 10.5362 13.7461C10.9004 13.7899 11.1972 13.9319 11.4572 14.13C11.7263 14.335 11.9517 14.5972 12.1547 14.8714C12.2175 14.9562 12.2726 15.0342 12.3272 15.1124C12.0778 15.2987 11.8367 15.4957 11.6047 15.7026C11.4383 15.5755 11.2309 15.5 11.006 15.5C10.4582 15.5 10.014 15.9477 10.014 16.5C10.014 16.7492 10.1045 16.9771 10.254 17.1522C10.037 17.4331 9.83367 17.7252 9.64494 18.0273C9.26777 17.8353 8.81806 17.6707 8.31384 17.5986C7.69034 17.5094 6.98615 17.5632 6.26353 17.8804C5.54569 18.1954 4.86843 18.7443 4.25078 19.5575C3.91593 19.9983 4.00626 20.6156 4.45254 20.9361C4.89882 21.2567 5.53205 21.1592 5.8669 20.7184C6.31903 20.1231 6.73408 19.8256 7.06843 19.6788C7.39801 19.5342 7.7059 19.5108 7.99178 19.5517C8.27396 19.5921 8.53488 19.696 8.75011 19.8122C8.64149 20.0915 8.54424 20.3765 8.45892 20.6666C8.40031 20.6557 8.3399 20.65 8.27817 20.65C7.73034 20.65 7.28623 21.0977 7.28623 21.65C7.28623 22.1329 7.62573 22.5358 8.07722 22.6295C8.06083 22.7953 8.04822 22.9623 8.03948 23.1303C7.35296 23.3447 6.52902 23.7448 5.81281 24.3442C4.67925 25.2929 3.73166 26.8201 4.06923 28.9669C4.15484 29.5114 4.66731 29.8904 5.21386 29.8134C5.7604 29.7365 6.13406 29.2327 6.04844 28.6882C5.84241 27.378 6.38049 26.4914 7.1165 25.8754C7.42838 25.6144 7.76195 25.4151 8.06764 25.2685C8.09882 25.618 8.14676 25.9626 8.21066 26.3016C7.81748 26.4344 7.53418 26.8088 7.53418 27.2499C7.53418 27.8022 7.97829 28.2499 8.52613 28.2499C8.60783 28.2499 8.68722 28.24 8.76318 28.2212C8.83971 28.416 8.92178 28.608 9.0092 28.7971C8.97435 28.8287 8.93873 28.8614 8.90261 28.8952C8.56979 29.2068 8.16705 29.6348 7.85077 30.1773C7.53049 30.7267 7.29262 31.4049 7.31382 32.1971C7.33508 32.9913 7.61478 33.8232 8.20367 34.6797C8.51512 35.1327 9.14488 35.2573 9.61028 34.958C10.0757 34.6588 10.2005 34.0489 9.88902 33.5959C9.47733 32.9971 9.3508 32.5216 9.34106 32.1577C9.33127 31.7917 9.43762 31.4612 9.61762 31.1524C9.73838 30.9453 9.88911 30.7537 10.0521 30.5776C10.263 30.8692 10.4883 31.1496 10.7269 31.418C10.5325 31.6006 10.4108 31.8609 10.4108 32.1499C10.4108 32.7022 10.855 33.1499 11.4028 33.1499C11.7165 33.1499 11.9962 33.0031 12.1779 32.7739C12.3979 32.9442 12.6246 33.1061 12.8576 33.2591C12.6846 33.6371 12.5208 34.1111 12.447 34.6462C12.2652 35.9651 12.6554 37.5398 14.4245 38.8003C14.872 39.1191 15.5049 39.0193 15.838 38.5772C16.1712 38.1352 16.0784 37.5183 15.6309 37.1994C14.4916 36.3877 14.3588 35.5373 14.4493 34.8807C14.4832 34.6353 14.5517 34.4031 14.6334 34.198C14.9902 34.3453 15.3566 34.4738 15.7316 34.5822C15.7225 34.6367 15.7177 34.6927 15.7177 34.7499C15.7177 35.3022 16.1618 35.7499 16.7097 35.7499C17.1887 35.7499 17.5884 35.4076 17.6813 34.9523C17.9767 34.9802 18.2755 34.996 18.5775 34.9993C18.6397 35.4313 18.7643 35.9524 19.0126 36.4736C19.5833 37.6713 20.753 38.7635 22.8963 38.9941C23.4439 39.0531 23.9356 38.6557 23.9944 38.1066C24.0532 37.5574 23.6568 37.0645 23.1091 37.0056C21.6639 36.85 21.0892 36.1922 20.8126 35.6115C20.6405 35.2504 20.5665 34.8807 20.5348 34.5771C21.9436 33.8914 22.9148 32.4432 22.9148 30.7676V17.2323C22.9148 15.3434 21.6805 13.7435 19.9765 13.1991C19.9254 12.7339 19.8038 12.1302 19.5161 11.5264C18.9455 10.3287 17.7758 9.23646 15.6325 9.0058ZM14.4898 31.9121C14.658 31.9489 14.818 32.0285 14.9518 32.1513C16.0847 32.6953 17.3536 32.9999 18.6936 32.9999C19.9232 32.9999 20.92 32.0005 20.92 30.7676V17.2323C20.92 15.9995 19.9232 15 18.6936 15C15.3561 15 12.4589 16.8899 11.0084 19.6605C10.9772 19.8307 10.9004 19.9949 10.7784 20.1342C10.2908 21.2215 10.0195 22.4275 10.0195 23.6969V23.862L10.0209 23.8784C10.0253 23.936 10.0247 23.9927 10.0195 24.0482V24.303C10.0195 25.7338 10.3641 27.0838 10.9746 28.2743C10.9817 28.2806 10.9887 28.287 10.9957 28.2935C11.1609 28.4476 11.261 28.6425 11.2954 28.8457C12.0775 30.1234 13.1796 31.1829 14.4898 31.9121Z" fill="black"/>
<path d="M29.7259 20.4454C30.258 20.5883 30.8049 20.2717 30.9475 19.7383L31.2056 18.7724C31.3482 18.2389 31.0324 17.6906 30.5004 17.5476C29.9683 17.4047 29.4214 17.7213 29.2788 18.2547L29.0207 19.2207C28.8781 19.7541 29.1939 20.3024 29.7259 20.4454Z" fill="black"/>
<path d="M34.1631 21.1001L33.4579 21.8072C33.0684 22.1977 32.4369 22.1977 32.0474 21.8072C31.6579 21.4166 31.6579 20.7835 32.0474 20.393L32.7526 19.6859C33.1421 19.2953 33.7736 19.2953 34.1631 19.6859C34.5526 20.0764 34.5526 20.7095 34.1631 21.1001Z" fill="black"/>
<path d="M32.288 25.3412C32.1454 25.8747 32.4611 26.423 32.9932 26.5659L34.4383 26.9542C34.9703 27.0971 35.5172 26.7805 35.6598 26.2471C35.8024 25.7136 35.4866 25.1653 34.9545 25.0223L33.5095 24.6341C32.9774 24.4912 32.4305 24.8077 32.288 25.3412Z" fill="black"/>
<path d="M29.7945 29.8588C29.9371 30.3923 30.484 30.7089 31.0161 30.5659C31.5481 30.423 31.8639 29.8746 31.7213 29.3412L31.3341 27.8923C31.1915 27.3588 30.6446 27.0423 30.1126 27.1852C29.5805 27.3281 29.2648 27.8765 29.4073 28.4099L29.7945 29.8588Z" fill="black"/>
<path fill-rule="evenodd" clip-rule="evenodd" d="M35.8221 15.2261C35.6022 15.0558 35.3754 14.8939 35.1424 14.7409C35.3154 14.3629 35.4792 13.8889 35.553 13.3538C35.7348 12.0349 35.3446 10.4602 33.5755 9.19974C33.128 8.88086 32.4951 8.98071 32.162 9.42276C31.8288 9.86481 31.9216 10.4817 32.3691 10.8006C33.5084 11.6123 33.6412 12.4627 33.5507 13.1193C33.5168 13.3647 33.4483 13.5969 33.3666 13.802C33.0098 13.6547 32.6434 13.5262 32.2684 13.4178C32.2775 13.3633 32.2823 13.3072 32.2823 13.2501C32.2823 12.6978 31.8382 12.2501 31.2903 12.2501C30.8113 12.2501 30.4116 12.5924 30.3187 13.0477C30.0233 13.0198 29.7245 13.004 29.4225 13.0007C29.3603 12.5687 29.2357 12.0476 28.9874 11.5264C28.4167 10.3287 27.247 9.23654 25.1037 9.00587C24.5561 8.94693 24.0644 9.3443 24.0056 9.89343C23.9468 10.4426 24.3432 10.9355 24.8909 10.9944C26.3361 11.15 26.9108 11.8078 27.1874 12.3885C27.3595 12.7496 27.4335 13.1193 27.4652 13.4229C26.0564 14.1086 25.0852 15.5568 25.0852 17.2324V30.7677C25.0852 32.6566 26.3195 34.2565 28.0235 34.8009C28.0746 35.2661 28.1962 35.8698 28.4839 36.4736C29.0545 37.6713 30.2242 38.7635 32.3675 38.9942C32.9152 39.0531 33.4068 38.6558 33.4656 38.1066C33.5244 37.5575 33.1281 37.0646 32.5804 37.0056C31.1352 36.8501 30.5605 36.1923 30.2838 35.6116C30.1814 35.3965 30.1137 35.1784 30.069 34.973C30.419 34.9483 30.7644 34.9065 31.1043 34.8487C31.2447 35.229 31.6081 35.4999 32.0343 35.4999C32.5821 35.4999 33.0262 35.0522 33.0262 34.5C33.0262 34.4444 33.0217 34.3898 33.0131 34.3367C33.3398 34.2153 33.6589 34.0784 33.9696 33.9267C34.0381 34.0248 34.1233 34.1468 34.2144 34.2698C34.467 34.6109 34.825 35.0461 35.3151 35.4195C35.8141 35.7998 36.4521 36.1173 37.2463 36.2129C38.0374 36.3081 38.9091 36.1743 39.8661 35.7682C40.375 35.5522 40.6022 34.9715 40.3735 34.471C40.1448 33.9705 39.5469 33.7399 39.038 33.9558C38.3414 34.2514 37.8311 34.2981 37.4638 34.2539C37.0996 34.2101 36.8028 34.0681 36.5428 33.87C36.2737 33.665 36.0483 33.4028 35.8453 33.1286C35.7825 33.0438 35.7274 32.9658 35.6728 32.8876C35.9222 32.7013 36.1633 32.5043 36.3953 32.2974C36.5617 32.4245 36.7691 32.5 36.994 32.5C37.5418 32.5 37.986 32.0523 37.986 31.5C37.986 31.2508 37.8955 31.0229 37.746 30.8478C37.963 30.5669 38.1663 30.2748 38.3551 29.9727C38.7322 30.1647 39.1819 30.3293 39.6862 30.4014C40.3097 30.4906 41.0139 30.4368 41.7365 30.1196C42.4543 29.8046 43.1316 29.2557 43.7492 28.4425C44.0841 28.0017 43.9937 27.3844 43.5475 27.0639C43.1012 26.7433 42.468 26.8408 42.1331 27.2816C41.681 27.8769 41.2659 28.1744 40.9316 28.3212C40.602 28.4658 40.2941 28.4892 40.0082 28.4483C39.726 28.4079 39.4651 28.3039 39.2499 28.1878C39.3585 27.9085 39.4558 27.6235 39.5411 27.3334C39.5997 27.3443 39.6601 27.35 39.7218 27.35C40.2697 27.35 40.7138 26.9023 40.7138 26.35C40.7138 25.8671 40.3743 25.4642 39.9228 25.3705C39.9392 25.2047 39.9518 25.0377 39.9605 24.8697C40.647 24.6553 41.471 24.2552 42.1872 23.6558C43.3207 22.7071 44.2683 21.1799 43.9308 19.0331C43.8452 18.4886 43.3327 18.1096 42.7861 18.1866C42.2396 18.2635 41.8659 18.7673 41.9516 19.3118C42.1576 20.622 41.6195 21.5086 40.8835 22.1246C40.5716 22.3856 40.238 22.5849 39.9324 22.7315C39.9012 22.382 39.8532 22.0374 39.7893 21.6984C40.1825 21.5656 40.4658 21.1912 40.4658 20.7501C40.4658 20.1978 40.0217 19.7501 39.4739 19.7501C39.3922 19.7501 39.3128 19.76 39.2368 19.7788C39.1603 19.584 39.0782 19.3919 38.9908 19.2029C39.0257 19.1713 39.0613 19.1386 39.0974 19.1048C39.4302 18.7932 39.8329 18.3652 40.1492 17.8227C40.4695 17.2733 40.7074 16.5951 40.6862 15.8029C40.6649 15.0087 40.3852 14.1768 39.7963 13.3203C39.4849 12.8673 38.8551 12.7427 38.3897 13.042C37.9243 13.3412 37.7995 13.9511 38.111 14.4041C38.5227 15.0029 38.6492 15.4784 38.6589 15.8423C38.6687 16.2083 38.5624 16.5388 38.3824 16.8476C38.2616 17.0547 38.1109 17.2462 37.9479 17.4224C37.737 17.1308 37.5117 16.8503 37.2731 16.582C37.4675 16.3994 37.5892 16.1391 37.5892 15.8501C37.5892 15.2978 37.145 14.8501 36.5972 14.8501C36.2835 14.8501 36.0038 14.9969 35.8221 15.2261ZM37.2216 27.8658C37.7092 26.7785 37.9805 25.5725 37.9805 24.3031V24.138L37.9791 24.1216C37.9747 24.064 37.9753 24.0073 37.9805 23.9518V23.697C37.9805 22.2662 37.6359 20.9161 37.0254 19.7256C37.0183 19.7194 37.0113 19.713 37.0043 19.7065C36.8391 19.5524 36.739 19.3575 36.7046 19.1543C35.9225 17.8766 34.8204 16.8171 33.5102 16.0879C33.342 16.0511 33.182 15.9715 33.0482 15.8487C31.9153 15.3047 30.6464 15.0001 29.3064 15.0001C28.0768 15.0001 27.08 15.9995 27.08 17.2324V30.7677C27.08 32.0005 28.0768 33 29.3064 33C32.6439 33 35.5411 31.1101 36.9916 28.3395C37.0228 28.1693 37.0996 28.0051 37.2216 27.8658Z" fill="black"/>
</svg>
