<svg width="48" height="48" viewBox="0 0 48 48" fill="none" xmlns="http://www.w3.org/2000/svg">
<path d="M42.0583 8.71424L40.4522 3.69519L38.5474 4.30474L40.1535 9.32379C41.6892 14.1228 42.2003 19.1908 41.6539 24.1998L39.5057 43.8915L41.4939 44.1084L43.6421 24.4167C44.2189 19.1294 43.6793 13.7799 42.0583 8.71424Z" fill="black"/>
<path d="M5.94168 8.71424L7.54777 3.69519L9.45262 4.30474L7.84652 9.32379C6.31083 14.1228 5.79967 19.1908 6.34611 24.1998L8.4943 43.8915L6.50609 44.1084L4.35791 24.4167C3.78111 19.1294 4.32067 13.7799 5.94168 8.71424Z" fill="black"/>
<path fill-rule="evenodd" clip-rule="evenodd" d="M19.4634 27.171C19.6685 27.3987 19.9012 27.6011 20.156 27.773C20.1384 27.9054 20.1259 28.0414 20.1207 28.1794C20.1033 28.6399 20.1656 29.1684 20.4317 29.6756C20.7046 30.1956 21.1487 30.6108 21.7527 30.9013C22.2504 31.1407 22.848 30.9313 23.0874 30.4336C23.3268 29.9359 23.1174 29.3384 22.6197 29.099C22.3541 28.9712 22.2521 28.8404 22.2027 28.7463C22.1602 28.6653 22.1292 28.5574 22.1205 28.4096C22.1636 28.4111 22.2069 28.4118 22.2503 28.4118H22.5003C23.0631 28.4118 23.5825 28.2259 24.0003 27.912C24.4181 28.2259 24.9375 28.4118 25.5003 28.4118H25.7503C25.7732 28.4118 25.7961 28.4116 25.8189 28.4112C25.9023 28.901 26.106 29.4107 26.3937 29.9726C26.6392 30.4522 27.2505 30.6405 27.759 30.3932C28.2675 30.146 28.4807 29.5567 28.2352 29.0771C27.9132 28.4481 27.8299 28.1109 27.8224 27.909C27.8209 27.8671 27.8222 27.8264 27.8282 27.784C28.4872 27.3446 28.9991 26.7021 29.2747 25.946C29.4902 26.0164 29.8183 26.1965 30.2638 26.6778C30.6436 27.0881 31.2812 27.126 31.6879 26.7626C32.0946 26.3992 32.1164 25.772 31.7367 25.3617C30.9864 24.5513 30.2474 24.1158 29.5003 23.9688V23.5737C29.5003 23.259 29.4616 22.9534 29.3885 22.6613L29.4177 22.6455C29.4175 22.6563 29.4159 22.6695 29.4111 22.6842L29.4099 22.6878L29.4106 22.6866C29.4155 22.6784 29.4453 22.6287 29.5478 22.5521C29.6708 22.4603 29.8465 22.37 30.0493 22.3008C30.2525 22.2314 30.4401 22.1978 30.5696 22.1916C31.1327 22.1645 31.5541 21.7056 31.511 21.1667C31.4679 20.6278 30.9764 20.2129 30.4134 20.24C29.7815 20.2704 28.9965 20.5029 28.3901 20.9103C28.2159 20.7376 28.0247 20.5818 27.8195 20.4458C27.8508 20.2532 27.873 20.0576 27.88 19.8666C27.897 19.3996 27.8362 18.8633 27.5742 18.3496C27.3043 17.8204 26.8604 17.3936 26.2479 17.0989C25.7502 16.8595 25.1526 17.0689 24.9132 17.5666C24.6738 18.0643 24.8832 18.6618 25.3809 18.9013C25.6379 19.0249 25.7403 19.1558 25.7926 19.2584C25.8528 19.3765 25.8904 19.546 25.8813 19.7937L25.8799 19.8259C25.8369 19.8245 25.7937 19.8237 25.7503 19.8237H25.5003C24.9375 19.8237 24.4181 20.0097 24.0003 20.3235C23.5825 20.0097 23.0631 19.8237 22.5003 19.8237H22.2503C22.2226 19.8237 22.195 19.824 22.1675 19.8246C22.1247 19.2582 21.9359 18.6656 21.607 18.0231C21.3614 17.5435 20.7502 17.3552 20.2416 17.6025C19.7331 17.8497 19.5199 18.439 19.7654 18.9186C20.0628 19.4994 20.1362 19.8838 20.1317 20.1452C20.1294 20.2783 20.1067 20.4023 20.0615 20.5284C19.5192 20.9189 19.0853 21.4508 18.814 22.07C18.5791 22.0115 18.2186 21.8426 17.7368 21.3222C17.357 20.9119 16.7194 20.874 16.3127 21.2374C15.906 21.6008 15.8842 22.228 16.264 22.6382C17.009 23.4431 17.756 23.8712 18.5003 24.0234V24.6618C18.5003 24.8931 18.5213 25.1195 18.5613 25.3392L18.5377 25.3521C18.5385 25.3461 18.5399 25.3395 18.5421 25.3325L18.5434 25.3283L18.5428 25.3293C18.5386 25.3367 18.5119 25.3833 18.4172 25.456C18.3017 25.5447 18.1344 25.633 17.9385 25.701C17.7423 25.7691 17.5595 25.8024 17.431 25.8086C16.8679 25.8357 16.4465 26.2945 16.4896 26.8334C16.5328 27.3723 17.0242 27.7872 17.5872 27.7601C18.1749 27.7318 18.8864 27.5289 19.4634 27.171ZM25.7503 21.8237C26.7168 21.8237 27.5003 22.6072 27.5003 23.5737V24.6618C27.5003 25.6283 26.7168 26.4118 25.7503 26.4118H25.5003C25.2242 26.4118 25.0003 26.188 25.0003 25.9118V22.3237C25.0003 22.0476 25.2242 21.8237 25.5003 21.8237H25.7503ZM23.0003 22.3237V25.9118C23.0003 26.188 22.7765 26.4118 22.5003 26.4118H22.2503C21.2838 26.4118 20.5003 25.6283 20.5003 24.6618V23.5737C20.5003 22.6072 21.2838 21.8237 22.2503 21.8237H22.5003C22.7765 21.8237 23.0003 22.0476 23.0003 22.3237Z" fill="black"/>
<path fill-rule="evenodd" clip-rule="evenodd" d="M21 35.6219C15.8243 34.2898 12 29.5915 12 24C12 17.3726 17.3726 12 24 12C30.6274 12 36 17.3726 36 24C36 29.5915 32.1757 34.2898 27 35.6219V44H25V35.9589C24.6703 35.9861 24.3368 36 24 36C23.6632 36 23.3297 35.9861 23 35.9589V44H21V35.6219ZM14 24C14 18.4772 18.4771 14 24 14C29.5228 14 34 18.4772 34 24C34 29.5228 29.5228 34 24 34C18.4771 34 14 29.5228 14 24Z" fill="black"/>
<path d="M24.1499 5C24.7022 5 25.1499 5.44772 25.1499 6V7C25.1499 7.55228 24.7022 8 24.1499 8C23.5976 8 23.1499 7.55228 23.1499 7V6C23.1499 5.44772 23.5976 5 24.1499 5Z" fill="black"/>
</svg>
