<svg width="48" height="48" viewBox="0 0 48 48" fill="none" xmlns="http://www.w3.org/2000/svg">
<path fill-rule="evenodd" clip-rule="evenodd" d="M36.9097 9.94652L36.6483 9L31.9166 10.2305L32.1839 11.1986C32.731 13.1804 32.2764 14.7158 31.5025 15.9C31.0383 16.6102 30.7455 16.9997 30.4872 17.2604C30.4445 17.3036 30.402 17.3438 30.3589 17.382C27.4183 13.4458 22.9962 10.625 17.8086 12.0362C16.3882 12.4226 15.2821 13.3931 14.554 14.6208L9.67803 13.3527L8.40158 17.9761L13.5855 19.2744C13.7567 20.3079 14.248 21.3405 14.8277 22.2749C15.3952 23.1896 16.0945 24.0841 16.8022 24.8957L16.7757 24.9226C16.4681 25.2353 16.1148 25.6098 15.7645 25.9853L15.7581 25.9922L15.7518 25.9992C15.2046 26.6082 14.0667 27.4998 12.6352 27.9505C11.2781 28.3778 9.42532 28.4129 7.66209 27.4249L6.65244 26.8591L5 31.1335L5.75095 31.5543C8.82438 33.2764 11.5916 33.2433 14.0562 32.4673C16.4088 31.7265 18.2529 30.3189 19.3057 29.1609C19.417 29.059 19.5281 28.9515 19.6328 28.8488L19.784 29.1381C19.8144 29.3813 19.8365 29.6266 19.8608 29.896C19.8804 30.1142 19.9015 30.348 19.9295 30.6092C20.0727 31.9447 20.3663 33.5349 21.5576 35.253C23.0025 37.3367 25.3049 38.0956 27.4512 37.9905C29.5681 37.8868 31.6983 36.9387 32.9251 35.3862C32.9754 35.3226 33.0244 35.258 33.0722 35.1925C33.1707 35.2012 33.2761 35.2104 33.3843 35.2197C33.8459 35.259 34.432 35.305 34.7067 35.305C37.9605 35.305 41.4921 33.6831 42.686 30.1689L43 29.2447L38.5748 27.6773L38.1691 28.4333C37.6463 29.4071 36.8024 29.9136 35.8914 30.1716C35.4007 30.3105 34.9065 30.3717 34.4664 30.3915C34.6126 27.6822 34.0513 24.4934 32.8077 21.6142C33.1825 21.3748 33.5302 21.1001 33.8746 20.759C34.4482 20.1908 34.9855 19.465 35.6255 18.4856C37.0465 16.3113 37.8617 13.3948 36.9097 9.94652ZM22.2234 32.0746C22.4127 32.734 22.7103 33.4143 23.2049 34.1275C24.17 35.5193 25.7306 36.0873 27.3526 36.0078C29.004 35.9269 30.5473 35.179 31.3516 34.1611C31.4775 34.0018 31.5945 33.8305 31.7026 33.6473L32.0257 33.0998L32.6619 33.1611L32.734 33.168L32.9301 33.1863C33.0947 33.2014 33.3184 33.2217 33.5553 33.2418C34.0536 33.2843 34.5382 33.3199 34.7067 33.3199C37.0573 33.3199 39.2972 32.3102 40.3867 30.4267L39.4627 30.0995C38.6264 31.1937 37.4993 31.7805 36.44 32.0805C35.1827 32.4366 33.9693 32.407 33.2881 32.3492L32.2439 32.2605L32.3821 31.2293C32.751 28.4775 32.1696 24.7912 30.6155 21.628L30.1756 20.7328L31.079 20.2993C31.6533 20.0237 32.0589 19.7531 32.4621 19.3538C32.8833 18.9366 33.3289 18.3523 33.9478 17.4053C34.9678 15.8446 35.6038 13.8343 35.1951 11.43L34.3261 11.656C34.6655 13.8079 34.0885 15.5904 33.1801 16.9803C32.7078 17.703 32.3231 18.2384 31.9131 18.6523C31.4779 19.0916 31.0448 19.3643 30.522 19.6152L29.7393 19.9908L29.2558 19.2736C26.5468 15.2552 22.6538 12.7764 18.3371 13.9507C17.3471 14.22 16.5043 15.0113 15.997 16.177L15.6565 16.9596L11.084 15.7705L10.8697 16.5469L15.5278 17.7135L15.5206 18.4939C15.5148 19.1325 15.7841 19.9329 16.2982 20.8424C16.9006 20.0557 18.0151 19.411 18.9102 19.4482C20.0918 19.4974 20.9912 20.3778 21.0521 21.477C21.5843 21.7116 22.0799 22.0209 22.5207 22.3993C23.6241 22.0338 24.8319 22.4793 25.3309 23.4869C25.83 24.4944 25.4479 25.7158 24.4826 26.36C24.5153 26.9376 24.4593 27.516 24.3216 28.0776C25.1612 28.7967 25.3144 30.0413 24.6321 31.0001C24.1238 31.7144 23.1247 32.1083 22.2234 32.0746ZM18.2713 26.2439C18.2502 26.2651 18.2286 26.287 18.2065 26.3095C17.9199 26.6008 17.5837 26.957 17.2377 27.3277C16.4834 28.1645 15.0533 29.2716 13.2399 29.8426C11.7099 30.3244 9.71165 30.43 7.71702 29.646L7.49716 30.2148C9.70937 31.2305 11.6536 31.1412 13.4515 30.5751C15.4425 29.9482 17.0061 28.7382 17.8478 27.8014L17.8824 27.7628L17.921 27.7279C18.0534 27.6083 18.1934 27.4704 18.3516 27.3143L18.3578 27.3081C18.4557 27.2116 18.5616 27.107 18.6691 27.005L18.2713 26.2439Z" fill="black"/>
</svg>
