<svg width="48" height="48" viewBox="0 0 48 48" fill="none" xmlns="http://www.w3.org/2000/svg">
<path d="M20.25 31.4607C20.25 29.4103 21.5206 28.4653 22.5 28.4653C23.0523 28.4653 23.5 28.9124 23.5 29.4638C23.5 29.988 23.0955 30.4178 22.5811 30.459C22.562 30.4694 22.5295 30.4911 22.4923 30.5322C22.4175 30.6149 22.25 30.8601 22.25 31.4607V34.9553C22.25 35.5068 21.8023 35.9538 21.25 35.9538C20.6977 35.9538 20.25 35.5068 20.25 34.9553V31.4607Z" fill="currentColor"/>
<path d="M27.75 31.4607C27.75 29.4103 26.4794 28.4653 25.5 28.4653C24.9477 28.4653 24.5 28.9124 24.5 29.4638C24.5 29.988 24.9045 30.4178 25.4189 30.459C25.438 30.4694 25.4705 30.4911 25.5077 30.5322C25.5825 30.6149 25.75 30.8601 25.75 31.4607V34.9553C25.75 35.5068 26.1977 35.9538 26.75 35.9538C27.3023 35.9538 27.75 35.5068 27.75 34.9553V31.4607Z" fill="currentColor"/>
<path d="M25 36.9522C25 37.5037 24.5523 37.9507 24 37.9507C23.4477 37.9507 23 37.5037 23 36.9522C23 36.4008 23.4477 35.9538 24 35.9538C24.5523 35.9538 25 36.4008 25 36.9522Z" fill="currentColor"/>
<path fill-rule="evenodd" clip-rule="evenodd" d="M29.3714 6H19.6V9.66971C19.5787 9.89359 19.4819 10.3205 18.814 10.8332C18.0572 11.4142 16.5575 12.1085 13.6291 12.6156C12.312 12.8437 10.4317 13.4268 8.8588 14.7024C7.24865 16.0083 6 18.0142 6 20.9394V42H12.5V19.7674C12.5203 19.715 12.566 19.6191 12.6181 19.5589C12.6676 19.5015 12.735 19.445 12.8319 19.4008C12.9285 19.3567 13.0805 19.3128 13.3143 19.3128C13.4371 19.3128 13.5348 19.3596 13.615 19.45C13.7022 19.5481 13.7714 19.7058 13.7714 19.901V34.0863H14.7714C15.4281 34.0863 15.8353 34.2323 16.0961 34.4019C16.3564 34.5712 16.5455 34.8125 16.6853 35.1284C16.9882 35.8132 17 36.6879 17 37.4535V41.9445H31.1524V37.4535C31.1524 37.3787 31.1521 37.3034 31.1519 37.2279C31.1493 36.4836 31.1466 35.7167 31.3929 35.0894C31.515 34.7784 31.6838 34.5506 31.9182 34.3923C32.1543 34.2327 32.542 34.0863 33.2 34.0863H34.2V24.5145C34.2001 24.5 34.2002 24.4857 34.2002 24.4715L34.2 20.0214C34.2001 20.007 34.2002 19.9926 34.2002 19.9784L34.2 19.8081C34.2 19.5205 34.4159 19.3128 34.6857 19.3128C34.9195 19.3128 35.0715 19.3567 35.1681 19.4008C35.265 19.445 35.3324 19.5015 35.3819 19.5589C35.434 19.6191 35.4797 19.715 35.5 19.7674V42H42V20.9394C42 18.0142 40.7513 16.0083 39.1412 14.7024C37.5683 13.4268 35.688 12.8437 34.3709 12.6156C32.0425 12.2124 30.7984 11.6264 30.1413 11.1136C29.5621 10.6618 29.4157 10.2507 29.3714 9.97422V6ZM32.2 20.012V19.8081C32.2 18.4359 33.2932 17.3159 34.6857 17.3159C35.7041 17.3159 36.4346 17.7198 36.8967 18.2549C37.3115 18.7353 37.5 19.313 37.5 19.7161V40.0031H40V20.9394C40 18.6654 39.0629 17.2116 37.8802 16.2524C37.1391 15.6514 36.2875 15.2356 35.4839 14.9587C35.4089 14.9766 35.3306 14.9861 35.25 14.9861H30.1591C29.262 14.9861 28.7988 15.2952 28.5561 15.5498C28.4241 15.6882 28.3394 15.8298 28.29 15.94C28.2626 16.0012 28.2515 16.0394 28.2477 16.0535C28.2122 16.5728 27.7791 16.9831 27.25 16.9831C26.6977 16.9831 26.25 16.536 26.25 15.9846C26.25 15.7031 26.3456 15.3895 26.4645 15.1243C26.5969 14.8289 26.8032 14.4921 27.1076 14.1729C27.6218 13.6335 28.3769 13.186 29.4149 13.0398C29.2323 12.9254 29.0642 12.8077 28.9097 12.6871C27.8517 11.8615 27.4747 10.9367 27.379 10.1664L27.3714 10.1052V7.99692H21.6V9.74754L21.5973 9.78412C21.5424 10.5286 21.2141 11.5097 20.0331 12.4163C19.7249 12.6528 19.3614 12.8824 18.9328 13.102C19.794 13.2904 20.4374 13.6957 20.8924 14.1729C21.1968 14.4921 21.4031 14.8289 21.5355 15.1243C21.6544 15.3895 21.75 15.7031 21.75 15.9846C21.75 16.536 21.3023 16.9831 20.75 16.9831C20.2209 16.9831 19.7878 16.5728 19.7523 16.0535C19.7485 16.0394 19.7374 16.0012 19.71 15.94C19.6606 15.8298 19.5759 15.6882 19.4439 15.5498C19.2012 15.2952 18.738 14.9861 17.8409 14.9861H12.75C12.6694 14.9861 12.5911 14.9766 12.5161 14.9587C11.7125 15.2356 10.8609 15.6514 10.1198 16.2524C8.93706 17.2116 8 18.6654 8 20.9394V40.0031H10.5V19.7161C10.5 19.313 10.6885 18.7353 11.1033 18.2549C11.5654 17.7198 12.2959 17.3159 13.3143 17.3159C14.8311 17.3159 15.7714 18.6128 15.7714 19.901V19.9784H15.7798C15.7798 20.4951 15.9244 21.2435 16.4146 21.8433C16.8714 22.4022 17.7432 22.9738 19.4998 22.9738V24.9707C17.8884 24.9707 16.6667 24.5788 15.7714 23.9483V24.4715H15.7798C15.7798 24.9881 15.9244 25.7366 16.4146 26.3364C16.8713 26.8953 17.7432 27.4669 19.4998 27.4669V29.4638C17.8884 29.4638 16.6666 29.0718 15.7714 28.4414V32.1774C16.3063 32.2775 16.7785 32.4625 17.1878 32.7287C17.8364 33.1506 18.2521 33.7279 18.5147 34.3215C19.0014 35.4216 19.0005 36.6853 19 37.3896L19 39.9476H29.1524V37.4535C29.1524 37.3874 29.1517 37.314 29.151 37.2344C29.1445 36.5411 29.1336 35.3723 29.5309 34.3605C29.7659 33.762 30.1567 33.1712 30.7973 32.7384C31.2002 32.4662 31.6682 32.2792 32.2 32.1782V28.4574C31.3096 29.0788 30.0971 29.4638 28.5002 29.4638V27.4669C30.2567 27.4669 31.1218 26.8955 31.5731 26.3392C32.048 25.7538 32.194 25.0246 32.2 24.5051V23.9643C31.3096 24.5857 30.0971 24.9707 28.5002 24.9707V22.9738C30.2567 22.9738 31.1218 22.4024 31.5731 21.8461C32.048 21.2607 32.194 20.5315 32.2 20.012Z" fill="currentColor"/>
</svg>
