<svg width="48" height="48" viewBox="0 0 48 48" fill="none" xmlns="http://www.w3.org/2000/svg">
<path d="M19.6 9.67538V6H21.6V9.75332L21.5973 9.78996C21.5747 10.0972 21.5057 10.4446 21.3497 10.8105C21.8368 10.9856 21.8692 11.5598 21.8851 11.8424C21.8877 11.888 21.8898 11.926 21.8934 11.9535C22.6091 12.2868 23.02 13.1267 22.8269 13.936C22.6337 14.7454 21.903 15.2446 21.1338 15.1341C20.8997 15.4692 20.6188 15.7686 20.2974 16.0207C20.4018 16.8336 19.9307 17.6061 19.1659 17.811C18.4011 18.016 17.6069 17.5825 17.2909 16.8263C16.8866 16.7687 16.4936 16.6498 16.1233 16.4767C15.5124 16.9569 14.63 16.89 14.058 16.2856C13.6374 15.8412 13.4915 15.219 13.624 14.6637C12.5569 14.8924 11.2171 15.3769 10.1198 16.2682C8.93706 17.2289 8 18.685 8 20.9625V32.0556H6V20.9625C6 18.0328 7.24865 16.0237 8.8588 14.7158C10.4317 13.4382 12.312 12.8542 13.6291 12.6258C16.5575 12.118 18.0572 11.4226 18.814 10.8407C19.4819 10.3272 19.5787 9.8996 19.6 9.67538Z" fill="black"/>
<path d="M29.3716 6V9.98035C29.4158 10.2573 29.5623 10.6689 30.1414 11.1215C30.7986 11.6351 32.0427 12.222 34.371 12.6258C35.6881 12.8542 37.5685 13.4382 39.1414 14.7158C40.7515 16.0237 42.0002 18.0328 42.0002 20.9625V32.0556H40.0002V20.9625C40.0002 18.685 39.0631 17.2289 37.8804 16.2682C36.6604 15.2772 35.1408 14.7892 34.0293 14.5964C31.5338 14.1636 29.9285 13.4935 28.9098 12.6974C27.8518 11.8705 27.4749 10.9444 27.3792 10.1728L27.3716 10.1115V6H29.3716Z" fill="black"/>
<path d="M34.6859 17.3333C33.2933 17.3333 32.2002 18.455 32.2002 19.8294V20.5974C31.4752 19.9635 30.314 19.803 29.3741 20.2664C28.3593 20.7667 27.9531 21.8215 28.3771 22.7239C28.0123 23.1191 27.7121 23.5597 27.4899 24.0342C26.3636 24.1726 25.498 24.9999 25.498 26.0001C25.498 27.0002 26.3636 27.8275 27.4899 27.9659C27.7121 28.4404 28.0123 28.8809 28.377 29.2761C27.9531 30.1786 28.3594 31.2333 29.3741 31.7336C30.314 32.197 31.4752 32.0365 32.2002 31.4025V41.9999H34.2002V19.8294C34.2002 19.5413 34.4161 19.3333 34.6859 19.3333C34.9197 19.3333 35.0717 19.3772 35.1683 19.4214C35.2652 19.4657 35.3326 19.5223 35.3821 19.5797C35.4341 19.6401 35.4688 19.7046 35.4892 19.757C35.4942 19.7701 35.4978 19.7807 35.5002 19.7886V32.0555H37.5002V19.7372C37.5002 19.3334 37.3117 18.7549 36.8968 18.2737C36.4348 17.7378 35.7043 17.3333 34.6859 17.3333Z" fill="black"/>
<path d="M11.1033 18.2737C11.5654 17.7378 12.2959 17.3333 13.3143 17.3333C14.9495 17.3333 16 18.7109 16 20.15V32.22C16.3353 31.97 16.8155 31.9221 17.2109 32.1332C17.6793 32.3833 17.8668 32.9107 17.6711 33.3619C17.8395 33.5595 17.978 33.7799 18.0806 34.0171C18.6005 34.0863 19 34.5 19 35C19 35.5001 18.6005 35.9138 18.0806 35.983C17.978 36.2202 17.8395 36.4405 17.6711 36.6381C17.8668 37.0893 17.6793 37.6166 17.2109 37.8668C16.8155 38.0779 16.3353 38.03 16 37.78V41.9999H14V20.15C14 19.6142 13.6539 19.3333 13.3143 19.3333C13.0805 19.3333 12.9285 19.3772 12.8319 19.4214C12.735 19.4657 12.6676 19.5223 12.6181 19.5797C12.566 19.6401 12.5313 19.7046 12.511 19.757C12.506 19.7701 12.5024 19.7807 12.5 19.7886V32.0555H10.5V19.7372C10.5 19.3334 10.6885 18.7549 11.1033 18.2737Z" fill="black"/>
<path d="M24.9998 15C25.5521 15 25.9998 14.5523 25.9998 14C25.9998 13.4477 25.5521 13 24.9998 13C24.4475 13 23.9998 13.4477 23.9998 14C23.9998 14.5523 24.4475 15 24.9998 15Z" fill="black"/>
<path d="M22.9998 18C23.5521 18 23.9998 17.5523 23.9998 17C23.9998 16.4477 23.5521 16 22.9998 16C22.4475 16 21.9998 16.4477 21.9998 17C21.9998 17.5523 22.4475 18 22.9998 18Z" fill="black"/>
<path d="M20.5 32.2251C20.5 32.7774 20.0523 33.2251 19.5 33.2251C18.9477 33.2251 18.5 32.7774 18.5 32.2251C18.5 31.6728 18.9477 31.2251 19.5 31.2251C20.0523 31.2251 20.5 31.6728 20.5 32.2251Z" fill="black"/>
<path d="M21 36C21.5523 36 22 35.5523 22 35C22 34.4477 21.5523 34 21 34C20.4477 34 20 34.4477 20 35C20 35.5523 20.4477 36 21 36Z" fill="black"/>
<path d="M27.858 32.1786C28.401 32.2796 28.7593 32.8016 28.6584 33.3446C28.5574 33.8876 28.0354 34.2459 27.4924 34.1449C26.9494 34.044 26.5911 33.522 26.6921 32.979C26.793 32.436 27.315 32.0777 27.858 32.1786Z" fill="black"/>
<path d="M26.3487 29.3552C26.8917 29.4561 27.25 29.9781 27.1491 30.5211C27.0481 31.0641 26.5261 31.4224 25.9832 31.3215C25.4402 31.2205 25.0818 30.6985 25.1828 30.1555C25.2837 29.6125 25.8057 29.2542 26.3487 29.3552Z" fill="black"/>
<path d="M26 21C26.5523 21 27 21.4477 27 22C27 22.5523 26.5523 23 26 23C25.4477 23 25 22.5523 25 22C25 21.4477 25.4477 21 26 21Z" fill="black"/>
</svg>
