<svg width="24" height="24" viewBox="0 0 24 24" fill="none" xmlns="http://www.w3.org/2000/svg">
<path d="M15.2501 6.5C16.4927 6.5 17.5001 5.49264 17.5001 4.25C17.5001 3.00736 16.4927 2 15.2501 2C14.0074 2 13.0001 3.00736 13.0001 4.25C13.0001 5.49264 14.0074 6.5 15.2501 6.5Z" fill="black"/>
<path d="M12.3827 6.49876C10.8875 6.28944 7.47101 6.89609 6.06373 10.6488C5.86981 11.166 6.13181 11.7424 6.64893 11.9363C7.16605 12.1302 7.74247 11.8682 7.93639 11.3511C8.5197 9.7956 9.57155 9.03454 10.5097 8.69638L9.34067 11.7021C9.32145 11.7515 9.30642 11.8015 9.29542 11.8518C9.20171 12.1529 9.25147 12.4933 9.45894 12.7616L13.0211 17.3687L13.252 21.0623C13.2864 21.6135 13.7612 22.0325 14.3124 21.998C14.8636 21.9636 15.2826 21.4888 15.2481 20.9376L14.9789 16.6312L12.8861 13.9244L14.2594 11.2629L14.3519 11.3973C14.8887 12.1774 15.8991 12.4741 16.7725 12.1081L18.8866 11.2222C19.3959 11.0087 19.6358 10.4228 19.4224 9.91341C19.2089 9.40404 18.6229 9.16415 18.1136 9.3776L15.9995 10.2635L14.393 7.92894C14.0375 7.31458 13.4664 6.81797 12.7317 6.5684C12.6163 6.52917 12.4991 6.50636 12.3827 6.49876Z" fill="black"/>
<path d="M8.44912 16.4497L9.27658 13.998L10.746 15.8984L10.3441 17.0893C10.0535 17.9502 9.21903 18.5071 8.31245 18.445L5.43171 18.2477C4.88071 18.21 4.46464 17.7327 4.50238 17.1817C4.54012 16.6307 5.01738 16.2146 5.56837 16.2524L8.44912 16.4497Z" fill="black"/>
</svg>
