<svg width="24" height="24" viewBox="0 0 24 24" fill="none" xmlns="http://www.w3.org/2000/svg">
<path d="M13.7498 6.5C14.9924 6.5 15.9998 5.49264 15.9998 4.25C15.9998 3.00736 14.9924 2 13.7498 2C12.5071 2 11.4998 3.00736 11.4998 4.25C11.4998 5.49264 12.5071 6.5 13.7498 6.5Z" fill="black"/>
<path d="M13.7755 12.2468L13.2668 14.4272L15.8878 16.968L16.9613 20.7252C17.113 21.2562 16.8055 21.8097 16.2745 21.9614C15.7435 22.1131 15.19 21.8057 15.0383 21.2746L14.1117 18.0318L9.46413 13.5265C9.19551 13.3282 9.0354 13.0014 9.06046 12.6505L9.25582 9.91547C8.56209 10.6975 7.87662 11.8211 7.4613 13.2749C7.30959 13.8059 6.75611 14.1134 6.22507 13.9617C5.69403 13.81 5.38653 13.2565 5.53824 12.7255C6.08438 10.8138 7.03045 9.33313 8.00941 8.31819C8.49788 7.81177 9.00544 7.41004 9.49038 7.12869C9.95162 6.86109 10.4827 6.6499 10.9998 6.64991C11.0506 6.64991 11.1004 6.65369 11.1492 6.66099C11.2154 6.65977 11.2825 6.66214 11.35 6.66828C12.5038 6.77315 13.4429 7.47373 13.9169 8.42352C13.9391 8.45511 13.9598 8.48832 13.9786 8.5231L15.2083 10.7882C15.4915 11.3099 15.9917 11.6788 16.5737 11.7952L17.6959 12.0196C18.2375 12.1279 18.5887 12.6547 18.4804 13.1963C18.3721 13.7379 17.8452 14.0891 17.3037 13.9808L16.1815 13.7563C15.2152 13.5631 14.3617 13.0218 13.7755 12.2468Z" fill="black"/>
<path d="M8.14449 18.4037L9.35288 14.7785L10.9487 16.3156L10.0419 19.0362C9.91994 19.4019 9.69492 19.7246 9.39388 19.9655L7.12448 21.781C6.69322 22.126 6.06393 22.0561 5.71892 21.6248C5.37391 21.1935 5.44383 20.5643 5.87509 20.2192L8.14449 18.4037Z" fill="black"/>
</svg>
