<svg width="24" height="24" viewBox="0 0 24 24" fill="none" xmlns="http://www.w3.org/2000/svg">
<path d="M12.25 6.5C13.4926 6.5 14.5 5.49264 14.5 4.25C14.5 3.00736 13.4926 2 12.25 2C11.0074 2 10 3.00736 10 4.25C10 5.49264 11.0074 6.5 12.25 6.5Z" fill="black"/>
<path fill-rule="evenodd" clip-rule="evenodd" d="M8.16295 9.23655C8.54777 7.90285 9.92943 7.12264 11.2702 7.48191C11.5767 7.56401 11.8426 7.72585 12.0502 7.94018C12.1236 8.00303 12.1891 8.07767 12.2437 8.16345L14.049 11.0003H16C16.5523 11.0003 17 11.448 17 12.0003C17 12.544 16.5661 12.9864 16.0257 13H20C21.1046 13 22 13.8954 22 15V22H20V15H4V22H2V15C2 13.8954 2.89543 13 4 13H7.40802C7.30153 12.6496 7.29017 12.2614 7.40365 11.8681L8.16295 9.23655ZM12.0064 13H12.9508L12.1757 11.7819L12.0064 13Z" fill="black"/>
<path d="M8.02564 16L7.79634 17.6051L5.70006 20.4001C5.36869 20.842 5.45823 21.4688 5.90006 21.8001C6.34189 22.1315 6.96869 22.042 7.30006 21.6001L9.70378 18.3952L10.0459 16H8.02564Z" fill="black"/>
<path d="M10.1145 16L12.4138 18.25L13.8309 21.3939C14.0484 21.9016 14.6363 22.1367 15.1439 21.9191C15.6516 21.7016 15.8867 21.1137 15.6691 20.6061L14.0862 17.2L12.8945 16H10.1145Z" fill="black"/>
</svg>
