<svg width="24" height="24" viewBox="0 0 24 24" fill="none" xmlns="http://www.w3.org/2000/svg">
<path d="M12 8C13.6568 8 15 6.65685 15 5C15 3.34315 13.6568 2 12 2C10.3431 2 8.99996 3.34315 8.99996 5C8.99996 6.65685 10.3431 8 12 8Z" fill="black"/>
<path d="M15 15.25V14H8.99996V15.25C8.99996 15.25 9.15805 15.4344 9.42291 15.6836C9.79543 16.034 10.3792 16.5123 11.0313 16.7854C11.0547 16.7952 11.0783 16.8048 11.1019 16.8141C11.393 16.9284 11.6965 17 12 17C12.3806 17 12.7612 16.8873 13.1174 16.7191C13.8138 16.3902 14.4165 15.8491 14.7421 15.5234C14.906 15.3596 15 15.25 15 15.25Z" fill="black"/>
<path d="M8.99996 10.9266C8.03517 10.8589 6.99557 10.7289 5.796 10.479C5.25533 10.3663 4.90834 9.83672 5.02098 9.29605C5.13362 8.75537 5.66324 8.40838 6.20391 8.52102C8.49614 8.99857 10.1288 9 12 9C13.8712 9 15.5038 8.99857 17.796 8.52102C18.3367 8.40838 18.8663 8.75537 18.9789 9.29605C19.0916 9.83672 18.7446 10.3663 18.2039 10.479C17.0043 10.7289 15.9647 10.8589 15 10.9266V13H8.99996V10.9266Z" fill="black"/>
<path d="M8.05127 20.8162C7.54199 19.2884 7.86523 17.8222 8.80007 16.47C8.94962 16.6079 9.12596 16.7607 9.32352 16.9144C9.61602 17.1419 9.99682 17.4046 10.4371 17.6146C9.77976 18.5661 9.68918 19.4054 9.94864 20.1838C10.1233 20.7077 9.84012 21.274 9.31617 21.4487C8.79223 21.6233 8.22591 21.3402 8.05127 20.8162Z" fill="black"/>
<path d="M13.7922 17.4979C14.5247 18.4976 14.6338 19.3737 14.3638 20.1838C14.1891 20.7077 14.4723 21.274 14.9962 21.4487C15.5202 21.6233 16.0865 21.3402 16.2612 20.8162C16.7927 19.2215 16.4173 17.694 15.3861 16.2931C15.2057 16.4697 14.9634 16.6911 14.6764 16.9144C14.436 17.1013 14.1359 17.3121 13.7922 17.4979Z" fill="black"/>
</svg>
