<svg width="24" height="24" viewBox="0 0 24 24" fill="none" xmlns="http://www.w3.org/2000/svg">
<path d="M14 8.5C14 6.567 15.567 5 17.5 5C19.433 5 21 6.567 21 8.5C21 10.433 19.433 12 17.5 12C15.567 12 14 10.433 14 8.5Z" fill="black"/>
<path d="M5.38497 14.3116L5.81404 13.916C6.81654 12.9916 8.36076 12.9916 9.36325 13.916C10.4875 14.9527 10.4875 16.7282 9.36326 17.765L8.33911 18.7093C7.77264 19.2317 7.03663 19.5001 6.2998 19.5001H4.59423C3.16148 19.5001 2 18.3386 2 16.9059C2 15.4731 3.16148 14.3116 4.59423 14.3116H5.38497Z" fill="black"/>
<path d="M16.0547 12.8469C15.0899 12.2038 14.0063 12.0331 13.2239 12.0047C12.8243 11.9901 12.4799 12.0118 12.2328 12.0375C12.1087 12.0503 12.0077 12.0643 11.9348 12.0757C11.8984 12.0814 11.8688 12.0864 11.8468 12.0903L11.8195 12.0954L11.8102 12.0972L11.8067 12.0978L11.8052 12.0981L11.8039 12.0984L11 12.28V20H12C13.5286 20 14.591 19.6866 15.265 19.379C15.6315 19.7146 16.2141 20.079 17 20.079H19.5C20.2407 20.079 20.8974 19.8186 21.362 19.312C21.8136 18.8196 22 18.1862 22 17.579C22 16.1993 20.844 15.079 19.5 15.079C19.2849 15.079 19.1064 15.0838 18.9591 15.0882L18.9124 15.0896C18.7844 15.0934 18.6961 15.0961 18.6167 15.0957C18.5217 15.0953 18.4633 15.0906 18.4105 15.0791C18.164 14.919 18.0206 14.7432 17.7487 14.4097L17.7122 14.365C17.3668 13.9417 16.9195 13.4234 16.0547 12.8469Z" fill="black"/>
</svg>
