<svg width="24" height="24" viewBox="0 0 24 24" fill="none" xmlns="http://www.w3.org/2000/svg">
<path d="M12 8C13.6569 8 15 6.65685 15 5C15 3.34315 13.6569 2 12 2C10.3431 2 9 3.34315 9 5C9 6.65685 10.3431 8 12 8Z" fill="black"/>
<path d="M7 6.93402C8.53363 7.93059 10.8838 9.58856 12.8688 11.7937C14.7564 13.8905 16.2422 16.4011 16.4697 19.2431C15.6476 20.8781 13.9548 21.9998 12 21.9998C9.23858 21.9998 7 19.7613 7 16.9998V6.93402Z" fill="black"/>
<path d="M17 6.93504V14.1887C16.273 12.8023 15.3439 11.5538 14.3553 10.4556C13.9712 10.029 13.5756 9.62216 13.1759 9.23584C13.9258 9.02475 14.6294 8.60747 15.1962 7.984L16.3709 6.69183C16.5932 6.4473 17 6.60456 17 6.93504Z" fill="black"/>
</svg>
