<svg width="24" height="24" viewBox="0 0 24 24" fill="none" xmlns="http://www.w3.org/2000/svg">
<path d="M12 8.5C13.2426 8.5 14.25 7.49264 14.25 6.25C14.25 5.00736 13.2426 4 12 4C10.7573 4 9.74997 5.00736 9.74997 6.25C9.74997 7.49264 10.7573 8.5 12 8.5Z" fill="black"/>
<path d="M7.44719 8.60555C6.95321 8.35856 6.35254 8.55878 6.10555 9.05276C5.85856 9.54674 6.05878 10.1474 6.55276 10.3944C7.00577 10.6209 7.87048 10.9451 8.99997 11.1839L8.99997 18.901C8.99997 19.508 9.49202 20 10.099 20C10.6229 20 11.0739 19.6302 11.1767 19.1165L12 15L12.8233 19.1165C12.926 19.6302 13.3771 20 13.9009 20C14.5079 20 15 19.508 15 18.901L15 11.1839C16.1295 10.9451 16.9942 10.6209 17.4472 10.3944C17.9412 10.1474 18.1414 9.54674 17.8944 9.05276C17.6474 8.55878 17.0467 8.35856 16.5527 8.60555C16.0199 8.87198 14.2392 9.49998 12 9.49998C9.76076 9.49998 7.98005 8.87198 7.44719 8.60555Z" fill="black"/>
</svg>
