<svg width="24" height="24" viewBox="0 0 24 24" fill="none" xmlns="http://www.w3.org/2000/svg">
<path d="M7.24993 7C8.3545 7 9.24993 6.10457 9.24993 5C9.24993 3.89543 8.3545 3 7.24993 3C6.14536 3 5.24993 3.89543 5.24993 5C5.24993 6.10457 6.14536 7 7.24993 7Z" fill="black"/>
<path d="M9.00858 12.103L9.09507 10.6326L9.51632 12.9303C9.61592 13.4736 10.137 13.8332 10.6803 13.7336C11.2235 13.634 11.5831 13.1129 11.4835 12.5697L10.9463 9.63934C10.7887 8.77951 10.0953 8.13277 9.24886 8.01814L9.24993 8H5.24993L5.251 8.01814C4.40461 8.13277 3.71119 8.77951 3.55355 9.63934L3.01632 12.5697C2.91673 13.1129 3.27637 13.634 3.8196 13.7336C4.36283 13.8332 4.88394 13.4736 4.98354 12.9303L5.40479 10.6326L5.49128 12.103C5.49702 12.2005 5.48844 12.2983 5.46581 12.3933L4.24993 17.5C4.24993 17.5 5.06683 18 7.24993 18C9.43303 18 10.2499 17.5 10.2499 17.5L9.03405 12.3933C9.01143 12.2983 9.00285 12.2005 9.00858 12.103Z" fill="black"/>
<path d="M4.74993 20.1399V18.7191L4.80455 18.7337C5.26345 18.8539 5.93078 18.9683 6.8516 18.9944L6.43381 20.3871C6.32467 20.7509 5.98982 21 5.61001 21C5.135 21 4.74993 20.6149 4.74993 20.1399Z" fill="black"/>
<path d="M7.64827 18.9944L8.06605 20.3871C8.17519 20.7509 8.51004 21 8.88985 21C9.36486 21 9.74993 20.6149 9.74993 20.1399V18.7191L9.69531 18.7337C9.23642 18.8539 8.56908 18.9683 7.64827 18.9944Z" fill="black"/>
<path d="M12.9696 7.46978L16.9999 3.43945L21.0303 7.46978L19.9696 8.53044L19.4999 8.06076L19.4999 10.0001H17.9999V8.75011C17.9999 8.19783 17.5522 7.75011 16.9999 7.75011C16.4476 7.75011 15.9999 8.19783 15.9999 8.75011V10.0001H14.4999L14.4999 8.06077L14.0303 8.53044L12.9696 7.46978Z" fill="black"/>
<path d="M12.9696 17.4698L17.4999 12.9395L22.0303 17.4698L20.9696 18.5304L20.4999 18.0608L20.4999 20.0001H18.4999V18.7501C18.4999 18.1978 18.0522 17.7501 17.4999 17.7501C16.9477 17.7501 16.4999 18.1978 16.4999 18.7501V20.0001H14.5L14.4999 18.0608L14.0303 18.5304L12.9696 17.4698Z" fill="black"/>
</svg>
