<svg width="24" height="24" viewBox="0 0 24 24" fill="none" xmlns="http://www.w3.org/2000/svg">
<path d="M12 11C14.2091 11 16 9.20914 16 7C16 4.79086 14.2091 3 12 3C9.79086 3 8 4.79086 8 7C8 9.20914 9.79086 11 12 11Z" fill="black"/>
<path d="M8.61998 12.9221L8.99356 12.3733C9.90188 12.7859 10.8889 13 11.8885 13H12.1115C12.97 13 13.8192 12.8421 14.6173 12.5361L14.88 12.9221C15.0021 13.1015 15.125 13.4523 15.2072 13.8946C15.2867 14.3223 15.3089 14.7275 15.2939 14.9496C15.2868 15.0548 15.3018 15.1565 15.3349 15.25H14.9564C14.6611 15.25 14.3925 15.421 14.2677 15.6886L13.577 17.1686C13.3419 17.6725 13.7097 18.25 14.2657 18.25H15.4V16.75H16.65V18.25H17.7343C18.2903 18.25 18.6581 17.6725 18.423 17.1686L17.7323 15.6886C17.6075 15.421 17.3389 15.25 17.0436 15.25H16.7495C16.7717 15.1871 16.7858 15.1203 16.7905 15.0505C16.816 14.6725 16.7781 14.1377 16.682 13.6205C16.5885 13.1178 16.42 12.5187 16.12 12.078L16.071 12.0059C16.1214 12.002 16.1721 12 16.2229 12C18.8612 12 21 14.1388 21 16.7771V21H3V16.7771C3 14.2574 4.95076 12.1933 7.42438 12.0128L7.38002 12.078C6.78859 12.9468 6.6989 14.0237 6.77157 14.8873C6.79664 15.1852 6.84291 15.4788 6.90396 15.7535C6.59478 16.0282 6.39999 16.4289 6.39999 16.875C6.39999 17.7035 7.07157 18.375 7.89999 18.375C8.72842 18.375 9.39999 17.7035 9.39999 16.875C9.39999 16.212 8.96982 15.6495 8.37335 15.4513C8.3267 15.2466 8.28744 15.0129 8.26629 14.7615C8.20689 14.0556 8.30586 13.3835 8.61998 12.9221Z" fill="black"/>
</svg>
