<svg width="24" height="24" viewBox="0 0 24 24" fill="none" xmlns="http://www.w3.org/2000/svg">
<path d="M18.3953 9.56473C18.3953 10.9812 17.2322 12.1295 15.7974 12.1295C14.3627 12.1295 13.1995 10.9812 13.1995 9.56473C13.1995 8.14827 14.3627 7 15.7974 7C17.2322 7 18.3953 8.14827 18.3953 9.56473Z" fill="black"/>
<path fill-rule="evenodd" clip-rule="evenodd" d="M12 22C17.5228 22 22 17.5228 22 12C22 6.47715 17.5228 2 12 2C6.47715 2 2 6.47715 2 12C2 17.5228 6.47715 22 12 22ZM12 20C16.4183 20 20 16.4183 20 12C20 7.58172 16.4183 4 12 4C11.1284 4 10.2894 4.13938 9.50403 4.39706C9.69788 4.8497 9.95474 5.49246 10.2115 6.26284C10.4833 7.07817 10.0091 7.6975 9.58778 8.05822C9.1669 8.41855 8.58587 8.7183 8.10259 8.96352L7.9816 9.02483C7.50687 9.26529 7.1213 9.46057 6.8557 9.65733C6.78665 9.70847 6.74055 9.74937 6.71062 9.77928C6.73338 9.83259 6.75198 9.86274 6.76305 9.87803C6.77868 9.88149 6.80875 9.88707 6.86135 9.89319C6.87112 9.89432 6.88375 9.89555 6.89887 9.89702C7.01754 9.90855 7.28955 9.93497 7.53645 10.0492C7.87601 10.2064 8.12182 10.4853 8.28263 10.8666C8.42351 11.2006 8.69819 11.8296 8.99681 12.5086C9.07717 12.602 9.14509 12.7083 9.19708 12.8259L10.3362 15.4033C11.0529 15.3141 11.5791 15.05 11.9424 14.7492L11.912 14.7536C11.2853 14.8453 10.6831 14.4773 10.4867 13.8828L9.65161 11.3555C9.42914 10.6822 9.80168 9.95829 10.4837 9.73865C11.1657 9.51902 11.8989 9.8868 12.1214 10.5601L12.6163 12.0578L13.637 11.9085C14.221 11.8231 14.79 12.1373 15.0219 12.6734C15.3003 13.317 15.2491 14.0165 15.0716 14.5981C14.8878 15.1998 14.5373 15.792 14.0498 16.3055C13.056 17.3521 11.4771 18.0919 9.43162 17.9908C8.93922 17.9664 8.50323 17.669 8.30606 17.2229L7.28828 14.9202L6.70331 15.1109C6.02151 15.3312 5.28792 14.9641 5.06479 14.291C4.84167 13.6179 5.21349 12.8936 5.89529 12.6734L7.24031 12.2374C7.0993 11.914 6.9799 11.6377 6.90052 11.4495C6.89263 11.4308 6.88585 11.4166 6.88041 11.4063L6.87879 11.406C6.84621 11.4005 6.82003 11.3977 6.77684 11.393C6.75347 11.3905 6.72507 11.3874 6.68804 11.3831C6.51648 11.3632 6.19705 11.3219 5.89109 11.1026C5.57843 10.8786 5.37731 10.5438 5.2447 10.1369C5.11788 9.74765 5.19258 9.37983 5.36453 9.08346C5.5205 8.81463 5.75206 8.60814 5.96284 8.452C6.3377 8.17432 6.84233 7.91956 7.28136 7.69792L7.42387 7.62585C7.9397 7.36413 8.35205 7.14154 8.61227 6.91876C8.72517 6.82211 8.77011 6.75737 8.78555 6.72834C8.54698 6.01356 8.30872 5.4168 8.12923 4.9971C5.66694 6.36101 4 8.98584 4 12C4 16.4183 7.58172 20 12 20Z" fill="black"/>
</svg>
