<svg width="24" height="24" viewBox="0 0 24 24" fill="none" xmlns="http://www.w3.org/2000/svg">
<path d="M12 8.5C13.2426 8.5 14.25 7.49264 14.25 6.25C14.25 5.00736 13.2426 4 12 4C10.7573 4 9.74997 5.00736 9.74997 6.25C9.74997 7.49264 10.7573 8.5 12 8.5Z" fill="black"/>
<path d="M16.5 16L14.8268 11.2194C16.041 10.9781 16.9713 10.6323 17.4472 10.3944C17.9412 10.1474 18.1414 9.54674 17.8944 9.05276C17.6474 8.55878 17.0467 8.35856 16.5528 8.60555C16.0199 8.87198 14.2392 9.49998 12 9.49998C9.76077 9.49998 7.98005 8.87198 7.44719 8.60555C6.95321 8.35856 6.35254 8.55878 6.10555 9.05276C5.85856 9.54674 6.05878 10.1474 6.55276 10.3944C7.02866 10.6323 7.9589 10.9781 9.17316 11.2194L7.49998 16C7.49998 16 10.4718 16.5 12 16.5C13.5281 16.5 16.5 16 16.5 16Z" fill="black"/>
<path d="M8.99997 17.25L11.5 17.5L11.1767 19.1165C11.0739 19.6302 10.6229 20 10.099 20C9.49202 20 8.99997 19.508 8.99997 18.901V17.25Z" fill="black"/>
<path d="M15 17.25L12.5 17.5L12.8233 19.1165C12.926 19.6302 13.3771 20 13.9009 20C14.5079 20 15 19.508 15 18.901V17.25Z" fill="black"/>
</svg>
