<svg width="24" height="24" viewBox="0 0 24 24" fill="none" xmlns="http://www.w3.org/2000/svg">
<path d="M12 11C14.2091 11 16 9.20914 16 7C16 4.79086 14.2091 3 12 3C9.79086 3 8 4.79086 8 7C8 9.20914 9.79086 11 12 11Z" fill="black"/>
<path fill-rule="evenodd" clip-rule="evenodd" d="M3 16.7771C3 14.1388 5.13877 12 7.77709 12C8.07893 12 8.37662 12.0703 8.64659 12.2053L8.75805 12.261C9.73004 12.747 10.8018 13 11.8885 13H12.1115C13.1982 13 14.27 12.747 15.242 12.261L15.3534 12.2053C15.6234 12.0703 15.9211 12 16.2229 12C18.8612 12 21 14.1388 21 16.7771V21H3V16.7771ZM15.75 17.25V18.25H17.25V17.25H18.25V15.75H17.25V14.75H15.75V15.75H14.75V17.25H15.75Z" fill="black"/>
</svg>
