<svg width="24" height="24" viewBox="0 0 24 24" fill="none" xmlns="http://www.w3.org/2000/svg">
<path d="M3 3H21V7.38462H19V5H5V14H9.33333V16H3V3Z" fill="black"/>
<path d="M12.6837 10.2873C13.5581 11.2122 14.303 12 16 12H18C19.1046 12 20 12.8954 20 14V15C20 15.7403 19.5978 16.3866 19 16.7324V22H16V14C13.3833 14 12.0438 12.5509 11.1599 11.5948C11.0284 11.4525 10.9069 11.3211 10.7929 11.2071L12.2071 9.79289C12.3737 9.95947 12.5308 10.1257 12.6837 10.2873Z" fill="black"/>
<path d="M19 9.5C19 10.3284 18.3284 11 17.5 11C16.6716 11 16 10.3284 16 9.5C16 8.67157 16.6716 8 17.5 8C18.3284 8 19 8.67157 19 9.5Z" fill="black"/>
</svg>
