<svg width="24" height="24" viewBox="0 0 24 24" fill="none" xmlns="http://www.w3.org/2000/svg">
<path d="M11.5 9C13.433 9 15 7.433 15 5.5C15 3.567 13.433 2 11.5 2C9.567 2 8 3.567 8 5.5C8 7.433 9.567 9 11.5 9Z" fill="black"/>
<path fill-rule="evenodd" clip-rule="evenodd" d="M15.1857 9.5334C15.831 9.39514 16.4908 9.69479 16.8113 10.2716L19.3113 14.7716C19.584 15.2626 19.5596 15.8648 19.2481 16.3322L16.2558 20.8206C16.1698 20.9526 16.0658 21.067 15.9489 21.1623C15.5964 21.4503 15.1304 21.5614 14.6887 21.4679C14.5266 21.4335 14.3678 21.3716 14.2191 21.2808C14.0703 21.1902 13.9425 21.0774 13.8378 20.949C13.5498 20.5965 13.4387 20.1304 13.5323 19.6888C13.5635 19.5413 13.6176 19.3965 13.6955 19.2595L13.8389 19.0015L14.2421 18.3793C14.7717 17.5623 14.3946 16.4651 13.4747 16.1462L11 15.2883V14C11 13.4477 10.5523 13 10 13C9.44771 13 9 13.4477 9 14V16C9 16.426 9.26992 16.8053 9.67246 16.9448L10.9957 17.4036L9.40927 18.6727L10.1389 19.5239C10.678 20.1529 10.6052 21.0999 9.9762 21.639C9.34721 22.1781 8.40026 22.1053 7.86113 21.4763L4.86113 17.9763C4.45289 17.5 4.38414 16.82 4.68878 16.2716L7.18878 11.7716C7.399 11.3932 7.76245 11.1241 8.18572 11.0334L15.1857 9.5334ZM15 16C16.1046 16 17 15.1046 17 14C17 12.8954 16.1046 12 15 12C13.8955 12 13 12.8954 13 14C13 15.1046 13.8955 16 15 16Z" fill="black"/>
</svg>
