<svg width="24" height="24" viewBox="0 0 24 24" fill="none" xmlns="http://www.w3.org/2000/svg">
<path d="M7.24993 7C8.3545 7 9.24993 6.10457 9.24993 5C9.24993 3.89543 8.3545 3 7.24993 3C6.14536 3 5.24993 3.89543 5.24993 5C5.24993 6.10457 6.14536 7 7.24993 7Z" fill="black"/>
<path d="M9.00858 12.103L9.09507 10.6326L9.51632 12.9303C9.61592 13.4736 10.137 13.8332 10.6803 13.7336C11.2235 13.634 11.5831 13.1129 11.4835 12.5697L10.9463 9.63934C10.7887 8.77951 10.0953 8.13277 9.24886 8.01814L9.24993 8H5.24993L5.251 8.01814C4.40461 8.13277 3.71119 8.77951 3.55355 9.63934L3.01632 12.5697C2.91673 13.1129 3.27637 13.634 3.8196 13.7336C4.36283 13.8332 4.88394 13.4736 4.98354 12.9303L5.40479 10.6326L5.49128 12.103C5.49702 12.2005 5.48844 12.2983 5.46581 12.3933L4.24993 17.5C4.24993 17.5 5.06683 18 7.24993 18C9.43303 18 10.2499 17.5 10.2499 17.5L9.03405 12.3933C9.01143 12.2983 9.00285 12.2005 9.00858 12.103Z" fill="black"/>
<path d="M4.74993 20.1399V18.7191L4.80455 18.7337C5.26345 18.8539 5.93078 18.9683 6.8516 18.9944L6.43381 20.3871C6.32467 20.7509 5.98982 21 5.61001 21C5.135 21 4.74993 20.6149 4.74993 20.1399Z" fill="black"/>
<path d="M7.64827 18.9944L8.06605 20.3871C8.17519 20.7509 8.51004 21 8.88985 21C9.36486 21 9.74993 20.6149 9.74993 20.1399V18.7191L9.69531 18.7337C9.23642 18.8539 8.56908 18.9683 7.64827 18.9944Z" fill="black"/>
<path d="M18.4999 5C18.4999 6.10457 17.6045 7 16.4999 7C15.3954 7 14.4999 6.10457 14.4999 5C14.4999 3.89543 15.3954 3 16.4999 3C17.6045 3 18.4999 3.89543 18.4999 5Z" fill="black"/>
<path d="M11.9999 10C11.9999 8.89543 12.8954 8 13.9999 8H18.9999C20.1045 8 20.9999 8.89543 20.9999 10V13.5C20.9999 14.0523 20.5522 14.5 19.9999 14.5C19.4477 14.5 18.9999 14.0523 18.9999 13.5V10H18.7499L18.7499 20.0711C18.7499 20.5841 18.3341 21 17.821 21C17.3312 21 16.9255 20.6196 16.8941 20.1307L16.5642 15H16.4357L16.1058 20.1307C16.0744 20.6196 15.6687 21 15.1788 21C14.6658 21 14.2499 20.5841 14.2499 20.0711L14.2499 10H13.9999V13.5C13.9999 14.0523 13.5522 14.5 12.9999 14.5C12.4477 14.5 11.9999 14.0523 11.9999 13.5V10Z" fill="black"/>
</svg>
