<svg width="24" height="24" viewBox="0 0 24 24" fill="none" xmlns="http://www.w3.org/2000/svg">
<path fill-rule="evenodd" clip-rule="evenodd" d="M12.5 4.5C12.5 5.88071 11.3807 7 10 7C8.61929 7 7.5 5.88071 7.5 4.5C7.5 3.11929 8.61929 2 10 2C11.3807 2 12.5 3.11929 12.5 4.5ZM7 21V19L9 19.25V21C9 21.5523 8.55228 22 8 22C7.44772 22 7 21.5523 7 21ZM11 19.25V21C11 21.5523 11.4477 22 12 22C12.5523 22 13 21.5523 13 21V19L11 19.25ZM16.1961 12.4806C15.6545 12.5889 15.1277 12.2377 15.0194 11.6961C14.8494 10.8462 14.39 10.469 13.7887 10.2543C13.3523 10.0984 12.8597 10.038 12.358 10.0146L15 17.5002C15 17.5002 12.1831 18.0002 10 18.0002C7.8169 18.0002 5 17.5002 5 17.5002L6.00105 14.6639C4.81801 14.1024 4 12.8968 4 11.5002C4 9.56722 5.567 8.00022 7.5 8.00022H11.4802L11.5 8.00002L11.5518 8.00001H11.552C11.6168 7.99999 11.6849 7.99997 11.7561 8.00022H12V8.00232C12.7017 8.01272 13.6165 8.06905 14.4613 8.37078C15.6099 8.781 16.6506 9.65382 16.9806 11.3039C17.0889 11.8455 16.7377 12.3723 16.1961 12.4806ZM7.64706 10.0002H7.5C6.67157 10.0002 6 10.6718 6 11.5002C6 12.024 6.26849 12.4851 6.67535 12.7534L7.64706 10.0002ZM17 14.4C17 14.1767 17.0873 14.0354 17.2134 13.9337C17.3579 13.8171 17.5628 13.75 17.75 13.75C17.9372 13.75 18.1421 13.8171 18.2866 13.9337C18.4127 14.0354 18.5 14.1767 18.5 14.4V21C18.5 21.4142 18.8358 21.75 19.25 21.75C19.6642 21.75 20 21.4142 20 21V14.4C20 13.6899 19.6808 13.1313 19.2286 12.7663C18.7948 12.4163 18.2497 12.25 17.75 12.25C17.2503 12.25 16.7052 12.4163 16.2714 12.7663C15.8192 13.1313 15.5 13.6899 15.5 14.4C15.5 14.8142 15.8358 15.15 16.25 15.15C16.6642 15.15 17 14.8142 17 14.4Z" fill="black"/>
</svg>
