<svg width="24" height="24" viewBox="0 0 24 24" fill="none" xmlns="http://www.w3.org/2000/svg">
<path d="M12 11C14.2091 11 16 9.20914 16 7C16 4.79086 14.2091 3 12 3C9.79086 3 8 4.79086 8 7C8 9.20914 9.79086 11 12 11Z" fill="black"/>
<path d="M7.77709 12C5.13877 12 3 14.1388 3 16.7771V21H13.653C13.5537 20.7381 13.5 20.4562 13.5 20.1667V13.8333C13.5 13.472 13.5837 13.1226 13.7352 12.8091C13.205 12.9355 12.6601 13 12.1115 13H11.8885C10.8018 13 9.73004 12.747 8.75805 12.261L8.64659 12.2053C8.37662 12.0703 8.07893 12 7.77709 12Z" fill="black"/>
<path fill-rule="evenodd" clip-rule="evenodd" d="M17.5498 12.75C17.5498 12.3358 17.214 12 16.7998 12C16.3856 12 16.0498 12.3358 16.0498 12.75V13H15.8036C15.3598 13 15 13.3731 15 13.8333V20.1667C15 20.6269 15.3598 21 15.8036 21H20.1964C20.6402 21 21 20.6269 21 20.1667V13.8333C21 13.3731 20.6402 13 20.1964 13H19.8477V12.75C19.8477 12.3358 19.5119 12 19.0977 12C18.6834 12 18.3477 12.3358 18.3477 12.75V13H17.5498V12.75ZM19.2634 15.551C19.4296 15.4055 19.4465 15.1528 19.301 14.9866C19.1555 14.8203 18.9028 14.8035 18.7366 14.9489L17.5797 15.9612L17.2725 15.6753C17.1108 15.5248 16.8577 15.5338 16.7072 15.6955C16.5567 15.8572 16.5657 16.1103 16.7274 16.2608L17.2956 16.7897C17.4476 16.9312 17.6819 16.9348 17.8382 16.798L19.2634 15.551ZM19.301 16.9866C19.4465 17.1528 19.4296 17.4055 19.2634 17.551L17.8382 18.798C17.6819 18.9348 17.4476 18.9312 17.2956 18.7897L16.7274 18.2608C16.5657 18.1103 16.5567 17.8572 16.7072 17.6955C16.8577 17.5338 17.1108 17.5248 17.2725 17.6753L17.5797 17.9612L18.7366 16.9489C18.9028 16.8035 19.1555 16.8203 19.301 16.9866Z" fill="black"/>
</svg>
