<svg width="24" height="24" viewBox="0 0 24 24" fill="none" xmlns="http://www.w3.org/2000/svg">
<path d="M12 2C10.8954 2 10 2.89543 10 4V7H22V2H12Z" fill="black"/>
<path d="M13.5 11C14.0523 11 14.5 11.4477 14.5 12V12.5C14.5 13.0523 14.0523 13.5 13.5 13.5C12.9477 13.5 12.5 13.0523 12.5 12.5V12C12.5 11.4477 12.9477 11 13.5 11Z" fill="black"/>
<path d="M16.991 8.50017C16.7149 8.02187 16.1033 7.858 15.625 8.13414C15.1467 8.41028 14.9828 9.02187 15.259 9.50017L15.509 9.93318C15.7851 10.4115 16.3967 10.5753 16.875 10.2992C17.3533 10.0231 17.5172 9.41147 17.241 8.93318L16.991 8.50017Z" fill="black"/>
<path d="M14.5 9.00035C14.5 8.44807 14.0523 8.00035 13.5 8.00035C12.9477 8.00035 12.5 8.44807 12.5 9.00035V9.50035C12.5 10.0526 12.9477 10.5004 13.5 10.5004C14.0523 10.5004 14.5 10.0526 14.5 9.50035V9.00035Z" fill="black"/>
<path d="M17.125 10.7323C17.6033 10.4561 18.2149 10.62 18.491 11.0983L18.741 11.5313C19.0172 12.0096 18.8533 12.6212 18.375 12.8974C17.8967 13.1735 17.2851 13.0096 17.009 12.5313L16.759 12.0983C16.4828 11.62 16.6467 11.0084 17.125 10.7323Z" fill="black"/>
<path d="M9.88397 8.50017C10.1601 8.02187 10.7717 7.858 11.25 8.13414C11.7283 8.41028 11.8922 9.02187 11.616 9.50017L11.366 9.93318C11.0899 10.4115 10.4783 10.5753 9.99999 10.2992C9.5217 10.0231 9.35782 9.41147 9.63397 8.93318L9.88397 8.50017Z" fill="black"/>
<path d="M9.74999 10.7323C9.2717 10.4561 8.66011 10.62 8.38397 11.0983L8.13397 11.5313C7.85782 12.0096 8.0217 12.6212 8.49999 12.8974C8.97828 13.1735 9.58987 13.0096 9.86602 12.5313L10.116 12.0983C10.3922 11.62 10.2283 11.0084 9.74999 10.7323Z" fill="black"/>
<path d="M4 14.5H2.5C2.22386 14.5 2 14.7239 2 15V20C2 20.2761 2.22386 20.5 2.5 20.5H4L4 14.5Z" fill="black"/>
<path d="M7.25806 20.7401C6.69248 20.4928 5.96114 20.087 5.48642 19.814C5.18283 19.6394 5 19.3146 5 18.9643V16.4398C5 16.0998 5.17278 15.783 5.45868 15.599L7.50654 14.2806C7.7119 14.1483 7.95113 14.0896 8.18964 14.1129L13.7382 14.6541C13.9325 14.6731 14.1218 14.7309 14.2963 14.8245C14.8264 15.1089 15.1613 15.6902 15.1613 16.3262V16.6769C14.9979 16.7282 14.8033 16.7841 14.5788 16.8402C13.7647 17.0437 12.5555 17.2502 11 17.2502H10.5V18.2502H11C12.6445 18.2502 13.9353 18.0318 14.8212 17.8104C15.2641 17.6997 15.6058 17.5882 15.8399 17.503C15.9569 17.4604 16.0471 17.4243 16.1096 17.3981C16.1409 17.385 16.1652 17.3744 16.1826 17.3666L16.2033 17.3573L16.2097 17.3543L16.2119 17.3533L16.2131 17.3527C16.2132 17.3527 16.2135 17.3536 16.2131 17.3527C16.2125 17.3513 16.2105 17.3468 16.2062 17.3377L16.2131 17.3527L16.3656 17.2807L19.5322 16.1481C19.9841 15.9865 20.4833 16.0237 20.9062 16.2506L21.0357 16.3201C21.8289 16.7457 22.0981 17.7526 21.623 18.5172C21.4588 18.7816 21.2191 18.9908 20.9349 19.1178L14.9265 21.8041C14.7084 21.9016 14.4748 21.9595 14.2363 21.9703C13.6715 21.9958 12.5615 22.0298 11.7742 21.9515C9.964 21.7717 8.94164 21.4761 7.25806 20.7401Z" fill="black"/>
</svg>
