<svg width="24" height="24" viewBox="0 0 24 24" fill="none" xmlns="http://www.w3.org/2000/svg">
<path fill-rule="evenodd" clip-rule="evenodd" d="M18.1838 7.30688L16.7036 5.82303L13.7496 8.78432C13.3408 9.19408 13.3408 9.85842 13.7496 10.2682C14.1583 10.6779 14.821 10.6779 15.2298 10.2682L18.1838 7.30688ZM14.4544 5.25473L12.3415 7.37281C11.3212 8.39559 11.1784 9.96487 11.9129 11.1407L8.05051 15.0127C8.02647 15.0118 8.00234 15.0114 7.9781 15.0114C7.10952 15.0114 6.37083 15.5689 6.09865 16.3464C5.78202 16.1336 5.40111 16.0095 4.99128 16.0095C3.89153 16.0095 3 16.9032 3 18.0057C3 19.1082 3.89153 20.0019 4.99128 20.0019C5.01952 20.0019 5.04762 20.0013 5.07557 20.0001C5.2801 20.5826 5.83375 21 6.48467 21C7.30948 21 7.97813 20.3297 7.97813 19.5028C7.97813 19.3272 7.94794 19.1586 7.8925 19.002C7.92088 19.0032 7.94942 19.0038 7.9781 19.0038C9.07785 19.0038 9.96937 18.1101 9.96937 17.0076C9.96937 16.506 9.78481 16.0476 9.48005 15.6969L12.9917 12.1766C14.1506 12.8357 15.6498 12.6701 16.6378 11.6797L18.7706 9.54171C18.8804 9.97322 19.2707 10.2923 19.7354 10.2923C20.2853 10.2923 20.731 9.84544 20.731 9.2942C20.731 8.8284 20.4127 8.43713 19.9823 8.32703L21 7.30688L19.9077 6.2119L20.2596 5.85911C20.6484 5.46934 20.6484 4.83738 20.2596 4.4476L19.5556 3.74183C19.1668 3.35205 18.5364 3.35204 18.1475 3.74181L17.7956 4.09463L16.7036 3L15.7061 3.99999C15.5779 3.59725 15.2016 3.30557 14.7574 3.30557C14.2075 3.30557 13.7617 3.75244 13.7617 4.30368C13.7617 4.74902 14.0527 5.12623 14.4544 5.25473ZM4.99128 18.5047C5.26622 18.5047 5.4891 18.2813 5.4891 18.0057C5.4891 17.7301 5.26622 17.5066 4.99128 17.5066C4.71634 17.5066 4.49346 17.7301 4.49346 18.0057C4.49346 18.2813 4.71634 18.5047 4.99128 18.5047ZM8.47591 17.0076C8.47591 17.2832 8.25303 17.5066 7.9781 17.5066C7.70316 17.5066 7.48028 17.2832 7.48028 17.0076C7.48028 16.732 7.70316 16.5085 7.9781 16.5085C8.25303 16.5085 8.47591 16.732 8.47591 17.0076Z" fill="black"/>
</svg>
