<svg width="24" height="24" viewBox="0 0 24 24" fill="none" xmlns="http://www.w3.org/2000/svg">
<path fill-rule="evenodd" clip-rule="evenodd" d="M16.4759 6C16.2623 5.72352 16.0004 5.42455 15.6841 5.12584C14.5397 4.04534 12.7127 3 10 3C5.91232 3 2 5.76204 2 10.1765C2 12.308 2.86339 13.9968 3.69378 15.1284C4.11055 15.6963 4.52714 16.1356 4.84213 16.4351C4.89796 16.4882 4.95077 16.5371 5 16.5816V20C5 20.5523 5.44772 21 6 21C6.55228 21 7 20.5523 7 20V16.1176C7 15.802 6.851 15.5049 6.59807 15.3162L6.599 15.3169L6.5844 15.3055C6.56953 15.2938 6.54468 15.274 6.51128 15.2461C6.44439 15.1904 6.34369 15.1031 6.22037 14.9858C5.97286 14.7505 5.63945 14.3993 5.30622 13.9451C5.10015 13.6643 4.89721 13.3485 4.71499 13H11C11 16.3137 13.6863 19 17 19H22V10.75C22 8.12665 19.8734 6 17.25 6H16.4759ZM4.52154 8C4.18626 8.65188 4 9.3857 4 10.1765C4 10.4607 4.02074 10.7353 4.05868 11H11V8L4.52154 8ZM6.38615 6H13.5828C12.7583 5.45029 11.6005 5 10 5C8.64084 5 7.39 5.36435 6.38615 6ZM15.3878 8C15.3968 8.01822 15.4042 8.03381 15.4102 8.04654L16.6761 12.5H16C15.4477 12.5 15 12.9477 15 13.5V15C15 15.5523 15.4477 16 16 16C16.5523 16 17 15.5523 17 15V14.5H18C18.3136 14.5 18.609 14.3529 18.7979 14.1027C18.9869 13.8525 19.0476 13.5282 18.9619 13.2266L17.4789 8.00939C18.8906 8.12569 20 9.30828 20 10.75V17H17C14.7909 17 13 15.2091 13 13V8H15.3878Z" fill="black"/>
<path d="M14 18.75C14.5523 18.75 15 19.1977 15 19.75V20C15 20.5523 14.5523 21 14 21C13.4477 21 13 20.5523 13 20V19.75C13 19.1977 13.4477 18.75 14 18.75Z" fill="black"/>
</svg>
