<svg width="24" height="24" viewBox="0 0 24 24" fill="none" xmlns="http://www.w3.org/2000/svg">
<path d="M14.7785 10.3036L12.2785 9.30364C12.0997 9.23212 11.9003 9.23212 11.7215 9.30364L9.22146 10.3036C8.83687 10.4575 8.64981 10.894 8.80364 11.2785C8.95748 11.6631 9.39396 11.8502 9.77854 11.6964L12 10.8078L14.2215 11.6964C14.606 11.8502 15.0425 11.6631 15.1964 11.2785C15.3502 10.894 15.1631 10.4575 14.7785 10.3036Z" fill="black"/>
<path fill-rule="evenodd" clip-rule="evenodd" d="M19 7.34155V8.56128C20.6569 8.56128 22 9.90443 22 11.5613V12.5901C22 14.2469 20.6569 15.5901 19 15.5901C18.9963 16.0642 18.7641 16.5082 18.3765 16.7821C14.5549 19.4826 9.44222 19.4841 5.62205 16.7816C5.23478 16.5076 5.00341 16.064 5.00004 15.5901C3.34318 15.5901 2 14.2469 2 12.5901V11.5613C2 9.90443 3.34315 8.56128 5 8.56128V7.34155L9.78779 5.97361C10.3362 5.3752 11.1243 5 12 5C12.8757 5 13.6638 5.3752 14.2122 5.97361L19 7.34155ZM13.1195 7.74145L12.7378 7.32493C12.5522 7.12247 12.2919 7 12 7C11.7081 7 11.4478 7.12247 11.2622 7.32493L10.8805 7.74145L7 8.85016V15.3016C10.0268 17.3105 13.9708 17.3099 17 15.301V8.85016L13.1195 7.74145ZM19 13.5901V10.5613C19.5523 10.5613 20 11.009 20 11.5613V12.5901C20 13.1424 19.5523 13.5901 19 13.5901ZM5 10.5613V13.5901C4.44772 13.5901 4 13.1424 4 12.5901V11.5613C4 11.009 4.44772 10.5613 5 10.5613Z" fill="black"/>
</svg>
