<svg width="24" height="24" viewBox="0 0 24 24" fill="none" xmlns="http://www.w3.org/2000/svg">
<path d="M15 10V11.5H9V10H15Z" fill="black"/>
<path d="M15 14.5V13H9V14.5H15Z" fill="black"/>
<path fill-rule="evenodd" clip-rule="evenodd" d="M12 6L19 8C20.6569 8 22 9.34315 22 11V13C22 14.6569 20.6569 16 19 16H18.9578C18.8174 16.6719 18.3373 17.2367 17.6727 17.474L17.045 17.6982C13.7826 18.8634 10.2174 18.8634 6.95495 17.6982L6.32733 17.474C5.66275 17.2367 5.18265 16.6719 5.04224 16H5C3.34315 16 2 14.6569 2 13V11C2 9.34315 3.34315 8 5 8L12 6ZM5 10C4.44772 10 4 10.4477 4 11V13C4 13.5523 4.44772 14 5 14V10ZM19 14C19.5523 14 20 13.5523 20 13V11C20 10.4477 19.5523 10 19 10V14ZM17 9.5086L12 8.08003L7 9.5086V15.5906L7.62763 15.8147C10.4551 16.8245 13.5449 16.8245 16.3724 15.8147L17 15.5906V9.5086Z" fill="black"/>
</svg>
