<svg width="24" height="24" viewBox="0 0 24 24" fill="none" xmlns="http://www.w3.org/2000/svg">
<path d="M13.9998 5.5H9.99977V6.5C9.99977 7.32843 10.6713 8 11.4998 8H12.4998C13.3282 8 13.9998 7.32843 13.9998 6.5V5.5Z" fill="black"/>
<path d="M10.9998 12L10.9998 10H12.9998V12H15.9998V14H7.99977V12H10.9998Z" fill="black"/>
<path fill-rule="evenodd" clip-rule="evenodd" d="M11.9998 2C9.23839 2 6.99982 4.23858 6.99982 7V7.39519C5.83085 7.95848 4.96868 9.07598 4.77463 10.4343L4.24715 14.1267C3.98445 15.9656 5.24154 17.6302 6.99981 17.9462V19C6.99981 20.6569 8.34296 22 9.99981 22C10.7682 22 11.4691 21.7111 11.9998 21.2361C12.5306 21.7111 13.2315 22 13.9998 22C15.6567 22 16.9998 20.6569 16.9998 19V17.9462C18.7581 17.6303 20.0152 15.9656 19.7525 14.1267L19.225 10.4343C19.031 9.07596 18.1688 7.95845 16.9998 7.39517V7C16.9998 4.23858 14.7612 2 11.9998 2ZM6.22704 14.4095C6.13803 15.0326 6.47396 15.607 6.99981 15.8617C7.1824 15.9501 7.38789 16 7.60644 16C8.23937 16 8.77375 15.578 8.94353 15H8.99981V19C8.99981 19.5523 9.44753 20 9.99981 20C10.5521 20 10.9998 19.5523 10.9998 19V15H12.9998V19C12.9998 19.5523 13.4475 20 13.9998 20C14.5521 20 14.9998 19.5523 14.9998 19V15H15.0561C15.2259 15.578 15.7603 16 16.3932 16C16.6118 16 16.8172 15.9501 16.9998 15.8617C17.5257 15.607 17.8616 15.0326 17.7726 14.4095L17.2451 10.7172C17.1044 9.73186 16.2605 9 15.2652 9H14.9998V7C14.9998 5.34315 13.6567 4 11.9998 4C10.343 4 8.99982 5.34315 8.99982 7V9H8.73443C7.73913 9 6.89529 9.73186 6.75453 10.7172L6.22704 14.4095Z" fill="black"/>
</svg>
