<svg width="24" height="24" viewBox="0 0 24 24" fill="none" xmlns="http://www.w3.org/2000/svg">
<path d="M18.4451 13.6126C18.1392 15.5799 16.5866 17.1347 14.6203 17.4439L15 22H9.00001L9.39815 17.2223C7.99206 16.6542 6.99996 15.2763 6.99997 13.6666L7 5.5C7 4.94772 7.44771 4.5 8 4.5C8.55228 4.5 9 4.94771 9 5.5L9 9.5H9.5V4.5C9.5 3.94772 9.94771 3.5 10.5 3.5C11.0523 3.5 11.5 3.94772 11.5 4.5V9.5H12V3.5C12 2.94772 12.4477 2.5 13 2.5C13.5523 2.5 14 2.94772 14 3.5V9.5H14.5V3C14.5 2.44771 14.9477 2 15.5 2C16.0523 2 16.5 2.44771 16.5 3V9.01134C16.5016 9.56876 16.6176 9.87163 16.7276 10.0253C16.8277 10.1651 16.9433 10.2125 17.0613 10.2196C17.1961 10.2278 17.3486 10.1813 17.4679 10.0995C17.5665 10.0318 17.5931 9.97751 17.5995 9.96433L17.6014 9.96157L17.6014 9.96262L17.6012 9.96524L17.6011 9.96678L17.6021 9.96685L18.0561 8.66971C18.2386 8.14843 18.8091 7.87375 19.3303 8.0562C19.8516 8.23864 20.1263 8.80912 19.9439 9.3304L18.4451 13.6126Z" fill="black"/>
<path d="M6 14V6H4V14C4 15.5255 4.61094 16.7277 5.19126 17.5257C5.3843 17.7911 5.68883 18.0166 5.93682 18.2003C6.06338 18.2941 6.17522 18.3769 6.25 18.4486V18.4528L6 21H8L8.25 17.75L7.60359 17.2027L7.59824 17.1985C7.59072 17.1925 7.57664 17.1812 7.55693 17.1647C7.51743 17.1315 7.45583 17.0778 7.37941 17.0046C7.2257 16.8573 7.01718 16.6359 6.80874 16.3493C6.38906 15.7723 6 14.9745 6 14Z" fill="black"/>
</svg>
