<svg width="24" height="24" viewBox="0 0 24 24" fill="none" xmlns="http://www.w3.org/2000/svg">
<path fill-rule="evenodd" clip-rule="evenodd" d="M16.5 21C16.5 21 14.8125 22 12 22C9.1875 22 7.5 21 7.5 21V14.9691C5.52684 14.723 4 13.0398 4 11V6C4 3.83268 5.7237 2.06795 7.875 2.00192C7.91651 2.00064 7.95818 2 8 2H9.875C9.875 3.10457 10.8264 4 12 4C13.1736 4 14.125 3.10457 14.125 2H16C16.0418 2 16.0835 2.00064 16.125 2.00192C18.2763 2.06795 20 3.83268 20 6V11C20 13.0398 18.4732 14.723 16.5 14.9691V21ZM18 11C18 11.9313 17.362 12.7161 16.5 12.9374V8H14.5V11H9.5V8H7.5V12.9374C6.63799 12.7161 6 11.9313 6 11V6C6 4.89543 6.89543 4 8 4H8.42183C9.15367 5.22509 10.5308 6 12 6C13.4692 6 14.8463 5.22509 15.5782 4H16C17.1046 4 18 4.89543 18 6V11ZM9.5 13H14.5V19.6554C13.8998 19.8317 13.0517 20 12 20C10.9483 20 10.1002 19.8317 9.5 19.6554V13Z" fill="black"/>
</svg>
