<svg width="24" height="24" viewBox="0 0 24 24" fill="none" xmlns="http://www.w3.org/2000/svg">
<path d="M12.7017 8.94653V15.2048H11.2983V8.94653H12.7017Z" fill="black"/>
<path d="M14.8986 14.8159C15.5069 14.8159 16 14.3228 16 13.7145C16 13.1062 15.5069 12.613 14.8986 12.613C14.2903 12.613 13.7971 13.1062 13.7971 13.7145C13.7971 14.3228 14.2903 14.8159 14.8986 14.8159Z" fill="black"/>
<path fill-rule="evenodd" clip-rule="evenodd" d="M12 5.34155L19 7.34155V8.56128C20.6569 8.56128 22 9.90443 22 11.5613V12.5901C22 14.2469 20.6569 15.5901 19 15.5901C18.9963 16.0642 18.7641 16.5082 18.3765 16.7821C14.5549 19.4826 9.44222 19.4841 5.62205 16.7816C5.23478 16.5076 5.00341 16.064 5.00004 15.5901C3.34318 15.5901 2 14.2469 2 12.5901V11.5613C2 9.90443 3.34315 8.56128 5 8.56128V7.34155L12 5.34155ZM5 10.5613C4.44772 10.5613 4 11.009 4 11.5613V12.5901C4 13.1424 4.44772 13.5901 5 13.5901V10.5613ZM19 13.5901C19.5523 13.5901 20 13.1424 20 12.5901V11.5613C20 11.009 19.5523 10.5613 19 10.5613V13.5901ZM17 8.85016L12 7.42158L7 8.85016V15.3016C10.0268 17.3105 13.9708 17.3099 17 15.301V8.85016Z" fill="black"/>
</svg>
