<svg width="24" height="24" viewBox="0 0 24 24" fill="none" xmlns="http://www.w3.org/2000/svg">
<path d="M11.0001 12V14H9.00008V16H11.0001V18H13.0001V16H15.0001V14H13.0001V12H11.0001Z" fill="black"/>
<path fill-rule="evenodd" clip-rule="evenodd" d="M8.24272 4C7.71228 4 7.20358 4.21071 6.8285 4.58579L5.70718 5.70711L4.29297 4.29289L5.41429 3.17157C6.16443 2.42143 7.18185 2 8.24272 2H17.0001V4H13.0001V7H14.0001C15.1046 7 16.0001 7.89543 16.0001 9C17.6569 9 19.0001 10.3431 19.0001 12V22H5.00008V12C5.00008 10.3431 6.34322 9 8.00008 9C8.00008 7.89543 8.89551 7 10.0001 7H11.0001V4H8.24272ZM7.00008 20H17.0001V12C17.0001 11.4477 16.5524 11 16.0001 11H14.0001V9H10.0001V11H8.00008C7.44779 11 7.00008 11.4477 7.00008 12V20Z" fill="black"/>
</svg>
