<svg width="48" height="48" viewBox="0 0 48 48" fill="none" xmlns="http://www.w3.org/2000/svg">
<path fill-rule="evenodd" clip-rule="evenodd" d="M33.7511 6.7704H35.1389C36.7344 6.7704 38.0278 8.0638 38.0278 9.65929V18.6667C38.0278 20.2622 36.7344 21.5556 35.1389 21.5556H34.3552C34.254 22.0007 33.8558 22.333 33.38 22.333H32.5833V24H32.5843V26.5C32.5843 27.6046 31.6889 28.5 30.5843 28.5H24.4145L16.3145 36.5997H16.2727L18.3944 36.6001L21.9942 33.0002H30.3002L33.0002 31.2002H36.1502C36.9366 31.2002 37.6051 31.7044 37.8502 32.4071V36.5H37.0502C36.6084 36.5 36.2502 36.1418 36.2502 35.7V34.35H34.2502V35.7C34.2502 37.2464 35.5038 38.5 37.0502 38.5H39.8502V33.0002H40.2002C41.1944 33.0002 42.0002 33.8061 42.0002 34.8002V40.2002C42.0002 41.1943 41.1944 42.0002 40.2002 42.0002H32.1002C31.1061 42.0002 30.3002 41.1943 30.3002 40.2002H16.7024C15.5945 40.2002 14.5134 39.8594 13.6057 39.224L9.97715 36.684L16.5997 29.7129L18.3684 31.7174L23.0003 27.0858C23.3754 26.7107 23.8841 26.5 24.4145 26.5H30.5843V24H30.5833V22.333H29.78C29.3042 22.333 28.9061 22.0007 28.8049 21.5556H28.0278C26.4323 21.5556 25.1389 20.2622 25.1389 18.6667V9.65929C25.1389 8.0638 26.4323 6.7704 28.0278 6.7704H29.4157C30.0026 6.29447 30.7519 6 31.5834 6C32.4149 6 33.1642 6.29447 33.7511 6.7704ZM32.8667 8.7704H35.1389C35.6298 8.7704 36.0278 9.16837 36.0278 9.65929V15.1156C35.1001 14.4056 33.5127 13.7328 31.5836 15.1108C29.6541 16.489 28.0665 16.8415 27.1389 16.9104V9.65929C27.1389 9.16837 27.5369 8.7704 28.0278 8.7704H30.3001C30.5562 8.30985 31.035 8 31.5834 8C32.1318 8 32.6105 8.30985 32.8667 8.7704Z" fill="black"/>
<path d="M15.2713 28.2074L6.00024 17.7002V33.9002L8.32032 35.5242L15.2713 28.2074Z" fill="black"/>
</svg>
