<svg width="48" height="48" viewBox="0 0 48 48" fill="none" xmlns="http://www.w3.org/2000/svg">
<path d="M10.2174 7.98495C7.68046 9.7381 6.11513 13.2229 6.00718 16.3275C5.9968 16.6417 5.99775 16.9556 6.00953 17.2689C6.00874 17.2884 6.008 17.3079 6.00732 17.3275C6.00989 17.3524 6.01252 17.3774 6.01521 17.4024C6.10674 19.3324 6.60728 21.2427 7.40407 23.1099H9.59874C9.59653 23.1052 9.59433 23.1006 9.59212 23.096H12.4446V22.2071C12.4446 20.7343 13.6385 19.5404 15.1112 19.5404H16.889C18.3618 19.5404 19.5557 20.7343 19.5557 22.2071V23.096L23.1112 23.096L23.1112 17.7626H25.7779C26.2688 17.7626 26.6668 17.3647 26.6668 16.8737V15.096C26.6668 14.6051 26.2688 14.2071 25.7779 14.2071H23.1112V11.5354L23.125 11.5518V8.57606C22.941 8.40859 22.7509 8.24861 22.5551 8.09633C19.2459 5.52294 14.3163 5.14833 10.2174 7.98495Z" fill="black"/>
<path d="M23.125 41.2452C18.176 37.05 11.6271 31.2605 8.2412 24.8599H10.5303C10.533 24.8645 10.5357 24.8691 10.5384 24.8738H14.2223V22.2071C14.2223 21.7162 14.6203 21.3182 15.1112 21.3182H16.889C17.3799 21.3182 17.7779 21.7162 17.7779 22.2071V24.8738H23.1112L23.1112 28.4293H22.2223C20.7496 28.4293 19.5557 29.6232 19.5557 31.096V32.8738C19.5557 34.3465 20.7496 35.5404 22.2223 35.5404H23.1112V38.6041C23.1158 38.6081 23.1204 38.612 23.125 38.616V41.2452Z" fill="black"/>
<path d="M24.875 41.2557V38.6383C24.8797 38.6344 24.8843 38.6304 24.889 38.6264V33.7626H22.2223C21.7314 33.7626 21.3334 33.3647 21.3334 32.8738V31.096C21.3334 30.6051 21.7314 30.2071 22.2223 30.2071H24.889V24.8738L28.4446 24.8737V25.7626C28.4446 27.2354 29.6385 28.4293 31.1112 28.4293H32.889C34.3618 28.4293 35.5557 27.2354 35.5557 25.7626V24.8737H37.4776C37.4803 24.8691 37.483 24.8645 37.4857 24.8599H39.7724C36.3939 31.2737 29.8422 37.0983 24.875 41.2557Z" fill="black"/>
<path d="M40.606 23.1099H38.413C38.4152 23.1052 38.4174 23.1006 38.4196 23.096H33.7779V25.7627C33.7779 26.2536 33.3799 26.6515 32.889 26.6515H31.1112C30.6203 26.6515 30.2223 26.2536 30.2223 25.7627L30.2223 23.096H24.889V19.5404H25.7779C27.2506 19.5404 28.4445 18.3465 28.4445 16.8738V15.096C28.4445 13.6232 27.2506 12.4293 25.7779 12.4293H24.889V11.5339L24.875 11.5505V8.5747C25.0585 8.40758 25.2481 8.24788 25.4434 8.0958C28.7526 5.51865 33.6824 5.13244 37.7815 7.98495C40.3185 9.7381 41.8838 13.2229 41.9917 16.3275C42.0032 16.6496 42.0027 16.9715 41.9906 17.293C41.9911 17.3045 41.9915 17.316 41.9919 17.3275C41.9904 17.3425 41.9889 17.3576 41.9874 17.3727C41.9036 19.3088 41.405 21.2298 40.606 23.1099Z" fill="black"/>
</svg>
