<svg width="48" height="48" viewBox="0 0 48 48" fill="none" xmlns="http://www.w3.org/2000/svg">
<path d="M23 13V6H7C6.44772 6 6 6.44772 6 7V23H11V22C11 20.3431 12.3431 19 14 19H16C17.6568 19 19 20.3431 19 22V23L23 23V17H26C26.5523 17 27 16.5523 27 16V14C27 13.4477 26.5523 13 26 13H23Z" fill="black"/>
<path d="M6 25H13V22C13 21.4477 13.4477 21 14 21H16C16.5522 21 17 21.4477 17 22V25H23V29H22C20.3431 29 19 30.3431 19 32V34C19 35.6569 20.3431 37 22 37H23V42H7C6.44772 42 6 41.5523 6 41V25Z" fill="black"/>
<path d="M25 42V35H22C21.4477 35 21 34.5523 21 34L21 32C21 31.4477 21.4477 31 22 31H25V25H29V26C29 27.6569 30.3431 29 32 29H34C35.6569 29 37 27.6569 37 26V25H42V41C42 41.5523 41.5523 42 41 42H25Z" fill="black"/>
<path d="M42 23V7C42 6.44772 41.5523 6 41 6H25V11H26C27.6568 11 29 12.3431 29 14V16C29 17.6569 27.6568 19 26 19H25L25 23L31 23V26C31 26.5523 31.4477 27 32 27H34C34.5523 27 35 26.5523 35 26V23H42Z" fill="black"/>
</svg>
