<svg width="48" height="48" viewBox="0 0 48 48" fill="none" xmlns="http://www.w3.org/2000/svg">
<path d="M15.9537 4H31.9049C32.1916 4 32.425 4.23361 32.425 4.52292V20.544C32.425 21.0108 31.8643 21.2423 31.5373 20.9139L28.2758 17.6381C28.2679 17.6301 28.2549 17.6301 28.247 17.6381L19.6298 26.293C19.4268 26.4969 19.0977 26.4969 18.8947 26.293L10.2775 17.6381C10.0742 17.4338 10.0742 17.1024 10.2775 16.8982L18.8947 8.24328C18.9023 8.23565 18.9023 8.22351 18.8947 8.21588L15.5862 4.89288C15.2575 4.56273 15.4914 4 15.9537 4Z" fill="black"/>
<path d="M28.3704 21.707C28.5735 21.5031 28.9025 21.5031 29.1055 21.707L37.7227 30.3619C37.926 30.5662 37.926 30.8976 37.7227 31.1018L29.1055 39.7567C29.0979 39.7644 29.0979 39.7765 29.1055 39.7841L32.414 43.1071C32.7428 43.4373 32.5088 44 32.0465 44H16.0953C15.8086 44 15.5752 43.7664 15.5752 43.4771V27.456C15.5752 26.9892 16.136 26.7577 16.4629 27.0861L19.7244 30.3619C19.7323 30.3699 19.7453 30.3699 19.7532 30.3619L28.3704 21.707Z" fill="black"/>
</svg>
