<svg width="48" height="48" viewBox="0 0 48 48" fill="none" xmlns="http://www.w3.org/2000/svg">
<path d="M32 34.7576C32 34.1371 32.3625 33.4603 32.7311 32.9324C33.1123 32.3865 33.5 32 33.5 32C33.5 32 33.8877 32.3865 34.2689 32.9324C34.6375 33.4603 35 34.1371 35 34.7576C35 35.5542 34.3284 36.2 33.5 36.2C32.6716 36.2 32 35.5542 32 34.7576Z" fill="black"/>
<path d="M33 41.596C33 40.5619 33.6042 39.4338 34.2185 38.5541C34.8538 37.6442 35.5 37 35.5 37C35.5 37 36.1462 37.6442 36.7815 38.5541C37.3958 39.4338 38 40.5619 38 41.596C38 42.9237 36.8807 44 35.5 44C34.1193 44 33 42.9237 33 41.596Z" fill="black"/>
<path d="M23.6958 15.8866C28.2089 21.1872 32.8417 26.6284 31.8695 29.7779C31.5276 30.8856 30.8881 31.9939 30.0421 33.0297L30 33C29.9317 33.0878 29.8638 33.1753 29.7964 33.2622C29.6806 33.4114 29.566 33.5591 29.4521 33.7049C27.8456 35.4274 25.6863 36.887 23.4389 37.7106C21.1744 37.9726 18.511 37.535 15.4229 36.0939L14.5771 37.9062C15.7572 38.4569 16.8985 38.8807 18 39.185L18 44H10V4H15.9581C15.9581 6.79884 19.7819 11.2898 23.6958 15.8866Z" fill="black"/>
<path d="M30 27H32C33.1046 27 34 27.8954 34 29L-nan -nanL34 29C34 30.1046 33.1046 31 32 31H30V27Z" fill="black"/>
</svg>
