<svg width="48" height="48" viewBox="0 0 48 48" fill="none" xmlns="http://www.w3.org/2000/svg">
<path fill-rule="evenodd" clip-rule="evenodd" d="M12.098 8.71108C14.5325 7.49171 18.6483 6 23.1648 6C27.5977 6 31.6134 7.43697 34.0374 8.64306C34.0781 8.66331 34.1184 8.68351 34.1582 8.70362C34.8113 9.03371 35.342 9.34413 35.7259 9.6L33.1068 13.4286L31.6265 14.1967C26.5301 16.768 19.6959 16.768 14.5995 14.1967L13.2958 13.6776L10.5259 9.6C10.7825 9.43131 11.1036 9.2389 11.4818 9.03278C11.673 8.92862 11.8787 8.82095 12.098 8.71108ZM13.8216 9.88754C14.7462 10.1786 15.7257 10.4322 16.7225 10.6162C18.8805 11.0143 21.0547 11.0735 22.9147 10.5354C25.2786 9.85159 27.7601 9.29746 30.0856 8.96919C28.1012 8.31593 25.7022 7.8 23.1648 7.8C19.5028 7.8 16.103 8.87454 13.8216 9.88754Z" fill="black"/>
<path d="M32.4373 15.8037L32.6825 15.68C35.1889 18.3581 37.5362 21.7973 38.9342 25.3001C37.4783 24.4726 35.7943 24 34 24C30.3695 24 27.1909 25.9347 25.4389 28.8293C24.7638 28.3093 23.918 28 23 28V24C23.8693 24 24.6114 24.5551 24.8865 25.3332C25.0705 25.854 25.6418 26.1269 26.1625 25.9428C26.6833 25.7588 26.9562 25.1875 26.7721 24.6668C26.2235 23.1145 24.7432 22 23 22V21H21V22C18.7909 22 17 23.7909 17 26C17 28.2091 18.7909 30 21 30V34C20.1307 34 19.3886 33.4449 19.1135 32.6668C18.9295 32.146 18.3582 31.8731 17.8375 32.0572C17.3167 32.2412 17.0438 32.8125 17.2279 33.3332C17.7765 34.8855 19.2568 36 21 36V37H23V36C23.4058 36 23.7975 35.9396 24.1666 35.8272C24.6068 38.2113 25.8926 40.299 27.7014 41.7675C26.3246 41.9179 24.8154 41.9971 23.1648 41.9971C-1.29621 41.9971 5.13402 24.9274 13.5556 15.6861L13.7887 15.8037C19.395 18.6324 26.831 18.6324 32.4373 15.8037Z" fill="black"/>
<path d="M23 30C23.623 30 24.1796 30.2849 24.5463 30.7315C24.2202 31.6751 24.0313 32.6826 24.0036 33.7304C23.7086 33.9018 23.3658 34 23 34V30Z" fill="black"/>
<path d="M19 26C19 24.8954 19.8954 24 21 24V28C19.8954 28 19 27.1046 19 26Z" fill="black"/>
<path fill-rule="evenodd" clip-rule="evenodd" d="M34 42C38.4183 42 42 38.4183 42 34C42 29.5817 38.4183 26 34 26C29.5817 26 26 29.5817 26 34C26 38.4183 29.5817 42 34 42ZM35 34.4195L36.1896 33.3531L37.5246 34.8424L34 38.0018L30.4753 34.8424L31.8103 33.3531L33 34.4195V30H35V34.4195Z" fill="black"/>
</svg>
