<svg width="48" height="48" viewBox="0 0 48 48" fill="none" xmlns="http://www.w3.org/2000/svg">
<path d="M38.8995 25.9777L38.8139 25.8004C37.8326 23.7666 37.8585 22.0244 37.8841 20.2981L37.8849 20.2439C37.8922 19.7472 37.8994 19.2543 37.8874 18.7373L38.8995 25.9777ZM38.8995 25.9777L39.0449 26.1085M38.8995 25.9777L39.0449 26.1085M39.0449 26.1085C39.0448 26.1084 39.0448 26.1084 39.0449 26.1085L39.0452 26.1088M39.0449 26.1085L39.0452 26.1088M39.0452 26.1088L39.0455 26.109M39.0452 26.1088L39.0455 26.109M39.0455 26.109L39.0458 26.1093M39.0455 26.109L39.0458 26.1093M39.0458 26.1093L39.0477 26.111L39.0635 26.1256C39.0785 26.1395 39.1021 26.1616 39.1329 26.1912C39.1946 26.2504 39.2848 26.3393 39.3932 26.4523C39.6115 26.6799 39.8956 26.9977 40.1667 27.3635C40.4407 27.7332 40.6816 28.1257 40.8341 28.5027C40.989 28.8853 41.0245 29.1813 40.9852 29.3964C40.9532 29.5715 40.8436 29.7659 40.593 29.98C40.3384 30.1975 39.9895 30.3892 39.5999 30.5486C39.2166 30.7054 38.8347 30.8144 38.5445 30.8844C38.4008 30.919 38.2832 30.9432 38.2035 30.9584C38.1638 30.966 38.1338 30.9713 38.115 30.9745L38.0955 30.9777L38.0941 30.9779L38.0937 30.978L38.0933 30.9781L38.0927 30.9782L38.0925 30.9782L37.245 31.1075V31.9665C37.245 34.2596 36.5269 35.5841 35.5906 36.3807C34.6167 37.2092 33.2568 37.5952 31.7598 37.6924C30.2737 37.7889 28.7622 37.5933 27.6038 37.3651C27.0288 37.2518 26.5505 37.1325 26.2182 37.0421C26.0522 36.997 25.9231 36.9592 25.8372 36.9333C25.7943 36.9203 25.7622 36.9103 25.7416 36.9039L25.7197 36.8969L25.7157 36.8956L25.7154 36.8955L25.7152 36.8954L25.715 36.8954L24.4041 36.4654V37.8458V39.0616C24.3877 39.0928 24.3672 39.1295 24.3419 39.1708C24.2364 39.3429 24.0478 39.5954 23.732 39.8567C23.1156 40.3669 21.9239 40.9852 19.697 40.9852H19.6575L19.6181 40.9883C18.6899 41.0618 17.3107 40.7882 16.0178 40.2175C14.81 39.6843 13.8906 38.9868 13.4667 38.3055V32.1144V31.6133L13.0654 31.3134C9.54277 28.6806 7 25.2647 7 20.9397C7 17.259 8.53556 13.7185 11.2863 11.1001C14.0387 8.48004 17.7818 7.00001 21.6945 7.00001L21.6956 7.00001C24.7358 6.99673 27.7386 7.6264 30.493 8.84331L30.5089 8.85033L30.5251 8.8568C32.6339 9.70212 34.4759 11.0426 35.8808 12.7468C37.1398 14.5244 37.8342 16.6033 37.8874 18.7372L39.0458 26.1093ZM20.4896 29.628L19.8431 29.0724L19.1965 28.5168C18.8565 28.2247 18.4786 27.9119 18.0699 27.5738L18.047 27.5549C16.8275 26.546 15.3543 25.3273 14.1223 23.9853C12.4733 22.1889 10.9095 19.8157 11.0041 16.8986L11.0041 16.8977L11.0042 16.8959L11.0042 16.8952C11.0692 14.9904 12.0062 13.1305 13.6059 12.0044L20.4896 29.628ZM20.4896 29.628L21.1405 29.0775M20.4896 29.628L21.1405 29.0775M21.1405 29.0775L21.7914 28.5271C22.101 28.2653 22.4403 27.9868 22.8048 27.6876L22.8283 27.6684C24.0815 26.6399 25.6117 25.384 26.8886 23.988C28.5368 22.186 30.097 19.8041 29.9954 16.8936C29.9299 14.9903 28.9943 13.132 27.3959 12.006M21.1405 29.0775L27.3959 12.006M27.3959 12.006C25.8206 10.8911 24.0575 10.8073 22.5562 11.2515C22.0037 11.415 21.5287 11.7418 21.1539 12.0468C20.9208 12.2365 20.6983 12.4417 20.4991 12.6306C20.2991 12.4413 20.0758 12.2358 19.8419 12.0459C19.4674 11.7419 18.9931 11.4166 18.4417 11.254C16.9414 10.8115 15.1806 10.8953 13.6062 12.0041L27.3959 12.006ZM32.5 28C33.8807 28 35 26.8807 35 25.5C35 24.1193 33.8807 23 32.5 23C31.1193 23 30 24.1193 30 25.5C30 26.8807 31.1193 28 32.5 28Z" fill="black" stroke="black" stroke-width="2"/>
</svg>
