<svg width="48" height="48" viewBox="0 0 48 48" fill="none" xmlns="http://www.w3.org/2000/svg">
<path d="M25 34.5124V28.408C25.2743 28.3774 25.6412 28.3294 26.0384 28.2579C26.4508 28.1837 26.9149 28.0807 27.3491 27.9383C27.7639 27.8021 28.2416 27.6016 28.6124 27.2905C28.9827 26.9798 29.2627 26.545 29.4686 26.1608C29.6841 25.7587 29.866 25.3203 30.0107 24.9275C30.2817 24.1917 30.4478 23.5456 30.472 23.4493C30.5316 23.2208 30.5097 22.9733 30.4004 22.7528C30.2206 22.3902 29.8401 22.1717 29.4364 22.1992L29.4349 22.1993L29.4324 22.1995L29.4246 22.2001L29.3979 22.202C29.3753 22.2038 29.3433 22.2063 29.3029 22.2098C29.2222 22.2168 29.1077 22.2275 28.9682 22.2428C28.6904 22.2732 28.3078 22.3222 27.8922 22.397C27.4798 22.4713 27.0157 22.5742 26.5815 22.7167C26.1667 22.8528 25.689 23.0533 25.3182 23.3645C25.2036 23.4605 25.0978 23.5685 25 23.6831V21.408C25.2743 21.3774 25.6412 21.3294 26.0384 21.2579C26.4508 21.1837 26.9149 21.0807 27.3491 20.9383C27.7639 20.8021 28.2416 20.6016 28.6124 20.2905C28.9827 19.9798 29.2627 19.545 29.4686 19.1608C29.6841 18.7587 29.866 18.3203 30.0107 17.9275C30.2817 17.1917 30.4478 16.5456 30.472 16.4493C30.5316 16.2208 30.5097 15.9733 30.4004 15.7528C30.2206 15.3902 29.8401 15.1717 29.4364 15.1992L29.4349 15.1993L29.4324 15.1995L29.4246 15.2001L29.3979 15.202C29.3753 15.2038 29.3433 15.2063 29.3029 15.2098C29.2222 15.2168 29.1077 15.2275 28.9682 15.2428C28.6904 15.2732 28.3078 15.3222 27.8922 15.397C27.4798 15.4713 27.0157 15.5742 26.5815 15.7167C26.1667 15.8528 25.689 16.0533 25.3182 16.3645C24.948 16.675 24.6681 17.1096 24.4622 17.4936C24.3744 17.6574 24.2921 17.8273 24.2157 17.9977C24.1373 17.7201 24.0086 17.2938 23.8385 16.8323C23.6938 16.4396 23.5121 16.0014 23.2966 15.5994C23.0907 15.2154 22.8108 14.7809 22.4407 14.4703C22.0699 14.1592 21.5921 13.9587 21.1773 13.8225C20.7431 13.6801 20.2791 13.5771 19.8666 13.5029C19.451 13.4281 19.0684 13.379 18.7906 13.3486C18.6511 13.3334 18.5367 13.3227 18.4559 13.3157C18.4155 13.3122 18.3835 13.3096 18.3609 13.3079L18.3342 13.3059L18.3264 13.3053L18.3227 13.3051C17.9187 13.2775 17.5377 13.4963 17.3581 13.8592C17.2491 14.0797 17.2273 14.3268 17.2868 14.5552C17.311 14.6515 17.4772 15.2976 17.7482 16.0334C17.8929 16.4262 18.0747 16.8646 18.2902 17.2667C18.4961 17.6509 18.7762 18.0857 19.1464 18.3963C19.5172 18.7075 19.995 18.908 20.4097 19.0441C20.8439 19.1866 21.308 19.2895 21.7204 19.3638C22.1361 19.4386 22.5187 19.4876 22.7965 19.518C22.8721 19.5263 22.9405 19.5332 23 19.539V22.1067C22.8422 21.8756 22.6568 21.6519 22.4407 21.4705C22.0699 21.1594 21.5921 20.9589 21.1773 20.8228C20.7431 20.6803 20.2791 20.5774 19.8666 20.5031C19.451 20.4283 19.0684 20.3793 18.7906 20.3489C18.6511 20.3336 18.5367 20.3229 18.4559 20.3159C18.4155 20.3124 18.3835 20.3099 18.3609 20.3081L18.3342 20.3061L18.3264 20.3056L18.3227 20.3053C17.9187 20.2778 17.5377 20.4966 17.3581 20.8595C17.2491 21.0799 17.2273 21.3271 17.2868 21.5554C17.311 21.6517 17.4772 22.2979 17.7482 23.0337C17.8929 23.4265 18.0747 23.8649 18.2902 24.267C18.4961 24.6512 18.7762 25.0859 19.1464 25.3966C19.5172 25.7077 19.995 25.9082 20.4097 26.0443C20.8439 26.1868 21.308 26.2898 21.7204 26.364C22.1361 26.4388 22.5187 26.4879 22.7965 26.5183C22.8721 26.5265 22.9405 26.5335 23 26.5392V34.5009C22.4972 34.087 21.9771 33.6643 21.4458 33.2325L21.4409 33.2286C15.3315 28.2636 7.749 22.1015 8.00638 14.3044C8.10234 11.5449 9.49374 8.89889 11.7488 7.34053C15.971 4.4186 21.1847 6.73704 23.9995 10.081C26.8143 6.73704 32.0281 4.40237 36.2503 7.34053C38.5053 8.89889 39.8967 11.5449 39.9927 14.3044C40.2731 22.1936 32.4592 28.4946 26.2865 33.4721C25.8482 33.8255 25.4183 34.1722 25 34.5124Z" fill="black"/>
<path d="M20.053 16.322C19.9215 16.0766 19.7975 15.793 19.6859 15.5039C19.9893 15.5635 20.2896 15.6362 20.5537 15.7228C20.8874 15.8324 21.077 15.9369 21.1551 16.0024C21.2329 16.0677 21.3684 16.2357 21.5339 16.5444C21.6654 16.7897 21.7895 17.0735 21.9012 17.3628C21.5977 17.3032 21.2975 17.2305 21.0334 17.1438C20.6996 17.0343 20.51 16.9297 20.432 16.8643C20.3541 16.7989 20.2185 16.6308 20.053 16.322Z" fill="black"/>
<path d="M25.8577 19.2569C26.1611 19.1973 26.4613 19.1246 26.7254 19.038C27.0592 18.9284 27.2488 18.8239 27.3268 18.7584C27.4047 18.6931 27.5403 18.525 27.7058 18.2161C27.8373 17.9708 27.9613 17.6871 28.0729 17.398C27.7695 17.4576 27.4692 17.5303 27.2052 17.617C26.8714 17.7265 26.6818 17.8311 26.6037 17.8966C26.5259 17.9618 26.3904 18.1298 26.2249 18.4385C26.0934 18.6839 25.9693 18.9677 25.8577 19.2569Z" fill="black"/>
<path d="M25.8577 26.2569C26.1611 26.1973 26.4613 26.1246 26.7254 26.038C27.0592 25.9284 27.2488 25.8239 27.3268 25.7584C27.4047 25.6931 27.5403 25.525 27.7058 25.2161C27.8373 24.9708 27.9613 24.6871 28.0729 24.398C27.7695 24.4576 27.4692 24.5303 27.2052 24.617C26.8714 24.7265 26.6818 24.8311 26.6037 24.8966C26.5259 24.9618 26.3904 25.1298 26.2249 25.4385C26.0934 25.6839 25.9693 25.9677 25.8577 26.2569Z" fill="black"/>
<path d="M20.053 23.3222C19.9215 23.0769 19.7975 22.7932 19.6859 22.5041C19.9893 22.5637 20.2896 22.6364 20.5537 22.7231C20.8874 22.8326 21.077 22.9372 21.1551 23.0026C21.2329 23.0679 21.3684 23.2359 21.5339 23.5446C21.6654 23.79 21.7895 24.0737 21.9012 24.363C21.5977 24.3034 21.2975 24.2307 21.0334 24.1441C20.6996 24.0345 20.51 23.93 20.432 23.8645C20.3541 23.7992 20.2185 23.6311 20.053 23.3222Z" fill="black"/>
<path d="M10.1773 36.0068C9.78801 35.4743 9.37405 35.0562 8.95686 34.6349L7.3412 32.6853C7.21262 32.4755 7.08212 32.2739 6.95561 32.0784C6.49876 31.3727 6.09384 30.7471 6.01846 30.1074C5.92219 29.2905 6.22093 24.3909 6.48627 23.6494C6.7516 22.9079 8.28201 22.4924 8.81071 24.152C9.07159 24.971 9.15398 26.0243 9.22871 26.9795C9.30542 27.9602 9.37406 28.8377 9.61945 29.2521C10.1039 30.0703 11.6643 32.1046 11.6643 32.1046L10.3183 29.5582C10.3183 29.5582 10.113 29.2056 10.2209 28.5365C10.3289 27.8675 11.1409 26.9312 11.5224 27.6748C11.904 28.4184 12.5708 29.0888 12.5708 29.0888L14.9264 31.9175C14.9264 31.9175 15.6939 32.9098 15.715 33.4543C15.7299 33.8414 15.9019 35.2339 16 36.0068V37H10.1773V36.0068Z" fill="black"/>
<path d="M16 41C16 41.5523 15.5523 42 15 42H11C10.4477 42 10 41.5523 10 41L10 39C10 38.4477 10.4477 38 11 38H15C15.5523 38 16 38.4477 16 39V41Z" fill="black"/>
<path d="M37.7735 36.0068C38.1615 35.4743 38.5741 35.0562 38.9899 34.6349C39.5373 34.0802 40.0903 33.5198 40.6002 32.6853C40.7283 32.4755 40.8584 32.2739 40.9845 32.0785C41.4398 31.3727 41.8434 30.7471 41.9185 30.1074C42.0145 29.2905 42.0744 24.3909 41.8099 23.6494C41.5455 22.9079 40.0202 22.4924 39.4932 24.152C39.2332 24.971 39.1511 26.0243 39.0766 26.9795C39.0001 27.9602 38.9317 28.8377 38.6872 29.2521C38.2044 30.0703 36.6491 32.1046 36.6491 32.1046L37.9906 29.5582C37.9906 29.5582 38.1952 29.2056 38.0877 28.5365C37.9801 27.8675 37.1708 26.9312 36.7905 27.6748C36.4103 28.4184 35.7456 29.0888 35.7456 29.0888L33.3979 31.9175C33.3979 31.9175 32.6329 32.9098 32.612 33.4543C32.6049 33.6361 32.4911 34.0396 32.3622 34.4966C32.2167 35.0126 32.0519 35.5969 32 36.0068V37H37.7735V36.0068Z" fill="black"/>
<path d="M32 41C32 41.5523 32.4477 42 33 42H37C37.5523 42 38 41.5523 38 41V39C38 38.4477 37.5523 38 37 38H33C32.4477 38 32 38.4477 32 39V41Z" fill="black"/>
</svg>
