<svg width="48" height="48" viewBox="0 0 48 48" fill="none" xmlns="http://www.w3.org/2000/svg">
<path fill-rule="evenodd" clip-rule="evenodd" d="M19.1337 10.5004C19.5185 9.83321 20.4813 9.83321 20.8661 10.5004L25.8855 19.2031C25.4754 20.2284 25.2499 21.3474 25.2499 22.5191C25.2499 27.0162 28.5729 30.7372 32.8974 31.3605L35.8626 36.5016C36.2471 37.1683 35.766 38.0012 34.9964 38.0012H5.00344C4.23384 38.0012 3.75269 37.1683 4.1372 36.5016L19.1337 10.5004ZM18.7491 32.55V30.05H21.2505V32.55H18.7491ZM19.9998 20.0447C19.3091 20.0447 18.7491 20.6046 18.7491 21.2954V26.7948C18.7491 27.4855 19.3091 28.0454 19.9998 28.0454C20.6906 28.0454 21.2505 27.4855 21.2505 26.7948V21.2954C21.2505 20.6046 20.6906 20.0447 19.9998 20.0447Z" fill="black"/>
<path fill-rule="evenodd" clip-rule="evenodd" d="M27.2501 22.4646C27.2522 22.1924 27.27 21.9239 27.3026 21.66C27.7257 18.2362 30.6449 15.5857 34.1832 15.5857C38.0124 15.5857 41.1165 18.6899 41.1165 22.519C41.1165 23.9112 40.7062 25.2076 39.9999 26.2938L44.0042 30.298L42.4957 31.8065L38.5741 27.885C37.3785 28.8646 35.8495 29.4524 34.1832 29.4524C33.225 29.4524 32.3122 29.258 31.482 28.9065C29.7721 28.1825 28.413 26.7919 27.7305 25.0606C27.4203 24.2736 27.2499 23.4162 27.2499 22.5191C27.2499 22.519 27.2499 22.5191 27.2499 22.5191C27.2499 22.5009 27.2499 22.4827 27.2501 22.4646ZM34.1832 27.319C36.8342 27.319 38.9832 25.17 38.9832 22.519C38.9832 19.8681 36.8342 17.719 34.1832 17.719C31.5322 17.719 29.3832 19.8681 29.3832 22.519C29.3832 25.17 31.5322 27.319 34.1832 27.319Z" fill="black"/>
</svg>
