<svg width="24" height="24" viewBox="0 0 24 24" fill="none" xmlns="http://www.w3.org/2000/svg">
<path fill-rule="evenodd" clip-rule="evenodd" d="M2 2V22H4L4 13H6C6 13.5523 6.44772 14 7 14H13C13.5523 14 14 13.5523 14 13H15C15.5523 13 16 13.4477 16 14V16H22V13C22 9.68629 19.3137 7 16 7H14C14 6.44772 13.5523 6 13 6H11V4H13C13.5523 4 14 3.55228 14 3C14 2.44772 13.5523 2 13 2H7C6.44772 2 6 2.44772 6 3C6 3.55228 6.44772 4 7 4H9V6H7C6.44772 6 6 6.44772 6 7H4L4 2H2ZM12 8H8V12H12V8Z" fill="black"/>
<path d="M19 16.5366L19.73 17.3167L19.7313 17.3182L19.733 17.32L19.7375 17.3248L19.7506 17.3391C19.7612 17.3507 19.7754 17.3665 19.7926 17.386C19.827 17.4249 19.8739 17.4793 19.9292 17.5467C20.039 17.6805 20.1863 17.8708 20.3352 18.0971C20.6029 18.5036 21 19.2073 21 19.9699C21 21.0628 20.1325 22.0002 19 22.0002C17.8675 22.0002 17 21.0628 17 19.9699C17 19.2073 17.3971 18.5036 17.6648 18.0971C17.8137 17.8708 17.961 17.6805 18.0708 17.5467C18.1261 17.4793 18.173 17.4249 18.2074 17.386C18.2246 17.3665 18.2388 17.3507 18.2494 17.3391L18.2625 17.3248L18.267 17.32L18.2687 17.3182L19 16.5366Z" fill="black"/>
</svg>
