<svg width="24" height="24" viewBox="0 0 24 24" fill="none" xmlns="http://www.w3.org/2000/svg">
<path d="M18 3C18 2.44772 17.5523 2 17 2C16.4477 2 16 2.44772 16 3V4.5C16 5.05228 16.4477 5.5 17 5.5C17.5523 5.5 18 5.05228 18 4.5V3Z" fill="black"/>
<path d="M7.5 12V10.5H6V8.5H7.5V7H9.5V8.5H11V10.5H9.5V12H7.5Z" fill="black"/>
<path fill-rule="evenodd" clip-rule="evenodd" d="M8.94999 19C8.98278 19.1616 9 19.3288 9 19.5C9 20.8807 7.88071 22 6.5 22C5.11929 22 4 20.8807 4 19.5C4 19.3288 4.01722 19.1616 4.05001 19H2V5C2 4.44772 2.44772 4 3 4H14C14.5523 4 15 4.44772 15 5V9H16V8C16 7.44772 16.4477 7 17 7C17.5523 7 18 7.44772 18 8V9H18.0923C18.8036 9 19.4614 9.37782 19.8199 9.99226L21.7276 13.2626C21.906 13.5685 22 13.9162 22 14.2703V19H19.95C19.9828 19.1616 20 19.3288 20 19.5C20 20.8807 18.8807 22 17.5 22C16.1193 22 15 20.8807 15 19.5C15 19.3288 15.0172 19.1616 15.05 19H8.94999ZM4 17V15H13V17H4ZM13 13H4V6H13V13ZM15 17V15H20V17H15ZM15 13H19.259L18.0923 11H15V13ZM17.5 19C17.2239 19 17 19.2239 17 19.5C17 19.7761 17.2239 20 17.5 20C17.7761 20 18 19.7761 18 19.5C18 19.2239 17.7761 19 17.5 19ZM6.5 19C6.22386 19 6 19.2239 6 19.5C6 19.7761 6.22386 20 6.5 20C6.77614 20 7 19.7761 7 19.5C7 19.2239 6.77614 19 6.5 19Z" fill="black"/>
<path d="M21.2071 5.20711L20.1464 6.26777C19.7559 6.65829 19.1228 6.65829 18.7322 6.26777C18.3417 5.87724 18.3417 5.24408 18.7322 4.85355L19.7929 3.79289C20.1834 3.40237 20.8166 3.40237 21.2071 3.79289C21.5976 4.18342 21.5976 4.81658 21.2071 5.20711Z" fill="black"/>
<path d="M22 9C22.5523 9 23 8.55228 23 8C23 7.44772 22.5523 7 22 7H20.5C19.9477 7 19.5 7.44772 19.5 8C19.5 8.55228 19.9477 9 20.5 9H22Z" fill="black"/>
</svg>
