<svg width="24" height="24" viewBox="0 0 24 24" fill="none" xmlns="http://www.w3.org/2000/svg">
<path fill-rule="evenodd" clip-rule="evenodd" d="M16 21H2V19H16V21Z" fill="black"/>
<path fill-rule="evenodd" clip-rule="evenodd" d="M19 5H2V3H19V5Z" fill="black"/>
<path fill-rule="evenodd" clip-rule="evenodd" d="M16.9741 10.2187L20.0712 9.99746L19.9288 8.00254L12.921 8.50309L12.9134 8.50376C8.61731 8.87733 5.93681 10.0559 4.39361 11.6218C2.823 13.2156 2.54806 15.0918 2.83018 16.5326C3.02065 17.5055 3.90041 18 4.68558 18H11.5C13.6144 18 15.0216 16.6447 15.8462 14.9794C16.5331 13.592 16.8813 11.8872 16.9741 10.2187ZM14.9608 10.3625L13.079 10.4969C9.0338 10.8498 6.89532 11.9326 5.81813 13.0256C4.82589 14.0325 4.64046 15.1422 4.76743 16H11.5C12.5856 16 13.4283 15.3553 14.0538 14.092C14.5584 13.0729 14.859 11.7493 14.9608 10.3625ZM4.68345 15.9998L4.68477 16L4.68345 15.9998Z" fill="black"/>
<path d="M21.068 8.99986L22.0375 6.41465L20.1648 5.7124L18.932 8.99986L20.1648 12.2873L22.0375 11.5851L21.068 8.99986Z" fill="black"/>
<path d="M12 7C12 6.44772 11.5523 6 11 6C10.4477 6 10 6.44772 10 7V13H5C4.44772 13 4 13.4477 4 14C4 14.5523 4.44772 15 5 15H10C11.1046 15 12 14.1046 12 13V7Z" fill="black"/>
</svg>
