<svg width="24" height="24" viewBox="0 0 24 24" fill="none" xmlns="http://www.w3.org/2000/svg">
<path fill-rule="evenodd" clip-rule="evenodd" d="M4 16V14H14V16H6.5H4ZM14 12H4V5H14V8V9V12ZM16 16V14H20V16H17.5H16ZM16 12H19.382L18.382 10H16V12ZM14 18H8.94999C8.98278 18.1616 9 18.3288 9 18.5C9 19.8807 7.88071 21 6.5 21C5.11929 21 4 19.8807 4 18.5C4 18.3288 4.01722 18.1616 4.05001 18H4H2V16V4C2 3.44772 2.44772 3 3 3H15C15.5523 3 16 3.44772 16 4V8H18.382C19.1395 8 19.832 8.428 20.1708 9.10557L21.7889 12.3416C21.9277 12.6194 22 12.9256 22 13.2361V17V18H21H19.95C19.9828 18.1616 20 18.3288 20 18.5C20 19.8807 18.8807 21 17.5 21C16.1193 21 15 19.8807 15 18.5C15 18.3288 15.0172 18.1616 15.05 18H15H14ZM17.5 18C17.2239 18 17 18.2239 17 18.5C17 18.7761 17.2239 19 17.5 19C17.7761 19 18 18.7761 18 18.5C18 18.2239 17.7761 18 17.5 18ZM6.5 18C6.22386 18 6 18.2239 6 18.5C6 18.7761 6.22386 19 6.5 19C6.77614 19 7 18.7761 7 18.5C7 18.2239 6.77614 18 6.5 18ZM8 11V9.5H6.5V7.5H8V6H10V7.5H11.5V9.5H10V11H8Z" fill="black"/>
</svg>
