<svg width="24" height="24" viewBox="0 0 24 24" fill="none" xmlns="http://www.w3.org/2000/svg">
<path fill-rule="evenodd" clip-rule="evenodd" d="M20 14.0073V14.0059H4.07367V14.0073H3C2.44772 14.0073 2 14.455 2 15.0073C2 15.5596 2.44772 16.0073 3 16.0073H4.07367C4.07578 18.767 6.31355 21.0034 9.07367 21.0034H15C17.7601 21.0034 19.9979 18.767 20 16.0073H21C21.5523 16.0073 22 15.5596 22 15.0073C22 14.455 21.5523 14.0073 21 14.0073H20ZM18 16.0073L6.07367 16.0073C6.07578 17.6624 7.41812 19.0034 9.07367 19.0034H15C16.6556 19.0034 17.9979 17.6624 18 16.0073Z" fill="black"/>
<path fill-rule="evenodd" clip-rule="evenodd" d="M12.9263 4.33701L12.5021 4.95549C12.0651 5.59256 12.03 6.11031 12.0964 6.49188C12.1675 6.90027 12.367 7.21734 12.5002 7.40979C12.5071 7.41969 12.5144 7.43015 12.522 7.44117C12.6813 7.66992 13.0092 8.14088 13.128 8.81033C13.2568 9.5365 13.1287 10.4028 12.5245 11.3968L12.1349 12.0377L10.8532 11.2586L11.2427 10.6177C11.6841 9.89156 11.7077 9.39179 11.6511 9.07236C11.5905 8.7309 11.4239 8.49034 11.2702 8.26838L11.267 8.26365C11.0966 8.01762 10.7465 7.48328 10.6186 6.7492C10.4861 5.98832 10.6028 5.07257 11.2651 4.10701L11.6894 3.48853L12.9263 4.33701Z" fill="black"/>
<path fill-rule="evenodd" clip-rule="evenodd" d="M8.13547 5.89365L7.71123 6.51213C7.40636 6.95659 7.38947 7.30205 7.432 7.54632C7.4792 7.8174 7.61262 8.03214 7.70938 8.17189C7.71478 8.1797 7.7206 8.18804 7.72678 8.19692C7.84944 8.37289 8.11825 8.75853 8.21554 9.30691C8.32208 9.90742 8.2122 10.6095 7.73364 11.3968L7.34408 12.0377L6.0623 11.2586L6.45185 10.6177C6.76757 10.0983 6.77298 9.76271 6.73861 9.56894C6.69989 9.35072 6.59422 9.19633 6.47612 9.02575C6.34227 8.83243 6.05815 8.40041 5.95424 7.80364C5.84565 7.18006 5.94406 6.4366 6.47427 5.66365L6.89851 5.04517L8.13547 5.89365Z" fill="black"/>
<path fill-rule="evenodd" clip-rule="evenodd" d="M17.712 5.89365L17.2878 6.51213C16.9829 6.95659 16.966 7.30205 17.0085 7.54632C17.0557 7.8174 17.1892 8.03214 17.2859 8.17189C17.2913 8.1797 17.2971 8.18804 17.3033 8.19692C17.426 8.37289 17.6948 8.75853 17.7921 9.30691C17.8986 9.90742 17.7887 10.6095 17.3102 11.3968L16.9206 12.0377L15.6388 11.2586L16.0284 10.6177C16.3441 10.0983 16.3495 9.76271 16.3151 9.56894C16.2764 9.35072 16.1708 9.19633 16.0527 9.02575C15.9188 8.83243 15.6347 8.40041 15.5308 7.80364C15.4222 7.18006 15.5206 6.4366 16.0508 5.66365L16.475 5.04517L17.712 5.89365Z" fill="black"/>
</svg>
