<svg width="24" height="24" viewBox="0 0 24 24" fill="none" xmlns="http://www.w3.org/2000/svg">
<path fill-rule="evenodd" clip-rule="evenodd" d="M5.6475 2.34674C6.01937 2.12641 6.45299 2 6.91601 2C7.37892 2 7.81246 2.12635 8.18427 2.34659C8.9151 1.96863 9.81625 1.96012 10.5811 2.40357C11.7768 3.09686 12.1865 4.63235 11.4961 5.83318L10.9961 6.7029C10.9718 6.74512 10.9465 6.78638 10.9202 6.82664C11.5947 7.45923 11.9758 8.39922 11.8386 9.41522C11.6656 10.6964 11.3397 12.9065 10.9422 14.5306C10.3767 16.8405 9.15 20.0623 8.91078 20.6838C8.23521 22.4387 5.76477 22.4387 5.08921 20.6837C4.84998 20.0623 3.62329 16.8405 3.05783 14.5306C2.66026 12.9065 2.33438 10.6964 2.16138 9.41522C2.03116 8.45086 2.36784 7.55499 2.97919 6.92546C2.92796 6.85462 2.87991 6.7804 2.83535 6.7029L2.33535 5.83318C1.645 4.63235 2.05469 3.09686 3.25042 2.40357C4.01533 1.96006 4.91661 1.96864 5.6475 2.34674ZM5.12446 8.02556C4.52589 8.02556 4.0628 8.54966 4.14323 9.14532C4.179 9.41017 4.2208 9.71066 4.26787 10.0341H5.99999C6.55228 10.0341 6.99999 10.4837 6.99999 11.0383C6.99999 11.593 6.55228 12.0426 5.99999 12.0426H4.58886C4.71341 12.7476 4.85228 13.4477 4.99999 14.0511C5.23312 15.0034 5.59172 16.1374 5.94124 17.1633C6.05478 17.4966 6.16736 17.8185 6.27436 18.119C6.57202 18.955 6.82658 19.6259 6.93877 19.9182L6.95467 19.9595C6.97106 20.0021 7.02892 20.0021 7.04531 19.9595L7.06122 19.9182C7.1734 19.6259 7.42796 18.955 7.72562 18.119C7.83263 17.8185 7.9452 17.4966 8.05874 17.1633C8.18098 16.8045 8.30434 16.4325 8.42304 16.0596H6.99999C6.44771 16.0596 5.99999 15.61 5.99999 15.0554C5.99999 14.5007 6.44771 14.0511 6.99999 14.0511H8.99999C9.36953 12.5415 9.68376 10.4264 9.85675 9.14532C9.93718 8.54966 9.47409 8.02556 8.87552 8.02556H5.12446ZM6.91601 6.01704C6.9938 6.01704 7.06231 6.00054 7.12282 5.97275L7.87926 5.62532L8.65794 5.91906C8.88131 6.00332 9.14102 5.91269 9.26408 5.69863L9.76408 4.82892C9.90215 4.58876 9.82021 4.28166 9.58107 4.143C9.42992 4.05536 9.25153 4.05385 9.09992 4.13225L8.11877 4.63967L7.1682 4.0766C7.09577 4.0337 7.01186 4.00852 6.91601 4.00852C6.82014 4.00852 6.73621 4.03371 6.66377 4.07663L5.71299 4.63997L4.73162 4.13228C4.58 4.05385 4.40158 4.05535 4.25042 4.143C4.01127 4.28166 3.92933 4.58875 4.0674 4.82892L4.5674 5.69863C4.69047 5.91271 4.95022 6.00334 5.1736 5.91904L5.95249 5.6251L6.70915 5.97272C6.76968 6.00053 6.8382 6.01704 6.91601 6.01704Z" fill="black"/>
<path d="M15.7933 17.8582C15.6325 17.3276 15.9305 16.7665 16.4588 16.6051L16.4729 16.6005C16.4872 16.5958 16.5102 16.5882 16.5399 16.5777C16.5999 16.5566 16.6844 16.5251 16.7787 16.485C16.9876 16.3963 17.1646 16.2987 17.2576 16.2204C17.3505 16.1421 17.4769 15.9839 17.6002 15.7928C17.6559 15.7064 17.7014 15.6284 17.7326 15.5727C17.748 15.5451 17.7595 15.5237 17.7666 15.5104L17.7737 15.4969C18.0238 15.0025 18.6256 14.8055 19.1179 15.0566C19.6103 15.3078 19.8068 15.9123 19.5567 16.4068L19.5554 16.4093L19.5536 16.4127L19.5485 16.4227L19.5322 16.4539C19.5186 16.4794 19.4998 16.5144 19.4762 16.5565C19.4293 16.6404 19.362 16.7557 19.2788 16.8847C19.1243 17.1243 18.8683 17.485 18.5431 17.759C18.218 18.033 17.8198 18.2235 17.558 18.3348C17.417 18.3947 17.2923 18.4412 17.2019 18.473C17.1565 18.489 17.119 18.5016 17.0916 18.5105L17.0581 18.5213L17.0475 18.5246L17.0437 18.5258L17.0411 18.5266C16.5127 18.6881 15.9541 18.3888 15.7933 17.8582Z" fill="black"/>
<path fill-rule="evenodd" clip-rule="evenodd" d="M17.9122 9.94379L17.9141 9.93925C18.1378 9.43239 17.9102 8.83911 17.4056 8.61422C16.9008 8.38925 16.3098 8.61813 16.0858 9.12509L16.0846 9.12773L16.0826 9.13231L16.0765 9.14637C16.0716 9.15787 16.0649 9.17361 16.0567 9.19324C16.0402 9.23245 16.0177 9.28742 15.9911 9.35535C15.9382 9.49063 15.868 9.68035 15.7975 9.90164C15.6636 10.3222 15.5 10.9437 15.5 11.5407C15.5 11.763 15.5227 11.9888 15.5581 12.2063C14.9603 12.1733 14.3167 12.2992 13.6884 12.6794C11.9981 13.7024 11.9995 15.5694 12 16.2106L12 16.2409C12 19.0295 14.3573 21.0808 17 21.0808C19.6426 21.0808 22 19.0295 22 16.2409L22 16.2106C22.0005 15.5694 22.0018 13.7024 20.3115 12.6794C19.3884 12.1207 18.4321 12.1113 17.6368 12.3478C17.5553 12.0543 17.5 11.7646 17.5 11.5407C17.5 11.2607 17.5864 10.8779 17.7024 10.5135C17.757 10.3423 17.8117 10.1943 17.8526 10.09C17.8728 10.0381 17.8894 9.99784 17.9003 9.97175L17.9122 9.94379ZM20 16.2409C20 17.8046 18.6568 19.0723 17 19.0723C15.3431 19.0723 14 17.8046 14 16.2409C14 15.5379 14.0619 14.7985 14.7208 14.3997C15.5138 13.9197 16.3334 14.426 17 15.0551C17.6666 14.4259 18.4862 13.9197 19.2792 14.3997C19.9381 14.7985 20 15.5379 20 16.2409Z" fill="black"/>
<path d="M18.3787 11.5762C18.3787 11.5762 18.3787 10.1559 19.0858 9.4458C19.7929 8.73568 21.2071 8.73568 21.2071 8.73568C21.2071 8.73568 21.2071 10.1559 20.5 10.866C19.7929 11.5762 18.3787 11.5762 18.3787 11.5762Z" fill="black"/>
</svg>
