<svg width="24" height="24" viewBox="0 0 24 24" fill="none" xmlns="http://www.w3.org/2000/svg">
<path fill-rule="evenodd" clip-rule="evenodd" d="M11.4892 7.47642C11.1429 7.382 10.7727 7.48033 10.5189 7.73408L7.73383 10.5192C7.48008 10.7729 7.38176 11.1432 7.47618 11.4894L8.40454 14.8934C8.49771 15.235 8.76458 15.5019 9.10619 15.5951L12.5102 16.5234C12.8362 16.6123 13.1851 16.5306 13.4377 16.3061L16.2228 13.8304C16.501 13.5831 16.6189 13.2017 16.5286 12.8405L15.6002 9.12702C15.5125 8.77613 15.2421 8.49995 14.8932 8.40479L11.4892 7.47642ZM10.3665 10.7149L11.5228 9.55864L12.7045 9.88092L11.5482 11.0372L10.3665 10.7149ZM12.9624 12.4514L14.0883 11.3255L14.4414 12.738L13.3139 13.7402L12.9624 12.4514ZM11.0305 12.9691L11.3481 14.1334L10.1837 13.8159L9.86616 12.6515L11.0305 12.9691Z" fill="black"/>
<path fill-rule="evenodd" clip-rule="evenodd" d="M22 12C22 17.5228 17.5228 22 12 22C6.47715 22 2 17.5228 2 12C2 6.47715 6.47715 2 12 2C17.5228 2 22 6.47715 22 12ZM20 12C20 13.8487 19.3729 15.5509 18.3199 16.9056L16.7071 15.2928C16.3166 14.9023 15.6834 14.9023 15.2929 15.2928C14.9024 15.6833 14.9024 16.3165 15.2929 16.707L16.9057 18.3198C15.551 19.3729 13.8487 20 12 20C7.58172 20 4 16.4183 4 12C4 10.1964 4.59685 8.5322 5.60382 7.19414L6.99038 8.58067C7.3809 8.97119 8.01407 8.97119 8.40459 8.58066C8.79511 8.19013 8.79511 7.55697 8.40458 7.16645L6.99597 5.75786C8.36619 4.65801 10.1062 4 12 4C16.4183 4 20 7.58172 20 12Z" fill="black"/>
</svg>
