<svg width="24" height="24" viewBox="0 0 24 24" fill="none" xmlns="http://www.w3.org/2000/svg">
<path fill-rule="evenodd" clip-rule="evenodd" d="M6.57498 9C5.70242 9 4.93057 9.56568 4.66781 10.3977L2.45729 17.3977C2.05022 18.6868 3.01266 20 4.36445 20H14.5829C15.4555 20 16.2273 19.4343 16.4901 18.6023L18.2171 13.1332L19.7096 17.3035L18 18L17.5 20L20.318 19.2087C21.3961 18.8644 21.974 17.695 21.5927 16.6295L19 9H6.57498ZM11.2425 11.5301C11.7783 11.664 12.1041 12.207 11.9701 12.7428L11.7808 13.5002L12.5 13.5002C13.0523 13.5002 13.5 13.948 13.5 14.5002C13.5 15.0525 13.0523 15.5002 12.5 15.5002L11.2808 15.5002L10.9701 16.7428C10.8362 17.2786 10.2933 17.6043 9.75746 17.4704C9.22166 17.3364 8.8959 16.7935 9.02985 16.2577L9.21773 15.5062L8.50461 15.5095C7.95234 15.5121 7.50255 15.0665 7.49998 14.5142C7.49742 13.9619 7.94305 13.5121 8.49532 13.5095L9.71831 13.5039L10.0299 12.2577C10.1638 11.7219 10.7067 11.3961 11.2425 11.5301Z" fill="black"/>
<path d="M13 4H19V8H13V4Z" fill="black"/>
<path d="M17.5 4H19V9H17.5V4Z" fill="black"/>
</svg>
