<svg width="24" height="24" viewBox="0 0 24 24" fill="none" xmlns="http://www.w3.org/2000/svg">
<path fill-rule="evenodd" clip-rule="evenodd" d="M5.88937 4C5.88937 2.89543 6.7848 2 7.88937 2H15.784C16.8885 2 17.784 2.89543 17.784 4V7.71289H20C21.1046 7.71289 22 8.60832 22 9.71289V19.0059C22 20.1104 21.1046 21.0059 20 21.0059H4C2.89543 21.0059 2 20.1104 2 19.0059V9.71289C2 8.60832 2.89543 7.71289 4 7.71289H5.88937V4ZM5.88937 19.0059H4V9.71289H5.88937V19.0059ZM17.784 19.0059H20V9.71289H17.784V19.0059ZM12.8159 5.19495H10.8159V6.70699H9.30402V8.70699H10.8159V10.2188H12.8159V8.70699H14.3279V6.70699H12.8159V5.19495ZM13.5229 14.4101H10.109V19.1279H13.5229V14.4101Z" fill="black"/>
</svg>
