<svg width="24" height="24" viewBox="0 0 24 24" fill="none" xmlns="http://www.w3.org/2000/svg">
<path fill-rule="evenodd" clip-rule="evenodd" d="M14.4927 8H19.589C20.3191 8 20.94 8.53283 21.0507 9.25449L21.3664 11.3107C21.4976 12.1659 21.1453 13.0236 20.4507 13.5395C20.3099 13.6441 20.1586 13.7318 19.9999 13.8017V21H11.9999V16.5H8.99994V21H3.99994V13.8017C3.84128 13.7318 3.68999 13.6441 3.54918 13.5395C2.85462 13.0236 2.50226 12.1659 2.63353 11.3107L2.94917 9.25449C3.05995 8.53283 3.68081 8 4.41093 8H6.00717C6.13657 5.76916 7.98665 4 10.2499 4C12.5132 4 14.3633 5.76916 14.4927 8ZM13 11.4905C13.4767 11.0855 13.863 10.5771 14.1241 10H15.497L15.4919 11.7141C15.1334 11.901 14.7333 12 14.3249 12C13.9362 12 13.5528 11.9103 13.2044 11.7378L13 11.6365V11.4905ZM6.37581 10C6.41448 10.0855 6.4559 10.1694 6.49995 10.2518V11.6365L6.11319 11.828C5.88476 11.9411 5.6333 12 5.3784 12H4.94153C4.86957 12 4.79952 11.9768 4.74175 11.9339C4.6421 11.8599 4.59154 11.7368 4.61038 11.6141L4.85816 10H6.37581ZM19.0584 12H18.6194C18.365 12 18.1139 11.9416 17.8856 11.8292L17.4922 11.6357L17.497 10H19.1417L19.3895 11.6141C19.4084 11.7368 19.3578 11.8599 19.2581 11.9339C19.2004 11.9768 19.1303 12 19.0584 12ZM11 6V7.5H12.5V9H11V10.5H9.5V9H8V7.5H9.5V6H11Z" fill="black"/>
</svg>
