<svg width="24" height="24" viewBox="0 0 24 24" fill="none" xmlns="http://www.w3.org/2000/svg">
<path d="M3 19C3 18.4477 3.44772 18 4 18H20C20.5523 18 21 18.4477 21 19C21 19.5523 20.5523 20 20 20H4C3.44772 20 3 19.5523 3 19Z" fill="black"/>
<path d="M18 5H21V7H18V5Z" fill="black"/>
<path d="M3 5H10V7H3V5Z" fill="black"/>
<path d="M11 12H16V20H11V12Z" fill="black"/>
<path d="M10 7H4L4 20H20V7H18V18H6V10H10V7Z" fill="black"/>
<path d="M11 6H17V8H11V6Z" fill="black"/>
<path d="M13 10V4H15V10H13Z" fill="black"/>
</svg>
