<svg width="24" height="24" viewBox="0 0 24 24" fill="none" xmlns="http://www.w3.org/2000/svg">
<path d="M4.79292 4.29289C5.18345 3.90237 5.81661 3.90237 6.20714 4.29289L9.41424 7.5L8.00003 8.91421L7.50003 8.41421V10H3.50003V8.41421L3.00003 8.91421L1.58582 7.5L4.79292 4.29289Z" fill="black"/>
<path d="M12.7071 9.29289C12.3166 8.90237 11.6834 8.90237 11.2929 9.29289L5.08582 15.5L6.50003 16.9142L7.50003 15.9142V20H10.5V17.5C10.5 16.6716 11.1716 16 12 16C12.8285 16 13.5 16.6716 13.5 17.5V20H16.5V15.9142L17.5 16.9142L18.9142 15.5L12.7071 9.29289Z" fill="black"/>
<path d="M20 8.41421L21 9.41421L22.4142 8L18.7071 4.29289C18.3166 3.90237 17.6834 3.90237 17.2929 4.29289L13.5858 8L15 9.41421L16 8.41421V11H20V8.41421Z" fill="black"/>
</svg>
