<svg width="24" height="24" viewBox="0 0 24 24" fill="none" xmlns="http://www.w3.org/2000/svg">
<path fill-rule="evenodd" clip-rule="evenodd" d="M2 12C2 6.47715 6.47715 2 12 2C17.5228 2 22 6.47715 22 12C22 17.5228 17.5228 22 12 22C6.47715 22 2 17.5228 2 12ZM12 4C7.58172 4 4 7.58172 4 12C4 16.4183 7.58172 20 12 20C16.4183 20 20 16.4183 20 12C20 7.58172 16.4183 4 12 4Z" fill="black"/>
<path d="M6.84161 8.75C8.12216 8.75 9.33445 9.32552 10.4624 10.3823L11.488 9.28764C10.1697 8.05261 8.6083 7.25 6.84161 7.25V8.75Z" fill="black"/>
<path d="M17.1584 8.75C15.8778 8.75 14.6655 9.32552 13.5376 10.3823L12.512 9.28764C13.8303 8.05261 15.3917 7.25 17.1584 7.25V8.75Z" fill="black"/>
<path d="M8.1166 15.158C8.90783 14.4723 10.27 13.5034 12 13.5034C13.73 13.5034 15.0922 14.4723 15.8834 15.158C16.4075 15.6122 16.3838 16.2883 16.1197 16.7157C15.8603 17.1354 15.2907 17.4509 14.6642 17.2276L13.6642 16.8711C12.8262 16.5724 12.4466 16.5726 12.0295 16.5727C12.0197 16.5728 12.0099 16.5728 12 16.5728C11.9901 16.5728 11.9803 16.5728 11.9705 16.5727C11.5534 16.5726 11.1738 16.5724 10.3358 16.8711L9.33575 17.2276C8.70925 17.4509 8.13973 17.1354 7.88035 16.7157C7.61621 16.2883 7.59247 15.6122 8.1166 15.158Z" fill="black"/>
<path d="M8.75 12.1499C9.57843 12.1499 10.25 11.4783 10.25 10.6499C10.25 9.82148 9.57843 9.1499 8.75 9.1499C7.92157 9.1499 7.25 9.82148 7.25 10.6499C7.25 11.4783 7.92157 12.1499 8.75 12.1499Z" fill="black"/>
<path d="M15.25 12.1499C16.0784 12.1499 16.75 11.4783 16.75 10.6499C16.75 9.82148 16.0784 9.1499 15.25 9.1499C14.4216 9.1499 13.75 9.82148 13.75 10.6499C13.75 11.4783 14.4216 12.1499 15.25 12.1499Z" fill="black"/>
</svg>
