<svg width="24" height="24" viewBox="0 0 24 24" fill="none" xmlns="http://www.w3.org/2000/svg">
<path fill-rule="evenodd" clip-rule="evenodd" d="M2 12C2 6.47715 6.47715 2 12 2C17.5228 2 22 6.47715 22 12C22 17.5228 17.5228 22 12 22C6.47715 22 2 17.5228 2 12ZM12 4C7.58172 4 4 7.58172 4 12C4 16.4183 7.58172 20 12 20C16.4183 20 20 16.4183 20 12C20 7.58172 16.4183 4 12 4Z" fill="black"/>
<path d="M9.48687 12.8991C10.1517 12.4136 11.0039 12 12 12C12.9961 12 13.8483 12.4136 14.5131 12.8991C15.1782 13.3848 15.7189 13.9881 16.1124 14.4806C16.5464 15.0239 16.4156 15.687 16.0892 16.0747C15.767 16.4574 15.1549 16.6955 14.5528 16.3944L13.5528 15.8944C13.1132 15.6746 12.823 15.5844 12.6164 15.5431C12.4103 15.5019 12.2484 15.5 12 15.5C11.7516 15.5 11.5897 15.5019 11.3836 15.5431C11.177 15.5844 10.8868 15.6746 10.4472 15.8944L9.44721 16.3944C8.84506 16.6955 8.23297 16.4574 7.9108 16.0747C7.58445 15.687 7.45359 15.0239 7.88761 14.4806C8.28113 13.9881 8.82181 13.3848 9.48687 12.8991Z" fill="black"/>
<path d="M7.33832 10.2583C7.54656 10.8366 8.1 11.25 8.75001 11.25C9.57843 11.25 10.25 10.5784 10.25 9.75C10.25 9.38965 10.1229 9.05898 9.91116 8.80034L7.33832 10.2583Z" fill="black"/>
<path d="M16.75 9.75C16.75 10.5784 16.0784 11.25 15.25 11.25C14.4216 11.25 13.75 10.5784 13.75 9.75C13.75 8.92157 14.4216 8.25 15.25 8.25C16.0784 8.25 16.75 8.92157 16.75 9.75Z" fill="black"/>
<path fill-rule="evenodd" clip-rule="evenodd" d="M14.2406 2.28528C14.7134 2.00949 15.2988 2.01311 15.7682 2.2947L17.2793 3.20142C18.2645 3.7925 18.2467 5.22628 17.2471 5.79269L3.90505 13.3532C2.80716 13.9753 1.47849 13.0463 1.68594 11.8016L1.97503 10.0671C2.04835 9.62716 2.3136 9.2427 2.69881 9.01799L14.2406 2.28528ZM14.9928 4.16189L3.90924 10.6273L3.83107 11.0963L15.5152 4.47532L14.9928 4.16189Z" fill="black"/>
</svg>
