<svg width="24" height="24" viewBox="0 0 24 24" fill="none" xmlns="http://www.w3.org/2000/svg">
<path fill-rule="evenodd" clip-rule="evenodd" d="M17.0001 3.33946C12.2172 0.578039 6.10131 2.21679 3.33988 6.99972C0.578459 11.7826 2.21721 17.8985 7.00014 20.66C11.7831 23.4214 17.899 21.7826 20.6604 16.9997C23.4218 12.2168 21.7831 6.10089 17.0001 3.33946ZM5.07193 7.99972C7.28107 4.17338 12.1738 2.86237 16.0001 5.07151C19.8265 7.28065 21.1375 12.1734 18.9283 15.9997C16.7192 19.8261 11.8265 21.1371 8.00014 18.9279C4.1738 16.7188 2.86279 11.8261 5.07193 7.99972Z" fill="black"/>
<path d="M8.65442 15.0676C9.04582 14.678 9.67898 14.6794 10.0686 15.0708C10.235 15.2379 10.5199 15.3942 10.9078 15.5062C11.2862 15.6154 11.6868 15.6603 12 15.6603C12.3132 15.6603 12.7139 15.6154 13.0923 15.5062C13.4801 15.3942 13.7651 15.2379 13.9314 15.0708C14.3211 14.6794 14.9542 14.678 15.3456 15.0676C15.7371 15.4572 15.7385 16.0904 15.3488 16.4818C14.8552 16.9777 14.2161 17.2634 13.6469 17.4277C13.0683 17.5948 12.4789 17.6603 12 17.6603C11.5212 17.6603 10.9318 17.5948 10.3531 17.4277C9.78396 17.2634 9.14487 16.9777 8.65122 16.4818C8.26158 16.0904 8.26301 15.4572 8.65442 15.0676Z" fill="black"/>
<path d="M7.15008 10.1142C7.29734 10.3701 7.80187 10.8969 8.5 10.8969C9.19813 10.8969 9.70266 10.3701 9.84992 10.1142L11.1501 10.8622C10.8529 11.3788 9.9352 12.3969 8.5 12.3969C7.0648 12.3969 6.1471 11.3788 5.84992 10.8622L7.15008 10.1142Z" fill="black"/>
<path d="M14.1501 10.1142C14.2973 10.3701 14.8019 10.8969 15.5 10.8969C16.1981 10.8969 16.7027 10.3701 16.8499 10.1142L18.1501 10.8622C17.8529 11.3788 16.9352 12.3969 15.5 12.3969C14.0648 12.3969 13.1471 11.3788 12.8499 10.8622L14.1501 10.1142Z" fill="black"/>
</svg>
