<svg width="24" height="24" viewBox="0 0 24 24" fill="none" xmlns="http://www.w3.org/2000/svg">
<path d="M4 12C4 7.58172 7.58172 4 12 4C16.4183 4 20 7.58172 20 12C20 13.1576 19.7541 14.2577 19.3118 15.2511L21.2338 15.8456C21.7274 14.6617 22 13.3627 22 12C22 6.47715 17.5228 2 12 2C6.47715 2 2 6.47715 2 12C2 17.5228 6.47715 22 12 22C13.1957 22 14.3424 21.7901 15.4053 21.4053L13.7973 19.7973C13.2196 19.9299 12.618 20 12 20C7.58172 20 4 16.4183 4 12Z" fill="black"/>
<path d="M8.83542 7.82934C8.46494 7.6441 8.01443 7.79427 7.82919 8.16475C7.64395 8.53524 7.79412 8.98574 8.1646 9.17098L9.37575 9.77656C9.56001 9.86869 9.56001 10.1316 9.37575 10.2238L8.1646 10.8293C7.79412 11.0146 7.64395 11.4651 7.82919 11.8356C8.01443 12.2061 8.46494 12.3562 8.83542 12.171L10.0466 11.5654C11.3364 10.9205 11.3364 9.07983 10.0466 8.43492L8.83542 7.82934Z" fill="black"/>
<path d="M16.1646 7.82934C16.5351 7.6441 16.9856 7.79427 17.1708 8.16475C17.3561 8.53524 17.2059 8.98574 16.8354 9.17098L15.6243 9.77656C15.44 9.86869 15.44 10.1316 15.6243 10.2238L16.8354 10.8293C17.2059 11.0146 17.3561 11.4651 17.1708 11.8356C16.9856 12.2061 16.5351 12.3562 16.1646 12.171L14.9535 11.5654C13.6636 10.9205 13.6636 9.07983 14.9535 8.43492L16.1646 7.82934Z" fill="black"/>
<path d="M18.007 16.2098C17.4832 16.0347 16.9166 16.3173 16.7415 16.8411C16.5664 17.3648 16.849 17.9314 17.3727 18.1066L19.1829 18.7119C19.7066 18.887 20.2732 18.6044 20.4484 18.0806C20.6235 17.5569 20.3409 16.9903 19.8171 16.8151L18.007 16.2098Z" fill="black"/>
<path d="M22.3543 17.6734C21.826 17.5125 21.2672 17.8103 21.1063 18.3387C20.9454 18.867 21.2433 19.4257 21.7716 19.5866L22.0886 19.6832C22.617 19.8441 23.1757 19.5462 23.3366 19.0179C23.4975 18.4896 23.1997 17.9308 22.6713 17.7699L22.3543 17.6734Z" fill="black"/>
<path d="M17.0658 18.8564C16.6815 18.4598 16.0484 18.4497 15.6517 18.834C15.2551 19.2183 15.245 19.8514 15.6293 20.2481L16.2526 20.8914C16.6369 21.2881 17.27 21.2981 17.6667 20.9139C18.0633 20.5296 18.0734 19.8965 17.6891 19.4998L17.0658 18.8564Z" fill="black"/>
<path d="M19.4032 21.2691C19.0189 20.8725 18.3858 20.8624 17.9892 21.2467C17.5925 21.631 17.5825 22.2641 17.9667 22.6608L18.4342 23.1433C18.8185 23.54 19.4516 23.55 19.8483 23.1657C20.2449 22.7814 20.255 22.1483 19.8707 21.7517L19.4032 21.2691Z" fill="black"/>
<path d="M15.25 15.5C15.25 17.0188 14.0188 18.25 12.5 18.25C10.9812 18.25 9.75 17.0188 9.75 15.5C9.75 13.9812 10.9812 12.75 12.5 12.75C14.0188 12.75 15.25 13.9812 15.25 15.5Z" fill="black"/>
</svg>
