<svg width="24" height="24" viewBox="0 0 24 24" fill="none" xmlns="http://www.w3.org/2000/svg">
<path d="M16.0001 5.072C12.1738 2.86286 7.28108 4.17386 5.07194 8.00021C2.8628 11.8265 4.1738 16.7193 8.00014 18.9284C10.918 20.613 14.456 20.2506 16.9511 18.2868C17.4228 18.6816 17.9662 18.879 18.5815 18.879C18.8608 18.879 19.1253 18.8383 19.375 18.757C16.2774 22.1445 11.1396 23.0503 7.00014 20.6605C2.21722 17.899 0.578466 11.7831 3.33989 7.00021C6.10131 2.21728 12.2172 0.578527 17.0001 3.33995C21.3245 5.83659 23.0786 11.0753 21.3345 15.5917C21.3017 14.9669 21.1312 14.3065 20.8231 13.6103C20.6502 13.2198 20.3763 12.6962 20.0014 12.0395C20.0125 9.26352 18.5765 6.55945 16.0001 5.072Z" fill="black"/>
<path d="M19.8654 17.0319C19.5094 17.374 19.0814 17.545 18.5814 17.545C18.0815 17.545 17.6535 17.374 17.2974 17.0319C16.9414 16.6899 16.7634 16.2786 16.7634 15.7983C16.7634 15.4053 16.877 14.9868 17.1043 14.5428C17.3315 14.0988 17.8239 13.3528 18.5814 12.3048C19.339 13.3528 19.8313 14.0988 20.0586 14.5428C20.2859 14.9868 20.3995 15.4053 20.3995 15.7983C20.3995 16.2786 20.2215 16.6899 19.8654 17.0319Z" fill="black"/>
<path d="M9.26393 9.53857C9.23378 9.6927 9.13484 9.98269 8.94635 10.2514C8.76221 10.514 8.5255 10.712 8.22672 10.7921C7.92794 10.8721 7.62392 10.819 7.33319 10.6837C7.03557 10.5452 6.80489 10.3435 6.70172 10.2251L5.57083 11.2106C5.79988 11.4734 6.19631 11.8091 6.70034 12.0436C7.21125 12.2814 7.8834 12.437 8.61495 12.241C9.34649 12.0449 9.85081 11.5741 10.1744 11.1128C10.4936 10.6576 10.6691 10.1687 10.736 9.82654L9.26393 9.53857Z" fill="black"/>
<path d="M14.736 9.53857C14.7662 9.6927 14.8651 9.98269 15.0536 10.2514C15.2378 10.514 15.4745 10.712 15.7733 10.7921C16.072 10.8721 16.376 10.819 16.6668 10.6837C16.9644 10.5452 17.1951 10.3435 17.2982 10.2251L18.4291 11.2106C18.2001 11.4734 17.8037 11.8091 17.2996 12.0436C16.7887 12.2814 16.1166 12.437 15.385 12.241C14.6535 12.0449 14.1492 11.5741 13.8256 11.1128C13.5063 10.6576 13.3309 10.1687 13.2639 9.82654L14.736 9.53857Z" fill="black"/>
<path d="M10.192 17.2151C9.88564 17.6746 9.26477 17.7988 8.80524 17.4924C8.34571 17.1861 8.22154 16.5652 8.52789 16.1057C9.43854 14.7397 11.0112 14.3403 12 14.3403C12.9888 14.3403 14.5616 14.7397 15.4722 16.1057C15.7786 16.5652 15.6544 17.1861 15.1949 17.4924C14.7353 17.7988 14.1145 17.6746 13.8081 17.2151C13.3987 16.601 12.5953 16.3403 12 16.3403C11.4048 16.3403 10.6014 16.601 10.192 17.2151Z" fill="black"/>
</svg>
