<svg width="24" height="24" viewBox="0 0 24 24" fill="none" xmlns="http://www.w3.org/2000/svg">
<path fill-rule="evenodd" clip-rule="evenodd" d="M2 12C2 6.47715 6.47715 2 12 2C17.5228 2 22 6.47715 22 12C22 17.5228 17.5228 22 12 22C6.47715 22 2 17.5228 2 12ZM12 4C7.58172 4 4 7.58172 4 12C4 16.4183 7.58172 20 12 20C16.4183 20 20 16.4183 20 12C20 7.58172 16.4183 4 12 4Z" fill="black"/>
<path d="M7.63 16.1745C7.63 15.0673 8.09041 14.0054 8.90994 13.2225C9.72948 12.4396 10.841 11.9998 12 11.9998C13.159 11.9998 14.2705 12.4396 15.0901 13.2225C15.9096 14.0054 16.37 15.0673 16.37 16.1745C16.37 17.2817 13.7066 17.7598 12 17.7598C10.2934 17.7598 7.63 17.2817 7.63 16.1745Z" fill="black"/>
<path d="M8.72717 8.20291L7.73422 7.20995L6.67356 8.27061L7.66651 9.26357L6.67363 10.2564L7.73428 11.3171L8.72716 10.3242L9.71987 11.3169L10.7805 10.2563L9.78783 9.26358L10.7806 8.27079L9.71997 7.21012L8.72717 8.20291Z" fill="black"/>
<path d="M15.4767 8.20291L16.4695 7.21012L17.5302 8.27079L16.5374 9.26358L17.5301 10.2563L16.4694 11.3169L15.4767 10.3242L14.4839 11.3171L13.4232 10.2564L14.4161 9.26357L13.4231 8.27061L14.4838 7.20995L15.4767 8.20291Z" fill="black"/>
</svg>
