<svg width="24" height="24" viewBox="0 0 24 24" fill="none" xmlns="http://www.w3.org/2000/svg">
<path d="M7.25 11C7.80228 11 8.25 10.5523 8.25 10C8.25 9.44771 7.80228 9 7.25 9C6.69772 9 6.25 9.44771 6.25 10C6.25 10.5523 6.69772 11 7.25 11Z" fill="black"/>
<path d="M18.25 10C18.25 10.5523 17.8023 11 17.25 11C16.6977 11 16.25 10.5523 16.25 10C16.25 9.44771 16.6977 9 17.25 9C17.8023 9 18.25 9.44771 18.25 10Z" fill="black"/>
<path fill-rule="evenodd" clip-rule="evenodd" d="M3 6.5C2.44772 6.5 2 6.94772 2 7.5V12.5C2 13.0523 2.44772 13.5 3 13.5H10.3C10.8523 13.5 11.3 13.0523 11.3 12.5V11H12.7V12.5C12.7 13.0523 13.1477 13.5 13.7 13.5H21C21.5523 13.5 22 13.0523 22 12.5V7.5C22 6.94772 21.5523 6.5 21 6.5H13.7C13.1477 6.5 12.7 6.94772 12.7 7.5V9H11.3V7.5C11.3 6.94772 10.8523 6.5 10.3 6.5H3ZM4 8.5V11.5H9.3V8.5H4ZM14.7 11.5H20V8.5H14.7V11.5Z" fill="black"/>
<path d="M7.33529 5.5C8.64843 4.55596 10.2593 4 12 4C13.7407 4 15.3516 4.55596 16.6647 5.5H19.5996C17.7655 3.35767 15.0413 2 12 2C8.95872 2 6.23452 3.35767 4.40043 5.5H7.33529Z" fill="black"/>
<path d="M4.3984 14.5H2.31506C3.42517 18.8131 7.34042 22 12 22C16.6596 22 20.5749 18.8131 21.685 14.5H19.6016C18.5518 17.6939 15.5452 20 12 20C8.4548 20 5.44819 17.6939 4.3984 14.5Z" fill="black"/>
<path d="M8.65442 15.0677C9.04582 14.678 9.67898 14.6795 10.0686 15.0709C10.235 15.238 10.5199 15.3943 10.9078 15.5062C11.2862 15.6155 11.6868 15.6604 12 15.6604C12.3132 15.6604 12.7139 15.6155 13.0923 15.5062C13.4801 15.3943 13.7651 15.238 13.9314 15.0709C14.3211 14.6795 14.9542 14.678 15.3456 15.0677C15.7371 15.4573 15.7385 16.0905 15.3488 16.4819C14.8552 16.9778 14.2161 17.2635 13.6469 17.4278C13.0683 17.5948 12.4789 17.6604 12 17.6604C11.5212 17.6604 10.9318 17.5948 10.3531 17.4278C9.78396 17.2635 9.14487 16.9778 8.65122 16.4819C8.26158 16.0905 8.26301 15.4573 8.65442 15.0677Z" fill="black"/>
</svg>
