<svg width="24" height="24" viewBox="0 0 24 24" fill="none" xmlns="http://www.w3.org/2000/svg">
<path d="M15.8687 3.59521C15.7885 3.75658 15.7168 3.90737 15.654 4.04735C14.5414 3.5354 13.3033 3.25 12 3.25C8.09254 3.25 4.78488 5.81065 3.66045 9.34447C3.46187 9.3899 3.26936 9.45108 3.08428 9.52659C4.16586 5.61913 7.74811 2.75 12 2.75C13.3823 2.75 14.6923 3.05274 15.8687 3.59521ZM15.6889 9.57958C15.6889 9.57961 15.6889 9.57964 15.6889 9.57967C15.5115 9.58589 15.3277 9.56774 15.1404 9.51754C15.3272 9.5676 15.5111 9.58579 15.6889 9.57958ZM4.0445 16.7226C4.19384 16.7407 4.34586 16.75 4.50001 16.75C4.54972 16.75 4.59924 16.749 4.64854 16.7471C6.20618 19.1545 8.91635 20.75 12 20.75C16.8325 20.75 20.75 16.8325 20.75 12C20.75 11.6802 20.7328 11.3642 20.6993 11.0529C20.8618 10.9704 21.0184 10.8756 21.1689 10.7693C21.2224 11.1717 21.25 11.5825 21.25 12C21.25 17.1086 17.1086 21.25 12 21.25C8.61743 21.25 5.65763 19.434 4.0445 16.7226ZM6.20449 13.6728L7.49837 14.2273C7.42168 14.3721 7.35309 14.5233 7.29278 14.6832L5.79704 14.0422L5.45108 13.8939L5.12545 14.0827C4.94213 14.1889 4.72934 14.25 4.5 14.25C3.80964 14.25 3.25 13.6904 3.25 13C3.25 12.3096 3.80964 11.75 4.5 11.75C5.18687 11.75 5.7444 12.3041 5.74996 12.9895L5.75393 13.4797L6.20449 13.6728ZM15.5289 16.4502H12.6913C12.9125 15.6236 12.4989 14.7384 11.6894 14.3915L9.97112 13.6551C10.712 13.1199 11.528 12.9502 12 12.9502C12.5683 12.9502 13.6355 13.1962 14.4697 14.0303C14.9209 14.4816 15.1676 14.8415 15.3182 15.2658C15.4275 15.5735 15.4968 15.9444 15.5289 16.4502ZM8.88458 14.8214L11.0985 15.7702C11.2254 15.8246 11.2842 15.9716 11.2298 16.0985C11.1754 16.2254 11.0284 16.2842 10.9015 16.2298L8.67362 15.275C8.6761 15.2679 8.6786 15.2608 8.68111 15.2538C8.73483 15.1037 8.80085 14.9623 8.88458 14.8214ZM19 8.25C18.6505 8.25 18.37 8.13431 18.1178 7.88217C17.8657 7.63003 17.75 7.34951 17.75 7C17.75 6.69056 17.8359 6.32479 18.048 5.89349C18.209 5.56616 18.5218 5.04943 19 4.3317C19.4782 5.04943 19.791 5.56616 19.952 5.89349C20.1641 6.32479 20.25 6.69056 20.25 7C20.25 7.34951 20.1343 7.63003 19.8822 7.88217C19.63 8.13431 19.3495 8.25 19 8.25Z" fill="black" stroke="black" stroke-width="1.5"/>
</svg>
