<svg width="24" height="24" viewBox="0 0 24 24" fill="none" xmlns="http://www.w3.org/2000/svg">
<path d="M7.21151 10.7372C7.3007 10.4696 7.49539 10.0549 7.76518 9.72324C8.04508 9.37909 8.29774 9.25 8.5 9.25C8.70225 9.25 8.95491 9.37909 9.23481 9.72324C9.5046 10.0549 9.6993 10.4696 9.78848 10.7372L11.2115 10.2628C11.0785 9.86373 10.8065 9.2784 10.3985 8.77676C10.0006 8.28758 9.36441 7.75 8.5 7.75C7.63558 7.75 6.99935 8.28758 6.60148 8.77676C6.19349 9.2784 5.92152 9.86373 5.78848 10.2628L7.21151 10.7372Z" fill="black"/>
<path d="M14.2115 10.7372C14.3007 10.4696 14.4954 10.0549 14.7652 9.72324C15.0451 9.37909 15.2977 9.25 15.5 9.25C15.7022 9.25 15.9549 9.37909 16.2348 9.72324C16.5046 10.0549 16.6993 10.4696 16.7885 10.7372L18.2115 10.2628C18.0785 9.86373 17.8065 9.2784 17.3985 8.77676C17.0006 8.28758 16.3644 7.75 15.5 7.75C14.6356 7.75 13.9994 8.28758 13.6015 8.77676C13.1935 9.2784 12.9215 9.86373 12.7885 10.2628L14.2115 10.7372Z" fill="black"/>
<path fill-rule="evenodd" clip-rule="evenodd" d="M17.25 12.75H6.75V13.5C6.75 14.1938 6.88736 14.8736 7.14699 15.5027C7.27872 15.8219 7.44195 16.1282 7.6347 16.4167C7.82442 16.7006 8.04272 16.9673 8.28769 17.2123C9.27226 18.1969 10.6076 18.75 12 18.75C13.3924 18.75 14.7277 18.1969 15.7123 17.2123C15.9573 16.9673 16.1756 16.7006 16.3653 16.4167C16.5581 16.1282 16.7213 15.8219 16.853 15.5027C17.1126 14.8736 17.25 14.1938 17.25 13.5V12.75ZM8.53356 14.9305C8.44308 14.7112 8.37339 14.4834 8.32575 14.25H15.6743C15.6266 14.4834 15.5569 14.7112 15.4664 14.9305C15.4216 15.0392 15.3716 15.1459 15.3166 15.25H8.68337C8.62842 15.1459 8.57844 15.0392 8.53356 14.9305Z" fill="black"/>
<path fill-rule="evenodd" clip-rule="evenodd" d="M12 2C6.47715 2 2 6.47715 2 12C2 17.5228 6.47715 22 12 22C17.5228 22 22 17.5228 22 12C22 6.47715 17.5228 2 12 2ZM4 12C4 7.58172 7.58172 4 12 4C16.4183 4 20 7.58172 20 12C20 16.4183 16.4183 20 12 20C7.58172 20 4 16.4183 4 12Z" fill="black"/>
</svg>
