<svg width="24" height="24" viewBox="0 0 24 24" fill="none" xmlns="http://www.w3.org/2000/svg">
<path fill-rule="evenodd" clip-rule="evenodd" d="M8.25 16.75L8.25 16C8.25 15.0054 8.64509 14.0516 9.34835 13.3483C10.0516 12.6451 11.0054 12.25 12 12.25C12.9946 12.25 13.9484 12.6451 14.6517 13.3483C15.3549 14.0516 15.75 15.0054 15.75 16V16.75H8.25ZM14.1213 15.25C14.0105 14.9366 13.8305 14.6486 13.591 14.409C13.169 13.9871 12.5967 13.75 12 13.75C11.4033 13.75 10.831 13.9871 10.409 14.409C10.1695 14.6486 9.9895 14.9366 9.87868 15.25H14.1213Z" fill="black"/>
<path d="M7.83541 7.82918C7.46493 7.64394 7.01442 7.79411 6.82918 8.16459C6.64394 8.53507 6.79411 8.98558 7.16459 9.17082L8.37574 9.77639C8.56 9.86852 8.56 10.1315 8.37574 10.2236L7.16459 10.8292C6.79411 11.0144 6.64394 11.4649 6.82918 11.8354C7.01442 12.2059 7.46493 12.3561 7.83541 12.1708L9.04656 11.5652C10.3364 10.9203 10.3364 9.07967 9.04656 8.43475L7.83541 7.82918Z" fill="black"/>
<path d="M16.1646 7.82918C16.5351 7.64394 16.9856 7.79411 17.1708 8.16459C17.3561 8.53507 17.2059 8.98558 16.8354 9.17082L15.6243 9.77639C15.44 9.86852 15.44 10.1315 15.6243 10.2236L16.8354 10.8292C17.2059 11.0144 17.3561 11.4649 17.1708 11.8354C16.9856 12.2059 16.5351 12.3561 16.1646 12.1708L14.9534 11.5652C13.6636 10.9203 13.6636 9.07967 14.9534 8.43475L16.1646 7.82918Z" fill="black"/>
<path fill-rule="evenodd" clip-rule="evenodd" d="M2 12C2 6.47715 6.47715 2 12 2C17.5228 2 22 6.47715 22 12C22 17.5228 17.5228 22 12 22C6.47715 22 2 17.5228 2 12ZM12 4C7.58172 4 4 7.58172 4 12C4 16.4183 7.58172 20 12 20C16.4183 20 20 16.4183 20 12C20 7.58172 16.4183 4 12 4Z" fill="black"/>
<path d="M10.5 5.25C10.5 5.94036 9.94036 6.5 9.25 6.5C8.55964 6.5 8 5.94036 8 5.25C8 4.55964 8.55964 4 9.25 4C9.94036 4 10.5 4.55964 10.5 5.25Z" fill="black"/>
<path d="M20.5 15.25C20.5 15.9404 19.9404 16.5 19.25 16.5C18.5596 16.5 18 15.9404 18 15.25C18 14.5596 18.5596 14 19.25 14C19.9404 14 20.5 14.5596 20.5 15.25Z" fill="black"/>
<path d="M11 21C11.5523 21 12 20.5523 12 20C12 19.4477 11.5523 19 11 19C10.4477 19 10 19.4477 10 20C10 20.5523 10.4477 21 11 21Z" fill="black"/>
<path d="M6.5 15.25C6.5 15.9404 5.94036 16.5 5.25 16.5C4.55964 16.5 4 15.9404 4 15.25C4 14.5596 4.55964 14 5.25 14C5.94036 14 6.5 14.5596 6.5 15.25Z" fill="black"/>
<path d="M14 8C14.5523 8 15 7.55228 15 7C15 6.44772 14.5523 6 14 6C13.4477 6 13 6.44772 13 7C13 7.55228 13.4477 8 14 8Z" fill="black"/>
</svg>
