<svg width="24" height="24" viewBox="0 0 24 24" fill="none" xmlns="http://www.w3.org/2000/svg">
<path d="M7.21151 10.7372C7.3007 10.4696 7.49539 10.0549 7.76518 9.72324C8.04508 9.37909 8.29774 9.25 8.5 9.25C8.70225 9.25 8.95491 9.37909 9.23481 9.72324C9.5046 10.0549 9.6993 10.4696 9.78848 10.7372L11.2115 10.2628C11.0785 9.86373 10.8065 9.2784 10.3985 8.77676C10.0006 8.28758 9.36441 7.75 8.5 7.75C7.63558 7.75 6.99935 8.28758 6.60148 8.77676C6.19349 9.2784 5.92152 9.86373 5.78848 10.2628L7.21151 10.7372Z" fill="black"/>
<path d="M14.2115 10.7372C14.3007 10.4696 14.4954 10.0549 14.7652 9.72324C15.0451 9.37909 15.2977 9.25 15.5 9.25C15.7022 9.25 15.9549 9.37909 16.2348 9.72324C16.5046 10.0549 16.6993 10.4696 16.7885 10.7372L18.2115 10.2628C18.0785 9.86373 17.8065 9.2784 17.3985 8.77676C17.0006 8.28758 16.3644 7.75 15.5 7.75C14.6356 7.75 13.9994 8.28758 13.6015 8.77676C13.1935 9.2784 12.9215 9.86373 12.7885 10.2628L14.2115 10.7372Z" fill="black"/>
<path d="M8.83207 13.4454C8.52571 12.9859 7.90484 12.8617 7.44531 13.1681C6.98579 13.4744 6.86161 14.0953 7.16796 14.5548C8.41858 16.4307 10.6032 17.0001 12 17.0001C13.3968 17.0001 15.5814 16.4307 16.8321 14.5548C17.1384 14.0953 17.0142 13.4744 16.5547 13.1681C16.0952 12.8617 15.4743 12.9859 15.168 13.4454C14.4186 14.5695 13.0032 15.0001 12 15.0001C10.9968 15.0001 9.58144 14.5695 8.83207 13.4454Z" fill="black"/>
<path fill-rule="evenodd" clip-rule="evenodd" d="M2 12C2 6.47715 6.47715 2 12 2C17.5228 2 22 6.47715 22 12C22 17.5228 17.5228 22 12 22C6.47715 22 2 17.5228 2 12ZM12 4C7.58172 4 4 7.58172 4 12C4 16.4183 7.58172 20 12 20C16.4183 20 20 16.4183 20 12C20 7.58172 16.4183 4 12 4Z" fill="black"/>
</svg>
