<svg width="24" height="24" viewBox="0 0 24 24" fill="none" xmlns="http://www.w3.org/2000/svg">
<path fill-rule="evenodd" clip-rule="evenodd" d="M2 12C2 6.47715 6.47715 2 12 2C17.5228 2 22 6.47715 22 12C22 17.5228 17.5228 22 12 22C6.47715 22 2 17.5228 2 12ZM12 4C7.58172 4 4 7.58172 4 12C4 16.4183 7.58172 20 12 20C16.4183 20 20 16.4183 20 12C20 7.58172 16.4183 4 12 4Z" fill="black"/>
<path d="M9.38652 8.25248C9.57501 7.98373 9.67395 7.69373 9.7041 7.53961L11.1762 7.82758C11.1093 8.16974 10.9338 8.65868 10.6146 9.11381C10.291 9.57517 9.78666 10.046 9.05512 10.242C8.32357 10.438 7.65142 10.2824 7.14051 10.0447C6.63648 9.81014 6.24005 9.47444 6.011 9.21159L7.14189 8.22615C7.24506 8.34455 7.47574 8.54623 7.77336 8.68472C8.06409 8.82001 8.36811 8.87315 8.66689 8.7931C8.96567 8.71304 9.20238 8.51501 9.38652 8.25248Z" fill="black"/>
<path d="M13.3868 9.11381C13.0676 8.65868 12.8921 8.16974 12.8252 7.82758L14.2973 7.53961C14.3274 7.69373 14.4264 7.98373 14.6149 8.25248C14.799 8.51501 15.0357 8.71304 15.3345 8.7931C15.6333 8.87315 15.9373 8.82001 16.228 8.68472C16.5256 8.54623 16.7563 8.34455 16.8595 8.22615L17.9904 9.21159C17.7613 9.47444 17.3649 9.81014 16.8609 10.0447C16.35 10.2824 15.6778 10.438 14.9463 10.242C14.2147 10.046 13.7104 9.57517 13.3868 9.11381Z" fill="black"/>
<path d="M7.25 16.7C7.25 15.2678 7.6092 14.0129 8.5 13.0002C9.3908 11.9875 10.7402 11.3 12 11.3C13.2598 11.3 14.6092 11.9875 15.5 13.0002C16.3908 14.0129 16.75 15.2678 16.75 16.7H7.25Z" fill="black"/>
</svg>
