<svg width="24" height="24" viewBox="0 0 24 24" fill="none" xmlns="http://www.w3.org/2000/svg">
<path d="M19.9213 7.37521C20.7535 8.81664 21.1538 10.3883 21.1621 11.9413C20.9938 11.6474 20.8077 11.3308 20.6043 10.992C20.4711 9.83827 20.1047 8.69291 19.4883 7.62521C17.0721 3.44014 11.7206 2.00624 7.53557 4.42248C4.40476 6.23006 2.81493 9.6792 3.22203 13.0527C3.07931 13.2913 2.94576 13.5181 2.82154 13.7329C2.10491 9.97462 3.78519 6.01042 7.28558 3.98947C11.7098 1.43515 17.367 2.951 19.9213 7.37521ZM16.881 19.2019C17.0137 19.32 17.1523 19.4266 17.2967 19.5212C17.0536 19.6948 16.7999 19.8584 16.5356 20.0109C13.6704 21.6651 10.2873 21.613 7.56383 20.1668C7.65692 20.027 7.73996 19.8822 7.8128 19.7325C10.3843 21.0922 13.5784 21.1409 16.2856 19.5779C16.4906 19.4595 16.6891 19.334 16.881 19.2019ZM3.71791 16.9379C3.86627 16.625 4.15059 16.1364 4.58262 15.4613C5.01466 16.1364 5.29897 16.625 5.44733 16.9379C5.64859 17.3623 5.73092 17.7239 5.73092 18.0314C5.73092 18.381 5.61874 18.6571 5.38341 18.9012L5.92329 19.4218L5.38341 18.9012C5.14889 19.1444 4.89515 19.25 4.58262 19.25C4.2701 19.25 4.01635 19.1444 3.78183 18.9012L3.24195 19.4218L3.78183 18.9012C3.5465 18.6571 3.43433 18.381 3.43433 18.0314C3.43433 17.7239 3.51666 17.3623 3.71791 16.9379L3.04026 16.6165L3.71791 16.9379ZM19.1017 17.4625C18.7892 17.4625 18.5354 17.3568 18.3009 17.1136C18.0656 16.8695 17.9534 16.5934 17.9534 16.2438C17.9534 15.9363 18.0357 15.5747 18.237 15.1503C18.3853 14.8374 18.6697 14.3488 19.1017 13.6737C19.5337 14.3488 19.818 14.8374 19.9664 15.1503C20.1677 15.5747 20.25 15.9363 20.25 16.2438C20.25 16.5934 20.1378 16.8695 19.9025 17.1136C19.668 17.3568 19.4142 17.4625 19.1017 17.4625ZM8.5203 16C8.55212 15.4816 8.62168 15.1093 8.73111 14.8036C8.88044 14.3864 9.12494 14.0355 9.58032 13.5801C10.4144 12.746 11.4817 12.5 12.05 12.5C12.6183 12.5 13.6855 12.746 14.5197 13.5801C14.9709 14.0314 15.2176 14.3913 15.3682 14.8156C15.4775 15.1233 15.5468 15.4942 15.5789 16H8.5203Z" fill="black" stroke="black" stroke-width="1.5"/>
</svg>
