<svg width="24" height="24" viewBox="0 0 24 24" fill="none" xmlns="http://www.w3.org/2000/svg">
<path d="M8.5 11.2002C9.32843 11.2002 10 10.5286 10 9.7002C10 8.87177 9.32843 8.2002 8.5 8.2002C7.67157 8.2002 7 8.87177 7 9.7002C7 10.5286 7.67157 11.2002 8.5 11.2002Z" fill="black"/>
<path d="M17 9.7002C17 10.5286 16.3284 11.2002 15.5 11.2002C14.6716 11.2002 14 10.5286 14 9.7002C14 8.87177 14.6716 8.2002 15.5 8.2002C16.3284 8.2002 17 8.87177 17 9.7002Z" fill="black"/>
<path d="M9 13C7.89543 13 7 13.8954 7 15C7 15.7403 7.4022 16.3866 8 16.7324V14.5C8 14.2239 8.22386 14 8.5 14H15.5C15.7761 14 16 14.2239 16 14.5V16.7324C16.5978 16.3866 17 15.7403 17 15C17 13.8954 16.1046 13 15 13H9Z" fill="black"/>
<path d="M4 12C4 7.58172 7.58172 4 12 4C16.4183 4 20 7.58172 20 12C20 14.5264 18.8289 16.7793 17 18.2454V19C17 19.7335 16.7681 20.4171 16.3553 21.0043C19.6962 19.3853 22 15.9617 22 12C22 6.47715 17.5228 2 12 2C6.47715 2 2 6.47715 2 12C2 15.9617 4.30376 19.3853 7.64469 21.0043C7.23189 20.4171 7 19.7335 7 19V18.2454C5.17108 16.7793 4 14.5264 4 12Z" fill="black"/>
<path d="M9.08658 19.4529C9.35173 20.1745 10.2434 21 12 21C13.7566 21 14.6483 20.1745 14.9134 19.4529C14.0106 19.8061 13.0279 20 12 20C10.9721 20 9.98939 19.8061 9.08658 19.4529Z" fill="black"/>
<path fill-rule="evenodd" clip-rule="evenodd" d="M16 14V18.625C16 20.3125 14.5 22 12 22C9.5 22 8 20.3125 8 18.625V14C8 13.4477 8.44772 13 9 13H15C15.5523 13 16 13.4477 16 14ZM12 17.9375C11.4477 17.9375 11 17.4898 11 16.9375V15H10V18.625C10 19.0551 10.4453 20 12 20C13.5547 20 14 19.0551 14 18.625V15H13V16.9375C13 17.4898 12.5523 17.9375 12 17.9375Z" fill="black"/>
</svg>
