<svg width="24" height="24" viewBox="0 0 24 24" fill="none" xmlns="http://www.w3.org/2000/svg">
<path fill-rule="evenodd" clip-rule="evenodd" d="M2 12C2 6.47715 6.47715 2 12 2C17.5228 2 22 6.47715 22 12C22 17.5228 17.5228 22 12 22C6.47715 22 2 17.5228 2 12ZM12 4C7.58172 4 4 7.58172 4 12C4 16.4183 7.58172 20 12 20C16.4183 20 20 16.4183 20 12C20 7.58172 16.4183 4 12 4Z" fill="black"/>
<path d="M17 9.7002C17 10.5286 16.3284 11.2002 15.5 11.2002C14.6716 11.2002 14 10.5286 14 9.7002C14 8.87177 14.6716 8.2002 15.5 8.2002C16.3284 8.2002 17 8.87177 17 9.7002Z" fill="black"/>
<path d="M9.6054 9.42533C9.7721 9.18764 9.85829 8.93081 9.8823 8.80802L11.8451 9.19198C11.772 9.56548 11.5838 10.0876 11.2428 10.5738C10.896 11.0683 10.347 11.5845 9.54337 11.7999C8.73971 12.0152 8.0062 11.8426 7.45859 11.5878C6.92016 11.3372 6.4961 10.9792 6.24607 10.6922L7.75393 9.37832C7.83612 9.47264 8.03917 9.65198 8.30239 9.77447C8.55643 9.89268 8.79908 9.92875 9.02574 9.86802C9.25239 9.80729 9.4445 9.65472 9.6054 9.42533Z" fill="black"/>
<path d="M9.99996 15.25C9.44845 15.25 8.97714 15.4371 8.70712 15.7071C8.3166 16.0976 7.68343 16.0976 7.2929 15.7071C6.90237 15.3166 6.90236 14.6834 7.29288 14.2929C8.02286 13.5629 9.05152 13.25 10 13.25C10.9485 13.25 11.9771 13.563 12.7071 14.2929C13.0481 14.6339 13.6207 14.9369 14.2426 15.0924C14.8943 15.2553 15.3634 15.2003 15.5528 15.1056C16.0468 14.8586 16.6474 15.0588 16.8944 15.5528C17.1414 16.0468 16.9412 16.6475 16.4472 16.8945C15.6366 17.2998 14.6058 17.2447 13.7575 17.0326C12.8794 16.8131 11.9519 16.3661 11.2929 15.7072C11.0229 15.4371 10.5515 15.25 9.99996 15.25Z" fill="black"/>
</svg>
