<svg width="24" height="24" viewBox="0 0 24 24" fill="none" xmlns="http://www.w3.org/2000/svg">
<path fill-rule="evenodd" clip-rule="evenodd" d="M18.7909 3.74361L14.5761 4.4617C14.0522 3.58616 13.0945 3 12 3C10.5481 3 9.33706 4.03143 9.0597 5.40155L3.87315 6.28519C3.32871 6.37795 2.96255 6.8945 3.05531 7.43894C3.14806 7.98338 3.66461 8.34954 4.20905 8.25678L4.4352 8.21825L2 13.4945V13.7142C2 15.8735 3.86194 17.4999 6 17.4999C8.13806 17.4999 10 15.8735 10 13.7142V13.4945L7.33665 7.72393L9.33715 7.3831C9.68579 8.05296 10.2798 8.57473 11 8.82929V18.9999H4V20.9999H20V18.9999H13V8.82929C14.037 8.46277 14.8123 7.54226 14.9704 6.42335L16.7079 6.12732L14 11.9945V12.2142C14 14.3735 15.8619 15.9999 18 15.9999C20.1381 15.9999 22 14.3735 22 12.2142V11.9945L19.1037 5.71915L19.1268 5.7152C19.6713 5.62245 20.0374 5.1059 19.9447 4.56146C19.8519 4.01702 19.3354 3.65086 18.7909 3.74361ZM18 8.10046L16.5629 11.2142H19.4371L18 8.10046ZM16.3462 13.2142C16.6943 13.6757 17.2816 13.9999 18 13.9999C18.7184 13.9999 19.3057 13.6757 19.6538 13.2142H16.3462ZM4.56291 12.7142L6 9.60046L7.43709 12.7142H4.56291ZM6 15.4999C5.28155 15.4999 4.69429 15.1757 4.34619 14.7142H7.65381C7.30571 15.1757 6.71845 15.4999 6 15.4999ZM12 7C12.5523 7 13 6.55228 13 6C13 5.44772 12.5523 5 12 5C11.4477 5 11 5.44772 11 6C11 6.55228 11.4477 7 12 7Z" fill="black"/>
</svg>
