<svg width="24" height="24" viewBox="0 0 24 24" fill="none" xmlns="http://www.w3.org/2000/svg">
<path fill-rule="evenodd" clip-rule="evenodd" d="M2 2V22H4L4 13H6C6 13.5523 6.44772 14 7 14H13C13.5523 14 14 13.5523 14 13H15C15.5523 13 16 13.4477 16 14V16H22V13C22 9.68629 19.3137 7 16 7H14C14 6.44772 13.5523 6 13 6H11V4H13C13.5523 4 14 3.55228 14 3C14 2.44772 13.5523 2 13 2H7C6.44772 2 6 2.44772 6 3C6 3.55228 6.44772 4 7 4H9V6H7C6.44772 6 6 6.44772 6 7H4V2H2ZM6 9H4V11H6V9ZM14 9V11H15C16.6569 11 18 12.3431 18 14H20V13C20 10.7909 18.2091 9 16 9H14ZM12 8H8V12H12V8Z" fill="black"/>
<path d="M19 16.5364L19.73 17.3164L19.7313 17.3178L19.733 17.3196L19.7375 17.3244L19.7506 17.3388L19.7791 17.3704L19.7926 17.3856C19.827 17.4246 19.8739 17.479 19.9292 17.5464C20.039 17.6802 20.1863 17.8705 20.3352 18.0967C20.6029 18.5032 21 19.207 21 19.9695C21 21.0625 20.1325 21.9998 19 21.9998C17.8675 21.9998 17 21.0625 17 19.9695C17 19.207 17.3971 18.5032 17.6648 18.0967C17.8137 17.8705 17.961 17.6802 18.0708 17.5464C18.1261 17.479 18.173 17.4246 18.2074 17.3856C18.2246 17.3661 18.2388 17.3504 18.2494 17.3388L18.2625 17.3244L18.267 17.3196L18.2687 17.3178L19 16.5364Z" fill="black"/>
</svg>
