<svg width="48" height="48" viewBox="0 0 48 48" fill="none" xmlns="http://www.w3.org/2000/svg">
<path fill-rule="evenodd" clip-rule="evenodd" d="M35.1108 6L41.9966 12.8856L39.5852 15.2969C39.9402 15.6579 40.1592 16.153 40.1592 16.6992C40.1592 17.8038 39.2637 18.6992 38.1592 18.6992C37.6129 18.6992 37.1178 18.4802 36.7569 18.1252L36.0619 18.8202C34.3038 20.5782 31.5357 20.7108 29.6253 19.2178L14.6293 34.2138C15.1534 34.5538 15.5 35.1434 15.5 35.8138C15.5 36.4906 15.1468 37.085 14.6145 37.4234C14.8219 37.8454 14.9384 38.32 14.9384 38.8218C14.9384 40.5771 13.5129 42 11.7544 42C10.4865 42 9.39173 41.2604 8.8795 40.1898C8.5954 40.357 8.26415 40.453 7.91045 40.453C6.85534 40.453 6 39.5992 6 38.546C6 38.2956 6.04838 38.0564 6.13631 37.8373C6.06267 37.5996 6.02301 37.347 6.02301 37.0851C6.02301 35.9082 6.82419 34.918 7.91187 34.6283C7.91092 34.5998 7.91045 34.5713 7.91045 34.5426C7.91045 33.1383 9.0509 32 10.4577 32C11.4213 32 12.26 32.5341 12.6928 33.3219L28.33 17.6847C27.337 15.8407 27.6191 13.4916 29.1761 11.9346L30.1676 10.9431C29.6421 10.5827 29.2974 9.97784 29.2974 9.29248C29.2974 8.18791 30.1928 7.29248 31.2974 7.29248C31.9827 7.29248 32.5876 7.63723 32.948 8.16278L35.1108 6ZM11.5156 34.6839C11.3908 34.2598 10.9981 33.9502 10.5329 33.9502C9.96738 33.9502 9.50892 34.4078 9.50892 34.9723C9.50892 35.5368 9.96738 35.9944 10.5329 35.9944C11.0067 35.9944 11.4054 35.6732 11.5222 35.237C11.4682 35.0571 11.466 34.8649 11.5156 34.6839ZM33.6937 11.4747C34.0843 11.0842 34.7174 11.0842 35.108 11.4747L36.5222 12.8889C36.9127 13.2794 36.9127 13.9125 36.5222 14.3031L35.8151 15.0102L32.9866 12.1818L33.6937 11.4747ZM11.774 39.8445C12.3395 39.8445 12.798 39.3869 12.798 38.8224C12.798 38.2579 12.3395 37.8003 11.774 37.8003C11.2084 37.8003 10.75 38.2579 10.75 38.8224C10.75 39.3869 11.2084 39.8445 11.774 39.8445Z" fill="black"/>
<path d="M38.8209 6.88093C38.4304 6.49041 37.7972 6.49041 37.4067 6.88093L36.6995 7.58802L40.4042 11.2926L41.1113 10.5855C41.5018 10.195 41.5018 9.5618 41.1113 9.17128L38.8209 6.88093Z" fill="black"/>
</svg>
