<svg width="24" height="24" viewBox="0 0 24 24" fill="none" xmlns="http://www.w3.org/2000/svg">
<path fill-rule="evenodd" clip-rule="evenodd" d="M14 8.5C14 6.567 15.567 5 17.5 5C19.433 5 21 6.567 21 8.5C21 10.433 19.433 12 17.5 12C15.567 12 14 10.433 14 8.5ZM17.5 7C16.6716 7 16 7.67157 16 8.5C16 9.32843 16.6716 10 17.5 10C18.3284 10 19 9.32843 19 8.5C19 7.67157 18.3284 7 17.5 7Z" fill="black"/>
<path fill-rule="evenodd" clip-rule="evenodd" d="M5.38497 14.3116L5.81404 13.916C6.81654 12.9916 8.36076 12.9916 9.36325 13.916C10.4875 14.9527 10.4875 16.7282 9.36326 17.765L8.33911 18.7093C7.77264 19.2317 7.03663 19.5001 6.2998 19.5001H4.59423C3.16148 19.5001 2 18.3386 2 16.9059C2 15.4731 3.16148 14.3116 4.59423 14.3116H5.38497ZM6.2998 17.5001C6.55617 17.5001 6.80204 17.4062 6.98332 17.239L8.00746 16.2946C8.27278 16.05 8.27278 15.6309 8.00746 15.3863C7.77087 15.1681 7.40643 15.1681 7.16984 15.3863L6.16634 16.3116H4.59423C4.26605 16.3116 4 16.5777 4 16.9059C4 17.234 4.26605 17.5001 4.59423 17.5001H6.2998Z" fill="black"/>
<path fill-rule="evenodd" clip-rule="evenodd" d="M16.0547 12.8469C15.0899 12.2038 14.0063 12.0331 13.2239 12.0047C12.8243 11.9901 12.4799 12.0118 12.2328 12.0375C12.1087 12.0503 12.0077 12.0643 11.9348 12.0757C11.8984 12.0814 11.8688 12.0864 11.8468 12.0903L11.8195 12.0954L11.8102 12.0972L11.8067 12.0978L11.8052 12.0981L11.8039 12.0984L11 12.2591V20H12C13.5286 20 14.591 19.6866 15.265 19.379C15.6315 19.7146 16.2141 20.079 17 20.079H19.5C20.2407 20.079 20.8974 19.8186 21.362 19.312C21.8136 18.8196 22 18.1862 22 17.579C22 16.1993 20.844 15.079 19.5 15.079C19.2849 15.079 19.1064 15.0838 18.9591 15.0882L18.9124 15.0896C18.7844 15.0934 18.6961 15.0961 18.6167 15.0957C18.5217 15.0953 18.4633 15.0906 18.4105 15.0791C18.164 14.919 18.0206 14.7432 17.7487 14.4097L17.7122 14.365C17.3668 13.9417 16.9195 13.4234 16.0547 12.8469ZM19.888 17.9603C19.8526 17.9989 19.7593 18.079 19.5 18.079H17C16.8671 18.079 16.741 18.0214 16.6078 17.8967C16.5425 17.8355 16.4882 17.769 16.4477 17.7121C16.4084 17.657 16.3882 17.6194 16.3882 17.6194C16.1173 17.1121 15.3832 16.8626 14.8402 17.3275C14.7994 17.3604 14.2512 17.7811 13 17.9399V14.0001C13.049 14.0004 13.0994 14.0015 13.1511 14.0034C13.7437 14.0249 14.4101 14.1543 14.9453 14.511C15.5805 14.9344 15.8832 15.2871 16.1628 15.6296L16.2303 15.7128C16.514 16.0633 16.8674 16.4998 17.499 16.8654L17.5819 16.9134L17.6725 16.9448C18.0206 17.0655 18.3108 17.0944 18.6078 17.0957C18.7245 17.0962 18.8505 17.0924 18.9711 17.0887L19.0189 17.0873C19.1602 17.083 19.3151 17.079 19.5 17.079C19.756 17.079 20 17.3203 20 17.579C20 17.7909 19.9364 17.9075 19.888 17.9603Z" fill="black"/>
</svg>
