<svg width="24" height="24" viewBox="0 0 24 24" fill="none" xmlns="http://www.w3.org/2000/svg">
<path fill-rule="evenodd" clip-rule="evenodd" d="M12 8C13.6569 8 15 6.65685 15 5C15 3.34315 13.6569 2 12 2C10.3432 2 9.00003 3.34315 9.00003 5C9.00003 6.65685 10.3432 8 12 8ZM12 6C12.5523 6 13 5.55228 13 5C13 4.44772 12.5523 4 12 4C11.4477 4 11 4.44772 11 5C11 5.55228 11.4477 6 12 6Z" fill="black"/>
<path fill-rule="evenodd" clip-rule="evenodd" d="M15.1962 7.98416C15.1325 8.05426 15.0671 8.12174 15 8.18662C13.3307 9.80189 10.6693 9.80189 9.00003 8.18662C8.93298 8.12174 8.86753 8.05425 8.80382 7.98416L7.62911 6.69199C7.40681 6.44746 7.00003 6.60473 7.00003 6.9352V8.9917C6.99999 8.99693 6.99999 9.00215 7.00003 9.00737V17C7.00003 19.7614 9.23861 22 12 22C13.7608 22 15.309 21.0899 16.1998 19.7144C16.33 19.5869 16.4254 19.4241 16.4707 19.2415C16.8094 18.5673 17 17.8059 17 17V6.9352C17 6.60473 16.5932 6.44746 16.3709 6.69199L15.1962 7.98416ZM15 15.1804V10.6434C14.0422 11.16 12.9781 11.4114 11.9168 11.3975C12.2874 11.7921 12.6632 12.2061 13.0312 12.6313C13.7358 13.4455 14.4257 14.3161 15 15.1804ZM9.00003 11.2827V17C9.00003 18.6569 10.3432 20 12 20C13.0259 20 13.9316 19.485 14.4725 18.6995C14.3921 18.2247 14.1327 17.589 13.6675 16.8136C13.1151 15.8929 12.3495 14.8999 11.5189 13.9401C10.6649 12.9535 9.7644 12.0271 9.00003 11.2827Z" fill="black"/>
</svg>
