<svg width="24" height="24" viewBox="0 0 24 24" fill="none" xmlns="http://www.w3.org/2000/svg">
<path d="M12.5 14.1253H15.5C16.0523 14.1253 16.5 14.573 16.5 15.1253C16.5 15.6775 16.0523 16.1253 15.5 16.1253H11.5V16.8753H13.5C14.0523 16.8753 14.5 17.323 14.5 17.8753C14.5 18.4275 14.0523 18.8753 13.5 18.8753H8C4.68629 18.8753 2 16.189 2 12.8753C2 10.8779 3.17114 9.15412 4.86417 8.35309C4.9357 8.29425 5.01666 8.24443 5.10608 8.20611L12.1061 5.20611C12.6137 4.98856 13.2016 5.22371 13.4191 5.73134C13.6367 6.23897 13.4015 6.82685 12.8939 7.0444L11.6431 7.58046C11.6215 7.59609 11.5983 7.61018 11.5736 7.62252C11.2775 7.77057 11.2144 8.01723 11.2672 8.19672C11.3155 8.36093 11.5158 8.62117 12.0864 8.62526H21C21.5523 8.62526 22 9.07297 22 9.62526C22 10.1775 21.5523 10.6253 21 10.6253H20.9431C20.9799 10.5471 21 10.4629 21 10.3752C21 9.96103 20.5523 9.62524 20 9.62524C19.4477 9.62524 19 9.96103 19 10.3752C19 10.4629 19.0201 10.5471 19.0569 10.6253H12.5V11.3753H16C16.5523 11.3753 17 11.823 17 12.3753C17 12.9275 16.5523 13.3753 16 13.3753H12.5V14.1253Z" fill="black"/>
<path d="M20 11.897L19.8235 12.0731L19.822 12.0746L19.8187 12.0779L19.807 12.0898C19.797 12.1 19.7827 12.1149 19.7647 12.1339C19.7287 12.172 19.6778 12.227 19.6169 12.2962C19.4956 12.4342 19.3334 12.63 19.1707 12.8606C18.8543 13.3091 18.5 13.939 18.5 14.5481C18.5 15.3592 19.1809 16.0001 20 16.0001C20.8191 16.0001 21.5 15.3592 21.5 14.5481C21.5 13.939 21.1457 13.3091 20.8293 12.8606C20.6666 12.63 20.5044 12.4342 20.3831 12.2962C20.3222 12.227 20.2713 12.172 20.2353 12.1339C20.2173 12.1149 20.203 12.1 20.193 12.0898L20.1813 12.0779L20.178 12.0746L20.1765 12.0731L20 11.897Z" fill="black"/>
</svg>
