<svg width="24" height="24" viewBox="0 0 24 24" fill="none" xmlns="http://www.w3.org/2000/svg">
<path d="M12 11C14.2091 11 16 9.20914 16 7C16 4.79086 14.2091 3 12 3C9.79086 3 8 4.79086 8 7C8 9.20914 9.79086 11 12 11Z" fill="black"/>
<path fill-rule="evenodd" clip-rule="evenodd" d="M7.77709 12C5.13877 12 3 14.1388 3 16.7771V21H21V16.7771C21 14.1388 18.8612 12 16.2229 12C15.9211 12 15.6234 12.0703 15.3534 12.2053L15.242 12.261C14.27 12.747 13.1982 13 12.1115 13H11.8885C10.8018 13 9.73004 12.747 8.75805 12.261L8.64659 12.2053C8.37662 12.0703 8.07893 12 7.77709 12ZM6.7946 14.1788C5.74576 14.5756 5 15.5893 5 16.7771V19H19V16.7771C19 15.4175 18.023 14.2861 16.7327 14.0467C16.7987 14.3936 16.8119 14.733 16.7905 15.0506L16.7771 15.25H17.0436C17.3389 15.25 17.6075 15.421 17.7323 15.6886L18.423 17.1686C18.6581 17.6725 18.2903 18.25 17.7343 18.25H16.65V16.85C16.65 16.7948 16.6052 16.75 16.55 16.75H15.5C15.4448 16.75 15.4 16.7948 15.4 16.85V18.25H14.2657C13.7097 18.25 13.3419 17.6725 13.577 17.1686L14.2677 15.6886C14.3925 15.421 14.6611 15.25 14.9564 15.25H15.2736L15.2939 14.9496C15.3056 14.777 15.3012 14.6012 15.2757 14.4254C14.2664 14.8045 13.1947 15 12.1115 15H11.8885C10.6541 15 9.43473 14.7461 8.30554 14.256C8.24545 14.5226 8.23771 14.7916 8.26488 15.0517C8.27897 15.1866 8.30227 15.3162 8.3314 15.438C8.94955 15.6233 9.39999 16.1965 9.39999 16.875C9.39999 17.7034 8.72842 18.375 7.89999 18.375C7.07157 18.375 6.39999 17.7034 6.39999 16.875C6.39999 16.4446 6.58126 16.0565 6.87163 15.783C6.8281 15.6003 6.79389 15.4076 6.77299 15.2075C6.73934 14.8853 6.73975 14.5371 6.7946 14.1788Z" fill="black"/>
</svg>
