<svg width="24" height="24" viewBox="0 0 24 24" fill="none" xmlns="http://www.w3.org/2000/svg">
<path d="M16 7C16 9.20914 14.2091 11 12 11C9.79086 11 8 9.20914 8 7C8 4.79086 9.79086 3 12 3C14.2091 3 16 4.79086 16 7Z" fill="black"/>
<path d="M15.25 18.5V17.5H14.25V16H15.25V15H16.75V16H17.75V17.5H16.75V18.5H15.25Z" fill="black"/>
<path fill-rule="evenodd" clip-rule="evenodd" d="M3 16.7771C3 14.1388 5.13877 12 7.77709 12C8.07893 12 8.37662 12.0703 8.64659 12.2053L8.75805 12.261C9.73004 12.747 10.8018 13 11.8885 13H12.1115C13.1982 13 14.27 12.747 15.242 12.261L15.3534 12.2053C15.6234 12.0703 15.9211 12 16.2229 12C18.8612 12 21 14.1388 21 16.7771V21H3V16.7771ZM7.76399 14C6.23627 14.0071 5 15.2477 5 16.7771V19H19V16.7771C19 15.2477 17.7637 14.0071 16.236 14L16.1364 14.0498C14.8867 14.6747 13.5087 15 12.1115 15H11.8885C10.4913 15 9.11332 14.6747 7.86362 14.0498L7.76399 14Z" fill="black"/>
</svg>
