<svg width="24" height="24" viewBox="0 0 24 24" fill="none" xmlns="http://www.w3.org/2000/svg">
<path d="M12 7C13.3807 7 14.5 5.88071 14.5 4.5C14.5 3.11929 13.3807 2 12 2C10.6193 2 9.50001 3.11929 9.50001 4.5C9.50001 5.88071 10.6193 7 12 7Z" fill="black"/>
<path fill-rule="evenodd" clip-rule="evenodd" d="M8.68865 9.82303C8.69429 9.81294 8.69965 9.80359 8.70472 9.79495C8.81176 9.79546 8.90978 9.79668 9.00001 9.79852V13.9643L8.50255 20.9288C8.4632 21.4796 8.87788 21.9581 9.42876 21.9975C9.97964 22.0368 10.4581 21.6221 10.4975 21.0712L10.8597 16H13.1403L13.5025 21.0712C13.5419 21.6221 14.0204 22.0368 14.5713 21.9975C15.1221 21.9581 15.5368 21.4796 15.4975 20.9288L15 13.9643V9.79852C15.0902 9.79668 15.1883 9.79546 15.2953 9.79495C15.3004 9.80359 15.3057 9.81294 15.3114 9.82303C15.4423 10.0573 15.5776 10.467 15.6919 11.0332C15.9159 12.1423 16 13.5383 16 14.4999C16 15.0522 16.4477 15.4999 17 15.4999C17.5523 15.4999 18 15.0522 18 14.4999C18 13.4615 17.9118 11.9222 17.6524 10.6374C17.525 10.0066 17.3408 9.3546 17.0571 8.84719C16.8035 8.39349 16.2606 7.71629 15.358 7.79474C14.3871 7.79666 13.9942 7.85143 13.5992 7.90715L13.5904 7.90839C13.272 7.95332 12.9411 8 12 8C11.0589 8 10.728 7.95332 10.4096 7.90839L10.4008 7.90715C10.0058 7.85143 9.61287 7.79666 8.64202 7.79474C7.73943 7.71629 7.19648 8.39349 6.94287 8.84719C6.65924 9.3546 6.47501 10.0066 6.34765 10.6374C6.0882 11.9222 6 13.4615 6 14.4999C6 15.0522 6.44772 15.4999 7 15.4999C7.55228 15.4999 8 15.0522 8 14.4999C8 13.5383 8.08412 12.1423 8.30808 11.0332C8.42243 10.467 8.55767 10.0573 8.68865 9.82303ZM8.76993 9.70094C8.76993 9.70094 8.76607 9.70381 8.7586 9.71323C8.76624 9.70626 8.76993 9.70094 8.76993 9.70094ZM15.2301 9.70094C15.2301 9.70094 15.2339 9.70381 15.2414 9.71323C15.2338 9.70626 15.2301 9.70094 15.2301 9.70094Z" fill="black"/>
</svg>
