<svg width="24" height="24" viewBox="0 0 24 24" fill="none" xmlns="http://www.w3.org/2000/svg">
<path fill-rule="evenodd" clip-rule="evenodd" d="M17.0431 18.5544C17.641 17.7948 18.2636 16.9074 18.8321 16.0547L18.8057 16.0371L20.5615 13.5295C21.3561 12.3948 21.0803 10.8308 19.9456 10.0363C19.0344 9.39826 17.8449 9.44994 17 10.0851V6.5C17 5.11929 15.8807 4 14.5 4C14.315 4 14.1347 4.0201 13.9611 4.05823C13.7525 2.88823 12.73 2 11.5 2C10.27 2 9.24752 2.88823 9.03891 4.05823C8.86534 4.0201 8.68502 4 8.5 4C7.27003 4 6.24752 4.88823 6.03891 6.05823C5.86534 6.0201 5.68502 6 5.5 6C4.11929 6 3 7.11929 3 8.5V15C3 16.8835 3.8113 18.672 5.22553 19.9774C6.63706 21.2804 8.53556 22 10.5 22C12.4644 22 14.3629 21.2804 15.7745 19.9774C16.1389 19.6411 16.5447 19.1809 16.9645 18.6537L16.9706 18.658L17.0431 18.5544ZM8.5 6C8.77614 6 9 6.22386 9 6.5V12H11V4.5C11 4.22386 11.2239 4 11.5 4C11.7761 4 12 4.22386 12 4.5V12H14V6.5C14 6.22386 14.2239 6 14.5 6C14.7761 6 15 6.22386 15 6.5V11.9227C15 13.2313 16.6781 13.7705 17.4403 12.7069L18.0939 11.7949C18.2561 11.5685 18.5703 11.5149 18.7984 11.6746C19.0283 11.8356 19.0842 12.1525 18.9232 12.3824L15.4351 17.3639C15.0564 17.843 14.7087 18.2394 14.4179 18.5078C13.3915 19.4553 11.9834 20 10.5 20C9.01663 20 7.60853 19.4553 6.58209 18.5078C5.55834 17.5628 5 16.2991 5 15V8.5C5 8.22386 5.22386 8 5.5 8C5.77614 8 6 8.22386 6 8.5V13H8V6.5C8 6.22386 8.22386 6 8.5 6Z" fill="black"/>
</svg>
