<svg width="24" height="24" viewBox="0 0 24 24" fill="none" xmlns="http://www.w3.org/2000/svg">
<path d="M12 11C14.2091 11 16 9.20914 16 7C16 4.79086 14.2091 3 12 3C9.79086 3 8 4.79086 8 7C8 9.20914 9.79086 11 12 11Z" fill="black"/>
<path d="M5 16.7771C5 15.2477 6.23627 14.0071 7.76399 14L7.86362 14.0498C9.11332 14.6747 10.4913 15 11.8885 15H12.1115C12.5778 15 13.042 14.9638 13.5 14.8922V13.8333C13.5 13.472 13.5837 13.1226 13.7352 12.8091C13.205 12.9355 12.6601 13 12.1115 13H11.8885C10.8018 13 9.73004 12.747 8.75805 12.261L8.64659 12.2053C8.37662 12.0703 8.07893 12 7.77709 12C5.13877 12 3 14.1388 3 16.7771V21H13.653C13.5537 20.7381 13.5 20.4562 13.5 20.1667V19H5V16.7771Z" fill="black"/>
<path d="M19.0793 15.8763C19.2871 15.6945 19.3081 15.3786 19.1263 15.1708C18.9444 14.9629 18.6286 14.9419 18.4207 15.1237L17.6889 15.7641L17.5907 15.6726C17.3886 15.4844 17.0722 15.4958 16.884 15.6979C16.6959 15.9 16.7072 16.2164 16.9093 16.4045L17.3354 16.8012C17.5245 16.9772 17.816 16.9816 18.0104 16.8116L19.0793 15.8763Z" fill="black"/>
<path d="M19.0793 17.8763C19.2871 17.6945 19.3081 17.3786 19.1263 17.1708C18.9444 16.9629 18.6286 16.9419 18.4207 17.1237L17.6889 17.7641L17.5907 17.6726C17.3886 17.4844 17.0722 17.4958 16.884 17.6979C16.6959 17.9 16.7072 18.2164 16.9093 18.4045L17.3354 18.8012C17.5245 18.9772 17.816 18.9816 18.0104 18.8116L19.0793 17.8763Z" fill="black"/>
<path fill-rule="evenodd" clip-rule="evenodd" d="M16.8999 12C17.3141 12 17.6499 12.3358 17.6499 12.75V13H18.4478V12.75C18.4478 12.3358 18.7835 12 19.1978 12C19.612 12 19.9478 12.3358 19.9478 12.75V13H20.5C20.7761 13 21 13.2239 21 13.5V20.5C21 20.7761 20.7761 21 20.5 21H15.5C15.2239 21 15 20.7761 15 20.5V13.5C15 13.2239 15.2239 13 15.5 13H16.1499V12.75C16.1499 12.3358 16.4857 12 16.8999 12ZM16.5 14.5V19.5H19.5V14.5H16.5Z" fill="black"/>
</svg>
