<svg width="24" height="24" viewBox="0 0 24 24" fill="none" xmlns="http://www.w3.org/2000/svg">
<path d="M12 7C13.3807 7 14.5 5.88071 14.5 4.5C14.5 3.11929 13.3807 2 12 2C10.6193 2 9.5 3.11929 9.5 4.5C9.5 5.88071 10.6193 7 12 7Z" fill="black"/>
<path d="M6.34315 17.6569L6.34151 17.6552C5.47463 16.7878 4.81875 15.7328 4.42456 14.5715C4.03012 13.4095 3.90827 12.1724 4.06844 10.9558C4.22861 9.73919 4.6665 8.57574 5.34824 7.55544C6.02999 6.53514 6.9373 5.68535 8 5.0718L7 3.33975C6.41658 3.67664 5.87001 4.07086 5.36897 4.51472C4.72943 5.08127 4.16306 5.72929 3.68531 6.4443C2.83313 7.71967 2.28576 9.17398 2.08555 10.6947C1.88534 12.2155 2.03765 13.7619 2.5307 15.2144C2.80712 16.0287 3.18647 16.8012 3.65758 17.514C4.0268 18.0726 4.45238 18.5945 4.92893 19.0711L6.34315 17.6569Z" fill="black"/>
<path d="M17.6585 17.6552L17.6569 17.6569L19.0711 19.0711C19.5476 18.5945 19.9732 18.0726 20.3424 17.514C20.8135 16.8012 21.1929 16.0287 21.4693 15.2144C21.9624 13.7619 22.1147 12.2155 21.9144 10.6947C21.7142 9.17398 21.1669 7.71967 20.3147 6.4443C19.8369 5.72929 19.2706 5.08127 18.631 4.51472C18.13 4.07086 17.584 3.677 17.0006 3.3401L16 5.0718C17.0627 5.68535 17.97 6.53514 18.6518 7.55544C19.3335 8.57574 19.7714 9.73919 19.9316 10.9558C20.0917 12.1724 19.9699 13.4095 19.5754 14.5715C19.1813 15.7328 18.5254 16.7878 17.6585 17.6552Z" fill="black"/>
<path fill-rule="evenodd" clip-rule="evenodd" d="M7.26757 8C7.61338 7.4022 8.25972 7 9 7C9.74028 7 10.3866 7.4022 10.7324 8H17C17.5523 8 18 8.44772 18 9C18 9.55228 17.5523 10 17 10H15.792C15.9258 10.3062 16 10.6444 16 11C16 11.8179 15.6072 12.5441 15 13.0002V14.5894L17.2256 20.1341C17.4393 20.6666 17.229 21.2753 16.7321 21.5622C16.2351 21.8491 15.6029 21.7269 15.2486 21.2756L11.9821 17.1141L11.4848 17.7476C11.3928 18.4928 10.8909 19.1111 10.2115 19.3697L8.71554 21.2756C8.36125 21.7269 7.72899 21.8491 7.23206 21.5622C6.73514 21.2753 6.5248 20.6666 6.73854 20.1341L7.57596 18.0478C7.52648 17.8737 7.5 17.69 7.5 17.5C7.5 16.7645 7.89707 16.1216 8.48855 15.7742L9 14.5V11C8.25972 11 7.61338 10.5978 7.26757 10H7C6.44772 10 6 9.55229 6 9C6 8.44772 6.44772 8 7 8H7.26757ZM9 10C9.55229 10 10 9.55228 10 9C10 8.44772 9.55229 8 9 8C8.44772 8 8 8.44772 8 9C8 9.55228 8.44772 10 9 10ZM13.5 12.5C14.3284 12.5 15 11.8284 15 11C15 10.1716 14.3284 9.5 13.5 9.5C12.6716 9.5 12 10.1716 12 11C12 11.8284 12.6716 12.5 13.5 12.5ZM9.5 18.5C10.0523 18.5 10.5 18.0523 10.5 17.5C10.5 16.9477 10.0523 16.5 9.5 16.5C8.94772 16.5 8.5 16.9477 8.5 17.5C8.5 18.0523 8.94772 18.5 9.5 18.5Z" fill="black"/>
</svg>
