<svg width="24" height="24" viewBox="0 0 24 24" fill="none" xmlns="http://www.w3.org/2000/svg">
<path fill-rule="evenodd" clip-rule="evenodd" d="M10 3.99611C10 2.89375 10.8954 2.00011 12 2.00011H22V6.99011H10V3.99611ZM20 3.99611H12V4.99411H20V3.99611Z" fill="black"/>
<path d="M15.625 8.12198C16.1033 7.84639 16.7149 8.00994 16.991 8.48728L17.241 8.91942C17.5172 9.39676 17.3533 10.0071 16.875 10.2827C16.3967 10.5583 15.7851 10.3948 15.509 9.91742L15.259 9.48528C14.9828 9.00794 15.1467 8.39757 15.625 8.12198Z" fill="black"/>
<path d="M14.5 8.98646C14.5 8.43528 14.0523 7.98846 13.5 7.98846C12.9477 7.98846 12.5 8.43528 12.5 8.98646V9.48546C12.5 10.0366 12.9477 10.4835 13.5 10.4835C14.0523 10.4835 14.5 10.0366 14.5 9.48546V8.98646Z" fill="black"/>
<path d="M14.5 11.9805C14.5 11.4293 14.0523 10.9825 13.5 10.9825C12.9477 10.9825 12.5 11.4293 12.5 11.9805V12.4795C12.5 13.0306 12.9477 13.4775 13.5 13.4775C14.0523 13.4775 14.5 13.0306 14.5 12.4795V11.9805Z" fill="black"/>
<path d="M18.491 11.0802C18.2149 10.6029 17.6033 10.4393 17.125 10.7149C16.6467 10.9905 16.4828 11.6009 16.759 12.0782L17.009 12.5104C17.2851 12.9877 17.8967 13.1513 18.375 12.8757C18.8533 12.6001 19.0172 11.9897 18.741 11.5124L18.491 11.0802Z" fill="black"/>
<path d="M11.25 8.12198C10.7717 7.84639 10.1601 8.00994 9.88397 8.48728L9.63397 8.91942C9.35782 9.39676 9.5217 10.0071 9.99999 10.2827C10.4783 10.5583 11.0899 10.3948 11.366 9.91742L11.616 9.48528C11.8922 9.00794 11.7283 8.39757 11.25 8.12198Z" fill="black"/>
<path d="M8.38397 11.0802C8.66011 10.6029 9.2717 10.4393 9.74999 10.7149C10.2283 10.9905 10.3922 11.6009 10.116 12.0782L9.86602 12.5104C9.58987 12.9877 8.97828 13.1513 8.49999 12.8757C8.0217 12.6001 7.85782 11.9897 8.13397 11.5124L8.38397 11.0802Z" fill="black"/>
<path fill-rule="evenodd" clip-rule="evenodd" d="M3.5 13.4771C2.67157 13.4771 2 14.1473 2 14.9741V19.9641C2 20.7909 2.67157 21.4611 3.5 21.4611H5.5C6.11901 21.4611 6.65045 21.0869 6.87958 20.5528C7.12986 20.6743 7.38772 20.7929 7.6227 20.8884C9.1937 21.5272 10.1951 21.7977 11.9078 21.9559C12.6709 22.0265 13.6996 21.9964 14.2032 21.9756C14.5525 21.9612 14.8881 21.882 15.1977 21.7532L20.5336 19.5344C20.9447 19.3634 21.2959 19.0749 21.543 18.705C22.2956 17.5783 21.8885 16.0482 20.6748 15.4426L20.4827 15.3468C19.9026 15.0573 19.2311 15.0097 18.6158 15.2144L15.988 16.0885C15.9065 15.2822 15.4173 14.5655 14.6811 14.1981C14.415 14.0653 14.1264 13.9834 13.8301 13.9565L8.91564 13.5106C8.49314 13.4723 8.06936 13.5691 7.70558 13.7869L6.84176 14.3041C6.59543 13.8137 6.08711 13.4771 5.5 13.4771H3.5ZM14 16.3279V16.4712H10.5V18.4672H14.8377C15.0527 18.4672 15.2662 18.4326 15.4702 18.3648L19.2482 17.1079C19.3603 17.0706 19.4826 17.0793 19.5883 17.132L19.7804 17.2279C19.918 17.2966 19.9642 17.4701 19.8789 17.5979C19.8508 17.6398 19.811 17.6725 19.7644 17.6919L14.4284 19.9108C14.3236 19.9544 14.2198 19.9772 14.1205 19.9813C13.6126 20.0023 12.7064 20.0252 12.0922 19.9684C10.5982 19.8304 9.78863 19.6138 8.37729 19.04C8.0193 18.8944 7.55422 18.6634 7.1605 18.4577C7.10479 18.4286 7.05109 18.4003 7 18.3732V16.5371L8.73457 15.4985L13.649 15.9443C13.697 15.9487 13.7436 15.9619 13.7867 15.9834C13.9174 16.0486 14 16.182 14 16.3279ZM5 15.9904C4.9998 15.9788 4.9998 15.9672 5 15.9556V15.4731H4V19.4651H5V15.9904Z" fill="black"/>
</svg>
