<svg width="24" height="24" viewBox="0 0 24 24" fill="none" xmlns="http://www.w3.org/2000/svg">
<path d="M14.4999 4.5C14.4999 5.88071 13.3807 7 11.9999 7C10.6192 7 9.49995 5.88071 9.49995 4.5C9.49995 3.11929 10.6192 2 11.9999 2C13.3807 2 14.4999 3.11929 14.4999 4.5Z" fill="black"/>
<path d="M8.38511 9.99789C8.37684 10.0014 8.3511 10.0141 8.30879 10.0507C8.19816 10.1463 8.04302 10.3454 7.86857 10.7009C7.52076 11.4099 7.22667 12.4654 6.98053 13.6961C6.87221 14.2377 6.34539 14.5889 5.80383 14.4806C5.26227 14.3723 4.91105 13.8454 5.01937 13.3039C5.27322 12.0347 5.60693 10.7701 6.07302 9.82003C6.30552 9.34612 6.60386 8.88095 7.00052 8.53791C7.40559 8.18759 7.93266 7.95296 8.54854 8.0045H11.4999C11.5863 8.0045 11.67 8.01544 11.7499 8.03601C11.8299 8.01544 11.9136 8.0045 11.9999 8.0045H14.9514C15.5672 7.95296 16.0943 8.18759 16.4994 8.53791C16.896 8.88095 17.1944 9.34612 17.4269 9.82003C17.893 10.7701 18.2267 12.0347 18.4805 13.3039C18.5888 13.8454 18.2376 14.3723 17.6961 14.4806C17.1545 14.5889 16.6277 14.2377 16.5194 13.6961C16.2732 12.4654 15.9791 11.4099 15.6313 10.7009C15.4569 10.3454 15.3017 10.1463 15.1911 10.0507C15.1488 10.0141 15.1231 10.0014 15.1148 9.99789L15.0579 10.0045H14.8582L16.6587 17.5667C14.9667 18.1207 13.5388 18.3833 12.1084 18.3812C10.6386 18.379 9.1267 18.0975 7.28266 17.5158L8.71338 10.0045H8.44196L8.38511 9.99789Z" fill="black"/>
<path d="M7.00013 18.9991L7.00317 19L7.00013 18.9991Z" fill="black"/>
<path d="M8.60876 19.4409L8.50249 20.9288C8.46314 21.4796 8.87782 21.9581 9.4287 21.9975C9.97958 22.0368 10.4581 21.6221 10.4974 21.0712L10.5887 19.7927C9.9454 19.7196 9.29022 19.6019 8.60876 19.4409Z" fill="black"/>
<path d="M13.413 19.8178L13.5025 21.0712C13.5418 21.6221 14.0203 22.0368 14.5712 21.9975C15.1221 21.9581 15.5368 21.4796 15.4974 20.9288L15.3942 19.4833C14.7191 19.642 14.0639 19.7539 13.413 19.8178Z" fill="black"/>
</svg>
