<svg width="24" height="24" viewBox="0 0 24 24" fill="none" xmlns="http://www.w3.org/2000/svg">
<path fill-rule="evenodd" clip-rule="evenodd" d="M12 22C17.5228 22 22 17.5228 22 12C22 6.47715 17.5228 2 12 2C6.47715 2 2 6.47715 2 12C2 17.5228 6.47715 22 12 22ZM12 20C16.4183 20 20 16.4183 20 12C20 10.9695 19.8052 9.98452 19.4503 9.07987L5.74756 16.9912C7.2135 18.8252 9.46955 20 12 20ZM13 10.4946L18.4918 7.32388C17.2231 5.56561 15.2576 4.34341 13 4.06189V10.4946ZM11 11.6493V4.06189C7.05369 4.55399 4 7.92038 4 12C4 13.1706 4.25144 14.2826 4.70326 15.2847L11 11.6493Z" fill="black"/>
</svg>
