<svg width="48" height="48" viewBox="0 0 48 48" fill="none" xmlns="http://www.w3.org/2000/svg">
<path fill-rule="evenodd" clip-rule="evenodd" d="M27 7C27 8.30622 26.1652 9.41746 25 9.82929V16.0619C25.8132 16.1633 26.5886 16.3868 27.3071 16.7134L30.53 11.3852C29.7481 10.4266 29.6135 9.04176 30.2945 7.92579C31.1576 6.51147 33.0038 6.06459 34.4181 6.92766C35.8324 7.79072 36.2793 9.6369 35.4162 11.0512C34.7364 12.1653 33.4466 12.679 32.2384 12.4252L29.0099 17.7626C29.5797 18.2209 30.0855 18.7556 30.5115 19.3513L35.9629 16.3415C35.7645 15.12 36.3404 13.8528 37.4885 13.2266C38.9431 12.4333 40.7654 12.9694 41.5587 14.424C42.352 15.8786 41.8159 17.7008 40.3613 18.4941C39.2159 19.1188 37.8426 18.9192 36.9231 18.0959L31.4624 21.1109C31.6942 21.7091 31.8561 22.3421 31.9381 23H38.1707C38.5825 21.8348 39.6938 21 41 21C42.6569 21 44 22.3431 44 24C44 25.6569 42.6569 27 41 27C39.6938 27 38.5825 26.1652 38.1707 25H31.9381C31.8379 25.8038 31.6184 26.5705 31.298 27.2819L36.6174 30.5281C37.5759 29.7479 38.9594 29.6142 40.0744 30.2946C41.4887 31.1576 41.9356 33.0038 41.0725 34.4181C40.2095 35.8325 38.3633 36.2793 36.949 35.4163C35.834 34.7359 35.3203 33.4444 35.5757 32.2353L30.2547 28.9883C29.8003 29.5574 29.2698 30.0631 28.6787 30.49L31.663 35.962C32.8831 35.7656 34.1481 36.3415 34.7736 37.4883C35.5669 38.9429 35.0308 40.7652 33.5762 41.5585C32.1216 42.3518 30.2993 41.8157 29.506 40.3611C28.8806 39.2144 29.0814 37.8391 29.9072 36.9196L26.9236 31.449C26.3152 31.6879 25.6705 31.8545 25 31.9381V38.1707C26.1652 38.5825 27 39.6938 27 41C27 42.6569 25.6569 44 24 44C22.3431 44 21 42.6569 21 41C21 39.6938 21.8348 38.5825 23 38.1707V31.9381C22.1962 31.8379 21.4295 31.6184 20.7181 31.298L17.472 36.6174C18.252 37.5759 18.3857 38.9592 17.7053 40.0742C16.8422 41.4885 14.996 41.9354 13.5817 41.0723C12.1674 40.2092 11.7205 38.3631 12.5836 36.9487C13.2641 35.8337 14.5556 35.32 15.7648 35.5755L19.0117 30.2547C18.4426 29.8003 17.9369 29.2698 17.51 28.6786L12.038 31.6629C12.2343 32.883 11.6584 34.1479 10.5117 34.7733C9.05711 35.5666 7.23483 35.0305 6.44153 33.5759C5.64823 32.1214 6.18431 30.2991 7.6389 29.5058C8.7857 28.8803 10.161 29.0812 11.0805 29.907L16.551 26.9235C16.3121 26.3152 16.1455 25.6705 16.0619 25H9.82929C9.41746 26.1652 8.30622 27 7 27C5.34315 27 4 25.6569 4 24C4 22.3431 5.34315 21 7 21C8.30622 21 9.41746 21.8348 9.82929 23H16.0619C16.1633 22.1867 16.3868 21.4114 16.7134 20.6928L11.3857 17.4698C10.4271 18.2519 9.04209 18.3865 7.92603 17.7055C6.51172 16.8424 6.06484 14.9962 6.9279 13.5819C7.79096 12.1676 9.63714 11.7207 11.0515 12.5838C12.1654 13.2635 12.6792 14.5532 12.4255 15.7614L17.7626 18.99C18.2209 18.4202 18.7557 17.9145 19.3513 17.4885L16.3416 12.0372C15.1201 12.2356 13.8529 11.6597 13.2267 10.5116C12.4334 9.05702 12.9695 7.23474 14.4241 6.44144C15.8787 5.64814 17.701 6.18422 18.4943 7.63881C19.1189 8.7842 18.9193 10.1576 18.096 11.077L21.1109 16.5376C21.7091 16.3058 22.3422 16.1439 23 16.0619V9.82929C21.8348 9.41746 21 8.30622 21 7C21 5.34315 22.3431 4 24 4C25.6569 4 27 5.34315 27 7ZM27.5 21.5C27.5 22.6046 26.6046 23.5 25.5 23.5C24.3954 23.5 23.5 22.6046 23.5 21.5C23.5 20.3954 24.3954 19.5 25.5 19.5C26.6046 19.5 27.5 20.3954 27.5 21.5ZM20 24C20.5523 24 21 23.5523 21 23C21 22.4477 20.5523 22 20 22C19.4477 22 19 22.4477 19 23C19 23.5523 19.4477 24 20 24ZM24 27.5C24 28.3284 23.3284 29 22.5 29C21.6716 29 21 28.3284 21 27.5C21 26.6716 21.6716 26 22.5 26C23.3284 26 24 26.6716 24 27.5ZM29 27C29 27.5523 28.5523 28 28 28C27.4477 28 27 27.5523 27 27C27 26.4477 27.4477 26 28 26C28.5523 26 29 26.4477 29 27Z" fill="black"/>
</svg>
