<svg width="48" height="48" viewBox="0 0 48 48" fill="none" xmlns="http://www.w3.org/2000/svg">
<path d="M12.1944 6C8.77335 6 6 8.77335 6 12.1944C6 13.6163 6.47989 14.9271 7.28508 15.9723C6.47989 17.0174 6.00001 18.3282 6.00001 19.7501C6.00001 21.3959 6.64245 22.8916 7.68805 24.0001C6.64245 25.1085 6.00001 26.6042 6.00001 28.2501C6.00001 30.8993 7.66233 33.1583 10 34.0442V35.3335C10 36.929 11.2934 38.2224 12.8889 38.2224C14.4844 38.2224 15.7778 36.929 15.7778 35.3336V33.3033C17.3563 32.182 18.3889 30.3371 18.3889 28.2501C18.3889 26.6042 17.7465 25.1085 16.7009 24.0001C17.7465 22.8916 18.3889 21.3959 18.3889 19.7501C18.3889 19.2116 18.3201 18.689 18.1908 18.1908C18.689 18.3201 19.2116 18.3889 19.7501 18.3889C21.3959 18.3889 22.8916 17.7465 24.0001 16.7008C25.0943 17.733 26.5658 18.3723 28.1866 18.3886C28.0645 18.9063 28 19.446 28 20C28 20.7149 28.1074 21.4054 28.307 22.0559L28.2501 22.0556C24.829 22.0556 22.0556 24.829 22.0556 28.2501C22.0556 30.4806 23.2347 32.4342 25 33.5242V42H31V34.4761C31.06 34.1596 31.1244 33.9175 31.1871 33.7542C31.1965 33.7297 31.2052 33.7087 31.2131 33.691C31.4992 33.5349 31.7715 33.357 32.0278 33.1595C33.073 33.9646 34.3837 34.4445 35.8056 34.4445C39.2267 34.4445 42 31.6712 42 28.2501C42 28.1296 41.9966 28.0099 41.9898 27.8911C41.8215 28.0459 41.6421 28.1945 41.4534 28.3299C40.7366 28.8444 39.6293 29.3374 38.4684 28.7934C36.9596 28.0864 36.0524 26.5681 36.369 25.0304C36.1015 24.7145 35.8597 24.3797 35.6471 24.0281C34.0527 23.6483 32.6842 22.3977 32.6249 20.6865C32.565 18.96 33.8617 17.6725 35.4357 17.2586C35.6184 16.9185 35.8289 16.5935 36.0642 16.2854C35.6501 14.7665 36.4374 13.205 37.943 12.4555C39.3479 11.7562 40.8243 12.0654 41.985 12.6283C41.9949 12.485 42 12.3403 42 12.1944C42 8.77335 39.2266 6 35.8055 6C34.3837 6 33.0729 6.47987 32.0278 7.28502C30.9827 6.47987 29.6719 6 28.2501 6C26.6042 6 25.1085 6.64243 24.0001 7.68804C22.8916 6.64243 21.3959 6 19.7501 6C18.3282 6 17.0174 6.47988 15.9723 7.28507C14.9271 6.47988 13.6163 6 12.1944 6Z" fill="black"/>
<path d="M41.4997 14.6367C40.5518 14.0669 39.5792 13.8751 38.8342 14.2459C37.973 14.6747 37.7966 15.4376 38.095 16.016L38.4121 16.6307L37.9488 17.1442C37.561 17.5743 37.2516 18.0466 37.0303 18.5473L36.802 19.0636L36.242 19.1349C35.1496 19.2741 34.6025 20.0069 34.6237 20.6172C34.6458 21.255 35.2826 22.0068 36.4011 22.1336L36.933 22.1939L37.1778 22.6698C37.4372 23.1741 37.7841 23.6491 38.2075 24.0799L38.6842 24.5648L38.4085 25.1864C38.2594 25.5225 38.2779 25.952 38.5302 26.3365C38.6914 26.5821 38.9479 26.8094 39.317 26.9824C39.4911 27.0639 39.785 27.0655 40.2872 26.7051C40.72 26.3945 41.1204 25.9362 41.3872 25.5609C41.1617 25.0938 40.8795 24.6595 40.5496 24.2668C41.4585 23.0861 42 21.6057 42 20C42 18.498 41.5261 17.1052 40.7206 15.9649C41.0322 15.5591 41.295 15.1133 41.4997 14.6367Z" fill="black"/>
</svg>
