<svg width="48" height="48" viewBox="0 0 48 48" fill="none" xmlns="http://www.w3.org/2000/svg">
<path d="M29.9532 24.051C29.9532 27.35 27.2878 30.0244 24 30.0244C20.7121 30.0244 18.0468 27.35 18.0468 24.051C18.0468 20.752 20.7121 18.0776 24 18.0776C25.215 18.0776 26.3449 18.4428 27.2868 19.0697C26.904 19.3984 26.6613 19.8867 26.6613 20.4319C26.6613 21.4216 27.4609 22.224 28.4473 22.224C28.8574 22.224 29.2353 22.0852 29.5368 21.852C29.8055 22.5325 29.9532 23.2745 29.9532 24.051Z" fill="black"/>
<path fill-rule="evenodd" clip-rule="evenodd" d="M17.4659 34.5746C21.7331 35.8085 26.2669 35.8085 30.5341 34.5746C34.2998 33.4858 37.7292 31.4732 40.5047 28.7217L43.2696 25.9808C44.2228 25.0359 44.246 23.499 43.3218 22.5255L40.5655 19.6224C37.766 16.6737 34.2351 14.5253 30.3351 13.3976C26.1959 12.2008 21.8041 12.2008 17.6649 13.3976C13.7649 14.5253 10.234 16.6737 7.43447 19.6224L4.6782 22.5255C3.75401 23.499 3.77722 25.0358 4.73038 25.9808L7.49528 28.7217C10.2708 31.4732 13.7002 33.4858 17.4659 34.5746ZM19.884 33.1123C19.2563 32.9902 18.6328 32.8399 18.0153 32.6613C15.6648 31.9817 13.4585 30.9094 11.4881 29.4987L12.9928 28.6751L13.3203 26.7036C13.4104 26.1612 13.0452 25.6483 12.5047 25.5579C11.9642 25.4675 11.453 25.8339 11.3629 26.3762L11.1943 27.3914L9.79888 28.1551C9.48811 27.8811 9.18498 27.5978 8.88996 27.3053L6.61149 25.0466H7.82434L9.06268 25.8749C9.51863 26.1799 10.1347 26.0563 10.4386 25.5988C10.7426 25.1413 10.6194 24.5232 10.1634 24.2182L8.42517 23.0554H6.91583L8.87128 20.9957C9.23216 20.6156 9.60636 20.2501 9.99293 19.8996L10.3416 20.0396L9.47737 21.3404L11.7912 22.8882C12.2472 23.1932 12.8632 23.0696 13.1672 22.6121C13.4711 22.1546 13.3479 21.5365 12.892 21.2315L12.2292 20.7882L13.3494 19.1023L11.7606 18.4646C13.7067 17.0533 15.8887 15.9833 18.2144 15.3109C18.8856 15.1168 19.564 14.9572 20.2472 14.8321C16.628 16.3169 14.078 19.8851 14.078 24.051C14.078 28.0761 16.4585 31.5432 19.884 33.1123ZM29.9847 32.6613C29.3672 32.8399 28.7436 32.9902 28.1159 33.1123C31.5414 31.5433 33.922 28.0761 33.922 24.051C33.922 19.8851 31.372 16.3169 27.7527 14.832C28.4359 14.9572 29.1144 15.1168 29.7856 15.3109C32.1113 15.9833 34.2933 17.0532 36.2394 18.4646L34.6506 19.1023L35.7707 20.7882L35.108 21.2315C34.652 21.5365 34.5288 22.1546 34.8328 22.6121C35.1367 23.0696 35.7528 23.1932 36.2087 22.8882L38.5226 21.3404L37.6583 20.0396L38.0071 19.8996C38.3936 20.2501 38.7678 20.6156 39.1287 20.9957L41.0842 23.0554H39.5748L37.8365 24.2182C37.3806 24.5232 37.2574 25.1413 37.5613 25.5988C37.8653 26.0563 38.4813 26.1799 38.9373 25.8749L40.1756 25.0466H41.3885L39.11 27.3053C38.815 27.5978 38.5119 27.8811 38.2011 28.1551L36.8057 27.3914L36.637 26.3762C36.547 25.8339 36.0357 25.4675 35.4952 25.5579C34.9547 25.6483 34.5896 26.1612 34.6796 26.7036L35.0071 28.6751L36.5119 29.4987C34.5415 30.9094 32.3352 31.9817 29.9847 32.6613ZM24 32.0155C28.3838 32.0155 31.9376 28.4497 31.9376 24.051C31.9376 19.6523 28.3838 16.0864 24 16.0864C19.6162 16.0864 16.0624 19.6523 16.0624 24.051C16.0624 28.4497 19.6162 32.0155 24 32.0155Z" fill="black"/>
</svg>
