<svg width="48" height="48" viewBox="0 0 48 48" fill="none" xmlns="http://www.w3.org/2000/svg">
<path d="M41.078 20.0133C40.3695 20.6103 39.5027 21.1426 38.5652 21.5965C37.0648 22.3229 35.483 22.8005 34.3174 23.0169C33.7744 23.1178 33.416 23.6397 33.5168 24.1827C33.6177 24.7257 34.1396 25.0842 34.6826 24.9833C36.017 24.7355 37.7697 24.2037 39.4367 23.3967C41.089 22.5968 42.7588 21.4775 43.8134 20.0028C43.9786 19.7718 44.035 19.4862 43.979 19.2172L44 19.22L43.964 19.1549C43.942 19.0755 43.9101 18.9981 43.868 18.9245C43.0047 17.4155 41.7378 15.8134 40.1547 14.3892C37.4314 11.8913 33.8028 9.95367 29.7298 10.0008C27.8921 9.98025 25.9611 10.3358 23.983 11.1918C21.8296 10.3391 19.7152 10.0576 17.71 10.1926C14.358 10.3615 11.2923 11.7763 8.82384 13.6902C6.78571 15.2429 5.1637 17.1211 4.132 18.9245C4.08991 18.9981 4.05795 19.0755 4.03603 19.1549L4 19.22L4.02098 19.2172C3.96498 19.4862 4.02139 19.7718 4.18658 20.0028C5.22306 21.4522 6.74195 22.5713 8.28381 23.3818C9.83134 24.1952 11.4689 24.7329 12.8174 24.9833C13.3604 25.0842 13.8823 24.7257 13.9832 24.1827C14.084 23.6397 13.7256 23.1178 13.1826 23.0169C12.0311 22.8031 10.5841 22.3314 9.21433 21.6114C8.35865 21.1617 7.55881 20.6286 6.88525 20.0224C9.95869 19.2427 17.9602 17.5 23.9998 17.5C30.0157 17.5 37.9783 19.2291 41.078 20.0133Z" fill="black"/>
<path d="M23.1111 19.5557V29.0192C23.1111 29.5726 23.5091 30.0212 24 30.0212C24.4909 30.0212 24.8889 29.5726 24.8889 29.0192V19.5557L31.0625 19.9423C31.5895 19.9753 32 20.4123 32 20.9403V21.9855L29.9317 23.0598L28.932 22.6841C28.4663 22.5091 27.9629 22.7929 27.8076 23.3179C27.6524 23.8429 27.9041 24.4103 28.3698 24.5853L30.0368 25.2117L32 24.192V28.4813L31.14 28.6209L31.2299 27.0507L28.7437 26.87C28.2538 26.8343 27.831 27.2532 27.7994 27.8054C27.7678 28.3577 28.1394 28.8342 28.6293 28.8698L29.3414 28.9216L29.2249 30.9567L31.9864 30.5082C31.8816 32.313 31.1786 33.9573 30.0726 35.2456L28.7955 32.6062L27.0352 32.2754C26.551 32.1845 26.093 32.5532 26.0123 33.0991C25.9316 33.645 26.2587 34.1612 26.743 34.2522L27.6493 34.4225L28.6706 36.5332C27.5542 37.3373 26.2222 37.8607 24.7778 38.0001V37.2981L25.5174 36.0475C25.7897 35.587 25.6794 34.9649 25.2709 34.6579C24.8624 34.3509 24.3105 34.4754 24.0382 34.9358L23.0001 36.6913V37.9755C21.5761 37.798 20.2684 37.2462 19.1784 36.4217L19.6327 35.1413L20.7941 36.0141L22.1761 33.6773C22.4484 33.2169 22.338 32.5948 21.9295 32.2878C21.5211 31.9808 20.9692 32.1052 20.6969 32.5657L20.3011 33.235L18.7958 32.1038L17.7548 35.0376C16.8475 33.9059 16.2415 32.5223 16.0583 31.0084L18.0682 29.9645L19.0679 30.3401C19.5336 30.5151 20.037 30.2314 20.1923 29.7064C20.3475 29.1814 20.0958 28.6139 19.6301 28.4389L17.9631 27.8125L16 28.8322V24.4119L17.0667 24.2799L16.9298 25.8458L19.4092 26.1212C19.8977 26.1754 20.3328 25.7729 20.3809 25.2222C20.4291 24.6715 20.072 24.181 19.5835 24.1268L18.8733 24.0479L19.0507 22.0184L16 22.3958V20.9403C16 20.4123 16.4105 19.9753 16.9375 19.9423L23.1111 19.5557Z" fill="black"/>
</svg>
