<svg width="48" height="48" viewBox="0 0 48 48" fill="none" xmlns="http://www.w3.org/2000/svg">
<path fill-rule="evenodd" clip-rule="evenodd" d="M14.5344 9.89335C14.5932 9.34422 15.0848 8.94685 15.6325 9.0058C17.7758 9.23646 18.9455 10.3287 19.5162 11.5264C19.8038 12.1302 19.9255 12.7339 19.9765 13.1991C21.6805 13.7435 22.9147 15.3434 22.9147 17.2323V30.7676C22.9147 32.4431 21.9436 33.8913 20.5348 34.5771C20.5666 34.8807 20.6406 35.2504 20.8126 35.6115C21.0893 36.1922 21.664 36.85 23.1092 37.0056C23.6569 37.0645 24.0532 37.5574 23.9944 38.1066C23.9356 38.6557 23.444 39.0531 22.8963 38.9941C20.753 38.7635 19.5833 37.6713 19.0127 36.4736C18.7644 35.9524 18.6397 35.4313 18.5775 34.9993C18.2756 34.996 17.9767 34.9802 17.6813 34.9524C17.5884 35.4076 17.1887 35.7499 16.7097 35.7499C16.1618 35.7499 15.7177 35.3022 15.7177 34.7499C15.7177 34.6928 15.7225 34.6368 15.7316 34.5823C15.3566 34.4738 14.9902 34.3454 14.6334 34.198C14.5517 34.4032 14.4832 34.6353 14.4494 34.8807C14.3589 35.5373 14.4916 36.3877 15.6309 37.1994C16.0785 37.5183 16.1712 38.1352 15.8381 38.5772C15.5049 39.0193 14.872 39.1191 14.4245 38.8003C12.6554 37.5398 12.2653 35.9651 12.447 34.6462C12.5208 34.1112 12.6846 33.6371 12.8576 33.2591C12.6246 33.1062 12.3978 32.9443 12.1779 32.774C11.9961 33.0031 11.7165 33.1499 11.4028 33.1499C10.855 33.1499 10.4109 32.7022 10.4109 32.1499C10.4109 31.8609 10.5324 31.6006 10.7269 31.418C10.4883 31.1497 10.263 30.8692 10.052 30.5777C9.88909 30.7538 9.73837 30.9453 9.61763 31.1524C9.43763 31.4612 9.33127 31.7917 9.34107 32.1577C9.35081 32.5216 9.47734 32.9971 9.88903 33.5959C10.2005 34.0489 10.0757 34.6588 9.61029 34.958C9.14489 35.2573 8.51513 35.1327 8.20368 34.6797C7.61478 33.8232 7.33509 32.9913 7.31383 32.1971C7.29262 31.4049 7.53049 30.7267 7.85078 30.1773C8.16706 29.6348 8.56979 29.2068 8.90261 28.8952C8.93872 28.8614 8.97431 28.8287 9.00914 28.7971C8.92172 28.6081 8.83964 28.4161 8.76311 28.2212C8.68717 28.24 8.60781 28.2499 8.52614 28.2499C7.9783 28.2499 7.53419 27.8022 7.53419 27.2499C7.53419 26.8089 7.81745 26.4345 8.21058 26.3016C8.14668 25.9626 8.09874 25.618 8.06756 25.2686C7.7619 25.4151 7.42836 25.6144 7.1165 25.8754C6.38049 26.4914 5.84242 27.378 6.04845 28.6882C6.13406 29.2327 5.7604 29.7365 5.21386 29.8134C4.66731 29.8904 4.15484 29.5114 4.06923 28.9669C3.73166 26.8201 4.67926 25.2929 5.81281 24.3442C6.52899 23.7448 7.35289 23.3447 8.03939 23.1303C8.04813 22.9623 8.06075 22.7953 8.07714 22.6294C7.62569 22.5358 7.28623 22.1328 7.28623 21.65C7.28623 21.0977 7.73034 20.65 8.27818 20.65C8.33988 20.65 8.40026 20.6557 8.45884 20.6666C8.54416 20.3764 8.64142 20.0914 8.75004 19.8121C8.53483 19.696 8.27393 19.5921 7.99179 19.5517C7.70591 19.5108 7.39802 19.5342 7.06844 19.6788C6.73408 19.8256 6.31903 20.1231 5.8669 20.7184C5.53205 21.1592 4.89882 21.2567 4.45254 20.9361C4.00626 20.6156 3.91593 19.9983 4.25078 19.5575C4.86844 18.7443 5.54569 18.1954 6.26353 17.8804C6.98615 17.5632 7.69035 17.5094 8.31384 17.5986C8.81803 17.6707 9.26773 17.8353 9.64488 18.0273C9.83362 17.7251 10.037 17.4331 10.254 17.1522C10.1045 16.9771 10.0141 16.7492 10.0141 16.5C10.0141 15.9477 10.4582 15.5 11.006 15.5C11.2309 15.5 11.4383 15.5755 11.6047 15.7026C11.8367 15.4956 12.0777 15.2987 12.3272 15.1124C12.2725 15.0342 12.2175 14.9561 12.1547 14.8714C11.9517 14.5972 11.7263 14.335 11.4572 14.13C11.1972 13.9319 10.9004 13.7899 10.5362 13.7461C10.1689 13.7019 9.65859 13.7486 8.96205 14.0442C8.45314 14.2601 7.85519 14.0295 7.6265 13.529C7.39781 13.0285 7.62497 12.4478 8.13388 12.2318C9.09089 11.8257 9.96259 11.6919 10.7537 11.7871C11.5479 11.8827 12.1859 12.2002 12.685 12.5805C13.175 12.9539 13.533 13.3891 13.7856 13.7302C13.8767 13.8532 13.9619 13.9751 14.0304 14.0732C14.3411 13.9216 14.6602 13.7846 14.9869 13.6633C14.9783 13.6102 14.9738 13.5556 14.9738 13.5C14.9738 12.9478 15.4179 12.5001 15.9657 12.5001C16.3919 12.5001 16.7553 12.771 16.8957 13.1513C17.2356 13.0934 17.581 13.0517 17.931 13.0269C17.8864 12.8216 17.8187 12.6035 17.7162 12.3884C17.4395 11.8077 16.8648 11.1499 15.4196 10.9944C14.872 10.9354 14.4756 10.4425 14.5344 9.89335ZM18.0505 27.6546C17.5184 27.5116 16.9715 27.8282 16.829 28.3617L16.5708 29.3276C16.4283 29.861 16.744 30.4094 17.2761 30.5523C17.8082 30.6953 18.355 30.3787 18.4976 29.8452L18.7558 28.8793C18.8983 28.3458 18.5826 27.7975 18.0505 27.6546ZM14.3185 26.2928C14.708 25.9023 15.3395 25.9023 15.729 26.2928C16.1185 26.6834 16.1185 27.3165 15.729 27.707L15.0238 28.4141C14.6343 28.8047 14.0028 28.8047 13.6133 28.4141C13.2238 28.0236 13.2238 27.3905 13.6133 26.9999L14.3185 26.2928ZM15.4884 22.7588C15.631 22.2253 15.3152 21.677 14.7832 21.534L13.3381 21.1458C12.806 21.0029 12.2591 21.3195 12.1166 21.8529C11.974 22.3864 12.2898 22.9347 12.8218 23.0777L14.2669 23.4659C14.799 23.6088 15.3459 23.2922 15.4884 22.7588ZM17.9818 18.2411C17.8393 17.7077 17.2924 17.3911 16.7603 17.534C16.2282 17.677 15.9125 18.2253 16.055 18.7588L16.4423 20.2077C16.5848 20.7411 17.1317 21.0577 17.6638 20.9148C18.1958 20.7718 18.5116 20.2235 18.369 19.69L17.9818 18.2411Z" fill="black"/>
<path fill-rule="evenodd" clip-rule="evenodd" d="M32.3675 38.9942C32.9152 39.0531 33.4068 38.6558 33.4656 38.1066C33.5244 37.5575 33.128 37.0646 32.5804 37.0056C31.1352 36.8501 30.5605 36.1923 30.2838 35.6116C30.1813 35.3965 30.1136 35.1784 30.069 34.9731C30.4191 34.9483 30.7645 34.9065 31.1044 34.8487C31.2449 35.229 31.6082 35.4999 32.0344 35.4999C32.5822 35.4999 33.0263 35.0522 33.0263 34.4999C33.0263 34.4443 33.0218 34.3898 33.0132 34.3367C33.3398 34.2153 33.659 34.0784 33.9697 33.9268C34.0381 34.0249 34.1233 34.1468 34.2144 34.2698C34.467 34.6109 34.825 35.0461 35.315 35.4195C35.8141 35.7998 36.4521 36.1173 37.2463 36.2129C38.0374 36.3081 38.9091 36.1743 39.8661 35.7682C40.375 35.5522 40.6022 34.9715 40.3735 34.471C40.1448 33.9705 39.5469 33.7399 39.038 33.9558C38.3414 34.2514 37.8311 34.2981 37.4638 34.2539C37.0996 34.2101 36.8028 34.0681 36.5428 33.87C36.2737 33.665 36.0483 33.4028 35.8453 33.1286C35.7825 33.0439 35.7275 32.9658 35.6728 32.8876C35.9223 32.7013 36.1634 32.5043 36.3954 32.2973C36.5618 32.4245 36.7692 32.4999 36.9941 32.4999C37.5419 32.4999 37.9861 32.0522 37.9861 31.4999C37.9861 31.2507 37.8956 31.0228 37.7461 30.8477C37.9631 30.5669 38.1664 30.2749 38.3551 29.9727C38.7323 30.1647 39.182 30.3293 39.6862 30.4014C40.3097 30.4906 41.0139 30.4368 41.7365 30.1196C42.4543 29.8046 43.1316 29.2557 43.7492 28.4425C44.0841 28.0017 43.9937 27.3844 43.5475 27.0639C43.1012 26.7433 42.4679 26.8408 42.1331 27.2816C41.681 27.8769 41.2659 28.1744 40.9316 28.3212C40.602 28.4658 40.2941 28.4892 40.0082 28.4483C39.7261 28.4079 39.4652 28.304 39.25 28.1879C39.3586 27.9085 39.4559 27.6235 39.5412 27.3334C39.5998 27.3443 39.6602 27.3499 39.7219 27.3499C40.2698 27.3499 40.7139 26.9022 40.7139 26.35C40.7139 25.8671 40.3744 25.4641 39.9229 25.3705C39.9393 25.2047 39.9519 25.0377 39.9606 24.8697C40.6471 24.6553 41.471 24.2552 42.1872 23.6558C43.3207 22.7071 44.2683 21.1799 43.9308 19.0331C43.8452 18.4886 43.3327 18.1096 42.7861 18.1866C42.2396 18.2635 41.8659 18.7673 41.9516 19.3118C42.1576 20.622 41.6195 21.5086 40.8835 22.1246C40.5716 22.3856 40.2381 22.5849 39.9324 22.7314C39.9013 22.382 39.8533 22.0374 39.7894 21.6984C40.1826 21.5655 40.4659 21.1911 40.4659 20.75C40.4659 20.1977 40.0218 19.75 39.474 19.75C39.3923 19.75 39.3129 19.76 39.2369 19.7788C39.1604 19.5839 39.0783 19.3919 38.9909 19.2029C39.0257 19.1713 39.0613 19.1386 39.0974 19.1048C39.4302 18.7932 39.8329 18.3652 40.1492 17.8227C40.4695 17.2733 40.7074 16.5951 40.6862 15.8029C40.6649 15.0087 40.3852 14.1768 39.7963 13.3203C39.4849 12.8673 38.8551 12.7427 38.3897 13.042C37.9243 13.3412 37.7995 13.9511 38.111 14.4041C38.5227 15.0029 38.6492 15.4784 38.6589 15.8423C38.6687 16.2083 38.5624 16.5388 38.3824 16.8476C38.2616 17.0547 38.1109 17.2462 37.948 17.4223C37.737 17.1308 37.5117 16.8503 37.2732 16.582C37.4676 16.3994 37.5893 16.1391 37.5893 15.85C37.5893 15.2978 37.1451 14.8501 36.5973 14.8501C36.2836 14.8501 36.0039 14.9969 35.8221 15.226C35.6022 15.0557 35.3755 14.8938 35.1424 14.7409C35.3154 14.3629 35.4792 13.8888 35.553 13.3538C35.7347 12.0349 35.3446 10.4602 33.5755 9.19974C33.128 8.88086 32.4951 8.98071 32.162 9.42276C31.8288 9.86482 31.9215 10.4817 32.3691 10.8006C33.5084 11.6123 33.6411 12.4627 33.5507 13.1193C33.5168 13.3647 33.4483 13.5968 33.3666 13.802C33.0099 13.6547 32.6434 13.5262 32.2685 13.4178C32.2776 13.3632 32.2824 13.3072 32.2824 13.2501C32.2824 12.6978 31.8383 12.2501 31.2904 12.2501C30.8114 12.2501 30.4117 12.5924 30.3188 13.0477C30.0234 13.0198 29.7245 13.004 29.4225 13.0007C29.3603 12.5687 29.2357 12.0476 28.9873 11.5264C28.4167 10.3287 27.247 9.23654 25.1037 9.00587C24.556 8.94693 24.0644 9.3443 24.0056 9.89343C23.9468 10.4426 24.3431 10.9355 24.8908 10.9944C26.336 11.15 26.9107 11.8078 27.1874 12.3885C27.3594 12.7496 27.4334 13.1193 27.4652 13.4229C26.0564 14.1087 25.0853 15.5569 25.0853 17.2324V30.7677C25.0853 32.6566 26.3195 34.2565 28.0235 34.8009C28.0745 35.2661 28.1962 35.8698 28.4839 36.4736C29.0545 37.6713 30.2242 38.7635 32.3675 38.9942ZM30.9475 19.7383C30.8049 20.2718 30.258 20.5884 29.726 20.4454C29.1939 20.3025 28.8782 19.7541 29.0207 19.2207L29.2789 18.2548C29.4214 17.7213 29.9683 17.4047 30.5004 17.5477C31.0324 17.6906 31.3482 18.2389 31.2056 18.7724L30.9475 19.7383ZM32.0475 21.8071C32.4369 22.1977 33.0684 22.1977 33.4579 21.8071L34.1632 21.1C34.5527 20.7095 34.5527 20.0764 34.1632 19.6858C33.7737 19.2953 33.1422 19.2953 32.7527 19.6858L32.0475 20.3929C31.658 20.7835 31.658 21.4166 32.0475 21.8071ZM32.9933 26.5659C32.4612 26.423 32.1455 25.8747 32.288 25.3412C32.4306 24.8077 32.9775 24.4912 33.5096 24.6341L34.9546 25.0223C35.4867 25.1653 35.8025 25.7136 35.6599 26.2471C35.5173 26.7805 34.9704 27.0971 34.4384 26.9542L32.9933 26.5659ZM31.0162 30.5659C30.4841 30.7089 29.9372 30.3923 29.7947 29.8588L29.4074 28.41C29.2649 27.8765 29.5806 27.3282 30.1127 27.1852C30.6448 27.0423 31.1917 27.3589 31.3342 27.8923L31.7214 29.3412C31.864 29.8747 31.5482 30.423 31.0162 30.5659Z" fill="black"/>
</svg>
