<svg width="48" height="48" viewBox="0 0 48 48" fill="none" xmlns="http://www.w3.org/2000/svg">
<path d="M7.54777 3.69519L5.94168 8.71424C4.32067 13.7799 3.78111 19.1294 4.35791 24.4167L6.50609 44.1084L8.4943 43.8915L6.34611 24.1998C5.79967 19.1908 6.31083 14.1228 7.84652 9.32379L9.45262 4.30474L7.54777 3.69519Z" fill="black"/>
<path d="M40.4522 3.69519L42.0583 8.71424C43.6793 13.7799 44.2189 19.1294 43.6421 24.4167L41.4939 44.1084L39.5057 43.8915L41.6539 24.1998C42.2003 19.1908 41.6892 14.1228 40.1535 9.32379L38.5474 4.30474L40.4522 3.69519Z" fill="black"/>
<path d="M27.4968 23.567C27.4968 22.5852 26.714 21.7893 25.7485 21.7893H25.4987C25.2228 21.7893 24.9992 22.0167 24.9992 22.2972V25.9421C24.9992 26.2227 25.2228 26.4501 25.4987 26.4501H25.7485C26.714 26.4501 27.4968 25.6542 27.4968 24.6724V23.567Z" fill="black"/>
<path d="M23.0011 25.9421V22.2972C23.0011 22.0167 22.7774 21.7893 22.5015 21.7893H22.2518C21.2862 21.7893 20.5034 22.5852 20.5034 23.567V24.6724C20.5034 25.6542 21.2862 26.4501 22.2518 26.4501H22.5015C22.7774 26.4501 23.0011 26.2227 23.0011 25.9421Z" fill="black"/>
<path fill-rule="evenodd" clip-rule="evenodd" d="M23 35.9589V44H21V35.6219C15.8243 34.2898 12 29.5915 12 24C12 17.3726 17.3726 12 24 12C30.6274 12 36 17.3726 36 24C36 29.5915 32.1757 34.2898 27 35.6219V44H25V35.9589C24.6703 35.9861 24.3368 36 24 36C23.6632 36 23.3297 35.9861 23 35.9589ZM20.1592 27.8326C19.9047 27.658 19.6723 27.4525 19.4675 27.2213C18.891 27.5848 18.1802 27.7909 17.5931 27.8197C17.0306 27.8472 16.5396 27.4257 16.4965 26.8783C16.4534 26.3308 16.8745 25.8647 17.437 25.8372C17.5653 25.8309 17.748 25.7972 17.9441 25.728C18.1398 25.6589 18.3069 25.5692 18.4223 25.4791C18.5169 25.4052 18.5436 25.3578 18.5478 25.3504L18.5484 25.3494L18.5471 25.3536C18.5449 25.3607 18.5435 25.3674 18.5427 25.3735L18.5663 25.3604C18.5262 25.1373 18.5053 24.9073 18.5053 24.6724V24.0238C17.7616 23.8693 17.0153 23.4344 16.271 22.6167C15.8915 22.2 15.9133 21.5629 16.3196 21.1937C16.726 20.8245 17.3629 20.8631 17.7424 21.2798C18.2238 21.8086 18.584 21.9801 18.8186 22.0395C19.0897 21.4106 19.523 20.8704 20.0647 20.4737C20.1098 20.3455 20.1326 20.2195 20.1349 20.0842C20.1394 19.8186 20.066 19.4281 19.7689 18.8381C19.5237 18.3509 19.7367 17.7523 20.2447 17.5012C20.7528 17.25 21.3635 17.4413 21.6088 17.9285C21.9374 18.5812 22.126 19.1831 22.1688 19.7585C22.1964 19.7579 22.224 19.7576 22.2518 19.7576H22.5015C23.0638 19.7576 23.5827 19.9465 24.0001 20.2653C24.4175 19.9465 24.9364 19.7576 25.4987 19.7576H25.7485C25.7919 19.7576 25.8351 19.7583 25.8782 19.7598L25.8796 19.7271C25.8886 19.4755 25.8511 19.3033 25.7909 19.1833C25.7387 19.0791 25.6364 18.9461 25.3796 18.8205C24.8824 18.5773 24.6732 17.9703 24.9124 17.4647C25.1516 16.9592 25.7485 16.7464 26.2458 16.9896C26.8578 17.289 27.3012 17.7225 27.5709 18.2602C27.8326 18.782 27.8934 19.3268 27.8764 19.8012C27.8694 19.9952 27.8472 20.194 27.8159 20.3896C28.0209 20.5278 28.2117 20.6859 28.3857 20.8613C28.9915 20.4475 29.7757 20.2114 30.407 20.1805C30.9695 20.153 31.4605 20.5744 31.5036 21.1219C31.5467 21.6693 31.1256 22.1354 30.5631 22.1629C30.4337 22.1693 30.2463 22.2034 30.0432 22.2739C29.8407 22.3442 29.6652 22.4359 29.5422 22.5292C29.4398 22.607 29.4101 22.6575 29.4052 22.6658L29.4044 22.667L29.4056 22.6633C29.4105 22.6485 29.4121 22.635 29.4123 22.624L29.3832 22.6401C29.4562 22.9368 29.4949 23.2473 29.4949 23.567V23.9684C30.2413 24.1177 30.9796 24.5601 31.7291 25.3833C32.1086 25.8001 32.0868 26.4372 31.6805 26.8064C31.2741 27.1756 30.6372 27.137 30.2577 26.7202C29.8126 26.2313 29.4849 26.0484 29.2695 25.9769C28.9942 26.7449 28.4828 27.3975 27.8246 27.8438C27.8185 27.8869 27.8172 27.9283 27.8187 27.9709C27.8262 28.1761 27.9094 28.5186 28.2311 29.1576C28.4764 29.6448 28.2634 30.2433 27.7554 30.4945C27.2473 30.7457 26.6366 30.5544 26.3913 30.0672C26.1039 29.4964 25.9005 28.9786 25.8171 28.4811C25.7943 28.4815 25.7714 28.4817 25.7485 28.4817H25.4987C24.9364 28.4817 24.4175 28.2928 24.0001 27.974C23.5827 28.2928 23.0638 28.4817 22.5015 28.4817H22.2518C22.2083 28.4817 22.1649 28.481 22.1218 28.4795C22.1305 28.6296 22.1615 28.7391 22.2039 28.8215C22.2533 28.917 22.3552 29.0499 22.6205 29.1797C23.1177 29.4229 23.3269 30.0299 23.0877 30.5355C22.8486 31.0411 22.2516 31.2538 21.7544 31.0106C21.1509 30.7154 20.7072 30.2938 20.4346 29.7654C20.1688 29.2503 20.1065 28.7133 20.1239 28.2456C20.1291 28.1053 20.1416 27.9671 20.1592 27.8326Z" fill="black"/>
<path d="M24.1499 5C24.7022 5 25.1499 5.44772 25.1499 6V7C25.1499 7.55228 24.7022 8 24.1499 8C23.5976 8 23.1499 7.55228 23.1499 7V6C23.1499 5.44772 23.5976 5 24.1499 5Z" fill="black"/>
</svg>
