<svg width="48" height="48" viewBox="0 0 48 48" fill="none" xmlns="http://www.w3.org/2000/svg">
<path d="M36.9097 9.94652L36.6483 9L31.9166 10.2305L32.1839 11.1986C32.731 13.1804 32.2764 14.7158 31.5025 15.9C31.0383 16.6102 30.7455 16.9997 30.4872 17.2604C30.4445 17.3036 30.402 17.3438 30.3589 17.382C27.4183 13.4458 22.9962 10.625 17.8086 12.0362C16.3882 12.4226 15.2821 13.3931 14.554 14.6208L9.67803 13.3527L8.40158 17.9761L13.5855 19.2744C13.6389 19.5965 13.7233 19.9186 13.8319 20.2376C14.3765 19.4664 15.2242 18.8442 16.2298 18.6932C17.8771 18.4458 19.4743 19.1997 20.0641 20.6437C20.4619 20.7572 20.8489 20.9004 21.2208 21.0736C22.7578 20.509 24.59 20.7877 25.589 22.1679C26.5969 23.5604 26.2327 25.3377 25.1532 26.5465C25.19 26.9279 25.1953 27.3122 25.1705 27.6962C26.3579 28.7222 26.5695 30.4451 25.7331 31.8934C24.9073 33.3231 23.0988 34.2238 20.9071 34.1654C21.0875 34.5212 21.3019 34.8841 21.5576 35.253C23.0025 37.3367 25.3049 38.0956 27.4512 37.9905C29.5681 37.8868 31.6983 36.9387 32.9251 35.3862C32.9754 35.3226 33.0244 35.258 33.0722 35.1925C33.1707 35.2012 33.2761 35.2104 33.3843 35.2197C33.8459 35.259 34.432 35.305 34.7067 35.305C37.9605 35.305 41.4921 33.6831 42.686 30.1689L43 29.2447L38.5748 27.6773L38.1691 28.4333C37.6464 29.4071 36.8024 29.9136 35.8914 30.1716C35.4007 30.3105 34.9065 30.3717 34.4664 30.3915C34.6126 27.6822 34.0513 24.4934 32.8077 21.6142C33.1825 21.3748 33.5302 21.1001 33.8746 20.759C34.4482 20.1908 34.9855 19.465 35.6255 18.4856C37.0465 16.3113 37.8617 13.3948 36.9097 9.94652Z" fill="black"/>
<path fill-rule="evenodd" clip-rule="evenodd" d="M20.1686 32.106C22.2472 32.4447 23.5712 31.6453 23.9983 30.906C24.4766 30.0776 24.2 29.3505 23.6309 29.0373L23.0261 28.7045L23.1264 28.0253C23.2104 27.4566 23.2056 26.8962 23.1118 26.3609L23.0151 25.8088L23.4414 25.4414C24.2728 24.7248 24.3212 23.8184 23.9649 23.3262C23.5926 22.8117 22.6457 22.5418 21.645 23.0532L21.1692 23.2964L20.7014 23.0383C20.2058 22.7648 19.6537 22.5637 19.0624 22.4413L18.3969 22.3034L18.2813 21.6384C18.2188 21.2787 17.965 20.9343 17.5418 20.7558C17.2714 20.6418 16.9319 20.5955 16.5289 20.656C16.1399 20.7144 15.7114 20.9963 15.4199 21.4506C15.1318 21.8993 15.0547 22.3948 15.1906 22.7998L15.1728 22.8057C15.6674 23.5344 16.2321 24.242 16.8022 24.8957L16.7757 24.9226C16.4681 25.2353 16.1148 25.6098 15.7645 25.9853L15.7581 25.9922L15.7518 25.9992C15.2046 26.6082 14.0667 27.4998 12.6352 27.9505C11.2781 28.3778 9.42532 28.4129 7.66209 27.4249L6.65244 26.8591L5 31.1335L5.75095 31.5543C8.82438 33.2764 11.5916 33.2433 14.0562 32.4673C16.4088 31.7265 18.2529 30.3189 19.3057 29.1609C19.4514 29.0274 19.5968 28.8845 19.728 28.7551C19.735 28.7954 19.7416 28.8365 19.7481 28.8784C19.7989 29.2096 19.8278 29.5307 19.8608 29.896C19.8804 30.1142 19.9015 30.348 19.9295 30.6092C19.9798 31.0785 20.0487 31.5793 20.1686 32.106ZM20.4346 28.1219C20.4346 28.1219 20.4302 28.1235 20.4204 28.1291L20.4182 28.1304C20.4287 28.1257 20.4346 28.1219 20.4346 28.1219Z" fill="black"/>
</svg>
