<svg width="48" height="48" viewBox="0 0 48 48" fill="none" xmlns="http://www.w3.org/2000/svg">
<path d="M19.75 11C19.75 11.4142 19.4142 11.75 19 11.75C18.5858 11.75 18.25 11.4142 18.25 11C18.25 10.5858 18.5858 10.25 19 10.25C19.4142 10.25 19.75 10.5858 19.75 11Z" fill="black"/>
<path d="M21.25 14.5C21.25 15.3284 20.5784 16 19.75 16C18.9216 16 18.25 15.3284 18.25 14.5C18.25 13.6716 18.9216 13 19.75 13C20.5784 13 21.25 13.6716 21.25 14.5Z" fill="black"/>
<path fill-rule="evenodd" clip-rule="evenodd" d="M24.3022 4.00333L24.2663 8.61535L24.2651 8.61526C25.28 9.2254 26.0143 10.3035 26.0042 11.6562C26.6253 12.3349 27.0174 13.2494 26.9997 14.2841C26.9745 15.7595 26.0548 17.4851 24.2496 17.9066C24.2495 17.9067 24.2497 17.9066 24.2496 17.9066L24.2406 20.6V20.6018C24.2406 20.8112 24.236 20.9864 24.2319 21.1433C24.2253 21.3953 24.2199 21.6005 24.2366 21.8246C24.2601 22.1391 24.3237 22.2981 24.409 22.4041C24.5238 22.5468 24.6141 22.5776 24.7205 22.5873C24.8769 22.6017 25.1069 22.5657 25.462 22.4498C25.6326 22.3941 25.8108 22.3275 26.0087 22.2525L26.0697 22.2293C26.2452 22.1627 26.4364 22.0901 26.6276 22.0241C27.0464 21.8795 27.5544 21.7332 28.0819 21.7332C31.3281 21.7332 33.211 24.3846 34.4034 26.6112C35.9096 29.4238 35.8464 32.9285 34.2418 35.6821C33.1992 37.4711 31.8461 39.0574 29.7708 39.9023C26.7785 41.1205 23.4912 40.6434 20.8018 39.253C20.4276 39.0596 19.9173 39.3511 19.9173 39.8101V44H12.46V39.9846C12.46 39.0971 12.625 38.2176 12.9464 37.3928C13.69 35.4849 14.7249 34.5119 16.047 33.9391C16.6676 33.6703 17.3299 33.4988 17.9808 33.3437C18.1124 33.3123 18.2439 33.2816 18.3756 33.2507C18.9129 33.125 19.4546 32.9982 20.0349 32.8244C20.7428 32.6124 21.3035 32.0495 21.5135 31.4305C21.706 30.8628 21.6166 30.2335 20.9786 29.6932C20.85 29.5843 20.717 29.4738 20.5811 29.3609C19.6455 28.5836 18.5721 27.6917 17.8561 26.4286C16.8299 24.6181 16.8352 22.6788 16.84 20.9473C16.8403 20.8306 16.8406 20.7147 16.8406 20.6V18.0051C16.8403 18.0049 16.84 18.0046 16.8396 18.0043C15.7203 17.1353 15 15.7768 15 14.25C15 13.744 15.1091 13.2311 15.2626 12.771C15.1172 12.4168 15 11.9824 15 11.5C15 10.01 15.7241 8.68921 16.8396 7.87023C16.84 7.86994 16.8404 7.86964 16.8408 7.86935V4L24.3022 4.00333ZM23.8367 12.1228C23.8502 12.0362 23.8571 11.9475 23.8571 11.8571C23.8571 10.9104 23.0896 10.1428 22.1429 10.1428C21.912 10.1428 21.6919 10.1884 21.4909 10.2712C21.4472 10.2891 21.4045 10.3088 21.3627 10.3302C21.3364 10.273 21.3078 10.2171 21.2769 10.1626C20.8846 9.46854 20.1399 9 19.2857 9C18.0233 9 17 10.0234 17 11.2857C17 11.7869 17.1613 12.2503 17.4348 12.6271C17.1593 13.0664 17 13.586 17 14.1428C17 15.7208 18.2792 17 19.8571 17C20.7799 17 21.6005 16.5626 22.1228 15.8837C22.1998 15.7837 22.2703 15.6785 22.3337 15.5686C22.3965 15.6107 22.4622 15.6486 22.5305 15.6822C22.7583 15.7942 23.0147 15.8571 23.2857 15.8571C24.2325 15.8571 25 15.0896 25 14.1428C25 13.4865 24.6312 12.9163 24.0895 12.6282C23.9787 12.5693 23.8607 12.5222 23.7371 12.4886C23.7832 12.3723 23.8169 12.2499 23.8367 12.1228Z" fill="black"/>
</svg>
