<svg width="48" height="48" viewBox="0 0 48 48" fill="none" xmlns="http://www.w3.org/2000/svg">
<path fill-rule="evenodd" clip-rule="evenodd" d="M30.1413 11.1136C29.5621 10.6618 29.4157 10.2507 29.3714 9.97422V6H19.6V8.27879C20.432 8.36764 21.1053 8.69338 21.6132 9.17027C22.3315 9.84472 22.6286 10.7399 22.6397 11.3962C22.6584 12.4949 22.0034 13.466 21.0386 13.871C20.9659 14.0215 20.8861 14.1689 20.7992 14.3126C20.9772 15.3428 20.5358 16.4309 19.5906 17.0132C19.2033 17.2419 18.8005 17.3569 18.6475 17.3858C17.5487 17.5463 16.51 16.9961 15.9831 16.0927C15.824 16.0384 15.6679 15.9767 15.5154 15.9081C14.5155 16.217 13.3886 15.8935 12.6956 15.0398C12.3304 14.5899 12.0159 13.8546 12.0266 13.0162C10.9968 13.3538 9.86489 13.8864 8.8588 14.7024C7.24865 16.0083 6 18.0142 6 20.9394V32.0154H11.5333V20.1518C11.5246 20.0953 11.52 20.0374 11.52 19.9784C11.52 19.9195 11.5246 19.8616 11.5333 19.8051V19.7573C11.5356 19.7487 11.5395 19.7355 11.5458 19.7183C11.5494 19.7084 11.5535 19.6982 11.558 19.6878C11.6863 19.2083 12.1244 18.8552 12.645 18.8552C13.1148 18.8552 13.5173 19.1426 13.6857 19.551C13.7368 19.6437 13.7714 19.763 13.7714 19.901V30.7201C13.9038 30.6809 14.038 30.6472 14.1713 30.6199C14.66 30.52 15.4368 30.4434 16.0681 30.8247C16.8869 31.3193 17.2945 32.2354 17.1196 33.1222C17.1551 33.1848 17.189 33.2484 17.2213 33.3129C18.0403 33.6851 18.6426 34.5021 18.5607 35.5048C18.4795 36.4986 17.761 37.2234 16.8995 37.4882C16.8503 37.5589 16.7991 37.6281 16.7459 37.6956C16.7794 38.6009 16.2215 39.4386 15.3683 39.8195C14.9523 40.0052 14.5307 39.9846 14.2132 39.9196C14.0606 39.8884 13.9124 39.8432 13.7714 39.7892V41.9445H31.1524L34.2 42V32.3177C34.0659 32.3885 33.9281 32.4554 33.788 32.5174C33.3675 32.7034 32.8968 32.858 32.4231 32.9239C31.9591 32.9886 31.4103 32.9792 30.9 32.7448C29.6388 32.1655 28.8294 30.9097 29.0539 29.6002C28.8701 29.381 28.7011 29.1508 28.5488 28.9105C27.2207 28.5722 26.052 27.4385 26 25.9692C26.052 24.4999 27.2207 23.4085 28.5488 23.0702C28.7011 22.8299 28.8701 22.5997 29.0539 22.3805C28.8294 21.071 29.6388 19.8152 30.9 19.2359C31.4103 19.0015 31.9591 18.9922 32.4231 19.0568C32.8968 19.1227 33.3675 19.2773 33.788 19.4633C33.9341 19.528 34.0777 19.598 34.2171 19.672C34.2362 19.5988 34.2706 19.5338 34.3166 19.4798C34.5005 19.1096 34.883 18.8552 35.325 18.8552C35.8018 18.8552 36.2094 19.1514 36.3731 19.5696C36.411 19.6199 36.4375 19.6727 36.4542 19.7183C36.4605 19.7355 36.4644 19.7487 36.4667 19.7573V32.0154H42V20.9394C42 18.0142 40.7513 16.0083 39.1412 14.7024C37.5683 13.4268 35.688 12.8437 34.3709 12.6156C32.0425 12.2124 30.7984 11.6264 30.1413 11.1136ZM26.0001 13.9877C26.0001 14.5391 25.5524 14.9861 25.0001 14.9861C24.4478 14.9861 24.0001 14.5391 24.0001 13.9877C24.0001 13.4362 24.4478 12.9892 25.0001 12.9892C25.5524 12.9892 26.0001 13.4362 26.0001 13.9877ZM24.0001 16.983C24.0001 17.5345 23.5524 17.9815 23.0001 17.9815C22.4478 17.9815 22.0001 17.5345 22.0001 16.983C22.0001 16.4316 22.4478 15.9846 23.0001 15.9846C23.5524 15.9846 24.0001 16.4316 24.0001 16.983ZM19.25 32.7088C19.8023 32.7088 20.25 32.2618 20.25 31.7103C20.25 31.1589 19.8023 30.7119 19.25 30.7119C18.6977 30.7119 18.25 31.1589 18.25 31.7103C18.25 32.2618 18.6977 32.7088 19.25 32.7088ZM20.75 35.4794C21.3023 35.4794 21.75 35.0324 21.75 34.481C21.75 33.9295 21.3023 33.4825 20.75 33.4825C20.1977 33.4825 19.75 33.9295 19.75 34.481C19.75 35.0324 20.1977 35.4794 20.75 35.4794ZM27.858 32.1383C28.401 32.2391 28.7593 32.7603 28.6584 33.3024C28.5574 33.8446 28.0354 34.2024 27.4924 34.1016C26.9494 34.0008 26.5911 33.4796 26.6921 32.9374C26.793 32.3953 27.315 32.0375 27.858 32.1383ZM27.1491 30.4833C27.25 29.9412 26.8917 29.42 26.3487 29.3192C25.8057 29.2184 25.2837 29.5762 25.1828 30.1183C25.0818 30.6604 25.4402 31.1816 25.9832 31.2824C26.5261 31.3832 27.0481 31.0255 27.1491 30.4833Z" fill="currentColor"/>
<path d="M34.2 22.0761L34.1727 22.0946C34.1429 22.0508 34.0253 21.9214 33.7839 21.7475C33.5579 21.5848 33.2762 21.4211 32.9778 21.2891C32.6766 21.1558 32.3884 21.0682 32.1468 21.0345C31.8954 20.9995 31.7726 21.0332 31.7359 21.05C31.0231 21.3774 30.9426 21.9162 31.0834 22.2274L31.3683 22.8569L30.8788 23.345C30.5443 23.6786 30.2722 24.0444 30.0698 24.4302L29.823 24.9004L29.2946 24.9592C28.4258 25.0557 28.0135 25.614 28.0002 25.9903C28.0135 26.3666 28.4258 26.925 29.2946 27.0215L29.823 27.0803L30.0698 27.5505C30.2722 27.9363 30.5443 28.3021 30.8788 28.6357L31.3683 29.1238L31.0834 29.7533C30.9426 30.0645 31.0231 30.6033 31.7359 30.9307C31.7726 30.9475 31.8954 30.9812 32.1468 30.9462C32.3884 30.9125 32.6766 30.8249 32.9778 30.6916C33.2762 30.5596 33.5579 30.3959 33.7839 30.2332C34.0253 30.0593 34.1429 29.9299 34.1727 29.8861L34.2 29.9046V22.0761Z" fill="currentColor"/>
<path d="M13.7714 37.4844L13.8107 37.4628L13.808 37.4578L13.8068 37.4555C13.8068 37.4555 13.8403 37.5012 13.9312 37.5811C14.0297 37.6676 14.1563 37.7581 14.2903 37.8319C14.4273 37.9073 14.5403 37.948 14.6138 37.9632C14.677 37.9225 14.7114 37.8758 14.7284 37.8398C14.7497 37.7943 14.7489 37.7569 14.7375 37.7245L14.5277 37.1307L14.9739 36.6857C15.0643 36.5956 15.1465 36.5003 15.2198 36.4007C15.2855 36.3116 15.3441 36.2191 15.3953 36.1239L15.6553 35.6402L16.2036 35.6002C16.3235 35.5915 16.4214 35.544 16.4847 35.4869C16.5462 35.4314 16.5643 35.3792 16.5673 35.3425C16.5701 35.3081 16.5618 35.2684 16.5231 35.2223C16.4818 35.173 16.4057 35.1198 16.2934 35.0986L15.7267 34.9918L15.5354 34.4486C15.4627 34.242 15.3563 34.0445 15.2187 33.8619L14.8341 33.3512L15.1373 32.7885C15.1615 32.7437 15.1626 32.7051 15.1527 32.6709C15.1436 32.6395 15.1186 32.5912 15.0524 32.5458C15.0397 32.5431 15.0137 32.5386 14.9708 32.5365C14.8726 32.5318 14.7365 32.5427 14.5725 32.5763C14.231 32.6461 13.9162 32.7824 13.7717 32.8762L13.7714 37.4844Z" fill="currentColor"/>
<path d="M14.1491 12.5208C14.0801 12.6659 14.0484 12.7984 14.035 12.9109C13.9878 13.309 14.1462 13.6554 14.2493 13.7824C14.4608 14.0429 14.8065 14.0871 15.0437 13.9474L15.5432 13.6532L16.047 13.9401C16.3245 14.0981 16.6233 14.217 16.9345 14.2915L17.4833 14.4228L17.6544 14.9598C17.7515 15.2645 18.0459 15.5052 18.358 15.4099C18.435 15.3864 18.4754 15.3613 18.5404 15.3138C18.8035 15.1211 18.9114 14.8131 18.7896 14.5174L18.5749 13.9962L18.9108 13.5434C19.1013 13.2866 19.2535 13.0038 19.3644 12.7046L19.5657 12.1616L20.1378 12.0663C20.4094 12.0211 20.6457 11.7653 20.64 11.4301C20.6372 11.2667 20.5356 10.8996 20.2431 10.625C20.0814 10.4731 19.8165 10.3077 19.3759 10.2625C19.2598 10.4337 19.0833 10.6265 18.814 10.8332C18.1033 11.3788 16.7376 12.0243 14.1491 12.5208Z" fill="currentColor"/>
</svg>
