<svg width="48" height="48" viewBox="0 0 48 48" fill="none" xmlns="http://www.w3.org/2000/svg">
<path fill-rule="evenodd" clip-rule="evenodd" d="M21.5843 10.1866L21.5782 10.192C21.574 10.1188 21.5699 10.0413 21.5655 9.959L21.557 9.80185C21.5211 9.14308 21.4654 8.14621 21.0592 7.35858C20.8386 6.9308 20.4962 6.52275 19.9758 6.26477C19.4613 6.00975 18.8729 5.951 18.2451 6.03719C17.6884 6.11361 17.1945 6.33714 16.8048 6.71355C16.4227 7.08255 16.1958 7.54475 16.0709 8.01665C15.8286 8.93245 15.9315 10.0267 16.1819 11.0801C16.6881 13.2097 17.9194 15.6662 19.304 17.3372C19.8367 17.9802 20.0001 18.9489 20.0001 19.3662L20.0001 21.5637L22.0001 22.0622V20.7512C22.8826 20.4243 23.4787 20.2748 24.0377 20.2634C24.5797 20.2523 25.1583 20.371 26.0002 20.7178V22.0622L28.0002 21.5637L28.0002 19.3662C28.0002 18.9489 28.1636 17.9802 28.6963 17.3372C30.0716 15.6774 31.3643 13.2319 31.9359 11.1086C32.218 10.0607 32.3593 8.96687 32.1475 8.04776C32.0381 7.57302 31.8243 7.10215 31.4454 6.72451C31.0583 6.33883 30.5622 6.11373 30.0046 6.03719C29.3767 5.951 28.7883 6.00975 28.2739 6.26477C27.7535 6.52275 27.4111 6.9308 27.1905 7.35858C26.7843 8.14621 26.7286 9.14308 26.6926 9.80185L26.6842 9.95898C26.6798 10.0413 26.6757 10.1188 26.6714 10.192L26.6653 10.1866C26.1879 9.76268 25.5561 9.6183 25.1303 9.55609C24.8042 9.50845 24.4873 9.49516 24.2495 9.49147V9.49005L24.237 9.49005C24.2037 9.49005 24.1661 9.49004 24.1248 9.49024C24.0836 9.49004 24.046 9.49005 24.0127 9.49005L24.0001 9.49005V9.49147C23.7623 9.49516 23.4455 9.50845 23.1194 9.55609C22.6935 9.6183 22.0617 9.76268 21.5843 10.1866ZM22.9147 11.6753C22.9147 11.6753 22.9236 11.668 22.9436 11.657C22.958 11.6491 22.9766 11.64 23 11.6303V16.0809H25V11.5569C25.0782 11.5734 25.1466 11.5922 25.2044 11.6128C25.2503 11.6292 25.2834 11.6446 25.306 11.657C25.3261 11.6681 25.3351 11.6754 25.3351 11.6754C25.7584 12.0513 26.188 12.3683 26.6192 12.5121C26.8509 12.5894 27.1459 12.6382 27.4634 12.5609C27.7982 12.4795 28.0479 12.2849 28.2165 12.0666C28.5014 11.6975 28.5781 11.2267 28.6142 10.9439C28.6499 10.665 28.6668 10.3435 28.6821 10.0519L28.6897 9.91023C28.7303 9.16637 28.7917 8.61425 28.9692 8.27023C29.0404 8.13218 29.1065 8.07872 29.1644 8.05001C29.2283 8.01832 29.3882 7.96517 29.7317 8.01233C29.9126 8.03716 29.9901 8.09339 30.0314 8.13459C30.0808 8.18382 30.1501 8.28534 30.1982 8.4941C30.3014 8.94198 30.2552 9.65956 30.0042 10.5919C29.5096 12.429 28.354 14.6197 27.1543 16.0675C26.4846 16.8758 26.183 17.8672 26.0652 18.6134C25.3508 18.3758 24.6865 18.2559 23.9967 18.27C23.3163 18.2839 22.6533 18.4286 21.9421 18.6588C21.8294 17.9077 21.5293 16.8923 20.846 16.0675C19.6556 14.6309 18.5632 12.4512 18.128 10.6204C17.9077 9.69353 17.8854 8.9764 18.0048 8.52521C18.0607 8.31362 18.1364 8.20341 18.1964 8.14554C18.2486 8.09508 18.3362 8.03727 18.5179 8.01233C18.8615 7.96517 19.0213 8.01832 19.0853 8.05001C19.1432 8.07872 19.2093 8.13218 19.2805 8.27023C19.4579 8.61425 19.5194 9.16637 19.56 9.91023L19.5675 10.0518C19.5829 10.3435 19.5998 10.665 19.6354 10.9439C19.6716 11.2267 19.7483 11.6975 20.0332 12.0666C20.2017 12.2849 20.4514 12.4795 20.7862 12.5609C21.1037 12.6382 21.3987 12.5894 21.6304 12.5121C22.0616 12.3683 22.4914 12.0512 22.9147 11.6753Z" fill="black"/>
<path fill-rule="evenodd" clip-rule="evenodd" d="M23.9621 35.8237C23.4202 35.8348 22.8418 35.7161 22.0001 35.3695V33.6926L20.0001 35.8525L20.0001 38.0124C20.0001 40.2147 21.7909 42 24 42C26.2091 42 28 40.2148 28 38.0125L28.0002 35.8525L26.0002 33.6925L26.0002 35.3357C25.1174 35.6628 24.5212 35.8123 23.9621 35.8237ZM24 40.0062C22.8955 40.0062 22 39.1136 22 38.0125L22.0001 37.4952C22.6898 37.7185 23.3344 37.8308 24.0032 37.8171C24.6651 37.8036 25.3107 37.6663 26.0002 37.4468V38.0124C26.0002 39.1136 25.1046 40.0062 24 40.0062Z" fill="black"/>
<path fill-rule="evenodd" clip-rule="evenodd" d="M14.7737 14.8098C14.1689 13.3087 13.3531 12.1756 12.3616 11.5515C11.3166 10.8936 10.1337 10.8474 9.08109 11.4511C8.08973 12.0198 7.32798 13.0954 6.81647 14.4634C6.29877 15.848 6 17.6254 6 19.7514V29.9069C6 30.7533 6.16409 32.7134 7.11703 34.5005C8.10675 36.3565 9.95499 38.0126 13.1538 38.0126C14.749 38.0126 15.9399 37.5632 16.9064 36.8651C17.7711 36.2405 18.4321 35.4276 19.0057 34.7222L19.122 34.5793C19.7516 33.8073 20.3099 33.1551 21.0392 32.6747C21.7389 32.2139 22.646 31.882 24 31.882C25.354 31.882 26.2611 32.2139 26.9608 32.6747C27.6901 33.1551 28.2484 33.8073 28.878 34.5793L28.9943 34.7222C29.3069 35.1067 29.6456 35.5231 30.029 35.9236C29.9983 35.3961 30.0455 34.8618 30.1512 34.3748C30.3069 33.6577 30.643 32.815 31.2614 32.2579C31.2659 31.832 31.3041 31.4087 31.3776 30.9924C30.4267 29.6616 30.2188 27.8252 31.2998 26.5015C32.3906 25.166 34.2142 25.0498 35.6719 25.7713C36.0331 25.6357 36.4055 25.5298 36.7854 25.4528C37.4728 24.0408 39.093 23.3848 40.72 23.8094C41.141 23.9193 41.5769 24.1046 42 24.3627V19.7514C42 17.6254 41.7012 15.848 41.1835 14.4634C40.672 13.0954 39.9103 12.0198 38.9189 11.4511C37.8663 10.8474 36.6834 10.8936 35.6384 11.5515C34.6469 12.1756 33.8311 13.3087 33.2263 14.8098C33.0725 15.1916 32.9222 15.6031 32.7648 16.0336C32.2463 17.4527 31.652 19.0792 30.6076 20.5346C29.3136 22.3378 27.3638 23.7949 24 23.7949C20.6362 23.7949 18.6864 22.3378 17.3924 20.5346C16.348 19.0792 15.7537 17.4527 15.2352 16.0336C15.0778 15.6031 14.9275 15.1916 14.7737 14.8098ZM11 19.0716C11.5523 19.0716 12 18.6252 12 18.0747C12 17.5241 11.5523 17.0778 11 17.0778C10.4477 17.0778 10 17.5241 10 18.0747C10 18.6252 10.4477 19.0716 11 19.0716ZM14 22.0622C14 22.6128 13.5523 23.0591 13 23.0591C12.4477 23.0591 12 22.6128 12 22.0622C12 21.5117 12.4477 21.0653 13 21.0653C13.5523 21.0653 14 21.5117 14 22.0622ZM11 27.0467C11.5523 27.0467 12 26.6004 12 26.0498C12 25.4992 11.5523 25.0529 11 25.0529C10.4477 25.0529 10 25.4992 10 26.0498C10 26.6004 10.4477 27.0467 11 27.0467ZM17 31.0342C17 31.5848 16.5523 32.0311 16 32.0311C15.4477 32.0311 15 31.5848 15 31.0342C15 30.4837 15.4477 30.0373 16 30.0373C16.5523 30.0373 17 30.4837 17 31.0342ZM12 32.0311C12.5523 32.0311 13 31.5848 13 31.0342C13 30.4837 12.5523 30.0373 12 30.0373C11.4477 30.0373 11 30.4837 11 31.0342C11 31.5848 11.4477 32.0311 12 32.0311ZM17 27.0467C17 27.5972 16.5523 28.0436 16 28.0436C15.4477 28.0436 15 27.5972 15 27.0467C15 26.4961 15.4477 26.0498 16 26.0498C16.5523 26.0498 17 26.4961 17 27.0467ZM20 29.0405C20.5523 29.0405 21 28.5941 21 28.0436C21 27.493 20.5523 27.0467 20 27.0467C19.4477 27.0467 19 27.493 19 28.0436C19 28.5941 19.4477 29.0405 20 29.0405ZM36 18.0747C36 18.6252 36.4477 19.0716 37 19.0716C37.5523 19.0716 38 18.6252 38 18.0747C38 17.5241 37.5523 17.0778 37 17.0778C36.4477 17.0778 36 17.5241 36 18.0747ZM35 23.0591C34.4477 23.0591 34 22.6128 34 22.0622C34 21.5117 34.4477 21.0653 35 21.0653C35.5523 21.0653 36 21.5117 36 22.0622C36 22.6128 35.5523 23.0591 35 23.0591ZM27 28.0436C27 28.5941 27.4477 29.0405 28 29.0405C28.5523 29.0405 29 28.5941 29 28.0436C29 27.493 28.5523 27.0467 28 27.0467C27.4477 27.0467 27 27.493 27 28.0436ZM24 29.0405C24.5523 29.0405 25 28.5941 25 28.0436C25 27.493 24.5523 27.0467 24 27.0467C23.4477 27.0467 23 27.493 23 28.0436C23 28.5941 23.4477 29.0405 24 29.0405Z" fill="black"/>
<path d="M32.1981 36.6141C32.0699 36.3239 32.0047 35.9068 32.0225 35.4542C32.0309 35.2397 32.058 35.0172 32.1059 34.7966C32.2658 34.0602 32.5627 33.7344 32.6953 33.6729L33.3119 33.3871L33.2719 32.7104C33.2364 32.1092 33.2876 31.5252 33.424 30.9764L33.5527 30.4585L33.1919 30.0645C32.4329 29.2357 32.4479 28.2537 32.8508 27.7603C33.2364 27.2882 34.1305 27.0968 35.0447 27.7088L35.5134 28.0225L36.025 27.7845C36.5211 27.5538 37.0648 27.402 37.6398 27.3335L38.3265 27.2517L38.4921 26.5823C38.6479 25.9524 39.2827 25.4953 40.2133 25.7382C40.7818 25.8866 41.4773 26.3138 42 27.0329V29.9069C42 30.7533 41.8359 32.7134 40.883 34.5005C40.0546 36.054 38.6247 37.4674 36.3048 37.8869L36.3039 37.8823C35.5078 38.041 34.5352 37.9448 33.6951 37.651C32.8101 37.3415 32.3283 36.909 32.1981 36.6141Z" fill="black"/>
</svg>
