<svg width="24" height="24" viewBox="0 0 24 24" fill="none" xmlns="http://www.w3.org/2000/svg">
<path d="M19.995 3.33898C19.0551 2.7103 17.7835 2.98187 17.1802 3.94012L16.6274 4.81825C16.5245 4.67482 16.4094 4.53854 16.2823 4.41107C15.5647 3.69108 14.366 3.82804 13.8281 4.69148L11.7991 7.94845C11.6642 8.16501 11.5715 8.40532 11.5259 8.65659L11.1708 10.6164C10.5482 10.8023 9.83105 11.0537 9.15502 11.339C8.31152 11.6949 7.37288 12.1676 6.8228 12.7138L4.74408 14.6974H3.00043V16.7142H4.7444C5.26046 16.7142 5.75606 16.5151 6.12952 16.1588L8.22544 14.1588L8.23434 14.1499C8.47753 13.9059 9.08798 13.5552 9.93436 13.1981C10.7369 12.8595 11.6073 12.5737 12.2341 12.4126C12.6585 12.3036 12.971 11.9571 13.0473 11.5364L13.5038 9.01737L15.1713 6.34066C15.2523 6.58378 15.2608 6.84965 15.1885 7.10395L14.7149 7.85621C14.4185 8.32709 14.5587 8.94991 15.028 9.24731C15.4974 9.54471 16.1182 9.40408 16.4146 8.93319L18.8799 5.0171L18.9896 5.09049L18.1629 10.0669L14.6712 12.4024C14.1191 12.7716 13.6453 13.2469 13.2773 13.8008L12.2644 15.325C12.2394 15.3627 12.2182 15.3929 12.198 15.4197C12.0809 15.575 11.7506 16.0028 11.3292 16.4618C10.8935 16.9363 10.4224 17.3753 10.0253 17.6122C9.54217 17.9004 8.69382 18.1662 7.80994 18.374C6.95895 18.574 6.19372 18.6941 5.9533 18.7297C5.91756 18.735 5.88112 18.7393 5.83866 18.7433C5.61076 18.7645 4.95506 18.8254 4.31976 18.8808C4.00181 18.9086 3.69141 18.9348 3.44318 18.954C3.31884 18.9636 3.21287 18.9712 3.13067 18.9764C3.08954 18.979 3.05669 18.9808 3.03181 18.9819C3.01288 18.9828 3.00314 18.983 3.00027 18.9831C2.99966 18.9831 3.00027 18.9831 3.00027 18.9831L3.00044 21C3.20668 21 3.88874 20.9429 4.49404 20.8901C5.13538 20.8341 5.7958 20.7728 6.0249 20.7514C6.09656 20.7447 6.16949 20.7364 6.24712 20.7249C6.51489 20.6852 7.34114 20.5556 8.26855 20.3376C9.16307 20.1274 10.28 19.8067 11.0528 19.3457C11.7088 18.9544 12.3401 18.3375 12.8077 17.8283C13.2895 17.3036 13.663 16.8199 13.8016 16.636C13.8523 16.5687 13.897 16.5041 13.9371 16.4438L14.9499 14.9195C15.1708 14.5872 15.455 14.302 15.7863 14.0805L19.278 11.7451C19.7404 11.4358 20.0545 10.9484 20.1459 10.3985L20.9726 5.42206C21.1026 4.6392 20.763 3.85261 20.1047 3.41237L19.995 3.33898Z" fill="black"/>
</svg>
