<svg width="24" height="24" viewBox="0 0 24 24" fill="none" xmlns="http://www.w3.org/2000/svg">
<path fill-rule="evenodd" clip-rule="evenodd" d="M4 3.00002C3 3.00002 3 3.00076 3 3.00076L3.00001 3.00368L3.00003 3.00919L3.00017 3.02565C3.00032 3.03899 3.0006 3.05705 3.00112 3.07954C3.00217 3.12449 3.00418 3.18725 3.00807 3.26542C3.01582 3.42154 3.03108 3.64051 3.06121 3.90308C3.121 4.42413 3.2416 5.1371 3.48881 5.87874C3.86737 7.01443 4.60966 8.38513 6.02554 9.08394C5.93652 9.31622 5.87581 9.56236 5.8474 9.81801L5.76874 10.526C5.56576 12.3528 6.42799 14.1343 7.98666 15.1084L8.47882 15.416C9.19697 15.8649 9.6982 16.59 9.86428 17.4205L10.4214 20.2058C10.5719 20.9583 11.2326 21.5 12 21.5C12.7674 21.5 13.4281 20.9583 13.5786 20.2058L14.1357 17.4205C14.3018 16.59 14.803 15.8649 15.5212 15.416L16.0133 15.1084C17.572 14.1343 18.4342 12.3528 18.2313 10.526L18.1526 9.81801C18.129 9.60536 18.083 9.39928 18.017 9.2023C19.4279 8.5965 20.1562 7.18219 20.5154 6.05322C20.7614 5.2802 20.8807 4.52117 20.9397 3.96486C20.9695 3.68421 20.9845 3.4491 20.9921 3.28175C20.9959 3.19795 20.9979 3.13079 20.9989 3.08299C20.9994 3.05909 20.9997 3.03999 20.9998 3.02606L21 3.00905L21 3.00352L21 3.00152C21 3.00152 21 3.00002 20 3.00002C19 3.00002 19 2.99946 19 2.99946L18.9999 3.00553L18.9994 3.04058C18.9987 3.07335 18.9972 3.12435 18.9942 3.19094C18.9881 3.32438 18.9758 3.51895 18.9509 3.75392C18.9005 4.22886 18.8011 4.84484 18.6096 5.44681C18.2108 6.70012 17.5769 7.47774 16.5448 7.49955C16.3092 7.38027 16.0549 7.2912 15.7868 7.23757L15.6714 7.21449C13.2478 6.72977 10.7522 6.72977 8.3286 7.21449L8.21319 7.23757C7.95731 7.28875 7.71406 7.3722 7.48761 7.48338C6.39403 7.25906 5.76089 6.37044 5.38618 5.24629C5.1959 4.67544 5.09775 4.10716 5.04817 3.67508C5.02361 3.46108 5.01153 3.28553 5.00561 3.16625C5.00265 3.10673 5.00125 3.06158 5.00058 3.03304L5.00004 3.0031L5 2.99939C5 2.99939 5 3.00002 4 3.00002ZM8.72083 9.17565C10.8855 8.74272 13.1145 8.74272 15.2792 9.17566L15.3946 9.19874C15.8069 9.28119 16.1184 9.62099 16.1648 10.0389L16.2435 10.7469C16.2529 10.8315 16.2584 10.9159 16.26 11H7.73998C7.74163 10.9159 7.7471 10.8315 7.75651 10.7469L7.83517 10.0389C7.8816 9.62099 8.19313 9.28119 8.60543 9.19874L8.72083 9.17565ZM8.53359 13C8.68565 13.1553 8.85732 13.2941 9.04666 13.4124L9.53882 13.72C10.7241 14.4608 11.5513 15.6577 11.8254 17.0282L12 17.901L12.1746 17.0282C12.4487 15.6577 13.2759 14.4608 14.4612 13.72L14.9533 13.4124C15.1427 13.2941 15.3144 13.1553 15.4664 13H8.53359Z" fill="black"/>
</svg>
