<svg width="24" height="24" viewBox="0 0 24 24" fill="none" xmlns="http://www.w3.org/2000/svg">
<path d="M7.58299 7.5758C7.4172 7.76147 7.42589 7.88967 7.46684 7.98927C7.52925 8.14105 7.73923 8.38007 8.20322 8.56574C8.65375 8.74602 9.22517 8.82407 9.79409 8.76671C10.3677 8.70889 10.8326 8.52477 11.1166 8.30272C11.3954 8.08476 11.4138 7.91195 11.4035 7.83531C11.3899 7.7338 11.2906 7.51637 10.9081 7.30143L11.6328 5.99508C12.2568 6.34571 12.7784 6.90408 12.8767 7.63449C12.9784 8.38976 12.5917 9.04412 12.0286 9.48428C11.4709 9.92035 10.7189 10.1771 9.94228 10.2554C9.16099 10.3342 8.34764 10.2336 7.65392 9.95605C6.97366 9.68384 6.36362 9.2192 6.09312 8.56135C5.80117 7.8513 5.98843 7.12311 6.47721 6.57573C6.74852 6.2719 7.09897 6.03458 7.48073 5.85994L8.09594 7.22201C7.85754 7.33107 7.68879 7.45732 7.58299 7.5758Z" fill="black"/>
<path d="M6.76818 15.7762C6.7186 15.792 6.64816 15.8241 6.56183 15.883L5.86576 14.948C6.07047 14.8082 6.30284 14.6942 6.55041 14.6387C7.0054 14.5367 7.49397 14.6486 7.78071 15.0592C8.03097 15.4176 8.03334 15.8759 7.94003 16.2711C7.84282 16.6828 7.62759 17.0994 7.3439 17.4517C7.06309 17.8004 6.70169 18.1024 6.30494 18.2639C5.90822 18.4254 5.39917 18.4654 5.00335 18.1489C4.63064 17.8509 4.55216 17.3859 4.5929 16.992L5.81137 17.0715C5.80497 17.1334 5.80689 17.1803 5.81153 17.2135C5.82292 17.2099 5.83576 17.2053 5.85003 17.1995C5.99252 17.1415 6.19073 16.9983 6.37876 16.7648C6.56391 16.5348 6.69243 16.2747 6.74561 16.0495C6.77184 15.9384 6.77594 15.8521 6.77009 15.7924C6.76952 15.7866 6.76888 15.7812 6.76818 15.7762Z" fill="black"/>
<path fill-rule="evenodd" clip-rule="evenodd" d="M15.866 7.98728C15.866 6.28643 14.8385 4.99077 13.677 4.21149C12.5016 3.42291 10.9921 3 9.42369 3C7.85532 3 6.34577 3.42291 5.17041 4.21149C4.00891 4.99077 2.9814 6.28643 2.9814 7.98728C2.9814 9.68814 4.00891 10.9838 5.17041 11.7631C5.37619 11.9011 5.59223 12.028 5.81702 12.1433C5.6588 12.2048 5.50941 12.2721 5.37104 12.3423C5.24644 12.4056 5.124 12.4739 5.00405 12.5467C4.41514 12.9042 3.86756 13.3821 3.39858 13.9516C2.67646 14.8285 2.18038 15.8769 2.03935 16.9343C1.9027 17.9589 2.08382 19.3254 3.19435 20.2516C4.30488 21.1779 5.67273 21.1033 6.64774 20.7779C7.65402 20.4421 8.5855 19.7569 9.30762 18.88C9.99554 18.0446 10.4749 17.0583 10.6425 16.0593C10.7983 15.1297 10.7123 13.9174 9.89725 12.9617C11.2939 12.8853 12.6204 12.4719 13.677 11.7631C14.8385 10.9838 15.866 9.68814 15.866 7.98728ZM9.42369 4.99491C11.8869 4.99491 13.8837 6.33464 13.8837 7.98728C13.8837 9.63992 11.8869 10.9797 9.42369 10.9797C6.96047 10.9797 4.96364 9.63992 4.96364 7.98728C4.96364 6.33464 6.96047 4.99491 9.42369 4.99491ZM6.0279 14.2549C5.6399 14.4905 5.25973 14.8178 4.92482 15.2246C3.87885 16.4947 3.67039 18.0577 4.45921 18.7156C5.24803 19.3736 6.73541 18.8772 7.78138 17.607C8.77499 16.4004 9.01283 14.9296 8.35794 14.2214C8.32344 14.1841 8.28646 14.1489 8.24698 14.1159C7.76184 13.7113 7.01246 13.7433 6.26405 14.1234C6.18522 14.1634 6.1064 14.2073 6.0279 14.2549Z" fill="black"/>
<path d="M17.1984 15.5745C17.1125 15.561 17.048 15.562 17.0051 15.5679L17.0094 15.5808C17.0261 15.6279 17.0597 15.6915 17.1187 15.7657C17.2384 15.9164 17.4273 16.0664 17.6481 16.1734C17.8724 16.282 18.0723 16.3189 18.2002 16.3116C18.213 16.3108 18.2243 16.3097 18.2342 16.3083C18.2259 16.2816 18.2108 16.2456 18.1841 16.2013L19.0742 15.705C19.2441 15.9872 19.3494 16.3657 19.1739 16.7238C18.9876 17.104 18.5899 17.2562 18.2338 17.2766C17.8777 17.2969 17.4986 17.1988 17.1637 17.0366C16.8254 16.8728 16.5159 16.6359 16.2971 16.3605C16.087 16.0961 15.9267 15.7499 15.9886 15.3902C16.0595 14.9781 16.3881 14.7189 16.767 14.6328C16.9731 14.5859 17.1886 14.5886 17.3923 14.6206L17.1984 15.5745Z" fill="black"/>
<path fill-rule="evenodd" clip-rule="evenodd" d="M13.3651 16.4565C13.0594 15.5272 13.0562 14.3024 13.9034 13.2753C14.7507 12.2481 16.0139 11.9453 17.048 11.9915C18.0926 12.0381 19.1266 12.4281 19.9847 13.0528C20.5411 13.4579 21.0048 13.9472 21.3472 14.4863C21.4169 14.596 21.4819 14.7084 21.5419 14.8232C22.0729 15.8402 22.322 17.3692 21.2733 18.6406C21.1923 18.7388 21.1058 18.8319 21.0144 18.9196C20.1241 19.7744 18.9396 19.9904 17.9692 19.9146C16.9818 19.8375 16.0092 19.458 15.192 18.8631C14.3339 18.2384 13.6739 17.3951 13.3651 16.4565ZM19.5883 15.4981C19.3797 15.1697 19.0862 14.8554 18.7186 14.5877C17.5705 13.7519 16.1337 13.6878 15.5095 14.4445C14.8853 15.2013 15.31 16.4923 16.4581 17.3282C17.5488 18.1222 18.8999 18.2198 19.5675 17.5788C19.6027 17.5451 19.636 17.5092 19.6672 17.4714C20.0511 17.0059 20.0382 16.3384 19.7044 15.699C19.6692 15.6316 19.6305 15.5646 19.5883 15.4981Z" fill="black"/>
<path fill-rule="evenodd" clip-rule="evenodd" d="M16.4895 8.57601C16.3094 9.19878 16.5184 9.79803 16.8624 10.2374C17.2075 10.6782 17.7233 11.0149 18.3148 11.1882C18.9063 11.3614 19.5211 11.3556 20.0473 11.17C20.5719 10.985 21.0677 10.5921 21.2478 9.96935C21.4278 9.34657 21.2189 8.74733 20.8748 8.30795C20.5297 7.86719 20.0139 7.53041 19.4224 7.3572C18.8309 7.184 18.2161 7.18972 17.6899 7.37533C17.1653 7.56035 16.6695 7.95323 16.4895 8.57601ZM18.7302 9.75155C18.4019 9.65542 18.1625 9.48038 18.0301 9.31134C17.8967 9.14093 17.9059 9.03241 17.917 8.99401C17.9281 8.9556 17.9782 8.85907 18.1816 8.7873C18.3834 8.71612 18.6788 8.69768 19.0071 8.79381C19.3353 8.88994 19.5748 9.06498 19.7071 9.23401C19.8406 9.40443 19.8314 9.51294 19.8203 9.55135C19.8092 9.58975 19.7591 9.68629 19.5556 9.75805C19.3538 9.82924 19.0584 9.84767 18.7302 9.75155Z" fill="black"/>
</svg>
