<svg width="24" height="24" viewBox="0 0 24 24" fill="none" xmlns="http://www.w3.org/2000/svg">
<path d="M10.0979 14.6181C9.92721 14.0928 9.36305 13.8054 8.8378 13.9761C8.31254 14.1467 8.02509 14.7109 8.19576 15.2361C8.45679 16.0395 8.96545 16.7396 9.64884 17.2361C10.3322 17.7326 11.1553 18.0001 12 18.0001C12.5523 18.0001 13 17.5524 13 17.0001C13 16.4478 12.5523 16.0001 12 16.0001C11.5776 16.0001 11.1661 15.8664 10.8244 15.6181C10.4827 15.3698 10.2284 15.0198 10.0979 14.6181Z" fill="black"/>
<path fill-rule="evenodd" clip-rule="evenodd" d="M12 2.62109L11.3091 3.27707L11.3047 3.28133L11.2893 3.29604C11.2763 3.30857 11.2578 3.3265 11.2341 3.34965C11.1867 3.39594 11.1186 3.4631 11.0327 3.54952C10.8611 3.72229 10.6182 3.97242 10.3278 4.28697C9.74798 4.91492 8.97332 5.80542 8.19641 6.85438C6.68297 8.89777 5 11.7525 5 14.5051C5 18.1731 8.21859 21.0001 12 21.0001C15.7814 21.0001 19 18.1731 19 14.5051C19 11.7525 17.317 8.89777 15.8036 6.85438C15.0267 5.80542 14.252 4.91492 13.6722 4.28697C13.3818 3.97242 13.1389 3.72229 12.9673 3.54952C12.8814 3.4631 12.8133 3.39594 12.7659 3.34965C12.7422 3.3265 12.7237 3.30857 12.7107 3.29604L12.6953 3.28133L12.6909 3.27707L12 2.62109ZM11.7972 5.64372C11.8681 5.56697 11.9358 5.49443 12 5.42634C12.0642 5.49443 12.1319 5.56697 12.2028 5.64372C12.748 6.2342 13.4733 7.06845 14.1964 8.04474C15.683 10.0519 17 12.4496 17 14.5051C17 16.9067 14.846 19.0001 12 19.0001C9.15399 19.0001 7 16.9067 7 14.5051C7 12.4496 8.31703 10.0519 9.80359 8.04474C10.5267 7.06845 11.252 6.2342 11.7972 5.64372Z" fill="black"/>
</svg>
