<svg width="24" height="24" viewBox="0 0 24 24" fill="none" xmlns="http://www.w3.org/2000/svg">
<path fill-rule="evenodd" clip-rule="evenodd" d="M13.2101 14.75C12.8463 14.3588 12.4383 14.0361 11.9891 13.7385L12.064 13.6974C12.604 13.4008 13.2235 13.0605 13.8512 12.6241C14.3487 13.0265 14.8256 13.5018 15.2479 14.086C16.3488 15.6089 17 17.7455 17 21H15C15 20.3585 14.9725 19.7775 14.9218 19.25H7.07823C7.02746 19.7775 7 20.3585 7 21H5C5 17.7455 5.6512 15.6089 6.75208 14.086C7.82184 12.6062 9.24177 11.8255 10.4588 11.1564L10.5181 11.1238C11.5758 10.542 12.4817 10.0333 13.2101 9.25H8.78988C9.15367 9.64123 9.56173 9.96395 10.0109 10.2615L9.93599 10.3026C9.39601 10.5992 8.77653 10.9395 8.14879 11.3759C7.65133 10.9735 7.17442 10.4982 6.75208 9.91397C5.6512 8.39109 5 6.25454 5 3H7C7 3.64151 7.02746 4.22251 7.07823 4.75H14.9218C14.9725 4.22251 15 3.64151 15 3H17C17 6.25454 16.3488 8.39109 15.2479 9.91397C14.1782 11.3938 12.7582 12.1745 11.5412 12.8436L11.4819 12.8762C10.4242 13.458 9.51829 13.9667 8.78988 14.75L13.2101 14.75ZM14.1978 16.25L7.80224 16.25C7.61025 16.6749 7.44324 17.1688 7.31205 17.75L14.688 17.75C14.5568 17.1688 14.3897 16.6749 14.1978 16.25ZM7.80224 7.75C7.61025 7.32509 7.44324 6.83119 7.31205 6.25H14.6879C14.5568 6.83119 14.3897 7.32509 14.1978 7.75H7.80224Z" fill="black"/>
</svg>
