<svg width="24" height="24" viewBox="0 0 24 24" fill="none" xmlns="http://www.w3.org/2000/svg">
<path fill-rule="evenodd" clip-rule="evenodd" d="M14.5 3C13.5 3 13.5 3.00011 13.5 3.00011V8.31747C13.4003 8.26754 13.299 8.22293 13.1962 8.18398C12.7008 7.99637 12.1636 7.93994 11.6289 8.07208C11.3255 8.14704 11.0452 8.27717 10.7908 8.45236C10.4344 8.23967 10.0284 8.09962 9.61424 8.03872C8.34984 7.8528 6.85622 8.3144 5.51317 9.54092C4.29912 10.6496 3.65847 11.7545 3.32947 12.6955C3.00086 13.6354 3 14.3666 3 14.6729V16.625C3 18.4889 4.51104 20 6.375 20C8.23914 20 9.75 18.4884 9.75 16.6247V14.6961C9.75 14.5901 9.79083 14.319 9.9297 14.0241C10.0642 13.7385 10.2546 13.5061 10.4957 13.3685C11.9442 12.5417 12 11.0381 12 10.5C12 10.3525 11.9872 10.2109 11.9629 10.0752C12.0185 10.0421 12.0675 10.0239 12.1086 10.0137C12.1977 9.99169 12.3191 9.99042 12.4878 10.0543C12.7612 10.1579 13.1228 10.4237 13.5 10.9187V21H15.5V15.1C15.5 13.1474 16.3146 11.6795 17.5642 10.8257C17.7755 10.6813 17.9759 10.5612 18.1759 10.4615L18.1887 10.475C18.2028 10.4616 18.2168 10.4482 18.2307 10.4347C18.9686 10.0808 19.7151 10 21 10V8C20.505 8 20.0536 8.01122 19.6289 8.04763C19.7534 7.51664 19.7695 6.98031 19.6686 6.46887C19.5343 5.78864 19.189 5.15671 18.6209 4.69737C18.0511 4.2367 17.32 4 16.5 4V6C16.93 6 17.1989 6.11955 17.3635 6.25263C17.5297 6.38704 17.6532 6.58636 17.7064 6.85613C17.8056 7.35844 17.6463 8.11004 17.0171 8.81314C16.8265 8.91947 16.6334 9.03932 16.4358 9.17433C16.0978 9.4053 15.7852 9.66486 15.5 9.95042V3.00011C15.5 3.00011 15.5 3 14.5 3ZM9.32328 10.0174C8.76477 9.93532 7.85215 10.1134 6.86186 11.0178C5.88838 11.9068 5.43528 12.7324 5.2174 13.3555C4.99999 13.9774 5 14.4429 5 14.6702V16.625C5 17.3844 5.61561 18 6.375 18C7.13421 18 7.75 17.3842 7.75 16.6247V14.6961C7.75 14.2694 7.86751 13.7088 8.1203 13.172C8.37748 12.6259 8.81211 12.0266 9.5043 11.6315C9.92244 11.3929 10 10.9618 10 10.5C10 10.4035 9.9177 10.1049 9.32328 10.0174Z" fill="black"/>
</svg>
