<svg width="24" height="24" viewBox="0 0 24 24" fill="none" xmlns="http://www.w3.org/2000/svg">
<path fill-rule="evenodd" clip-rule="evenodd" d="M11.2 2V7.20961L10.5332 7.44528C10.2212 7.55558 10 7.85325 10 8.20001C10 8.64184 10.3582 9.00001 10.8 9.00001C11.0055 9.00001 11.1909 8.92381 11.3331 8.79654L12 8.19964L12.6669 8.79654C12.8091 8.92381 12.9945 9.00001 13.2 9.00001C13.6418 9.00001 14 8.64184 14 8.20001C14 7.85325 13.7788 7.55558 13.4668 7.44528L12.8 7.20961V2H14.8V3.44438C18.3992 4.62172 21 8.00599 21 12C21 15.9899 18.4043 19.371 14.8122 20.5516L14.8 20.5144V22H12.8V16.7904L13.4668 16.5548C13.7788 16.4445 14 16.1468 14 15.8C14 15.3582 13.6418 15 13.2 15C12.9945 15 12.8091 15.0762 12.6669 15.2035L12 15.8004L11.3331 15.2035C11.1909 15.0762 11.0055 15 10.8 15C10.3582 15 10 15.3582 10 15.8C10 16.1468 10.2212 16.4444 10.5332 16.5547L11.2 16.7904L11.2 22H9.2V20.5556C5.60084 19.3783 3 15.994 3 12C3 8.00599 5.60084 4.62172 9.2 3.44438V2H11.2ZM9.2 18.4179V18.0978C8.47521 17.5923 8 16.7525 8 15.8C8 14.2536 9.2536 13 10.8 13C11.229 13 11.6361 13.0969 12 13.2698C12.3639 13.0969 12.771 13 13.2 13C14.7464 13 16 14.2536 16 15.8C16 16.7525 15.5248 17.5924 14.8 18.0978V18.4179C17.2732 17.3373 19 14.8692 19 12C19 9.13047 17.2726 6.66243 14.8 5.58215V5.90218C15.5248 6.40768 16 7.24757 16 8.20001C16 9.74641 14.7464 11 13.2 11C12.771 11 12.3639 10.9031 12 10.7303C11.6361 10.9031 11.229 11 10.8 11C9.2536 11 8 9.74641 8 8.20001C8 7.24757 8.47521 6.40767 9.2 5.90218V5.58215C6.72735 6.66243 5 9.13047 5 12C5 14.8696 6.72735 17.3376 9.2 18.4179Z" fill="black"/>
</svg>
