<svg width="24" height="24" viewBox="0 0 24 24" fill="none" xmlns="http://www.w3.org/2000/svg">
<path fill-rule="evenodd" clip-rule="evenodd" d="M3.5397 7.46587C2.83049 8.72377 2.47339 10.4468 2.27618 11.8654C2.07103 13.341 2.00163 14.7886 2.00066 15.7035C1.98827 16.4372 2.15039 17.3035 2.50548 18.0504C2.80871 18.6883 3.64807 20.0001 5.31744 20.0001C7.03369 20.0001 7.83177 18.5864 8.06966 18.1524C8.20789 17.9002 8.33865 17.6197 8.43668 17.4093L8.48675 17.3022C8.55181 17.1637 8.60549 17.0532 8.65267 16.9626C8.74515 16.9569 8.84798 16.949 8.95978 16.9371C9.18671 16.9129 9.40924 16.8718 9.62337 16.8211V20.0001H11.6563V16.1482C11.9714 16.041 12.3094 15.9346 12.6955 15.8318C14.225 15.4249 15.1064 14.4049 15.6181 13.7241C15.7367 13.5664 15.8469 13.4106 15.9359 13.2849L15.9562 13.2562C16.056 13.1152 16.126 13.0174 16.1896 12.9352C16.2099 12.909 16.2269 12.8879 16.2409 12.8712C16.446 12.7749 16.6829 12.6958 17.0241 12.596C17.0729 12.5817 17.1258 12.5665 17.182 12.5503C17.5424 12.4468 18.0432 12.3029 18.5356 12.0933C19.4937 11.6854 20.1907 10.9603 20.6668 10.3169C21.1591 9.6516 21.5334 8.91355 21.7966 8.25569C22.2308 7.17052 21.9373 6.05417 21.2249 5.31231C20.5515 4.61106 19.5643 4.28822 18.5896 4.42347C17.6315 4.55643 16.7805 4.61424 16.4445 4.61424L16.3676 4.61429C15.7158 4.61492 15.3236 4.61529 12.4753 4.18227C9.25252 3.69232 5.47309 4.03671 3.5397 7.46587ZM11.6563 14.0451C11.8177 13.9967 11.987 13.9485 12.1648 13.9012C13.2217 13.62 13.7892 12.818 14.2702 12.1383C14.5683 11.7171 14.8331 11.3428 15.1606 11.1686C15.6497 10.9083 16.1388 10.7671 16.6279 10.6258C16.9947 10.5198 17.3615 10.4139 17.7284 10.2577C18.7131 9.83855 19.4712 8.60724 19.905 7.52312C20.1627 6.87912 19.5702 6.3072 18.8736 6.40386C17.8629 6.54412 16.9099 6.61424 16.4445 6.61424C15.9078 6.61424 15.5393 6.61424 14.6004 6.50194C14.1921 6.51644 13.9515 6.61473 13.8047 6.71213C13.6439 6.81877 13.5165 6.97682 13.4164 7.20654C13.1943 7.7163 13.1809 8.38168 13.1809 9.00013H11.148L11.148 8.95003C11.1476 8.38779 11.1469 7.33919 11.5479 6.4187C11.5949 6.31069 11.6481 6.20273 11.7082 6.09615C8.90955 5.75479 6.53559 6.27539 5.31744 8.43599C4.29033 10.2577 4.03355 14.053 4.03355 15.7229C4.01328 16.6338 4.46151 18.0001 5.31744 18.0001C5.92361 18.0001 6.24358 17.3148 6.58139 16.5914C6.72057 16.2933 6.86278 15.9887 7.02929 15.7229C7.4801 15.0033 7.75285 14.9944 8.2696 14.9774C8.40692 14.9729 8.56146 14.9678 8.74115 14.9487C9.02151 14.9189 9.30736 14.8436 9.62337 14.7403V13.224C8.64919 13.451 7.88773 13.3304 7.36317 13.0723C7.04693 12.9168 6.78759 12.6947 6.65942 12.4425C6.60183 12.3292 6.52286 12.1116 6.6183 11.8769C6.73747 11.5838 7.01853 11.5001 7.20929 11.5001H9.88723C10.0826 11.0337 10.3886 10.6629 10.8126 10.4021C11.4729 9.99612 12.2421 9.99872 12.617 9.99999L12.6727 10.0001V12.0001C12.4601 12.0001 12.3002 12.0016 12.1519 12.0219C12.0092 12.0414 11.9321 12.0723 11.8901 12.0981C11.878 12.1042 11.6563 12.2168 11.6563 13.0001V14.0451Z" fill="black"/>
</svg>
