<svg width="24" height="24" viewBox="0 0 24 24" fill="none" xmlns="http://www.w3.org/2000/svg">
<path fill-rule="evenodd" clip-rule="evenodd" d="M20.367 7.59398C20.3669 7.59413 20.3638 7.59414 20.3583 7.59357C20.3644 7.59354 20.3672 7.59383 20.367 7.59398ZM19.9999 7.23388C20 7.23385 20.0001 7.23513 20.0002 7.23786C19.9999 7.23528 19.9998 7.23392 19.9999 7.23388ZM19.9037 7.66331C19.7095 8.22838 19.2472 9.0542 18.5758 9.95899C17.8334 10.9595 16.9175 11.9462 16.0426 12.6397C15.6046 12.9869 15.2041 13.2387 14.8638 13.3879C14.5118 13.5421 14.3103 13.5492 14.2256 13.5339C13.7907 13.4558 13.4813 13.201 13.2434 12.7334C13.1543 12.5582 13.0797 12.3596 13.0192 12.1429C12.8781 11.4258 12.8631 10.3079 13.2123 8.56659C15.0147 8.49876 16.7953 8.19417 18.9093 7.83255C19.2325 7.77725 19.5636 7.72063 19.9037 7.66331ZM12.4784 6.58067C14.3552 6.58018 16.1347 6.27657 18.5407 5.86608C18.9776 5.79153 19.4352 5.71346 19.9178 5.63304C20.471 5.54085 21.243 5.58144 21.7095 6.24867C22.1063 6.81617 22.0153 7.50039 21.9079 7.93389C21.6721 8.88549 20.9856 10.0676 20.1819 11.1508C19.3601 12.2582 18.3263 13.3816 17.2849 14.2071C16.7647 14.6194 16.2154 14.9792 15.6666 15.2197C15.3988 15.337 15.1088 15.4358 14.8071 15.4913C14.777 15.5266 14.7508 15.5533 14.7328 15.5713C14.4911 15.813 14.0364 16.1284 13.4987 16.44C12.9342 16.7672 12.2026 17.1334 11.3573 17.4603C9.67971 18.1089 7.47517 18.6323 5.20985 18.3087C3.77219 18.1034 2.89485 17.1925 2.44369 16.0765C2.01603 15.0186 1.951 13.7527 2.02779 12.6008C2.10587 11.4297 2.33834 10.2716 2.58868 9.36646C2.71404 8.91324 2.84774 8.50947 2.97553 8.18868C3.03909 8.02913 3.10598 7.878 3.17491 7.74626C3.23135 7.63838 3.33185 7.45831 3.48132 7.30884C3.64214 7.14802 3.82536 7.05322 3.94582 6.99888C4.08011 6.93831 4.22332 6.89022 4.36109 6.85091C4.6371 6.77217 4.96638 6.7077 5.31653 6.65437C6.02134 6.54704 6.90084 6.47154 7.80223 6.4338C8.70546 6.39599 9.65272 6.39518 10.4951 6.44249C11.0757 6.47509 11.6517 6.53255 12.1413 6.63156C12.2409 6.59972 12.3533 6.57989 12.4784 6.58067ZM12.4737 6.70917V6.58067C12.4753 6.58067 12.4768 6.58067 12.4784 6.58067M11.0153 8.48781C10.8234 8.46859 10.6121 8.45221 10.383 8.43934C9.61835 8.3964 8.73779 8.39639 7.88588 8.43205C7.03214 8.4678 6.22918 8.53845 5.61763 8.63158C5.3096 8.67849 5.07223 8.72783 4.9098 8.77417C4.90543 8.77542 4.90117 8.77665 4.89701 8.77786C4.87823 8.81982 4.85697 8.87001 4.83352 8.92885C4.73874 9.16677 4.62715 9.49887 4.51631 9.89963C4.29424 10.7025 4.09064 11.7247 4.02336 12.7339C3.9548 13.7623 4.03513 14.6769 4.29791 15.3269C4.53719 15.9188 4.89537 16.2435 5.49269 16.3288C7.29734 16.5866 9.13929 16.1735 10.6361 15.5948C11.2707 15.3495 11.8291 15.0798 12.278 14.8326C12.1934 14.7582 12.1088 14.676 12.0256 14.5853C11.5848 14.1045 11.2455 13.4593 11.0669 12.5846C10.9165 12.0111 10.8475 11.4178 10.8272 10.8635C10.7956 10.0003 10.8797 9.15522 11.0153 8.48781ZM13.5289 15.5487C13.5428 15.555 13.5407 15.5549 13.5277 15.5482C13.5281 15.5484 13.5285 15.5485 13.5289 15.5487ZM4.96838 8.63558C4.96839 8.63569 4.96714 8.63778 4.9646 8.64155C4.9671 8.63736 4.96837 8.63548 4.96838 8.63558Z" fill="currentColor"/>
</svg>
