<svg width="24" height="24" viewBox="0 0 24 24" fill="none" xmlns="http://www.w3.org/2000/svg">
<path d="M13 5C13 4.44772 12.5523 4 12 4C11.4477 4 11 4.44771 11 5L11 9.58579L8.79289 11.7929C8.40237 12.1834 8.40237 12.8166 8.79289 13.2071C9.18342 13.5976 9.81658 13.5976 10.2071 13.2071L12 11.4142L13.7929 13.2071C14.1834 13.5976 14.8166 13.5976 15.2071 13.2071C15.5976 12.8166 15.5976 12.1834 15.2071 11.7929L13 9.58579L13 5Z" fill="black"/>
<path d="M8.00006 8.86247V8.98933L8 9C8 9.55228 8.44772 10 9 10C9.55228 10 10 9.55228 10 9L10.0001 8.86247C10.0001 7.35693 8.65865 6.20527 7.17045 6.43313C6.25331 6.57355 5.49343 7.21851 5.20582 8.10063L2.35836 16.8339C1.75826 18.6745 3.38773 20.4693 5.27754 20.0493L8.04238 19.4349C9.18442 19.1811 9.99749 18.1694 10 17L10 15.5C10 14.9477 9.55228 14.5 9 14.5C8.44772 14.5 8 14.9477 8 15.5V17L8 17.0018C7.99662 17.2331 7.83488 17.4323 7.60852 17.4826L4.84368 18.097C4.46572 18.181 4.13982 17.822 4.25984 17.4539L7.1073 8.72061C7.16086 8.55634 7.30236 8.43624 7.47314 8.41009C7.75027 8.36766 8.00006 8.58212 8.00006 8.86247Z" fill="black"/>
<path d="M15.9576 19.4349C14.8156 19.1811 14.0025 18.1694 14 17L14 15.5C14 14.9477 14.4477 14.5 15 14.5C15.5523 14.5 16 14.9477 16 15.5V17C16 17.0006 16 17.0012 16 17.0018C16.0034 17.233 16.1651 17.4323 16.3915 17.4826L19.1563 18.097C19.5343 18.181 19.8602 17.822 19.7402 17.4539L16.8927 8.72061C16.8391 8.55634 16.6976 8.43624 16.5269 8.41009C16.2497 8.36766 15.9999 8.58212 15.9999 8.86247V8.98937L16 9C16 9.55228 15.5523 10 15 10C14.4477 10 14 9.55228 14 9L13.9999 8.86247C13.9999 7.35693 15.3413 6.20527 16.8295 6.43313C17.7467 6.57355 18.5066 7.21851 18.7942 8.10063L21.6416 16.8339C22.2417 18.6745 20.6123 20.4693 18.7225 20.0493L15.9576 19.4349Z" fill="black"/>
</svg>
