<svg width="24" height="24" viewBox="0 0 24 24" fill="none" xmlns="http://www.w3.org/2000/svg">
<path fill-rule="evenodd" clip-rule="evenodd" d="M2 12.2567C3.5 9.19154 7 4.08697 12 6.73946C17 4.08697 20.5 9.19155 22 12.2567C20.5 14.7088 16.4 19 12 19C7.6 19 3.5 14.7088 2 12.2567ZM17.4637 14.4694C17.3639 14.4934 17.2623 14.5164 17.1593 14.5385C15.8052 14.8286 13.9816 15 12 15C10.0184 15 8.19479 14.8286 6.84072 14.5385C6.73772 14.5164 6.63615 14.4934 6.53631 14.4694C6.73294 14.6409 6.93609 14.8093 7.1451 14.9729C8.73603 16.2179 10.4317 17 12 17C13.5683 17 15.264 16.2179 16.8549 14.9729C17.0639 14.8093 17.2671 14.6409 17.4637 14.4694ZM17.0758 8.92577C17.8029 9.49785 18.4567 10.2688 19.0148 11.0839C18.9769 11.0629 18.9392 11.043 18.9018 11.0241C18.4364 10.7883 17.8281 10.6049 17.1593 10.4615C15.8052 10.1714 13.9816 10 12 10C10.0184 10 8.19479 10.1714 6.84072 10.4615C6.17187 10.6049 5.56357 10.7883 5.09816 11.0241C5.06081 11.043 5.02306 11.0629 4.98515 11.0839C5.54327 10.2688 6.19711 9.49784 6.9242 8.92577C7.57048 8.41727 8.20498 8.12113 8.827 8.03064C9.42351 7.94385 10.1532 8.02373 11.0627 8.50624C11.6489 8.8172 12.3511 8.8172 12.9373 8.50624C13.8468 8.02373 14.5765 7.94385 15.173 8.03064C15.795 8.12113 16.4295 8.41728 17.0758 8.92577ZM7.25978 12.5829C7.13292 12.5557 7.01422 12.528 6.90359 12.5C7.01422 12.472 7.13292 12.4443 7.25978 12.4171C8.43922 12.1644 10.1157 12 12 12C13.8843 12 15.5608 12.1644 16.7402 12.4171C16.8671 12.4443 16.9858 12.472 17.0964 12.5C16.9858 12.528 16.8671 12.5557 16.7402 12.5829C15.5608 12.8356 13.8843 13 12 13C10.1157 13 8.43922 12.8356 7.25978 12.5829Z" fill="black"/>
</svg>
