<svg width="24" height="24" viewBox="0 0 24 24" fill="none" xmlns="http://www.w3.org/2000/svg">
<path fill-rule="evenodd" clip-rule="evenodd" d="M12 4C7.88189 4 4.5 6.70855 4.5 10.5C4.5 12.3241 5.4972 13.5604 6.60001 14.3875C6.90631 14.6172 7.21441 14.8098 7.50003 14.9681V14C7.50003 13.5815 7.60578 13.2366 7.69195 12.9972C7.69629 12.9851 7.70136 12.9713 7.70689 12.9564C7.69937 12.9539 7.69167 12.9513 7.6838 12.9487C6.63063 12.5976 5.95319 11.8479 5.71521 10.944C5.48711 10.0776 5.68538 9.15845 6.17743 8.44665C6.45928 8.03893 6.79945 7.78364 7.18403 7.63847C7.44736 7.53906 7.74706 7.49613 7.9004 7.47417C7.92805 7.47021 7.95095 7.46693 7.96801 7.46412C8.12597 7.43814 8.20117 7.41372 8.27263 7.37128C8.34525 7.32815 8.48169 7.2247 8.66796 6.94528C9.04683 6.37696 9.57511 5.99996 10.2578 5.99997C10.7305 5.99997 11.1786 6.20416 11.4077 6.30858C11.4302 6.31884 11.4506 6.32813 11.4687 6.33617C11.7665 6.46854 11.8808 6.5 11.961 6.5C11.9614 6.5 11.9621 6.50003 11.9628 6.50006C11.9805 6.50077 12.081 6.50479 12.2929 6.29291C12.5773 6.00855 12.9194 5.78543 13.3188 5.68718C13.7275 5.58665 14.1241 5.63504 14.4721 5.78071C15.1246 6.05383 15.5641 6.64202 15.8319 7.17779C16.1135 7.74098 16.2895 8.40918 16.3193 9.06395C16.3486 9.70763 16.2398 10.4431 15.8321 11.0547C15.0764 12.1881 13.8124 12.4878 12.9581 12.559C12.5087 12.5965 12.1035 12.5775 11.8129 12.5503C11.6663 12.5366 11.5454 12.5204 11.4584 12.5071C11.4148 12.5004 11.3795 12.4945 11.3535 12.4898L11.3214 12.484L11.3108 12.4819L11.3069 12.4812L11.3053 12.4808C11.305 12.4808 11.3039 12.4806 11.5 11.5L11.3039 12.4806C10.7624 12.3723 10.4111 11.8454 10.5194 11.3039C10.6276 10.763 11.1532 10.412 11.694 10.519C11.6938 10.5189 11.6942 10.519 11.694 10.519L11.7032 10.5207C11.7143 10.5226 11.7337 10.5259 11.7604 10.53C11.814 10.5382 11.8962 10.5494 11.9996 10.559C12.2091 10.5787 12.4914 10.591 12.792 10.5659C13.4376 10.5121 13.9236 10.3118 14.168 9.94528C14.2602 9.80689 14.339 9.54232 14.3214 9.15477C14.3042 8.7783 14.199 8.38401 14.0431 8.07222C13.9662 7.91849 13.8861 7.80291 13.8151 7.72475C13.7913 7.69848 13.7706 7.67876 13.7537 7.66412C13.7404 7.67527 13.7249 7.68938 13.7071 7.70714C13.1783 8.23598 12.5906 8.50002 11.9609 8.5C11.4121 8.49999 10.941 8.2904 10.6731 8.17123C10.6674 8.16871 10.6619 8.16622 10.6564 8.16379C10.5022 8.09525 10.4063 8.05537 10.3474 8.03217C10.3426 8.03908 10.3375 8.04657 10.3321 8.05466C10.0184 8.52526 9.67739 8.86313 9.29386 9.0909C8.90919 9.31934 8.54952 9.39535 8.29256 9.43761C8.189 9.45464 8.11691 9.46555 8.06425 9.47352C7.96272 9.48889 7.93348 9.49331 7.89037 9.50959C7.88312 9.51232 7.88231 9.5131 7.88178 9.51361C7.8817 9.51369 7.88188 9.51354 7.88178 9.51361C7.87966 9.51529 7.8584 9.53215 7.82262 9.58391C7.63396 9.85683 7.58223 10.18 7.64931 10.4348C7.70651 10.6521 7.86942 10.9024 8.31625 11.0513C8.73006 11.1892 9.1617 11.3822 9.4608 11.7212C9.84021 12.1512 9.867 12.6391 9.79311 13.0086C9.76151 13.1666 9.7115 13.3086 9.67495 13.4072C9.64988 13.4748 9.6348 13.5135 9.62159 13.5474C9.607 13.5848 9.5947 13.6164 9.57373 13.6746C9.51927 13.8259 9.50003 13.9184 9.50003 14V18.9485C9.50003 18.9494 9.50002 18.9504 9.50002 18.9513V20C9.50002 20.5523 9.05231 21 8.50002 21C7.94774 21 7.50002 20.5523 7.50002 20L7.50003 17.1911C7.4391 17.1652 7.37511 17.1373 7.30841 17.1072C6.79226 16.875 6.09902 16.5118 5.40001 15.9875C4.00281 14.9396 2.5 13.1759 2.5 10.5C2.5 5.29145 7.11822 2 12 2C14.6161 2 16.4862 3.31578 17.6645 4.56338C18.2545 5.18807 18.6859 5.80973 18.9705 6.27542C19.1133 6.50919 19.2208 6.70621 19.294 6.84817C19.3307 6.91923 19.3589 6.97671 19.3788 7.01836C19.3887 7.03919 19.3966 7.05608 19.4024 7.06875L19.4097 7.08457L19.4121 7.09004L19.4131 7.09216C19.4133 7.09257 19.4138 7.09386 18.5 7.5L19.4138 7.09386C19.43 7.13034 19.4441 7.16776 19.4558 7.20592L21.4558 13.7059C21.5491 14.0092 21.4929 14.3388 21.3044 14.5941C21.1159 14.8494 20.8173 15 20.5 15H18.5V18.5C18.5 19.0523 18.0523 19.5 17.5 19.5H14.5V20C14.5 20.5523 14.0523 21 13.5 21C12.9477 21 12.5 20.5523 12.5 20V18.5C12.5 17.9477 12.9477 17.5 13.5 17.5H16.5V14C16.5 13.4477 16.9477 13 17.5 13H19.146L17.565 7.8616C17.5534 7.8377 17.5373 7.80521 17.5166 7.76511C17.4629 7.66098 17.3789 7.50644 17.2639 7.31833C17.0329 6.94027 16.683 6.43693 16.2105 5.93662C15.2638 4.93423 13.884 4 12 4ZM13.8097 7.62515C13.8097 7.62516 13.8093 7.62535 13.8085 7.62565L13.8097 7.62515Z" fill="black"/>
</svg>
