<svg width="24" height="24" viewBox="0 0 24 24" fill="none" xmlns="http://www.w3.org/2000/svg">
<path fill-rule="evenodd" clip-rule="evenodd" d="M14.9741 2.11948C15.4603 2.38132 15.6423 2.98778 15.3804 3.47405L12.4058 8.99839C11.4732 10.7303 10.0489 12.5414 8.48755 13.7905C7.84367 14.3056 7.16091 14.9529 6.7618 15.6256C6.37734 16.2736 6.3358 16.7827 6.62207 17.2598C6.93366 17.7791 7.44239 18.1486 8.03042 18.2852C8.62539 17.6668 9.38787 17.1931 10.2721 16.9432C12.0541 16.4397 13.8825 16.9693 15.1186 18.1698L13.7253 19.6046C12.9803 18.8811 11.8835 18.5662 10.8159 18.8679C10.7022 18.9 10.5918 18.9383 10.4852 18.9822C10.7991 19.1287 11.1058 19.3009 11.3887 19.4979C12.1188 20.0064 12.9052 20.84 12.9052 22H10.9052C10.9052 21.815 10.7709 21.505 10.2457 21.1391C9.74799 20.7925 9.08572 20.5369 8.52878 20.4255L7.70546 20.2609C6.53651 20.0271 5.52042 19.311 4.90708 18.2888C4.10559 16.953 4.44115 15.6174 5.04176 14.6051C5.62771 13.6175 6.53797 12.7889 7.23816 12.2288C8.55931 11.1719 9.8201 9.58189 10.6449 8.05019L13.6195 2.52585C13.8813 2.03958 14.4878 1.85764 14.9741 2.11948ZM17 17.6458C17 16.8843 16.7175 16.1911 16.2502 15.6617L17.7497 14.3382C18.5271 15.219 19 16.3784 19 17.6458C19 19.4977 17.9926 21.1132 16.5007 21.9763L15.4992 20.245C16.3986 19.7248 17 18.7549 17 17.6458Z" fill="black"/>
</svg>
