<svg width="24" height="24" viewBox="0 0 24 24" fill="none" xmlns="http://www.w3.org/2000/svg">
<path d="M11.5134 3C10.5269 3 8.54856 3.19399 7.63718 3.5709C6.7258 3.94781 5.8977 4.50026 5.20017 5.1967C4.50263 5.89314 3.94931 6.71993 3.5718 7.62987C3.1943 8.53981 3 9.51508 3 10.5C3 11.4849 3.1943 12.4602 3.5718 13.3701C3.94931 14.2801 4.50263 15.1069 5.20017 15.8033C5.8977 16.4997 6.7258 17.0522 7.63718 17.4291C8.1894 17.6575 9.13337 17.8187 10.011 17.9103V21H12.0142V17.5C12.0142 16.7729 11.496 16.1666 10.8082 16.0292C10.715 15.9946 10.616 15.9721 10.5134 15.9637C9.74361 15.9004 8.84186 15.776 8.39896 15.5929C7.7291 15.3159 7.12045 14.9098 6.60776 14.3979C6.09507 13.886 5.68838 13.2783 5.41091 12.6095C5.13345 11.9407 4.99064 11.2239 4.99064 10.5C4.99064 9.77608 5.13345 9.05926 5.41091 8.39045C5.68838 7.72165 6.09507 7.11395 6.60776 6.60207C7.12045 6.09019 7.7291 5.68414 8.39896 5.40711C9.06883 5.13008 10.7884 4.9875 11.5134 4.9875V3Z" fill="black"/>
<path fill-rule="evenodd" clip-rule="evenodd" d="M19.2408 5.31066C19.6947 5.27741 20.2089 5.42123 20.5703 5.89028C20.88 6.29224 20.9768 6.81652 20.9961 7.245C21.0171 7.71164 20.9539 8.23667 20.8022 8.76785C20.4988 9.8309 19.8127 11.011 18.5792 11.832C17.8257 12.3337 16.9623 12.5737 16.1993 12.7149C15.7211 12.8035 15.1873 12.8658 14.7428 12.9177C14.568 12.9381 14.4071 12.9569 14.2687 12.975C14.0994 13.2457 13.9045 13.496 13.6863 13.7144C13.7296 13.7275 13.7721 13.7395 13.813 13.75C14.5418 13.9365 15.0189 14.7729 15.0189 15.5V21H13.0158V16.5C13.0158 15.5897 12.0142 15 10.6419 15L10.6425 14.9985C10.6119 14.9993 10.5813 14.9997 10.5507 14.9999C9.45312 15.0061 8.3903 14.6145 7.56099 13.8975C6.73157 13.1804 6.19241 12.1867 6.04535 11.1018C5.89828 10.0168 6.15358 8.91608 6.76289 8.00541C7.37212 7.09484 8.29328 6.43699 9.35352 6.15377C10.1562 5.93934 10.9976 5.95059 11.7862 6.17867L12.105 6.26828C12.9694 6.51399 13.6023 6.69388 14.1353 6.75696C15.2503 6.88893 15.9737 6.73064 16.5667 6.58312C16.6425 6.56427 16.6941 6.54295 16.7287 6.52369C16.9155 6.41973 17.1111 6.2961 17.3349 6.15469L17.422 6.0997C17.6672 5.945 17.9507 5.76818 18.2291 5.62726C18.4921 5.49414 18.8514 5.33918 19.2408 5.31066ZM15.8341 10.7484C15.493 10.8116 15.1823 10.852 14.8733 10.8883L13.6663 10.9609C13.2708 10.9847 12.9304 11.2416 12.7477 11.5926C12.6036 11.8694 12.412 12.1787 12.1992 12.3669C11.7422 12.7711 11.1522 12.9965 10.5394 13C9.92649 13.0034 9.33391 12.7847 8.87231 12.3856C8.4108 11.9866 8.1119 11.4347 8.03041 10.8336C7.94892 10.2324 8.09024 9.62204 8.42857 9.11637C8.76697 8.61059 9.2796 8.24386 9.87126 8.0858C10.463 7.92773 11.0923 7.98949 11.6413 8.25925C11.809 8.34165 12.2702 8.48189 12.5727 8.57005C12.7592 8.62436 12.9497 8.66238 13.1426 8.6847C13.3343 8.70689 13.5851 8.73434 13.7786 8.75C13.9392 8.76299 14.1403 8.77433 14.3139 8.7829C15.5464 8.87343 16.4147 8.68209 17.0511 8.52378C17.259 8.47205 17.4832 8.39349 17.704 8.27061C17.9434 8.13738 18.1899 7.98148 18.4069 7.84423L18.492 7.79047C18.6822 7.67047 18.8477 7.56806 18.9959 7.48531C18.9899 7.6925 18.9543 7.9445 18.8758 8.21962C18.6785 8.91074 18.2378 9.6556 17.4681 10.168C17.0431 10.4508 16.4876 10.6275 15.8341 10.7484Z" fill="black"/>
</svg>
