<svg width="24" height="24" viewBox="0 0 24 24" fill="none" xmlns="http://www.w3.org/2000/svg">
<path d="M11.2201 7.11686C11.6239 7.11686 11.9513 6.79022 11.9513 6.38729C11.9513 5.98436 11.6239 5.65772 11.2201 5.65772C10.8163 5.65772 10.4889 5.98436 10.4889 6.38729C10.4889 6.79022 10.8163 7.11686 11.2201 7.11686Z" fill="black"/>
<path d="M13.9985 6.38729C13.9985 6.79022 13.6712 7.11686 13.2674 7.11686C12.8635 7.11686 12.5362 6.79022 12.5362 6.38729C12.5362 5.98436 12.8635 5.65772 13.2674 5.65772C13.6712 5.65772 13.9985 5.98436 13.9985 6.38729Z" fill="black"/>
<path fill-rule="evenodd" clip-rule="evenodd" d="M14.3762 10.5793C14.2754 10.7051 13.9915 11.0078 13.512 11.0079L13.2186 11.0079V11.2906C14.0952 11.3025 14.9671 11.3197 15.4645 11.3414C15.9142 11.361 16.3106 11.3847 16.6165 11.4126C16.7683 11.4264 16.9104 11.4423 17.0311 11.4614L17.0368 11.4623C17.1141 11.4745 17.3177 11.5066 17.4987 11.5969C18.5245 12.1086 19.0243 12.9619 19.2615 13.6326C19.3802 13.9681 19.439 14.2716 19.4686 14.4928C19.4835 14.6043 19.4913 14.6975 19.4954 14.7665C19.4975 14.8011 19.4986 14.8298 19.4992 14.8521L19.5 14.8987C19.5001 15.436 19.0637 15.8716 18.5252 15.8716C17.9896 15.8717 17.5548 15.4407 17.5502 14.9073C17.5502 14.9042 17.5499 14.8955 17.5491 14.8821C17.5475 14.8552 17.5438 14.8096 17.5359 14.7501C17.5197 14.6293 17.4871 14.4616 17.4229 14.2802C17.414 14.2549 17.4048 14.2284 17.3954 14.2013C17.279 13.8643 17.1223 13.4104 16.7072 13.3801C15.5187 13.2933 14.2383 13.2476 13.2186 13.2235V13.9262H14.681C15.2194 13.9262 15.6559 14.3617 15.6559 14.8989C15.6559 15.4362 15.2194 15.8717 14.681 15.8717H13.2186V16.6499H14.681C15.2194 16.6499 15.6559 17.0854 15.6559 17.6226C15.6559 18.1599 15.2194 18.5954 14.681 18.5954H13.2186V19.2763H15.6559C16.4204 19.2763 16.9942 19.5853 17.3616 19.8784C17.5442 20.0242 17.6816 20.1701 17.7757 20.2827C17.8231 20.3395 17.8607 20.3892 17.8886 20.4282C17.9026 20.4477 17.9143 20.4647 17.9236 20.4787L17.9359 20.4974L17.9408 20.505L17.943 20.5084L17.9439 20.51L17.9449 20.5115C18.2303 20.967 18.0916 21.5672 17.635 21.852C17.1837 22.1335 16.5908 22.0014 16.3015 21.5583C16.2985 21.5541 16.2905 21.5434 16.278 21.5284C16.2502 21.4951 16.2047 21.4465 16.1437 21.3978C16.0236 21.3019 15.8663 21.2219 15.6559 21.2219H8.83171C8.62131 21.2219 8.46396 21.3019 8.34388 21.3978C8.28284 21.4465 8.23741 21.4951 8.20962 21.5284C8.19704 21.5434 8.18913 21.5541 8.18605 21.5583C7.8968 22.0014 7.30388 22.1335 6.85258 21.852C6.39603 21.5672 6.2573 20.967 6.54271 20.5115L6.54364 20.51L6.54463 20.5084L6.54676 20.505L6.55165 20.4974L6.56398 20.4787C6.57332 20.4647 6.58498 20.4477 6.59897 20.4282C6.62689 20.3892 6.66447 20.3395 6.7119 20.2827C6.80598 20.1701 6.94334 20.0242 7.12603 19.8784C7.49339 19.5853 8.06721 19.2763 8.83171 19.2763H11.2688V18.5954H9.80648C9.26806 18.5954 8.83158 18.1599 8.83158 17.6226C8.83158 17.0854 9.26806 16.6499 9.80648 16.6499H11.2688V15.8717H9.80648C9.26806 15.8717 8.83158 15.4362 8.83158 14.8989C8.83158 14.3617 9.26806 13.9262 9.80648 13.9262H11.2688V13.2131C10.1919 13.2335 8.67979 13.2788 7.29278 13.3801C6.87774 13.4104 6.72095 13.8643 6.60456 14.2013C6.59518 14.2284 6.58607 14.2548 6.5771 14.2802C6.51294 14.4616 6.48027 14.6293 6.46412 14.7501C6.45616 14.8096 6.45255 14.8552 6.45094 14.8821C6.45014 14.8955 6.44985 14.9042 6.44976 14.9073C6.44523 15.4407 6.01041 15.8717 5.47475 15.8716C4.93633 15.8716 4.49992 15.436 4.5 14.8987L4.50075 14.8521C4.50138 14.8298 4.50253 14.8011 4.50459 14.7665C4.50871 14.6975 4.51654 14.6043 4.53145 14.4928C4.56104 14.2716 4.61981 13.9681 4.73848 13.6326C4.97575 12.9619 5.4755 12.1086 6.50133 11.5969C6.68233 11.5066 6.8859 11.4745 6.96325 11.4623L6.96886 11.4614C7.08961 11.4423 7.2317 11.4264 7.38345 11.4126C7.68942 11.3847 8.08582 11.361 8.53549 11.3414C9.12541 11.3157 10.2423 11.2963 11.2688 11.2846L11.2688 11.0079L11.0746 11.0079C10.5085 11.0079 10.2258 10.5912 10.1575 10.4816C10.0671 10.3366 10.0128 10.1826 9.98487 10.1007C9.94386 9.98048 9.92117 9.90457 9.90073 9.83617C9.8756 9.75209 9.85387 9.67937 9.80568 9.54977C9.6685 9.18085 9.53735 9.0485 9.40514 9.00033C8.89278 8.81369 8.52127 8.46694 8.30926 8.01989C8.11329 7.60669 8.08362 7.17285 8.10154 6.82066C8.13136 6.23468 8.31772 5.60533 8.43227 5.21847C8.45005 5.15844 8.4661 5.10424 8.47956 5.05695C8.6454 4.47459 8.84099 3.94659 9.27068 3.42376C9.67731 2.92896 10.2 2.54187 10.7924 2.29677C11.3847 2.05166 12.0286 1.95612 12.6668 2.01859C13.305 2.08106 13.9179 2.29963 14.4513 2.65492C14.9735 3.0028 15.3809 3.41478 15.7245 4.05549C15.9236 4.42678 16.0221 4.82417 16.0778 5.1162C16.1067 5.26782 16.1268 5.40618 16.1416 5.51374L16.1545 5.60911C16.1623 5.66648 16.1661 5.69494 16.1699 5.7158C16.1576 5.64853 16.339 6.31407 16.357 6.85964C16.3757 7.42655 16.2602 8.42933 15.29 8.94508C15.1558 9.0164 15.0076 9.20843 14.836 9.61902C14.801 9.70272 14.7694 9.78381 14.7355 9.87094L14.7241 9.90028C14.6888 9.99079 14.6459 10.1006 14.6005 10.2006C14.5601 10.2898 14.4879 10.44 14.3762 10.5793ZM14.3718 7.22881C14.3731 7.22605 14.3748 7.2222 14.3768 7.21706C14.3943 7.17231 14.4134 7.07856 14.4083 6.92354C14.4033 6.77431 14.3778 6.61532 14.3458 6.46648C14.3301 6.3936 14.3139 6.32779 14.2987 6.26702L14.2944 6.25009C14.283 6.20502 14.2627 6.12509 14.2516 6.06401C14.239 5.99467 14.2264 5.90126 14.2165 5.82709L14.2098 5.77766C14.1966 5.68184 14.182 5.5824 14.1624 5.4802C14.1213 5.26458 14.068 5.0903 14.0053 4.97326C13.8251 4.6373 13.6465 4.45804 13.3687 4.27298C13.102 4.09533 12.7955 3.98605 12.4764 3.95481C12.1573 3.92358 11.8354 3.97135 11.5392 4.0939C11.243 4.21645 10.9817 4.41 10.7784 4.6574C10.5981 4.87676 10.4927 5.10557 10.3551 5.58869C10.3342 5.66229 10.313 5.73489 10.2922 5.80648L10.2919 5.80772C10.1741 6.21255 10.0658 6.5848 10.0488 6.91932C10.0416 7.06049 10.056 7.13687 10.0653 7.16956L10.0738 7.1728C11.0437 7.52611 11.4459 8.36805 11.6337 8.87304C11.654 8.92756 11.6768 8.9939 11.6995 9.06238L12.9587 9.06243C12.9824 9.00214 13.0086 8.9368 13.0365 8.8701C13.2208 8.42916 13.5853 7.6476 14.3718 7.22881Z" fill="black"/>
</svg>
