<svg width="24" height="24" viewBox="0 0 24 24" fill="none" xmlns="http://www.w3.org/2000/svg">
<path d="M14.5 8.58893C13.3259 8.58893 12.5 9.66425 12.5 10.8241C12.5 11.984 13.3259 13.0593 14.5 13.0593C15.6741 13.0593 16.5 11.984 16.5 10.8241C16.5 9.66425 15.6741 8.58893 14.5 8.58893Z" fill="black"/>
<path d="M7.5 10.8241C7.5 9.66425 8.3259 8.58893 9.5 8.58893C10.6741 8.58893 11.5 9.66425 11.5 10.8241C11.5 11.984 10.6741 13.0593 9.5 13.0593C8.3259 13.0593 7.5 11.984 7.5 10.8241Z" fill="black"/>
<path d="M11.2969 16.0395C10.8363 16.0395 10.5 15.6275 10.5 15.1831C10.5 15.0637 10.5217 14.9495 10.56 14.8409C10.5787 14.7878 10.6013 14.736 10.6273 14.6857C10.9896 13.9838 12 13.556 12 13.556C12 13.556 13.5 14.2321 13.5 15.1831C13.5 15.6274 13.1637 16.0395 12.7031 16.0395C12.3995 16.0395 12.1703 15.8727 12.0226 15.6312C12.0124 15.6145 11.9876 15.6145 11.9774 15.6312C11.8297 15.8727 11.6005 16.0395 11.2969 16.0395Z" fill="black"/>
<path fill-rule="evenodd" clip-rule="evenodd" d="M18 16.0197C18.4564 15.9276 18.8 15.5267 18.8 15.0461C18.8 14.3034 18.8173 13.4416 18.8647 12.7205C18.8885 12.3584 18.9188 12.0486 18.955 11.8141C18.9775 11.6683 18.9972 11.5891 19.0053 11.5563C19.0084 11.544 19.0098 11.5382 19.0092 11.538C19.009 11.5379 19.0094 11.5377 19.0092 11.538C19.2187 11.1681 19.4564 10.7071 19.6456 10.2164C19.8345 9.72657 20 9.14341 20 8.56089C20 4.74264 16.1993 2 12 2C7.80069 2 4 4.74264 4 8.56089C4 9.14899 4.20188 9.86128 4.40815 10.4406C4.61924 11.0334 4.88502 11.6229 5.11441 12.0314L5.11539 12.0353C5.12013 12.0542 5.13384 12.1089 5.14812 12.215C5.17208 12.393 5.18783 12.6329 5.19645 12.9331C5.20837 13.3485 5.20567 13.8171 5.20275 14.3217C5.2014 14.556 5.2 14.798 5.2 15.0461C5.2 15.5267 5.54355 15.9276 6 16.0197L6.00001 18.8479C6.00001 20.2833 7.0417 21.5515 8.5264 21.7415C9.51717 21.8683 10.8238 22 12 22C13.1762 22 14.4829 21.8683 15.4736 21.7415C16.9583 21.5515 18 20.2833 18 18.8479L18 16.0197ZM6 8.56089C6 6.22947 8.46732 3.98682 12 3.98682C15.5327 3.98682 18 6.22947 18 8.56089C18 8.79612 17.9271 9.11901 17.778 9.50569C17.6338 9.8795 17.4417 10.2543 17.257 10.5791C17.0877 10.8714 17.0179 11.2554 16.9781 11.513C16.9294 11.8284 16.8945 12.2023 16.8689 12.5911C16.8349 13.1094 16.8157 13.6841 16.8066 14.2358C16.0726 14.5033 15.4044 14.8189 14.8568 15.3262C14.3622 15.7844 14.0204 16.3456 13.7649 17.0329H10.2838C10.0897 16.3804 9.81138 15.7905 9.34443 15.3062C8.79169 14.7328 8.07027 14.4039 7.20364 14.1852C7.20606 13.726 7.20699 13.2722 7.19564 12.8765C7.18627 12.5502 7.16803 12.2306 7.13048 11.9517C7.09812 11.7113 7.03654 11.3664 6.86804 11.0759C6.70342 10.7855 6.47762 10.2946 6.29367 9.77803C6.09933 9.23223 6 8.7899 6 8.56089ZM8 16.7973L8.00001 18.8479C8.00001 19.3363 8.34592 19.7152 8.78194 19.771C9.74218 19.8938 10.9505 20.0132 12 20.0132C13.0495 20.0132 14.2578 19.8939 15.2181 19.771C15.6541 19.7152 16 19.3363 16 18.8479L16 17.0261C15.8058 17.288 15.6289 17.6666 15.4673 18.2785C15.3519 18.7152 14.9546 19.0198 14.5 19.0198H9.5C9.02551 19.0198 8.61635 18.6885 8.52058 18.2269C8.36306 17.4675 8.19777 17.0578 8 16.7973Z" fill="black"/>
</svg>
