<svg width="24" height="24" viewBox="0 0 24 24" fill="none" xmlns="http://www.w3.org/2000/svg">
<path fill-rule="evenodd" clip-rule="evenodd" d="M18 5V4.32171C18 2.81456 16.3558 1.78696 14.8991 2.17366C14.0077 2.41031 13.0038 2.58814 12 2.58814C10.9962 2.58814 9.99233 2.41031 9.10089 2.17366C7.6442 1.78696 6 2.81456 6 4.32171V5H5C4.44772 5 4 5.44772 4 6C4 6.55228 4.44772 7 5 7H6V7.31278C6 7.8941 6.25369 8.44194 6.71298 8.76499C6.28074 9.15805 6 9.69894 6 10.3217V11H5C4.44772 11 4 11.4477 4 12C4 12.5523 4.44772 13 5 13H6V13.3128C6 13.8941 6.25369 14.4419 6.71298 14.765C6.28074 15.1581 6 15.6989 6 16.3217V17H5C4.44772 17 4 17.4477 4 18C4 18.5523 4.44772 19 5 19H6V19.3128C6 19.9971 6.35158 20.6351 6.97627 20.9145C8.01642 21.3798 9.81298 21.9999 12 21.9999C14.187 21.9999 15.9836 21.3798 17.0237 20.9145C17.6484 20.6351 18 19.9971 18 19.3128V19H19C19.5523 19 20 18.5523 20 18C20 17.4477 19.5523 17 19 17H18V16.3217C18 15.6989 17.7193 15.1581 17.287 14.765C17.7463 14.4419 18 13.8941 18 13.3128V13H19C19.5523 13 20 12.5523 20 12C20 11.4477 19.5523 11 19 11H18V10.3217C18 9.69894 17.7193 9.15805 17.287 8.76499C17.7463 8.44194 18 7.8941 18 7.31278V7H19C19.5523 7 20 6.55228 20 6C20 5.44772 19.5523 5 19 5H18ZM16 4.32171L16.0001 4.32057C16.0001 4.32057 16.0005 4.31676 15.9943 4.30616C15.9833 4.28743 15.9516 4.24521 15.8834 4.19961C15.7301 4.09699 15.5424 4.07217 15.4123 4.10671C14.412 4.37226 13.2287 4.58814 12 4.58814C10.7713 4.58814 9.58803 4.37226 8.58773 4.10671C8.45763 4.07217 8.26989 4.09699 8.11656 4.19961C8.04842 4.24521 8.0167 4.28743 8.00573 4.30616C7.99953 4.31676 7.99993 4.32057 7.99993 4.32057L8 4.32171V7.17861C8.89731 7.55565 10.3173 7.9999 12 7.9999C13.6827 7.9999 15.1027 7.55565 16 7.17861V4.32171ZM16 16.3217L16.0001 16.3206C16.0001 16.3206 16.0005 16.3168 15.9943 16.3062C15.9833 16.2874 15.9516 16.2452 15.8834 16.1996C15.7301 16.097 15.5424 16.0722 15.4123 16.1067C14.412 16.3723 13.2287 16.5881 12 16.5881C10.7713 16.5881 9.58803 16.3723 8.58773 16.1067C8.45763 16.0722 8.26989 16.097 8.11656 16.1996C8.04842 16.2452 8.0167 16.2874 8.00573 16.3062C7.99953 16.3168 7.99993 16.3206 7.99993 16.3206L8 16.3217V19.1786C8.89731 19.5557 10.3173 19.9999 12 19.9999C13.6827 19.9999 15.1027 19.5557 16 19.1786V16.3217ZM8 13.1786V10.3217L7.99993 10.3206C7.99993 10.3206 7.99953 10.3168 8.00573 10.3062C8.0167 10.2874 8.04842 10.2452 8.11656 10.1996C8.26989 10.097 8.45763 10.0722 8.58773 10.1067C9.58803 10.3723 10.7713 10.5881 12 10.5881C13.2287 10.5881 14.412 10.3723 15.4123 10.1067C15.5424 10.0722 15.7301 10.097 15.8834 10.1996C15.9516 10.2452 15.9833 10.2874 15.9943 10.3062C16.0005 10.3168 16.0001 10.3206 16.0001 10.3206L16 10.3217V13.1786C15.1027 13.5557 13.6827 13.9999 12 13.9999C10.3173 13.9999 8.89731 13.5557 8 13.1786Z" fill="black"/>
</svg>
