<svg width="24" height="24" viewBox="0 0 24 24" fill="none" xmlns="http://www.w3.org/2000/svg">
<path d="M12.4755 4.2549C10.8999 3.70822 9.43239 4.01672 8.76544 4.36828C7.46914 5.05156 7.01498 5.85321 7.00041 6.53399C6.98506 7.25132 7.44215 8.26023 8.90068 9.35851C8.9986 9.43224 9.09346 9.50596 9.18531 9.57966C8.43558 9.82576 7.74582 10.1072 7.09355 10.4652C5.75246 9.28519 4.97026 7.92129 5.00087 6.49119C5.0366 4.82158 6.16507 3.47811 7.83286 2.59901C8.97464 1.99718 11.0164 1.63167 13.1311 2.36541C15.3026 3.1189 17.4356 4.98729 18.7882 8.6539C20.4376 13.125 20.122 16.1801 19.0958 18.2356C18.0813 20.2677 16.4675 21.1205 15.9663 21.3846C15.6958 21.5272 15.2419 21.6608 14.7802 21.7616C14.2843 21.8698 13.6679 21.9642 13.0227 21.9902C12.3837 22.0161 11.6728 21.9768 11.0095 21.7893C10.3448 21.6014 9.65693 21.2428 9.18519 20.5797C7.56125 18.2971 8.63037 16.1354 9.10758 15.1705C9.14371 15.0975 9.17644 15.0313 9.20436 14.9724C9.2848 14.8028 9.36291 14.6337 9.42706 14.4606C9.53836 14.4926 9.65647 14.5322 9.78138 14.5803C10.0949 14.701 10.3726 14.8459 10.573 14.9623C10.6713 15.0195 10.7462 15.067 10.7921 15.0971C10.815 15.1121 10.8303 15.1226 10.8374 15.1274L10.8418 15.1305C10.9653 15.2182 11.0953 15.2899 11.2294 15.3461C11.1566 15.5238 11.0845 15.6757 11.0263 15.7982L11.0114 15.8295C10.9826 15.8903 10.9532 15.9515 10.9238 16.0129C10.4345 17.0326 9.90353 18.1394 10.8148 19.4203C10.9388 19.5946 11.1648 19.7548 11.5536 19.8647C11.9439 19.9751 12.4263 20.0127 12.9419 19.9919C13.4513 19.9713 13.9508 19.8955 14.3536 19.8076C14.5542 19.7638 14.7236 19.7186 14.8517 19.6788C14.9606 19.6449 15.0159 19.6223 15.031 19.6162C15.0356 19.6143 15.0364 19.614 15.0337 19.6154C15.437 19.4028 16.5807 18.7959 17.3064 17.3422C18.0205 15.912 18.4277 13.4554 16.9118 9.34609C15.7322 6.14831 13.9941 4.78183 12.4755 4.2549Z" fill="black"/>
<path d="M11.2172 5.87782C11.5608 5.44546 12.1899 5.37352 12.6222 5.71714C13.3619 6.30496 14.0383 7.15758 14.5811 8.02571C15.128 8.90027 15.5811 9.85787 15.8435 10.7038C16.6541 13.3177 16.7413 15.59 15.9528 17.3995C15.7321 17.9058 15.1428 18.1374 14.6365 17.9167C14.1302 17.6961 13.8987 17.1068 14.1193 16.6005C14.6381 15.4101 14.6732 13.6823 13.9332 11.2962C13.7304 10.6421 13.3574 9.84092 12.8854 9.08606C12.4093 8.32477 11.8742 7.67739 11.3779 7.28288C10.9455 6.93925 10.8735 6.31019 11.2172 5.87782Z" fill="black"/>
<path d="M11.7456 11.9696C12.281 11.834 12.605 11.2901 12.4694 10.7547C12.3338 10.2193 11.7899 9.89524 11.2545 10.0309C9.62836 10.4428 8.38541 10.8462 7.2808 11.5108C6.1646 12.1823 5.25589 13.0796 4.21917 14.3755C3.87416 14.8068 3.94408 15.4361 4.37534 15.7811C4.8066 16.1261 5.4359 16.0562 5.78091 15.6249C6.55379 14.6588 7.18059 14.0197 7.82757 13.5465C7.85519 13.5369 7.88263 13.526 7.90981 13.5138C8.5421 13.2297 9.34908 13.3423 10.1407 13.6471C10.5162 13.7917 10.8426 13.9624 11.0756 14.0978C11.1911 14.165 11.2813 14.2221 11.3404 14.2609C11.3699 14.2802 11.3915 14.2948 11.4044 14.3037L11.4173 14.3127L11.4183 14.3134C11.8666 14.6341 12.4902 14.5315 12.812 14.0837C13.1344 13.6352 13.0316 13.01 12.5832 12.6876L12.5812 12.6863L12.5779 12.6839L12.5684 12.6771L12.5385 12.6564C12.5139 12.6394 12.4798 12.6163 12.437 12.5883C12.3516 12.5323 12.2308 12.456 12.0807 12.3688C11.9122 12.2708 11.7035 12.1571 11.4637 12.0421C11.5556 12.0181 11.6496 11.9939 11.7456 11.9696Z" fill="black"/>
</svg>
