<svg width="24" height="24" viewBox="0 0 24 24" fill="none" xmlns="http://www.w3.org/2000/svg">
<path fill-rule="evenodd" clip-rule="evenodd" d="M10 7.97641L11.1049 7.97639C11.5772 5.70592 13.5894 4 16 4C18.7615 4 21 6.23857 21 9V16C21 18.7614 18.7615 21 16 21C14.8506 21 13.7917 20.6121 12.9472 19.9601C12.2108 19.4005 11.6802 18.8428 11.2255 18.3648C10.4752 17.5761 9.9314 17.0046 9.01102 17L7 17C6.04587 17 5.49016 17.346 5.13157 17.858C4.73385 18.4258 4.5 19.3167 4.5 20.5C4.5 21.0523 4.05228 21.5 3.5 21.5C2.94771 21.5 2.5 21.0523 2.5 20.5C2.5 19.108 2.76615 17.7489 3.49343 16.7106C4.24841 15.6327 5.41861 15.0185 6.93108 15.0004C7.02625 14.9899 7.12219 14.986 7.18758 14.9835C7.30966 14.9789 7.45832 14.9762 7.61996 14.9747C7.94445 14.9718 8.34634 14.9738 8.74394 14.9776C8.90392 14.9791 9.06199 14.9809 9.21406 14.9828C10.5932 14.7582 11.4758 12.3791 11 10C10.8324 10.0006 10.6725 10.0001 10.5298 9.99876C10.3906 9.99748 10.2613 9.99508 10.1542 9.99088C10.1021 9.98884 10.0187 9.98548 9.9321 9.97608C8.95095 9.96661 8.11868 9.75052 7.46409 9.27143C6.78674 8.7757 6.42137 8.08774 6.22434 7.38216C6.03198 6.69328 5.98468 5.93383 5.97662 5.21058C5.97243 4.83471 5.98038 4.38766 5.98812 3.95236C5.99412 3.61499 6 3.28466 6 3C6 2.44771 6.44771 2 7 2C7.55228 2 8 2.44771 8 3C8 3.39217 7.99322 3.73249 7.98674 4.0577C7.97922 4.43574 7.9721 4.79339 7.9765 5.18829C7.98406 5.86687 8.03051 6.41402 8.15065 6.84425C8.26612 7.25776 8.432 7.50141 8.64528 7.6575C8.86626 7.81923 9.2607 7.9764 10 7.97641ZM12.7124 13.8979C12.6792 13.9935 12.644 14.0877 12.607 14.1803C12.3876 14.7288 12.033 15.3632 11.5231 15.8912C11.9544 16.2202 12.2931 16.5808 12.556 16.8606C12.5973 16.9046 12.6368 16.9466 12.6745 16.9862C13.1282 17.4632 13.5618 17.9152 14.1573 18.3678L14.1634 18.3724L14.1694 18.377C14.6761 18.7683 15.3082 19 16 19C17.6569 19 19 17.6569 19 16V13.1251C18.8096 13.0473 18.5817 12.9682 18.3377 12.9119C17.6592 12.7553 17.096 12.8182 16.7071 13.2071C15.596 14.3182 14.1592 14.2553 13.2127 14.0369C13.0365 13.9962 12.8688 13.9486 12.7124 13.8979ZM13.1089 11.9178C13.2749 11.981 13.4632 12.0421 13.6624 12.0881C14.3409 12.2446 14.904 12.1817 15.2929 11.7929C16.404 10.6818 17.8409 10.7447 18.7874 10.9631C18.8598 10.9798 18.9307 10.9977 19 11.0165V9C19 7.34314 17.6569 6 16 6C14.3432 6 13 7.34314 13 9C13 9.08825 13.0038 9.17516 13.0111 9.26062L13.1485 10.8715L13.1192 10.8805C13.1366 11.2299 13.1329 11.5769 13.1089 11.9178Z" fill="black"/>
</svg>
