<svg width="24" height="24" viewBox="0 0 24 24" fill="none" xmlns="http://www.w3.org/2000/svg">
<path d="M6.29004 9.86816C6.70425 9.86816 7.04004 9.53238 7.04004 9.11816C7.04004 8.70395 6.70425 8.36816 6.29004 8.36816C5.87583 8.36816 5.54004 8.70395 5.54004 9.11816C5.54004 9.53238 5.87583 9.86816 6.29004 9.86816Z" fill="black"/>
<path d="M13.02 9.5083C13.02 9.92251 12.6842 10.2583 12.27 10.2583C11.8558 10.2583 11.52 9.92251 11.52 9.5083C11.52 9.09409 11.8558 8.7583 12.27 8.7583C12.6842 8.7583 13.02 9.09409 13.02 9.5083Z" fill="black"/>
<path d="M18.25 9.86816C18.6642 9.86816 19 9.53238 19 9.11816C19 8.70395 18.6642 8.36816 18.25 8.36816C17.8358 8.36816 17.5 8.70395 17.5 9.11816C17.5 9.53238 17.8358 9.86816 18.25 9.86816Z" fill="black"/>
<path d="M13.5 15.25C13.5 15.6642 13.1642 16 12.75 16C12.3358 16 12 15.6642 12 15.25C12 14.8358 12.3358 14.5 12.75 14.5C13.1642 14.5 13.5 14.8358 13.5 15.25Z" fill="black"/>
<path d="M18.25 16C18.6642 16 19 15.6642 19 15.25C19 14.8358 18.6642 14.5 18.25 14.5C17.8358 14.5 17.5 14.8358 17.5 15.25C17.5 15.6642 17.8358 16 18.25 16Z" fill="black"/>
<path d="M7.04004 15.25C7.04004 15.6642 6.70425 16 6.29004 16C5.87583 16 5.54004 15.6642 5.54004 15.25C5.54004 14.8358 5.87583 14.5 6.29004 14.5C6.70425 14.5 7.04004 14.8358 7.04004 15.25Z" fill="black"/>
<path fill-rule="evenodd" clip-rule="evenodd" d="M4 5C2.89543 5 2 5.89543 2 7V17C2 18.1046 2.89543 19 4 19H20C21.1046 19 22 18.1046 22 17V7C22 5.89543 21.1046 5 20 5H4ZM9.07247 7H4V10.6075L7.66786 11.7996L9.07247 7ZM10.5736 7C10.585 7.09708 10.5774 7.198 10.5483 7.29772L9.19599 11.9185L14.9649 10.5724L13.761 7.21845C13.7351 7.14629 13.7209 7.07278 13.7175 7H10.5736ZM15.2763 7L16.5908 10.6619L20 12.1083V7H15.2763ZM15.3298 12.0275L9.66014 13.3505L11.0154 16.8236C11.0381 16.8817 11.053 16.9408 11.0607 17H14.1144L15.3298 12.0275ZM15.6585 17L16.789 12.3754L19.5451 13.5447C19.6944 13.6081 19.8528 13.6193 20 13.5866V17H15.6585ZM9.47411 17L8.11727 13.5229L4 12.1848V17H9.47411Z" fill="black"/>
</svg>
