<svg width="24" height="24" viewBox="0 0 24 24" fill="none" xmlns="http://www.w3.org/2000/svg">
<path fill-rule="evenodd" clip-rule="evenodd" d="M8.44444 5C6.54213 5 5 6.54213 5 8.44444C5 12.2022 5.06569 15.0656 6.86276 17.7863L6.97891 17.9622L7.01422 18.1699C7.09429 18.6411 7.50623 19 8 19C8.55228 19 9 18.5523 9 18C9 17.3403 9.1697 16.6086 9.81282 16.0941C10.3967 15.627 11.1833 15.5 12 15.5C12.8167 15.5 13.6033 15.627 14.1872 16.0941C14.8303 16.6086 15 17.3403 15 18C15 18.5523 15.4477 19 16 19C16.4938 19 16.9057 18.6411 16.9858 18.1699L17.0211 17.9622L17.1372 17.7863C18.9338 15.0664 19 12.2038 19 8.4474L19 8.44444C19 8.44434 19 8.44455 19 8.44444C18.9998 6.54228 17.4578 5 15.5556 5C14.6805 5 13.8817 5.32567 13.2734 5.86439L14.5304 7.75064C14.8367 8.21022 14.7124 8.83107 14.2528 9.13735C13.7933 9.44362 13.1724 9.31935 12.8661 8.85977L11.362 6.60284C11.3497 6.58431 11.338 6.56552 11.3271 6.5465L11.2005 6.37802C10.5704 5.53934 9.57055 5 8.44444 5ZM12 4.32136C11.0467 3.49875 9.80374 3 8.44444 3C5.43756 3 3 5.43756 3 8.44444C3 12.0766 3.02052 15.4857 5.08888 18.7268C5.41417 20.0326 6.59322 21 8 21C9.65685 21 11 19.6569 11 18C11 17.8279 11.0223 17.7365 11.0379 17.6949C11.0484 17.6667 11.0548 17.6617 11.0611 17.6567C11.0615 17.6564 11.0618 17.6562 11.0622 17.6559C11.1033 17.623 11.3167 17.5 12 17.5C12.6833 17.5 12.8967 17.623 12.9378 17.6559C12.9382 17.6562 12.9385 17.6564 12.9389 17.6567C12.9452 17.6617 12.9516 17.6667 12.9621 17.6949C12.9777 17.7365 13 17.8279 13 18C13 19.6569 14.3431 21 16 21C17.4068 21 18.5858 20.0326 18.9111 18.7268C20.9789 15.4866 21 12.0787 21 8.44772M21 8.44772L21 8.44477C21 5.43788 18.5624 3 15.5556 3C14.1963 3 12.9533 3.49875 12 4.32136" fill="black"/>
</svg>
