<svg width="24" height="24" viewBox="0 0 24 24" fill="none" xmlns="http://www.w3.org/2000/svg">
<path d="M17.4381 6.88343L17.4955 7.16905L17.7723 7.25999C18.6527 7.54929 19.2874 8.37824 19.2874 9.35412C19.2874 9.98184 19.0256 10.5468 18.6049 10.9484L18.37 11.1725L18.4792 11.4782C18.5533 11.686 18.6062 11.904 18.635 12.1294L18.6787 12.4701L19.0123 12.5517C20.2261 12.8482 21.1265 13.9436 21.1265 15.2481C21.1265 16.1691 20.6783 16.9845 19.9879 17.4897L19.8051 17.6234L19.7851 17.849C19.6706 19.1384 18.5593 20.1389 17.225 20.1389C16.7665 20.1389 16.3356 20.0213 15.9623 19.8152L15.732 19.6879L15.4966 19.8058C15.0714 20.0188 14.5913 20.1389 14.0832 20.1389C13.5705 20.1389 13.0873 20.0169 12.6602 19.801L12.2516 19.5945L12.01 19.9833C11.5195 20.7723 10.6465 21.2956 9.65104 21.2956C8.35056 21.2956 7.25783 20.4008 6.95731 19.1925L6.83545 18.7026L6.34674 18.8292C6.12429 18.8868 5.89062 18.9176 5.6492 18.9176C4.11624 18.9176 2.87354 17.6749 2.87354 16.1419C2.87354 15.379 3.18051 14.6896 3.67824 14.1878L3.98849 13.875L3.71725 13.5278C3.39517 13.1156 3.2032 12.5975 3.2032 12.0326C3.2032 10.6897 4.29183 9.60107 5.63473 9.60107C5.68232 9.60107 5.72957 9.60244 5.77646 9.60514L6.64559 9.6552L6.25085 8.87926C6.08307 8.54945 5.98809 8.17592 5.98809 7.77877C5.98809 6.46821 7.0251 5.39963 8.32304 5.34912L8.6841 5.33506L8.78407 4.98784C9.16394 3.6686 10.3804 2.70441 11.8208 2.70441C13.1869 2.70441 14.3513 3.57131 14.7921 4.78703L14.9119 5.11765L15.2636 5.11661L15.2776 5.11656C15.2779 5.11656 15.2781 5.11656 15.2783 5.11656C16.3451 5.11691 17.2358 5.87579 17.4381 6.88343ZM17.0841 7.94576L17.0813 7.94578L17.071 7.94583C17.0709 7.94583 17.0709 7.94583 17.0708 7.94583C16.9565 7.94623 16.8475 7.8974 16.7717 7.8118C16.6958 7.72615 16.6606 7.61198 16.6748 7.49847C16.6822 7.44028 16.686 7.38082 16.686 7.32028C16.686 6.54247 16.0554 5.91193 15.2776 5.91193C15.0826 5.91193 14.8977 5.95136 14.7298 6.02232C14.6118 6.07219 14.477 6.06218 14.3677 5.99541C14.2584 5.92864 14.1879 5.8133 14.1784 5.68555C14.0874 4.46312 13.0662 3.49977 11.8208 3.49977C10.5198 3.49977 9.46419 4.55059 9.45653 5.84976C9.45578 5.97702 9.39417 6.09623 9.2908 6.17045C9.18743 6.24468 9.05478 6.26494 8.93396 6.22497C8.77272 6.17164 8.59995 6.14261 8.41961 6.14261C7.51599 6.14261 6.78345 6.87514 6.78345 7.77877C6.78345 8.35432 7.08042 8.86145 7.5325 9.15385C7.64388 9.22589 7.71201 9.34872 7.71416 9.48135C7.7163 9.61398 7.65217 9.73895 7.54317 9.81455C7.31365 9.97374 7.12687 10.1901 7.00344 10.4424C6.95508 10.5413 6.86792 10.6157 6.76268 10.6479C6.65746 10.6802 6.54357 10.6674 6.44813 10.6126C6.20884 10.4751 5.93155 10.3964 5.63473 10.3964C4.7311 10.3964 3.99857 11.129 3.99857 12.0326C3.99857 12.7079 4.40797 13.2896 4.9954 13.5392C5.14585 13.6032 5.24185 13.7527 5.23739 13.9161C5.23292 14.0795 5.12891 14.2236 4.97519 14.2792C4.21211 14.5554 3.6689 15.2862 3.6689 16.1419C3.6689 17.2356 4.55551 18.1222 5.6492 18.1222C6.22585 18.1222 6.74473 17.8763 7.10737 17.4819C7.23469 17.3434 7.4416 17.3131 7.6033 17.4092C7.765 17.5053 7.83724 17.7016 7.77645 17.8796C7.70803 18.0799 7.67074 18.2952 7.67074 18.5199C7.67074 19.6136 8.55735 20.5002 9.65104 20.5002C10.6632 20.5002 11.4993 19.7403 11.6171 18.759C11.6358 18.6035 11.7441 18.4734 11.8937 18.4268C12.0433 18.3802 12.2064 18.4258 12.3101 18.5433C12.744 19.0348 13.3774 19.3435 14.0832 19.3435C14.6202 19.3435 15.1144 19.165 15.5112 18.8637C15.6632 18.7483 15.8757 18.7571 16.0176 18.8847L16.3519 18.5129L16.0176 18.8847C16.3337 19.1689 16.7572 19.3435 17.225 19.3435C18.2179 19.3435 18.9996 18.562 18.9996 17.6261C18.9996 17.5615 18.9959 17.498 18.9888 17.4355C18.9697 17.2676 19.0588 17.106 19.2109 17.0325C19.8752 16.7116 20.3311 16.0323 20.3311 15.2481C20.3311 14.1544 19.4445 13.2678 18.3508 13.2678C18.3202 13.2678 18.2898 13.2685 18.2596 13.2699C18.1425 13.2752 18.029 13.2285 17.9495 13.1425L17.5822 13.4818L17.9495 13.1425C17.87 13.0564 17.8325 12.9396 17.847 12.8233L17.3509 12.7613L17.847 12.8233C17.859 12.7275 17.8651 12.6298 17.8651 12.5304C17.8651 12.0491 17.7201 11.6033 17.4717 11.2333C17.4059 11.1353 17.3871 11.0131 17.4203 10.8998C17.4535 10.7865 17.5353 10.6938 17.6436 10.6469L17.4446 10.1882L17.6436 10.6469C18.1445 10.4295 18.492 9.93126 18.492 9.35412C18.492 8.57708 17.8627 7.94703 17.086 7.94577L17.0856 7.94577L17.0841 7.94576ZM6.13402 16.097C6.13402 16.3166 5.95597 16.4947 5.73634 16.4947C5.51671 16.4947 5.33866 16.3166 5.33866 16.097C5.33866 15.8774 5.51671 15.6993 5.73634 15.6993C5.95597 15.6993 6.13402 15.8774 6.13402 16.097ZM12.1951 6.33427C12.1951 6.55391 12.0171 6.73196 11.7975 6.73196C11.5778 6.73196 11.3998 6.55391 11.3998 6.33427C11.3998 6.11464 11.5778 5.93659 11.7975 5.93659C12.0171 5.93659 12.1951 6.11464 12.1951 6.33427ZM14.4222 16.9947C14.4222 17.2143 14.2442 17.3924 14.0246 17.3924C13.8049 17.3924 13.6269 17.2143 13.6269 16.9947C13.6269 16.7751 13.8049 16.597 14.0246 16.597C14.2442 16.597 14.4222 16.7751 14.4222 16.9947Z" fill="black" stroke="black"/>
</svg>
