<svg width="48" height="48" viewBox="0 0 48 48" fill="none" xmlns="http://www.w3.org/2000/svg">
<path d="M12.9294 19.2569C13.3199 19.6474 13.9531 19.6474 14.3436 19.2569C14.7341 18.8664 14.7341 18.2332 14.3436 17.8427L8.34358 11.8427C7.95306 11.4522 7.31989 11.4522 6.92937 11.8427C6.53884 12.2332 6.53884 12.8664 6.92937 13.2569L12.9294 19.2569Z" fill="black"/>
<path d="M4.30265 13.6512C3.90681 14.0363 3.89814 14.6694 4.28327 15.0653L12.0077 23.0043L26.0105 23.0043C26.1134 21.9479 26.9558 21.1082 28.0134 21.0097C27.9791 21.0061 27.9443 21.0043 27.9091 21.0043L12.8522 21.0043L5.71673 13.6706C5.33159 13.2747 4.69848 13.2661 4.30265 13.6512Z" fill="black"/>
<path d="M28.0337 26.9921C26.968 26.9026 26.1162 26.0609 26.011 24.9998L12.0077 24.9998L4.28327 32.9388C3.89814 33.3346 3.90681 33.9677 4.30265 34.3529C4.69848 34.738 5.33159 34.7293 5.71673 34.3335L12.8522 26.9998L27.9091 26.9998C27.9513 26.9998 27.9929 26.9971 28.0337 26.9921Z" fill="black"/>
<path d="M14.3436 30.1615C14.7341 29.7709 14.7341 29.1378 14.3436 28.7472C13.9531 28.3567 13.3199 28.3567 12.9294 28.7472L6.92937 34.7472C6.53884 35.1378 6.53884 35.7709 6.92937 36.1615C7.31989 36.552 7.95306 36.552 8.34358 36.1615L14.3436 30.1615Z" fill="black"/>
<path d="M30.8961 25H29.9542C29.8268 25.4057 29.4478 25.7 29 25.7C28.4477 25.7 28 25.2523 28 24.7V23.3C28 22.7477 28.4477 22.3 29 22.3C29.4478 22.3 29.8268 22.5943 29.9542 23H30.8961C31.031 22.3071 31.3036 21.6634 31.6842 21.0984L31.0999 20.5142C30.7089 20.8976 30.081 20.8952 29.6929 20.5071C29.3024 20.1166 29.3024 19.4834 29.6929 19.0929L31.0929 17.6929C31.4834 17.3023 32.1166 17.3023 32.5071 17.6929C32.8953 18.081 32.8976 18.7089 32.5142 19.1L33.0984 19.6842C33.6633 19.3036 34.3071 19.031 35 18.896V17.9542C34.5943 17.8268 34.3 17.4478 34.3 17C34.3 16.4477 34.7477 16 35.3 16H36.7C37.2523 16 37.7 16.4477 37.7 17C37.7 17.4478 37.4057 17.8268 37 17.9542V18.896C37.6929 19.031 38.3367 19.3036 38.9016 19.6842L39.4858 19.1C39.1024 18.7089 39.1047 18.081 39.4929 17.6929C39.8834 17.3023 40.5166 17.3023 40.9071 17.6929L42.3071 19.0929C42.6976 19.4834 42.6976 20.1166 42.3071 20.5071C41.919 20.8952 41.2911 20.8976 40.9001 20.5142L40.3158 21.0984C40.6964 21.6634 40.969 22.3071 41.104 23H42.0458C42.1732 22.5943 42.5522 22.3 43 22.3C43.5523 22.3 44 22.7477 44 23.3V24.7C44 25.2523 43.5523 25.7 43 25.7C42.5522 25.7 42.1732 25.4057 42.0458 25H41.1039C41.0026 25.5204 40.8236 26.013 40.5796 26.4653L41.6001 27.4858C41.9911 27.1024 42.619 27.1048 43.0071 27.4929C43.3976 27.8835 43.3976 28.5166 43.0071 28.9072L41.6071 30.3072C41.2166 30.6977 40.5834 30.6977 40.1929 30.3072C39.8047 29.919 39.8024 29.2911 40.1859 28.9L39.3026 28.0168C38.6494 28.5544 37.8628 28.9358 37 29.1039V30.0458C37.4057 30.1732 37.7 30.5522 37.7 31C37.7 31.5523 37.2523 32 36.7 32H36.0098L36 32L35.9902 32H35.3C34.7477 32 34.3 31.5523 34.3 31C34.3 30.5522 34.5943 30.1732 35 30.0458V29.1039C34.3071 28.9689 33.6633 28.6964 33.0984 28.3158L32.5141 28.9C32.8976 29.2911 32.8953 29.919 32.5071 30.3072C32.1166 30.6977 31.4834 30.6977 31.0929 30.3072L29.6929 28.9072C29.3024 28.5166 29.3024 27.8835 29.6929 27.4929C30.081 27.1048 30.7089 27.1024 31.0999 27.4858L31.6842 26.9016C31.3036 26.3366 31.0311 25.6929 30.8961 25Z" fill="black"/>
</svg>
