<svg width="48" height="48" viewBox="0 0 48 48" fill="none" xmlns="http://www.w3.org/2000/svg">
<path fill-rule="evenodd" clip-rule="evenodd" d="M31.6321 17.5251C32.9153 16.9632 33.8129 15.6733 33.8129 14.1719C33.8129 12.1542 32.1918 10.5184 30.192 10.5184L30.1635 10.5185C30.1823 10.3676 30.192 10.2137 30.192 10.0576C30.192 8.03981 28.5709 6.40408 26.5712 6.40408C26.0715 6.40408 25.5955 6.50619 25.1625 6.69087C24.9493 3.80166 22.5585 1.52441 19.6407 1.52441C16.5936 1.52441 14.1214 4.00777 14.1034 7.07806C13.7004 6.94354 13.2695 6.87073 12.8218 6.87073C10.5698 6.87073 8.74424 8.71278 8.74424 10.9851C8.74424 12.4349 9.48739 13.7095 10.6103 14.4423C10.0392 14.842 9.57413 15.3851 9.26636 16.0201C8.66908 15.6739 7.9767 15.476 7.23851 15.476C4.98652 15.476 3.16093 17.3181 3.16093 19.5903C3.16093 21.2921 4.18482 22.7525 5.64489 23.3786C3.81069 24.0484 2.5 25.8214 2.5 27.9033C2.5 30.5601 4.6345 32.7139 7.26753 32.7139C8.65637 32.7139 9.90651 32.1147 10.7779 31.1585C10.6127 31.6464 10.5231 32.1696 10.5231 32.7139C10.5231 35.3707 12.6576 37.5244 15.2907 37.5244C17.7293 37.5244 19.7403 35.677 20.0239 33.2935C21.0386 34.4531 22.5229 35.1845 24.1764 35.1845C25.4333 35.1845 26.5923 34.762 27.5216 34.0501C28.2979 34.7543 29.3355 35.1845 30.4753 35.1845C32.8806 35.1845 34.8305 33.2688 34.8305 30.9057C34.8305 30.7446 34.8214 30.5856 34.8038 30.4292C36.3993 29.6514 37.5 28.003 37.5 26.0952C37.5 23.4384 35.3655 21.2846 32.7325 21.2846C32.6591 21.2846 32.5861 21.2863 32.5136 21.2896C32.5416 21.0629 32.5561 20.8318 32.5561 20.5973C32.5561 19.4594 32.2155 18.4022 31.6321 17.5251ZM19.2632 8.4895C20.2631 8.4895 21.0736 7.67164 21.0736 6.66275C21.0736 5.65386 20.2631 4.836 19.2632 4.836C18.2633 4.836 17.4528 5.65386 17.4528 6.66275C17.4528 7.67164 18.2633 8.4895 19.2632 8.4895ZM9.14941 27.8916C9.14941 28.9005 8.33885 29.7184 7.33899 29.7184C6.33912 29.7184 5.52857 28.9005 5.52857 27.8916C5.52857 26.8827 6.33912 26.0648 7.33899 26.0648C8.33885 26.0648 9.14941 26.8827 9.14941 27.8916ZM28.2543 21.96C28.9209 21.96 29.4612 21.4148 29.4612 20.7422C29.4612 20.0696 28.9209 19.5243 28.2543 19.5243C27.5877 19.5243 27.0474 20.0696 27.0474 20.7422C27.0474 21.4148 27.5877 21.96 28.2543 21.96ZM25.4712 30.9362C25.4712 31.6088 24.9308 32.154 24.2642 32.154C23.5977 32.154 23.0573 31.6088 23.0573 30.9362C23.0573 30.2636 23.5977 29.7184 24.2642 29.7184C24.9308 29.7184 25.4712 30.2636 25.4712 30.9362ZM13.3384 19.5243C14.0049 19.5243 14.5453 18.9791 14.5453 18.3065C14.5453 17.6339 14.0049 17.0887 13.3384 17.0887C12.6718 17.0887 12.1314 17.6339 12.1314 18.3065C12.1314 18.9791 12.6718 19.5243 13.3384 19.5243ZM17.4767 25.7006L16.7243 26.3676C16.6836 26.3711 16.6422 26.3749 16.6005 26.3791C15.7453 26.4644 14.8648 26.6805 14.2768 27.1008C13.6967 27.5155 13.2936 28.1819 13.0311 28.8343C12.9043 29.1495 12.8213 29.4344 12.7706 29.638C12.7454 29.7392 12.7286 29.8183 12.7188 29.8687C12.7138 29.8939 12.7106 29.9117 12.7089 29.9214L12.7079 29.9272L12.7076 29.9289C12.6036 30.5911 11.9882 31.0447 11.3309 30.942C10.6722 30.8392 10.2208 30.217 10.3228 29.5523L11.5155 29.7385C10.3228 29.5523 10.3228 29.5523 10.3228 29.5523L10.323 29.5507L10.3233 29.549L10.324 29.5447L10.3258 29.5335L10.3313 29.5007C10.3359 29.4743 10.3423 29.4389 10.3508 29.3955C10.3679 29.3088 10.3934 29.1892 10.4295 29.0444C10.5013 28.7561 10.6168 28.3599 10.7944 27.9183C11.1408 27.0574 11.7695 25.9081 12.8815 25.1133C13.9856 24.3241 15.3732 24.0539 16.3631 23.9552C16.4718 23.9444 16.5779 23.9354 16.6805 23.9281C16.5667 23.3822 16.5431 22.8568 16.5478 22.4432C16.5523 22.0452 16.5842 21.6971 16.6149 21.4474C16.6304 21.3218 16.6458 21.2192 16.6578 21.1454C16.6638 21.1085 16.6691 21.0786 16.673 21.0566L16.6781 21.0294L16.6798 21.0203L16.6804 21.0169L16.6807 21.0155C16.6807 21.0155 16.6809 21.0143 17.8649 21.2512L16.6809 21.0143C16.8106 20.3546 17.4457 19.9258 18.0996 20.0566C18.7525 20.1872 19.1771 20.8264 19.0493 21.4851L19.049 21.487L19.0478 21.4933C19.0462 21.5025 19.0433 21.5187 19.0396 21.5414C19.0322 21.5868 19.0215 21.6573 19.0104 21.7477C18.9879 21.9299 18.9647 22.1846 18.9615 22.4709C18.9546 23.0881 19.044 23.6612 19.2534 24.0201C19.4582 24.3711 19.8587 24.6733 20.3213 24.902C20.5383 25.0092 20.7386 25.0853 20.883 25.1339C20.9544 25.1579 21.0102 25.1746 21.045 25.1844C21.052 25.1864 21.0581 25.1881 21.0633 25.1895C21.0706 25.1915 21.076 25.193 21.0796 25.1939L21.0813 25.1944L21.083 25.1948C21.7284 25.3532 22.127 26.0088 21.9725 26.6613C21.8176 27.3155 21.1664 27.7191 20.5181 27.5628L20.7985 26.3783C20.5181 27.5628 20.5181 27.5628 20.5181 27.5628L20.5167 27.5625L20.5151 27.5621L20.5114 27.5612L20.5021 27.5589L20.4754 27.552C20.4542 27.5465 20.4262 27.539 20.3921 27.5293C20.324 27.51 20.2312 27.4821 20.1195 27.4445C19.8977 27.3699 19.5939 27.2546 19.2594 27.0893C18.919 26.9211 18.5077 26.6819 18.1138 26.3523C18.0822 26.3522 18.0504 26.3509 18.0183 26.3483L18.0171 26.3482L18.0021 26.3471C17.9873 26.3461 17.9627 26.3446 17.9292 26.3429C17.8622 26.3395 17.7603 26.3355 17.631 26.334C17.3978 26.3314 17.0814 26.3371 16.7243 26.3676L17.4767 25.7006ZM21.0813 25.1944L19.0493 21.4851L21.0796 25.1939L21.0813 25.1944Z" fill="currentColor"/>
</svg>
