<svg width="48" height="48" viewBox="0 0 48 48" fill="none" xmlns="http://www.w3.org/2000/svg">
<path fill-rule="evenodd" clip-rule="evenodd" d="M20.2004 16.1135C20.1594 14.9599 20.1941 13.7897 20.5763 12.8929C20.7724 12.4329 21.0485 12.0759 21.4392 11.8253C21.8336 11.5723 22.4223 11.3779 23.3244 11.3779C24.3124 11.3779 25.1417 11.737 25.7424 12.1183C26.0406 12.3076 26.2727 12.4965 26.4272 12.635C26.5042 12.7039 26.5608 12.7595 26.5958 12.795C26.6133 12.8127 26.6253 12.8254 26.6316 12.8321L26.6365 12.8374C27.0034 13.2472 27.6328 13.2838 28.0448 12.9186C28.4581 12.5522 28.4961 11.9202 28.1297 11.5069L27.3814 12.1703C28.1297 11.5069 28.1286 11.5057 28.1286 11.5057L28.1274 11.5043L28.1245 11.5011L28.1168 11.4926L28.0943 11.4682C28.0761 11.4487 28.0516 11.4228 28.0208 11.3916C27.9592 11.3291 27.8725 11.2446 27.7619 11.1455C27.5414 10.9479 27.222 10.6887 26.8144 10.4299C26.0035 9.91508 24.8044 9.37793 23.3244 9.37793C22.1321 9.37793 21.1459 9.63728 20.3593 10.1419C19.5691 10.6488 19.0584 11.3533 18.7364 12.1088C18.1831 13.4071 18.1583 14.9376 18.1988 16.1135H14.9627C14.4105 16.1135 13.9546 16.5644 14.0421 17.1097C14.6276 20.7598 18.3884 23.633 23.082 23.9674V29H25.082V23.9546C26.1056 23.8684 27.0831 23.6613 27.991 23.3519C27.9969 23.4207 28 23.4933 28 23.57C28 23.9144 27.6946 24.4533 26.835 24.9776C26.5749 25.1363 26.2918 25.275 25.9996 25.3902V27.4993C26.6635 27.3102 27.3099 27.0307 27.8765 26.6851C28.9207 26.0482 30 24.9858 30 23.57C30 23.2139 29.9603 22.8579 29.8676 22.5127C32.0698 21.2639 33.6016 19.3307 33.9579 17.1097C34.0454 16.5644 33.5895 16.1135 33.0372 16.1135H20.2004ZM24 21.9999C20.2783 21.9999 17.5269 20.2082 16.4574 18.1135H31.5425C30.4731 20.2082 27.7216 21.9999 24 21.9999Z" fill="currentColor"/>
<path d="M28.6154 34.2726C28.6154 35.0573 28.3919 35.7605 27.9789 36.3388H29.7356V38.3388H18.2644V36.3388H23.082V34H25.082V35.9066C25.4976 35.8152 25.8198 35.6639 26.0515 35.4846C26.4058 35.2105 26.6154 34.824 26.6154 34.2726C26.6154 33.7212 26.4058 33.3348 26.0515 33.0606C25.6693 32.7649 25.041 32.5453 24.1538 32.5453C23.0991 32.5453 21.8797 32.4654 20.8971 32.0353C20.388 31.8124 19.8999 31.4778 19.5419 30.9741C19.1783 30.4626 19 29.8483 19 29.1589C19 28.4696 19.1783 27.8553 19.5419 27.3438C19.8999 26.8401 20.388 26.5055 20.8971 26.2826C21.2413 26.1319 21.6146 26.0242 21.9996 25.9479V28.005C21.8924 28.0376 21.792 28.0741 21.6991 28.1148C21.4293 28.2328 21.2684 28.3669 21.1721 28.5025C21.0813 28.6302 21 28.8255 21 29.1589C21 29.4923 21.0813 29.6877 21.1721 29.8154C21.2684 29.951 21.4293 30.085 21.6991 30.2031C22.2741 30.4548 23.1317 30.5453 24.1538 30.5453C25.3436 30.5453 26.4461 30.8371 27.2754 31.4789C28.1327 32.1422 28.6154 33.1195 28.6154 34.2726Z" fill="currentColor"/>
<path fill-rule="evenodd" clip-rule="evenodd" d="M6.5 9C6.5 7.34315 7.84315 6 9.5 6H39.5C41.1569 6 42.5 7.34315 42.5 9V39C42.5 40.6569 41.1569 42 39.5 42H9.5C7.84315 42 6.5 40.6569 6.5 39V9ZM8.5 9C8.5 8.44772 8.94771 8 9.5 8H39.5C40.0523 8 40.5 8.44771 40.5 9V39C40.5 39.5523 40.0523 40 39.5 40H9.5C8.94772 40 8.5 39.5523 8.5 39V9Z" fill="currentColor"/>
</svg>
