<svg width="48" height="48" viewBox="0 0 48 48" fill="none" xmlns="http://www.w3.org/2000/svg">
<path fill-rule="evenodd" clip-rule="evenodd" d="M25.6837 11.9219C25.0701 11.7491 24.2352 11.7415 23.3436 11.7415C22.2934 11.7415 21.6815 12.0124 21.3024 12.3378C20.9127 12.6722 20.653 13.1641 20.4979 13.8108C20.3417 14.4622 20.3084 15.2021 20.3224 15.9477C20.3248 16.0731 20.3284 16.197 20.3329 16.3193H32.0644C32.6167 16.3193 33.0737 16.771 32.9729 17.314C32.3453 20.6936 28.5673 23.2916 24.0004 23.2916C19.4335 23.2916 15.6555 20.6936 15.028 17.314C14.9271 16.771 15.3841 16.3193 15.9364 16.3193H18.3317C18.328 16.2099 18.3249 16.0983 18.3228 15.9853C18.3077 15.1794 18.338 14.2411 18.553 13.3444C18.7692 12.4429 19.1882 11.5167 19.9997 10.8202C20.8218 10.1145 21.9333 9.74146 23.3436 9.74146L23.4102 9.74145C24.216 9.74125 25.3177 9.74097 26.2259 9.9968C26.7055 10.1319 27.2253 10.3619 27.6311 10.7819C28.0623 11.2281 28.2891 11.8105 28.2891 12.4845C28.2891 13.0368 27.8414 13.4845 27.2891 13.4845C26.7368 13.4845 26.2891 13.0368 26.2891 12.4845C26.2891 12.287 26.2355 12.2158 26.1929 12.1717C26.125 12.1015 25.9776 12.0047 25.6837 11.9219ZM18.4224 35.9335V37.9335H29.5781V35.9335H18.4224Z" fill="#333333"/>
<path fill-rule="evenodd" clip-rule="evenodd" d="M28.6392 20.5596C29.7901 21.2757 30.2616 22.3493 30.2616 23.5275C30.2616 24.7006 29.7951 25.7872 28.6526 26.5235C27.9295 26.9895 26.9817 27.2844 25.8052 27.4251V25.4077C26.6422 25.2853 27.2043 25.0775 27.5692 24.8424C28.0706 24.5192 28.2616 24.1081 28.2616 23.5275C28.2616 22.9522 28.0756 22.5645 27.5826 22.2577C26.9992 21.8948 25.9115 21.605 24.001 21.605V19.605C26.036 19.605 27.5786 19.8997 28.6392 20.5596ZM22.1954 25.5509V27.5537C21.6061 27.5845 21.09 27.6464 20.664 27.7705C20.2743 27.884 20.0579 28.0244 19.9394 28.1575C19.8392 28.27 19.7405 28.4522 19.7405 28.8208C19.7405 29.1922 19.8397 29.3763 19.9405 29.4899C20.0592 29.6236 20.2756 29.7644 20.6648 29.8781C21.4754 30.1149 22.6121 30.126 23.9601 30.1262L23.9688 30.1255C24.0043 30.123 24.0525 30.1201 24.1117 30.1178C24.2298 30.1132 24.3933 30.1108 24.5877 30.119C24.9703 30.1351 25.5034 30.193 26.0541 30.3728C26.6045 30.5524 27.2223 30.8705 27.7046 31.4393C28.2007 32.0243 28.4865 32.7962 28.4865 33.7501C28.4865 34.7032 28.2006 35.4738 27.6897 36.0493C27.1943 36.6074 26.5624 36.8976 26.0078 37.0494C25.9398 37.0681 25.8721 37.0848 25.805 37.0999V35.0023C25.9656 34.9263 26.0956 34.8325 26.194 34.7216C26.3367 34.5608 26.4865 34.2832 26.4865 33.7501C26.4865 33.2177 26.3366 32.9185 26.1792 32.7328C26.008 32.5309 25.7544 32.3788 25.4335 32.2741C25.1128 32.1694 24.7745 32.1287 24.5036 32.1173C24.3712 32.1117 24.2625 32.1134 24.1899 32.1162C24.1538 32.1176 24.1271 32.1193 24.1116 32.1204L24.0971 32.1216L24.0961 32.1216L24.0509 32.1262L23.9066 32.1262C22.6635 32.1264 21.2293 32.1266 20.104 31.7979C19.5068 31.6234 18.9012 31.332 18.4446 30.8173C17.97 30.2825 17.7405 29.6021 17.7405 28.8208C17.7405 28.0406 17.9705 27.3612 18.4457 26.8275C18.9026 26.3143 19.5081 26.024 20.1048 25.8502C20.7341 25.667 21.4601 25.5863 22.1954 25.5509Z" fill="#333333"/>
<path fill-rule="evenodd" clip-rule="evenodd" d="M23.0802 33.0134V36.8878H25.0802V33.0134H23.0802ZM23.0802 29.4036H25.0802V21.3024H23.0802V29.4036Z" fill="#333333"/>
<path fill-rule="evenodd" clip-rule="evenodd" d="M39.5 8H9.5C8.94771 8 8.5 8.44772 8.5 9V39C8.5 39.5523 8.94772 40 9.5 40H39.5C40.0523 40 40.5 39.5523 40.5 39V9C40.5 8.44771 40.0523 8 39.5 8ZM9.5 6C7.84315 6 6.5 7.34315 6.5 9V39C6.5 40.6569 7.84315 42 9.5 42H39.5C41.1569 42 42.5 40.6569 42.5 39V9C42.5 7.34315 41.1569 6 39.5 6H9.5Z" fill="#333333"/>
</svg>
