<svg width="24" height="24" viewBox="0 0 24 24" fill="none" xmlns="http://www.w3.org/2000/svg">
<path d="M6.27582 7.78964C6.65671 8.18957 7.28968 8.20501 7.68961 7.82412C8.08954 7.44323 8.10498 6.81026 7.72409 6.41033L5.72409 4.31034C5.3432 3.91042 4.71023 3.89498 4.3103 4.27587C3.91037 4.65675 3.89493 5.28973 4.27582 5.68966L6.27582 7.78964Z" fill="black"/>
<path d="M2.31034 6.37582C1.91042 6.75671 1.89498 7.38968 2.27587 7.78961L5.57143 11.2499H13.1632C13.3428 10.8588 13.6583 10.5432 14.0494 10.3635C13.917 10.0061 13.9019 9.61501 14.0042 9.24993L6.42857 9.24993L3.72414 6.4103C3.34325 6.01037 2.71027 5.99493 2.31034 6.37582Z" fill="black"/>
<path d="M13.1632 12.75C13.3427 13.1411 13.6583 13.4568 14.0493 13.6364C13.9169 13.9939 13.9019 14.385 14.0042 14.75H6.42857L3.72414 17.5897C3.34325 17.9896 2.71027 18.005 2.31034 17.6242C1.91042 17.2433 1.89498 16.6103 2.27587 16.2104L5.57143 12.75H13.1632Z" fill="black"/>
<path d="M15.8339 13.0347C15.7975 12.9586 15.7649 12.8803 15.7366 12.8H14.8C14.7542 12.8 14.7093 12.7961 14.6656 12.7888C14.6158 12.7803 14.5674 12.7673 14.5211 12.75C14.2168 12.6369 14 12.3437 14 12C14 11.6562 14.2168 11.3631 14.5211 11.2499C14.5675 11.2327 14.6158 11.2196 14.6658 11.2112C14.7094 11.2038 14.7543 11.2 14.8 11.2H15.7366C15.765 11.1197 15.7975 11.0413 15.8339 10.9652L15.1717 10.3029C15.1393 10.2705 15.1103 10.2361 15.0846 10.2C14.8836 9.91711 14.8884 9.53281 15.099 9.25477C15.121 9.22578 15.1452 9.19794 15.1717 9.1715C15.4841 8.85908 15.9906 8.85908 16.303 9.1715L16.9654 9.83384C17.0414 9.79744 17.1197 9.76493 17.2 9.73656V8.8C17.2 8.35817 17.5582 8 18 8C18.4418 8 18.8 8.35817 18.8 8.8V9.73656C18.8802 9.76493 18.9585 9.79744 19.0346 9.83384L19.697 9.1715C20.0094 8.85908 20.5159 8.85908 20.8283 9.1715C21.1407 9.48392 21.1407 9.99045 20.8283 10.3029L20.166 10.9652C20.2025 11.0413 20.235 11.1197 20.2634 11.2H21.2C21.6418 11.2 22 11.5582 22 12C22 12.4418 21.6418 12.8 21.2 12.8H20.2634C20.235 12.8803 20.2025 12.9586 20.1661 13.0347L20.8284 13.697C21.1408 14.0094 21.1408 14.516 20.8284 14.8284C20.516 15.1408 20.0094 15.1408 19.697 14.8284L19.0347 14.1661C18.9586 14.2025 18.8803 14.235 18.8 14.2634V15.1998C18.8 15.6417 18.4418 15.9998 18 15.9998C17.5582 15.9998 17.2 15.6417 17.2 15.1998V14.2634C17.1197 14.235 17.0414 14.2025 16.9653 14.1661L16.303 14.8284C15.9905 15.1408 15.484 15.1408 15.1716 14.8284C15.1452 14.802 15.121 14.7742 15.099 14.7452C14.8883 14.4672 14.8835 14.0829 15.0845 13.8C15.1102 13.7639 15.1392 13.7294 15.1716 13.697L15.8339 13.0347Z" fill="black"/>
<path d="M6.27582 16.2104C6.65671 15.8104 7.28968 15.795 7.68961 16.1759C8.08954 16.5568 8.10498 17.1897 7.72409 17.5897L5.72409 19.6897C5.3432 20.0896 4.71023 20.105 4.3103 19.7241C3.91037 19.3432 3.89493 18.7103 4.27582 18.3103L6.27582 16.2104Z" fill="black"/>
</svg>
