<svg width="24" height="24" viewBox="0 0 24 24" fill="none" xmlns="http://www.w3.org/2000/svg">
<path d="M19.6564 10.7514L15.9361 13.4001C15.4756 13.728 15.0831 14.1457 14.7814 14.629L13.6914 16.375C13.6586 16.4276 13.6254 16.4784 13.5896 16.529C13.3244 16.9041 12.1002 18.5849 10.9816 19.2952C9.65485 20.1377 6.83242 20.6151 6.28551 20.7016C6.22286 20.7115 6.16274 20.7189 6.09965 20.7251C5.60733 20.774 3.31584 21 3 21V16.1698H4.84645C5.11947 16.1698 5.38171 16.0578 5.57954 15.8568L7.78897 13.6127C8.62735 12.7173 11.0825 11.7485 12.5122 11.3574C12.5527 11.3463 12.5827 11.3114 12.5902 11.2675L13.0736 8.42855C13.0977 8.28696 13.1467 8.15155 13.2182 8.02951L15.3664 4.35885C15.5732 4.00551 16.034 3.94947 16.3099 4.2441C16.958 4.93628 17.1857 5.95939 16.8984 6.88896L16.3027 7.9301L18.9078 3.52505C19.2259 2.98733 19.923 2.83615 20.4277 3.19546L20.5445 3.27865C20.8791 3.51687 21.0509 3.92938 20.9867 4.34063L20.0986 10.0313C20.0531 10.3226 19.8935 10.5826 19.6564 10.7514Z" fill="black"/>
</svg>
