<svg width="24" height="24" viewBox="0 0 24 24" fill="none" xmlns="http://www.w3.org/2000/svg">
<path fill-rule="evenodd" clip-rule="evenodd" d="M12 2.62109L11.3091 3.27706L11.3047 3.28132L11.2893 3.29603C11.2763 3.30856 11.2578 3.32649 11.2341 3.34964C11.1867 3.39593 11.1186 3.46309 11.0327 3.54951C10.8611 3.72228 10.6182 3.97241 10.3278 4.28696C9.74798 4.91491 8.97332 5.80542 8.19641 6.85437C6.68297 8.89777 5 11.7525 5 14.5051C5 18.1731 8.21859 21.0001 12 21.0001C15.7814 21.0001 19 18.1731 19 14.5051C19 11.7525 17.317 8.89777 15.8036 6.85437C15.0267 5.80542 14.252 4.91491 13.6722 4.28696C13.3818 3.97241 13.1389 3.72228 12.9673 3.54951C12.8814 3.46309 12.8133 3.39593 12.7659 3.34964C12.7422 3.32649 12.7237 3.30856 12.7107 3.29603L12.6953 3.28132L12.6909 3.27706L12 2.62109ZM10.0979 14.6181C9.92721 14.0928 9.36305 13.8054 8.8378 13.9761C8.31254 14.1467 8.02509 14.7109 8.19576 15.2361C8.45679 16.0395 8.96545 16.7396 9.64884 17.2361C10.3322 17.7326 11.1553 18.0001 12 18.0001C12.5523 18.0001 13 17.5524 13 17.0001C13 16.4478 12.5523 16.0001 12 16.0001C11.5776 16.0001 11.1661 15.8664 10.8244 15.6181C10.4827 15.3698 10.2284 15.0198 10.0979 14.6181Z" fill="black"/>
</svg>
