<svg width="24" height="24" viewBox="0 0 24 24" fill="none" xmlns="http://www.w3.org/2000/svg">
<path d="M14.5 4.5C14.5 5.88071 13.3807 7 12 7C10.6193 7 9.49999 5.88071 9.49999 4.5C9.49999 3.11929 10.6193 2 12 2C13.3807 2 14.5 3.11929 14.5 4.5Z" fill="black"/>
<path d="M4.02928 7.75975C4.16196 7.22364 4.70413 6.8966 5.24024 7.02929C7.90135 7.6879 9.93431 8.00126 11.9569 8C13.9811 7.99873 16.044 7.68236 18.7662 7.02772C19.3031 6.89858 19.8431 7.2292 19.9723 7.76618C20.1014 8.30315 19.7708 8.84314 19.2338 8.97228C17.6809 9.34574 16.3025 9.62064 15 9.79168V13.9643L15.4974 20.9288C15.5368 21.4796 15.1221 21.9581 14.5712 21.9975C14.0204 22.0368 13.5419 21.6221 13.5025 21.0712L13.1403 16H10.8597L10.4974 21.0712C10.4581 21.6221 9.97962 22.0368 9.42874 21.9975C8.87786 21.9581 8.46318 21.4796 8.50253 20.9288L8.99999 13.9643V9.80345C7.68963 9.63358 6.31102 9.35465 4.75974 8.97071C4.22363 8.83803 3.89659 8.29586 4.02928 7.75975Z" fill="black"/>
</svg>
