<svg width="24" height="24" viewBox="0 0 24 24" fill="none" xmlns="http://www.w3.org/2000/svg">
<path fill-rule="evenodd" clip-rule="evenodd" d="M16.4607 1.60654C16.5304 1.53941 16.5924 1.47977 16.6445 1.42773L18.0587 2.84195C17.9805 2.92012 17.8996 2.99889 17.817 3.0792C17.573 3.31671 17.315 3.56771 17.0739 3.85674L20.1433 6.92612C20.4323 6.68505 20.6833 6.42714 20.9208 6.18308C21.001 6.10065 21.08 6.01949 21.1581 5.94141L22.5723 7.35562C22.5203 7.40755 22.4608 7.46938 22.3939 7.53897C21.9584 7.99166 21.207 8.77267 20.1684 9.29196C19.2773 9.73749 18.1994 9.98793 16.9197 9.82747C17.0801 11.1072 16.8297 12.1851 16.3842 13.0762C16.0868 13.671 15.7037 14.1714 15.3455 14.5723L15.3505 14.5773C15.3041 14.6238 15.2515 14.6782 15.193 14.739C15.0929 14.8459 14.9961 14.9446 14.9053 15.0348C14.815 15.1256 14.7164 15.2224 14.6095 15.3225C14.5487 15.381 14.4943 15.4336 14.4478 15.48L14.4428 15.4751C14.0419 15.8332 13.5415 16.2163 12.9467 16.5137C12.0556 16.9592 10.9776 17.2097 9.69782 17.0492C9.8583 18.329 9.60787 19.4069 9.16232 20.298C8.64303 21.3366 7.86247 22.0876 7.40978 22.5231C7.34019 22.59 7.27791 22.6499 7.22598 22.7019L5.81177 21.2877C5.88985 21.2096 5.97069 21.1309 6.05312 21.0507C6.31554 20.7953 6.59429 20.5241 6.85058 20.2071L3.79297 17.1494C3.47595 17.4057 3.20503 17.6841 2.94968 17.9465C2.86938 18.0291 2.79061 18.11 2.71243 18.1882L1.29822 16.774C1.35026 16.7219 1.40989 16.66 1.47702 16.5902C1.91254 16.1375 2.6635 15.3569 3.70207 14.8376C4.59314 14.3921 5.67106 14.1417 6.95085 14.3021C6.79039 13.0224 7.04083 11.9445 7.48636 11.0534C7.78375 10.4586 8.16683 9.95818 8.52495 9.55728L8.51996 9.55229C8.56646 9.5058 8.61902 9.45136 8.67757 9.39052C8.7777 9.28364 8.87446 9.18503 8.96523 9.09482C9.05544 9.00405 9.15405 8.90728 9.26094 8.80715C9.32178 8.7486 9.37621 8.69605 9.4227 8.64955L9.42769 8.65454C9.82858 8.29643 10.329 7.91334 10.9238 7.61595C11.8149 7.17041 12.8928 6.91997 14.1726 7.08045C14.0121 5.80062 14.2626 4.72268 14.7081 3.83159C15.2274 2.79301 16.008 2.04205 16.4607 1.60654ZM5.75055 16.2786L7.72138 18.2494C7.78087 17.747 7.74136 17.1587 7.53531 16.4646C6.84129 16.2586 6.25297 16.2191 5.75055 16.2786ZM16.3351 7.66499C16.1145 6.92167 16.0848 6.2996 16.1632 5.77445L18.2256 7.83686C17.7005 7.91528 17.0784 7.88564 16.3351 7.66499ZM14.7572 9.24295C14.0202 9.02415 13.4023 8.99314 12.88 9.06907L14.931 11.1201C15.007 10.5978 14.976 9.97996 14.7572 9.24295ZM10.6519 10.2459C10.7493 10.1542 10.8507 10.0633 10.9573 9.9748L14.0253 13.0427C13.9367 13.1493 13.8459 13.2507 13.7542 13.3481L13.6991 13.4047C13.6306 13.4752 13.5608 13.5469 13.4894 13.6189C13.4173 13.6903 13.3457 13.76 13.2753 13.8286L13.2186 13.8837C13.1689 13.9305 13.1182 13.977 13.0663 14.0231L9.9769 10.9338C10.023 10.8819 10.0696 10.8312 10.1163 10.7815L10.1714 10.7249C10.2399 10.6545 10.3098 10.5827 10.3811 10.5107C10.4531 10.4394 10.5246 10.3698 10.595 10.3013L10.6519 10.2459ZM8.98327 12.7686C8.85845 13.3393 8.85992 14.033 9.11333 14.8867C9.96702 15.1401 10.6608 15.1416 11.2315 15.0168L8.98327 12.7686Z" fill="currentColor"/>
</svg>
