<svg width="24" height="24" viewBox="0 0 24 24" fill="none" xmlns="http://www.w3.org/2000/svg">
<path d="M12 4C9.15911 4 6.82451 5.843 6.1796 8.258L4.24731 7.742C5.13715 4.40982 8.29749 2 12 2C16.3667 2 20 5.36652 20 9.63158C20 11.2595 19.5695 12.4838 18.8704 13.4421C18.1896 14.3754 17.3015 14.9873 16.5297 15.4693C16.3457 15.5842 16.1726 15.6897 16.0094 15.7891C15.4365 16.1383 14.9867 16.4123 14.6225 16.7547C14.225 17.1285 14 17.5269 14 18.1579C14 20.3301 12.1575 22 10 22C7.84251 22 6.00002 20.3301 6.00002 18.1579H8.00002C8.00002 19.125 8.84381 20 10 20C11.1562 20 12 19.125 12 18.1579C12 16.8835 12.525 15.9818 13.2525 15.2977C13.7845 14.7974 14.4697 14.382 15.0667 14.0199C15.2071 13.9348 15.3428 13.8525 15.4703 13.7729C16.1985 13.3182 16.8105 12.8723 17.2546 12.2634C17.6805 11.6797 18 10.8776 18 9.63158C18 6.5716 15.3654 4 12 4Z" fill="black"/>
<path d="M14.9062 6.58619C12.4676 5.5024 10.3862 5.56657 8.91623 6.81154C7.52474 7.99004 7.00002 9.9779 7.00002 12V13C7.00002 14.6569 8.34317 16 10 16C12.8826 16 14.3229 13.559 14.0621 11.5205C13.9281 10.4729 13.3415 9.45208 12.2331 8.92041C11.577 8.60568 10.8087 8.49577 9.95093 8.59504C10.0327 8.49977 10.1188 8.41392 10.2088 8.33772C10.8639 7.78293 12.0324 7.49759 14.0939 8.41381C14.5986 8.63811 15.1895 8.41082 15.4138 7.90614C15.6381 7.40145 15.4108 6.81049 14.9062 6.58619Z" fill="black"/>
</svg>
