<svg width="24" height="24" viewBox="0 0 24 24" fill="none" xmlns="http://www.w3.org/2000/svg">
<path fill-rule="evenodd" clip-rule="evenodd" d="M2.10108 11.5618C4.03534 7.5941 7.35505 5 12 5C16.6449 5 19.9646 7.59411 21.8988 11.5618L22.1048 11.9842L21.911 12.4124C20.9504 14.5344 19.6389 16.1958 17.9525 17.3226C16.263 18.4515 14.2626 19 12 19C9.73732 19 7.73695 18.4515 6.0474 17.3226C4.361 16.1958 3.04953 14.5344 2.08895 12.4124L1.89514 11.9842L2.10108 11.5618ZM4.11381 12.0158C4.92371 13.6498 5.94647 14.8498 7.15856 15.6597C7.21697 15.6987 7.27595 15.7369 7.33551 15.7743C6.50031 14.7434 5.99996 13.4301 5.99996 12C5.99996 10.6665 6.43498 9.43463 7.17083 8.43851C5.93483 9.29271 4.9162 10.5052 4.11381 12.0158ZM16.8291 8.43851C17.5649 9.43462 18 10.6665 18 12C18 13.4301 17.4996 14.7434 16.6644 15.7743C16.724 15.7369 16.783 15.6987 16.8414 15.6597C18.0535 14.8498 19.0762 13.6498 19.8861 12.0158C19.0837 10.5052 18.0651 9.29271 16.8291 8.43851ZM12 8C9.79082 8 7.99996 9.79086 7.99996 12C7.99996 14.2091 9.79082 16 12 16C14.2091 16 16 14.2091 16 12C16 9.79086 14.2091 8 12 8ZM9.99996 12C9.99996 10.8954 10.8954 10 12 10C13.1045 10 14 10.8954 14 12C14 13.1046 13.1045 14 12 14C10.8954 14 9.99996 13.1046 9.99996 12Z" fill="black"/>
</svg>
