<svg width="24" height="24" viewBox="0 0 24 24" fill="none" xmlns="http://www.w3.org/2000/svg">
<path d="M14.5711 12.4936L14.5744 12.4723L14.5768 12.4508L15.4004 5H19.3671V12.84C19.3671 12.891 19.3684 12.9419 19.371 12.9925C19.0478 12.5549 18.5259 12.2739 17.9403 12.2814C16.9739 12.2938 16.2006 13.0873 16.2127 14.0534C16.218 14.4836 16.2074 14.6504 16.1939 14.7258C16.1602 14.7431 16.1025 14.7684 16.0107 14.7966C15.0868 15.0799 14.5673 16.0584 14.8502 16.9824L15.8064 16.6896L14.8502 16.9824C15.1333 17.9068 16.1121 18.4263 17.0362 18.1429C18.2024 17.7853 19.0239 17.0827 19.4265 16.0838C19.7021 15.4001 19.7195 14.6903 19.7156 14.252C19.7372 14.2939 19.7597 14.3353 19.7831 14.3761C20.3422 15.352 20.6958 16.1527 20.8708 16.7948C21.0475 17.443 21.0178 17.8394 20.9307 18.0742C20.7965 18.436 20.2651 18.9489 18.2279 18.9965L18.2513 19.9963L18.2279 18.9965C18.1391 18.9986 18.0384 18.9838 17.9332 18.9487L15.5313 18.1486C15.1237 18.0128 14.6968 17.9436 14.2671 17.9436H13.0027C12.3962 17.9436 11.7977 18.0815 11.2524 18.3469L10.3246 18.7984C10.0519 18.931 9.75266 19 9.44943 19H7.3173C7.17464 19 7.03364 18.9695 6.90376 18.9105L6.56657 18.7573C6.25123 18.6141 5.8894 18.6141 5.57407 18.7573L5.98761 19.6678L5.57407 18.7573L5.23688 18.9105C5.10699 18.9695 4.96599 19 4.82334 19H3.76069C3.61443 19 3.4778 18.9587 3.36183 18.8872H3.52761C4.43507 18.8872 5.32927 18.4782 5.97032 18.1851C5.99788 18.1725 6.02496 18.1601 6.05156 18.148C6.49803 17.9443 6.84607 17.7881 7.16 17.7004L6.89073 16.7373L7.16 17.7004C7.34114 17.6497 7.54638 17.5876 7.76995 17.506C8.91184 17.0893 10.4565 16.377 11.7609 15.5654C12.4118 15.1603 13.0354 14.7106 13.5239 14.2385C13.9823 13.7956 14.4618 13.2013 14.5711 12.4936Z" fill="currentColor" stroke="black" stroke-width="2"/>
</svg>
