<svg width="24" height="24" viewBox="0 0 24 24" fill="none" xmlns="http://www.w3.org/2000/svg">
<path d="M4.84494 8.70334C4.43149 8.57236 3.87286 8.50831 3.14821 8.50076C3.07746 8.50003 3.02853 8.42855 3.05481 8.36286L3.98583 6.0353C3.99493 6.01257 4.01123 5.99408 4.03361 5.98413C4.60979 5.7279 5.80779 5.95662 6.82417 6.62008L7.09612 6.01742C7.11063 5.98526 7.10713 5.94783 7.08689 5.91893L5.9478 4.29214C5.91612 4.2469 5.92711 4.18454 5.97235 4.15286L7.85063 2.83768C7.89587 2.80601 7.95822 2.817 7.9899 2.86224L9.12054 4.47696C9.14511 4.51205 9.1893 4.52759 9.23043 4.51561L9.85621 4.33326L9.8654 4.14277V2.1C9.8654 2.04477 9.91017 2 9.9654 2H12.2573C12.3126 2 12.3573 2.04477 12.3573 2.1V4.05948C12.3573 4.10774 12.3918 4.14911 12.4393 4.15783L13.125 4.28393C11.8708 4.97293 10.7535 6.07383 10.0665 7.77804C9.2757 7.67467 8.37354 7.69332 7.34112 7.91701C6.62182 8.07286 5.689 8.28464 4.84494 8.70334Z" fill="black"/>
<path d="M20 4.75H17.4999C15.3006 4.75 12.7315 5.47702 11.5443 8.13668C12.2741 8.39821 12.8788 8.7425 13.3854 9.05026C13.7084 8.4273 14.149 7.79895 14.7835 7.37595C15.2989 7.03238 15.9823 6.85628 16.6438 6.76487C17.3234 6.67096 18.0653 6.65556 18.7601 6.68833C19.1914 6.70868 19.613 6.748 20 6.80127V4.75Z" fill="black"/>
<path d="M17.9392 8.17382C18.5039 8.36704 18.9688 8.71783 19.3125 9.2085C19.8169 9.92852 19.9807 10.8372 19.9983 11.6907C20.0337 13.4072 19.4848 15.4235 18.9127 16.8682C18.2602 18.5157 16.9671 19.7851 15.6884 20.632C14.4372 21.4607 13.0227 22 11.9976 22C10.9704 22 9.83492 21.5087 8.87311 20.9124C7.88304 20.2987 6.92242 19.4776 6.23392 18.6309C5.52177 17.7552 4.52604 15.8568 4.15243 14.0109C3.9976 13.246 3.93241 12.4094 4.09299 11.6231C4.28793 10.9163 4.75238 10.4529 5.3874 10.1112C6.06395 9.74711 6.87837 9.55208 7.65876 9.38299C10.0745 8.85958 11.532 9.67616 12.7268 10.4063C12.379 11.1567 12.1767 11.9296 12.0742 12.6473C11.5407 12.5854 10.8173 12.6396 10.1089 13.0153C10.0668 12.9925 10.022 12.9728 9.97499 12.9569L8.15484 12.3412L7.67416 13.7621L8.85841 14.1627L8.33354 15.5637L9.7382 16.09L10.2184 14.8081L10.3859 14.6493C10.9642 14.1009 11.6574 14.0867 11.9934 14.1495C12.0027 14.3935 12.0231 14.6223 12.0526 14.8313C12.1053 15.2047 12.1934 15.5639 12.3291 15.8354L12.4507 16.0785L12.1742 18.6542L13.6656 18.8143L13.8791 16.8258L15.8676 17.0393L16.0278 15.5478L13.7396 15.3022L13.6708 15.1646C13.6398 15.1027 13.5809 14.9266 13.5379 14.6218C13.497 14.3316 13.4765 13.9673 13.4942 13.5575C13.5102 13.1884 13.5568 12.7913 13.6432 12.3857C13.6534 12.3686 13.6631 12.351 13.6721 12.3328C13.8137 12.0468 13.9428 11.6878 14.0644 11.3473L14.0878 11.282C14.2078 10.9458 14.3303 10.6025 14.474 10.2629L14.4851 10.2368L14.4962 10.2146L14.4948 10.2139C14.8044 9.49388 15.1594 8.92816 15.6156 8.62403C15.8502 8.4676 16.2669 8.33121 16.8491 8.25075C17.1899 8.20366 17.5603 8.17923 17.9392 8.17382Z" fill="black"/>
</svg>
