<svg width="24" height="24" viewBox="0 0 24 24" fill="none" xmlns="http://www.w3.org/2000/svg">
<path d="M10.6 2V7.35015L9.91454 7.57728C9.34524 7.76592 9 8.24832 9 8.75C9 9.38054 9.56502 10 10.4 10C10.7778 10 11.1113 9.86736 11.3572 9.66103L12 9.12168L12.6428 9.66103C12.8887 9.86736 13.2222 10 13.6 10C14.435 10 15 9.38054 15 8.75C15 8.24832 14.6548 7.76592 14.0855 7.57728L13.4 7.35015V2H15.4V4.75634C18.1182 6.03441 20 8.79744 20 12C20 15.2025 18.1182 17.9655 15.4 19.2436V22H13.4V16.6499L14.0855 16.4227C14.6548 16.2341 15 15.7517 15 15.25C15 14.6195 14.435 14 13.6 14C13.2222 14 12.8887 14.1326 12.6428 14.339L12 14.8783L11.3572 14.339C11.1113 14.1326 10.7778 14 10.4 14C9.56502 14 9 14.6195 9 15.25C9 15.7517 9.34524 16.2341 9.91454 16.4227L10.6 16.6499L10.6 22H8.6L8.6 19.2436C5.88181 17.9655 4 15.2025 4 12C4 8.79744 5.88181 6.03441 8.6 4.75634V2H10.6Z" fill="black"/>
<path fill-rule="evenodd" clip-rule="evenodd" d="M10.6 7.35015L9.91454 7.57728C9.34524 7.76592 9 8.24832 9 8.75C9 9.38054 9.56502 10 10.4 10C10.7778 10 11.1113 9.86736 11.3572 9.66103L12 9.12168L12.6428 9.66103M12.6428 9.66103C12.8887 9.86736 13.2222 10 13.6 10C14.435 10 15 9.38054 15 8.75C15 8.24832 14.6548 7.76592 14.0855 7.57728L13.4 7.35015V2H15.4V4.75634C18.1182 6.03441 20 8.79744 20 12C20 15.2025 18.1182 17.9655 15.4 19.2436V22H13.4V16.6499L14.0855 16.4227C14.6548 16.2341 15 15.7517 15 15.25C15 14.6195 14.435 14 13.6 14C13.2222 14 12.8887 14.1326 12.6428 14.339L12 14.8783L11.3572 14.339C11.1113 14.1326 10.7778 14 10.4 14C9.56502 14 9 14.6195 9 15.25C9 15.7517 9.34524 16.2341 9.91454 16.4227L10.6 16.6499L10.6 22H8.6L8.6 19.2436C5.88181 17.9655 4 15.2025 4 12C4 8.79744 5.88181 6.03441 8.6 4.75634V2H10.6V7.35015M16.9992 15.3193C16.9997 15.2963 17 15.2732 17 15.25C17 13.4221 15.4444 12 13.6 12C15.4444 12 17 10.5779 17 8.75C17 8.72681 16.9997 8.70367 16.9992 8.68061C17.632 9.63191 18 10.7735 18 12C18 13.2265 17.632 14.368 16.9992 15.3193ZM12 11.6184C12.4796 11.8631 13.0253 12 13.6 12C13.0253 12 12.4796 12.1369 12 12.3816C11.5211 12.1373 10.9764 12.0004 10.4026 12C10.9763 11.9996 11.5211 11.8627 12 11.6184ZM7.00075 8.68061C6.36799 9.63191 6 10.7735 6 12C6 13.2265 6.36799 14.368 7.00075 15.3193C7.00025 15.2963 7 15.2732 7 15.25C7 13.423 8.55411 12.0013 10.3974 12C8.55411 11.9987 7 10.577 7 8.75C7 8.72681 7.00025 8.70367 7.00075 8.68061Z" fill="black"/>
</svg>
