<svg width="24" height="24" viewBox="0 0 24 24" fill="none" xmlns="http://www.w3.org/2000/svg">
<path d="M14.4167 5.57952C14.1187 6.31848 14.1072 7.24978 14.1072 8.00012H12.0743L12.0743 7.95129C12.074 7.25108 12.0735 5.96672 12.5271 4.84196C12.6093 4.63825 12.7084 4.43404 12.8279 4.23556C12.7148 4.21857 12.5973 4.20082 12.4753 4.18227C9.25252 3.69232 5.47309 4.03671 3.5397 7.46587C2.83049 8.72377 2.47339 10.4468 2.27618 11.8654C2.07103 13.341 2.00163 14.7886 2.00066 15.7035C1.98827 16.4372 2.15039 17.3035 2.50548 18.0504C2.80871 18.6883 3.64807 20.0001 5.31744 20.0001C7.03369 20.0001 7.83177 18.5864 8.06966 18.1524C8.20789 17.9002 8.33865 17.6197 8.43668 17.4093L8.48675 17.3022C8.55181 17.1637 8.60549 17.0532 8.65267 16.9626C8.74515 16.9569 8.84798 16.949 8.95978 16.9371C9.54094 16.8753 10.0933 16.702 10.5497 16.542V13.224C9.57547 13.451 8.81399 13.3304 8.28943 13.0723C7.97319 12.9168 7.71385 12.6947 7.58568 12.4425C7.52809 12.3292 7.44912 12.1116 7.54456 11.8769C7.66373 11.5838 7.94478 11.5001 8.13555 11.5001H10.8135C11.0089 11.0337 11.3149 10.6629 11.7389 10.4021C12.3992 9.99613 13.1684 9.99873 13.5433 10L13.599 10.0001V12.0001C13.3864 12.0001 13.2265 12.0016 13.0782 12.0219C12.9355 12.0414 12.8579 12.0726 12.8159 12.0984C12.8038 12.1045 12.5826 12.2168 12.5826 13.0001V15.856L10.55 16.5401L10.6 20.0001H12.6L12.585 15.8617C12.6214 15.8517 12.6582 15.8418 12.6955 15.8318C14.225 15.4249 15.1064 14.4049 15.6181 13.7241C15.7367 13.5664 15.847 13.4106 15.936 13.2848L15.9562 13.2562C16.056 13.1152 16.126 13.0174 16.1896 12.9352C16.2099 12.909 16.2269 12.8879 16.2409 12.8712C16.446 12.7749 16.6829 12.6958 17.0241 12.596C17.0729 12.5817 17.1258 12.5665 17.1821 12.5503C17.5424 12.4468 18.0433 12.3029 18.5356 12.0933C19.4937 11.6854 20.1907 10.9603 20.6668 10.3169C21.1591 9.6516 21.5334 8.91354 21.7966 8.25569C22.2308 7.17052 21.9373 6.05417 21.2249 5.31231C20.5515 4.61106 19.5643 4.28822 18.5896 4.42347C17.6315 4.55643 16.7805 4.61424 16.4444 4.61424L16.3676 4.61429C16.0895 4.61456 15.8587 4.61478 15.4642 4.58131C15.2565 4.63825 15.0999 4.71962 14.9785 4.80727C14.7426 4.97748 14.5571 5.23143 14.4167 5.57952Z" fill="black"/>
</svg>
