<svg width="24" height="24" viewBox="0 0 24 24" fill="none" xmlns="http://www.w3.org/2000/svg">
<path d="M14 13.4143V17.0729C14 18.2086 14.7655 19.2016 15.8638 19.4906L18.9558 20.3043C20.8922 20.8139 22.612 18.9539 21.9526 17.0633L18.816 8.06961C18.514 7.20375 17.7584 6.57556 16.852 6.43678C15.352 6.20712 14 7.36788 14 8.88533V10.5859L13 9.58591L13 4H11L11 9.58582L10 10.5858V8.88533C10 7.36788 8.64799 6.20712 7.14802 6.43678C6.24157 6.57556 5.48596 7.20375 5.18399 8.06961L2.04736 17.0633C1.388 18.9539 3.1078 20.8139 5.04415 20.3043L8.13623 19.4906C9.23452 19.2016 10 18.2086 10 17.0729V13.4142L12 11.4143L14 13.4143Z" fill="black"/>
</svg>
