<svg width="24" height="24" viewBox="0 0 24 24" fill="none" xmlns="http://www.w3.org/2000/svg">
<path d="M6.99998 9.01542C6.31927 10.0001 6.49998 11.5001 7.99998 12.0001C7.99998 12.0001 14 12.0001 15 10.5001C16 9.00011 14.5 5.50019 13 7.00016C11.5 8.50014 10.5 6.00009 9.49997 7.50011C8.49998 9.00014 7.68068 8.0307 6.99998 9.01542Z" fill="black"/>
<path fill-rule="evenodd" clip-rule="evenodd" d="M12 4C7.88189 4 4.5 6.70855 4.5 10.5C4.5 12.3241 5.4972 13.5604 6.60001 14.3875C6.90631 14.6172 7.21439 14.8098 7.5 14.9681V14C7.5 13.5815 7.60576 13.2366 7.69193 12.9972C7.69627 12.9852 7.70133 12.9714 7.70686 12.9565C7.69934 12.9539 7.69165 12.9513 7.68377 12.9487C6.63061 12.5976 5.95316 11.8479 5.71519 10.944C5.48709 10.0776 5.68536 9.15847 6.17741 8.44667C6.45925 8.03894 6.79943 7.78366 7.184 7.63849C7.44734 7.53908 7.74703 7.49615 7.90037 7.47419C7.92803 7.47023 7.95093 7.46695 7.96799 7.46414C8.12595 7.43816 8.20115 7.41373 8.27261 7.37129C8.34522 7.32817 8.48166 7.22472 8.66794 6.9453C9.04681 6.37698 9.57508 5.99998 10.2578 5.99999C10.7305 5.99999 11.1785 6.20418 11.4077 6.3086C11.4302 6.31886 11.4506 6.32815 11.4686 6.33619C11.7665 6.46856 11.8808 6.50002 11.961 6.50002C11.9614 6.50002 11.962 6.50005 11.9628 6.50008C11.9805 6.50079 12.081 6.50481 12.2929 6.29293C12.5773 6.00857 12.9194 5.78545 13.3187 5.6872C13.7274 5.58667 14.1241 5.63506 14.4721 5.78073C15.1245 6.05385 15.564 6.64204 15.8319 7.1778C16.1135 7.741 16.2895 8.4092 16.3193 9.06397C16.3485 9.70765 16.2398 10.4431 15.832 11.0547C15.5847 11.4258 15.2308 11.6852 14.8958 11.8704C14.553 12.0598 14.1643 12.2072 13.7717 12.325C12.9873 12.5604 12.0773 12.7092 11.2396 12.8059C10.7362 12.864 10.246 12.9046 9.80646 12.9331C9.8025 12.9587 9.79802 12.9839 9.79308 13.0086C9.76148 13.1666 9.71148 13.3087 9.67493 13.4072C9.64985 13.4749 9.63477 13.5135 9.62157 13.5474C9.60698 13.5848 9.59468 13.6164 9.5737 13.6747C9.51925 13.8259 9.5 13.9185 9.5 14V16.4935C9.50001 16.4957 9.50002 16.4978 9.50002 16.5V20C9.50002 20.5523 9.05231 21 8.50002 21C7.94774 21 7.50002 20.5523 7.50002 20V18.9551C7.50001 18.9529 7.5 18.9507 7.5 18.9485V17.1911C7.43909 17.1652 7.3751 17.1372 7.30841 17.1072C6.79226 16.875 6.09902 16.5118 5.40001 15.9875C4.00281 14.9396 2.5 13.1759 2.5 10.5C2.5 5.29145 7.11822 2 12 2C14.6161 2 16.4862 3.31578 17.6645 4.56338C18.2545 5.18807 18.6859 5.80973 18.9705 6.27542C19.1133 6.50919 19.2208 6.70621 19.294 6.84817C19.3307 6.91923 19.3589 6.97671 19.3788 7.01836C19.3887 7.03919 19.3966 7.05608 19.4024 7.06875L19.4097 7.08457L19.4121 7.09004L19.4131 7.09216C19.4133 7.09257 19.4138 7.09386 18.5 7.5L19.4138 7.09386C19.43 7.13034 19.4441 7.16776 19.4558 7.20592L21.4558 13.7059C21.5491 14.0092 21.4929 14.3388 21.3044 14.5941C21.1159 14.8494 20.8173 15 20.5 15H18.5V18.5C18.5 19.0523 18.0523 19.5 17.5 19.5H14.5V20C14.5 20.5523 14.0523 21 13.5 21C12.9477 21 12.5 20.5523 12.5 20V18.5C12.5 17.9477 12.9477 17.5 13.5 17.5H16.5V14C16.5 13.4477 16.9477 13 17.5 13H19.146L17.565 7.8616C17.5534 7.8377 17.5373 7.80521 17.5166 7.76511C17.4629 7.66098 17.3789 7.50644 17.2639 7.31833C17.0329 6.94027 16.683 6.43693 16.2105 5.93662C15.2638 4.93423 13.884 4 12 4ZM8.17794 10.9983C8.19782 10.998 8.21923 10.9976 8.24212 10.9972C8.4016 10.9944 8.63219 10.9888 8.91262 10.9774C9.47522 10.9546 10.2302 10.9091 11.0104 10.8191C11.7977 10.7283 12.5752 10.5959 13.197 10.4094C13.5076 10.3162 13.7517 10.2175 13.9284 10.1199C14.0152 10.0719 14.076 10.0295 14.1164 9.99581C14.1569 9.96207 14.1689 9.94379 14.1679 9.9453C14.2602 9.80691 14.339 9.54234 14.3213 9.15478C14.3042 8.77832 14.199 8.38403 14.0431 8.07224C13.9662 7.91851 13.886 7.80293 13.8151 7.72477C13.7913 7.6985 13.7706 7.67878 13.7537 7.66414C13.7404 7.67529 13.7249 7.6894 13.7071 7.70715C13.1782 8.236 12.5906 8.50004 11.9609 8.50002C11.4121 8.50001 10.9409 8.29042 10.6731 8.17125C10.6674 8.16873 10.6618 8.16624 10.6563 8.1638C10.5021 8.09527 10.4063 8.05539 10.3474 8.03219C10.3425 8.0391 10.3374 8.04659 10.3321 8.05468C10.0183 8.52528 9.67736 8.86315 9.29384 9.09092C8.90916 9.31936 8.54949 9.39537 8.29254 9.43763C8.18898 9.45466 8.11689 9.46557 8.06423 9.47354C7.9627 9.4889 7.93346 9.49333 7.89034 9.5096C7.88309 9.51234 7.88229 9.51312 7.88176 9.51363C7.88167 9.51371 7.88185 9.51356 7.88176 9.51363C7.87964 9.5153 7.85837 9.53217 7.82259 9.58393C7.63393 9.85684 7.58221 10.1801 7.64928 10.4348C7.70015 10.628 7.8346 10.8473 8.17794 10.9983ZM13.8097 7.62516C13.8097 7.62518 13.8093 7.62536 13.8085 7.62567L13.8097 7.62516Z" fill="black"/>
</svg>
