<svg width="24" height="24" viewBox="0 0 24 24" fill="none" xmlns="http://www.w3.org/2000/svg">
<path d="M15.3804 3.47405C15.6423 2.98778 15.4603 2.38132 14.9741 2.11948C14.4878 1.85764 13.8813 2.03958 13.6195 2.52585L10.6449 8.05019C9.8201 9.58189 8.55931 11.1719 7.23816 12.2288C6.53797 12.7889 5.62771 13.6175 5.04176 14.6051C4.44115 15.6174 4.10559 16.953 4.90708 18.2888C5.52042 19.311 6.53651 20.0271 7.70546 20.2609L8.52878 20.4255C9.08572 20.5369 9.74799 20.7925 10.2457 21.1391C10.7709 21.505 10.9052 21.815 10.9052 22H12.9052C12.9052 21.2732 12.5965 20.6745 12.1862 20.2036C12.1926 20.202 12.1989 20.2003 12.2052 20.1986C13.3042 19.9041 14.4941 19.0656 15.1325 18.1286C13.6176 17.0964 12.153 16.4117 10.2721 16.9432C9.31479 17.2138 8.61442 17.5915 7.9551 18.2663C7.39906 18.1166 6.92028 17.7568 6.62207 17.2598C6.3358 16.7827 6.37734 16.2736 6.7618 15.6256C7.16091 14.9529 7.84367 14.3056 8.48755 13.7905C10.0489 12.5414 11.4732 10.7303 12.4058 8.99839L15.3804 3.47405Z" fill="black"/>
<path d="M16.2502 15.6617C16.7175 16.1911 17 16.8843 17 17.6458C17 18.7549 16.3986 19.7248 15.4992 20.245L16.5007 21.9763C17.9926 21.1132 19 19.4977 19 17.6458C19 16.3784 18.5271 15.219 17.7497 14.3382L16.2502 15.6617Z" fill="black"/>
</svg>
