<svg width="24" height="24" viewBox="0 0 24 24" fill="none" xmlns="http://www.w3.org/2000/svg">
<path d="M11.5134 3C10.5269 3 8.54856 3.19399 7.63718 3.5709C6.7258 3.94781 5.8977 4.50026 5.20017 5.1967C4.50263 5.89314 3.94931 6.71993 3.5718 7.62987C3.1943 8.53982 3 9.51509 3 10.5C3 11.4849 3.1943 12.4602 3.5718 13.3701C3.94931 14.2801 4.50263 15.1069 5.20017 15.8033C5.8977 16.4997 6.7258 17.0522 7.63718 17.4291C8.1894 17.6575 9.13337 17.8187 10.011 17.9103V21H12.0142V17.5C12.0142 16.7721 11.4958 16.1653 10.808 16.0288C10.7153 15.9945 10.6169 15.9722 10.515 15.9638C9.74484 15.9006 8.84216 15.7762 8.39896 15.5929C7.7291 15.3159 7.12045 14.9098 6.60776 14.3979C6.09507 13.886 5.68838 13.2783 5.41091 12.6095C5.13345 11.9407 4.99064 11.2239 4.99064 10.5C4.99064 9.77609 5.13345 9.05927 5.41091 8.39046C5.68838 7.72165 6.09507 7.11396 6.60776 6.60207C7.12045 6.09019 7.7291 5.68414 8.39896 5.40711C9.06883 5.13008 10.7884 4.9875 11.5134 4.9875V3Z" fill="black"/>
<path d="M20.5703 5.89028C20.2089 5.42123 19.6947 5.27741 19.2408 5.31066C18.8514 5.33919 18.4921 5.49414 18.2291 5.62727C17.9507 5.76818 17.6672 5.945 17.422 6.0997L17.335 6.15467C17.1112 6.29608 16.9155 6.41974 16.7287 6.5237C16.6941 6.54295 16.6425 6.56427 16.5667 6.58312C15.9737 6.73064 15.2503 6.88893 14.1353 6.75696C13.6023 6.69388 12.9694 6.51399 12.105 6.26828L11.7864 6.17788C10.9978 5.9498 10.1562 5.93934 9.35352 6.15377C8.29328 6.43699 7.37212 7.09485 6.76289 8.00542C6.15358 8.91609 5.89828 10.0169 6.04535 11.1018C6.19241 12.1867 6.73158 13.1804 7.56099 13.8975C8.3903 14.6145 9.45312 15.0061 10.5507 14.9999C10.5813 14.9998 10.6119 14.9993 10.6425 14.9985L10.6419 15C12.0142 15 13.0158 15.5897 13.0158 16.5V21H15.0189V15.5C15.0189 14.7729 14.5418 13.9365 13.813 13.75C13.7721 13.7395 13.7296 13.7275 13.6863 13.7144C13.9045 13.496 14.0994 13.2457 14.2687 12.975C14.4071 12.9569 14.568 12.9381 14.7428 12.9177C15.1873 12.8658 15.7211 12.8035 16.1993 12.7149C16.9623 12.5737 17.8257 12.3337 18.5792 11.8321C19.8127 11.0111 20.4988 9.8309 20.8022 8.76786C20.9539 8.23667 21.0171 7.71164 20.9961 7.245C20.9768 6.81652 20.88 6.29224 20.5703 5.89028Z" fill="black"/>
</svg>
