<svg width="24" height="24" viewBox="0 0 24 24" fill="none" xmlns="http://www.w3.org/2000/svg">
<path d="M4 5H6V5.95416C6 6.30807 6.18646 6.63431 6.50677 6.78485C7.40727 7.20806 9.43512 8.00006 12 8.00006C14.5649 8.00006 16.5927 7.20806 17.4932 6.78485C17.8135 6.63431 18 6.30807 18 5.95416V5H20V3H17.9945C17.9238 2.31817 17.178 1.8707 16.5136 2.10521C15.3604 2.51224 13.6802 2.97485 12 2.97485C10.3198 2.97485 8.63957 2.51224 7.4864 2.10521C6.82203 1.8707 6.0762 2.31817 6.00546 3H4V5Z" fill="black"/>
<path d="M4 12H6V12.9542C6 13.3081 6.18646 13.6343 6.50677 13.7848C7.40727 14.2081 9.43512 15.0001 12 15.0001C14.5649 15.0001 16.5927 14.2081 17.4932 13.7848C17.8135 13.6343 18 13.3081 18 12.9542V12H20V10H17.9945C17.9238 9.31817 17.178 8.8707 16.5136 9.10521C15.3604 9.51224 13.6802 9.97485 12 9.97485C10.3198 9.97485 8.63957 9.51224 7.4864 9.10521C6.82203 8.8707 6.0762 9.31817 6.00546 10H4V12Z" fill="black"/>
<path d="M4 19H6V19.9542C6 20.3081 6.18646 20.6343 6.50677 20.7848C7.40727 21.2081 9.43512 22.0001 12 22.0001C14.5649 22.0001 16.5927 21.2081 17.4932 20.7848C17.8135 20.6343 18 20.3081 18 19.9542V19H20V17H17.9945C17.9238 16.3182 17.178 15.8707 16.5136 16.1052C15.3604 16.5122 13.6802 16.9749 12 16.9749C10.3198 16.9749 8.63957 16.5122 7.4864 16.1052C6.82203 15.8707 6.0762 16.3182 6.00546 17H4V19Z" fill="black"/>
</svg>
