<svg width="24" height="24" viewBox="0 0 24 24" fill="none" xmlns="http://www.w3.org/2000/svg">
<path d="M7.2808 11.5108C6.1646 12.1823 5.25589 13.0796 4.21917 14.3755C3.87416 14.8068 3.94408 15.4361 4.37534 15.7811C4.8066 16.1261 5.4359 16.0562 5.78091 15.6249C6.55381 14.6588 7.18061 14.0197 7.82761 13.5464C7.85522 13.5368 7.88264 13.526 7.9098 13.5137C8.38866 13.2986 8.96771 13.311 9.5644 13.4621C9.50003 12.75 9.04901 12.0134 7.95003 11.16C7.72001 11.2726 7.49824 11.38 7.2808 11.5108Z" fill="black"/>
<path fill-rule="evenodd" clip-rule="evenodd" d="M13.1311 2.36541C15.3027 3.1189 17.4356 4.98729 18.7882 8.6539C20.4376 13.125 20.122 16.1801 19.0958 18.2356C18.0813 20.2677 16.4675 21.1205 15.9663 21.3846C15.6958 21.5272 15.2419 21.6608 14.7802 21.7616C14.2843 21.8698 13.6679 21.9642 13.0227 21.9902C12.3837 22.0161 11.6728 21.9768 11.0095 21.7893C10.3448 21.6014 9.65693 21.2428 9.18519 20.5797C7.56125 18.2971 8.63037 16.1354 9.10758 15.1705C9.14369 15.0975 9.17645 15.0313 9.20436 14.9724C9.42895 14.4989 9.6353 14.0294 9.57071 13.4637C9.75984 13.5118 9.95071 13.5739 10.1407 13.6471C10.5162 13.7917 10.8426 13.9624 11.0756 14.0978C11.1911 14.165 11.2813 14.2221 11.3404 14.2608C11.3699 14.2802 11.3915 14.2948 11.4044 14.3037L11.4172 14.3126L11.4182 14.3133C11.8666 14.634 12.4902 14.5315 12.812 14.0836C13.1344 13.6352 13.0321 13.0103 12.5837 12.688L12.5812 12.6862L12.5779 12.6838L12.5684 12.6771L12.5385 12.6563C12.5139 12.6394 12.4798 12.6163 12.437 12.5883C12.3516 12.5322 12.2308 12.456 12.0807 12.3687C11.9122 12.2707 11.7035 12.1571 11.4638 12.042C11.5556 12.0181 11.6496 11.9939 11.7456 11.9696C12.281 11.834 12.605 11.2901 12.4694 10.7547C12.3338 10.2193 11.7899 9.89524 11.2545 10.0309C9.94424 10.3628 8.9008 10.6891 7.96002 11.1511C7.96426 11.1577 7.96849 11.1644 7.97272 11.171C7.88571 11.1004 7.79409 11.0288 7.69762 10.9562C5.99087 9.67102 4.96592 8.12426 5.00087 6.49119C5.0366 4.82158 6.16507 3.47811 7.83286 2.59901C8.97464 1.99718 11.0164 1.63167 13.1311 2.36541ZM12.2172 5.87779C12.5608 5.44542 13.1899 5.37348 13.6222 5.71711C14.3619 6.30493 15.0383 7.15755 15.5811 8.02568C16.128 8.90024 16.5811 9.85784 16.8435 10.7038C17.6541 13.3177 17.7413 15.5899 16.9528 17.3995C16.7321 17.9058 16.1428 18.1373 15.6365 17.9167C15.1302 17.6961 14.8987 17.1068 15.1193 16.6005C15.6381 15.41 15.6732 13.6822 14.9332 11.2962C14.7304 10.6421 14.3574 9.84089 13.8854 9.08603C13.4093 8.32474 12.8742 7.67736 12.3779 7.28285C11.9455 6.93922 11.8735 6.31016 12.2172 5.87779Z" fill="black"/>
</svg>
