<svg width="24" height="24" viewBox="0 0 24 24" fill="none" xmlns="http://www.w3.org/2000/svg">
<path fill-rule="evenodd" clip-rule="evenodd" d="M10 7.97641L11.1049 7.97639C11.5772 5.70592 13.5894 4 16 4C18.7615 4 21 6.23857 21 9V16C21 18.7614 18.7615 21 16 21C14.8506 21 13.7917 20.6121 12.9472 19.9601C12.2108 19.4005 11.6802 18.8428 11.2255 18.3648C10.4722 17.573 9.92709 17 9.00003 17L7 17C6.04587 17 5.49016 17.3459 5.13157 17.8579C4.73385 18.4257 4.5 19.3166 4.5 20.5V21.5H2.5V20.5C2.5 19.1079 2.76615 17.7488 3.49343 16.7105C4.24841 15.6326 5.41861 15.0185 6.93108 15.0004C7.02625 14.9899 7.12219 14.9859 7.18758 14.9834C7.30966 14.9788 7.45832 14.9761 7.61996 14.9747C7.94445 14.9718 8.34634 14.9737 8.74394 14.9775C8.90404 14.979 9.06223 14.9808 9.21441 14.9827C10.5934 14.7578 11.4758 12.3789 11 10C10.8324 10.0006 10.6725 10.0001 10.5298 9.99876C10.3906 9.99748 10.2613 9.99508 10.1542 9.99088C10.1021 9.98884 10.0187 9.98548 9.9321 9.97608C8.95095 9.96661 8.11869 9.75052 7.46409 9.27143C6.78674 8.7757 6.42137 8.08774 6.22434 7.38216C6.03198 6.69328 5.98468 5.93383 5.97662 5.21058C5.97243 4.83471 5.98038 4.38766 5.98812 3.95236C5.99412 3.61499 6 3.28466 6 3V2H8V3C8 3.39217 7.99322 3.73249 7.98675 4.0577C7.97922 4.43574 7.9721 4.79339 7.9765 5.18829C7.98406 5.86687 8.03051 6.41402 8.15065 6.84425C8.26612 7.25776 8.432 7.50141 8.64528 7.6575C8.86626 7.81923 9.2607 7.9764 10 7.97641ZM13.0261 12.6392C13.8927 12.9118 14.9796 12.9387 15.7895 11.9C16.7464 10.6727 18.09 10.9331 19 11.3286V9C19 7.34314 17.6569 6 16 6C14.3432 6 13 7.34314 13 9C13 9.08825 13.0038 9.17516 13.0111 9.26062L13.1485 10.8715L13.1192 10.8805C13.1491 11.48 13.1168 12.0728 13.0261 12.6392Z" fill="black"/>
</svg>
