<svg width="24" height="24" viewBox="0 0 24 24" fill="none" xmlns="http://www.w3.org/2000/svg">
<path fill-rule="evenodd" clip-rule="evenodd" d="M13.8072 5H10.3775L9.15449 11.9283L15.1223 10.5357L13.8072 5ZM13.0199 8.75001C13.0199 9.16423 12.6841 9.50001 12.2699 9.50001C11.8557 9.50001 11.5199 9.16423 11.5199 8.75001C11.5199 8.3358 11.8557 8.00001 12.2699 8.00001C12.6841 8.00001 13.0199 8.3358 13.0199 8.75001Z" fill="black"/>
<path fill-rule="evenodd" clip-rule="evenodd" d="M15.3842 12.0149L9.44591 13.4006L10.7766 19H14.5158L15.3842 12.0149ZM13.5 15.25C13.5 15.6642 13.1642 16 12.75 16C12.3358 16 12 15.6642 12 15.25C12 14.8358 12.3358 14.5 12.75 14.5C13.1642 14.5 13.5 14.8358 13.5 15.25Z" fill="black"/>
<path fill-rule="evenodd" clip-rule="evenodd" d="M16.0274 19L16.8475 12.4033L22 14.6004V17C22 18.1046 21.1046 19 20 19H16.0274ZM19.2499 17.0547C19.6641 17.0547 19.9999 16.7189 19.9999 16.3047C19.9999 15.8905 19.6641 15.5547 19.2499 15.5547C18.8357 15.5547 18.4999 15.8905 18.4999 16.3047C18.4999 16.7189 18.8357 17.0547 19.2499 17.0547Z" fill="black"/>
<path fill-rule="evenodd" clip-rule="evenodd" d="M9.2348 19L7.92298 13.4799L2 11.8916V17C2 18.1046 2.89543 19 4 19H9.2348ZM6.49989 16C6.49989 16.4142 6.1641 16.75 5.74989 16.75C5.33568 16.75 4.99989 16.4142 4.99989 16C4.99989 15.5858 5.33568 15.25 5.74989 15.25C6.1641 15.25 6.49989 15.5858 6.49989 16Z" fill="black"/>
<path fill-rule="evenodd" clip-rule="evenodd" d="M7.64471 11.8523L8.85431 5H4C2.89543 5 2 5.89543 2 7V10.3386L7.64471 11.8523ZM5.74989 9.19678C6.1641 9.19678 6.49989 8.861 6.49989 8.44678C6.49989 8.03257 6.1641 7.69678 5.74989 7.69678C5.33568 7.69678 4.99989 8.03257 4.99989 8.44678C4.99989 8.861 5.33568 9.19678 5.74989 9.19678Z" fill="black"/>
<path fill-rule="evenodd" clip-rule="evenodd" d="M16.706 10.7123L15.3489 5H20C21.1046 5 22 5.89543 22 7V12.9697L16.706 10.7123ZM18.9999 8.75001C19.4141 8.75001 19.7499 8.41423 19.7499 8.00001C19.7499 7.5858 19.4141 7.25001 18.9999 7.25001C18.5857 7.25001 18.2499 7.5858 18.2499 8.00001C18.2499 8.41423 18.5857 8.75001 18.9999 8.75001Z" fill="black"/>
</svg>
