<svg width="24" height="24" viewBox="0 0 24 24" fill="none" xmlns="http://www.w3.org/2000/svg">
<path d="M10.0033 3.41747C9.38993 3.14897 8.71236 3 8 3C5.23858 3 3 5.23858 3 8C3 12.4892 4.46728 16.6683 7.21071 20.2671C7.47241 20.706 7.95187 21 8.5 21C9.32843 21 10 20.3284 10 19.5L9.99987 19.4799C10.022 18.5525 10.5336 17 12 17C13.4665 17 13.978 18.5525 14.0001 19.4799L14 19.5C14 20.3284 14.6716 21 15.5 21C16.0481 21 16.5276 20.706 16.7893 20.2671C19.5327 16.6683 21 12.4892 21 8C21 5.23858 18.7614 3 16 3C14.9809 3 14.033 3.30488 13.2426 3.8284L15.2071 5.79289C15.5976 6.18342 15.5976 6.81658 15.2071 7.20711C14.8166 7.59763 14.1834 7.59763 13.7929 7.20711L10.0033 3.41747Z" fill="black"/>
</svg>
