<svg width="24" height="24" viewBox="0 0 24 24" fill="none" xmlns="http://www.w3.org/2000/svg">
<path fill-rule="evenodd" clip-rule="evenodd" d="M18.4633 10.899C19.1763 10.5896 19.675 9.8793 19.675 9.05252C19.675 7.94139 18.7743 7.04064 17.6631 7.04064L17.6473 7.0407C17.6577 6.95756 17.6631 6.87284 17.6631 6.78686C17.6631 5.67573 16.7624 4.77498 15.6512 4.77498C15.3736 4.77498 15.1091 4.83121 14.8685 4.93291C14.7501 3.34191 13.4217 2.08789 11.8004 2.08789C10.1073 2.08789 8.73364 3.4554 8.72367 5.14613C8.49974 5.07205 8.26034 5.03195 8.01157 5.03195C6.76028 5.03195 5.74591 6.04632 5.74591 7.29761C5.74591 8.09596 6.15883 8.79787 6.78275 9.20141C6.46542 9.42151 6.20703 9.7206 6.03602 10.0702C5.70415 9.87963 5.31944 9.77063 4.90927 9.77063C3.65798 9.77063 2.64361 10.785 2.64361 12.0363C2.64361 12.9734 3.21252 13.7776 4.02379 14.1224C3.00464 14.4912 2.27637 15.4676 2.27637 16.614C2.27637 18.077 3.46238 19.263 4.92539 19.263C5.69709 19.263 6.39171 18.9331 6.87587 18.4065C6.78412 18.6752 6.73433 18.9633 6.73433 19.263C6.73433 20.7261 7.92034 21.9121 9.38336 21.9121C10.7383 21.9121 11.8557 20.8947 12.0134 19.5822C12.5771 20.2208 13.4018 20.6235 14.3206 20.6235C15.019 20.6235 15.663 20.3909 16.1794 19.9988C16.6107 20.3866 17.1872 20.6235 17.8206 20.6235C19.157 20.6235 20.2404 19.5686 20.2404 18.2673C20.2404 18.1786 20.2354 18.0911 20.2256 18.0049C21.1122 17.5766 21.7237 16.6689 21.7237 15.6183C21.7237 14.1553 20.5377 12.9693 19.0747 12.9693C19.0339 12.9693 18.9934 12.9702 18.9531 12.972C18.9687 12.8472 18.9767 12.7199 18.9767 12.5908C18.9767 11.9642 18.7874 11.382 18.4633 10.899ZM11.7572 5.69811C12.2802 5.69811 12.7043 5.27408 12.7043 4.751C12.7043 4.22793 12.2802 3.80389 11.7572 3.80389C11.2341 3.80389 10.81 4.22793 10.81 4.751C10.81 5.27408 11.2341 5.69811 11.7572 5.69811ZM5.97367 16.5691C5.97367 17.0922 5.54963 17.5162 5.02655 17.5162C4.50348 17.5162 4.07944 17.0922 4.07944 16.5691C4.07944 16.046 4.50348 15.622 5.02655 15.622C5.54963 15.622 5.97367 16.046 5.97367 16.5691ZM14.2979 18.7742C14.821 18.7742 15.245 18.3502 15.245 17.8271C15.245 17.304 14.821 16.88 14.2979 16.88C13.7748 16.88 13.3508 17.304 13.3508 17.8271C13.3508 18.3502 13.7748 18.7742 14.2979 18.7742Z" fill="black"/>
</svg>
