<svg width="48" height="48" viewBox="0 0 48 48" fill="none" xmlns="http://www.w3.org/2000/svg">
<path d="M12.9294 19.7366C13.3199 20.1287 13.9531 20.1287 14.3436 19.7366C14.7341 19.3446 14.7341 18.709 14.3436 18.317L8.34358 12.294C7.95306 11.902 7.31989 11.902 6.92937 12.294C6.53884 12.686 6.53884 13.3216 6.92937 13.7136L12.9294 19.7366Z" fill="black"/>
<path d="M4.30265 14.1094C3.90681 14.4961 3.89814 15.1316 4.28327 15.5289L12.0077 23.4984L26.0105 23.4984C26.1134 22.438 26.9558 21.595 28.0135 21.4961C27.9792 21.4925 27.9443 21.4907 27.9091 21.4907L12.8522 21.4907L5.71673 14.1289C5.33159 13.7315 4.69848 13.7228 4.30265 14.1094Z" fill="black"/>
<path d="M26.011 25.5015C26.1162 26.5667 26.9679 27.4116 28.0336 27.5015C27.9928 27.5066 27.9513 27.5092 27.9091 27.5092L12.8522 27.5092L5.71673 34.871C5.33159 35.2684 4.69848 35.2771 4.30265 34.8904C3.90681 34.5038 3.89814 33.8683 4.28327 33.4709L12.0077 25.5015L26.011 25.5015Z" fill="black"/>
<path d="M14.3436 30.683C14.7341 30.291 14.7341 29.6554 14.3436 29.2633C13.9531 28.8713 13.3199 28.8713 12.9294 29.2633L6.92937 35.2863C6.53884 35.6784 6.53884 36.314 6.92937 36.706C7.31989 37.098 7.95306 37.098 8.34358 36.706L14.3436 30.683Z" fill="black"/>
<path fill-rule="evenodd" clip-rule="evenodd" d="M34.3 17.4711C34.3 16.9167 34.7477 16.4673 35.3 16.4673H36.7C37.2523 16.4673 37.7 16.9167 37.7 17.4711C37.7 17.9206 37.4057 18.3011 37 18.429V19.3744C37.6929 19.5099 38.3367 19.7835 38.9016 20.1656L39.4858 19.5791C39.1024 19.1865 39.1047 18.5563 39.4929 18.1666C39.8834 17.7746 40.5166 17.7746 40.9071 18.1666L42.3071 19.572C42.6976 19.964 42.6976 20.5996 42.3071 20.9916C41.919 21.3813 41.2911 21.3836 40.9 20.9987L40.3158 21.5852C40.6964 22.1523 40.969 22.7985 41.1039 23.4941H42.0458C42.1732 23.0868 42.5522 22.7914 43 22.7914C43.5523 22.7914 44 23.2408 44 23.7952V25.2006C44 25.755 43.5523 26.2044 43 26.2044C42.5522 26.2044 42.1732 25.909 42.0458 25.5017H41.1039C41.0026 26.0241 40.8236 26.5186 40.5796 26.9727L41.6001 27.9971C41.9911 27.6122 42.619 27.6146 43.0071 28.0042C43.3976 28.3962 43.3976 29.0318 43.0071 29.4239L41.6071 30.8292C41.2166 31.2212 40.5834 31.2212 40.1929 30.8292C39.8047 30.4396 39.8024 29.8093 40.1858 29.4167L39.3026 28.5301C38.6494 29.0698 37.8629 29.4527 37 29.6214V30.5669C37.4057 30.6948 37.7 31.0753 37.7 31.5247C37.7 32.0791 37.2523 32.5286 36.7 32.5286H36.0071L36 32.5286L35.9929 32.5286H35.3C34.7477 32.5286 34.3 32.0791 34.3 31.5247C34.3 31.0753 34.5943 30.6948 35 30.5669V29.6214C34.3071 29.4859 33.6633 29.2123 33.0984 28.8303L32.5142 29.4167C32.8976 29.8093 32.8953 30.4396 32.5071 30.8292C32.1166 31.2212 31.4834 31.2212 31.0929 30.8292L29.6929 29.4239C29.3024 29.0318 29.3024 28.3962 29.6929 28.0042C30.081 27.6146 30.7089 27.6122 31.0999 27.9971L31.6842 27.4106C31.3036 26.8435 31.031 26.1973 30.8961 25.5017H29.9542C29.8268 25.909 29.4478 26.2044 29 26.2044C28.4477 26.2044 28 25.755 28 25.2006V23.7952C28 23.2408 28.4477 22.7914 29 22.7914C29.4478 22.7914 29.8268 23.0868 29.9542 23.4941H30.8961C31.031 22.7985 31.3036 22.1523 31.6842 21.5852L31.1 20.9987C30.7089 21.3836 30.081 21.3813 29.6929 20.9916C29.3024 20.5996 29.3024 19.964 29.6929 19.572L31.0929 18.1666C31.4834 17.7746 32.1166 17.7746 32.5071 18.1666C32.8953 18.5563 32.8976 19.1865 32.5142 19.5791L33.0984 20.1656C33.6633 19.7835 34.3071 19.5099 35 19.3744V18.429C34.5943 18.301 34.3 17.9206 34.3 17.4711ZM32.8 24.4979C32.8 26.272 34.2327 27.7102 36 27.7102C37.7673 27.7102 39.2 26.272 39.2 24.4979C39.2 22.7238 37.7673 21.2857 36 21.2857C34.2327 21.2857 32.8 22.7238 32.8 24.4979Z" fill="black"/>
</svg>
