<svg width="48" height="48" viewBox="0 0 48 48" fill="none" xmlns="http://www.w3.org/2000/svg">
<path d="M15.465 31.3984C15.2943 30.8716 14.7301 30.5833 14.2049 30.7545C13.6796 30.9257 13.3922 31.4915 13.5629 32.0183C14.3133 34.3348 15.7757 36.3536 17.7405 37.7853C19.7052 39.217 22.0714 39.9881 24.5 39.9881C25.0523 39.9881 25.5 39.5391 25.5 38.9852C25.5 38.4313 25.0523 37.9822 24.5 37.9822C22.4938 37.9822 20.5391 37.3452 18.916 36.1625C17.293 34.9798 16.0849 33.3121 15.465 31.3984Z" fill="currentColor"/>
<path fill-rule="evenodd" clip-rule="evenodd" d="M24 4L23.3098 4.66019L23.3061 4.66378L23.2973 4.67225L23.2648 4.70364C23.2367 4.73093 23.1956 4.77088 23.1426 4.82301C23.0366 4.92726 22.8826 5.08027 22.6874 5.27825C22.297 5.67415 21.7417 6.25027 21.0763 6.9763C19.7465 8.42721 17.9719 10.4826 16.1951 12.8995C12.6815 17.6788 9 24.0808 9 30.0801C9 37.845 15.796 44 24 44C32.204 44 39 37.845 39 30.0801C39 24.0808 35.3185 17.6788 31.8049 12.8995C30.0281 10.4826 28.2535 8.42721 26.9237 6.9763C26.2583 6.25027 25.703 5.67415 25.3126 5.27825C25.1174 5.08027 24.9634 4.92726 24.8574 4.82301C24.8044 4.77088 24.7634 4.73093 24.7352 4.70364L24.7027 4.67225L24.6939 4.66378L24 4ZM22.5487 8.3338C23.1353 7.69375 23.6326 7.17503 24 6.8001C24.3674 7.17503 24.8647 7.69375 25.4513 8.3338C26.7465 9.74705 28.4719 11.746 30.1951 14.0899C33.6815 18.8321 37 24.7771 37 30.0801C37 36.5828 31.2599 41.9941 24 41.9941C16.7401 41.9941 11 36.5828 11 30.0801C11 24.7771 14.3185 18.8321 17.8049 14.0899C19.5281 11.746 21.2535 9.74705 22.5487 8.3338Z" fill="currentColor"/>
</svg>
