<svg width="48" height="48" viewBox="0 0 48 48" fill="none" xmlns="http://www.w3.org/2000/svg">
<path d="M25.153 11.7944C25.153 12.7866 24.3697 13.5908 23.4035 13.5908C22.4373 13.5908 21.6541 12.7866 21.6541 11.7944C21.6541 10.8023 22.4373 9.99803 23.4035 9.99803C24.3697 9.99803 25.153 10.8023 25.153 11.7944Z" fill="black"/>
<path d="M13.5889 31.2466C13.5889 32.2388 12.8057 33.043 11.8394 33.043C10.8732 33.043 10.09 32.2388 10.09 31.2466C10.09 30.2545 10.8732 29.4502 11.8394 29.4502C12.8057 29.4502 13.5889 30.2545 13.5889 31.2466Z" fill="black"/>
<path d="M19.3243 23.3141C19.3243 23.9755 18.8022 24.5117 18.158 24.5117C17.5139 24.5117 16.9917 23.9755 16.9917 23.3141C16.9917 22.6527 17.5139 22.1165 18.158 22.1165C18.8022 22.1165 19.3243 22.6527 19.3243 23.3141Z" fill="black"/>
<path d="M33.1578 27.1211C33.1578 27.7825 32.6357 28.3187 31.9915 28.3187C31.3474 28.3187 30.8252 27.7825 30.8252 27.1211C30.8252 26.4597 31.3474 25.9235 31.9915 25.9235C32.6357 25.9235 33.1578 26.4597 33.1578 27.1211Z" fill="black"/>
<path d="M27.4858 35.0748C27.4858 35.7362 26.9637 36.2724 26.3195 36.2724C25.6754 36.2724 25.1532 35.7362 25.1532 35.0748C25.1532 34.4134 25.6754 33.8772 26.3195 33.8772C26.9637 33.8772 27.4858 34.4134 27.4858 35.0748Z" fill="black"/>
<path fill-rule="evenodd" clip-rule="evenodd" d="M16.1595 34.1285C16.0168 34.6684 15.4735 34.9938 14.9457 34.8553C14.4177 34.7169 14.1052 34.1667 14.2477 33.6265L15.2036 33.8772C14.2477 33.6265 14.2477 33.6265 14.2477 33.6265L14.2484 33.6237L14.2494 33.6199L14.2522 33.6096L14.2611 33.5779C14.2685 33.552 14.2788 33.5168 14.2922 33.4732C14.3191 33.386 14.3585 33.265 14.4118 33.1183C14.518 32.8261 14.6814 32.4256 14.9136 31.9852C15.3685 31.1223 16.1368 30.0115 17.3423 29.3243C18.4617 28.6861 19.7091 28.3952 20.6369 28.2581C21.108 28.1885 21.5139 28.1561 21.8042 28.1412C21.9497 28.1337 22.0671 28.1305 22.1502 28.1292C22.1918 28.1285 22.2248 28.1284 22.2486 28.1284L22.2773 28.1285L22.2862 28.1286L22.2906 28.1286C22.2906 28.1286 22.2915 28.1286 22.2647 29.1271L22.2906 28.1286C22.8372 28.1368 23.2692 28.5955 23.2542 29.1531C23.2393 29.7102 22.7848 30.1553 22.2388 30.1479L22.237 30.1479L22.2229 30.1478C22.2089 30.1478 22.1862 30.1479 22.1553 30.1484C22.0935 30.1494 21.9995 30.1518 21.8793 30.158C21.6383 30.1705 21.2953 30.1977 20.8966 30.2566C20.0847 30.3766 19.1085 30.6185 18.292 31.084C17.5616 31.5004 17.0231 32.2261 16.6553 32.9239C16.4761 33.2638 16.3492 33.5747 16.2678 33.7987C16.2273 33.9101 16.1986 33.9985 16.1809 34.0562C16.172 34.085 16.1659 34.106 16.1624 34.1184L16.1591 34.1301L16.1595 34.1285Z" fill="black"/>
<path fill-rule="evenodd" clip-rule="evenodd" d="M22.0597 25.1993C21.0778 25.0097 21.0777 25.0102 21.0777 25.0102L21.0774 25.0119L21.0768 25.0149L21.0752 25.0234L21.0704 25.05C21.0665 25.0719 21.0614 25.1021 21.0553 25.1398C21.0432 25.2151 21.0276 25.3209 21.0119 25.4508C20.9806 25.7095 20.9481 26.0704 20.9435 26.4822C20.9348 27.2689 21.0244 28.3974 21.5595 29.3308C22.1003 30.274 22.9825 30.8527 23.6407 31.1838C23.9807 31.3548 24.29 31.4742 24.5158 31.5515C24.6293 31.5904 24.7234 31.6192 24.7917 31.6389C24.8259 31.6487 24.8537 31.6564 24.8745 31.6619L24.9003 31.6686L24.909 31.6708L24.9137 31.672C24.9137 31.672 24.9149 31.6723 25.1532 30.7011L24.9149 31.6723C25.4513 31.8039 25.9928 31.4757 26.1244 30.9393C26.2557 30.4041 25.9292 29.8638 25.3949 29.7307L25.392 29.73L25.3933 29.7303L25.3949 29.7307L25.3882 29.729C25.3804 29.7269 25.3661 29.723 25.346 29.7172C25.3059 29.7056 25.2432 29.6866 25.1636 29.6593C25.0032 29.6044 24.7809 29.5186 24.5394 29.3971C24.0344 29.1431 23.5537 28.7879 23.2946 28.3361C23.03 27.8745 22.9359 27.1859 22.9434 26.5043C22.947 26.1819 22.9726 25.8958 22.9974 25.6911C23.0097 25.5893 23.0216 25.5092 23.03 25.4566C23.0343 25.4304 23.0376 25.4111 23.0396 25.3995L23.0417 25.3881C23.1461 24.846 22.7914 24.3221 22.2493 24.2174C21.707 24.1127 21.1824 24.4679 21.0777 25.0102L22.0597 25.1993Z" fill="black"/>
<path d="M22.8876 5.72618H23.5906V6.18566H22.8876V5.72618Z" fill="black"/>
<path fill-rule="evenodd" clip-rule="evenodd" d="M14.8361 35.9275C15.3425 35.6734 15.4715 35.0364 15.2042 34.5288C14.8625 33.8798 13.9945 33.6584 13.326 33.9348C12.9651 34.084 12.6138 34.2026 12.3875 34.2435C11.8586 34.3389 11.3162 34.2972 10.8098 34.1221C10.3034 33.9471 9.84921 33.6442 9.48875 33.2413C9.12828 32.8384 8.87306 32.3482 8.74643 31.8157C8.6198 31.2832 8.6258 30.7253 8.76389 30.1931C8.90198 29.6609 9.16774 29.1713 9.53687 28.7691C9.906 28.367 10.3667 28.0651 10.8769 27.8911C11.0524 27.8312 11.2318 27.7872 11.4131 27.759C12.0024 27.6676 12.5831 27.3265 12.7488 26.7391C12.9404 26.0601 12.5149 25.3556 11.8262 25.3574C11.2441 25.3589 10.6555 25.433 10.154 25.604C9.26947 25.9057 8.47068 26.4291 7.83067 27.1264C7.19066 27.8237 6.72987 28.6725 6.49045 29.5953C6.25103 30.5181 6.24062 31.4854 6.46017 32.4087C6.67973 33.332 7.12224 34.1818 7.74723 34.8804C8.37222 35.579 9.15973 36.1041 10.0377 36.4076C10.9157 36.7112 11.8562 36.7835 12.7731 36.618C13.3974 36.5053 14.1733 36.2601 14.8361 35.9275Z" fill="black"/>
<path fill-rule="evenodd" clip-rule="evenodd" d="M21.6429 36.5593C21.6633 36.527 21.6847 36.4949 21.7071 36.4631C22.0229 36.0149 22.5275 35.6352 22.9867 35.6929C23.3011 35.7324 23.5767 35.9524 23.6169 36.2655C23.7364 37.1973 23.3987 38.1037 23.0703 38.7234C22.6824 39.4555 22.1134 40.075 21.4155 40.5252C20.7175 40.9754 19.9128 41.242 19.075 41.3005C18.2372 41.359 17.393 41.2076 16.6196 40.8602C15.8463 40.5128 15.1685 39.9804 14.6482 39.3117C14.1279 38.643 13.7818 37.8594 13.6414 37.0326C13.5011 36.2058 13.4536 35.6417 13.7684 34.6939C13.7898 34.6326 13.8115 34.5698 13.8337 34.5057C13.9599 34.1405 14.0999 33.7352 14.2757 33.3567C14.5631 32.7377 15.3479 32.798 15.7656 33.3564C15.9475 33.5995 16.0244 33.8957 16.0248 34.195C16.0248 34.2551 16.0218 34.3154 16.016 34.3753C16.0141 34.3947 16.0119 34.414 16.0094 34.4333C16.001 34.4987 15.9893 34.5636 15.9745 34.6275C15.9467 34.7479 15.9213 34.8737 15.8944 35.0068C15.8842 35.0575 15.8737 35.1092 15.8629 35.1621C15.7657 35.6352 15.6608 36.2524 15.7418 36.7293C15.8227 37.2062 16.0223 37.6581 16.3224 38.0438C16.6225 38.4294 17.0134 38.7365 17.4595 38.9369C17.9055 39.1373 18.3924 39.2246 18.8756 39.1908C19.3588 39.1571 19.8229 39.0033 20.2255 38.7437C20.6281 38.484 20.9562 38.1267 21.1799 37.7045C21.2585 37.5563 21.353 37.3116 21.428 37.0313C21.468 36.8822 21.5406 36.7233 21.6368 36.569C21.6389 36.5658 21.6409 36.5626 21.6429 36.5593Z" fill="black"/>
<path fill-rule="evenodd" clip-rule="evenodd" d="M20.5639 13.6271L20.5628 13.6257L20.5639 13.6271ZM17.8447 18.6652C18.4817 18.5117 18.6779 17.7467 18.3547 17.1718C18.035 16.6032 17.2789 16.4555 16.6431 16.3477C16.2542 16.2817 15.8995 16.0794 15.6396 15.775C15.3797 15.4707 15.2306 15.0833 15.2177 14.6787C15.2048 14.2742 15.3289 13.8775 15.5689 13.5564C15.8089 13.2353 16.1498 13.0095 16.5337 12.9176C16.9176 12.8257 17.3207 12.8733 17.6743 13.0523C18.0278 13.2314 18.31 13.5307 18.4726 13.8994L18.4809 13.9184C18.7366 14.5167 19.0636 15.2111 19.6822 15.3813C20.3125 15.5547 20.9838 15.1605 20.9638 14.4933C20.9474 13.9494 20.827 13.4101 20.6051 12.9073C20.2189 12.032 19.5491 11.3213 18.7097 10.8963C17.8704 10.4713 16.9135 10.3583 16.0021 10.5765C15.0907 10.7947 14.2812 11.3306 13.7115 12.093C13.1418 12.8553 12.8472 13.7969 12.8778 14.7574C12.9084 15.7178 13.2624 16.6376 13.8794 17.3601C14.4965 18.0825 15.3384 18.563 16.2617 18.7195C16.7915 18.8093 17.3294 18.7893 17.8447 18.6652Z" fill="black"/>
<path fill-rule="evenodd" clip-rule="evenodd" d="M13.8026 26.861C14.3243 26.4642 14.2168 25.6973 13.7032 25.3016L13.6623 25.2701C13.1642 24.8864 12.4357 25.0519 11.8271 25.2157C11.4551 25.3158 11.0611 25.2838 10.7091 25.1248C10.3571 24.9659 10.0678 24.6893 9.88825 24.3401C9.70872 23.991 9.6495 23.5897 9.72023 23.2016C9.79095 22.8134 9.98746 22.4613 10.2778 22.2024C10.5681 21.9435 10.9352 21.793 11.3194 21.7755C11.7036 21.758 12.0822 21.8744 12.3938 22.1059C12.9069 22.487 13.536 22.906 14.152 22.7284C14.7772 22.5481 15.1605 21.8694 14.819 21.3119C14.5451 20.8647 14.1887 20.4722 13.7661 20.1582C13.0264 19.6087 12.1275 19.3323 11.2155 19.3739C10.3035 19.4155 9.43197 19.7727 8.7427 20.3874C8.05342 21.002 7.58691 21.838 7.419 22.7594C7.2511 23.6808 7.39169 24.6335 7.8179 25.4625C8.24412 26.2914 8.93089 26.948 9.76657 27.3254C10.6022 27.7028 11.5377 27.7788 12.4208 27.5411C12.9228 27.4059 13.3912 27.1739 13.8026 26.861Z" fill="black"/>
<path fill-rule="evenodd" clip-rule="evenodd" d="M26.9355 11.2601C26.6493 11.8186 27.0492 12.4313 27.6455 12.578L28.0242 12.6711C28.469 12.7805 28.9074 12.4598 29.1975 12.0939C29.3763 11.8683 29.6071 11.6921 29.8689 11.5811C30.1307 11.4701 30.4153 11.4279 30.697 11.4583C30.9787 11.4887 31.2486 11.5908 31.4822 11.7552C31.7158 11.9196 31.9059 12.1413 32.0351 12.4001C32.1643 12.6589 32.2287 12.9467 32.2224 13.2374C32.216 13.5282 32.1392 13.8127 31.9989 14.0654C31.7679 14.481 31.6158 15.0102 31.8594 15.4127L32.0359 15.7042C32.3774 16.2683 33.1242 16.4459 33.5565 15.9412C33.7366 15.7309 33.8962 15.5017 34.0323 15.2567C34.3655 14.657 34.5479 13.9814 34.563 13.2911C34.578 12.6009 34.4252 11.9176 34.1184 11.3032C33.8116 10.6888 33.3604 10.1626 32.8058 9.77228C32.2511 9.38193 31.6104 9.13972 30.9417 9.06756C30.2729 8.9954 29.5972 9.09557 28.9757 9.359C28.3541 9.62243 27.8063 10.0408 27.3818 10.5763C27.203 10.8018 27.0556 11.0257 26.9355 11.2601Z" fill="black"/>
<path fill-rule="evenodd" clip-rule="evenodd" d="M32.6084 14.0361C31.966 14.011 31.5874 14.6731 31.7448 15.3108L31.7903 15.495C31.9255 16.0428 32.5024 16.3476 33.0242 16.5376C33.3418 16.6533 33.6189 16.8631 33.8204 17.1404C34.0219 17.4178 34.1387 17.7503 34.1562 18.0958C34.185 18.6657 34.309 19.3206 34.7906 19.6152L34.9242 19.6969C35.4797 20.0366 36.2137 19.855 36.3726 19.2194C36.4739 18.8143 36.5156 18.3935 36.4942 17.9712C36.4527 17.1508 36.1753 16.3615 35.6969 15.703C35.2185 15.0446 34.5607 14.5466 33.8067 14.272C33.4191 14.1308 33.015 14.0519 32.6084 14.0361Z" fill="black"/>
<path fill-rule="evenodd" clip-rule="evenodd" d="M13.0099 22.3329C13.2819 22.8774 13.9763 22.9386 14.4508 22.5668L14.6106 22.4416C15.0477 22.0991 15.0866 21.4347 14.9607 20.8869C14.8948 20.5997 14.901 20.3017 14.9789 20.0207C15.0569 19.7397 15.1535 19.4393 15.356 19.2342C15.7216 18.8641 16.0115 18.3027 15.855 17.8016L15.7897 17.5924C15.6069 17.0069 14.9891 16.6595 14.4731 16.9759C14.2028 17.1417 13.9523 17.3402 13.7271 17.5682C13.2463 18.055 12.8972 18.6601 12.7122 19.3272C12.5272 19.9943 12.5123 20.7016 12.669 21.3835C12.7448 21.7133 12.8596 22.032 13.0099 22.3329Z" fill="black"/>
<path fill-rule="evenodd" clip-rule="evenodd" d="M30.9478 20.28C30.5548 20.7971 30.8646 21.5068 31.4672 21.7515L31.7836 21.8799C32.2085 22.0524 32.6781 21.8193 33.0184 21.5153C33.2243 21.3313 33.4703 21.2008 33.7356 21.1348C34.0008 21.0688 34.2777 21.0692 34.5428 21.136C34.8078 21.2028 35.0534 21.334 35.2588 21.5185C35.4643 21.7031 35.6235 21.9356 35.7231 22.1966C35.8227 22.4575 35.8599 22.7392 35.8313 23.0179C35.8028 23.2967 35.7095 23.5643 35.5593 23.7983C35.311 24.185 35.1466 24.6907 35.3689 25.0993L35.5312 25.3975C35.8496 25.9825 36.59 26.2037 37.0402 25.7272C37.2156 25.5416 37.3742 25.3389 37.5138 25.1216C37.8705 24.5661 38.092 23.9308 38.1597 23.269C38.2274 22.6073 38.1393 21.9386 37.9027 21.3191C37.6662 20.6996 37.2882 20.1476 36.8006 19.7094C36.3129 19.2713 35.7299 18.9598 35.1006 18.8013C34.4712 18.6428 33.814 18.6418 33.1842 18.7985C32.5545 18.9552 31.9706 19.2649 31.4817 19.7017C31.2854 19.877 31.1068 20.0708 30.9478 20.28Z" fill="black"/>
<path fill-rule="evenodd" clip-rule="evenodd" d="M22.5408 37.5347C22.5408 37.5347 22.5418 37.5354 22.5436 37.5369L22.5408 37.5347ZM30.971 38.1842C31.2692 37.4538 30.7003 36.7258 29.9342 36.6165C29.1834 36.5094 28.5074 37.0972 27.9163 37.6114C27.8726 37.6494 27.8294 37.6869 27.7866 37.7238C27.7658 37.7418 27.7446 37.7593 27.723 37.7764C27.3043 38.1072 26.7657 38.2487 26.2257 38.1699C25.6857 38.091 25.1885 37.7982 24.8435 37.3559C24.79 37.2872 24.7408 37.2158 24.696 37.1422C24.2947 36.481 23.7929 35.7246 23.0424 35.615C22.2489 35.4991 21.5053 36.0957 21.6706 36.9005C21.8307 37.6802 22.1719 38.4256 22.6743 39.0697C23.4932 40.1198 24.6735 40.815 25.9555 41.0022C27.2375 41.1894 28.5673 40.8513 29.5613 40.0659C30.1885 39.5704 30.67 38.9216 30.971 38.1842Z" fill="black"/>
<path fill-rule="evenodd" clip-rule="evenodd" d="M30.1845 34.8446L30.1841 34.8433L30.1845 34.8446ZM37.564 32.8852L37.5642 32.8866L37.564 32.8852ZM37.5527 31.677C36.9509 31.1769 36.099 31.5274 35.7744 32.2517L35.692 32.4356C35.4001 33.0872 35.7512 33.8473 36.11 34.4575C36.3292 34.8304 36.4243 35.2666 36.382 35.7049C36.3397 36.1433 36.1621 36.562 35.8739 36.9026C35.5858 37.2431 35.2016 37.4885 34.775 37.6045C34.3484 37.7204 33.9006 37.7012 33.4943 37.5493C33.088 37.3975 32.7435 37.1207 32.5089 36.7576C32.2742 36.3946 32.1611 35.9633 32.1855 35.5242C32.2256 34.8006 32.1797 33.9507 31.6134 33.5152L31.4943 33.4236C30.8798 32.9511 29.9785 33.0648 29.6783 33.7919C29.4595 34.322 29.3297 34.8857 29.2979 35.4595C29.2401 36.502 29.5085 37.5258 30.0656 38.3877C30.6227 39.2497 31.4406 39.9068 32.4051 40.2672C33.3697 40.6277 34.4326 40.6735 35.4454 40.3982C36.4583 40.1229 37.3704 39.5403 38.0544 38.7318C38.7384 37.9233 39.1601 36.9292 39.2605 35.8885C39.361 34.8478 39.1352 33.8125 38.6148 32.9272C38.3334 32.4486 37.9736 32.0268 37.5527 31.677Z" fill="black"/>
<path fill-rule="evenodd" clip-rule="evenodd" d="M35.8202 24.1005C35.0745 24.3024 34.8745 25.1895 35.2547 25.8586L35.5371 26.3557C35.8076 26.8317 36.4423 26.9433 36.9898 26.9101C37.329 26.8895 37.6689 26.9617 37.9778 27.12C38.2866 27.2783 38.5544 27.5174 38.756 27.8151C38.9576 28.1127 39.0864 28.4592 39.1305 28.8221C39.1746 29.1849 39.1324 29.5524 39.008 29.8901C38.8836 30.2277 38.6809 30.5246 38.419 30.7529C38.1571 30.9812 37.8444 31.1335 37.5103 31.1955C36.9371 31.302 36.3043 31.4968 36.0325 32.0154L35.8907 32.2857C35.4697 33.0889 35.8564 34.0598 36.7534 34.1426C37.2213 34.1857 37.6777 34.1849 38.0245 34.1205C38.8178 33.9732 39.56 33.6116 40.1818 33.0696C40.8037 32.5276 41.2848 31.8229 41.5802 31.0213C41.8756 30.2196 41.9756 29.3473 41.871 28.4858C41.7664 27.6243 41.4604 26.8018 40.9819 26.0952C40.5033 25.3885 39.8676 24.8208 39.1343 24.4451C38.4011 24.0693 37.5941 23.8979 36.7888 23.9467C36.4529 23.9671 36.1307 24.0164 35.8202 24.1005Z" fill="black"/>
<path fill-rule="evenodd" clip-rule="evenodd" d="M18.0166 13.026C18.2039 13.6799 18.9529 13.9024 19.5331 13.576C20.1037 13.2549 20.284 12.5167 20.1948 11.854C20.1762 11.715 20.166 11.5746 20.1646 11.4336C20.159 10.8868 20.2849 10.3472 20.531 9.86231C20.7771 9.37747 21.1359 8.96244 21.5755 8.65397C22.0151 8.34551 22.5221 8.15313 23.0514 8.09389C23.5807 8.03465 24.1161 8.11037 24.6102 8.31434C25.1042 8.51831 25.5416 8.84424 25.8837 9.26326C26.2257 9.68227 26.4618 10.1814 26.5711 10.7165C26.598 10.8482 26.617 10.9864 26.6282 11.1278C26.684 11.8345 27.0817 12.5583 27.7591 12.7224C28.3821 12.8733 29.0207 12.5009 29.0464 11.8503C29.0678 11.3071 29.0077 10.7597 28.8966 10.2157C28.7071 9.28795 28.2977 8.42247 27.7046 7.69597C27.1115 6.96947 26.3531 6.40436 25.4966 6.05071C24.64 5.69706 23.7117 5.56578 22.794 5.66849C21.8762 5.77121 20.9972 6.10475 20.235 6.63958C19.4727 7.1744 18.8507 7.894 18.424 8.73464C17.9973 9.57527 17.7791 10.511 17.7886 11.4589C17.794 11.9915 17.8713 12.5188 18.0166 13.026Z" fill="black"/>
</svg>
