<svg width="48" height="48" viewBox="0 0 48 48" fill="none" xmlns="http://www.w3.org/2000/svg">
<path fill-rule="evenodd" clip-rule="evenodd" d="M48 0H0L0 48H48V0ZM23.0578 6.00001C24.3191 6.00001 25.5823 6.00762 26.5318 6.27506C26.9937 6.40515 27.2859 6.57289 27.4567 6.74961C27.6021 6.90009 27.7166 7.11324 27.7166 7.50001C27.7166 8.0523 28.1643 8.50001 28.7166 8.50001C29.2689 8.50001 29.7166 8.0523 29.7166 7.50001C29.7166 6.63679 29.4289 5.91243 28.8949 5.35979C28.3862 4.83339 27.7216 4.53237 27.074 4.34997C25.8303 3.99966 24.3019 3.99985 23.1301 4.00001L23.0578 4.00001C21.1132 4.00001 19.6275 4.51291 18.5447 5.4424C17.4724 6.36281 16.906 7.59693 16.6093 8.83453C16.3136 10.0674 16.2694 11.3701 16.2909 12.5128C16.294 12.6776 16.2985 12.8403 16.304 13H11.0001C10.4478 13 9.99415 13.4497 10.057 13.9984C10.6729 19.3774 16.2169 23.6402 23.1147 23.9784V32H25.1147V23.9656C26.8461 23.8585 28.4889 23.5039 29.9858 22.9467C29.9953 23.0613 30 23.1799 30 23.3027C30 24.3394 29.6671 25.1064 28.8882 25.6617C28.2941 26.0854 27.3757 26.4328 26 26.6019V28.6149C27.7193 28.4324 29.0619 27.9943 30.0493 27.2902C31.4579 26.2858 32 24.8477 32 23.3027C32 22.8888 31.961 22.4843 31.8769 22.0951C35.2441 20.2913 37.5579 17.3632 37.9432 13.9984C38.006 13.4497 37.5524 13 37.0001 13H18.3052C18.299 12.8274 18.2939 12.6524 18.2906 12.4752C18.2702 11.3928 18.3173 10.2885 18.5541 9.30088C18.7898 8.31804 19.1969 7.51832 19.8474 6.95999C20.4872 6.41074 21.4734 6.00001 23.0578 6.00001ZM16 42H17H23.1147V36H25.1147V42H26V40.8419L26.0291 40.8332C26.4746 40.6983 26.8583 40.4773 27.1332 40.1346C27.4009 39.801 27.6379 39.2622 27.6379 38.3528C27.6379 37.4446 27.4012 36.8788 27.1195 36.5113C26.8308 36.1346 26.4311 35.8839 25.9793 35.7207C25.5237 35.5562 25.0506 35.4942 24.6781 35.4769C24.495 35.4683 24.3442 35.4709 24.2425 35.4753C24.1919 35.4775 24.154 35.4801 24.131 35.4819L24.1084 35.4839L24.1083 35.4839L24.1072 35.484L24.1061 35.4841L24.106 35.4841L24.0552 35.4898H24L23.8931 35.4898C22.2246 35.49 20.3438 35.4902 18.8799 35.017C18.1057 34.7668 17.3647 34.3608 16.8215 33.6836C16.2691 32.9949 16 32.1241 16 31.0957C16 30.0694 16.2696 29.2002 16.8225 28.5131C17.366 27.8377 18.1071 27.4333 18.8809 27.184C19.8068 26.8857 20.8995 26.7762 22 26.7361V28.7384C21.0326 28.7754 20.1819 28.8661 19.4941 29.0877C18.9554 29.2612 18.6027 29.491 18.3806 29.767C18.1679 30.0313 18 30.4307 18 31.0957C18 31.7643 18.1684 32.1663 18.3816 32.4322C18.6041 32.7095 18.9568 32.94 19.4951 33.114C20.6152 33.4761 22.168 33.4896 23.9539 33.4898L23.9731 33.4882C24.0181 33.4846 24.0799 33.4805 24.1561 33.4772C24.308 33.4706 24.5195 33.4673 24.7712 33.479C25.2683 33.5022 25.9547 33.5854 26.6586 33.8396C27.3662 34.0952 28.126 34.5367 28.7069 35.2946C29.2948 36.0617 29.6379 37.0728 29.6379 38.3528C29.6379 39.6315 29.2951 40.6359 28.6932 41.3862C28.5026 41.6238 28.2933 41.8268 28.0734 42H31H32V44H31H17H16V42Z" fill="#333333"/>
</svg>
