<svg width="49" height="49" viewBox="0 0 49 49" fill="none" xmlns="http://www.w3.org/2000/svg">
<g clip-path="url(#clip0)">
<path fill-rule="evenodd" clip-rule="evenodd" d="M48.0195 0.980352L0.0195312 0.94104L-0.0197809 48.941L47.9802 48.9803L48.0195 0.980352ZM24.0113 10.9607C25.1159 10.9616 26.0106 11.8578 26.0097 12.9623L26.0031 20.9623L25.9999 24.9623L21.9999 24.959L22.0031 20.9591L22.0097 12.9591C22.0106 11.8545 22.9068 10.9598 24.0113 10.9607ZM28.0097 12.964L28.0031 20.964L34.0031 20.9689L34.004 19.9689L32.004 19.9672L30.004 19.9656L30.0056 17.9656L30.0081 14.9656C30.009 13.861 30.9051 12.9663 32.0097 12.9672L39.0097 12.973C40.1143 12.9739 41.009 13.87 41.0081 14.9746L41.0056 17.9746L41.004 19.9746L39.004 19.973L37.004 19.9713L37.0031 20.9713L41.0031 20.9746C42.1077 20.9755 43.0024 21.8717 43.0015 22.9762L42.999 25.9762L43.999 25.9771L43.9974 27.9771L42.9974 27.9762L28.9974 27.9648L28.9966 28.9648L28.995 30.9648L26.995 30.9631L20.995 30.9582L18.995 30.9566L18.9966 28.9566L18.9974 27.9566L4.99742 27.9451L3.99742 27.9443L3.99905 25.9443L4.99905 25.9451L5.00151 22.9451C5.00242 21.8406 5.89858 20.9459 7.00315 20.9468L11.0031 20.95L11.004 19.95L9.00397 19.9484L7.00397 19.9468L7.00561 17.9468L7.00806 14.9468C7.00897 13.8422 7.90513 12.9475 9.0097 12.9484L16.0097 12.9541C17.1143 12.955 18.009 13.8512 18.0081 14.9558L18.0056 17.9558L18.004 19.9558L16.004 19.9541L14.004 19.9525L14.0031 20.9525L20.0031 20.9574L20.0097 12.9574C20.0115 10.7483 21.8038 8.95888 24.013 8.96069C26.2221 8.9625 28.0115 10.7548 28.0097 12.964ZM26.9982 26.9631L26.9974 27.9631L26.9966 28.9631L20.9966 28.9582L20.9974 27.9582L20.9982 26.9582L21.9982 26.959L25.9982 26.9623L26.9982 26.9631ZM23.9851 42.9607C26.1943 42.9625 27.9866 41.1731 27.9884 38.964C27.9913 35.464 23.9941 31.9607 23.9941 31.9607C23.9941 31.9607 19.9913 35.4574 19.9884 38.9574C19.9866 41.1665 21.776 42.9589 23.9851 42.9607ZM12.0056 17.9509L13.0056 17.9517L13.0072 15.9517L15.0072 15.9533L15.0056 17.9533L16.0056 17.9541L16.0081 14.9541L9.00806 14.9484L9.0056 17.9484L10.0056 17.9492L10.0072 15.9492L12.0072 15.9509L12.0056 17.9509ZM36.0056 17.9705L35.0056 17.9697L35.0072 15.9697L33.0072 15.9681L33.0056 17.9681L32.0056 17.9672L32.0081 14.9672L39.0081 14.973L39.0056 17.973L38.0056 17.9722L38.0072 15.9722L36.0072 15.9705L36.0056 17.9705Z" fill="#333333"/>
</g>
<defs>
<clipPath id="clip0">
<rect width="48" height="48" fill="white" transform="translate(0.0195312 0.980347)"/>
</clipPath>
</defs>
</svg>
