<svg width="24" height="24" viewBox="0 0 24 24" fill="none" xmlns="http://www.w3.org/2000/svg">
<path d="M13.7503 6.5C14.9929 6.5 16.0003 5.49264 16.0003 4.25C16.0003 3.00736 14.9929 2 13.7503 2C12.5076 2 11.5003 3.00736 11.5003 4.25C11.5003 5.49264 12.5076 6.5 13.7503 6.5Z" fill="black"/>
<path d="M13.776 12.2468L13.2672 14.4272L15.8883 16.968L16.9618 20.7252C17.1135 21.2562 16.806 21.8097 16.275 21.9614C15.744 22.1131 15.1905 21.8057 15.0387 21.2746L14.1122 18.0318L9.46462 13.5265C9.196 13.3282 9.03589 13.0014 9.06095 12.6505L9.25631 9.91547C8.56257 10.6975 7.8771 11.8211 7.46179 13.2749C7.31008 13.8059 6.7566 14.1134 6.22556 13.9617C5.69452 13.81 5.38702 13.2565 5.53873 12.7255C6.08487 10.8138 7.03094 9.33313 8.0099 8.31819C8.49837 7.81177 9.00593 7.41004 9.49087 7.12869C9.9521 6.86109 10.4832 6.6499 11.0003 6.64991C11.051 6.64991 11.1009 6.65369 11.1496 6.66099C11.2159 6.65977 11.283 6.66214 11.3505 6.66828C12.5043 6.77315 13.4434 7.47373 13.9174 8.42352C13.9396 8.45511 13.9603 8.48832 13.9791 8.5231L15.2088 10.7882C15.4919 11.3099 15.9922 11.6788 16.5742 11.7952L17.6964 12.0196C18.238 12.1279 18.5892 12.6547 18.4809 13.1963C18.3726 13.7379 17.8457 14.0891 17.3042 13.9808L16.182 13.7563C15.2157 13.5631 14.3621 13.0218 13.776 12.2468Z" fill="black"/>
<path d="M8.14498 18.4037L9.35337 14.7785L10.9492 16.3156L10.0423 19.0362C9.92043 19.4019 9.69541 19.7246 9.39437 19.9655L7.12497 21.781C6.69371 22.126 6.06441 22.0561 5.7194 21.6248C5.3744 21.1935 5.44432 20.5643 5.87558 20.2192L8.14498 18.4037Z" fill="black"/>
</svg>
