<svg width="24" height="24" viewBox="0 0 24 24" fill="none" xmlns="http://www.w3.org/2000/svg">
<path fill-rule="evenodd" clip-rule="evenodd" d="M8.08672 3.07289C9.14722 2.59337 10.8419 2 12.4996 2C14.1575 2 15.8523 2.59386 16.9127 3.07355C17.5543 3.36379 17.8332 3.99402 17.7493 4.57977C17.738 5.18929 17.5974 5.78932 17.3373 6.34752C17.066 6.92972 16.6712 7.4526 16.1803 7.88898C15.6895 8.32521 15.1115 8.66726 14.4812 8.89933C14.4079 8.92632 14.334 8.95178 14.2596 8.9757C15.8063 9.13327 17.3107 9.8046 18.4958 10.9897L19.2029 11.6968L19.1555 11.7442C18.7563 11.3597 18.2745 11.0783 17.7441 10.9098C17.1942 10.7351 16.6091 10.6867 16.0265 10.7515C15.4443 10.8161 14.8703 10.9929 14.3342 11.2621C13.798 11.5315 13.3029 11.8915 12.8739 12.3206C12.4448 12.7496 12.0848 13.2447 11.8154 13.7809C11.5462 14.317 11.3694 14.891 11.3048 15.4732C11.24 16.0558 11.2884 16.6409 11.4631 17.1908C11.6316 17.7212 11.913 18.203 12.2975 18.6022L8.94982 21.9499L3.29297 16.293L8.59627 10.9897C9.48368 10.1023 10.5501 9.50296 11.6793 9.19169C11.2826 9.13499 10.8932 9.03717 10.5188 8.89933C9.88849 8.66726 9.31051 8.32522 8.81975 7.88898C8.32882 7.45261 7.93403 6.92972 7.66273 6.34752C7.4034 5.79101 7.26288 5.19292 7.25084 4.5853C7.16405 3.99778 7.44265 3.36412 8.08672 3.07289ZM10.2891 4.37486C10.9985 4.59203 11.774 4.75 12.4996 4.75C13.2252 4.75 14.0007 4.59215 14.7101 4.37514C14.0007 4.15797 13.2252 4 12.4996 4C11.774 4 10.9985 4.15785 10.2891 4.37486ZM12.4996 6.75C13.6311 6.75 14.7797 6.47358 15.7322 6.14561C15.5802 6.36942 15.3966 6.57866 15.1837 6.76787C14.8387 7.07451 14.4246 7.32174 13.9629 7.49171C13.5013 7.66169 13.0039 7.75 12.5 7.75C11.9961 7.75 11.4987 7.66169 11.0371 7.49171C10.5754 7.32174 10.1613 7.07451 9.81629 6.76787C9.60339 6.57863 9.41972 6.36935 9.26774 6.1455C10.22 6.47353 11.3684 6.75 12.4996 6.75Z" fill="black"/>
<path d="M17.0779 13.0064C17.284 13.0718 17.458 13.1729 17.5992 13.3005L13.8538 17.0459C13.7262 16.9047 13.6251 16.7307 13.5597 16.5246C13.4861 16.2932 13.4574 16.02 13.4912 15.7161C13.525 15.4119 13.6204 15.0888 13.7813 14.7682C13.9422 14.4478 14.162 14.1435 14.4294 13.8761C14.6968 13.6087 15.0011 13.3889 15.3215 13.228C15.6421 13.0671 15.9652 12.9717 16.2694 12.9379C16.5733 12.9041 16.8465 12.9328 17.0779 13.0064Z" fill="black"/>
</svg>
