<svg width="24" height="24" viewBox="0 0 24 24" fill="none" xmlns="http://www.w3.org/2000/svg">
<path fill-rule="evenodd" clip-rule="evenodd" d="M16.8102 7.69041L16.8114 7.69332C16.8335 7.74503 16.8516 7.79929 16.8646 7.85398L17.642 11.0994C16.6878 11.2513 15.9585 12.0779 15.9585 13.0749C15.9585 14.1797 16.8541 15.0753 17.9589 15.0753H18.5157L18.6177 15.5748C18.6777 15.869 18.6024 16.1747 18.4124 16.4072C18.2225 16.6398 17.9381 16.7748 17.6379 16.7748H16.0193V19.0771C16.0193 19.6294 15.5716 20.0771 15.0193 20.0771H12.5278V20.1579V21.1579H10.5278V20.1579V19.0771C10.5278 18.5249 10.9755 18.0771 11.5278 18.0771H14.0193V16.7748H12.1263C11.7836 16.7748 11.4647 16.5992 11.2814 16.3096C11.0981 16.0199 11.0759 15.6566 11.2226 15.3468L12.2459 13.1858C11.0463 12.8724 9.572 12.4158 8.14334 11.8357C6.82766 11.3015 5.451 10.6242 4.37269 9.79824C4.31567 10.1219 4.28564 10.4599 4.28564 10.8115C4.28564 12.4949 5.07009 13.6021 5.88446 14.3174C6.29658 14.6793 6.71185 14.935 7.02378 15.0993C7.17874 15.181 7.30532 15.2386 7.38925 15.2744C7.43113 15.2923 7.46212 15.3046 7.48041 15.3117L7.49892 15.3187C7.89724 15.4605 8.1635 15.8376 8.1635 16.2607V20.1579V21.1579H6.1635V20.1579V16.9062C6.13993 16.8941 6.11589 16.8816 6.0914 16.8687C5.67622 16.6499 5.12204 16.3096 4.56468 15.8201C3.44013 14.8324 2.28564 13.2151 2.28564 10.8115C2.28564 9.62094 2.54574 8.51951 3.01436 7.54107C3.53729 6.44925 4.31219 5.52622 5.24839 4.805C6.69737 3.68876 8.13433 3 10.2185 3C12.5638 3 14.2308 4.22789 15.2687 5.37135C15.7896 5.9452 16.1698 6.51547 16.4203 6.94189C16.5461 7.15609 16.6408 7.33673 16.7054 7.4671C16.7378 7.53236 16.7627 7.58525 16.7804 7.62372C16.7892 7.64295 16.7962 7.65861 16.8014 7.67041L16.8079 7.68522L16.8102 7.69041ZM18.3116 14.0753L19.2856 14.0746V21.1579H21.2856V13.0746C21.2856 12.5223 20.8379 12.0746 20.2856 12.0746H17.942C17.3973 12.0836 16.9585 12.528 16.9585 13.0749C16.9585 13.6274 17.4064 14.0753 17.9589 14.0753H18.3116ZM6.46894 6.38939C7.66958 5.46445 8.68885 5 10.2185 5C11.8011 5 12.9709 5.81557 13.7878 6.71556C14.1944 7.16344 14.4961 7.6149 14.6957 7.95478C14.7208 7.99741 14.7441 8.03812 14.7657 8.07665L13.835 9.83224C13.8279 9.84557 13.8211 9.85906 13.8147 9.87269L13.1179 11.344C11.9381 11.0516 10.3848 10.5873 8.89576 9.98265C7.3178 9.34194 5.95758 8.60013 5.13738 7.83182C5.48961 7.28143 5.94057 6.79642 6.46894 6.38939Z" fill="black"/>
</svg>
