<svg width="24" height="24" viewBox="0 0 24 24" fill="none" xmlns="http://www.w3.org/2000/svg">
<path fill-rule="evenodd" clip-rule="evenodd" d="M5.38768 7.60722C5.22795 7.28754 4.77205 7.28754 4.61232 7.60722L3.41432 10.0048C3.27022 10.2932 3.47979 10.6325 3.802 10.6325H6.198C6.52021 10.6325 6.72978 10.2932 6.58568 10.0048L5.38768 7.60722ZM3.83696 7.21928C4.31616 6.26024 5.68384 6.26024 6.16304 7.21928L7.36104 9.61689C7.79334 10.4821 7.16464 11.5 6.198 11.5H3.802C2.83536 11.5 2.20666 10.4821 2.63896 9.61689L3.83696 7.21928Z" fill="black"/>
<path fill-rule="evenodd" clip-rule="evenodd" d="M10.2541 4.42852C10.2899 4.18254 10.5018 4 10.7516 4H20.3357C20.5855 4 20.7974 4.18254 20.8331 4.42852L21.9947 12.4285C22.0385 12.73 21.8035 13 21.4973 13H16.549V20H9.9931V17.2714H3.98349V12H3.50981C2.38889 12 1.65984 10.8266 2.16114 9.82921L3.65994 6.84725C4.21562 5.74168 5.8016 5.74167 6.35729 6.84725L7.85609 9.82921C8.35738 10.8266 7.62834 12 6.50742 12H5.99398V15.2714H12.0036V18H14.5386V13H9.58999C9.2838 13 9.04875 12.73 9.09253 12.4285L10.2541 4.42852ZM12.9162 6C12.6678 6 12.4566 6.1805 12.4193 6.42478L12.1133 8.42478C12.067 8.72741 12.3025 9 12.6102 9H18.4771C18.7849 9 19.0203 8.72741 18.974 8.42478L18.6681 6.42478C18.6307 6.1805 18.4196 6 18.1712 6H12.9162ZM15.5437 11.5C15.856 11.5 16.1239 11.3111 16.2384 11.0419C16.2442 11.0282 16.2497 11.0142 16.2547 11C16.2825 10.9218 16.2976 10.8377 16.2976 10.75C16.2976 10.3358 15.9601 10 15.5437 10C15.1273 10 14.7898 10.3358 14.7898 10.75C14.7898 10.8341 14.8037 10.915 14.8294 10.9905L14.8327 11C14.9362 11.2913 15.2154 11.5 15.5437 11.5Z" fill="black"/>
</svg>
