<svg width="24" height="24" viewBox="0 0 24 24" fill="none" xmlns="http://www.w3.org/2000/svg">
<path fill-rule="evenodd" clip-rule="evenodd" d="M14.1835 18.9326L11.9958 21L9.81204 18.9207L9.73206 18.8448C7.8949 17.1024 6.24641 15.5389 5.07091 14.0356C3.85717 12.4835 3 10.8159 3 8.85456C3 5.66609 5.43431 3 8.67692 3C9.83142 3 10.936 3.76406 11.8675 4.40841C11.9121 4.43925 11.9562 4.46981 12 4.5C12.0438 4.46981 12.0879 4.43925 12.1325 4.40842C13.064 3.76406 14.1686 3 15.3231 3C18.5657 3 21 5.6661 21 8.85456C21 10.8158 20.1428 12.4834 18.9294 14.0362C17.7584 15.5348 16.1181 17.0938 14.2899 18.8315L14.1835 18.9326ZM9.34582 11.6071L13.049 6.90283L12.3429 10.4235H14.4928C14.6604 10.4235 14.7543 10.6168 14.6506 10.7485L10.9474 15.4528L11.6535 11.9321H9.5036C9.33596 11.9321 9.24213 11.7388 9.34582 11.6071Z" fill="black"/>
</svg>
