<svg width="24" height="24" viewBox="0 0 24 24" fill="none" xmlns="http://www.w3.org/2000/svg">
<path fill-rule="evenodd" clip-rule="evenodd" d="M3 3C2.44772 3 2 3.44772 2 4V16C2 16.5523 2.44772 17 3 17H9V19H2V21H18V19H11V17H17C17.5523 17 18 16.5523 18 16H19.4508C19.8262 16 20.135 16 20.3735 15.9916C20.5913 15.9838 20.8641 15.9678 21.1075 15.8903C21.2449 15.8465 21.4184 15.7699 21.5801 15.6267C21.7515 15.475 21.8584 15.2941 21.9197 15.1183C22.0054 14.8726 22.0014 14.6029 22.0002 14.5182L22 14.5L21.9999 8C21.9999 7.45665 21.8157 6.74017 21.3603 6.13747C20.8732 5.49292 20.0866 5 19.0001 5V7C19.4135 7 19.6268 7.16093 19.7646 7.3433C19.9341 7.56753 19.9999 7.85104 19.9999 8L20 13.9986C19.845 14 19.6586 14 19.431 14H18V4C18 3.44772 17.5523 3 17 3H3ZM10 6C10.2761 6 10.5 6.22386 10.5 6.5V8.29283C10.5 8.55804 10.6054 8.8124 10.7929 8.99993L11.3964 9.60349C11.5917 9.79875 11.9083 9.79875 12.1036 9.60349C12.2988 9.40823 12.2988 9.09164 12.1036 8.89638L11.7071 8.49989C11.5745 8.36731 11.5 8.18749 11.5 8C11.5 7.72386 11.7239 7.5 12 7.5H13C13.1615 7.5 13.313 7.57798 13.4069 7.70938C14.0917 8.66809 14.5652 9.50613 14.8923 10.4146C15.2188 11.3217 15.3907 12.2755 15.4979 13.4547C15.5106 13.5941 15.4643 13.7324 15.3703 13.836C15.2763 13.9396 15.1431 13.9991 15.0032 14L14.9505 14.0003C14.3362 14.0043 13.7885 14.0079 13.2742 13.9045C12.7264 13.7944 12.2313 13.5681 11.6909 13.143C11.5704 13.0482 11.5 12.9033 11.5 12.75V10.8141C11.5 10.7331 11.4538 10.6609 11.3964 10.6036L10.4072 9.61431C10.3046 9.51174 10.1451 9.5 10 9.5C9.85495 9.5 9.69536 9.51174 9.59279 9.61431L8.60355 10.6036C8.54624 10.6609 8.5 10.7331 8.5 10.8141V12.75C8.5 12.9033 8.42965 13.0482 8.30913 13.143C7.76867 13.5681 7.27361 13.7944 6.72583 13.9045C6.21151 14.0079 5.66375 14.0043 5.04951 14.0003L4.99679 14C4.85687 13.9991 4.72373 13.9396 4.62971 13.836C4.53569 13.7324 4.48939 13.5941 4.50206 13.4547C4.60926 12.2755 4.7812 11.3217 5.10775 10.4146C5.43478 9.50613 5.90834 8.66809 6.59313 7.70938C6.68699 7.57798 6.83853 7.5 7 7.5H8C8.27614 7.5 8.5 7.72386 8.5 8C8.5 8.18749 8.42552 8.36731 8.29294 8.49989L7.89645 8.89638C7.70118 9.09164 7.70118 9.40823 7.89645 9.60349C8.09171 9.79875 8.40829 9.79875 8.60355 9.60349L9.20711 8.99994C9.39464 8.8124 9.5 8.55805 9.5 8.29283V6.5C9.5 6.22386 9.72386 6 10 6Z" fill="black"/>
</svg>
