<svg width="24" height="24" viewBox="0 0 24 24" fill="none" xmlns="http://www.w3.org/2000/svg">
<path fill-rule="evenodd" clip-rule="evenodd" d="M13.2216 4.78811L13.141 14.2356C13.0989 14.2592 13.058 14.2862 13.0186 14.3167C12.5595 14.6728 12.182 15.0806 11.9159 15.588C11.6498 16.0955 11.5269 16.642 11.4915 17.229C11.4624 17.7115 11.5046 18.1386 11.6308 18.5608C11.7527 18.9687 11.9412 19.3299 12.1456 19.6807C12.3647 20.0565 12.5953 20.3838 12.8907 20.6775C13.1868 20.9717 13.5145 21.199 13.8936 21.4122C14.702 21.867 15.4331 22.0231 16.2411 21.9973C17.06 21.9711 17.8529 21.7147 18.5323 21.2528C19.2116 20.7909 19.748 20.1434 20.0844 19.3827C20.3959 18.6785 20.6125 17.8951 20.4376 16.8917C20.3434 16.3517 20.1816 15.858 19.8963 15.4061C19.6729 15.0522 19.3951 14.7579 19.0723 14.4976V4.8092C19.0723 3.65577 18.3874 2.41803 17.079 2.11894C16.7999 2.05514 16.4728 2.00001 16.1526 2C15.8275 1.99999 15.4948 2.05685 15.212 2.12217C13.9161 2.42149 13.2314 3.64291 13.2216 4.78811ZM16.1526 3.98452C16.0318 3.98452 15.8571 4.008 15.6421 4.05764C15.4194 4.10909 15.1719 4.36309 15.1681 4.80538L15.0967 13.1676C15.1238 13.1645 15.1514 13.1629 15.1793 13.1629H17.1257V11.8496H16.4308C16.0277 11.8496 15.7008 11.5164 15.7008 11.1054C15.7008 10.6944 16.0277 10.3612 16.4308 10.3612H17.1257V9.31016H16.4306C16.0275 9.31016 15.7006 8.97697 15.7006 8.56597C15.7006 8.15496 16.0275 7.82177 16.4306 7.82177H17.1257V6.71323H16.4308C16.0277 6.71323 15.7008 6.38004 15.7008 5.96904C15.7008 5.55803 16.0277 5.22484 16.4308 5.22484H17.1257V4.8092C17.1257 4.36255 16.8762 4.10639 16.6531 4.05538C16.4423 4.00718 16.2712 3.98452 16.1526 3.98452Z" fill="black"/>
<path d="M7.29036 7.5098C7.1255 7.17364 6.78849 6.96129 6.41984 6.96129C6.05119 6.96129 5.71418 7.17364 5.54931 7.5098L3.60275 11.4788C3.4519 11.7864 3.46802 12.1517 3.64536 12.4443C3.8227 12.7368 4.13596 12.9148 4.47328 12.9148H5.44656V16.8839C5.44656 17.4319 5.88231 17.8761 6.41984 17.8761C6.95736 17.8761 7.39312 17.4319 7.39312 16.8839V12.9148H8.36639C8.70371 12.9148 9.01698 12.7368 9.19431 12.4443C9.37165 12.1517 9.38777 11.7864 9.23692 11.4788L7.29036 7.5098Z" fill="black"/>
</svg>
