<svg width="24" height="24" viewBox="0 0 24 24" fill="none" xmlns="http://www.w3.org/2000/svg">
<path d="M15.5 3C14.9477 3 14.5 3.44772 14.5 4C14.5 4.55228 14.9477 5 15.5 5H18V7C18 7.55228 18.4477 8 19 8C19.5523 8 20 7.55228 20 7V3H15.5Z" fill="black"/>
<path fill-rule="evenodd" clip-rule="evenodd" d="M4.17497 4.88009C5.34581 4.14832 6.88819 4.50425 7.61996 5.67509L9.38559 8.50009H18.5C19.8807 8.50009 21 9.61938 21 11.0001C21 11.818 20.6072 12.5442 20 13.0003V16H21V18H19.7324C19.9026 18.2942 20 18.6357 20 19C20 20.1046 19.1045 21 18 21C16.8954 21 16 20.1046 16 19C16 18.6357 16.0974 18.2942 16.2675 18H7.73241C7.90258 18.2942 7.99997 18.6357 7.99997 19C7.99997 20.1046 7.10454 21 5.99997 21C4.8954 21 3.99997 20.1046 3.99997 19C3.99997 18.6357 4.09736 18.2942 4.26753 18H2.99997V16H3.99997V9.31708L3.37997 8.32509C2.6482 7.15425 3.00413 5.61187 4.17497 4.88009ZM6.61435 13.5001H18V16H5.99997V12.5171L6.61435 13.5001Z" fill="black"/>
</svg>
