<svg width="24" height="24" viewBox="0 0 24 24" fill="none" xmlns="http://www.w3.org/2000/svg">
<path fill-rule="evenodd" clip-rule="evenodd" d="M10.9974 3.57541H10.1223C9.62206 3.21722 9.00686 3 8.33055 3C7.65424 3 7.03904 3.21722 6.53882 3.57541H5.66382C4.19263 3.57541 3 4.76805 3 6.23923V12.9659C3 14.4371 4.19263 15.6297 5.66382 15.6297H6.03925C6.16196 16.0432 6.54479 16.3447 6.99805 16.3447H7.48389V17H7.49372C7.52719 17.4673 7.64581 17.9272 7.84546 18.361C8.08417 18.8796 8.43405 19.3509 8.87513 19.7479C9.31621 20.1449 9.83984 20.4597 10.4161 20.6746C10.9924 20.8894 11.6101 21 12.2339 21C12.8577 21 13.4753 20.8894 14.0516 20.6746C14.6279 20.4597 15.1516 20.1449 15.5926 19.7479C16.0337 19.3509 16.3836 18.8796 16.6223 18.361C16.822 17.9272 16.9406 17.4673 16.974 17H16.9839V11H16.9827C16.9827 10.8685 17.0086 10.7383 17.0589 10.6169C17.1092 10.4954 17.1829 10.385 17.2759 10.292C17.3689 10.1991 17.4793 10.1253 17.6007 10.075C17.7222 10.0247 17.8524 9.99878 17.9839 9.99878C18.1154 9.99878 18.2456 10.0247 18.367 10.075C18.4885 10.1253 18.5989 10.1991 18.6919 10.292C18.7848 10.385 18.8586 10.4954 18.9089 10.6169C18.9592 10.7383 18.9851 10.8685 18.9851 11H18.9839V12H20.9839V11C20.9839 10.606 20.9063 10.2159 20.7555 9.85195C20.6048 9.48797 20.3838 9.15726 20.1052 8.87868C19.8266 8.6001 19.4959 8.37913 19.1319 8.22836C18.768 8.0776 18.3779 8 17.9839 8C17.5899 8 17.1998 8.0776 16.8358 8.22836C16.4719 8.37913 16.1411 8.6001 15.8626 8.87868C15.584 9.15726 15.363 9.48797 15.2122 9.85195C15.0615 10.2159 14.9839 10.606 14.9839 11V16.8925C14.9637 17.1609 14.8951 17.425 14.7804 17.6743C14.6419 17.9753 14.4388 18.2487 14.1829 18.4791C13.9269 18.7094 13.6231 18.8922 13.2887 19.0168C12.9543 19.1415 12.5958 19.2057 12.2339 19.2057C11.8719 19.2057 11.5135 19.1415 11.1791 19.0168C10.8447 18.8922 10.5408 18.7094 10.2849 18.4791C10.0289 18.2487 9.82592 17.9753 9.68741 17.6743C9.57268 17.425 9.50407 17.1609 9.48389 16.8925V16.3447H9.66254C10.1158 16.3447 10.4986 16.0432 10.6213 15.6297H10.9974C12.4686 15.6297 13.6612 14.4371 13.6612 12.9659V6.23923C13.6612 4.76805 12.4686 3.57541 10.9974 3.57541ZM10.9974 5.57541H9.29229C9.10034 5.23144 8.74152 5 8.33055 5C7.91957 5 7.56076 5.23144 7.36881 5.57541H5.66382C5.2972 5.57541 5 5.87262 5 6.23923V10.6293C5.10057 10.6232 5.21393 10.6135 5.33905 10.5986C5.94778 10.5258 6.83835 10.3282 7.89475 9.81681C9.3415 9.11651 10.6244 9.24938 11.5408 9.57815C11.5817 9.59283 11.6219 9.60788 11.6612 9.62323V6.23923C11.6612 5.87262 11.364 5.57541 10.9974 5.57541Z" fill="black"/>
<path d="M19.1696 14.0972C19.544 13.4697 19.9837 13 19.9837 13C19.9837 13 20.4234 13.4697 20.7978 14.0972C21.0754 14.5625 21.3171 15.1145 21.3171 15.6263C21.3171 16.385 20.7201 17 19.9837 17C19.2473 17 18.6504 16.385 18.6504 15.6263C18.6504 15.1145 18.8921 14.5625 19.1696 14.0972Z" fill="black"/>
</svg>
