<svg width="24" height="24" viewBox="0 0 24 24" fill="none" xmlns="http://www.w3.org/2000/svg">
<path fill-rule="evenodd" clip-rule="evenodd" d="M7.61996 5.17509C6.88819 4.00425 5.34581 3.64832 4.17497 4.38009C3.00413 5.11187 2.6482 6.65425 3.37997 7.82509L3.99997 8.81708V16H2.99997V18H4.26753C4.09736 18.2942 3.99997 18.6357 3.99997 19C3.99997 20.1046 4.8954 21 5.99997 21C7.10454 21 7.99997 20.1046 7.99997 19C7.99997 18.6357 7.90258 18.2942 7.73241 18H16.2675C16.0974 18.2942 16 18.6357 16 19C16 20.1046 16.8954 21 18 21C19.1045 21 20 20.1046 20 19C20 18.6357 19.9026 18.2942 19.7324 18H21V16H20V12.5003C20.6072 12.0442 21 11.318 21 10.5001C21 9.11938 19.8807 8.00009 18.5 8.00009H9.38559L7.61996 5.17509ZM18 13.0001H6.61435L5.99997 12.0171V16H18V13.0001Z" fill="black"/>
</svg>
