<svg width="24" height="24" viewBox="0 0 24 24" fill="none" xmlns="http://www.w3.org/2000/svg">
<path fill-rule="evenodd" clip-rule="evenodd" d="M14.3485 2.8667H16C17.6569 2.8667 19 4.20984 19 5.8667V16C19 17.3114 18.1586 18.4262 16.9863 18.8341C16.9953 18.8881 17 18.9435 17 19C17 19.5523 16.5523 20 16 20H15V22H13V20H11.2396C11.2396 20.5523 10.7919 21 10.2396 21H10C9.44772 21 9 20.5523 9 20H8C7.44772 20 7 19.5523 7 19C7 18.9435 7.00469 18.8881 7.0137 18.8341C5.84136 18.4262 5 17.3114 5 16V5.8667C5 4.20985 6.34315 2.8667 8 2.8667H9.6515C10.2793 2.33266 11.0937 2 12 2C12.9063 2 13.7207 2.33266 14.3485 2.8667ZM13.4437 4.8667H16C16.5523 4.8667 17 5.31441 17 5.8667V12.0056C15.9564 11.2068 14.1705 10.4497 12 12C9.82952 13.5504 8.04361 13.947 7 14.0246V5.8667C7 5.31441 7.44772 4.8667 8 4.8667H10.5563C10.8445 4.34859 11.3831 4 12 4C12.6169 4 13.1556 4.34859 13.4437 4.8667Z" fill="black"/>
</svg>
