<svg width="24" height="24" viewBox="0 0 24 24" fill="none" xmlns="http://www.w3.org/2000/svg">
<path d="M11 2H13V3.62261C13.342 3.70957 13.6626 3.84211 13.9442 4.01812C14.4661 4.34434 14.9832 4.917 14.9996 5.71124L15.6306 6.22392C16.197 6.68419 17.0915 7.14018 17.9081 7.49645C18.3044 7.66933 18.6611 7.80971 18.9184 7.9067C19.0467 7.95509 19.1496 7.99242 19.2195 8.01734C19.2544 8.02979 19.281 8.03911 19.2984 8.04515L19.3174 8.05172L19.322 8.05332L20 8.28369V19.382L20.4472 19.6056C20.9412 19.8526 21.1414 20.4533 20.8944 20.9472C20.6474 21.4412 20.0467 21.6414 19.5527 21.3945L18 20.6181V9.69666C17.7484 9.59898 17.4417 9.47499 17.1084 9.3296C16.2639 8.96119 15.1583 8.41718 14.3694 7.77614L13.9795 7.4594C13.9678 7.46702 13.956 7.47451 13.9442 7.48188C13.3997 7.8222 12.7097 8 12 8C11.2902 8 10.6003 7.8222 10.0558 7.48188C10.044 7.47451 10.0322 7.46702 10.0204 7.4594L9.63057 7.77614C8.84159 8.41718 7.73602 8.96119 6.89153 9.3296C6.55827 9.47499 6.25159 9.59898 5.99997 9.69666V20.6181L4.44719 21.3945C3.95321 21.6414 3.35254 21.4412 3.10555 20.9472C2.85856 20.4533 3.05878 19.8526 3.55276 19.6056L3.99997 19.382V8.28369L4.67789 8.05332L4.68256 8.05172L4.70153 8.04515C4.7189 8.03911 4.74552 8.02979 4.78044 8.01734C4.85031 7.99242 4.95322 7.95509 5.08158 7.9067C5.33882 7.80971 5.69553 7.66933 6.09182 7.49645C6.90846 7.14018 7.80289 6.68419 8.36938 6.22392L9.00037 5.71124C9.01672 4.917 9.5338 4.34434 10.0558 4.01812C10.3374 3.84211 10.6579 3.70957 11 3.62261V2Z" fill="black"/>
<path d="M9.49997 19V21H7.49997V13H9.49997V17H17V21H15V19H9.49997Z" fill="black"/>
<path d="M9.99997 15.5C9.99997 14.9477 10.4477 14.5 11 14.5H15C15.5523 14.5 16 14.9477 16 15.5C16 16.0523 15.5523 16.5 15 16.5H11C10.4477 16.5 9.99997 16.0523 9.99997 15.5Z" fill="black"/>
</svg>
