<svg width="24" height="24" viewBox="0 0 24 24" fill="none" xmlns="http://www.w3.org/2000/svg">
<path d="M11.636 1.8335L9.90396 2.8335L10.6161 4.06689L10.3041 4.24701C9.82578 4.52315 9.66191 5.13475 9.93805 5.61304L10.7988 7.10387C7.52531 7.67613 5 10.5436 5 13.9999C5 16.5424 6.34795 18.7737 8.36803 19.9999H5V21.9999H19V19.9999H15.3832C15.8727 19.6981 16.3216 19.3403 16.7212 18.9441C17.3026 18.3676 17.7018 17.6811 18.0018 16.9999H20V14.9999H13V16.9999H15.7397C15.6117 17.1923 15.471 17.3673 15.3131 17.5238C14.4015 18.4276 13.214 18.9999 11.9507 18.9999C9.22427 18.9999 7 16.7692 7 13.9999C7 11.2771 9.20475 9.05796 11.8941 9.00107L14.3908 13.3254L15.6104 12.6213L16.3412 13.8871L18.0732 12.8871L17.3424 11.6213L18.7109 10.8313L14.2581 3.11886C13.982 2.64057 13.3704 2.47669 12.8921 2.75283L12.3481 3.06689L11.636 1.8335Z" fill="black"/>
</svg>
