<svg width="24" height="24" viewBox="0 0 24 24" fill="none" xmlns="http://www.w3.org/2000/svg">
<path fill-rule="evenodd" clip-rule="evenodd" d="M15 16C13.8556 16 13.0679 15.4734 12.5913 14.7674C12.1423 14.1022 12 13.328 12 12.8V11.2C12 10.672 12.1423 9.89776 12.5913 9.23256C13.0679 8.52656 13.8556 8 15 8C16.1444 8 16.9321 8.52656 17.4087 9.23256C17.8577 9.89776 18 10.672 18 11.2V12.8C18 13.328 17.8577 14.1022 17.4087 14.7674C16.9321 15.4734 16.1444 16 15 16ZM13.5 12.8C13.5 13.072 13.5827 13.4978 13.8087 13.8326C14.0071 14.1266 14.3444 14.4 15 14.4C15.6556 14.4 15.9929 14.1266 16.1913 13.8326C16.4173 13.4978 16.5 13.072 16.5 12.8V11.2C16.5 10.928 16.4173 10.5022 16.1913 10.1674C15.9929 9.87344 15.6556 9.6 15 9.6C14.3444 9.6 14.0071 9.87344 13.8087 10.1674C13.5827 10.5022 13.5 10.928 13.5 11.2V12.8Z" fill="black"/>
<path d="M20.25 13.75C20.25 13.6278 20.2141 13.5421 20.1854 13.5H19.8146C19.8004 13.5208 19.7816 13.5561 19.7676 13.6088C19.6615 14.0092 19.2509 14.2478 18.8505 14.1416C18.4501 14.0355 18.2116 13.6249 18.3177 13.2245C18.4703 12.649 18.956 12 19.75 12H20.25C20.7461 12 21.1381 12.2699 21.3803 12.5929C21.6224 12.9157 21.75 13.3273 21.75 13.75C21.75 14.1964 21.6074 14.6332 21.3352 14.9646L20.5315 16H21C21.4142 16 21.75 16.3358 21.75 16.75C21.75 17.1642 21.4142 17.5 21 17.5H19C18.7137 17.5 18.4523 17.337 18.3264 17.0798C18.2005 16.8227 18.232 16.5163 18.4075 16.2901L20.1575 14.0355C20.1633 14.0281 20.1691 14.0208 20.1751 14.0137C20.203 13.9804 20.25 13.8903 20.25 13.75Z" fill="black"/>
<path d="M8 4H7V6.17071C8.16519 6.58254 9 7.69378 9 9H3C3 7.69378 3.83481 6.58254 5 6.17071L5 4H4V2H8V4Z" fill="black"/>
<path d="M9 20.95V11H3V20.95C3 21.5299 3.4701 22 4.05 22H7.95C8.52991 22 9 21.5299 9 20.95Z" fill="black"/>
</svg>
