<svg width="24" height="24" viewBox="0 0 24 24" fill="none" xmlns="http://www.w3.org/2000/svg">
<path d="M5 3C3.89543 3 3 3.89543 3 5V10C3 12.3637 4.74893 14.2266 7 14.8094V16C7 16.3708 7.20181 16.6945 7.50158 16.8671C7.56363 19.1602 9.44196 21 11.75 21C14.0972 21 16 19.0972 16 16.75V16C16 15.1716 16.6716 14.5 17.5 14.5C18.073 14.5 18.571 14.8213 18.8236 15.2935C18.0359 15.7144 17.5 16.5446 17.5 17.5C17.5 18.8807 18.6193 20 20 20C21.3807 20 22.5 18.8807 22.5 17.5C22.5 16.4367 21.8361 15.5284 20.9003 15.167C20.5265 13.6362 19.146 12.5 17.5 12.5C15.567 12.5 14 14.067 14 16V16.75C14 17.9926 12.9926 19 11.75 19C10.5458 19 9.56251 18.054 9.50287 16.8646C9.80019 16.6912 10 16.369 10 16V14.8094C12.2511 14.2266 14 12.3637 14 10V5C14 3.89543 13.1046 3 12 3H11C10.4477 3 10 3.44772 10 4C10 4.55228 10.4477 5 11 5H12V10C12 11.5494 10.547 13 8.5 13C6.45302 13 5 11.5494 5 10V5H6C6.55228 5 7 4.55228 7 4C7 3.44772 6.55228 3 6 3H5Z" fill="black"/>
<path fill-rule="evenodd" clip-rule="evenodd" d="M9.33022 12.9168C9.38749 12.905 9.44408 12.8921 9.49997 12.8779C9.97645 12.7575 10.4019 12.5532 10.7609 12.2897C11.5351 11.7211 12 10.8764 12 10V5H11C10.4477 5 10 4.55228 10 4C10 3.44772 10.4477 3 11 3H12C13.1046 3 14 3.89543 14 5V10C14 10.9 13.7465 11.7274 13.3082 12.4391C13.1698 12.6639 13.0129 12.8772 12.8398 13.0775C12.1215 13.909 11.1233 14.5186 10 14.8094C9.6762 14.8931 9.34168 14.9508 9 14.9793M14.4697 14.2474C14.171 14.7628 14 15.3614 14 16V16.75C14 17.9926 12.9926 19 11.75 19C11.6737 19 11.5982 18.9962 11.5238 18.9888C10.4247 18.879 9.55822 17.978 9.50283 16.8646C9.50283 16.8645 9.50283 16.8646 9.50283 16.8646C9.50198 16.8475 9.50132 16.8302 9.50085 16.813L9.47055 15.6932L9 15.4222M14.4697 14.2474C14.5984 14.0253 14.7509 13.8187 14.9236 13.631C15.5632 12.9357 16.4807 12.5 17.5 12.5C17.5816 12.5 17.6624 12.5028 17.7426 12.5083C18.9789 12.593 20.0362 13.3202 20.5871 14.3503L20.6126 14.398C20.7371 14.6393 20.8344 14.897 20.9003 15.167C20.9547 15.188 21.0081 15.2109 21.0606 15.2355L21.5308 16.1146L19.9666 16.9504L19.2051 16.6564L18.9573 15.6413C18.9308 15.5328 18.8925 15.429 18.8437 15.3312C18.8437 15.3312 18.8437 15.3312 18.8437 15.3312C18.8373 15.3185 18.8308 15.3058 18.8241 15.2933C18.8177 15.2814 18.8112 15.2696 18.8046 15.258L18.8241 15.2933C18.7102 15.0803 18.5459 14.8984 18.3478 14.7624C18.1066 14.5969 17.8146 14.5 17.5 14.5C16.6716 14.5 16 15.1716 16 16V16.75C16 17.0059 15.9774 17.2565 15.934 17.5C15.8705 17.8569 15.7624 18.1983 15.6157 18.5184C14.9447 19.9828 13.4662 21 11.75 21C10.6289 21 9.60926 20.5659 8.84984 19.8567C8.06836 19.1267 7.56256 18.1051 7.50538 16.9647L7.50445 16.9463C7.50326 16.92 7.5023 16.8936 7.50158 16.8671C7.50121 16.8669 7.50083 16.8667 7.50045 16.8665L7.44443 15.7494L8 15.4256V14.9793C7.65832 14.9508 7.3238 14.8936 7 14.8099C4.74893 14.2271 3 12.3637 3 10V5C3 3.89543 3.89543 3 5 3H6C6.55228 3 7 3.44772 7 4C7 4.55228 6.55228 5 6 5H5V10C5 10.8764 5.46486 11.7211 6.23913 12.2897C6.59809 12.5532 7.02355 12.7575 7.50003 12.8779C7.55592 12.8921 7.61251 12.905 7.66978 12.9168C7.93302 12.971 8.21058 13 8.5 13C8.78942 13 9.06698 12.971 9.33022 12.9168M17.7344 18.5583C17.8374 18.217 17.912 17.8633 17.9555 17.5C17.9849 17.2541 18 17.0038 18 16.75V16C18 16.1915 17.8924 16.3578 17.7344 16.4418C17.6879 16.5411 17.6477 16.6441 17.6145 16.75C17.5401 16.9868 17.5 17.2387 17.5 17.5C17.5 17.8783 17.584 18.2369 17.7344 18.5583ZM19.9666 16.9504L19.7661 17.0575C19.6034 17.1444 19.5 17.3117 19.5 17.5C19.5 17.7761 19.7239 18 20 18C20.2761 18 20.5 17.7761 20.5 17.5C20.5 17.2905 20.3704 17.1063 20.1798 17.0327L19.9666 16.9504Z" fill="black"/>
</svg>
