<svg width="24" height="24" viewBox="0 0 24 24" fill="none" xmlns="http://www.w3.org/2000/svg">
<path d="M11.25 19.7254V22H12.75V19.7284C14.0219 19.6513 14.8547 19.3746 15.4467 18.9986C15.4643 18.9995 15.4821 19 15.5 19C16.0523 19 16.5 18.5523 16.5 18C16.5 17.4477 16.0523 17 15.5 17C15.0147 17 14.6101 17.3458 14.5191 17.8044C14.1742 17.9911 13.6369 18.1631 12.75 18.2254V13.7284C14.0219 13.6513 14.8547 13.3746 15.4467 12.9986C15.4643 12.9995 15.4821 13 15.5 13C16.0523 13 16.5 12.5523 16.5 12C16.5 11.4477 16.0523 11 15.5 11C15.0147 11 14.6101 11.3458 14.5191 11.8044C14.1742 11.9911 13.6369 12.1631 12.75 12.2254V7.72836C14.0219 7.65129 14.8547 7.37457 15.4467 6.9986C15.4643 6.99953 15.4821 7 15.5 7C16.0523 7 16.5 6.55228 16.5 6C16.5 5.44772 16.0523 5 15.5 5C15.0147 5 14.6101 5.34577 14.5191 5.80441C14.1742 5.99109 13.6369 6.16314 12.75 6.22538V2H11.25V6.22116C10.7218 6.17735 10.3351 6.08765 10.0309 5.98026C9.81749 5.90495 9.63505 5.81802 9.46008 5.71936C9.33878 5.30368 8.95486 5 8.5 5C7.94772 5 7.5 5.44772 7.5 6C7.5 6.55228 7.94772 7 8.5 7C8.55327 7 8.60556 6.99584 8.65657 6.98781C8.90654 7.13268 9.19217 7.27493 9.53163 7.39474C10.0029 7.56107 10.5558 7.67743 11.25 7.72545V12.2212C10.7218 12.1773 10.3351 12.0876 10.0309 11.9803C9.81749 11.9049 9.63505 11.818 9.46008 11.7194C9.33878 11.3037 8.95486 11 8.5 11C7.94772 11 7.5 11.4477 7.5 12C7.5 12.5523 7.94772 13 8.5 13C8.55327 13 8.60556 12.9958 8.65657 12.9878C8.90654 13.1327 9.19217 13.2749 9.53163 13.3947C10.0029 13.5611 10.5558 13.6774 11.25 13.7254V18.2212C10.7218 18.1773 10.3351 18.0876 10.0309 17.9803C9.81749 17.9049 9.63505 17.818 9.46008 17.7194C9.33878 17.3037 8.95486 17 8.5 17C7.94772 17 7.5 17.4477 7.5 18C7.5 18.5523 7.94772 19 8.5 19C8.55327 19 8.60555 18.9958 8.65657 18.9878C8.90653 19.1327 9.19217 19.2749 9.53163 19.3947C10.0029 19.5611 10.5558 19.6774 11.25 19.7254Z" fill="black"/>
</svg>
