<svg width="24" height="24" viewBox="0 0 24 24" fill="none" xmlns="http://www.w3.org/2000/svg">
<path d="M6.70711 3.70711C7.09763 3.31658 7.09763 2.68342 6.70711 2.29289C6.31658 1.90237 5.68342 1.90237 5.29289 2.29289L4.2931 3.29269L3.2931 4.29269L2.29289 5.29289C1.90237 5.68342 1.90237 6.31658 2.29289 6.70711C2.68342 7.09763 3.31658 7.09763 3.70711 6.70711L4 6.41421L6.58575 8.99997L4.29289 11.2929L5.70711 12.7071L7.00006 11.4142L14.0858 18.4999C14.8669 19.281 16.1332 19.281 16.9142 18.4999L17.1767 18.2374L19.4697 20.5303L20.5303 19.4697L18.2374 17.1767L18.5 16.9141C19.2811 16.1331 19.2811 14.8667 18.5 14.0857L17.7375 13.3232L16.5303 14.5303C16.2374 14.8232 15.7626 14.8232 15.4697 14.5303C15.1768 14.2374 15.1768 13.7626 15.4697 13.4697L16.6768 12.2625L14.7375 10.3232L13.5303 11.5303C13.2374 11.8232 12.7626 11.8232 12.4697 11.5303C12.1768 11.2374 12.1768 10.7626 12.4697 10.4697L13.6768 9.2625L11.4143 6.99994L12.7071 5.70711L11.2929 4.29289L8.99997 6.58575L6.41421 4L6.70711 3.70711Z" fill="black"/>
</svg>
