<svg width="24" height="24" viewBox="0 0 24 24" fill="none" xmlns="http://www.w3.org/2000/svg">
<path d="M4.66151 6.13527C4.36063 5.67214 4.49225 5.05292 4.95549 4.75221L8.94654 2.16138C9.40978 1.86067 10.0292 1.99233 10.3301 2.45546L11.4522 4.18274L5.7843 7.86354L4.66151 6.13527Z" fill="black"/>
<path fill-rule="evenodd" clip-rule="evenodd" d="M6.60147 9.1214L12.2694 5.4406L14.995 9.636C15.3064 10.1153 15.5114 10.6557 15.5962 11.2208L16.2472 15.5562C16.3313 16.1164 16.5336 16.6524 16.8404 17.1285L17.7737 18.5652L16.3566 19.4852L15.4233 18.0486C15.1129 17.5747 14.7053 17.172 14.2275 16.8673L10.5302 14.5095C10.0483 14.2021 9.63778 13.7951 9.32641 13.3158L6.60147 9.1214ZM9.77743 9.58324L11.9564 12.9376L13.6339 11.8486L11.4549 8.49419L9.77743 9.58324Z" fill="black"/>
<path d="M16.8645 20.3571L17.6232 21.5251C17.879 21.9188 18.4055 22.0307 18.7992 21.775C19.193 21.5194 19.3048 20.9931 19.0491 20.5994L18.2904 19.4314L16.8645 20.3571Z" fill="black"/>
</svg>
