<svg width="24" height="24" viewBox="0 0 24 24" fill="none" xmlns="http://www.w3.org/2000/svg">
<path fill-rule="evenodd" clip-rule="evenodd" d="M5 20.9768V18.9884C5.01765 18.9884 5.03532 18.9879 5.05299 18.987L5.33915 19.2375C5.95414 19.776 6.83082 20.1995 7.47349 20.4719C7.80959 20.6143 8.11199 20.7277 8.3307 20.8058C8.44038 20.8449 8.52983 20.8754 8.59294 20.8964C8.62452 20.907 8.64956 20.9152 8.6673 20.9209L8.68837 20.9277L8.69464 20.9297L8.69668 20.9303L8.69797 20.9307L8.91781 21L9.14595 20.9665C9.3796 20.9323 9.57117 20.8354 9.68868 20.7675C9.82168 20.6907 9.94981 20.5975 10.0684 20.5006C10.3064 20.306 10.5596 20.0521 10.8078 19.7605C11.304 19.1774 11.8338 18.3802 12.2106 17.4644C12.2496 17.3696 12.2872 17.2729 12.3231 17.1746C12.3727 17.1669 12.4228 17.1602 12.4732 17.1546C12.9293 17.1042 13.2334 17.1694 13.4141 17.2993C13.4793 17.3461 13.5742 17.4691 13.6333 18.0669C13.6391 18.126 13.6451 18.1951 13.6515 18.2703C13.6697 18.4824 13.6922 18.7434 13.7283 18.966C13.7795 19.2804 13.8807 19.7047 14.1582 20.0773C14.7608 20.8864 15.7751 20.9472 16.4533 20.864C17.1954 20.7729 17.9754 20.4705 18.5855 20.0613C19.3011 19.5813 19.8128 18.7905 19.9837 17.9448C20.1597 17.0738 19.9825 16.0729 19.2073 15.3013C18.7225 14.8188 18.3308 14.3798 18.063 13.9705C17.7938 13.5592 17.6998 13.2529 17.6998 13.0222H15.6998C15.6998 13.7861 16.0057 14.473 16.3865 15.0551C16.7687 15.6392 17.277 16.1939 17.7924 16.7069C18.0174 16.9308 18.0902 17.2197 18.0229 17.553C17.9504 17.9116 17.7252 18.2395 17.4672 18.4125C17.1036 18.6564 16.6204 18.8396 16.2083 18.8902C15.923 18.9252 15.7975 18.8885 15.7565 18.872C15.7444 18.8406 15.723 18.7735 15.7027 18.6486C15.679 18.503 15.6672 18.3645 15.6522 18.1883C15.6444 18.0959 15.6355 17.9921 15.6237 17.8724C15.5693 17.3222 15.4524 16.3105 14.5858 15.6876C13.9879 15.2578 13.3087 15.1442 12.7256 15.1492C12.7321 14.8847 12.7196 14.6159 12.6845 14.3447C12.5358 13.1979 11.9898 12.0756 10.9053 11.1094L10.2382 10.515C10.5274 9.62452 10.732 8.60738 10.4806 7.3576C9.98294 4.88415 7.40857 2.49885 3.83546 3.09155L3 3.23013V20.9768H5ZM8.6673 20.9209L8.69797 20.9307C8.69797 20.9307 8.69464 20.9297 8.6673 20.9209ZM6.66086 17.7449L6.16924 17.3145C6.2783 17.0782 6.43677 16.8635 6.63792 16.647C6.84117 16.4282 7.07687 16.2199 7.35217 15.9832L7.4435 15.9049C7.68463 15.6982 7.95712 15.4646 8.20711 15.216C8.60211 14.8232 8.88396 14.4805 9.08472 14.0435C9.24359 13.6977 9.33689 13.3136 9.43365 12.9154C9.4461 12.8641 9.45864 12.8125 9.47135 12.7609C9.48898 12.6892 9.50733 12.6194 9.52637 12.5511L9.57065 12.5905C10.3055 13.2453 10.6149 13.9353 10.7009 14.5989C10.7899 15.2854 10.6471 16.0124 10.3595 16.7113C10.0726 17.4087 9.66084 18.0295 9.28104 18.4758C9.13212 18.6508 8.99634 18.7893 8.88471 18.8899C8.70917 18.8254 8.49217 18.7417 8.25762 18.6423C7.64399 18.3823 7.02067 18.06 6.66086 17.7449ZM8.25 10.5361C8.66421 10.5361 9 10.2022 9 9.79032C9 9.37844 8.66421 9.04454 8.25 9.04454C7.83579 9.04454 7.5 9.37844 7.5 9.79032C7.5 10.2022 7.83579 10.5361 8.25 10.5361Z" fill="black"/>
<path fill-rule="evenodd" clip-rule="evenodd" d="M13.5 10.0389V4.56988C13.5 4.16328 13.7489 3.79764 14.1286 3.64663L14.1315 3.64547L14.1363 3.64359L14.1512 3.63776C14.1635 3.633 14.1805 3.62649 14.2018 3.61849C14.2442 3.60252 14.304 3.58051 14.3781 3.55451C14.5258 3.50267 14.733 3.43399 14.9753 3.36516C15.4418 3.23262 16.1103 3.07829 16.75 3.07829C17.2987 3.07829 17.9757 3.23698 18.4382 3.36143C18.686 3.42814 18.9057 3.49452 19.0635 3.5442C19.1427 3.56913 19.2069 3.59006 19.2521 3.60502L19.3053 3.62277L19.3202 3.62786L19.3261 3.62987C19.7289 3.76847 20 4.14604 20 4.56988V10.0389C20.5523 10.0391 21.0002 10.4844 21 11.0336C20.9998 11.5827 20.552 12.0278 19.9997 12.0276H13.5003C12.948 12.0278 12.5002 11.5827 12.5 11.0336C12.4998 10.4844 12.9477 10.0391 13.5 10.0389ZM15.5 5.28445L15.5247 5.27738C15.9332 5.16132 16.3897 5.06704 16.75 5.06704C17.0063 5.06704 17.4543 5.15696 17.9156 5.28111C17.9442 5.28879 17.9723 5.29648 18 5.30414V10.0386H15.5V5.28445Z" fill="black"/>
<path d="M14.75 12.0277V13.022H18.75V12.0277H14.75Z" fill="black"/>
</svg>
