<svg width="24" height="24" viewBox="0 0 24 24" fill="none" xmlns="http://www.w3.org/2000/svg">
<path fill-rule="evenodd" clip-rule="evenodd" d="M5.05629 3H18.9436C20.07 3 20.9741 3.92965 20.9429 5.05553L20.554 19.0555C20.5239 20.1381 19.6377 21 18.5547 21H5.44518C4.36224 21 3.47602 20.1381 3.44595 19.0555L3.05706 5.05553C3.02579 3.92965 3.92997 3 5.05629 3ZM7.20994 5L7.71139 10.0145C8.76516 9.75685 9.85444 9.59209 10.9697 9.52905L11.7724 6.3181C11.8729 5.91625 12.2801 5.67193 12.6819 5.77239C13.0837 5.87285 13.3281 6.28006 13.2276 6.6819L12.5212 9.50742C13.8143 9.54427 15.075 9.71778 16.2885 10.0145L16.79 5H7.20994Z" fill="black"/>
</svg>
