<svg width="24" height="24" viewBox="0 0 24 24" fill="none" xmlns="http://www.w3.org/2000/svg">
<path d="M15.7998 4.44995C15.7998 5.55452 14.9044 6.44995 13.7998 6.44995C12.6952 6.44995 11.7998 5.55452 11.7998 4.44995C11.7998 3.34538 12.6952 2.44995 13.7998 2.44995C14.9044 2.44995 15.7998 3.34538 15.7998 4.44995Z" fill="black"/>
<path fill-rule="evenodd" clip-rule="evenodd" d="M8.29982 8.6353L6.50693 6.84241L5.09271 8.25662L6.29982 9.46373V12.7077C5.19993 13.6248 4.5 15.0055 4.5 16.5496C4.5 19.311 6.73858 21.5496 9.5 21.5496C12.0832 21.5496 14.2089 19.5906 14.4725 17.0771C14.9437 17.0734 15.3475 17.0744 15.6663 17.0771L15.8049 17.0785L17.0649 20.4038C17.2606 20.9203 17.8379 21.1803 18.3543 20.9846C18.8708 20.7889 19.1308 20.2116 18.9351 19.6952L17.3097 15.4053L13.6156 13.2509L12.9998 12.6351L12.9998 12.608L13.0016 12.5928C13.0072 12.5438 13.0151 12.4733 13.0244 12.3847C13.043 12.2078 13.0673 11.9582 13.0906 11.6644C13.0945 11.6148 13.0985 11.5638 13.1023 11.5115C13.3658 11.7211 13.6451 11.9391 13.8943 12.1098C14.0281 12.2014 14.1765 12.2957 14.3254 12.3706C14.4144 12.4153 14.5876 12.4982 14.8034 12.5332L18.225 13.5109C18.7561 13.6626 19.3096 13.3551 19.4613 12.8241C19.613 12.2931 19.3056 11.7396 18.7745 11.5878L15.6108 10.6838C15.5526 10.603 15.4837 10.5077 15.406 10.4012C15.1564 10.0591 14.8146 9.59841 14.4481 9.12778C14.0839 8.66024 13.6846 8.16884 13.3217 7.77181C13.1411 7.57422 12.9563 7.38529 12.7798 7.23022C12.7088 7.16776 12.6155 7.08909 12.5056 7.0131C12.3474 6.77924 12.1119 6.54323 11.762 6.42733C11.1953 6.23957 10.72 6.4858 10.4609 6.6851C10.1996 6.88622 9.99103 7.15697 9.82924 7.40568C9.65955 7.6665 9.50113 7.96627 9.35631 8.27859C8.91284 9.23504 8.51467 10.4913 8.29982 11.5503V8.6353ZM12.5 16.5496C12.5 18.2064 11.1569 19.5496 9.5 19.5496C7.84315 19.5496 6.5 18.2064 6.5 16.5496C6.5 14.8927 7.84315 13.5496 9.5 13.5496C11.1569 13.5496 12.5 14.8927 12.5 16.5496ZM15.2457 10.5935C15.2457 10.5935 15.2405 10.5919 15.2289 10.5862C15.2397 10.5903 15.2457 10.5935 15.2457 10.5935Z" fill="black"/>
</svg>
