<svg width="24" height="24" viewBox="0 0 24 24" fill="none" xmlns="http://www.w3.org/2000/svg">
<path d="M3 5H5.5202L6.71893 10.7539C5.09212 11.7092 4 13.4771 4 15.5C4 18.5376 6.46243 21 9.5 21C12.5376 21 15 18.5376 15 15.5C15 14.98 14.9278 14.4768 14.793 14H16.9333V19.5C16.9333 20.3284 17.6049 21 18.4333 21H19C19.5523 21 20 20.5523 20 20C20 19.4477 19.5523 19 19 19H18.9333V14C18.9333 12.8954 18.0379 12 16.9333 12H13.7428C12.734 10.7785 11.2079 10 9.5 10C9.20027 10 8.90613 10.024 8.61941 10.0701L8.39647 9H16C16.5523 9 17 8.55228 17 8C17 7.44772 16.5523 7 16 7H8V7.09694L7.14647 3H3V5Z" fill="black"/>
</svg>
