<svg width="24" height="24" viewBox="0 0 24 24" fill="none" xmlns="http://www.w3.org/2000/svg">
<path d="M14 4C14 5.10457 13.1046 6 12 6C10.8954 6 10 5.10457 10 4C10 2.89543 10.8954 2 12 2C13.1046 2 14 2.89543 14 4Z" fill="black"/>
<path d="M9 17V22H11V17H9Z" fill="black"/>
<path d="M13 17V22H15V17H13Z" fill="black"/>
<path fill-rule="evenodd" clip-rule="evenodd" d="M5 8C5 7.44772 5.44772 7 6 7H18C18.5523 7 19 7.44772 19 8V15C19 15.5523 18.5523 16 18 16H6C5.44772 16 5 15.5523 5 15V8ZM13.6646 11.1708C14.0351 11.3561 14.4856 11.2059 14.6708 10.8354C14.8561 10.4649 14.7059 10.0144 14.3354 9.82918C13.8858 9.6044 13.3227 9.47264 12.75 9.41321V8H11.25V9.41321C10.6773 9.47264 10.1141 9.6044 9.66458 9.82918C9.29409 10.0144 9.14393 10.4649 9.32917 10.8354C9.51441 11.2059 9.96491 11.3561 10.3354 11.1708C10.5539 11.0616 10.8738 10.9743 11.25 10.9236V12.0529C10.4872 12.1612 9.74463 12.4355 9.08398 12.8759C8.73933 13.1057 8.64618 13.5713 8.87594 13.916C9.1057 14.2606 9.57135 14.3538 9.916 14.124C10.3251 13.8513 10.7797 13.668 11.25 13.574L11.25 15H12.75V13.574C13.2203 13.668 13.6749 13.8513 14.084 14.124C14.4286 14.3538 14.8943 14.2606 15.124 13.916C15.3538 13.5713 15.2607 13.1057 14.916 12.8759C14.2553 12.4355 13.5127 12.1612 12.75 12.0529V10.9236C13.1262 10.9743 13.446 11.0616 13.6646 11.1708Z" fill="black"/>
</svg>
