<svg width="48" height="48" viewBox="0 0 48 48" fill="none" xmlns="http://www.w3.org/2000/svg">
<path fill-rule="evenodd" clip-rule="evenodd" d="M24.7532 16.3572C25.7828 15.1768 27.2511 14.1805 28.8177 13.7412C30.3652 13.3072 31.968 13.4224 33.3959 14.3812L33.3985 14.383C34.9586 15.4234 35.9282 17.2002 35.9947 19.0482C36.0868 21.547 34.963 23.8883 33.1565 26.1114C32.7823 26.0383 32.3956 26 32 26C28.6863 26 26 28.6863 26 32C26 32.2146 26.0113 32.4266 26.0333 32.6355C25.7807 32.8328 25.5297 33.0281 25.2811 33.2216C24.8468 33.5597 24.4198 33.892 24.0045 34.2193C23.5142 33.8277 23.0076 33.4304 22.4921 33.0261C20.3868 31.3749 18.1319 29.6062 16.2174 27.6296C13.6367 24.9652 11.8992 22.1373 12.0046 19.0465C12.0715 17.1988 13.0415 15.4229 14.6013 14.3827C16.0299 13.4286 17.6341 13.3134 19.1824 13.7462C20.7493 14.1842 22.2171 15.1776 23.246 16.3572L23.9996 17.2212L24.7532 16.3572ZM18.5 18.5C17.9477 18.5 17.5 18.9477 17.5 19.5C17.5 20.0523 17.9477 20.5 18.5 20.5C18.6611 20.5 18.8708 20.5526 19.0482 20.7438C19.2281 20.9377 19.5 21.4097 19.5 22.5C19.5 23.7203 19.8937 24.6651 20.668 25.2663C21.3929 25.8291 22.2831 25.9545 23 25.9545V29.5C23 30.0523 23.4477 30.5 24 30.5C24.5523 30.5 25 30.0523 25 29.5V25.9545C25.7169 25.9545 26.6071 25.8291 27.332 25.2663C28.1063 24.6651 28.5 23.7203 28.5 22.5C28.5 21.4097 28.7719 20.9377 28.9518 20.7438C29.1292 20.5526 29.3389 20.5 29.5 20.5C30.0523 20.5 30.5 20.0523 30.5 19.5C30.5 18.9477 30.0523 18.5 29.5 18.5C28.9111 18.5 28.1208 18.6989 27.4857 19.3835C26.8531 20.0653 26.5 21.0933 26.5 22.5C26.5 23.2773 26.2687 23.5598 26.1055 23.6865C25.8929 23.8516 25.5331 23.9545 25 23.9545V19.5C25 18.9477 24.5523 18.5 24 18.5C23.4477 18.5 23 18.9477 23 19.5V23.9545C22.4669 23.9545 22.1071 23.8516 21.8945 23.6865C21.7313 23.5598 21.5 23.2773 21.5 22.5C21.5 21.0933 21.1469 20.0653 20.5143 19.3835C19.8792 18.6989 19.0889 18.5 18.5 18.5Z" fill="black"/>
<path fill-rule="evenodd" clip-rule="evenodd" d="M32 36C34.2091 36 36 34.2091 36 32C36 29.7909 34.2091 28 32 28C29.7909 28 28 29.7909 28 32C28 34.2091 29.7909 36 32 36ZM31 33V34.5H33V33H34.5V31H33V29.5H31V31H29.5V33H31Z" fill="black"/>
<path fill-rule="evenodd" clip-rule="evenodd" d="M39 6H9C7.34315 6 6 7.34315 6 9V39C6 40.6569 7.34315 42 9 42H39C40.6569 42 42 40.6569 42 39V9C42 7.34315 40.6569 6 39 6ZM37.9934 18.9754C38.1017 21.9211 36.8752 24.5512 35.1075 26.8664C36.8414 27.9182 38 29.8238 38 32C38 35.3137 35.3137 38 32 38C29.6573 38 27.6281 36.6573 26.6401 34.6995L26.4349 34.8592C25.7982 35.3546 25.1888 35.8287 24.6254 36.2803L23.995 36.7856L23.3685 36.2753C22.7451 35.7676 22.0633 35.2329 21.349 34.6728C19.2186 33.0023 16.7993 31.1052 14.7808 29.021C12.0801 26.2327 9.87179 22.8946 10.0058 18.9772L10.0059 18.9754C10.0952 16.4961 11.387 14.1226 13.4911 12.7191C15.4928 11.3825 17.7218 11.2612 19.7208 11.82C20.4747 12.0307 21.2015 12.339 21.882 12.7195C22.6574 13.1531 23.3727 13.6805 23.9995 14.2645C24.6249 13.6813 25.3386 13.1538 26.1125 12.7196C26.794 12.3373 27.5222 12.0273 28.2777 11.8155C30.2772 11.2547 32.5072 11.376 34.5095 12.72C36.6131 14.1235 37.9041 16.4964 37.9934 18.9754Z" fill="black"/>
</svg>
