<svg width="48" height="48" viewBox="0 0 48 48" fill="none" xmlns="http://www.w3.org/2000/svg">
<path fill-rule="evenodd" clip-rule="evenodd" d="M9.5 6C7.84315 6 6.5 7.34315 6.5 9V39C6.5 40.6569 7.84315 42 9.5 42H39.5C41.1569 42 42.5 40.6569 42.5 39V9C42.5 7.34315 41.1569 6 39.5 6H9.5ZM23.2724 10.3207C24.256 10.3207 25.1975 10.3283 25.8947 10.5247C26.2304 10.6192 26.4139 10.7337 26.5074 10.8305C26.5755 10.901 26.6443 11.0075 26.6443 11.2522C26.6443 11.8045 27.092 12.2522 27.6443 12.2522C28.1966 12.2522 28.6443 11.8045 28.6443 11.2522C28.6443 10.5311 28.4024 9.91333 27.9456 9.44064C27.5141 8.99418 26.9583 8.74646 26.4369 8.59959C25.4452 8.32025 24.2374 8.3205 23.3407 8.32069L23.2724 8.3207C21.729 8.3207 20.5244 8.72858 19.6374 9.48993C18.761 10.2422 18.3053 11.2451 18.0691 12.2302C17.834 13.2106 17.8002 14.2396 17.8169 15.1293C17.8193 15.2552 17.8227 15.3795 17.8268 15.5015H14.9563C14.4041 15.5015 13.9479 15.9526 14.039 16.4973C14.6359 20.0656 18.3975 22.8715 23.0889 23.196V30H25.0889V23.1825C26.3068 23.0816 27.4594 22.8131 28.5072 22.4077C28.7354 22.6995 28.8301 23.0507 28.8301 23.4889C28.8301 24.1641 28.6036 24.6562 28.0133 25.0366C27.5904 25.3091 26.9471 25.5446 25.9998 25.6815V27.6989C27.2864 27.5437 28.3155 27.2212 29.0967 26.7178C30.328 25.9243 30.8301 24.7566 30.8301 23.4889C30.8301 22.7764 30.6713 22.1016 30.314 21.5102C32.2728 20.2908 33.6234 18.516 33.9612 16.4973C34.0523 15.9526 33.5961 15.5015 33.0438 15.5015H19.828C19.8232 15.3666 19.8192 15.23 19.8166 15.0917C19.801 14.2623 19.8377 13.4317 20.014 12.6966C20.1891 11.9662 20.4855 11.3977 20.9401 11.0075C21.3841 10.6264 22.0892 10.3207 23.2724 10.3207ZM17.8193 37.4519H23.0889V34H25.0889V37.4519H25.9998V36.3227C26.2094 36.2302 26.3817 36.1111 26.5118 35.9646C26.6898 35.764 26.8631 35.4298 26.8631 34.8164C26.8631 34.2036 26.6897 33.8465 26.4969 33.6192C26.2904 33.3757 25.9898 33.1982 25.6217 33.0781C25.254 32.958 24.8686 32.912 24.5623 32.8991C24.4123 32.8927 24.2888 32.8947 24.2059 32.8979C24.1647 32.8995 24.134 32.9014 24.1157 32.9027L24.0979 32.9041L24.0966 32.9042L24.0508 32.9088L23.9043 32.9088C22.5206 32.909 20.9447 32.9093 19.7129 32.5494C19.0624 32.3594 18.4124 32.0445 17.9247 31.4949C17.419 30.925 17.1717 30.1979 17.1717 29.3543C17.1717 28.512 17.4195 27.786 17.9258 27.2174C18.4138 26.6693 19.0637 26.3557 19.7138 26.1664C20.3999 25.9666 21.1928 25.8782 21.9998 25.8391V27.8419C21.3387 27.8764 20.7557 27.9461 20.2729 28.0866C19.8299 28.2156 19.5691 28.3794 19.4195 28.5474C19.2882 28.6948 19.1717 28.9236 19.1717 29.3543C19.1717 29.788 19.2887 30.0188 19.4206 30.1674C19.5704 30.3362 19.8312 30.5004 20.2738 30.6296C21.1907 30.8975 22.4692 30.9086 23.9595 30.9088L23.9729 30.9079C24.0112 30.9051 24.0634 30.9019 24.1278 30.8994C24.2561 30.8944 24.4344 30.8919 24.6465 30.9008C25.0643 30.9184 25.6445 30.9817 26.2423 31.1768C26.8398 31.3718 27.5047 31.7153 28.0223 32.3257C28.5537 32.9524 28.8631 33.7822 28.8631 34.8164C28.8631 35.8498 28.5536 36.6771 28.0075 37.2923C27.9581 37.3479 27.9074 37.4011 27.8557 37.4519H30.1808V39.4519H17.8193V37.4519Z" fill="#333333"/>
</svg>
