<svg width="24" height="24" viewBox="0 0 24 24" fill="none" xmlns="http://www.w3.org/2000/svg">
<path fill-rule="evenodd" clip-rule="evenodd" d="M16 12.8293C14.8348 12.4175 14 11.3062 14 10V6C14 4.34315 15.3431 3 17 3C18.6569 3 20 4.34315 20 6V10C20 11.3062 19.1652 12.4175 18 12.8293L18 16.0832C18.0007 17.0328 18.0017 18.509 17.3091 19.7403C16.5193 21.1443 14.9959 22 12.5 22C10.0728 22 8.60701 21.3211 7.78854 20.3207C6.99973 19.3566 6.99994 18.3082 7 18.0076L7 18C7 17.9429 7.00478 17.887 7.01396 17.8326C5.25888 17.4234 4 16.3097 4 15V7C4 6.1348 4.4466 5.5129 4.82225 5.15764C5.19367 4.80639 5.6238 4.5822 5.98945 4.43594C6.73186 4.13898 7.62034 4 8.5 4C9.37966 4 10.2681 4.13898 11.0105 4.43594C11.3762 4.5822 11.8063 4.80639 12.1778 5.15764C12.5534 5.5129 13 6.1348 13 7V15C13 16.5442 11.2499 17.8159 8.99983 17.9817L9 18C9 18.2098 9.00706 18.6517 9.33646 19.0543C9.64299 19.4289 10.4272 20 12.5 20C14.5041 20 15.2307 19.3557 15.5659 18.7597C15.9778 18.0275 16 17.0551 16 16V12.8293ZM18 6C18 5.44772 17.5523 5 17 5C16.4477 5 16 5.44772 16 6V10C16 10.5523 16.4477 11 17 11C17.5523 11 18 10.5523 18 10V6ZM10.5726 6.54278C10.1298 6.24759 9.40286 6 8.5 6C7.59714 6 6.87021 6.24759 6.42742 6.54278C6.21017 6.68761 6.09538 6.82023 6.04242 6.90371C6.01701 6.94376 6.00708 6.97021 6.00338 6.98226C6 6.99328 6 6.99786 6 7C6 7.43725 6.70158 7.80896 7.67903 7.94483C7.93618 7.98058 8.21242 8 8.5 8C8.78758 8 9.06382 7.98058 9.32097 7.94483C10.2984 7.80896 11 7.43725 11 7C11 6.99786 11 6.99328 10.9966 6.98226C10.9929 6.97021 10.983 6.94376 10.9576 6.90371C10.9046 6.82023 10.7898 6.68761 10.5726 6.54278ZM11 15V9.56826C10.4007 9.80634 9.70701 9.94191 9 9.9849V15.974C9.67162 15.9031 10.2148 15.6957 10.5726 15.4572C10.7898 15.3124 10.9046 15.1798 10.9576 15.0963C10.983 15.0562 10.9929 15.0298 10.9966 15.0177C11 15.0067 11 15.0021 11 15Z" fill="black"/>
</svg>
