<svg width="24" height="24" viewBox="0 0 24 24" fill="none" xmlns="http://www.w3.org/2000/svg">
<path fill-rule="evenodd" clip-rule="evenodd" d="M12.4996 2C10.8419 2 9.14722 2.59337 8.08672 3.07289C7.44267 3.36411 7.16407 3.99774 7.25084 4.58524C7.26286 5.19288 7.40338 5.79099 7.66272 6.34752C7.93402 6.92972 8.32881 7.45261 8.81974 7.88898C9.3105 8.32522 9.88848 8.66726 10.5188 8.89933C10.8931 9.03716 11.2825 9.13497 11.6791 9.19168C10.55 9.50295 9.4836 10.1023 8.59621 10.9897L3.29291 16.293L4.70712 17.7072L10.0104 12.4039C11.2815 11.1329 13.0665 10.6892 14.6964 11.0729C14.4856 11.065 14.2731 11.0755 14.0615 11.1031C13.5593 11.1686 13.0648 11.33 12.603 11.5686C12.141 11.8074 11.7133 12.1225 11.341 12.4948C10.9687 12.8671 10.6536 13.2948 10.4148 13.7568C10.1762 14.2186 10.0148 14.7131 9.94926 15.2153C9.88372 15.7178 9.91482 16.2251 10.0584 16.7037C10.1535 17.0209 10.2963 17.3187 10.4845 17.5867L7.53555 20.5356L8.94976 21.9498L19.2028 11.6968L18.4957 10.9897C17.3106 9.8046 15.8064 9.13327 14.2597 8.97567C14.334 8.95176 14.4079 8.92631 14.4812 8.89933C15.1115 8.66726 15.6895 8.32521 16.1802 7.88898C16.6712 7.4526 17.066 6.92972 17.3373 6.34752C17.5974 5.78933 17.738 5.18933 17.7493 4.57983C17.8332 3.99406 17.5543 3.3638 16.9127 3.07355C15.8523 2.59386 14.1575 2 12.4996 2ZM12.4996 4.75C11.774 4.75 10.9985 4.59203 10.2891 4.37486C10.9985 4.15785 11.774 4 12.4996 4C13.2252 4 14.0007 4.15797 14.7101 4.37514C14.0007 4.59215 13.2252 4.75 12.4996 4.75ZM15.7322 6.14561C14.7797 6.47358 13.6311 6.75 12.4996 6.75C11.3684 6.75 10.22 6.47353 9.26773 6.1455C9.41971 6.36935 9.60338 6.57863 9.81628 6.76787C10.1613 7.07451 10.5754 7.32174 11.0371 7.49171C11.4987 7.66169 11.9961 7.75 12.5 7.75C13.0039 7.75 13.5013 7.66169 13.9629 7.49171C14.4246 7.32174 14.8387 7.07451 15.1837 6.76787C15.3966 6.57866 15.5802 6.36942 15.7322 6.14561ZM11.9669 16.1043L14.9505 13.1207C14.7738 13.0717 14.5615 13.0548 14.3202 13.0863C14.0673 13.1193 13.7947 13.2041 13.5212 13.3454C13.2479 13.4866 12.9864 13.6778 12.7552 13.909C12.524 14.1403 12.3328 14.4017 12.1916 14.675C12.0503 14.9485 11.9654 15.2211 11.9325 15.474C11.901 15.7153 11.9179 15.9276 11.9669 16.1043Z" fill="black"/>
</svg>
