<svg width="24" height="24" viewBox="0 0 24 24" fill="none" xmlns="http://www.w3.org/2000/svg">
<path fill-rule="evenodd" clip-rule="evenodd" d="M16.8114 7.69332L16.8102 7.69041L16.8079 7.68522L16.8014 7.67041C16.7962 7.65861 16.7892 7.64295 16.7804 7.62372C16.7627 7.58525 16.7378 7.53236 16.7054 7.4671C16.6408 7.33673 16.5461 7.15609 16.4203 6.94189C16.1698 6.51547 15.7896 5.9452 15.2687 5.37135C14.2308 4.22789 12.5638 3 10.2185 3C8.13433 3 6.69737 3.68876 5.24839 4.805C4.31219 5.52622 3.53729 6.44925 3.01436 7.54107C2.54574 8.51951 2.28564 9.62094 2.28564 10.8115C2.28564 13.2151 3.44013 14.8324 4.56468 15.8201C5.12204 16.3096 5.67622 16.6499 6.0914 16.8687C6.11589 16.8816 6.13993 16.8941 6.1635 16.9062V21H8.1635V16.2607C8.1635 15.8376 7.89724 15.4605 7.49892 15.3187L7.48041 15.3117C7.46212 15.3046 7.43113 15.2923 7.38925 15.2744C7.30532 15.2386 7.17874 15.181 7.02378 15.0993C6.71185 14.935 6.29658 14.6793 5.88446 14.3174C5.07009 13.6021 4.28564 12.4949 4.28564 10.8115C4.28564 10.4599 4.31567 10.1219 4.37269 9.79824C5.451 10.6242 6.82766 11.3015 8.14334 11.8357C9.572 12.4158 11.0463 12.8724 12.2459 13.1858L11.8987 13.9188C11.2704 15.2457 12.2382 16.7748 13.7063 16.7748H14.0193V18.0771H11.5278C10.9755 18.0771 10.5278 18.5249 10.5278 19.0771V21H12.5278V20.0771H15.0193C15.5716 20.0771 16.0193 19.6294 16.0193 19.0771V16.7748H16.4132C17.6785 16.7748 18.6258 15.6146 18.3728 14.3749L18.3115 14.0746H19.2856V21H21.2856V13.0746C21.2856 12.5223 20.8379 12.0746 20.2856 12.0746H17.8756L16.8646 7.85398C16.8516 7.79929 16.8335 7.74503 16.8114 7.69332ZM10.2185 5C8.68885 5 7.66958 5.46445 6.46894 6.38939C5.94057 6.79642 5.48961 7.28143 5.13738 7.83182C5.95758 8.60013 7.3178 9.34194 8.89576 9.98265C10.3848 10.5873 11.9381 11.0516 13.1179 11.344L13.8147 9.87269C13.8211 9.85906 13.8279 9.84557 13.835 9.83224L14.7657 8.07665C14.7441 8.03812 14.7208 7.99741 14.6957 7.95478C14.4961 7.6149 14.1944 7.16344 13.7878 6.71556C12.9709 5.81557 11.8011 5 10.2185 5ZM16.4132 14.7748L16.1104 13.2911L15.5388 10.9048L13.7063 14.7748H16.4132Z" fill="black"/>
</svg>
