<svg width="24" height="24" viewBox="0 0 24 24" fill="none" xmlns="http://www.w3.org/2000/svg">
<path fill-rule="evenodd" clip-rule="evenodd" d="M12.0005 18.2338L11.0798 17.3661C9.22746 15.6272 7.70423 14.1971 6.64214 12.8528C5.58212 11.511 5 10.2772 5 8.93344C5 6.74672 6.65708 5.03118 8.76923 5.03118C9.40504 5.03118 10.028 5.19449 10.5848 5.48462C11.0743 5.73973 11.5126 6.0929 11.8633 6.51931L12 6.75L12.1367 6.51931C12.4874 6.09289 12.9257 5.73971 13.4153 5.4846C13.972 5.19448 14.595 5.03118 15.2308 5.03118C17.3429 5.03118 19 6.74672 19 8.93344C19 10.2772 18.4179 11.5111 17.3578 12.8538C16.2994 14.1944 14.7832 15.6208 12.9395 17.3554L12.9207 17.3731L12.0005 18.2338ZM11.9953 21L14.2756 18.8672L14.3911 18.7585C16.159 17.0954 17.7665 15.5832 18.9182 14.1244C20.1159 12.6074 21 10.9317 21 8.93344C21 5.66191 18.4836 3 15.2308 3C14.0652 3 12.9461 3.63656 12 4.25C11.0539 3.63656 9.93477 3 8.76923 3C5.51645 3 3 5.6619 3 8.93344C3 10.9317 3.88414 12.6075 5.08219 14.1239C6.23832 15.5873 7.85386 17.1038 9.63036 18.7715L9.71937 18.855L11.9953 21Z" fill="black"/>
<path d="M13.0491 6.90295L9.34584 11.6072C9.24215 11.7389 9.33598 11.9322 9.50362 11.9322H11.6535L10.9474 15.4529L14.6506 10.7486C14.7543 10.6169 14.6605 10.4236 14.4928 10.4236H12.3429L13.0491 6.90295Z" fill="black"/>
</svg>
