<svg width="24" height="24" viewBox="0 0 24 24" fill="none" xmlns="http://www.w3.org/2000/svg">
<path d="M12 6.5C12 6.5 10 8.5 10 10C10 11 10.5 12 12 12C13.5 12 14 11 14 10C14 8.75515 12.6023 7.18658 12.1436 6.67184C12.0496 6.56633 11.995 6.5051 12 6.5Z" fill="black"/>
<path d="M12 17C11.4477 17 11 17.4477 11 18C11 18.5523 11.4477 19 12 19C12.5523 19 13 18.5523 13 18C13 17.4477 12.5523 17 12 17Z" fill="black"/>
<path fill-rule="evenodd" clip-rule="evenodd" d="M7 2C5.89543 2 5 2.89543 5 4V17C5 18.1046 5.89543 19 7 19H8V22H16V19H17C18.1046 19 19 18.1046 19 17V4C19 2.89543 18.1046 2 17 2H7ZM17 14V5H7V14H17ZM10 20H14V16H10V20Z" fill="black"/>
<path fill-rule="evenodd" clip-rule="evenodd" d="M17 14V5H7V14H17ZM12 12C12.4019 12 12.7321 11.9282 13 11.8038C13.5759 11.5366 13.8646 11.0264 13.9615 10.4645C13.9878 10.3122 14 10.1561 14 10C14 9.68024 13.9078 9.33913 13.7629 9C13.5705 8.5495 13.2853 8.10251 13 7.71376C12.664 7.25584 12.3279 6.87872 12.1436 6.67184C12.0496 6.56633 11.995 6.5051 12 6.5C12 6.5 11.5 7 11 7.6875C10.9977 7.69068 10.9954 7.69386 10.9931 7.69705C10.7079 8.09016 10.4235 8.54381 10.2326 9C10.0903 9.33992 10 9.68125 10 10C10 10.1644 10.0135 10.3288 10.0428 10.4887C10.1437 11.041 10.4323 11.5404 11 11.8038C11.2679 11.9282 11.5981 12 12 12ZM6 18.7324C5.69637 18.5568 5.4432 18.3036 5.26756 18C5.09739 17.7058 5 17.3643 5 17V4C5 2.89543 5.89543 2 7 2H17C18.1046 2 19 2.89543 19 4V17C19 17.3643 18.9026 17.7058 18.7324 18C18.5568 18.3036 18.3036 18.5568 18 18.7324C17.7058 18.9026 17.3643 19 17 19H16V22H8V19H7C6.63571 19 6.29417 18.9026 6 18.7324ZM14 20H10V16H14V20ZM12 17C11.4477 17 11 17.4477 11 18C11 18.5523 11.4477 19 12 19C12.5523 19 13 18.5523 13 18C13 17.4477 12.5523 17 12 17Z" fill="black"/>
</svg>
