<svg width="24" height="24" viewBox="0 0 24 24" fill="none" xmlns="http://www.w3.org/2000/svg">
<path d="M10.75 7C10.75 6.58579 10.4142 6.25 10 6.25C9.58579 6.25 9.25 6.58579 9.25 7L9.25 8.81434L8.40717 9.65717C8.11428 9.95006 8.11428 10.4249 8.40717 10.7178C8.70007 11.0107 9.17494 11.0107 9.46783 10.7178L10 10.1857L10.5322 10.7178C10.8251 11.0107 11.2999 11.0107 11.5928 10.7178C11.8857 10.4249 11.8857 9.95006 11.5928 9.65717L10.75 8.81434L10.75 7Z" fill="black"/>
<path d="M6.66901 7.90191C6.79848 7.65482 7.05438 7.5 7.33334 7.5H8C8.19892 7.5 8.38968 7.57902 8.53033 7.71967C8.67099 7.86032 8.75 8.05109 8.75 8.25V8.4772C8.75 8.89142 8.41422 9.2272 8 9.2272C7.89801 9.2272 7.80078 9.20684 7.71214 9.16997C7.19978 10.2558 6.95434 11.1708 6.81855 12.4635C6.84109 12.4588 6.86292 12.4537 6.88432 12.4478C6.98796 12.4197 7.10242 12.3705 7.25 12.2481V11.658C7.25 11.2438 7.58579 10.908 8 10.908C8.41422 10.908 8.75 11.2438 8.75 11.658V12.5668C8.75 12.7567 8.67799 12.9395 8.5485 13.0783C8.15149 13.5041 7.75192 13.7667 7.27696 13.8955C6.86712 14.0067 6.43898 14.0026 6.05202 13.999L5.99345 13.9984C5.78702 13.9966 5.59045 13.9098 5.45008 13.7584C5.3097 13.6071 5.23793 13.4045 5.25167 13.1985C5.39756 11.0107 5.72307 9.70723 6.66901 7.90191Z" fill="black"/>
<path d="M13.331 7.90191C13.2015 7.65482 12.9456 7.5 12.6667 7.5H12C11.8011 7.5 11.6103 7.57902 11.4697 7.71967C11.329 7.86032 11.25 8.05109 11.25 8.25V8.4772C11.25 8.89142 11.5858 9.2272 12 9.2272C12.102 9.2272 12.1992 9.20684 12.2879 9.16997C12.8002 10.2558 13.0457 11.1708 13.1814 12.4635C13.1589 12.4588 13.1371 12.4537 13.1157 12.4478C13.012 12.4197 12.8976 12.3705 12.75 12.2481V11.658C12.75 11.2438 12.4142 10.908 12 10.908C11.5858 10.908 11.25 11.2438 11.25 11.658V12.5668C11.25 12.7567 11.322 12.9395 11.4515 13.0783C11.8485 13.5041 12.2481 13.7667 12.723 13.8955C13.1329 14.0067 13.561 14.0026 13.948 13.999L14.0066 13.9984C14.213 13.9966 14.4095 13.9098 14.5499 13.7584C14.6903 13.6071 14.7621 13.4045 14.7483 13.1985C14.6024 11.0107 14.2769 9.70723 13.331 7.90191Z" fill="black"/>
<path fill-rule="evenodd" clip-rule="evenodd" d="M3 3C2.44772 3 2 3.44772 2 4V16C2 16.5523 2.44772 17 3 17H9V19H2V21H18V19H11V17H17C17.5523 17 18 16.5523 18 16H19.4508C19.8262 16 20.135 16 20.3735 15.9916C20.5913 15.9838 20.8641 15.9678 21.1075 15.8903C21.2449 15.8465 21.4184 15.7699 21.5801 15.6267C21.7515 15.475 21.8584 15.2941 21.9197 15.1183C22.0054 14.8726 22.0014 14.6029 22.0002 14.5182L22 14.5L21.9999 8C21.9999 7.45665 21.8157 6.74017 21.3603 6.13747C20.8732 5.49292 20.0866 5 19.0001 5V7C19.4135 7 19.6268 7.16093 19.7646 7.3433C19.9341 7.56753 19.9999 7.85104 19.9999 8L20 13.9986C19.845 14 19.6586 14 19.431 14H18V4C18 3.44772 17.5523 3 17 3H3ZM16 5H4V15H16V5Z" fill="black"/>
</svg>
