<svg width="24" height="24" viewBox="0 0 24 24" fill="none" xmlns="http://www.w3.org/2000/svg">
<path fill-rule="evenodd" clip-rule="evenodd" d="M19.8963 15.4061C19.6729 15.0523 19.3952 14.7581 19.0724 14.4977L19.0723 4.8092C19.0723 3.65577 18.3874 2.41803 17.079 2.11894C16.7999 2.05514 16.4728 2.00001 16.1526 2C15.8275 1.99999 15.4948 2.05685 15.212 2.12217C13.9161 2.42149 13.2314 3.64291 13.2216 4.78811L13.141 14.2356C13.0989 14.2592 13.058 14.2862 13.0186 14.3167C12.5595 14.6728 12.182 15.0806 11.9159 15.588C11.6498 16.0955 11.5269 16.642 11.4915 17.229C11.4624 17.7115 11.5046 18.1386 11.6308 18.5608C11.7527 18.9687 11.9412 19.3299 12.1456 19.6807C12.3647 20.0565 12.5953 20.3838 12.8907 20.6775C13.1868 20.9717 13.5145 21.199 13.8936 21.4122C14.702 21.867 15.4331 22.0231 16.2411 21.9973C17.06 21.9711 17.8529 21.7147 18.5323 21.2528C19.2116 20.7909 19.748 20.1434 20.0844 19.3827C20.3959 18.6785 20.6125 17.8951 20.4376 16.8917C20.3434 16.3517 20.1816 15.858 19.8963 15.4061ZM16.1526 3.98452C16.0318 3.98452 15.8571 4.008 15.6421 4.05764C15.4194 4.10909 15.1719 4.36309 15.1681 4.80538L15.0989 12.9148H17.1257V11.8496H16.4308C16.0276 11.8496 15.7008 11.5164 15.7008 11.1054C15.7008 10.6944 16.0276 10.3612 16.4308 10.3612H17.1257V9.31016H16.4306C16.0274 9.31016 15.7006 8.97697 15.7006 8.56597C15.7006 8.15496 16.0274 7.82177 16.4306 7.82177H17.1257V6.71323H16.4308C16.0276 6.71323 15.7008 6.38004 15.7008 5.96904C15.7008 5.55803 16.0276 5.22484 16.4308 5.22484H17.1257V4.8092C17.1257 4.36255 16.8762 4.10639 16.6531 4.05538C16.4423 4.00718 16.2712 3.98452 16.1526 3.98452ZM15.0819 14.908L15.0819 14.8994H17.1257C17.1257 15.158 17.2228 15.3935 17.3818 15.5702C17.4528 15.7073 17.5565 15.8294 17.6905 15.9235C17.9826 16.1284 18.1492 16.3054 18.2596 16.4803C18.3699 16.6551 18.459 16.8829 18.521 17.2389C18.605 17.7204 18.5225 18.0863 18.3099 18.5669C18.1223 18.9911 17.8254 19.348 17.4522 19.6018C17.079 19.8555 16.6398 19.999 16.18 20.0137C15.7092 20.0288 15.3259 19.9514 14.834 19.6747C14.5542 19.5173 14.3834 19.3895 14.2495 19.2565C14.1151 19.1228 13.9844 18.9506 13.819 18.6669C13.6406 18.3608 13.5463 18.1614 13.4928 17.9823C13.4435 17.8175 13.4175 17.6311 13.4344 17.3508C13.4572 16.9728 13.5294 16.7203 13.6325 16.5236C13.7357 16.3269 13.9015 16.1254 14.1972 15.8961L14.2096 15.8864C14.6961 15.8353 15.0775 15.4183 15.0819 14.908Z" fill="black"/>
<path d="M7.29036 7.5098C7.1255 7.17364 6.78849 6.96129 6.41984 6.96129C6.05119 6.96129 5.71418 7.17364 5.54931 7.5098L3.60275 11.4788C3.4519 11.7864 3.46802 12.1517 3.64536 12.4443C3.8227 12.7368 4.13596 12.9148 4.47328 12.9148H5.44656V16.8839C5.44656 17.4319 5.88231 17.8761 6.41984 17.8761C6.95736 17.8761 7.39312 17.4319 7.39312 16.8839V12.9148H8.36639C8.70371 12.9148 9.01698 12.7368 9.19431 12.4443C9.37165 12.1517 9.38777 11.7864 9.23692 11.4788L7.29036 7.5098Z" fill="black"/>
</svg>
