<svg width="24" height="24" viewBox="0 0 24 24" fill="none" xmlns="http://www.w3.org/2000/svg">
<path fill-rule="evenodd" clip-rule="evenodd" d="M14.5 4C14.5 3.44772 14.9477 3 15.5 3H20V8.76389C20.6137 9.31321 21 10.1115 21 11C21 11.8885 20.6137 12.6868 20 13.2361V16H21V18H19.7324C19.9026 18.2942 20 18.6357 20 19C20 20.1046 19.1046 21 18 21C16.8954 21 16 20.1046 16 19C16 18.6357 16.0974 18.2942 16.2676 18H7.73244C7.90261 18.2942 8 18.6357 8 19C8 20.1046 7.10457 21 6 21C4.89543 21 4 20.1046 4 19C4 18.6357 4.09739 18.2942 4.26756 18H3V16H4V9.36487L3.55421 8.73728C2.59474 7.38651 2.91195 5.51369 4.26271 4.55421C5.61348 3.59474 7.4863 3.91195 8.44578 5.26271L10.3901 8H18L18 5H15.5C14.9477 5 14.5 4.55228 14.5 4ZM7.29241 14H18L18 16H6V12.1805L7.29241 14ZM8.32498 12L5.18473 7.57909C4.86491 7.12883 4.97065 6.50456 5.4209 6.18473C5.87116 5.86491 6.49543 5.97065 6.81526 6.4209L9.35755 10H18C18.5523 10 19 10.4477 19 11C19 11.5523 18.5523 12 18 12H8.32498Z" fill="black"/>
</svg>
