<svg width="24" height="24" viewBox="0 0 24 24" fill="none" xmlns="http://www.w3.org/2000/svg">
<path fill-rule="evenodd" clip-rule="evenodd" d="M10.1223 3.57541H10.9974C12.4686 3.57541 13.6612 4.76805 13.6612 6.23923V12.9659C13.6612 14.4371 12.4686 15.6297 10.9974 15.6297H10.6215C10.4988 16.0431 10.116 16.3445 9.66278 16.3445H9.48384V16.8918C9.50396 17.1605 9.57259 17.4248 9.68741 17.6743C9.82592 17.9753 10.0289 18.2487 10.2849 18.4791C10.5408 18.7094 10.8447 18.8922 11.1791 19.0168C11.5135 19.1415 11.8719 19.2057 12.2339 19.2057C12.5958 19.2057 12.9543 19.1415 13.2887 19.0168C13.6231 18.8922 13.9269 18.7094 14.1829 18.4791C14.4388 18.2487 14.6419 17.9753 14.7804 17.6743C14.8951 17.425 14.9637 17.1609 14.9839 16.8925V11C14.9839 10.606 15.0615 10.2159 15.2122 9.85195C15.363 9.48797 15.584 9.15726 15.8626 8.87868C16.1411 8.6001 16.4719 8.37913 16.8358 8.22836C17.1998 8.0776 17.5899 8 17.9839 8C18.3779 8 18.768 8.0776 19.1319 8.22836C19.4959 8.37913 19.8266 8.6001 20.1052 8.87868C20.3838 9.15725 20.6048 9.48797 20.7555 9.85195C20.9063 10.2159 20.9839 10.606 20.9839 11V12H18.9839V11L18.9851 11C18.9851 10.8685 18.9592 10.7383 18.9089 10.6169C18.8586 10.4954 18.7848 10.385 18.6919 10.292C18.5989 10.1991 18.4885 10.1253 18.367 10.075C18.2456 10.0247 18.1154 9.99878 17.9839 9.99878C17.8524 9.99878 17.7222 10.0247 17.6007 10.075C17.4793 10.1253 17.3689 10.1991 17.2759 10.292C17.1829 10.385 17.1092 10.4954 17.0589 10.6169C17.0086 10.7383 16.9827 10.8685 16.9827 11H16.9839V17H16.974C16.9406 17.4673 16.822 17.9272 16.6223 18.361C16.3836 18.8796 16.0337 19.3509 15.5926 19.7479C15.1516 20.1449 14.6279 20.4597 14.0516 20.6746C13.4753 20.8894 12.8577 21 12.2339 21C11.6101 21 10.9924 20.8894 10.4161 20.6746C9.83984 20.4597 9.31621 20.1449 8.87513 19.7479C8.43405 19.3509 8.08417 18.8796 7.84546 18.361C7.64581 17.9272 7.52719 17.4673 7.49372 17H7.48384V16.3445H6.99829C6.54509 16.3445 6.16231 16.0431 6.03954 15.6297H5.66382C4.19263 15.6297 3 14.4371 3 12.9659V6.23923C3 4.76805 4.19263 3.57541 5.66382 3.57541H6.53882C7.03904 3.21722 7.65424 3 8.33055 3C9.00686 3 9.62206 3.21722 10.1223 3.57541ZM9.29229 5.57541H10.9974C11.364 5.57541 11.6612 5.87262 11.6612 6.23923V9.62331C11.6219 9.60797 11.5818 9.59293 11.5409 9.57827C10.6245 9.2495 9.34162 9.11663 7.89487 9.81693C6.83847 10.3283 5.9479 10.5259 5.33917 10.5987C5.214 10.6137 5.1006 10.6234 5 10.6294V6.23923C5 5.87262 5.2972 5.57541 5.66382 5.57541H7.36881C7.56076 5.23144 7.91957 5 8.33055 5C8.74152 5 9.10034 5.23144 9.29229 5.57541ZM11.6398 11.8946C11.6396 11.8945 11.6395 11.8944 11.6612 11.8713V12.9659C11.6612 13.3325 11.364 13.6297 10.9974 13.6297H5.66382C5.2972 13.6297 5 13.3325 5 12.9659V12.632C5.16904 12.6247 5.36208 12.6102 5.57665 12.5846C6.38343 12.4881 7.49122 12.2343 8.76625 11.6171C9.65093 11.1889 10.3664 11.2817 10.8655 11.4608C11.1245 11.5537 11.3308 11.6729 11.4697 11.767C11.5384 11.8136 11.5885 11.8526 11.6178 11.8766C11.6324 11.8885 11.6417 11.8966 11.6454 11.8999L11.6466 11.9009L11.6439 11.8985L11.6417 11.8964L11.6398 11.8946Z" fill="black"/>
<path d="M19.9837 13C19.9837 13 19.544 13.4697 19.1696 14.0972C18.8921 14.5625 18.6504 15.1145 18.6504 15.6263C18.6504 16.385 19.2473 17 19.9837 17C20.7201 17 21.3171 16.385 21.3171 15.6263C21.3171 15.1145 21.0754 14.5625 20.7978 14.0972C20.4234 13.4697 19.9837 13 19.9837 13Z" fill="black"/>
</svg>
