<svg width="24" height="24" viewBox="0 0 24 24" fill="none" xmlns="http://www.w3.org/2000/svg">
<path fill-rule="evenodd" clip-rule="evenodd" d="M8.44578 5.26271L10.3901 8H18C19.6569 8 21 9.34314 21 11C21 11.8885 20.6137 12.6868 20 13.2361V16H21V18H19.7324C19.9026 18.2942 20 18.6357 20 19C20 20.1046 19.1046 21 18 21C16.8954 21 16 20.1046 16 19C16 18.6357 16.0974 18.2942 16.2676 18H7.73244C7.90261 18.2942 8 18.6357 8 19C8 20.1046 7.10457 21 6 21C4.89543 21 4 20.1046 4 19C4 18.6357 4.09739 18.2942 4.26756 18H3V16H4V9.36487L3.55421 8.73728C2.59474 7.38651 2.91195 5.51369 4.26271 4.55421C5.61348 3.59474 7.4863 3.91195 8.44578 5.26271ZM5.18473 7.57909L8.32498 12H18C18.5523 12 19 11.5523 19 11C19 10.4477 18.5523 10 18 10H9.35755L6.81526 6.4209C6.49543 5.97065 5.87116 5.86491 5.4209 6.18473C4.97065 6.50456 4.86491 7.12883 5.18473 7.57909ZM18 14H7.29241L6 12.1805V16H18L18 14Z" fill="black"/>
</svg>
