<svg width="24" height="24" viewBox="0 0 24 24" fill="none" xmlns="http://www.w3.org/2000/svg">
<path fill-rule="evenodd" clip-rule="evenodd" d="M14.3485 2.8667H16C17.6569 2.8667 19 4.20984 19 5.8667V16C19 17.3114 18.1586 18.4262 16.9863 18.8341C16.9953 18.8881 17 18.9435 17 19C17 19.5523 16.5523 20 16 20H15V22H13V20H11.2396C11.2396 20.5523 10.7919 21 10.2396 21H10C9.44772 21 9 20.5523 9 20H8C7.44772 20 7 19.5523 7 19C7 18.9435 7.00469 18.8881 7.0137 18.8341C5.84136 18.4262 5 17.3114 5 16V5.8667C5 4.20985 6.34315 2.8667 8 2.8667H9.6515C10.2793 2.33266 11.0937 2 12 2C12.9063 2 13.7207 2.33266 14.3485 2.8667ZM16 17H8C7.44772 17 7 16.5523 7 16V14.9901C7.23662 14.9793 7.50661 14.9586 7.80665 14.9226C8.96852 14.7832 10.5774 14.4149 12.4369 13.5117C13.9052 12.7985 15.1206 12.9484 15.9738 13.2556C16.4099 13.4126 16.757 13.6138 16.9924 13.7738C16.9949 13.7756 16.9975 13.7773 17 13.779V16C17 16.5523 16.5523 17 16 17ZM17 11.5108C16.8887 11.4634 16.7724 11.4174 16.6512 11.3738C15.3794 10.916 13.5948 10.7258 11.5631 11.7127C9.92258 12.5096 8.53148 12.8213 7.56835 12.9369C7.35803 12.9621 7.16796 12.978 7 12.9875V5.8667C7 5.31441 7.44772 4.8667 8 4.8667H10.5563C10.8445 4.34859 11.3831 4 12 4C12.6169 4 13.1556 4.34859 13.4437 4.8667H16C16.5523 4.8667 17 5.31441 17 5.8667V11.5108Z" fill="black"/>
</svg>
