<svg width="24" height="24" viewBox="0 0 24 24" fill="none" xmlns="http://www.w3.org/2000/svg">
<path fill-rule="evenodd" clip-rule="evenodd" d="M11 2H13V3.64015C13.372 3.74804 13.717 3.91646 14.0142 4.13934C14.4934 4.49872 14.8842 5.03492 14.9783 5.69399L15.6306 6.22392C16.197 6.68419 17.0915 7.14018 17.9081 7.49645C18.3044 7.66933 18.6611 7.80971 18.9184 7.9067C19.0467 7.95509 19.1496 7.99242 19.2195 8.01734C19.2544 8.02979 19.281 8.03911 19.2984 8.04515L19.3174 8.05172L19.322 8.05332L20 8.28369V19.382L20.4472 19.6056C20.9412 19.8526 21.1414 20.4533 20.8944 20.9472C20.6474 21.4412 20.0467 21.6414 19.5527 21.3945L18 20.6181V9.69666C17.7484 9.59898 17.4417 9.47499 17.1084 9.3296C16.2639 8.96119 15.1583 8.41718 14.3694 7.77614L14.2403 7.67129C14.1679 7.73894 14.0922 7.80215 14.0142 7.86066C13.4631 8.27395 12.7477 8.5 12 8.5C11.2522 8.5 10.5368 8.27395 9.98576 7.86066C9.90774 7.80215 9.83206 7.73894 9.75962 7.67129L9.63057 7.77614C8.84159 8.41718 7.73602 8.96119 6.89153 9.3296C6.55827 9.47499 6.25159 9.59898 5.99997 9.69666V20.6181L4.44719 21.3945C3.95321 21.6414 3.35254 21.4412 3.10555 20.9472C2.85856 20.4533 3.05878 19.8526 3.55276 19.6056L3.99997 19.382V8.28369L4.67789 8.05332L4.68256 8.05172L4.70153 8.04515C4.7189 8.03911 4.74552 8.02979 4.78044 8.01734C4.85031 7.99242 4.95322 7.95509 5.08158 7.9067C5.33882 7.80971 5.69553 7.66933 6.09182 7.49645C6.90846 7.14018 7.80289 6.68419 8.36938 6.22392L9.02159 5.69399C9.11572 5.03492 9.50658 4.49872 9.98576 4.13934C10.2829 3.91646 10.6279 3.74804 11 3.64015V2ZM11 6C11 5.97111 11.0133 5.86872 11.1858 5.73934C11.3586 5.60973 11.6431 5.5 12 5.5C12.3568 5.5 12.6414 5.60973 12.8142 5.73934C12.9867 5.86872 13 5.97111 13 6C13 6.02889 12.9867 6.13128 12.8142 6.26066C12.6414 6.39027 12.3568 6.5 12 6.5C11.6431 6.5 11.3586 6.39027 11.1858 6.26066C11.0133 6.13128 11 6.02889 11 6Z" fill="black"/>
<path d="M9.49997 19V21H7.49997V13H9.49997V17H17V21H15V19H9.49997Z" fill="black"/>
<path d="M9.99997 15.5C9.99997 14.9477 10.4477 14.5 11 14.5H15C15.5523 14.5 16 14.9477 16 15.5C16 16.0523 15.5523 16.5 15 16.5H11C10.4477 16.5 9.99997 16.0523 9.99997 15.5Z" fill="black"/>
</svg>
