<svg width="24" height="24" viewBox="0 0 24 24" fill="none" xmlns="http://www.w3.org/2000/svg">
<path d="M13 18C13 18.5523 12.5523 19 12 19C11.4477 19 11 18.5523 11 18C11 17.4477 11.4477 17 12 17C12.5523 17 13 17.4477 13 18Z" fill="black"/>
<path fill-rule="evenodd" clip-rule="evenodd" d="M9 5.5C9 5.22386 9.22386 5 9.5 5H14.5C14.7761 5 15 5.22386 15 5.5V15.5C15 15.7761 14.7761 16 14.5 16H9.5C9.22386 16 9 15.7761 9 15.5V5.5ZM11.7438 12.5021C11.2141 12.0086 10.7787 11.6028 10.4749 11.2212C10.1717 10.8404 10.0051 10.4901 10.0048 10.1084C10.0043 9.48727 10.4774 8.99961 11.0808 8.99912C11.4222 8.99884 11.7508 9.16239 11.9652 9.42107L12.0043 9.46823L12.0433 9.42101C12.2573 9.16198 12.5856 8.99789 12.927 8.99761C13.5305 8.99711 14.0043 9.484 14.0048 10.1051C14.0051 10.4868 13.8391 10.8374 13.5365 11.219C13.2344 11.6 12.8016 12.0055 12.2752 12.4986L12.2698 12.5037L12.0071 12.7484L11.7438 12.5021Z" fill="black"/>
<path fill-rule="evenodd" clip-rule="evenodd" d="M8.5 2H15.5C16.8807 2 18 3.11929 18 4.5V19.5C18 20.8807 16.8807 22 15.5 22H8.5C7.11929 22 6 20.8807 6 19.5V4.5C6 3.11929 7.11929 2 8.5 2ZM8.5 4C8.22386 4 8 4.22386 8 4.5V19.5C8 19.7761 8.22386 20 8.5 20H15.5C15.7761 20 16 19.7761 16 19.5V4.5C16 4.22386 15.7761 4 15.5 4H8.5Z" fill="black"/>
</svg>
