<svg width="24" height="24" viewBox="0 0 24 24" fill="none" xmlns="http://www.w3.org/2000/svg">
<path fill-rule="evenodd" clip-rule="evenodd" d="M20 4.5C20 5.88071 18.8807 7 17.5 7C16.1193 7 15 5.88071 15 4.5C15 3.11929 16.1193 2 17.5 2C18.8807 2 20 3.11929 20 4.5ZM18 4.5C18 4.77614 17.7761 5 17.5 5C17.2239 5 17 4.77614 17 4.5C17 4.22386 17.2239 4 17.5 4C17.7761 4 18 4.22386 18 4.5Z" fill="black"/>
<path fill-rule="evenodd" clip-rule="evenodd" d="M10.3901 8L8.44578 5.26271C7.4863 3.91195 5.61348 3.59474 4.26271 4.55421C2.91195 5.51369 2.59474 7.38651 3.55421 8.73728L4 9.36487V16H3V18H4.26756C4.09739 18.2942 4 18.6357 4 19C4 20.1046 4.89543 21 6 21C7.10457 21 8 20.1046 8 19C8 18.6357 7.90261 18.2942 7.73244 18H16.2676C16.0974 18.2942 16 18.6357 16 19C16 20.1046 16.8954 21 18 21C19.1046 21 20 20.1046 20 19C20 18.6357 19.9026 18.2942 19.7324 18H21V16H20V13.2361C20.6137 12.6868 21 11.8885 21 11C21 9.34314 19.6569 8 18 8H10.3901ZM8.32498 12L5.18473 7.57909C4.86491 7.12883 4.97065 6.50456 5.4209 6.18473C5.87116 5.86491 6.49543 5.97065 6.81526 6.4209L9.35755 10H18C18.5523 10 19 10.4477 19 11C19 11.5523 18.5523 12 18 12H8.32498ZM7.29241 14H18L18 16H6V12.1805L7.29241 14Z" fill="black"/>
</svg>
