<svg width="24" height="24" viewBox="0 0 24 24" fill="none" xmlns="http://www.w3.org/2000/svg">
<path fill-rule="evenodd" clip-rule="evenodd" d="M5 3C3.89543 3 3 3.89543 3 5V10C3 12.3637 4.74893 14.2266 7 14.8094V16C7 16.3701 7.2011 16.6933 7.5 16.8662V17.1413C7.5 19.2724 9.2276 21 11.3587 21C13.4898 21 15.2174 19.2724 15.2174 17.1413V16.1413C15.2174 15.2348 15.9522 14.5 16.8587 14.5C17.4651 14.5 17.9947 14.8289 18.2789 15.318C17.5157 15.746 17 16.5628 17 17.5C17 18.8807 18.1193 20 19.5 20C20.8807 20 22 18.8807 22 17.5C22 16.4231 21.3191 15.5053 20.3644 15.1535C19.9339 13.6224 18.5274 12.5 16.8587 12.5C14.8477 12.5 13.2174 14.1303 13.2174 16.1413V17.1413C13.2174 18.1678 12.3852 19 11.3587 19C10.3322 19 9.5 18.1678 9.5 17.1413V16.8662C9.7989 16.6933 10 16.3701 10 16V14.8094C12.2511 14.2266 14 12.3637 14 10V5C14 3.89543 13.1046 3 12 3H11C10.4477 3 10 3.44772 10 4C10 4.55228 10.4477 5 11 5H12V10C12 11.5494 10.547 13 8.5 13C6.45302 13 5 11.5494 5 10V5H6C6.55228 5 7 4.55228 7 4C7 3.44772 6.55228 3 6 3H5ZM19.5 18C19.7761 18 20 17.7761 20 17.5C20 17.2239 19.7761 17 19.5 17C19.2239 17 19 17.2239 19 17.5C19 17.7761 19.2239 18 19.5 18Z" fill="black"/>
</svg>
