<svg width="24" height="24" viewBox="0 0 24 24" fill="none" xmlns="http://www.w3.org/2000/svg">
<path d="M11.25 19.7255V22H12.75V19.7284C14.022 19.6514 14.8548 19.3746 15.4468 18.9986C15.4644 18.9995 15.4822 19 15.5 19C16.0523 19 16.5 18.5523 16.5 18C16.5 17.4477 16.0523 17 15.5 17C15.0146 17 14.61 17.3458 14.5191 17.8045C14.1742 17.9912 13.6369 18.1632 12.75 18.2255V13.7284C14.022 13.6514 14.8548 13.3746 15.4468 12.9986C15.4644 12.9995 15.4822 13 15.5 13C16.0523 13 16.5 12.5523 16.5 12C16.5 11.4477 16.0523 11 15.5 11C15.0146 11 14.61 11.3458 14.5191 11.8045C14.1742 11.9912 13.6369 12.1632 12.75 12.2255V7.72844C14.022 7.65136 14.8548 7.37462 15.4468 6.99861C15.4644 6.99953 15.4822 7 15.5 7C16.0523 7 16.5 6.55228 16.5 6C16.5 5.44772 16.0523 5 15.5 5C15.0146 5 14.61 5.34581 14.5191 5.8045C14.1742 5.99118 13.6369 6.16322 12.75 6.22546V2H11.25V6.22124C10.7218 6.17743 10.3351 6.08773 10.0309 5.98034C9.81751 5.90503 9.63507 5.81811 9.46011 5.71945C9.33884 5.30373 8.95489 5 8.5 5C7.94772 5 7.5 5.44772 7.5 6C7.5 6.55228 7.94772 7 8.5 7C8.55323 7 8.60549 6.99584 8.65647 6.98783C8.90646 7.13272 9.19212 7.27499 9.53163 7.39482C10.0029 7.56115 10.5558 7.67751 11.25 7.72553V12.2212C10.7218 12.1774 10.3351 12.0877 10.0309 11.9803C9.8175 11.905 9.63507 11.8181 9.46011 11.7195C9.33884 11.3037 8.95489 11 8.5 11C7.94772 11 7.5 11.4477 7.5 12C7.5 12.5523 7.94772 13 8.5 13C8.55323 13 8.60549 12.9958 8.65647 12.9878C8.90646 13.1327 9.19212 13.275 9.53163 13.3948C10.0029 13.5611 10.5558 13.6775 11.25 13.7255V18.2212C10.7218 18.1774 10.3351 18.0877 10.0309 17.9803C9.8175 17.905 9.63507 17.8181 9.46011 17.7195C9.33884 17.3037 8.95489 17 8.5 17C7.94772 17 7.5 17.4477 7.5 18C7.5 18.5523 7.94772 19 8.5 19C8.55323 19 8.60548 18.9958 8.65646 18.9878C8.90645 19.1327 9.19212 19.275 9.53163 19.3948C10.0029 19.5611 10.5558 19.6775 11.25 19.7255Z" fill="black"/>
</svg>
