<svg width="24" height="24" viewBox="0 0 24 24" fill="none" xmlns="http://www.w3.org/2000/svg">
<path fill-rule="evenodd" clip-rule="evenodd" d="M7.20711 3.70711C7.59763 3.31658 7.59763 2.68342 7.20711 2.29289C6.81658 1.90237 6.18342 1.90237 5.79289 2.29289L2.29289 5.79289C1.90237 6.18342 1.90237 6.81658 2.29289 7.20711C2.68342 7.59763 3.31658 7.59763 3.70711 7.20711L3.75 7.16421L6.58579 10L4.29289 12.2929L5.70711 13.7071L7 12.4142L13.7322 19.1464C14.7085 20.1228 16.2915 20.1228 17.2678 19.1464L17.6768 18.7374L19.4697 20.5303L20.5303 19.4697L18.7374 17.6768L19.1464 17.2678C20.1228 16.2915 20.1228 14.7085 19.1464 13.7322L12.4142 7L13.7071 5.70711L12.2929 4.29289L10 6.58579L7.16421 3.75L7.20711 3.70711ZM5.75 5.16421L5.16421 5.75L8 8.58579L8.58579 8L5.75 5.16421ZM11 8.41421L8.41421 11L10.4268 13.0126L11.4697 11.9697C11.7626 11.6768 12.2374 11.6768 12.5303 11.9697C12.8232 12.2626 12.8232 12.7374 12.5303 13.0303L11.4874 14.0732L12.9268 15.5126L13.9697 14.4697C14.2626 14.1768 14.7374 14.1768 15.0303 14.4697C15.3232 14.7626 15.3232 15.2374 15.0303 15.5303L13.9874 16.5732L15.1464 17.7322C15.3417 17.9275 15.6583 17.9275 15.8536 17.7322L17.7322 15.8536C17.9275 15.6583 17.9275 15.3417 17.7322 15.1464L11 8.41421Z" fill="black"/>
</svg>
