<svg width="24" height="24" viewBox="0 0 24 24" fill="none" xmlns="http://www.w3.org/2000/svg">
<path d="M9.22485 8.79419L11.2474 11.9077L12.9249 10.8187L10.9023 7.70514L9.22485 8.79419Z" fill="black"/>
<path fill-rule="evenodd" clip-rule="evenodd" d="M4.66151 6.13527C4.36063 5.67214 4.49225 5.05292 4.95549 4.7522L8.94655 2.16138C9.40978 1.86067 10.0292 1.99233 10.3301 2.45546L14.995 9.636C15.3064 10.1153 15.5114 10.6557 15.5962 11.2208L16.2472 15.5562C16.3314 16.1169 16.5339 16.6532 16.8411 17.1297L17.7738 18.5652L16.3566 19.4852L15.424 18.0497C15.1135 17.5753 14.7057 17.1722 14.2275 16.8673L10.5302 14.5095C10.0483 14.2021 9.63778 13.7951 9.32641 13.3158L4.66151 6.13527ZM6.54529 5.93358L9.37958 4.09369L9.87525 4.85667L7.04129 6.69706L6.54529 5.93358ZM7.85847 7.95492L10.6924 6.11453L13.8116 10.9157L14.4172 14.9493L10.9773 12.7556L7.85847 7.95492Z" fill="black"/>
<path d="M16.8645 20.3571L17.6232 21.5251C17.879 21.9188 18.4055 22.0307 18.7992 21.775C19.193 21.5194 19.3048 20.9931 19.0491 20.5994L18.2904 19.4314L16.8645 20.3571Z" fill="black"/>
</svg>
