<svg width="24" height="24" viewBox="0 0 24 24" fill="none" xmlns="http://www.w3.org/2000/svg">
<path fill-rule="evenodd" clip-rule="evenodd" d="M4.00011 2.99963L3.00011 2.99951L2.99988 4.99951L3.99988 4.99963C6.71518 4.99994 8.24601 6.32912 8.51942 7.69578C8.68915 8.54419 8.55078 9.22931 8.29074 9.99755C8.23048 10.1756 8.15576 10.3766 8.07522 10.5933C7.88848 11.0958 7.67041 11.6825 7.52864 12.262L7.50435 12.3613C7.38603 12.8455 7.34038 13.0323 7.2655 13.1962C7.20713 13.324 7.11311 13.4718 6.79289 13.7921C6.5987 13.9863 6.38516 14.1705 6.13667 14.385L6.04414 14.4649C5.76877 14.703 5.45618 14.9772 5.16891 15.2882C4.93462 15.5418 4.71184 15.8256 4.52465 16.1486C4.24197 15.9743 3.88711 15.9502 3.57979 16.0925C3.22626 16.2562 2.99999 16.6104 2.99999 17V20.9996H4.99999V19.164C5.31133 19.3067 5.64362 19.4087 5.9405 19.486C6.51369 19.6353 7.15554 19.7399 7.74012 19.8138C8.32904 19.8882 8.88292 19.9343 9.28807 19.9618C9.49124 19.9756 9.65845 19.9849 9.7757 19.9907C9.83436 19.9936 9.88061 19.9956 9.9127 19.997L9.95004 19.9985L9.96036 19.9989L9.9649 19.999L10.0559 20.0022L10.1459 19.9889C10.4352 19.9463 10.6519 19.8072 10.7835 19.7033C10.9242 19.5923 11.0414 19.4628 11.1368 19.3401C11.3281 19.0941 11.4994 18.7876 11.646 18.4571C11.9155 17.8496 12.1448 17.0633 12.2528 16.1877C12.3253 16.175 12.3989 16.1642 12.4732 16.156C12.9294 16.1053 13.2334 16.1708 13.4142 16.3015C13.4793 16.3486 13.5742 16.4723 13.6333 17.0734C13.6391 17.1328 13.6451 17.2023 13.6515 17.278C13.6697 17.4912 13.6922 17.7538 13.7284 17.9776C13.7795 18.2938 13.8808 18.7205 14.1582 19.0952C14.7608 19.9089 15.7751 19.97 16.4533 19.8863C17.1955 19.7947 17.9755 19.4906 18.5856 19.0791C19.3012 18.5964 19.8128 17.8011 19.9837 16.9506C20.1597 16.0747 19.9825 15.0681 19.2073 14.2921C18.7406 13.825 18.3601 13.3984 18.0934 13H18.75V12H14.75V13H15.8687C15.9943 13.3764 16.1793 13.7261 16.3866 14.0446C16.7687 14.632 17.277 15.1898 17.7924 15.7057C18.0174 15.9308 18.0902 16.2214 18.0229 16.5566C17.9504 16.9173 17.7252 17.2469 17.4672 17.421C17.1036 17.6662 16.6205 17.8505 16.2083 17.9013C15.923 17.9366 15.7975 17.8996 15.7565 17.883C15.7444 17.8514 15.723 17.784 15.7027 17.6584C15.679 17.5119 15.6672 17.3726 15.6522 17.1955C15.6444 17.1024 15.6355 16.9983 15.6237 16.8778C15.5693 16.3245 15.4524 15.3071 14.5859 14.6806C13.8211 14.1278 12.9236 14.0952 12.264 14.1669C12.1032 12.7776 11.5655 11.3 10.3716 10.0286C10.5821 9.24236 10.6909 8.35475 10.4806 7.30344C9.95392 4.67097 7.28481 3 4.00011 2.99963ZM6.44447 17.5505C6.32235 17.5188 6.21165 17.4862 6.11289 17.4535C6.2201 17.1603 6.39887 16.9041 6.63791 16.6454C6.84117 16.4254 7.07686 16.2159 7.35216 15.9779L7.4435 15.8991C7.68462 15.6912 7.95712 15.4563 8.2071 15.2063C8.6021 14.8113 8.88395 14.4667 9.08471 14.0272C9.24358 13.6794 9.33688 13.2932 9.43364 12.8927C9.44609 12.8411 9.45863 12.7892 9.47134 12.7373C9.50842 12.5857 9.54872 12.4425 9.59179 12.3033C10.2433 13.4122 10.3926 14.6427 10.2894 15.7437C10.2173 16.513 10.0232 17.1831 9.81779 17.6461C9.75564 17.7862 9.69696 17.8971 9.64663 17.9807C9.57931 17.9767 9.5046 17.9719 9.42358 17.9664C9.04354 17.9406 8.53019 17.8977 7.99097 17.8296C7.44739 17.7609 6.90017 17.6692 6.44447 17.5505Z" fill="black"/>
<path d="M16 6.5H17.5V5.5H16V6.5Z" fill="black"/>
<path d="M16 8H17.5V7H16V8Z" fill="black"/>
<path d="M17.5 9.5H16V8.5H17.5V9.5Z" fill="black"/>
<path fill-rule="evenodd" clip-rule="evenodd" d="M20 4.49999C20 4.07375 19.7298 3.69437 19.327 3.55498L19.3247 3.55417L19.3202 3.55264L19.3053 3.54753L19.2521 3.52967C19.2069 3.51463 19.1427 3.49358 19.0635 3.46852C18.9057 3.41856 18.686 3.3518 18.4381 3.28471C17.9757 3.15955 17.2987 2.99997 16.75 2.99997C16.1102 2.99997 15.4418 3.15517 14.9753 3.28846C14.733 3.35768 14.5258 3.42675 14.3781 3.47888C14.304 3.50503 14.2442 3.52716 14.2017 3.54323C14.1805 3.55127 14.1635 3.55781 14.1512 3.56261L14.1363 3.56846L14.1315 3.57035L14.1286 3.57152C14.1285 3.57158 14.1286 3.57152 14.5 4.49999L14.1286 3.57152C13.7489 3.72339 13.5 4.09109 13.5 4.49999L13.4997 9.99994C12.9474 10.0001 12.4998 10.448 12.5 11.0002C12.5002 11.5525 12.948 12.0001 13.5003 11.9999H19.9997C20.552 12.0001 20.9998 11.5525 21 11.0002C21.0002 10.448 20.5523 10.0001 20 9.99994V4.49999ZM15.5 9.99964V5.21861L15.5247 5.2115C15.9332 5.09478 16.3897 4.99997 16.75 4.99997C17.0063 4.99997 17.4543 5.0904 17.9156 5.21525C17.9442 5.22297 17.9723 5.2307 18 5.2384V9.99964H15.5Z" fill="black"/>
<path d="M6.75 10.5C7.16421 10.5 7.5 10.1642 7.5 9.75C7.5 9.33579 7.16421 9 6.75 9C6.33579 9 6 9.33579 6 9.75C6 10.1642 6.33579 10.5 6.75 10.5Z" fill="black"/>
</svg>
