<svg width="24" height="24" viewBox="0 0 24 24" fill="none" xmlns="http://www.w3.org/2000/svg">
<path d="M20 2H4V14H11V15H10C9.44772 15 9 15.4477 9 16C9 16.5523 9.44772 17 10 17H11V18H4V20H6C5.44772 20 5 20.4477 5 21C5 21.5523 5.44772 22 6 22C6.55228 22 7 21.5523 7 21C7 20.4477 6.55228 20 6 20H18C17.4477 20 17 20.4477 17 21C17 21.5523 17.4477 22 18 22C18.5523 22 19 21.5523 19 21C19 20.4477 18.5523 20 18 20H20V18H13V17H14C14.5523 17 15 16.5523 15 16C15 15.4477 14.5523 15 14 15H13V14H20V10H18V12H6V8.99995H11.1642L12.3724 7.79177L14.9659 11.4226L17.2391 8.49995H20V6.49995H16.2609L15.0341 8.07726L12.6276 4.70813L10.3358 6.99995H6V4H18V5H20V2Z" fill="black"/>
</svg>
