<svg width="24" height="24" viewBox="0 0 24 24" fill="none" xmlns="http://www.w3.org/2000/svg">
<path fill-rule="evenodd" clip-rule="evenodd" d="M18.9437 3H5.05635C3.93003 3 3.02585 3.92965 3.05712 5.05553L3.44601 19.0555C3.47608 20.1381 4.3623 21 5.44524 21H18.5548C19.6378 21 20.524 20.1381 20.554 19.0555L20.9429 5.05553C20.9742 3.92965 20.07 3 18.9437 3ZM18.9437 5H17.2647L16.5528 11.0513C16.5227 11.3072 16.3059 11.5 16.0482 11.5C16.0057 11.5 15.9634 11.4946 15.9221 11.4842C14.6671 11.168 13.3532 11 12 11C10.6469 11 9.33293 11.168 8.07795 11.4842C8.0367 11.4946 7.99435 11.5 7.9518 11.5C7.69417 11.5 7.47732 11.3072 7.44721 11.0513L6.7353 5H5.05635L5.44524 19L18.5548 19L18.9437 5ZM8.74909 5L9.24437 9.2099C9.77733 9.12794 10.3177 9.0694 10.8644 9.03531L11.7885 6.26283C11.9195 5.86987 12.3442 5.6575 12.7372 5.78849C13.1302 5.91947 13.3425 6.34421 13.2115 6.73717L12.4554 9.00566C13.2348 9.02505 14.0026 9.0941 14.7556 9.20989L15.2509 5H8.74909Z" fill="black"/>
</svg>
