<svg width="24" height="24" viewBox="0 0 24 24" fill="none" xmlns="http://www.w3.org/2000/svg">
<path d="M14 4C14 5.10457 13.1046 6 12 6C10.8954 6 10 5.10457 10 4C10 2.89543 10.8954 2 12 2C13.1046 2 14 2.89543 14 4Z" fill="black"/>
<path d="M9 17V21C9 21.5523 9.44772 22 10 22C10.5523 22 11 21.5523 11 21V17H9Z" fill="black"/>
<path d="M13 17V21C13 21.5523 13.4477 22 14 22C14.5523 22 15 21.5523 15 21V17H13Z" fill="black"/>
<path fill-rule="evenodd" clip-rule="evenodd" d="M5 8C5 7.44772 5.44772 7 6 7H18C18.5523 7 19 7.44772 19 8V15C19 15.5523 18.5523 16 18 16H6C5.44772 16 5 15.5523 5 15V8ZM6.5 14.5V8.5H11.25L11.25 9.41321C10.6773 9.47264 10.1141 9.6044 9.66459 9.82918C9.29411 10.0144 9.14394 10.4649 9.32918 10.8354C9.51442 11.2059 9.96493 11.3561 10.3354 11.1708C10.5539 11.0616 10.8738 10.9743 11.25 10.9236V11.8029C10.4873 11.9112 9.74465 12.1855 9.08399 12.6259C8.73934 12.8557 8.6462 13.3213 8.87595 13.666C9.10571 14.0106 9.57136 14.1038 9.91601 13.874C10.3251 13.6013 10.7797 13.418 11.25 13.324V14.5H6.5ZM12.75 13.324V14.5H17.5V8.5H12.75L12.75 9.41321C13.3227 9.47264 13.8859 9.6044 14.3354 9.82918C14.7059 10.0144 14.8561 10.4649 14.6708 10.8354C14.4856 11.2059 14.0351 11.3561 13.6646 11.1708C13.4461 11.0616 13.1262 10.9743 12.75 10.9236V11.8029C13.5127 11.9112 14.2554 12.1855 14.916 12.6259C15.2607 12.8557 15.3538 13.3213 15.124 13.666C14.8943 14.0106 14.4286 14.1038 14.084 13.874C13.6749 13.6013 13.2203 13.418 12.75 13.324Z" fill="black"/>
</svg>
