<svg width="24" height="24" viewBox="0 0 24 24" fill="none" xmlns="http://www.w3.org/2000/svg">
<path fill-rule="evenodd" clip-rule="evenodd" d="M2 12C2 6.47715 6.47715 2 12 2C17.5228 2 22 6.47715 22 12C22 17.5228 17.5228 22 12 22C6.47715 22 2 17.5228 2 12ZM12 4C7.58172 4 4 7.58172 4 12C4 16.4183 7.58172 20 12 20C16.4183 20 20 16.4183 20 12C20 7.58172 16.4183 4 12 4Z" fill="black"/>
<path fill-rule="evenodd" clip-rule="evenodd" d="M16.2108 14.473C16.9511 15.1145 16.9155 16.072 16.545 16.6714C16.1816 17.2593 15.3789 17.706 14.4964 17.3914L13.4964 17.035C13.0728 16.884 12.7963 16.823 12.6008 16.7952C12.4041 16.7671 12.2489 16.7656 12 16.7656C11.7511 16.7656 11.5959 16.7671 11.3992 16.7952C11.2037 16.823 10.9272 16.884 10.5036 17.035L9.50363 17.3914C8.62111 17.706 7.81836 17.2593 7.45502 16.6714C7.08455 16.072 7.04889 15.1145 7.78916 14.473C8.60582 13.7653 10.0847 12.6963 12 12.6963C13.9153 12.6963 15.3942 13.7653 16.2108 14.473ZM10.1773 15.5608C10.12 15.58 10.0609 15.6004 10 15.6221L9 15.9785C8.77106 16.0601 8.58779 15.7657 8.77147 15.6066C8.79556 15.5857 8.82006 15.5647 8.84497 15.5436C9.10193 15.3258 9.40204 15.0969 9.73937 14.8909C9.76185 14.8772 9.78449 14.8635 9.8073 14.85C10.4287 14.4818 11.1714 14.1963 12 14.1963C12.8286 14.1963 13.5713 14.4818 14.1927 14.85C14.2155 14.8635 14.2382 14.8772 14.2606 14.8909C14.598 15.0969 14.8981 15.3258 15.155 15.5436C15.1799 15.5647 15.2044 15.5857 15.2285 15.6066C15.4122 15.7657 15.2289 16.0601 15 15.9785L14 15.6221C13.9391 15.6004 13.88 15.58 13.8227 15.5608C12.9391 15.2656 12.4695 15.2656 12 15.2656C11.5305 15.2656 11.0609 15.2656 10.1773 15.5608Z" fill="black"/>
<path d="M6.84161 8.75C8.12216 8.75 9.33445 9.32552 10.4624 10.3823L11.488 9.28764C10.1697 8.05261 8.6083 7.25 6.84161 7.25V8.75Z" fill="black"/>
<path d="M17.1584 8.75C15.8778 8.75 14.6655 9.32552 13.5376 10.3823L12.512 9.28764C13.8303 8.05261 15.3917 7.25 17.1584 7.25V8.75Z" fill="black"/>
<path d="M8.75 12.15C9.57843 12.15 10.25 11.4784 10.25 10.65C10.25 9.82157 9.57843 9.15 8.75 9.15C7.92157 9.15 7.25 9.82157 7.25 10.65C7.25 11.4784 7.92157 12.15 8.75 12.15Z" fill="black"/>
<path d="M15.25 12.15C16.0784 12.15 16.75 11.4784 16.75 10.65C16.75 9.82157 16.0784 9.15 15.25 9.15C14.4216 9.15 13.75 9.82157 13.75 10.65C13.75 11.4784 14.4216 12.15 15.25 12.15Z" fill="black"/>
</svg>
