<svg width="24" height="24" viewBox="0 0 24 24" fill="none" xmlns="http://www.w3.org/2000/svg">
<path fill-rule="evenodd" clip-rule="evenodd" d="M17.0001 3.33971C12.2172 0.578283 6.1013 2.21703 3.33987 6.99996C0.578451 11.7829 2.2172 17.8988 7.00013 20.6602C11.7831 23.4216 17.899 21.7829 20.6604 17C23.4218 12.217 21.7831 6.10113 17.0001 3.33971ZM5.07193 7.99996C7.28106 4.17362 12.1738 2.86262 16.0001 5.07176C19.8265 7.2809 21.1375 12.1736 18.9283 16C16.7192 19.8263 11.8265 21.1373 8.00013 18.9282C4.17379 16.719 2.86279 11.8263 5.07193 7.99996Z" fill="black"/>
<path d="M8.65441 15.0677C9.04582 14.6781 9.67898 14.6795 10.0686 15.0709C10.235 15.2381 10.5199 15.3943 10.9078 15.5063C11.2862 15.6155 11.6868 15.6605 12 15.6605C12.3132 15.6605 12.7139 15.6155 13.0922 15.5063C13.4801 15.3943 13.7651 15.2381 13.9314 15.0709C14.3211 14.6795 14.9542 14.6781 15.3456 15.0677C15.737 15.4574 15.7385 16.0905 15.3488 16.4819C14.8552 16.9778 14.2161 17.2636 13.6469 17.4278C13.0683 17.5949 12.4789 17.6605 12 17.6605C11.5212 17.6605 10.9318 17.5949 10.3531 17.4278C9.78396 17.2636 9.14487 16.9778 8.65122 16.4819C8.26158 16.0905 8.26301 15.4574 8.65441 15.0677Z" fill="black"/>
<path d="M7.15008 10.1143C7.29734 10.3703 7.80186 10.897 8.5 10.897C9.19813 10.897 9.70266 10.3703 9.84992 10.1143L11.1501 10.8624C10.8529 11.3789 9.9352 12.397 8.5 12.397C7.0648 12.397 6.1471 11.3789 5.84992 10.8624L7.15008 10.1143Z" fill="black"/>
<path d="M14.1501 10.1143C14.2973 10.3703 14.8019 10.897 15.5 10.897C16.1981 10.897 16.7027 10.3703 16.8499 10.1143L18.1501 10.8624C17.8529 11.3789 16.9352 12.397 15.5 12.397C14.0648 12.397 13.1471 11.3789 12.8499 10.8624L14.1501 10.1143Z" fill="black"/>
</svg>
