<svg width="24" height="24" viewBox="0 0 24 24" fill="none" xmlns="http://www.w3.org/2000/svg">
<path fill-rule="evenodd" clip-rule="evenodd" d="M2 12C2 6.47715 6.47715 2 12 2C17.5228 2 22 6.47715 22 12C22 17.5228 17.5228 22 12 22C6.47715 22 2 17.5228 2 12ZM12 4C7.58172 4 4 7.58172 4 12C4 16.4183 7.58172 20 12 20C16.4183 20 20 16.4183 20 12C20 7.58172 16.4183 4 12 4Z" fill="black"/>
<path d="M10.2899 17.4102C10.813 17.5871 11.3806 17.3065 11.5576 16.7833C11.8447 15.9347 12.6941 15.392 13.3705 15.2107C14.0469 15.0295 15.0539 15.0748 15.7268 15.6662C16.1417 16.0308 16.7735 15.99 17.1381 15.5752C17.5027 15.1603 17.462 14.5285 17.0471 14.1639C15.6954 12.976 13.9094 12.9958 12.8529 13.2789C11.7963 13.562 10.2397 14.4379 9.66306 16.1424C9.48608 16.6656 9.76671 17.2332 10.2899 17.4102Z" fill="black"/>
<path d="M8.75 11.25C9.57843 11.25 10.25 10.5784 10.25 9.75C10.25 8.92157 9.57843 8.25 8.75 8.25C7.92157 8.25 7.25 8.92157 7.25 9.75C7.25 10.5784 7.92157 11.25 8.75 11.25Z" fill="black"/>
<path d="M15.25 11.25C16.0784 11.25 16.75 10.5784 16.75 9.75C16.75 8.92157 16.0784 8.25 15.25 8.25C14.4216 8.25 13.75 8.92157 13.75 9.75C13.75 10.5784 14.4216 11.25 15.25 11.25Z" fill="black"/>
</svg>
