<svg width="24" height="24" viewBox="0 0 24 24" fill="none" xmlns="http://www.w3.org/2000/svg">
<path d="M12 4C7.58172 4 4 7.58172 4 12C4 16.4183 7.58172 20 12 20C12.618 20 13.2196 19.9299 13.7973 19.7973L15.4053 21.4053C14.3424 21.7901 13.1957 22 12 22C6.47715 22 2 17.5228 2 12C2 6.47715 6.47715 2 12 2C17.5228 2 22 6.47715 22 12C22 13.3627 21.7274 14.6617 21.2338 15.8456L19.3118 15.2511C19.7541 14.2577 20 13.1576 20 12C20 7.58172 16.4183 4 12 4Z" fill="black"/>
<path d="M7.82919 8.16475C8.01443 7.79427 8.46494 7.6441 8.83542 7.82934L10.0466 8.43492C11.3364 9.07983 11.3364 10.9205 10.0466 11.5654L8.83542 12.171C8.46494 12.3562 8.01443 12.2061 7.82919 11.8356C7.64395 11.4651 7.79412 11.0146 8.1646 10.8293L9.37575 10.2238C9.56001 10.1316 9.56001 9.86869 9.37575 9.77656L8.1646 9.17098C7.79412 8.98574 7.64395 8.53524 7.82919 8.16475Z" fill="black"/>
<path d="M17.1708 8.16475C16.9856 7.79427 16.5351 7.6441 16.1646 7.82934L14.9535 8.43492C13.6636 9.07983 13.6636 10.9205 14.9535 11.5654L16.1646 12.171C16.5351 12.3562 16.9856 12.2061 17.1708 11.8356C17.3561 11.4651 17.2059 11.0146 16.8354 10.8293L15.6243 10.2238C15.44 10.1316 15.44 9.86869 15.6243 9.77656L16.8354 9.17098C17.2059 8.98574 17.3561 8.53524 17.1708 8.16475Z" fill="black"/>
<path fill-rule="evenodd" clip-rule="evenodd" d="M12.5 12.75C10.9812 12.75 9.75 13.9812 9.75 15.5C9.75 17.0188 10.9812 18.25 12.5 18.25C14.0188 18.25 15.25 17.0188 15.25 15.5C15.25 13.9812 14.0188 12.75 12.5 12.75ZM11.25 15.5C11.25 14.8096 11.8096 14.25 12.5 14.25C13.1904 14.25 13.75 14.8096 13.75 15.5C13.75 16.1904 13.1904 16.75 12.5 16.75C11.8096 16.75 11.25 16.1904 11.25 15.5Z" fill="black"/>
<path d="M16.7415 16.8411C16.9166 16.3173 17.4832 16.0347 18.007 16.2098L19.8171 16.8151C20.3409 16.9903 20.6235 17.5569 20.4484 18.0806C20.2732 18.6044 19.7066 18.887 19.1829 18.7119L17.3727 18.1066C16.849 17.9314 16.5664 17.3648 16.7415 16.8411Z" fill="black"/>
<path d="M21.1063 18.3387C21.2672 17.8103 21.826 17.5125 22.3543 17.6734L22.6713 17.7699C23.1997 17.9308 23.4975 18.4896 23.3366 19.0179C23.1757 19.5462 22.617 19.8441 22.0886 19.6832L21.7716 19.5866C21.2433 19.4257 20.9454 18.867 21.1063 18.3387Z" fill="black"/>
<path d="M15.6517 18.834C16.0484 18.4497 16.6815 18.4598 17.0658 18.8564L17.6891 19.4998C18.0734 19.8965 18.0633 20.5296 17.6667 20.9139C17.27 21.2981 16.6369 21.2881 16.2526 20.8914L15.6293 20.2481C15.245 19.8514 15.2551 19.2183 15.6517 18.834Z" fill="black"/>
<path d="M17.9892 21.2467C18.3858 20.8624 19.0189 20.8725 19.4032 21.2691L19.8707 21.7517C20.255 22.1483 20.2449 22.7814 19.8483 23.1657C19.4516 23.55 18.8185 23.54 18.4342 23.1433L17.9667 22.6608C17.5825 22.2641 17.5925 21.631 17.9892 21.2467Z" fill="black"/>
</svg>
