<svg width="24" height="24" viewBox="0 0 24 24" fill="none" xmlns="http://www.w3.org/2000/svg">
<path d="M5.07191 7.99972C7.28105 4.17338 12.1738 2.86237 16.0001 5.07151C18.5765 6.55896 20.0124 9.26303 20.0014 12.039C20.3763 12.6958 20.6502 13.2193 20.823 13.6098C21.1312 14.306 21.3016 14.9665 21.3345 15.5912C23.0786 11.0748 21.3244 5.8361 17.0001 3.33946C12.2172 0.578039 6.10128 2.21679 3.33986 6.99972C0.578436 11.7826 2.21719 17.8985 7.00011 20.66C11.1395 23.0499 16.2773 22.144 19.375 18.7565C19.1253 18.8378 18.8608 18.8785 18.5814 18.8785C17.9662 18.8785 17.4227 18.6811 16.9511 18.2863C14.4559 20.2502 10.918 20.6125 8.00011 18.9279C4.17377 16.7188 2.86277 11.8261 5.07191 7.99972Z" fill="black"/>
<path d="M18.5814 17.5444C19.0814 17.5444 19.5094 17.3734 19.8654 17.0313C20.2215 16.6893 20.3995 16.278 20.3995 15.7977C20.3995 15.4047 20.2858 14.9862 20.0586 14.5422C19.8313 14.0983 19.3389 13.3522 18.5814 12.3042C17.8239 13.3522 17.3315 14.0983 17.1042 14.5422C16.877 14.9862 16.7634 15.4047 16.7634 15.7977C16.7634 16.278 16.9414 16.6893 17.2974 17.0313C17.6534 17.3734 18.0815 17.5444 18.5814 17.5444Z" fill="black"/>
<path d="M8.80522 17.4922C9.26475 17.7986 9.88562 17.6744 10.192 17.2149C10.6014 16.6007 11.4048 16.3401 12 16.3401C12.5953 16.3401 13.3987 16.6007 13.8081 17.2149C14.1144 17.6744 14.7353 17.7986 15.1948 17.4922C15.6544 17.1859 15.7785 16.565 15.4722 16.1055C14.5615 14.7395 12.9888 14.3401 12 14.3401C11.0112 14.3401 9.43852 14.7395 8.52787 16.1055C8.22152 16.565 8.3457 17.1859 8.80522 17.4922Z" fill="black"/>
<path d="M9.26395 9.53863C9.2338 9.69276 9.13486 9.98275 8.94636 10.2515C8.76223 10.514 8.52551 10.7121 8.22673 10.7921C7.92795 10.8722 7.62394 10.819 7.33321 10.6837C7.03559 10.5453 6.80491 10.3436 6.70174 10.2252L5.57085 11.2106C5.79989 11.4735 6.19633 11.8092 6.70036 12.0437C7.21127 12.2815 7.88342 12.437 8.61496 12.241C9.3465 12.045 9.85082 11.5742 10.1744 11.1128C10.4936 10.6577 10.6691 10.1688 10.736 9.8266L9.26395 9.53863Z" fill="black"/>
<path d="M14.7361 9.53863C14.7662 9.69276 14.8651 9.98275 15.0536 10.2515C15.2378 10.514 15.4745 10.7121 15.7733 10.7921C16.072 10.8722 16.3761 10.819 16.6668 10.6837C16.9644 10.5453 17.1951 10.3436 17.2983 10.2252L18.4292 11.2106C18.2001 11.4735 17.8037 11.8092 17.2996 12.0437C16.7887 12.2815 16.1166 12.437 15.385 12.241C14.6535 12.045 14.1492 11.5742 13.8256 11.1128C13.5064 10.6577 13.3309 10.1688 13.264 9.8266L14.7361 9.53863Z" fill="black"/>
</svg>
