<svg width="24" height="24" viewBox="0 0 24 24" fill="none" xmlns="http://www.w3.org/2000/svg">
<path fill-rule="evenodd" clip-rule="evenodd" d="M2 12C2 6.47715 6.47715 2 12 2C17.5228 2 22 6.47715 22 12C22 17.5228 17.5228 22 12 22C6.47715 22 2 17.5228 2 12ZM12 4C7.58172 4 4 7.58172 4 12C4 16.4183 7.58172 20 12 20C16.4183 20 20 16.4183 20 12C20 7.58172 16.4183 4 12 4Z" fill="black"/>
<path fill-rule="evenodd" clip-rule="evenodd" d="M14.5292 17.4462C13.7252 17.657 12.7544 17.75 12 17.75C11.2457 17.75 10.2749 17.657 9.47078 17.4462C9.07398 17.3421 8.66614 17.1964 8.34033 16.9851C8.02936 16.7835 7.63174 16.4102 7.63174 15.8269C7.63174 14.767 8.12586 13.7796 8.95452 13.0721C9.77954 12.3677 10.8764 11.9877 12 11.9877C13.1236 11.9877 14.2205 12.3677 15.0455 13.0721C15.8742 13.7796 16.3683 14.767 16.3683 15.8269C16.3683 16.4102 15.9707 16.7835 15.6597 16.9851C15.3339 17.1964 14.926 17.3421 14.5292 17.4462ZM14.9158 15.6707C14.9158 15.6707 14.9145 15.6728 14.9103 15.6768C14.9135 15.6727 14.9158 15.6707 14.9158 15.6707ZM14.8648 15.7124C14.8584 15.7168 14.8514 15.7215 14.8436 15.7266C14.7117 15.8121 14.48 15.9084 14.1488 15.9952C13.497 16.1661 12.6587 16.25 12 16.25C11.3413 16.25 10.503 16.1661 9.8512 15.9952C9.52007 15.9084 9.28828 15.8121 9.15645 15.7266C9.14864 15.7215 9.14159 15.7168 9.13524 15.7124C9.16826 15.1717 9.43489 14.6343 9.92849 14.2129C10.4606 13.7586 11.2044 13.4877 12 13.4877C12.7957 13.4877 13.5394 13.7586 14.0715 14.2129C14.5651 14.6343 14.8318 15.1717 14.8648 15.7124ZM9.0842 15.6707C9.0842 15.6707 9.08655 15.6727 9.08975 15.6768C9.08554 15.6728 9.0842 15.6707 9.0842 15.6707Z" fill="black"/>
<path d="M8.72717 8.20291L7.73422 7.20995L6.67356 8.27061L7.66651 9.26357L6.67363 10.2564L7.73428 11.3171L8.72716 10.3242L9.71987 11.3169L10.7805 10.2563L9.78783 9.26358L10.7806 8.27079L9.71997 7.21012L8.72717 8.20291Z" fill="black"/>
<path d="M15.4767 8.20291L16.4695 7.21012L17.5302 8.27079L16.5374 9.26358L17.5301 10.2563L16.4694 11.3169L15.4767 10.3242L14.4839 11.3171L13.4232 10.2564L14.4161 9.26357L13.4231 8.27061L14.4838 7.20995L15.4767 8.20291Z" fill="black"/>
</svg>
