<svg width="24" height="24" viewBox="0 0 24 24" fill="none" xmlns="http://www.w3.org/2000/svg">
<path d="M4 12C4 7.58172 7.58172 4 12 4C16.4183 4 20 7.58172 20 12C20 12.7831 19.8875 13.5399 19.6777 14.2552C19.9015 14.2886 20.1158 14.3372 20.3208 14.401C20.7891 14.5467 21.1886 14.7703 21.5194 15.0716C21.8314 14.1038 22 13.0716 22 12C22 6.47715 17.5228 2 12 2C6.47715 2 2 6.47715 2 12C2 17.5228 6.47715 22 12 22C12.8872 22 13.7475 21.8845 14.5665 21.6676C14.392 21.3891 14.2362 21.0778 14.0994 20.7337C14.0032 20.4919 13.8968 20.1811 13.7803 19.8012C13.2078 19.9313 12.6119 20 12 20C7.58172 20 4 16.4183 4 12Z" fill="black"/>
<path d="M17.1285 21.6961C17.4704 21.7143 17.7552 21.6098 17.9828 21.3825C18.2104 21.1552 18.3153 20.8706 18.2976 20.5286C18.2798 20.1867 18.1447 19.8892 17.8921 19.6363C17.6855 19.4294 17.4138 19.2607 17.0769 19.1303C16.74 18.9998 16.1236 18.8309 15.2277 18.6235C15.4338 19.5197 15.6019 20.1363 15.7318 20.4734C15.8618 20.8104 16.0301 21.0824 16.2367 21.2894C16.4893 21.5423 16.7865 21.6778 17.1285 21.6961Z" fill="black"/>
<path d="M21.5238 18.3756C21.343 18.7787 21.0288 19.0522 20.5812 19.1961C20.1336 19.3401 19.6859 19.3116 19.2381 19.1108C18.8717 18.9464 18.5226 18.6799 18.1909 18.311C17.8592 17.9422 17.3418 17.2333 16.6387 16.1845C17.8896 16.0121 18.7631 15.9271 19.2591 15.9295C19.7552 15.932 20.1864 16.0154 20.5528 16.1797C21.0006 16.3806 21.3195 16.696 21.5097 17.1261C21.6999 17.5561 21.7045 17.9726 21.5238 18.3756Z" fill="black"/>
<path d="M8.83542 7.82934C8.46494 7.6441 8.01443 7.79427 7.82919 8.16475C7.64395 8.53524 7.79412 8.98574 8.1646 9.17098L9.37575 9.77656C9.56001 9.86869 9.56001 10.1316 9.37575 10.2238L8.1646 10.8293C7.79412 11.0146 7.64395 11.4651 7.82919 11.8356C8.01443 12.2061 8.46494 12.3562 8.83542 12.171L10.0466 11.5654C11.3364 10.9205 11.3364 9.07983 10.0466 8.43492L8.83542 7.82934Z" fill="black"/>
<path d="M16.1646 7.82934C16.5351 7.6441 16.9856 7.79427 17.1708 8.16475C17.3561 8.53524 17.2059 8.98574 16.8354 9.17098L15.6243 9.77656C15.44 9.86869 15.44 10.1316 15.6243 10.2238L16.8354 10.8293C17.2059 11.0146 17.3561 11.4651 17.1708 11.8356C16.9856 12.2061 16.5351 12.3562 16.1646 12.171L14.9535 11.5654C13.6636 10.9205 13.6636 9.07983 14.9535 8.43492L16.1646 7.82934Z" fill="black"/>
<path fill-rule="evenodd" clip-rule="evenodd" d="M9.75 15.5C9.75 13.9812 10.9812 12.75 12.5 12.75C14.0188 12.75 15.25 13.9812 15.25 15.5C15.25 17.0188 14.0188 18.25 12.5 18.25C10.9812 18.25 9.75 17.0188 9.75 15.5ZM12.5 14.25C11.8096 14.25 11.25 14.8096 11.25 15.5C11.25 16.1904 11.8096 16.75 12.5 16.75C13.1904 16.75 13.75 16.1904 13.75 15.5C13.75 14.8096 13.1904 14.25 12.5 14.25Z" fill="black"/>
</svg>
