<svg width="24" height="24" viewBox="0 0 24 24" fill="none" xmlns="http://www.w3.org/2000/svg">
<path d="M7.21151 10.7372C7.3007 10.4696 7.49539 10.0549 7.76518 9.72324C8.04508 9.37909 8.29774 9.25 8.5 9.25C8.70225 9.25 8.95491 9.37909 9.23481 9.72324C9.5046 10.0549 9.6993 10.4696 9.78848 10.7372L11.2115 10.2628C11.0785 9.86373 10.8065 9.2784 10.3985 8.77676C10.0006 8.28758 9.36441 7.75 8.5 7.75C7.63558 7.75 6.99935 8.28758 6.60148 8.77676C6.19349 9.2784 5.92152 9.86373 5.78848 10.2628L7.21151 10.7372Z" fill="black"/>
<path d="M14.2115 10.7372C14.3007 10.4696 14.4954 10.0549 14.7652 9.72324C15.0451 9.37909 15.2977 9.25 15.5 9.25C15.7022 9.25 15.9549 9.37909 16.2348 9.72324C16.5046 10.0549 16.6993 10.4696 16.7885 10.7372L18.2115 10.2628C18.0785 9.86373 17.8065 9.2784 17.3985 8.77676C17.0006 8.28758 16.3644 7.75 15.5 7.75C14.6356 7.75 13.9994 8.28758 13.6015 8.77676C13.1935 9.2784 12.9215 9.86373 12.7885 10.2628L14.2115 10.7372Z" fill="black"/>
<path fill-rule="evenodd" clip-rule="evenodd" d="M17.25 12.75V13.5C17.25 14.8924 16.6969 16.2277 15.7123 17.2123C14.7277 18.1969 13.3924 18.75 12 18.75C10.6076 18.75 9.27225 18.1969 8.28768 17.2123C7.30312 16.2277 6.75 14.8924 6.75 13.5V12.75L17.25 12.75ZM8.32575 14.25C8.47172 14.9651 8.82456 15.6279 9.34835 16.1517C10.0516 16.8549 11.0054 17.25 12 17.25C12.9946 17.25 13.9484 16.8549 14.6516 16.1517C15.1754 15.6279 15.5283 14.9651 15.6742 14.25H8.32575Z" fill="black"/>
<path fill-rule="evenodd" clip-rule="evenodd" d="M12 2C6.47715 2 2 6.47715 2 12C2 17.5228 6.47715 22 12 22C17.5228 22 22 17.5228 22 12C22 6.47715 17.5228 2 12 2ZM4 12C4 7.58172 7.58172 4 12 4C16.4183 4 20 7.58172 20 12C20 16.4183 16.4183 20 12 20C7.58172 20 4 16.4183 4 12Z" fill="black"/>
</svg>
