<svg width="24" height="24" viewBox="0 0 24 24" fill="none" xmlns="http://www.w3.org/2000/svg">
<path fill-rule="evenodd" clip-rule="evenodd" d="M2 12C2 6.47715 6.47715 2 12 2C17.5228 2 22 6.47715 22 12C22 17.5228 17.5228 22 12 22C6.47715 22 2 17.5228 2 12ZM12 4C7.58172 4 4 7.58172 4 12C4 16.4183 7.58172 20 12 20C16.4183 20 20 16.4183 20 12C20 7.58172 16.4183 4 12 4Z" fill="black"/>
<path d="M7.21151 10.7372C7.3007 10.4696 7.4954 10.0549 7.76518 9.72324C8.04509 9.37909 8.29775 9.25 8.5 9.25C8.70225 9.25 8.95491 9.37909 9.23482 9.72324C9.5046 10.0549 9.6993 10.4696 9.78849 10.7372L11.2115 10.2628C11.0785 9.86373 10.8065 9.2784 10.3985 8.77676C10.0006 8.28758 9.36441 7.75 8.5 7.75C7.63559 7.75 6.99936 8.28758 6.60149 8.77676C6.19349 9.2784 5.92152 9.86373 5.78849 10.2628L7.21151 10.7372Z" fill="black"/>
<path d="M14.2115 10.7372C14.3007 10.4696 14.4954 10.0549 14.7652 9.72324C15.0451 9.37909 15.2977 9.25 15.5 9.25C15.7023 9.25 15.9549 9.37909 16.2348 9.72324C16.5046 10.0549 16.6993 10.4696 16.7885 10.7372L18.2115 10.2628C18.0785 9.86373 17.8065 9.2784 17.3985 8.77676C17.0006 8.28758 16.3644 7.75 15.5 7.75C14.6356 7.75 13.9994 8.28758 13.6015 8.77676C13.1935 9.2784 12.9215 9.86373 12.7885 10.2628L14.2115 10.7372Z" fill="black"/>
<path d="M1.52381 11.7831C1.64362 11.2439 2.1778 10.904 2.71693 11.0238L6.54115 11.8736L9.48724 11.4655C9.99714 11.307 11.1442 11 12 11C12.8558 11 14.0029 11.307 14.5128 11.4655L17.4589 11.8736L21.2831 11.0238C21.8222 10.904 22.3564 11.2439 22.4762 11.7831C22.596 12.3222 22.2561 12.8564 21.7169 12.9762L18.5 13.6911V19C18.5 19.5523 18.0523 20 17.5 20C16.9477 20 16.5 19.5523 16.5 19V13.7599L14.1979 13.441C14.1104 13.4289 14.0272 13.4095 13.9486 13.3846C13.4762 13.2353 12.5458 13 12 13C11.4542 13 10.5238 13.2353 10.0514 13.3846C9.9728 13.4095 9.88955 13.4289 9.80211 13.441L7.5 13.7599V19C7.5 19.5523 7.05229 20 6.5 20C5.94772 20 5.5 19.5523 5.5 19V13.6911L2.28307 12.9762C1.74394 12.8564 1.40401 12.3222 1.52381 11.7831Z" fill="black"/>
<path d="M8.75 15C8.75 14.5858 9.08579 14.25 9.5 14.25H14.5C14.9142 14.25 15.25 14.5858 15.25 15C15.25 15.4142 14.9142 15.75 14.5 15.75H9.5C9.08579 15.75 8.75 15.4142 8.75 15Z" fill="black"/>
<path d="M9.5 16.5C9.08579 16.5 8.75 16.8358 8.75 17.25C8.75 17.6642 9.08579 18 9.5 18H14.5C14.9142 18 15.25 17.6642 15.25 17.25C15.25 16.8358 14.9142 16.5 14.5 16.5H9.5Z" fill="black"/>
</svg>
