<svg width="24" height="24" viewBox="0 0 24 24" fill="none" xmlns="http://www.w3.org/2000/svg">
<path fill-rule="evenodd" clip-rule="evenodd" d="M2 12C2 6.47715 6.47715 2 12 2C17.5228 2 22 6.47715 22 12C22 17.5228 17.5228 22 12 22C6.47715 22 2 17.5228 2 12ZM12 4C7.58172 4 4 7.58172 4 12C4 16.4183 7.58172 20 12 20C16.4183 20 20 16.4183 20 12C20 7.58172 16.4183 4 12 4Z" fill="black"/>
<path fill-rule="evenodd" clip-rule="evenodd" d="M7.42743 15.2456C7.42743 13.8662 8.54562 12.748 9.92499 12.748H14.0605C15.4398 12.748 16.558 13.8662 16.558 15.2456C16.558 16.625 15.4398 17.7432 14.0605 17.7432H9.92499C8.54562 17.7432 7.42743 16.625 7.42743 15.2456ZM9 14.2847C9 14.0085 9.22386 13.7847 9.5 13.7847H14.5C14.7761 13.7847 15 14.0085 15 14.2847C15 14.5608 14.7761 14.7847 14.5 14.7847H9.5C9.22386 14.7847 9 14.5608 9 14.2847ZM9.5 15.7065C9.22386 15.7065 9 15.9304 9 16.2065C9 16.4827 9.22386 16.7065 9.5 16.7065H14.5C14.7761 16.7065 15 16.4827 15 16.2065C15 15.9304 14.7761 15.7065 14.5 15.7065H9.5Z" fill="black"/>
<path d="M8.75 11.25C9.57843 11.25 10.25 10.5784 10.25 9.75C10.25 8.92157 9.57843 8.25 8.75 8.25C7.92157 8.25 7.25 8.92157 7.25 9.75C7.25 10.5784 7.92157 11.25 8.75 11.25Z" fill="black"/>
<path d="M15.25 11.25C16.0784 11.25 16.75 10.5784 16.75 9.75C16.75 8.92157 16.0784 8.25 15.25 8.25C14.4216 8.25 13.75 8.92157 13.75 9.75C13.75 10.5784 14.4216 11.25 15.25 11.25Z" fill="black"/>
</svg>
