<svg width="24" height="24" viewBox="0 0 24 24" fill="none" xmlns="http://www.w3.org/2000/svg">
<path d="M9.25 9.7002C9.25 10.1144 8.91421 10.4502 8.5 10.4502C8.08579 10.4502 7.75 10.1144 7.75 9.7002C7.75 9.28598 8.08579 8.9502 8.5 8.9502C8.91421 8.9502 9.25 9.28598 9.25 9.7002ZM7.75 15C7.75 14.8619 7.86193 14.75 8 14.75H16C16.1381 14.75 16.25 14.8619 16.25 15C16.25 15.1381 16.1381 15.25 16 15.25H8C7.86193 15.25 7.75 15.1381 7.75 15ZM16.25 9.7002C16.25 10.1144 15.9142 10.4502 15.5 10.4502C15.0858 10.4502 14.75 10.1144 14.75 9.7002C14.75 9.28598 15.0858 8.9502 15.5 8.9502C15.9142 8.9502 16.25 9.28598 16.25 9.7002ZM2.75 12C2.75 6.89137 6.89137 2.75 12 2.75C17.1086 2.75 21.25 6.89137 21.25 12C21.25 17.1086 17.1086 21.25 12 21.25C6.89137 21.25 2.75 17.1086 2.75 12ZM12 3.25C7.16751 3.25 3.25 7.16751 3.25 12C3.25 16.8325 7.16751 20.75 12 20.75C16.8325 20.75 20.75 16.8325 20.75 12C20.75 7.16751 16.8325 3.25 12 3.25Z" fill="black" stroke="black" stroke-width="1.5"/>
</svg>
