<svg width="24" height="24" viewBox="0 0 24 24" fill="none" xmlns="http://www.w3.org/2000/svg">
<path fill-rule="evenodd" clip-rule="evenodd" d="M2 12C2 6.47715 6.47715 2 12 2C17.5228 2 22 6.47715 22 12C22 17.5228 17.5228 22 12 22C6.47715 22 2 17.5228 2 12ZM12 4C7.58172 4 4 7.58172 4 12C4 16.4183 7.58172 20 12 20C16.4183 20 20 16.4183 20 12C20 7.58172 16.4183 4 12 4Z" fill="black"/>
<path d="M9.38651 8.25258C9.57501 7.98383 9.67394 7.69383 9.70409 7.53971L11.1762 7.82768C11.1093 8.16984 10.9338 8.65878 10.6146 9.11391C10.291 9.57526 9.78665 10.0461 9.05511 10.2421C8.32357 10.4381 7.65141 10.2825 7.1405 10.0448C6.63648 9.81024 6.24004 9.47454 6.01099 9.21169L7.14188 8.22625C7.24506 8.34465 7.47574 8.54632 7.77335 8.68482C8.06409 8.82011 8.3681 8.87325 8.66688 8.79319C8.96566 8.71314 9.20237 8.51511 9.38651 8.25258Z" fill="black"/>
<path d="M9.48688 12.8991C10.1517 12.4136 11.0039 12 12 12C12.9961 12 13.8483 12.4136 14.5131 12.8991C15.1782 13.3848 15.7189 13.9881 16.1124 14.4806C16.5464 15.0239 16.4156 15.687 16.0892 16.0747C15.767 16.4574 15.1549 16.6955 14.5528 16.3944L13.5528 15.8944C13.1132 15.6746 12.823 15.5844 12.6164 15.5431C12.4103 15.5019 12.2484 15.5 12 15.5C11.7516 15.5 11.5897 15.5019 11.3836 15.5431C11.177 15.5844 10.8868 15.6746 10.4472 15.8944L9.44721 16.3944C8.84506 16.6955 8.23297 16.4574 7.9108 16.0747C7.58445 15.687 7.45359 15.0239 7.88761 14.4806C8.28113 13.9881 8.82181 13.3848 9.48688 12.8991Z" fill="black"/>
<path d="M14.2973 7.53971C14.3274 7.69383 14.4264 7.98383 14.6149 8.25258C14.799 8.51511 15.0357 8.71314 15.3345 8.79319C15.6333 8.87325 15.9373 8.82011 16.228 8.68482C16.5256 8.54632 16.7563 8.34465 16.8595 8.22625L17.9904 9.21169C17.7613 9.47454 17.3649 9.81024 16.8609 10.0448C16.35 10.2825 15.6778 10.4381 14.9463 10.2421C14.2147 10.0461 13.7104 9.57526 13.3868 9.11391C13.0676 8.65878 12.8921 8.16984 12.8252 7.82768L14.2973 7.53971Z" fill="black"/>
</svg>
