<svg width="24" height="24" viewBox="0 0 24 24" fill="none" xmlns="http://www.w3.org/2000/svg">
<path d="M9.70409 7.53955C9.67394 7.69367 9.575 7.98367 9.3865 8.25242C9.20237 8.51495 8.96565 8.71298 8.66687 8.79304C8.36809 8.8731 8.06408 8.81995 7.77335 8.68466C7.47573 8.54617 7.24505 8.34449 7.14188 8.22609L6.01099 9.21153C6.24003 9.47438 6.63647 9.81008 7.14049 10.0446C7.65141 10.2824 8.32356 10.4379 9.0551 10.2419C9.78664 10.0459 10.291 9.57511 10.6145 9.11376C10.9338 8.65862 11.1093 8.16968 11.1762 7.82752L9.70409 7.53955Z" fill="black"/>
<path d="M14.2973 7.53955C14.3274 7.69367 14.4264 7.98367 14.6149 8.25242C14.799 8.51495 15.0357 8.71298 15.3345 8.79304C15.6333 8.8731 15.9373 8.81995 16.228 8.68466C16.5256 8.54617 16.7563 8.34449 16.8595 8.22609L17.9904 9.21153C17.7613 9.47438 17.3649 9.81008 16.8609 10.0446C16.35 10.2824 15.6778 10.4379 14.9463 10.2419C14.2147 10.0459 13.7104 9.57511 13.3868 9.11376C13.0676 8.65862 12.8921 8.16968 12.8252 7.82752L14.2973 7.53955Z" fill="black"/>
<path fill-rule="evenodd" clip-rule="evenodd" d="M8.64124 12.6412C9.53204 11.7504 10.7402 11.25 12 11.25C13.2598 11.25 14.468 11.7504 15.3588 12.6412C16.2496 13.532 16.75 14.7402 16.75 16V16.75H7.25V16C7.25 14.7402 7.75045 13.532 8.64124 12.6412ZM12 12.75C11.138 12.75 10.3114 13.0924 9.7019 13.7019C9.27247 14.1313 8.97562 14.6686 8.83771 15.25H15.1623C15.0244 14.6686 14.7275 14.1313 14.2981 13.7019C13.6886 13.0924 12.862 12.75 12 12.75Z" fill="black"/>
<path fill-rule="evenodd" clip-rule="evenodd" d="M12 2C6.47715 2 2 6.47715 2 12C2 17.5228 6.47715 22 12 22C17.5228 22 22 17.5228 22 12C22 6.47715 17.5228 2 12 2ZM4 12C4 7.58172 7.58172 4 12 4C16.4183 4 20 7.58172 20 12C20 16.4183 16.4183 20 12 20C7.58172 20 4 16.4183 4 12Z" fill="black"/>
</svg>
