<svg width="24" height="24" viewBox="0 0 24 24" fill="none" xmlns="http://www.w3.org/2000/svg">
<path d="M18.8388 8.00021C16.6296 4.17386 11.7369 2.86286 7.91057 5.072C4.97164 6.7688 3.51662 10.0488 4.00082 13.2127C3.34822 14.2943 2.88745 15.1232 2.61854 15.6994C0.804317 11.1588 2.55186 5.85646 6.91058 3.33995C11.6935 0.578527 17.8094 2.21728 20.5708 7.00021C21.9363 9.36535 22.2259 12.0565 21.5914 14.5067C21.5287 14.3268 21.4564 14.1444 21.3746 13.9595C21.1095 13.3606 20.61 12.4528 19.876 11.2361C19.7704 10.129 19.4312 9.02627 18.8388 8.00021Z" fill="black"/>
<path d="M6.65341 20.1189C7.04772 19.6807 7.295 19.1766 7.39526 18.6064C9.85531 20.2853 13.1587 20.5172 15.9106 18.9284C16.2879 18.7106 16.6408 18.4666 16.9682 18.2002C17.018 18.2643 17.0706 18.3271 17.126 18.3887C17.5929 18.9074 18.1402 19.2051 18.768 19.2818C18.2157 19.8009 17.5954 20.2651 16.9106 20.6605C13.5259 22.6146 9.47361 22.3652 6.41501 20.3574C6.49675 20.2841 6.57622 20.2046 6.65341 20.1189Z" fill="black"/>
<path d="M9.70339 7.85612C9.67324 8.01025 9.57431 8.30024 9.38581 8.56899C9.20167 8.83152 8.96496 9.02955 8.66618 9.10961C8.3674 9.18967 8.06339 9.13653 7.77265 9.00124C7.47504 8.86274 7.24436 8.66106 7.14118 8.54266L6.01029 9.5281C6.23934 9.79096 6.63578 10.1267 7.1398 10.3612C7.65071 10.5989 8.32287 10.7545 9.05441 10.5585C9.78595 10.3625 10.2903 9.89168 10.6139 9.43033C10.9331 8.97519 11.1086 8.48625 11.1755 8.14409L9.70339 7.85612Z" fill="black"/>
<path d="M13.3861 9.43033C13.0669 8.97519 12.8914 8.48625 12.8245 8.14409L14.2966 7.85612C14.3267 8.01025 14.4257 8.30024 14.6142 8.56899C14.7983 8.83152 15.035 9.02955 15.3338 9.10961C15.6326 9.18967 15.9366 9.13653 16.2273 9.00124C16.5249 8.86274 16.7556 8.66107 16.8588 8.54266L17.9897 9.5281C17.7606 9.79096 17.3642 10.1267 16.8602 10.3612C16.3493 10.5989 15.6771 10.7545 14.9456 10.5585C14.214 10.3625 13.7097 9.89168 13.3861 9.43033Z" fill="black"/>
<path d="M17.761 17.6342C18.1328 18.0197 18.5797 18.2125 19.1017 18.2125C19.6237 18.2125 20.0706 18.0197 20.4424 17.6342C20.8141 17.2487 21 16.7852 21 16.2438C21 15.8009 20.8813 15.3293 20.6441 14.8289C20.4068 14.3286 19.8927 13.4878 19.1017 12.3066C18.3107 13.4878 17.7966 14.3286 17.5593 14.8289C17.322 15.3293 17.2034 15.8009 17.2034 16.2438C17.2034 16.7852 17.3893 17.2487 17.761 17.6342Z" fill="black"/>
<path d="M3.24195 19.4218C3.6137 19.8073 4.06059 20 4.58262 20C5.10465 20 5.55154 19.8073 5.92329 19.4218C6.29504 19.0363 6.48092 18.5728 6.48092 18.0314C6.48092 17.5885 6.36227 17.1169 6.12499 16.6165C5.8877 16.1162 5.37358 15.2754 4.58262 14.0942C3.79167 15.2754 3.27754 16.1162 3.04026 16.6165C2.80297 17.1169 2.68433 17.5885 2.68433 18.0314C2.68433 18.5728 2.8702 19.0363 3.24195 19.4218Z" fill="black"/>
<path fill-rule="evenodd" clip-rule="evenodd" d="M7.74692 16.6715V16C7.74692 14.872 8.19501 13.7902 8.99262 12.9926C9.79023 12.195 10.872 11.7469 12 11.7469C13.128 11.7469 14.2098 12.195 15.0074 12.9926C15.805 13.7902 16.2531 14.872 16.2531 16L16.2531 16.6715H7.74692ZM14.8315 15.3285C14.708 14.8079 14.4422 14.3268 14.0577 13.9423C13.512 13.3966 12.7718 13.09 12 13.09C11.2282 13.09 10.488 13.3966 9.94232 13.9423C9.55781 14.3268 9.29202 14.8079 9.16853 15.3285L14.8315 15.3285Z" fill="black"/>
</svg>
