<svg width="24" height="24" viewBox="0 0 24 24" fill="none" xmlns="http://www.w3.org/2000/svg">
<path d="M6.82918 8.16459C7.01442 7.79411 7.46493 7.64394 7.83541 7.82918L9.04656 8.43475C10.3364 9.07967 10.3364 10.9203 9.04656 11.5652L7.83541 12.1708C7.46493 12.3561 7.01442 12.2059 6.82918 11.8354C6.64394 11.4649 6.79411 11.0144 7.16459 10.8292L8.37574 10.2236C8.56 10.1315 8.56 9.86852 8.37574 9.77639L7.16459 9.17082C6.79411 8.98558 6.64394 8.53507 6.82918 8.16459Z" fill="black"/>
<path d="M17.1708 8.16459C17.3561 8.53507 17.2059 8.98558 16.8354 9.17082L15.6243 9.77639C15.44 9.86852 15.44 10.1315 15.6243 10.2236L16.8354 10.8292C17.2059 11.0144 17.3561 11.4649 17.1708 11.8354C16.9856 12.2059 16.5351 12.3561 16.1646 12.1708L14.9534 11.5652C13.6636 10.9203 13.6636 9.07967 14.9534 8.43475L16.1646 7.82918C16.5351 7.64394 16.9856 7.79411 17.1708 8.16459Z" fill="black"/>
<path fill-rule="evenodd" clip-rule="evenodd" d="M4.36121 18.4539C2.88813 16.7122 2 14.4598 2 12C2 6.47715 6.47715 2 12 2C17.5228 2 22 6.47715 22 12C22 14.4598 21.1119 16.7122 19.6388 18.4539C19.8254 18.6746 19.9772 18.9613 19.9978 19.3221C20.0364 19.9978 19.5942 20.4491 19.2692 20.6862C18.6186 21.1609 17.5232 21.4718 16.3114 21.6754C15.0454 21.8881 13.5376 21.9998 12.0037 22C10.4697 22.0002 8.96151 21.8888 7.69468 21.6764C6.48173 21.4731 5.38591 21.1625 4.73429 20.6888C4.40942 20.4526 3.96635 20.0031 4.00189 19.3282C4.02104 18.9645 4.17359 18.6758 4.36121 18.4539ZM4 12C4 7.58172 7.58172 4 12 4C16.4183 4 20 7.58172 20 12C20 14.0595 19.2217 15.9373 17.9433 17.3552C17.6612 17.2274 17.3456 17.1051 17 17.0033L17 15.7547C17 14.6039 16.3417 13.5545 15.3055 13.0536L14.4525 12.6414C14.2549 12.5365 14.0693 12.4474 13.893 12.3721C13.0313 12.0038 12.467 12 12 12L11.9865 12C11.6776 12 11.267 11.9999 10.7307 12.1499C10.5343 12.2048 10.3281 12.2776 10.107 12.3721C9.93075 12.4474 9.74509 12.5365 9.54746 12.6414L8.69449 13.0536C7.65834 13.5545 7 14.6039 7 15.7547V17.0035C6.65471 17.1053 6.33918 17.2275 6.05687 17.3554C4.77831 15.9374 4 14.0596 4 12ZM11.5 14.0254C11.6577 14.0011 11.8044 14 12 14C12.2076 14 12.342 14.0014 12.4964 14.025L12.5 14.0255V17C12.5 17.4142 12.8358 17.75 13.25 17.75C13.6642 17.75 14 17.4142 14 17V14.644L14.4352 14.8543C14.7806 15.0213 15 15.3711 15 15.7547L15 18.6536L15.843 18.7876C16.4914 18.8907 17.0421 19.1214 17.4705 19.3517C17.1143 19.471 16.6212 19.5953 15.9801 19.703C14.8445 19.8938 13.45 19.9998 12.0035 20C10.5569 20.0002 9.16189 19.8945 8.02535 19.7039C7.38185 19.5961 6.88684 19.4714 6.52954 19.3517C6.9582 19.1216 7.51014 18.8907 8.15734 18.7875L9 18.6533V15.7547C9 15.3711 9.21944 15.0213 9.56483 14.8543L10 14.644V18C10 18.4142 10.3358 18.75 10.75 18.75C11.1642 18.75 11.5 18.4142 11.5 18V14.0254Z" fill="black"/>
</svg>
