<svg width="24" height="24" viewBox="0 0 24 24" fill="none" xmlns="http://www.w3.org/2000/svg">
<path d="M15.5 11.2002C16.3284 11.2002 17 10.5286 17 9.7002C17 8.87177 16.3284 8.2002 15.5 8.2002C14.6716 8.2002 14 8.87177 14 9.7002C14 10.5286 14.6716 11.2002 15.5 11.2002Z" fill="black"/>
<path d="M9.60539 9.42541C9.7721 9.18773 9.85828 8.93089 9.88229 8.80811L11.8451 9.19206C11.772 9.56556 11.5838 10.0877 11.2428 10.5739C10.896 11.0684 10.347 11.5846 9.54337 11.8C8.7397 12.0153 8.00619 11.8427 7.45858 11.5878C6.92015 11.3373 6.49609 10.9792 6.24606 10.6923L7.75392 9.3784C7.83611 9.47273 8.03916 9.65207 8.30238 9.77455C8.55642 9.89277 8.79907 9.92884 9.02573 9.86811C9.25238 9.80737 9.44449 9.65481 9.60539 9.42541Z" fill="black"/>
<path d="M8.70712 15.7071C8.97714 15.4371 9.44845 15.25 9.99996 15.25C10.5515 15.25 11.0229 15.4371 11.2929 15.7071C11.9519 16.3661 12.8794 16.8131 13.7575 17.0326C14.6058 17.2447 15.6366 17.2997 16.4472 16.8944C16.9412 16.6475 17.1414 16.0468 16.8944 15.5528C16.6474 15.0588 16.0468 14.8586 15.5528 15.1056C15.3634 15.2003 14.8943 15.2553 14.2426 15.0923C13.6207 14.9369 13.0481 14.6339 12.7071 14.2929C11.9771 13.563 10.9485 13.25 10 13.25C9.05152 13.25 8.02286 13.5629 7.29288 14.2929C6.90236 14.6834 6.90237 15.3166 7.2929 15.7071C7.68343 16.0976 8.3166 16.0976 8.70712 15.7071Z" fill="black"/>
<path fill-rule="evenodd" clip-rule="evenodd" d="M12 2C6.47715 2 2 6.47715 2 12C2 17.5228 6.47715 22 12 22C17.5228 22 22 17.5228 22 12C22 6.47715 17.5228 2 12 2ZM4 12C4 7.58172 7.58172 4 12 4C16.4183 4 20 7.58172 20 12C20 16.4183 16.4183 20 12 20C7.58172 20 4 16.4183 4 12Z" fill="black"/>
</svg>
