<svg width="24" height="24" viewBox="0 0 24 24" fill="none" xmlns="http://www.w3.org/2000/svg">
<path d="M10.2133 10.3843C9.8859 10.6649 9.59031 11.0555 9.39443 11.4472C9.14744 11.9412 8.54676 12.1414 8.05279 11.8944C7.55881 11.6474 7.35858 11.0468 7.60557 10.5528C7.90969 9.94455 8.3641 9.33512 8.91171 8.86574C9.44796 8.4061 10.1714 8 11 8C11.5523 8 12 8.44772 12 9C12 9.55228 11.5523 10 11 10C10.8286 10 10.552 10.0939 10.2133 10.3843Z" fill="black"/>
<path fill-rule="evenodd" clip-rule="evenodd" d="M20 13.0331V13.05C21.1411 13.2816 22 14.2905 22 15.5C22 16.8807 20.8807 18 19.5 18H4.5C3.11929 18 2 16.8807 2 15.5C2 14.3144 2.82533 13.3215 3.93281 13.0646C3.90772 8.68095 7.46214 5 11.9669 5C16.4035 5 20 8.59653 20 13.0331ZM5.93302 13H12V15H4.5C4.22386 15 4 15.2239 4 15.5C4 15.7761 4.22386 16 4.5 16H19.5C19.7761 16 20 15.7761 20 15.5C20 15.2239 19.7761 15 19.5 15H16V13H17.9999C17.9821 9.68324 15.2879 7 11.9669 7C8.60316 7 5.94497 9.73279 5.93302 13Z" fill="black"/>
</svg>
