<svg width="24" height="24" viewBox="0 0 24 24" fill="none" xmlns="http://www.w3.org/2000/svg">
<path d="M10.5303 15.5304C10.7974 15.2633 10.9083 14.9471 10.9566 14.6811C11.0002 14.4414 11.0001 14.1949 11 14.0231L11 14C11 13.7975 11.0022 13.6804 11.0191 13.5873C11.0263 13.5479 11.0335 13.5294 11.0366 13.523C11.0353 13.5248 11.0333 13.5274 11.0303 13.5304L9.96967 12.4697C9.7026 12.7368 9.59172 13.0529 9.54334 13.319C9.49976 13.5587 9.49989 13.8052 9.49999 13.977L9.49999 14C9.49999 14.1322 9.36918 14.2176 9.2486 14.1634C9.18506 14.1349 9.11691 14.1036 9.04319 14.0698C8.99252 14.0465 8.93846 14.0217 8.88224 13.9961C8.58862 13.8624 8.2065 13.6939 7.83334 13.6211C7.46133 13.5485 6.90347 13.5359 6.46968 13.9697C6.10194 14.3374 6.08674 14.8167 6.13254 15.1374C6.18002 15.4697 6.31248 15.802 6.45418 16.0854C6.73827 16.6536 7.15965 17.2203 7.46967 17.5304L8.53033 16.4697C8.34036 16.2797 8.01174 15.8465 7.79583 15.4146C7.73691 15.2968 7.84562 15.1825 7.96738 15.2329C8.05649 15.2697 8.15392 15.3126 8.26055 15.3612C8.30148 15.3799 8.34457 15.3997 8.38931 15.4204C8.63617 15.5342 8.93342 15.6713 9.19627 15.7524C9.3559 15.8017 9.56086 15.85 9.77849 15.8435C10.0102 15.8365 10.2966 15.7641 10.5303 15.5304Z" fill="black"/>
<path d="M16.7882 9.50128C16.418 10.1426 15.8485 10.5724 15.2717 10.7128C15.2661 10.8059 15.258 10.9006 15.2461 10.9984C15.2403 11.0458 15.2378 11.0976 15.2352 11.1525C15.2271 11.3191 15.2177 11.5146 15.1107 11.7054C14.9885 11.9236 14.9373 11.9788 14.7107 12.2054L13.7107 11.2054L13.658 11.1351V11.0899C13.6861 10.8599 13.6992 10.5167 13.7063 10.172C13.2723 9.56459 13.2674 8.59953 13.7571 7.75128C14.3785 6.67512 15.5607 6.19447 16.3977 6.67772C17.2347 7.16097 17.4096 8.42512 16.7882 9.50128Z" fill="black"/>
<path fill-rule="evenodd" clip-rule="evenodd" d="M12 22C17.5228 22 22 17.5228 22 12C22 6.47715 17.5228 2 12 2C6.47715 2 2 6.47715 2 12C2 17.5228 6.47715 22 12 22ZM12 20C13.8523 20 15.5576 19.3705 16.9136 18.3137L5.68634 7.08639C4.62954 8.44237 4 10.1477 4 12C4 16.4183 7.58172 20 12 20ZM7.10233 5.67395L18.326 16.8977C19.3754 15.5443 20 13.8451 20 12C20 7.58172 16.4183 4 12 4C10.1549 4 8.45572 4.62462 7.10233 5.67395Z" fill="black"/>
</svg>
