<svg width="24" height="24" viewBox="0 0 24 24" fill="none" xmlns="http://www.w3.org/2000/svg">
<path fill-rule="evenodd" clip-rule="evenodd" d="M19 9.87398C20.7252 9.42994 22 7.86384 22 6C22 3.79086 20.2091 2 18 2C15.7909 2 14 3.79086 14 6C14 7.86384 15.2748 9.42994 17 9.87398V11H15.5V13H17V14.5H19V13H20.5V11H19V9.87398ZM18 8C19.1046 8 20 7.10457 20 6C20 4.89543 19.1046 4 18 4C16.8954 4 16 4.89543 16 6C16 7.10457 16.8954 8 18 8Z" fill="black"/>
<path fill-rule="evenodd" clip-rule="evenodd" d="M7.5 4.5C7.5 3.67157 8.17157 3 9 3C9.82843 3 10.5 3.67157 10.5 4.5V5.29076C11.9659 5.88415 13 7.32131 13 9V18H13.5C14.3284 18 15 18.6716 15 19.5C15 20.3284 14.3284 21 13.5 21H4.5C3.67157 21 3 20.3284 3 19.5C3 18.6716 3.67157 18 4.5 18H5V9C5 7.32131 6.03408 5.88415 7.5 5.29076V4.5ZM11 18V9C11 7.89543 10.1046 7 9 7C7.89543 7 7 7.89543 7 9V18H11Z" fill="black"/>
</svg>
