<svg width="24" height="24" viewBox="0 0 24 24" fill="none" xmlns="http://www.w3.org/2000/svg">
<path d="M12.5021 4.95232L12.9263 4.33384L11.6894 3.48535L11.2651 4.10383C10.6028 5.0694 10.4861 5.98515 10.6186 6.74603C10.7464 7.48011 11.0966 8.01445 11.267 8.26047L11.2702 8.26521C11.4239 8.48717 11.5905 8.72772 11.6511 9.06918C11.7077 9.38862 11.6841 9.88838 11.2427 10.6145L10.8531 11.2554L12.1349 12.0345L12.5245 11.3936C13.1287 10.3996 13.2568 9.53333 13.128 8.80716C13.0092 8.13771 12.6813 7.66675 12.522 7.438L12.5002 7.40662C12.367 7.21417 12.1675 6.89709 12.0964 6.48871C12.0299 6.10714 12.0651 5.58939 12.5021 4.95232Z" fill="black"/>
<path d="M4.07367 14.0024V14.0039H3C2.44772 14.0039 2 14.4516 2 15.0039C2 15.5562 2.44772 16.0039 3 16.0039H4.07367C4.07578 18.7635 6.31355 21 9.07367 21H15C17.7601 21 19.9979 18.7635 20 16.0039H21C21.5523 16.0039 22 15.5562 22 15.0039C22 14.4516 21.5523 14.0039 21 14.0039H20V14.0024H4.07367Z" fill="black"/>
<path d="M8.13546 5.89048L7.71122 6.50896C7.40635 6.95341 7.38946 7.29888 7.43199 7.54315C7.4792 7.81422 7.61261 8.02897 7.70937 8.16872L7.72678 8.19375C7.84944 8.36971 8.11825 8.75536 8.21554 9.30374C8.32208 9.90425 8.21219 10.6063 7.73363 11.3936L7.34408 12.0345L6.06229 11.2554L6.45185 10.6145C6.76756 10.0951 6.77298 9.75953 6.7386 9.56577C6.69989 9.34755 6.59421 9.19316 6.47611 9.02258C6.34226 8.82925 6.05814 8.39723 5.95423 7.80047C5.84565 7.17689 5.94406 6.43343 6.47426 5.66047L6.8985 5.04199L8.13546 5.89048Z" fill="black"/>
<path d="M17.2878 6.50896L17.712 5.89048L16.475 5.04199L16.0508 5.66047C15.5206 6.43343 15.4222 7.17689 15.5308 7.80047C15.6347 8.39723 15.9188 8.82925 16.0527 9.02258C16.1708 9.19316 16.2764 9.34755 16.3151 9.56577C16.3495 9.75953 16.3441 10.0951 16.0284 10.6145L15.6388 11.2554L16.9206 12.0345L17.3102 11.3936C17.7887 10.6063 17.8986 9.90425 17.7921 9.30374C17.6948 8.75536 17.426 8.36971 17.3033 8.19375L17.2859 8.16872C17.1892 8.02897 17.0557 7.81422 17.0085 7.54315C16.966 7.29888 16.9829 6.95341 17.2878 6.50896Z" fill="black"/>
</svg>
