<svg width="24" height="24" viewBox="0 0 24 24" fill="none" xmlns="http://www.w3.org/2000/svg">
<path fill-rule="evenodd" clip-rule="evenodd" d="M5.6475 2.34674C6.01937 2.12641 6.45299 2 6.91601 2C7.37892 2 7.81245 2.12635 8.18427 2.34659C8.9151 1.96863 9.81625 1.96012 10.5811 2.40357C11.7768 3.09686 12.1865 4.63235 11.4961 5.83318L10.9961 6.70289C10.9718 6.74512 10.9465 6.78637 10.9202 6.82663C11.5947 7.45922 11.9758 8.39921 11.8386 9.41522C11.6821 10.5745 11.4004 12.4945 11.0536 14.0525C11.0359 14.0516 11.018 14.0511 11 14.0511H7.99999C7.44771 14.0511 6.99999 14.5007 6.99999 15.0554C6.99999 15.61 7.44771 16.0596 7.99999 16.0596H10.5181C9.90888 18.0689 9.10022 20.1916 8.91079 20.6837C8.23524 22.4387 5.76477 22.4387 5.08922 20.6837C4.85 20.0623 3.6233 16.8405 3.05784 14.5306C2.87336 13.777 2.70431 12.8972 2.55882 12.0426H5.99999C6.55228 12.0426 6.99999 11.593 6.99999 11.0383C6.99999 10.4837 6.55228 10.0341 5.99999 10.0341H2.24712C2.21542 9.811 2.18676 9.60312 2.16139 9.41522C2.03117 8.45086 2.36785 7.55499 2.9792 6.92547C2.92797 6.85462 2.87991 6.7804 2.83535 6.70289L2.33535 5.83318C1.645 4.63235 2.05469 3.09686 3.25042 2.40357C4.01533 1.96006 4.91661 1.96864 5.6475 2.34674ZM6.91601 6.01704C6.9938 6.01704 7.0623 6.00054 7.12282 5.97275L7.87926 5.62532L8.65794 5.91906C8.88131 6.00332 9.14102 5.91269 9.26408 5.69863L9.76408 4.82892C9.90215 4.58875 9.82021 4.28166 9.58107 4.143C9.42992 4.05536 9.25153 4.05385 9.09992 4.13225L8.11877 4.63967L7.1682 4.0766C7.09577 4.0337 7.01186 4.00852 6.91601 4.00852C6.82014 4.00852 6.73621 4.03371 6.66377 4.07663L5.71299 4.63997L4.73162 4.13228C4.58 4.05385 4.40158 4.05535 4.25042 4.143C4.01127 4.28166 3.92933 4.58875 4.0674 4.82892L4.5674 5.69863C4.69047 5.91271 4.95022 6.00334 5.1736 5.91904L5.95249 5.6251L6.70914 5.97272C6.76968 6.00053 6.8382 6.01704 6.91601 6.01704Z" fill="black"/>
<path fill-rule="evenodd" clip-rule="evenodd" d="M17.9141 9.93904L17.9122 9.94359L17.9003 9.97154C17.8894 9.99763 17.8728 10.0379 17.8526 10.0898C17.8117 10.1941 17.757 10.342 17.7024 10.5133C17.5864 10.8777 17.5 11.2605 17.5 11.5405C17.5 11.8205 17.5864 12.2032 17.7024 12.5677C17.757 12.7389 17.8117 12.8869 17.8526 12.9912C17.8728 13.043 17.8894 13.0833 17.9003 13.1094L17.9122 13.1374L17.9141 13.1419C17.9141 13.1419 17.914 13.1417 17 13.549C16.0859 13.9563 16.0858 13.9561 16.0858 13.9561L16.0846 13.9534L16.0826 13.9488L16.0765 13.9348C16.0716 13.9233 16.0649 13.9075 16.0567 13.8879C16.0402 13.8487 16.0177 13.7937 15.9911 13.7258C15.9382 13.5905 15.868 13.4008 15.7975 13.1795C15.6636 12.7589 15.5 12.1374 15.5 11.5405C15.5 10.9435 15.6636 10.322 15.7975 9.90143C15.868 9.68015 15.9382 9.49042 15.9911 9.35514C16.0177 9.28721 16.0402 9.23225 16.0567 9.19303C16.0649 9.1734 16.0716 9.15767 16.0765 9.14616L16.0826 9.1321L16.0846 9.12752L16.0858 9.12489C16.3098 8.61792 16.9008 8.38905 17.4056 8.61401C17.9102 8.8389 18.1378 9.43219 17.9141 9.93904Z" fill="black"/>
<path d="M19.0858 9.4458C18.3787 10.1559 18.3786 11.5762 18.3786 11.5762C18.3786 11.5762 19.7929 11.5762 20.5 10.866C21.2071 10.1559 21.2071 8.73568 21.2071 8.73568C21.2071 8.73568 19.7929 8.73568 19.0858 9.4458Z" fill="black"/>
<path fill-rule="evenodd" clip-rule="evenodd" d="M22 16.241C22 19.0297 19.6426 21.081 17 21.081C14.3573 21.081 12 19.0297 12 16.241L12 16.2108C11.9995 15.5696 11.9981 13.7026 13.6884 12.6796C14.7081 12.0625 15.7683 12.1155 16.6072 12.43C16.7432 12.481 16.8742 12.5388 17 12.6017C17.1258 12.5388 17.2568 12.4809 17.3928 12.43C18.2318 12.1155 19.2919 12.0625 20.3115 12.6796C22.0018 13.7026 22.0005 15.5696 22 16.2108L22 16.241ZM16.9586 17.3585C16.4304 17.5201 16.1325 18.0811 16.2933 18.6116C16.4541 19.1422 17.0127 19.4415 17.5411 19.28L17.5423 19.2796L17.5438 19.2792L17.5475 19.278L17.5581 19.2747L17.5916 19.2639C17.619 19.255 17.6565 19.2424 17.7019 19.2264C17.7923 19.1946 17.917 19.1481 18.058 19.0882C18.3198 18.9769 18.718 18.7864 19.0431 18.5124C19.3683 18.2384 19.6243 17.8777 19.7788 17.6381C19.862 17.5091 19.9293 17.3938 19.9762 17.3099C19.9998 17.2678 20.0186 17.2328 20.0322 17.2073L20.0485 17.1761L20.0536 17.1661L20.0554 17.1627L20.0567 17.1602C20.3068 16.6657 20.1103 16.0612 19.6179 15.81C19.1261 15.5592 18.5251 15.7556 18.2744 16.2488L18.2739 16.2499L18.2666 16.2638C18.2595 16.2771 18.248 16.2985 18.2326 16.3261C18.2014 16.3818 18.1559 16.4598 18.1002 16.5462C17.9769 16.7373 17.8505 16.8955 17.7576 16.9738C17.6646 17.0521 17.4876 17.1497 17.2787 17.2384C17.1844 17.2785 17.0999 17.31 17.0399 17.3311C17.0102 17.3416 16.9872 17.3492 16.9729 17.3539L16.9586 17.3585Z" fill="black"/>
</svg>
