<svg width="24" height="24" viewBox="0 0 24 24" fill="none" xmlns="http://www.w3.org/2000/svg">
<path fill-rule="evenodd" clip-rule="evenodd" d="M8.71327 4.04146L8.13264 1.87451L3.73438 4.77848L5.02713 9.6031C4.36634 9.84144 3.86978 10.472 4.03042 11.2732L5.83485 21.1792C5.92143 21.6545 6.3355 22 6.81866 22H17.1813C17.6645 22 18.0786 21.6545 18.1652 21.1792L19.9696 11.2732C20.1459 10.3936 19.5302 9.71969 18.7747 9.54461L19.536 2.04227L14.3827 1.98657L13.974 5.28788L13 5.61255V2.61255L8.71327 4.04146ZM16.7452 10.2627C16.5099 10.4123 16.26 10.5656 16 10.7172V4.61255L15.9858 4.61727L16.0402 4.0046L17.2016 4.01715L16.7452 10.2627ZM14 11.715C13.6504 11.855 13.3148 11.9678 13 12.0485V7.72073L14 7.3874V11.715ZM11 12.0485V5.3874L10 5.72073V11.715C10.3496 11.855 10.6852 11.9678 11 12.0485ZM8 10.7172V9.1069L6.91897 5.07245L6.03932 5.65324L7.27843 10.2777C7.50683 10.4226 7.7487 10.5707 8 10.7172Z" fill="black"/>
</svg>
