<svg width="24" height="24" viewBox="0 0 24 24" fill="none" xmlns="http://www.w3.org/2000/svg">
<path d="M12.2675 19.3131L13.5 20.5L14.7325 19.3221L14.7661 19.2898C19.1248 15.0997 22 12.3357 22 8.9455C22 6.17602 19.943 4 17.325 4C15.846 4 14.4265 4.72834 13.5 5.87929C12.5735 4.72834 11.154 4 9.675 4C7.057 4 5 6.17602 5 8.9455C5 10.004 5.28027 11.0014 5.79846 12H8.87533L11.167 8.30929L12.7933 12.6461L14.6893 10.75H18V12.25H15.3107L12.2067 15.3539L10.833 11.6907L9.70958 13.5H6.74412C8.01783 15.2365 9.92604 17.067 12.2567 19.3027L12.2675 19.3131Z" fill="black"/>
<path fill-rule="evenodd" clip-rule="evenodd" d="M7 13.5H2V12H6L7 13.5Z" fill="black"/>
</svg>
