<svg width="24" height="24" viewBox="0 0 24 24" fill="none" xmlns="http://www.w3.org/2000/svg">
<path fill-rule="evenodd" clip-rule="evenodd" d="M14.9481 4C14.892 4 14.8361 4.00267 14.7808 4.00791C14.3685 2.83766 13.2635 2 11.9651 2C10.6686 2 9.56498 2.83521 9.15123 4.00278C9.11826 4.00093 9.08512 4 9.05186 4H6C4.89543 4 4 4.89543 4 6V20C4 21.1046 4.89543 22 6 22H18C19.1046 22 20 21.1046 20 20V6C20 4.89543 19.1046 4 18 4H14.9481ZM11.218 4.46715C11.218 5.23161 11.9651 5.24899 11.9651 5.24899C12.6948 5.24899 12.7122 4.51927 12.7122 4.51927C12.7122 3.73743 11.9651 3.73743 11.9651 3.73743C11.218 3.73743 11.218 4.46715 11.218 4.46715ZM9 7V9H7V11H9V13H11V11H13V9H11V7H9ZM17 17H7V15H17V17ZM7 20H17V18H7V20Z" fill="black"/>
</svg>
