<svg width="24" height="24" viewBox="0 0 24 24" fill="none" xmlns="http://www.w3.org/2000/svg">
<path d="M21 11.25H19V10.5C19 9.80964 18.4404 9.25 17.75 9.25H15.75C15.0596 9.25 14.5 9.80964 14.5 10.5V11.25H12.75L12.75 8.25H10.75V6.25H12.75V3H20C20.5523 3 21 3.44772 21 4V11.25Z" fill="black"/>
<path d="M11.25 3V5H10.5C10.4569 5 10.4142 5.00573 10.3722 5.01C9.74187 5.07401 9.25 5.85279 9.25 6.5V8.25C9.25 8.33629 9.25874 8.42055 9.2754 8.50192C9.39195 9.07152 9.89594 9.5 10.5 9.5H11.25V11.25L8.25 11.25L8.25 13.25L6.25 13.25L6.25 11.25H3V4C3 3.44772 3.44772 3 4 3H11.25Z" fill="black"/>
<path d="M3 12.75L4.75 12.75L4.75 13.5C4.75 14.1904 5.30964 14.75 6 14.75H8.5C9.19036 14.75 9.75 14.1904 9.75 13.5V12.75L11.25 12.75V16H13.25V18H11.25L11.25 21H4C3.44772 21 3 20.5523 3 20V12.75Z" fill="black"/>
<path d="M12.75 21L12.75 19H13.5C14.1472 19 14.6795 18.5081 14.7435 17.8778C14.7478 17.8358 14.75 17.7931 14.75 17.75V16C14.75 15.3096 14.1904 14.75 13.5 14.75H12.75V12.75H15.75V10.75L17.75 10.75L17.75 12.75H21V20C21 20.5523 20.5523 21 20 21H12.75Z" fill="black"/>
</svg>
