<svg width="24" height="24" viewBox="0 0 24 24" fill="none" xmlns="http://www.w3.org/2000/svg">
<path d="M15.6908 3.25345C17.1884 3.30539 18.8559 4.06126 19.6814 5.25119C20.3733 6.2471 20.7277 7.18035 20.823 8.12489C20.9186 9.07163 20.7558 10.0484 20.385 11.1342C20.3632 11.198 20.3425 11.2326 20.3296 11.25H16.5135V12.889C16.5135 12.9954 16.4266 13.0834 16.3174 13.0834H15.425C15.3157 13.0834 15.2288 12.9954 15.2288 12.889V11.2569L12.6068 11.2569L12.6068 10.0278H12.7479C13.6243 10.0278 14.3364 9.31987 14.3364 8.4445V7.55561C14.3364 6.68024 13.6243 5.97228 12.7479 5.97228H12.6056L12.5999 4.79873V3.86886C13.4671 3.51661 14.3557 3.29635 15.2372 3.25455C15.3883 3.24891 15.5395 3.24848 15.6908 3.25345Z" fill="black"/>
<path d="M3.15335 8.20795C3.2053 6.70531 3.96139 5.0326 5.15138 4.20454C7.11046 2.83938 9.39927 3.02411 10.9677 4.25225C11.0319 4.3025 11.0948 4.35451 11.1563 4.40823L11.1499 5.78573V7.38197H12.7889C12.8946 7.38197 12.9833 7.46877 12.9833 7.57949V8.47454C12.9833 8.58527 12.8946 8.67207 12.7889 8.67207H11.1568L11.1568 11.3019L9.92774 11.3019V11.1597C9.92774 10.2818 9.22048 9.56713 8.3444 9.56714H7.45551C6.57944 9.56714 5.87218 10.2818 5.87218 11.1597V11.3032L4.69863 11.3089H3.76895C3.41661 10.4389 3.19627 9.54737 3.15445 8.66295C3.14882 8.51141 3.14838 8.35973 3.15335 8.20795Z" fill="black"/>
<path d="M11.143 12.7523H8.53885V11.1597C8.53885 11.049 8.45017 10.9622 8.3444 10.9622H7.45552C7.34975 10.9622 7.26107 11.049 7.26107 11.1597V12.8228H5.1676L4.44318 12.8184C6.05696 15.6681 8.83731 18.2127 11.1471 20.199L11.143 19.4151L11.143 18.1226H11.0111C10.135 18.1226 9.42774 17.4079 9.42774 16.53V15.635C9.42774 14.757 10.135 14.0424 11.0111 14.0424H11.143L11.143 12.7523Z" fill="black"/>
<path d="M12.6572 19.4273L12.653 20.208C14.9698 18.236 17.7533 15.6757 19.3646 12.8181L18.639 12.8225L17.928 12.8225V13.0142C17.928 14.2258 16.9095 14.5376 16.4002 14.5421H15.4558C14.5797 14.5421 13.8725 13.8274 13.8725 12.9495V12.752L12.5947 12.752V15.4371H11.0113C10.9056 15.4371 10.8169 15.5239 10.8169 15.6346V16.5297C10.8169 16.6404 10.9056 16.7272 11.0113 16.7272L12.6572 16.7272V19.4273Z" fill="black"/>
</svg>
