<svg width="24" height="24" viewBox="0 0 24 24" fill="none" xmlns="http://www.w3.org/2000/svg">
<path fill-rule="evenodd" clip-rule="evenodd" d="M11.8458 3.07143C10.8827 3.14778 9.98176 3.38916 9.25332 3.75595C8.7193 4.02484 8.19152 4.40659 7.8487 4.91509C7.74827 4.91796 7.64691 4.92341 7.54485 4.9315C6.74254 4.99511 5.97958 5.21615 5.39173 5.5689C4.86273 5.88633 4.18177 6.50779 4.25495 7.4308C4.32812 8.35382 5.09849 8.86021 5.6709 9.09033C6.30698 9.34605 7.09524 9.44412 7.89756 9.38051C8.27889 9.35028 8.66023 9.28331 9.02135 9.17973L12.3955 11.7033L15.794 13.2211C16.0057 13.7063 16.0455 13.8637 16.197 14.4644C16.2714 14.7593 16.3727 15.161 16.5345 15.7606C16.7794 16.668 16.8988 17.718 16.9545 18.5656C16.982 18.9843 16.9934 19.343 16.9979 19.5959C17.0001 19.7221 17.0006 19.8215 17.0006 19.8883C17.0006 19.9216 17.0004 19.9468 17.0003 19.963L17.0001 19.9805L17.0001 19.9846L16.9842 20.984L18.9839 21.0158L18.9998 20.0157L18.9999 20.0123L19 20.0051L19.0002 19.9799C19.0004 19.9586 19.0006 19.9281 19.0006 19.8892C19.0006 19.8113 19 19.6998 18.9976 19.5604C18.9926 19.282 18.9802 18.8908 18.9502 18.4344C18.8909 17.5321 18.7603 16.332 18.4654 15.2395C18.3269 14.7264 18.2326 14.3526 18.1578 14.0559C17.9795 13.349 17.9114 13.0795 17.6198 12.4066L18.3721 10.0557C19.8963 9.74251 21.2577 8.52863 21.1255 6.861C20.9796 5.02114 19.1255 4.01315 17.4224 4.14817C17.0018 4.18151 16.5986 4.27826 16.2277 4.42958C15.8757 3.98118 15.3653 3.67086 14.8912 3.47595C14.0406 3.12617 12.9623 2.98291 11.8458 3.07143ZM17.9999 20C18.9998 20.0159 18.9998 20.0157 18.9998 20.0157L17.9999 20ZM16.3139 9.92529C16.0206 9.82584 15.7415 9.69196 15.4876 9.5255C15.3811 9.93531 15.1893 10.3161 14.9275 10.6437L15.9394 11.0957L16.3139 9.92529ZM13.5858 8.50304C13.1749 8.60623 12.7401 8.67735 12.293 8.7128C12.1169 8.72676 11.9422 8.73494 11.7694 8.73748L13.0182 9.67147C13.362 9.50577 13.5816 9.15875 13.584 8.77703L13.5858 8.50304Z" fill="black"/>
<path d="M6.49993 14.4999C6.49993 15.0522 6.05221 15.4999 5.49993 15.4999C4.94764 15.4999 4.49993 15.0522 4.49993 14.4999C4.49993 13.9476 4.94764 13.4999 5.49993 13.4999C6.05221 13.4999 6.49993 13.9476 6.49993 14.4999Z" fill="black"/>
<path d="M8.99993 12.4999C9.55221 12.4999 9.99993 12.0522 9.99993 11.4999C9.99993 10.9476 9.55221 10.4999 8.99993 10.4999C8.44764 10.4999 7.99993 10.9476 7.99993 11.4999C7.99993 12.0522 8.44764 12.4999 8.99993 12.4999Z" fill="black"/>
<path d="M13.9999 14.4999C13.9999 15.0522 14.4476 15.4999 14.9999 15.4999C15.5522 15.4999 15.9999 15.0522 15.9999 14.4999C15.9999 13.9476 15.5522 13.4999 14.9999 13.4999C14.4476 13.4999 13.9999 13.9476 13.9999 14.4999Z" fill="black"/>
<path d="M6.49993 16.9999C6.49993 16.4476 6.05221 15.9999 5.49993 15.9999C4.94764 15.9999 4.49993 16.4476 4.49993 16.9999V18.9999C4.49993 20.1045 5.39536 20.9999 6.49993 20.9999H8.49993C9.05221 20.9999 9.49993 20.5522 9.49993 19.9999C9.49993 19.4476 9.05221 18.9999 8.49993 18.9999H6.49993V16.9999Z" fill="black"/>
<path d="M8.99993 12.9999C9.55221 12.9999 9.99993 13.4476 9.99993 13.9999V15.9999H11.9999C12.5522 15.9999 12.9999 16.4476 12.9999 16.9999C12.9999 17.5522 12.5522 17.9999 11.9999 17.9999H9.99993C8.89536 17.9999 7.99993 17.1045 7.99993 15.9999V13.9999C7.99993 13.4476 8.44764 12.9999 8.99993 12.9999Z" fill="black"/>
<path d="M13.9999 16.9999C13.9999 16.4476 14.4476 15.9999 14.9999 15.9999C15.5522 15.9999 15.9999 16.4476 15.9999 16.9999V18.9999C15.9999 20.1045 15.1045 20.9999 13.9999 20.9999H11.9999C11.4476 20.9999 10.9999 20.5522 10.9999 19.9999C10.9999 19.4476 11.4476 18.9999 11.9999 18.9999H13.9999V16.9999Z" fill="black"/>
</svg>
