<svg width="24" height="24" viewBox="0 0 24 24" fill="none" xmlns="http://www.w3.org/2000/svg">
<path fill-rule="evenodd" clip-rule="evenodd" d="M18.8851 9.08616C18.9529 8.76725 19.0001 8.4024 19.0001 8C19.0001 4.68628 15.8661 2 12.0001 2C8.13407 2 5.00006 4.68628 5.00006 8C5.00006 8.71842 5.11403 9.40724 5.37111 10.0456C5.49418 10.3512 5.5834 10.6724 5.5834 11.0018V12.0417C5.5834 12.8471 6.23631 13.5 7.04173 13.5H7.25006C7.94042 13.5 8.50006 14.0596 8.50006 14.75C8.50006 15.4404 9.05971 16 9.75006 16H14.2501C14.9404 16 15.5001 15.4404 15.5001 14.75C15.5001 14.0596 16.0597 13.5 16.7501 13.5H16.9584C17.7638 13.5 18.4167 12.8471 18.4167 12.0417V12C18.4167 11.2602 18.653 10.1643 18.8261 9.36115C18.8469 9.26491 18.8667 9.17287 18.8851 9.08616ZM9.50006 11C10.3285 11 11.0001 10.3284 11.0001 9.5C11.0001 8.67157 10.3285 8 9.50006 8C8.67164 8 8.00006 8.67157 8.00006 9.5C8.00006 10.3284 8.67164 11 9.50006 11ZM16.0001 9.5C16.0001 10.3284 15.3285 11 14.5001 11C13.6716 11 13.0001 10.3284 13.0001 9.5C13.0001 8.67157 13.6716 8 14.5001 8C15.3285 8 16.0001 8.67157 16.0001 9.5Z" fill="black"/>
<path d="M4.72534 17.9615L8.36001 19L4.72534 20.0385L5.27478 21.9615L12.0001 20.04L18.7253 21.9615L19.2748 20.0385L15.6401 19L19.2748 17.9615L18.7253 16.0385L12.0001 17.96L5.27478 16.0385L4.72534 17.9615Z" fill="black"/>
</svg>
