<svg width="24" height="24" viewBox="0 0 24 24" fill="none" xmlns="http://www.w3.org/2000/svg">
<path d="M12.5 13.75C12.5 12.3814 13.4802 11 15 11C16.5198 11 17.5 12.3814 17.5 13.75C17.5 15.1186 16.5198 16.5 15 16.5C13.4802 16.5 12.5 15.1186 12.5 13.75Z" fill="black"/>
<path d="M6.5 13.75C6.5 12.3814 7.48022 11 9 11C10.5198 11 11.5 12.3814 11.5 13.75C11.5 15.1186 10.5198 16.5 9 16.5C7.48022 16.5 6.5 15.1186 6.5 13.75Z" fill="black"/>
<path d="M11.2969 19C10.8363 19 10.5 18.5852 10.5 18.1379C10.5 18.0177 10.5217 17.9027 10.56 17.7934C10.5787 17.7399 10.6013 17.6878 10.6273 17.6372C10.9896 16.9307 12 16.5 12 16.5C12 16.5 13.5 17.1806 13.5 18.1379C13.5 18.5852 13.1637 19 12.7031 19C12.3995 19 12.1703 18.832 12.0226 18.5889C12.0124 18.5721 11.9876 18.5721 11.9774 18.5889C11.8297 18.8321 11.6005 19 11.2969 19Z" fill="black"/>
<path fill-rule="evenodd" clip-rule="evenodd" d="M4 16H4.01953V16.6938L4 16.6974V17.3257C4 17.9606 4.62205 18.3996 5.20463 18.652C5.49603 18.7782 5.75023 18.9894 5.93958 19.2627C6.12894 19.5359 6.24622 19.8608 6.27865 20.2018C6.37796 21.246 6.56551 22.0022 7.61432 22.0003L8.57358 21.9986V21.992H15.4284V21.9986L16.3861 22.0003C17.4345 22.0022 17.624 21.2455 17.7233 20.2018C17.7557 19.8608 17.873 19.5359 18.0624 19.2627C18.2517 18.9894 18.5059 18.7782 18.7973 18.652C19.3799 18.3996 20.002 17.9606 20.002 17.3257V16.6974L19.9906 16.6953V16H20C20 14.9636 20.0018 14.5407 20.0301 14.291C20.0455 14.1553 20.0486 14.1444 20.1828 13.8807L20.1862 13.8741L20.1895 13.8674C20.7093 12.8074 21 11.6272 21 10.3846C21 5.68006 16.8937 2 12 2C7.10631 2 3 5.68006 3 10.3846C3 11.6263 3.2902 12.8056 3.80932 13.8649L3.81265 13.8717L3.81609 13.8785C3.95107 14.1437 3.95436 14.1551 3.96981 14.291C3.9982 14.5408 4 14.9636 4 16ZM12 4C8.05714 4 5 6.93235 5 10.3846C5 11.308 5.21449 12.185 5.60206 12.9783L5.6043 12.9827C5.75972 13.288 5.9 13.5636 5.95701 14.0652L5.95934 14.0862C5.99829 14.1931 6.01953 14.3084 6.01953 14.4287V16.7006C6.93851 16.8772 7.62581 17.1734 8.00216 17.7165C8.37872 18.2599 8.57138 19.0793 8.57356 19.992H15.4284C15.4306 19.0793 15.6232 18.2599 15.9998 17.7165C16.3773 17.1718 17.0675 16.8754 17.9906 16.699V14.4287C17.9906 14.3245 18.0066 14.2239 18.0362 14.1294C18.0383 14.1077 18.0405 14.0865 18.0428 14.0658C18.0997 13.5642 18.2397 13.2892 18.3949 12.9844L18.397 12.9803C18.7852 12.1864 19 11.3088 19 10.3846C19 6.93235 15.9429 4 12 4Z" fill="black"/>
</svg>
