<svg width="24" height="24" viewBox="0 0 24 24" fill="none" xmlns="http://www.w3.org/2000/svg">
<path d="M18.0345 4H2V9.9375H3.54466L5.61744 6.78877L7.46889 10.2888L8.27614 9.0625H12.5071C13.1081 7.28214 14.7949 6 16.7818 6C17.2164 6 17.6367 6.06136 18.0345 6.17588V4Z" fill="black"/>
<path d="M12.307 11.0625H9.354L7.28122 14.2112L5.42977 10.7112L4.62253 11.9375H2V17H9.01723V18H7.01077C6.45848 18 6.01077 18.4477 6.01077 19C6.01077 19.5523 6.45848 20 7.01077 20H13.0237C13.576 20 14.0237 19.5523 14.0237 19C14.0237 18.4477 13.576 18 13.0237 18H11.0172V17H18.0345V14.8241C17.6367 14.9386 17.2164 15 16.7818 15C14.482 15 12.5844 13.2823 12.307 11.0625Z" fill="black"/>
<path fill-rule="evenodd" clip-rule="evenodd" d="M19.8672 12.1661C20.1364 11.6707 20.2893 11.1032 20.2893 10.5C20.2893 8.567 18.7189 7 16.7818 7C14.8446 7 13.2742 8.567 13.2742 10.5C13.2742 12.433 14.8446 14 16.7818 14C17.3862 14 17.955 13.8474 18.4514 13.5788L20.5835 15.7063L21.9992 14.2937L19.8672 12.1661ZM16.7818 12C17.6184 12 18.2893 11.3244 18.2893 10.5C18.2893 9.67563 17.6184 9 16.7818 9C15.9451 9 15.2742 9.67563 15.2742 10.5C15.2742 11.3244 15.9451 12 16.7818 12Z" fill="black"/>
</svg>
