<svg width="24" height="24" viewBox="0 0 24 24" fill="none" xmlns="http://www.w3.org/2000/svg">
<path d="M13.2708 5.5745C13.3485 5.25191 13.6288 5.01867 13.9602 5.00105C14.2915 4.98343 14.595 5.18561 14.7064 5.49814L16.757 11.25C17.4877 11.2491 17.9511 11.1139 18.4419 10.746C18.5857 10.5675 18.7596 10.4143 18.9558 10.2939C18.9704 10.2795 18.9852 10.2648 19 10.25V10.2676C19.2942 10.0974 19.6357 9.99999 20 9.99999C21.1046 9.99999 22 10.8954 22 12C22 13.1046 21.1046 14 20 14C19.6357 14 19.2942 13.9026 19 13.7324V13.75C18.9851 13.7351 18.9703 13.7204 18.9556 13.706C18.7704 13.5924 18.6052 13.4495 18.4663 13.2837C18.0113 12.9543 17.584 12.8413 16.951 12.8232H16.2542C15.9371 12.8232 15.6543 12.6237 15.5478 12.325L14.1396 8.37507L11.7207 18.4255C11.6429 18.749 11.3612 18.9825 11.0289 18.9991C10.6966 19.0156 10.3931 18.8113 10.2834 18.4972L7.45903 10.4079L6.69818 12.3471C6.58551 12.6343 6.30849 13 6 13H2V11.5H5.4886L6.80182 7.97606C6.91639 7.68404 7.2006 7.49417 7.51424 7.50013C7.82788 7.50608 8.10468 7.7066 8.20808 8.00276L10.859 15.5953L13.2708 5.5745Z" fill="black"/>
</svg>
