<svg width="24" height="24" viewBox="0 0 24 24" fill="none" xmlns="http://www.w3.org/2000/svg">
<path d="M8.18701 2H15.8699C16.0793 2 16.25 2.16954 16.25 2.37982V10.0462C16.25 10.3856 15.8401 10.5532 15.6013 10.315L14.115 8.83182L10.0491 12.8889C9.90074 13.037 9.66037 13.037 9.51197 12.8889L5.36152 8.74741C5.21283 8.59904 5.21283 8.35826 5.36152 8.20989L9.42662 4.15353L7.91843 2.64858C7.67792 2.40859 7.84938 2 8.18701 2Z" fill="black"/>
<path d="M13.9509 11.1111C14.0993 10.963 14.3396 10.963 14.488 11.1111L18.6385 15.2526C18.7872 15.401 18.7872 15.6417 18.6385 15.7901L14.5734 19.8465L16.0816 21.3514C16.3221 21.5914 16.1506 22 15.813 22H8.1301C7.92068 22 7.75 21.8305 7.75 21.6202V13.9538C7.75 13.6144 8.15995 13.4468 8.39867 13.685L9.88501 15.1682L13.9509 11.1111Z" fill="black"/>
</svg>
