<svg width="24" height="24" viewBox="0 0 24 24" fill="none" xmlns="http://www.w3.org/2000/svg">
<path d="M10 8C10 6.89543 10.8954 6 12 6C13.1046 6 14 6.89543 14 8C14 9.10457 13.1046 10 12 10C10.8954 10 10 9.10457 10 8Z" fill="black"/>
<path fill-rule="evenodd" clip-rule="evenodd" d="M4.8 21C3.80589 21 3 20.1358 3 19.0698V8.68421C3 8.01434 3.32388 7.39236 3.8557 7.04094L11.0557 3.28694C11.6347 2.90435 12.3653 2.90435 12.9443 3.28694L20.1443 7.04094C20.6761 7.39236 21 8.01434 21 8.68421V19.0698C21 20.1358 20.1941 21 19.2 21H4.8ZM12 4.93022L19.2 8.68421V19.0698H14.8288C14.9818 18.0429 15.125 17 15.125 17H16.5002C16.7763 17 17.0012 16.7755 16.9909 16.4996C16.8744 13.3767 15.6221 11 12 11C8.37793 11 7.12559 13.3767 7.00913 16.4996C6.99884 16.7755 7.22371 17 7.49985 17H8.875C8.875 17 9.01774 18.0427 9.1707 19.0698H4.8L4.8 8.68421L12 4.93022Z" fill="black"/>
</svg>
