<svg width="24" height="24" viewBox="0 0 24 24" fill="none" xmlns="http://www.w3.org/2000/svg">
<path fill-rule="evenodd" clip-rule="evenodd" d="M12 2L2.33565 10.6607C1.92286 11.0306 1.88568 11.6679 2.2526 12.084C2.61952 12.5002 3.25159 12.5377 3.66437 12.1677L4.00001 11.867V21.4501C4.00001 21.7538 4.25585 22 4.57144 22H19.4286C19.7442 22 20 21.7538 20 21.4501V11.867L20.3356 12.1677C20.7484 12.5377 21.3805 12.5002 21.7474 12.084C22.1143 11.6679 22.0771 11.0306 21.6644 10.6607L12 2ZM8 12.6831C8 11.2401 8.89688 9.90198 10.125 9.90198C10.9329 9.90198 11.5432 10.4414 11.937 11.223C11.9628 11.2741 12.0372 11.2741 12.063 11.223C12.4568 10.4415 13.0671 9.90198 13.875 9.90198C15.1033 9.90198 16 11.2403 16 12.6831C16 15.7717 12 17.9673 12 17.9673C12 17.9673 9.30559 16.5779 8.33955 14.2987C8.27025 14.1352 8.20984 13.9671 8.15997 13.7946C8.05799 13.442 8 13.0709 8 12.6831Z" fill="black"/>
</svg>
