<svg width="24" height="24" viewBox="0 0 24 24" fill="none" xmlns="http://www.w3.org/2000/svg">
<path d="M12 7C13.105 7 14 6.105 14 5C14 3.895 13.105 3 12 3C10.895 3 10 3.895 10 5C10 6.105 10.895 7 12 7Z" fill="black"/>
<path d="M12.75 12.5H11.25V15.25H6C5.30964 15.25 4.75 15.8096 4.75 16.5V18.2007C4.30165 18.46 4 18.9448 4 19.5C4 20.3284 4.67157 21 5.5 21C6.32843 21 7 20.3284 7 19.5C7 18.9448 6.69835 18.46 6.25 18.2007V16.75H11.25V18.2007C10.8016 18.46 10.5 18.9448 10.5 19.5C10.5 20.3284 11.1716 21 12 21C12.8284 21 13.5 20.3284 13.5 19.5C13.5 18.9448 13.1984 18.46 12.75 18.2007V16.75H17.75V18.2007C17.3016 18.46 17 18.9448 17 19.5C17 20.3284 17.6716 21 18.5 21C19.3284 21 20 20.3284 20 19.5C20 18.9448 19.6984 18.46 19.25 18.2007V16.5C19.25 15.8096 18.6904 15.25 18 15.25H12.75V12.5Z" fill="black"/>
<path d="M8 9.77778C8 8.67437 10.665 8 12 8C13.335 8 16 8.67437 16 9.77778V11.1111H8V9.77778Z" fill="black"/>
</svg>
