<svg width="24" height="24" viewBox="0 0 24 24" fill="none" xmlns="http://www.w3.org/2000/svg">
<path d="M12.3143 8.8609C13.8254 10.5534 15.2747 12.1765 15.7963 13.5H16C16.5523 13.5 17 13.9477 17 14.5C17 15.0523 16.5523 15.5 16 15.5H15.7256C15.5393 15.9909 15.3046 16.4803 14.9979 16.9366C14.2202 17.854 13.1228 18.5934 11.8328 18.8312C10.4726 19.0819 8.80634 18.7923 6.95 17.4L6.05 18.6C6.70753 19.0932 7.35942 19.476 8 19.7601V22H4V2H7.97906C7.97906 4.0054 10.2069 6.50058 12.3143 8.8609Z" fill="black"/>
<path d="M17.3655 16.4662C17.1812 16.7301 17 17.0686 17 17.3788C17 17.7771 17.3358 18.1 17.75 18.1C18.1642 18.1 18.5 17.7771 18.5 17.3788C18.5 17.0686 18.3188 16.7301 18.1345 16.4662C17.9439 16.1933 17.75 16 17.75 16C17.75 16 17.5561 16.1933 17.3655 16.4662Z" fill="black"/>
<path d="M18.1092 19.277C17.8021 19.7169 17.5 20.2809 17.5 20.798C17.5 21.4618 18.0596 22 18.75 22C19.4404 22 20 21.4618 20 20.798C20 20.2809 19.6979 19.7169 19.3908 19.277C19.0731 18.8221 18.75 18.5 18.75 18.5C18.75 18.5 18.4269 18.8221 18.1092 19.277Z" fill="black"/>
</svg>
