<svg width="24" height="24" viewBox="0 0 24 24" fill="none" xmlns="http://www.w3.org/2000/svg">
<mask id="path-1-inside-1_11804_6968" fill="white">
<path fill-rule="evenodd" clip-rule="evenodd" d="M12.408 2.20556C12.3138 2.0764 12.1636 2 12.0037 2C11.8438 2 11.6935 2.0764 11.5993 2.20556C11.5917 2.21608 11.3294 2.57637 11.0668 3.03523C10.9356 3.26445 10.7991 3.52745 10.6941 3.78997C10.5928 4.0431 10.5028 4.33905 10.5028 4.62128C10.5028 4.90345 10.5927 5.19933 10.694 5.4524C10.799 5.71486 10.9355 5.97781 11.0666 6.20699C11.102 6.26884 11.1374 6.3289 11.1721 6.38655C10.9952 6.29155 10.7577 6.16918 10.4926 6.04637C10.212 5.91643 9.89344 5.7827 9.5784 5.68063C9.27063 5.58091 8.93242 5.5 8.6231 5.5C8.31378 5.5 7.97557 5.5809 7.6678 5.68062C7.35276 5.78269 7.03416 5.91641 6.75361 6.04634C6.47192 6.17681 6.2215 6.30677 6.04171 6.40395C5.9516 6.45265 5.8787 6.49341 5.82788 6.52226C5.80246 6.53669 5.78253 6.54816 5.76869 6.55617L5.75257 6.56555L5.74807 6.56818L5.74615 6.56932C5.59368 6.65924 5.5 6.82306 5.5 6.99999C5.5 7.17692 5.59427 7.3411 5.74673 7.43103L5.74806 7.43181L5.75256 7.43444L5.76868 7.44382C5.78252 7.45184 5.80245 7.46331 5.82787 7.47774C5.87869 7.50659 5.95159 7.54735 6.04169 7.59605C6.22149 7.69324 6.47191 7.82321 6.7536 7.95368C7.03415 8.08363 7.35275 8.21735 7.66779 8.31943C7.97557 8.41915 8.31378 8.50006 8.6231 8.50006C8.93242 8.50006 9.27062 8.41916 9.5784 8.31944C9.89343 8.21737 10.212 8.08365 10.4926 7.95371C10.6806 7.86664 10.8547 7.77978 11.0031 7.70275V10H8.00141C7.44882 10 7.00085 10.4477 7.00085 11C7.00085 11.5523 7.44882 12 8.00141 12L8.00141 18C8.00141 20.2091 9.79329 22 12.0037 22C14.2141 22 16.0059 20.2091 16.0059 18V12C16.5585 12 17.0065 11.5523 17.0065 11C17.0065 10.4477 16.5585 10 16.0059 10H13.0042V7.70653C13.1511 7.78261 13.3225 7.86804 13.5074 7.95368C13.788 8.08363 14.1066 8.21735 14.4216 8.31943C14.7294 8.41915 15.0676 8.50006 15.3769 8.50006C15.6862 8.50006 16.0244 8.41916 16.3322 8.31944C16.6472 8.21737 16.9659 8.08365 17.2464 7.95371C17.5281 7.82325 17.7785 7.69328 17.9583 7.5961C18.0484 7.54739 18.1213 7.50664 18.1721 7.47779C18.1975 7.46336 18.2175 7.45189 18.2313 7.44387L18.2474 7.4345L18.2519 7.43186L18.2539 7.43073C18.4063 7.34081 18.5 7.17698 18.5 7.00005C18.5 6.82312 18.4057 6.65895 18.2533 6.56902L18.2519 6.56824L18.2474 6.5656L18.2313 6.55622C18.2175 6.54821 18.1975 6.53674 18.1721 6.52231C18.1213 6.49346 18.0484 6.4527 17.9583 6.404C17.7785 6.30681 17.5281 6.17684 17.2464 6.04637C16.9659 5.91643 16.6473 5.7827 16.3322 5.68063C16.0244 5.58091 15.6862 5.5 15.3769 5.5C15.0676 5.5 14.7294 5.5809 14.4216 5.68062C14.1066 5.78269 13.788 5.91641 13.5074 6.04634C13.2476 6.16666 13.0145 6.28654 12.8387 6.38069C12.8724 6.32483 12.9066 6.26675 12.9407 6.207C13.0719 5.97782 13.2084 5.71487 13.3134 5.45241C13.4146 5.19934 13.5045 4.90346 13.5045 4.62128C13.5045 4.33905 13.4146 4.0431 13.3133 3.78997C13.2083 3.52745 13.0717 3.26445 12.9406 3.03523C12.678 2.57637 12.4157 2.21608 12.408 2.20556ZM14.0048 15V12H10.0025V15H14.0048Z"/>
</mask>
<path fill-rule="evenodd" clip-rule="evenodd" d="M12.408 2.20556C12.3138 2.0764 12.1636 2 12.0037 2C11.8438 2 11.6935 2.0764 11.5993 2.20556C11.5917 2.21608 11.3294 2.57637 11.0668 3.03523C10.9356 3.26445 10.7991 3.52745 10.6941 3.78997C10.5928 4.0431 10.5028 4.33905 10.5028 4.62128C10.5028 4.90345 10.5927 5.19933 10.694 5.4524C10.799 5.71486 10.9355 5.97781 11.0666 6.20699C11.102 6.26884 11.1374 6.3289 11.1721 6.38655C10.9952 6.29155 10.7577 6.16918 10.4926 6.04637C10.212 5.91643 9.89344 5.7827 9.5784 5.68063C9.27063 5.58091 8.93242 5.5 8.6231 5.5C8.31378 5.5 7.97557 5.5809 7.6678 5.68062C7.35276 5.78269 7.03416 5.91641 6.75361 6.04634C6.47192 6.17681 6.2215 6.30677 6.04171 6.40395C5.9516 6.45265 5.8787 6.49341 5.82788 6.52226C5.80246 6.53669 5.78253 6.54816 5.76869 6.55617L5.75257 6.56555L5.74807 6.56818L5.74615 6.56932C5.59368 6.65924 5.5 6.82306 5.5 6.99999C5.5 7.17692 5.59427 7.3411 5.74673 7.43103L5.74806 7.43181L5.75256 7.43444L5.76868 7.44382C5.78252 7.45184 5.80245 7.46331 5.82787 7.47774C5.87869 7.50659 5.95159 7.54735 6.04169 7.59605C6.22149 7.69324 6.47191 7.82321 6.7536 7.95368C7.03415 8.08363 7.35275 8.21735 7.66779 8.31943C7.97557 8.41915 8.31378 8.50006 8.6231 8.50006C8.93242 8.50006 9.27062 8.41916 9.5784 8.31944C9.89343 8.21737 10.212 8.08365 10.4926 7.95371C10.6806 7.86664 10.8547 7.77978 11.0031 7.70275V10H8.00141C7.44882 10 7.00085 10.4477 7.00085 11C7.00085 11.5523 7.44882 12 8.00141 12L8.00141 18C8.00141 20.2091 9.79329 22 12.0037 22C14.2141 22 16.0059 20.2091 16.0059 18V12C16.5585 12 17.0065 11.5523 17.0065 11C17.0065 10.4477 16.5585 10 16.0059 10H13.0042V7.70653C13.1511 7.78261 13.3225 7.86804 13.5074 7.95368C13.788 8.08363 14.1066 8.21735 14.4216 8.31943C14.7294 8.41915 15.0676 8.50006 15.3769 8.50006C15.6862 8.50006 16.0244 8.41916 16.3322 8.31944C16.6472 8.21737 16.9659 8.08365 17.2464 7.95371C17.5281 7.82325 17.7785 7.69328 17.9583 7.5961C18.0484 7.54739 18.1213 7.50664 18.1721 7.47779C18.1975 7.46336 18.2175 7.45189 18.2313 7.44387L18.2474 7.4345L18.2519 7.43186L18.2539 7.43073C18.4063 7.34081 18.5 7.17698 18.5 7.00005C18.5 6.82312 18.4057 6.65895 18.2533 6.56902L18.2519 6.56824L18.2474 6.5656L18.2313 6.55622C18.2175 6.54821 18.1975 6.53674 18.1721 6.52231C18.1213 6.49346 18.0484 6.4527 17.9583 6.404C17.7785 6.30681 17.5281 6.17684 17.2464 6.04637C16.9659 5.91643 16.6473 5.7827 16.3322 5.68063C16.0244 5.58091 15.6862 5.5 15.3769 5.5C15.0676 5.5 14.7294 5.5809 14.4216 5.68062C14.1066 5.78269 13.788 5.91641 13.5074 6.04634C13.2476 6.16666 13.0145 6.28654 12.8387 6.38069C12.8724 6.32483 12.9066 6.26675 12.9407 6.207C13.0719 5.97782 13.2084 5.71487 13.3134 5.45241C13.4146 5.19934 13.5045 4.90346 13.5045 4.62128C13.5045 4.33905 13.4146 4.0431 13.3133 3.78997C13.2083 3.52745 13.0717 3.26445 12.9406 3.03523C12.678 2.57637 12.4157 2.21608 12.408 2.20556ZM14.0048 15V12H10.0025V15H14.0048Z" fill="black"/>
<path d="M12.408 2.20556L14.0241 1.02737L14.0241 1.02737L12.408 2.20556ZM11.5993 2.20556L9.98321 1.02737L9.98321 1.02737L11.5993 2.20556ZM11.0668 3.03523L9.33088 2.04194L9.33088 2.04194L11.0668 3.03523ZM10.6941 3.78997L12.551 4.53288L12.551 4.53287L10.6941 3.78997ZM10.694 5.4524L8.83702 6.1952L8.83702 6.1952L10.694 5.4524ZM11.0666 6.20699L12.8025 5.21379L12.8025 5.21379L11.0666 6.20699ZM11.1721 6.38655L10.2259 8.14858L16.6487 11.5975L12.885 5.354L11.1721 6.38655ZM10.4926 6.04637L11.3331 4.23158L11.3331 4.23158L10.4926 6.04637ZM9.5784 5.68063L8.96193 7.58325L8.96193 7.58325L9.5784 5.68063ZM7.6678 5.68062L8.28424 7.58325H8.28425L7.6678 5.68062ZM6.75361 6.04634L7.59412 7.86115H7.59412L6.75361 6.04634ZM6.04171 6.40395L5.0907 4.64452L5.09069 4.64452L6.04171 6.40395ZM5.82788 6.52226L6.81516 8.26159L6.81516 8.26159L5.82788 6.52226ZM5.76869 6.55617L4.7662 4.82556L4.76306 4.82738L5.76869 6.55617ZM5.75257 6.56555L4.74694 4.83675L4.74162 4.83987L5.75257 6.56555ZM5.74807 6.56818L4.73712 4.8425L4.73438 4.84411L5.74807 6.56818ZM5.74615 6.56932L4.73245 4.84524L4.73011 4.84662L5.74615 6.56932ZM5.5 6.99999L7.5 7.00002V7.00002L5.5 6.99999ZM5.74673 7.43103L4.73065 9.1537L4.733 9.15508L5.74673 7.43103ZM5.74806 7.43181L4.73433 9.15586L4.73711 9.15749L5.74806 7.43181ZM5.75256 7.43444L4.74161 9.16014L4.7469 9.16321L5.75256 7.43444ZM5.76868 7.44382L4.76301 9.17259L4.76619 9.17443L5.76868 7.44382ZM5.82787 7.47774L4.84055 9.21705L4.84056 9.21705L5.82787 7.47774ZM6.04169 7.59605L5.09064 9.35546L5.09064 9.35546L6.04169 7.59605ZM6.7536 7.95368L7.59415 6.13889L7.59415 6.13889L6.7536 7.95368ZM7.66779 8.31943L8.28427 6.41681L8.28427 6.41681L7.66779 8.31943ZM9.5784 8.31944L8.96194 6.41681L8.96194 6.41681L9.5784 8.31944ZM10.4926 7.95371L11.3331 9.76851L11.3331 9.76851L10.4926 7.95371ZM11.0031 7.70275H13.0031V4.41165L10.0819 5.92754L11.0031 7.70275ZM11.0031 10V12H13.0031V10H11.0031ZM8.00141 12H10.0014V10H8.00141V12ZM8.00141 18H6.00141H8.00141ZM16.0059 12V10H14.0059V12H16.0059ZM13.0042 10H11.0042V12H13.0042V10ZM13.0042 7.70653L13.9244 5.93076L11.0042 4.41763V7.70653H13.0042ZM13.5074 7.95368L14.348 6.13889L14.348 6.13889L13.5074 7.95368ZM14.4216 8.31943L15.0381 6.41681L15.0381 6.41681L14.4216 8.31943ZM16.3322 8.31944L15.7158 6.41681L15.7158 6.41681L16.3322 8.31944ZM17.2464 7.95371L16.4059 6.1389L16.4059 6.13891L17.2464 7.95371ZM17.9583 7.5961L18.9093 9.35552L18.9093 9.35551L17.9583 7.5961ZM18.1721 7.47779L19.1594 9.21712L19.1595 9.21709L18.1721 7.47779ZM18.2313 7.44387L19.2338 9.17447L19.237 9.17265L18.2313 7.44387ZM18.2474 7.4345L19.2531 9.16328L19.2583 9.1602L18.2474 7.4345ZM18.2519 7.43186L19.2628 9.15757L19.2657 9.15591L18.2519 7.43186ZM18.2539 7.43073L19.2676 9.15478L19.2699 9.15341L18.2539 7.43073ZM18.2533 6.56902L19.2693 4.84635L19.267 4.84498L18.2533 6.56902ZM18.2519 6.56824L19.2657 4.8442L19.263 4.84261L18.2519 6.56824ZM18.2474 6.5656L19.2585 4.83997L19.2531 4.83683L18.2474 6.5656ZM18.2313 6.55622L19.237 4.82745L19.2338 4.8256L18.2313 6.55622ZM18.1721 6.52231L17.1848 8.26161L17.1848 8.26164L18.1721 6.52231ZM17.9583 6.404L17.0073 8.1634L17.0073 8.16341L17.9583 6.404ZM17.2464 6.04637L18.087 4.23158L18.087 4.23158L17.2464 6.04637ZM16.3322 5.68063L15.7157 7.58325L15.7157 7.58325L16.3322 5.68063ZM14.4216 5.68062L15.0381 7.58325L14.4216 5.68062ZM13.5074 6.04634L12.6669 4.23153L12.6669 4.23153L13.5074 6.04634ZM12.8387 6.38069L11.1252 5.34932L7.37777 11.5755L13.7833 8.14361L12.8387 6.38069ZM12.9407 6.207L11.2048 5.21376L11.2048 5.21376L12.9407 6.207ZM13.3134 5.45241L11.4564 4.70958L11.4564 4.70958L13.3134 5.45241ZM13.3133 3.78997L15.1702 3.04707L15.1702 3.04707L13.3133 3.78997ZM12.9406 3.03523L14.6765 2.04194L14.6765 2.04194L12.9406 3.03523ZM14.0048 15V17H16.0048V15H14.0048ZM14.0048 12H16.0048V10H14.0048V12ZM10.0025 12V10H8.00254V12H10.0025ZM10.0025 15H8.00254V17H10.0025V15ZM12.0037 4C11.5248 4 11.0744 3.77122 10.7919 3.38376L14.0241 1.02737C13.5533 0.38157 12.8024 0 12.0037 0V4ZM13.2155 3.38376C12.933 3.77122 12.4826 4 12.0037 4V0C11.205 0 10.454 0.38157 9.98321 1.02737L13.2155 3.38376ZM12.8027 4.02853C13.0125 3.6619 13.2261 3.36912 13.2155 3.38375L9.98321 1.02737C9.95721 1.06304 9.64623 1.49083 9.33088 2.04194L12.8027 4.02853ZM12.551 4.53287C12.6091 4.38743 12.6975 4.21244 12.8027 4.02853L9.33088 2.04194C9.17381 2.31645 8.98902 2.66747 8.83715 3.04707L12.551 4.53287ZM12.5028 4.62128C12.5028 4.65614 12.5001 4.67833 12.4991 4.68579C12.498 4.69338 12.4979 4.69134 12.501 4.67875C12.5041 4.66634 12.5094 4.64745 12.5181 4.6217C12.5266 4.59609 12.5375 4.56656 12.551 4.53288L8.83715 3.04707C8.70364 3.38078 8.50283 3.95823 8.50283 4.62128H12.5028ZM12.5509 4.7096C12.5375 4.67594 12.5266 4.64642 12.518 4.62082C12.5094 4.59509 12.5041 4.57621 12.501 4.5638C12.4979 4.55122 12.498 4.54919 12.4991 4.55679C12.5001 4.56425 12.5028 4.58644 12.5028 4.62128H8.50283C8.50283 5.2842 8.70355 5.86152 8.83702 6.1952L12.5509 4.7096ZM12.8025 5.21379C12.6973 5.02991 12.6091 4.85498 12.5509 4.7096L8.83702 6.1952C8.98885 6.57474 9.17358 6.9257 9.33063 7.20019L12.8025 5.21379ZM12.885 5.354C12.8574 5.30823 12.8297 5.26132 12.8025 5.21379L9.33062 7.20019C9.3742 7.27635 9.41734 7.34956 9.45926 7.4191L12.885 5.354ZM9.65204 7.86116C9.87262 7.96333 10.0739 8.06693 10.2259 8.14858L12.1183 4.62452C11.9165 4.51617 11.6429 4.37504 11.3331 4.23158L9.65204 7.86116ZM8.96193 7.58325C9.17436 7.65208 9.41412 7.75097 9.65204 7.86116L11.3331 4.23158C11.01 4.08189 10.6125 3.91333 10.1949 3.77801L8.96193 7.58325ZM8.6231 7.5C8.6097 7.5 8.63433 7.49897 8.70497 7.51325C8.77288 7.52698 8.85863 7.54978 8.96193 7.58325L10.1949 3.77801C9.81285 3.65423 9.24166 3.5 8.6231 3.5V7.5ZM8.28425 7.58325C8.38754 7.54978 8.4733 7.52698 8.54121 7.51325C8.61185 7.49897 8.6365 7.5 8.6231 7.5V3.5C8.00455 3.5 7.43338 3.65422 7.05136 3.77799L8.28425 7.58325ZM7.59412 7.86115C7.83205 7.75096 8.07181 7.65207 8.28424 7.58325L7.05136 3.77799C6.63371 3.9133 6.23627 4.08185 5.91309 4.23153L7.59412 7.86115ZM6.99271 8.16338C7.14712 8.07992 7.35957 7.96978 7.59412 7.86115L5.91309 4.23153C5.58427 4.38383 5.29587 4.53362 5.0907 4.64452L6.99271 8.16338ZM6.81516 8.26159C6.8554 8.23875 6.91614 8.20477 6.99272 8.16337L5.09069 4.64452C4.98706 4.70054 4.90201 4.74807 4.84061 4.78292L6.81516 8.26159ZM6.77118 8.28678C6.78021 8.28155 6.79506 8.273 6.81516 8.26159L4.84061 4.78292C4.80986 4.80037 4.78485 4.81476 4.7662 4.82556L6.77118 8.28678ZM6.7582 8.29434L6.77432 8.28496L4.76306 4.82738L4.74694 4.83676L6.7582 8.29434ZM6.75902 8.29387L6.76352 8.29123L4.74162 4.83987L4.73712 4.8425L6.75902 8.29387ZM6.75984 8.29339L6.76177 8.29226L4.73438 4.84411L4.73245 4.84524L6.75984 8.29339ZM7.5 7.00002C7.49999 7.53198 7.2186 8.02282 6.76218 8.29201L4.73011 4.84662C3.96876 5.29566 3.50001 6.11415 3.5 6.99997L7.5 7.00002ZM6.76281 5.70836C7.21658 5.97601 7.50001 6.465 7.5 7.00002L3.5 6.99997C3.49999 7.88884 3.97196 8.70619 4.73065 9.15369L6.76281 5.70836ZM6.76179 5.70776L6.76046 5.70698L4.733 9.15508L4.73433 9.15586L6.76179 5.70776ZM6.76351 5.70876L6.75901 5.70613L4.73711 9.15749L4.74161 9.16013L6.76351 5.70876ZM6.77435 5.71505L6.75823 5.70568L4.7469 9.16321L4.76302 9.17259L6.77435 5.71505ZM6.81519 5.73843C6.79512 5.72703 6.78025 5.71847 6.77117 5.71321L4.76619 9.17443C4.78479 9.18521 4.80979 9.19958 4.84055 9.21705L6.81519 5.73843ZM6.99275 5.83665C6.91618 5.79526 6.85544 5.76127 6.81519 5.73842L4.84056 9.21705C4.90195 9.2519 4.987 9.29943 5.09064 9.35546L6.99275 5.83665ZM7.59415 6.13889C7.3596 6.03025 7.14716 5.92012 6.99275 5.83665L5.09064 9.35546C5.29582 9.46637 5.58421 9.61617 5.91304 9.76847L7.59415 6.13889ZM8.28427 6.41681C8.07184 6.34798 7.83208 6.24909 7.59415 6.13889L5.91304 9.76847C6.23622 9.91816 6.63367 10.0867 7.05132 10.222L8.28427 6.41681ZM8.6231 6.50006C8.6365 6.50006 8.61187 6.50109 8.54123 6.48681C8.47332 6.47308 8.38757 6.45028 8.28427 6.41681L7.05132 10.222C7.43334 10.3458 8.00453 10.5001 8.6231 10.5001V6.50006ZM8.96194 6.41681C8.85865 6.45028 8.77289 6.47308 8.70498 6.48681C8.63434 6.50109 8.6097 6.50006 8.6231 6.50006V10.5001C9.24165 10.5001 9.81283 10.3458 10.1948 10.2221L8.96194 6.41681ZM9.65206 6.13891C9.41414 6.2491 9.17437 6.34799 8.96194 6.41681L10.1948 10.2221C10.6125 10.0867 11.0099 9.91819 11.3331 9.76851L9.65206 6.13891ZM10.0819 5.92754C9.95464 5.99358 9.80786 6.06675 9.65206 6.13891L11.3331 9.76851C11.5533 9.66652 11.7547 9.56599 11.9243 9.47797L10.0819 5.92754ZM13.0031 10V7.70275H9.00311V10H13.0031ZM9.00085 11C9.00085 11.5534 8.55232 12 8.00141 12V8C6.34531 8 5.00085 9.34208 5.00085 11H9.00085ZM8.00141 10C8.55232 10 9.00085 10.4466 9.00085 11H5.00085C5.00085 12.6579 6.34531 14 8.00141 14V10ZM12.0037 20C10.8968 20 10.0014 19.1035 10.0014 18H6.00141C6.00141 21.3148 8.68978 24 12.0037 24V20ZM14.0059 18C14.0059 19.1035 13.1106 20 12.0037 20V24C15.3176 24 18.0059 21.3148 18.0059 18H14.0059ZM15.0065 11C15.0065 10.4467 15.455 10 16.0059 10V14C17.662 14 19.0065 12.6579 19.0065 11H15.0065ZM16.0059 12C15.455 12 15.0065 11.5534 15.0065 11H19.0065C19.0065 9.34208 17.662 8 16.0059 8V12ZM11.0042 7.70653V10H15.0042V7.70653H11.0042ZM14.348 6.13889C14.1948 6.06793 14.0502 5.99598 13.9244 5.93076L12.0841 9.48229C12.2519 9.56924 12.4502 9.66815 12.6669 9.76848L14.348 6.13889ZM15.0381 6.41681C14.8257 6.34798 14.5859 6.24909 14.348 6.13889L12.6669 9.76847C12.99 9.91816 13.3875 10.0867 13.8051 10.222L15.0381 6.41681ZM15.3769 6.50006C15.3903 6.50006 15.3657 6.50109 15.295 6.48681C15.2271 6.47308 15.1414 6.45028 15.0381 6.41681L13.8051 10.222C14.1872 10.3458 14.7583 10.5001 15.3769 10.5001V6.50006ZM15.7158 6.41681C15.6125 6.45028 15.5267 6.47308 15.4588 6.48681C15.3882 6.50109 15.3635 6.50006 15.3769 6.50006V10.5001C15.9955 10.5001 16.5666 10.3458 16.9487 10.2221L15.7158 6.41681ZM16.4059 6.13891C16.168 6.2491 15.9282 6.34799 15.7158 6.41681L16.9487 10.2221C17.3663 10.0867 17.7638 9.91819 18.0869 9.76851L16.4059 6.13891ZM17.0073 5.83668C16.8529 5.92014 16.6404 6.03027 16.4059 6.1389L18.0869 9.76852C18.4158 9.61622 18.7041 9.46642 18.9093 9.35552L17.0073 5.83668ZM17.1848 5.73846C17.1446 5.7613 17.0838 5.79529 17.0073 5.83668L18.9093 9.35551C19.013 9.29949 19.098 9.25197 19.1594 9.21712L17.1848 5.73846ZM17.2288 5.71328C17.2198 5.71848 17.2049 5.72705 17.1848 5.73849L19.1595 9.21709C19.1901 9.19967 19.2151 9.1853 19.2338 9.17447L17.2288 5.71328ZM17.2418 5.70572L17.2257 5.71509L19.237 9.17265L19.2531 9.16328L17.2418 5.70572ZM17.241 5.70616L17.2365 5.70879L19.2583 9.1602L19.2628 9.15757L17.241 5.70616ZM17.2401 5.70667L17.2382 5.70781L19.2657 9.15591L19.2676 9.15478L17.2401 5.70667ZM16.5 7.00003C16.5 6.46809 16.7814 5.97724 17.2378 5.70804L19.2699 9.15341C20.0313 8.70437 20.5 7.88588 20.5 7.00007L16.5 7.00003ZM17.2372 8.2917C16.7834 8.02405 16.5 7.53505 16.5 7.00003L20.5 7.00007C20.5 6.1112 20.028 5.29385 19.2693 4.84635L17.2372 8.2917ZM17.2382 8.29228L17.2395 8.29306L19.267 4.84498L19.2657 4.8442L17.2382 8.29228ZM17.2364 8.29123L17.2409 8.29386L19.263 4.84261L19.2585 4.83998L17.2364 8.29123ZM17.2257 8.285L17.2418 8.29438L19.2531 4.83683L19.237 4.82745L17.2257 8.285ZM17.1848 8.26164C17.2049 8.27301 17.2197 8.28157 17.2289 8.28685L19.2338 4.8256C19.2152 4.81485 19.1902 4.80046 19.1594 4.78297L17.1848 8.26164ZM17.0073 8.16341C17.0838 8.20479 17.1446 8.23878 17.1848 8.26161L19.1595 4.78301C19.0981 4.74815 19.013 4.70061 18.9093 4.64458L17.0073 8.16341ZM16.4059 7.86116C16.6404 7.9698 16.8529 8.07994 17.0073 8.1634L18.9094 4.64459C18.7042 4.53368 18.4158 4.38388 18.087 4.23158L16.4059 7.86116ZM15.7157 7.58325C15.9282 7.65208 16.1679 7.75097 16.4059 7.86116L18.087 4.23158C17.7638 4.08189 17.3663 3.91333 16.9487 3.77801L15.7157 7.58325ZM15.3769 7.5C15.3635 7.5 15.3881 7.49897 15.4588 7.51325C15.5267 7.52698 15.6125 7.54978 15.7157 7.58325L16.9487 3.77801C16.5667 3.65423 15.9955 3.5 15.3769 3.5V7.5ZM15.0381 7.58325C15.1414 7.54978 15.2271 7.52698 15.295 7.51325C15.3657 7.49897 15.3903 7.5 15.3769 7.5V3.5C14.7584 3.5 14.1872 3.65422 13.8052 3.77799L15.0381 7.58325ZM14.3479 7.86115C14.5859 7.75096 14.8256 7.65207 15.0381 7.58325L13.8052 3.77799C13.3875 3.9133 12.9901 4.08185 12.6669 4.23153L14.3479 7.86115ZM13.7833 8.14361C13.9343 8.06269 14.1319 7.96121 14.3479 7.86115L12.6669 4.23153C12.3634 4.3721 12.0946 4.5104 11.8942 4.61777L13.7833 8.14361ZM11.2048 5.21376C11.1785 5.25968 11.1519 5.30502 11.1252 5.34932L14.5523 7.41205C14.5929 7.34464 14.6346 7.27382 14.6767 7.20024L11.2048 5.21376ZM11.4564 4.70958C11.3983 4.85496 11.31 5.02989 11.2048 5.21376L14.6767 7.20024C14.8337 6.92574 15.0185 6.57478 15.1703 6.19523L11.4564 4.70958ZM11.5045 4.62128C11.5045 4.58644 11.5072 4.56424 11.5083 4.55678C11.5093 4.54918 11.5095 4.55121 11.5063 4.56379C11.5033 4.57619 11.4979 4.59507 11.4893 4.6208C11.4808 4.6464 11.4699 4.67591 11.4564 4.70958L15.1703 6.19524C15.3038 5.86155 15.5045 5.28422 15.5045 4.62128H11.5045ZM11.4564 4.53287C11.4699 4.56656 11.4807 4.59609 11.4893 4.6217C11.4979 4.64744 11.5032 4.66634 11.5063 4.67875C11.5095 4.69134 11.5093 4.69338 11.5083 4.68579C11.5072 4.67833 11.5045 4.65614 11.5045 4.62128H15.5045C15.5045 3.95823 15.3037 3.38078 15.1702 3.04707L11.4564 4.53287ZM11.2047 4.02853C11.3099 4.21244 11.3982 4.38743 11.4564 4.53288L15.1702 3.04707C15.0183 2.66747 14.8335 2.31645 14.6765 2.04194L11.2047 4.02853ZM10.7919 3.38375C10.7812 3.36912 10.9949 3.6619 11.2047 4.02853L14.6765 2.04194C14.3611 1.49083 14.0501 1.06304 14.0241 1.02737L10.7919 3.38375ZM16.0048 15V12H12.0048V15H16.0048ZM8.00254 12V15H12.0025V12H8.00254ZM10.0025 17H14.0048V13H10.0025V17ZM8.00141 12H11.0031V8H8.00141V12ZM10.0014 18V12H6.00141L6.00141 18H10.0014ZM14.0059 12V18H18.0059V12H14.0059ZM13.0042 12H16.0059V8H13.0042V12ZM14.0048 10H10.0025V14H14.0048V10Z" fill="black" mask="url(#path-1-inside-1_11804_6968)"/>
</svg>
