<svg width="24" height="24" viewBox="0 0 24 24" fill="none" xmlns="http://www.w3.org/2000/svg">
<path d="M8.59605 14.6282C8.12813 15.09 7.94115 15.7974 8.17471 16.4582C8.44665 17.2276 9.01721 17.8572 9.75 18.2051V19H10.75H12.25H13.1286L13.6348 19.4537L14.0279 19.8061C13.26 19.9296 12.3738 19.9986 11.3556 19.9986C8.58409 19.9986 6.80041 19.4974 5.70271 18.794C4.64697 18.1174 4.15814 17.213 4.03285 16.1693C3.90231 15.0818 4.16579 13.7969 4.74059 12.462C5.22988 11.3257 5.92322 10.2041 6.7065 9.21447C7.67838 9.4563 8.70528 9.61626 9.75 9.69428V10.045C8.71521 10.5365 8 11.5904 8 12.8125C8 13.4924 8.2214 14.1203 8.59605 14.6282ZM15 15.4375C15 14.7576 14.7786 14.1297 14.4039 13.6218C14.8719 13.16 15.0589 12.4526 14.8253 11.7918C14.5534 11.0224 13.9828 10.3928 13.25 10.0449V9.65055C14.1748 9.55768 15.0809 9.39977 15.942 9.17677C16.8691 10.3235 17.6684 11.666 18.1578 13.001H16.6074H15.6074V14.001V15.7549L14.6938 16.7741C14.89 16.3703 15 15.9169 15 15.4375ZM7.0152 5.93381L6.87588 5.72872C6.99831 5.83281 7.12379 5.92397 7.25148 6.00356C7.17206 5.98104 7.09328 5.95779 7.0152 5.93381ZM15.4472 5.9453C13.7444 6.46167 11.7171 6.63409 9.79727 6.4619C10.1273 6.42489 10.4316 6.36766 10.6922 6.31864C10.7341 6.31077 10.7748 6.30311 10.8143 6.29578C11.1233 6.23845 11.3834 6.19069 11.6247 6.16342C13.012 6.00662 14.4706 5.91393 15.4472 5.9453ZM15.6945 5.86713C15.6194 5.89188 15.5435 5.91593 15.467 5.93928L15.6198 4.88805C15.8257 4.97265 16.0168 5.05788 16.1912 5.14101L15.6945 5.86713ZM13.25 18.205C13.3597 18.1529 13.4658 18.0945 13.5679 18.0302L13.5576 18.0416L13.25 18.3848V18.205Z" fill="black" stroke="black" stroke-width="2"/>
</svg>
