<svg width="24" height="24" viewBox="0 0 24 24" fill="none" xmlns="http://www.w3.org/2000/svg">
<path fill-rule="evenodd" clip-rule="evenodd" d="M18.4069 6.09433C17.627 5.14318 16.6095 4.40189 15.4538 3.93551C14.0481 3.31713 12.5199 2.99841 10.9748 3.00001C8.87526 3.00014 6.85244 3.79367 5.35355 5.22047C3.85286 6.649 3 8.59732 3 10.6399C3 13.0031 4.29624 14.8003 5.87411 16.0934V18.7048L5.97668 18.9134C6.36241 19.6981 7.1745 20.2226 7.86901 20.5292C8.57366 20.8403 9.41196 21.0396 10.1246 20.9933C11.381 20.9864 12.2388 20.6262 12.8019 20.1601C13.0787 19.931 13.2636 19.6931 13.3835 19.4973C13.4433 19.3998 13.4869 19.3129 13.5179 19.2429C13.5334 19.2078 13.5458 19.1768 13.5557 19.1506C13.5606 19.1375 13.5648 19.1256 13.5685 19.1149L13.5736 19.0998L13.5758 19.0931L13.5768 19.0898L13.5773 19.0883C13.5773 19.0883 13.5758 19.0931 13.5778 19.0868L13.624 18.94V18.9087C14.1037 19.0386 14.6771 19.1542 15.267 19.1808C16.0487 19.2161 17.0049 19.1008 17.7795 18.4896C18.4126 17.99 18.7988 17.2615 18.9395 16.3399C19.0355 16.3154 19.1359 16.2872 19.2381 16.2548C19.5231 16.1645 19.8734 16.0259 20.1837 15.8096C20.4894 15.5963 20.8657 15.2282 20.9699 14.658C21.0534 14.2008 20.9504 13.7766 20.8311 13.4625C20.7083 13.1394 20.5351 12.8468 20.377 12.6144C20.2163 12.378 20.0528 12.1774 19.9312 12.037C19.8981 11.9989 19.8677 11.9647 19.8407 11.9348C19.6133 11.4119 19.6157 11.0476 19.6201 10.4015C19.6216 10.1816 19.6233 9.92909 19.6162 9.6266L19.6162 9.62505C19.5851 8.3786 19.1774 7.17144 18.4479 6.14796L18.4283 6.12045L18.4069 6.09433ZM12.7295 6.64327C12.1143 6.20785 11.4256 6.17435 10.8367 6.34861C10.684 6.39379 10.5365 6.5129 10.3958 6.64296C10.3559 6.6798 10.3166 6.71751 10.2779 6.75468C10.1814 6.84725 10.0885 6.93639 9.99965 7C9.91075 6.93645 9.81775 6.84737 9.72119 6.75488C9.68229 6.71762 9.6428 6.67978 9.60278 6.64286C9.46222 6.51319 9.31497 6.39454 9.16254 6.34958C8.574 6.176 7.88615 6.20954 7.27132 6.64256C6.64506 7.08342 6.27717 7.81256 6.25165 8.55981L6.25161 8.56111C6.21441 9.70827 6.82918 10.6451 7.48576 11.3603C7.97801 11.8966 8.57869 12.3934 9.07491 12.8038C9.23328 12.9348 9.38103 13.057 9.5112 13.1688L9.99611 13.5855L10.4843 13.1727C10.6035 13.0719 10.7363 12.9629 10.8779 12.8467C11.3865 12.4295 12.0082 11.9194 12.5185 11.3615C13.1747 10.6441 13.7879 9.70405 13.7482 8.55981C13.7227 7.8128 13.3554 7.08417 12.7295 6.64327ZM18 12.75C18 13.1642 17.6642 13.5 17.25 13.5C16.8358 13.5 16.5 13.1642 16.5 12.75C16.5 12.3358 16.8358 12 17.25 12C17.6642 12 18 12.3358 18 12.75Z" fill="black"/>
</svg>
