<svg width="24" height="24" viewBox="0 0 24 24" fill="none" xmlns="http://www.w3.org/2000/svg">
<path d="M7.3125 2C4.24219 2 2 5.31819 2 8.89655C2 9.85822 2.14496 10.7783 2.3999 11.6528C2.5246 12.0805 2.67562 12.4973 2.84887 12.9028C5.26396 18.5545 12 22 12 22C12 22 13.8565 20.9893 15.9696 19.2261C14.9719 18.676 12.8345 17.3231 11.9244 15.4063C11.8378 15.2238 11.7623 15.0362 11.7 14.8438C11.5725 14.4502 11.5 14.0362 11.5 13.6034C11.5 11.9932 12.6211 10.5 14.1563 10.5C15.1773 10.5 15.946 11.1729 16.4377 12.0656C16.4629 12.1115 16.5371 12.1115 16.5623 12.0656C17.054 11.173 17.8226 10.5 18.8438 10.5C19.9922 10.5 20.9088 11.3356 21.2978 12.4306C21.7376 11.3198 22 10.1372 22 8.89655C22 5.31877 19.7582 2 16.6875 2C14.6059 2 13.0489 3.55367 12.0684 5.59445C12.041 5.65138 11.959 5.65138 11.9316 5.59445C10.951 3.55355 9.39406 2 7.3125 2Z" fill="black"/>
<path fill-rule="evenodd" clip-rule="evenodd" d="M20.5 13.5C21.0523 13.5 21.5 13.9477 21.5 14.5C21.5 15.0619 21.297 15.9283 20.8654 16.7452C20.4253 17.5781 19.6805 18.484 18.5081 18.9337C17.9925 19.1315 17.4141 18.8738 17.2163 18.3581C17.0185 17.8425 17.2762 17.2641 17.7919 17.0663C18.3695 16.8448 18.7997 16.3736 19.0971 15.8108C19.403 15.2319 19.5 14.6839 19.5 14.5C19.5 13.9477 19.9477 13.5 20.5 13.5Z" fill="black"/>
</svg>
