<svg width="24" height="24" viewBox="0 0 24 24" fill="none" xmlns="http://www.w3.org/2000/svg">
<path d="M9.00002 4.99977C9.00002 4.59427 9.15184 4.2528 9.35648 4.11574C9.50664 4.01517 10.0692 3.78019 11.5461 4.53249C12.0383 4.78317 12.6404 4.58744 12.8911 4.09532C13.1418 3.6032 12.946 3.00105 12.4539 2.75037C10.7308 1.87266 9.2934 1.75088 8.24355 2.454C7.2482 3.12062 7.00002 4.27356 7.00002 5L5.00002 5C4.44773 5 3.99185 5.4506 4.08134 5.99559C4.17607 6.57243 4.35297 7.13797 4.60898 7.67879C5.01102 8.52806 5.6003 9.29974 6.34316 9.94975C7.08603 10.5998 7.96795 11.1154 8.93855 11.4672C9.59964 11.7068 10.293 11.8672 11 11.9451V15H13V11.9451C13.6616 11.8722 14.3113 11.727 14.9338 11.5123C14.7964 12.0323 14.4548 12.4693 14 12.7324V14.874C15.7252 14.4299 17 12.8638 17 11C17 10.8345 16.9598 10.6784 16.8887 10.541C17.1583 10.3588 17.415 10.1614 17.6569 9.94975C18.3997 9.29974 18.989 8.52806 19.3911 7.67878C19.6471 7.13797 19.824 6.57243 19.9187 5.99558C20.0082 5.4506 19.5523 5 19 5L9.00002 4.99977Z" fill="black"/>
<path d="M9.50002 13H10V15H9.50002C9.22388 15 9.00002 15.2239 9.00002 15.5C9.00002 15.7761 9.22388 16 9.50002 16H13.8377C15.0319 16 16 16.9681 16 18.1623C16 18.9219 15.6033 19.6119 14.9774 20H17V22H7.00002L7.00002 20H10.9997C10.9997 19.9345 11.0062 19.8696 11.0188 19.8063C11.0464 19.6658 11.1034 19.5358 11.1832 19.423C11.2686 19.3018 11.3815 19.1988 11.5165 19.1245C11.576 19.0915 11.6393 19.0645 11.7055 19.0441L13.8891 18.3162C13.9553 18.2941 14 18.2321 14 18.1623C14 18.0727 13.9274 18 13.8377 18H9.50002C8.11931 18 7.00002 16.8807 7.00002 15.5C7.00002 14.1193 8.11931 13 9.50002 13Z" fill="black"/>
</svg>
