<svg width="24" height="24" viewBox="0 0 24 24" fill="none" xmlns="http://www.w3.org/2000/svg">
<path fill-rule="evenodd" clip-rule="evenodd" d="M15 4V6C16.6569 6 18 7.34315 18 9V20C18 21.1046 17.1046 22 16 22H8C6.89543 22 6 21.1046 6 20V9C6 7.34315 7.34315 6 9 6V4C8.44771 4 8 3.55228 8 3C8 2.44772 8.44771 2 9 2H15C15.5523 2 16 2.44772 16 3C16 3.55228 15.5523 4 15 4ZM13 4H11V8H9C8.44772 8 8 8.44772 8 9V10H16V9C16 8.44772 15.5523 8 15 8H13V4ZM13.4358 13.3999L12.0216 14.8141L10.6074 13.3999L9.19315 14.8141L10.6074 16.2283L9.19315 17.6425L10.6074 19.0568L12.0216 17.6425L13.4358 19.0568L14.85 17.6425L13.4358 16.2283L14.85 14.8141L13.4358 13.3999Z" fill="black"/>
</svg>
