<svg width="24" height="24" viewBox="0 0 24 24" fill="none" xmlns="http://www.w3.org/2000/svg">
<path fill-rule="evenodd" clip-rule="evenodd" d="M11.445 4.2652C11.2533 3.92788 10.7672 3.92787 10.5755 4.2652L2.05966 19.2531C1.87027 19.5864 2.11102 20.0001 2.49439 20.0001H19.5261C19.9094 20.0001 20.1502 19.5864 19.9608 19.2531L17.6912 15.2585C17.535 15.2761 17.3765 15.2851 17.2159 15.2851C14.8876 15.2851 13.0001 13.3976 13.0001 11.0693C13.0001 10.1098 13.3207 9.22518 13.8606 8.51665L11.445 4.2652ZM10.2501 11.25C10.2501 10.8358 10.5859 10.5 11.0001 10.5C11.4143 10.5 11.7501 10.8358 11.7501 11.25V13.75C11.7501 14.1642 11.4143 14.5 11.0001 14.5C10.5859 14.5 10.2501 14.1642 10.2501 13.75V11.25ZM11.7501 15.5V16.9992H10.2501V15.5H11.7501Z" fill="black"/>
<path fill-rule="evenodd" clip-rule="evenodd" d="M14.4138 9.49039C14.1669 9.92764 14.0194 10.4285 14.0019 10.9622C14.0007 10.9977 14.0001 11.0335 14.0001 11.0693C14.0001 11.7392 14.205 12.3612 14.5554 12.8762C15.1203 13.7065 16.0638 14.2585 17.1375 14.2842C17.1636 14.2848 17.1897 14.2851 17.2159 14.2851C17.7697 14.2851 18.2909 14.1451 18.7458 13.8985L20.7008 15.8535L22.0001 14.5542L20.0452 12.5992C20.2917 12.1442 20.4317 11.6231 20.4317 11.0693C20.4317 9.29331 18.9919 7.85356 17.2159 7.85356C16.0137 7.85356 14.9656 8.51326 14.4138 9.49039ZM18.5941 11.0693C18.5941 11.8305 17.9771 12.4475 17.2159 12.4475C16.4548 12.4475 15.8377 11.8305 15.8377 11.0693C15.8377 10.3082 16.4548 9.69114 17.2159 9.69114C17.9771 9.69114 18.5941 10.3082 18.5941 11.0693Z" fill="black"/>
</svg>
