<svg width="24" height="24" viewBox="0 0 24 24" fill="none" xmlns="http://www.w3.org/2000/svg">
<path fill-rule="evenodd" clip-rule="evenodd" d="M9.98928 2.22847C9.57511 2.23445 9.2442 2.57504 9.25018 2.98922C9.25616 3.40339 9.59676 3.73429 10.0109 3.72831L11.19 3.71129L11.2094 5.06042C9.88407 5.21744 8.59568 5.75261 7.51925 6.66428L6.62131 5.77601L7.59938 4.78729C7.89068 4.49281 7.88811 4.01795 7.59363 3.72664C7.29915 3.43534 6.82429 3.43791 6.53299 3.73239L5.12069 5.16008C5.08498 5.18527 5.05098 5.21394 5.01918 5.24609C4.98737 5.27825 4.95906 5.31255 4.93426 5.34854L3.71984 6.57619C3.42854 6.87067 3.43111 7.34553 3.72558 7.63684C4.02006 7.92814 4.49493 7.92556 4.78623 7.63109L5.56641 6.8424L6.48348 7.74959C5.68166 8.79176 5.21382 10.0066 5.0786 11.2502L3.68393 11.2971L3.63948 9.97705C3.62553 9.56307 3.27864 9.23878 2.86466 9.25272C2.45068 9.26666 2.12638 9.61356 2.14033 10.0275L2.20967 12.0866L2.20995 12.0972L2.21038 12.1078L2.27496 14.0253C2.2889 14.4392 2.63579 14.7635 3.04977 14.7496C3.46375 14.7357 3.78805 14.3888 3.77411 13.9748L3.73442 12.7963L5.07635 12.7511C5.21667 14.0789 5.73565 15.3735 6.63166 16.4597L5.72708 17.3742L4.78804 16.4453C4.49356 16.154 4.01869 16.1566 3.7274 16.451C3.4361 16.7455 3.43868 17.2204 3.73316 17.5117L5.19783 18.9605L5.20533 18.968L5.21296 18.9755L6.57693 20.3247C6.87141 20.616 7.34627 20.6134 7.63757 20.3189C7.92887 20.0245 7.92628 19.5496 7.6318 19.2583L6.79349 18.429L7.70337 17.5092C8.77602 18.357 10.0381 18.8453 11.3288 18.9758L11.3239 20.2397L10.003 20.2346C9.58883 20.233 9.25175 20.5674 9.25014 20.9816C9.24854 21.3959 9.58302 21.7329 9.99723 21.7345L12.0574 21.7425L12.068 21.7426L12.0787 21.7426L13.9972 21.7501C14.4114 21.7517 14.7485 21.4172 14.7501 21.003C14.7517 20.5888 14.4172 20.2517 14.003 20.2501L12.8239 20.2455L12.8288 18.9669C14.1383 18.8187 15.4133 18.3017 16.4853 17.4175L17.3996 18.3219L16.5064 19.2249C16.2151 19.5194 16.2177 19.9942 16.5121 20.2855C16.8066 20.5768 17.2815 20.5743 17.5728 20.2798L18.9919 18.8452L18.9934 18.8436L20.3858 17.4361C20.6771 17.1416 20.6746 16.6667 20.3801 16.3754C20.0856 16.0841 19.6107 16.0867 19.3194 16.3812L18.4545 17.2555L17.5349 16.3458C18.3495 15.3151 18.8324 14.1095 18.9847 12.8716L20.3677 12.8388L20.3956 14.0177C20.4054 14.4318 20.749 14.7595 21.1631 14.7497C21.5772 14.7399 21.905 14.3963 21.8952 13.9822L21.8498 12.0642L21.8496 12.0535L21.8492 12.0429L21.8005 9.98328C21.7907 9.56919 21.447 9.24144 21.0329 9.25125C20.6188 9.26106 20.2911 9.6047 20.3009 10.0188L20.3322 11.3393L19.0081 11.3706C18.8835 10.0084 18.3613 8.67646 17.4431 7.56339L18.3476 6.64903L19.2357 7.52747C19.5302 7.81877 20.005 7.81618 20.2963 7.5217C20.5876 7.22721 20.585 6.75235 20.2905 6.46105L18.8758 5.06161L18.8693 5.05516L18.8628 5.04877L17.4468 3.64807C17.1523 3.35678 16.6774 3.35936 16.3861 3.65385C16.0948 3.94833 16.0974 4.4232 16.3919 4.71449L17.2812 5.59416L16.3714 6.51386C15.2886 5.65809 14.0128 5.16853 12.7093 5.04363L12.6898 3.68964L14.0105 3.67058C14.4247 3.6646 14.7556 3.324 14.7496 2.90983C14.7436 2.49566 14.403 2.16476 13.9889 2.17073L11.9289 2.20047L11.9183 2.20055L11.9076 2.20078L9.98928 2.22847ZM11.881 10.6949C11.3489 10.8429 10.7976 10.5316 10.6496 9.99949C10.5016 9.46741 10.8129 8.91608 11.345 8.76807C11.8771 8.62005 12.4284 8.9314 12.5764 9.46348C12.7244 9.99556 12.4131 10.5469 11.881 10.6949ZM13.6678 13.4995C13.8158 14.0316 14.3671 14.3429 14.8992 14.1949C15.4313 14.0469 15.7426 13.4956 15.5946 12.9635C15.4466 12.4314 14.8953 12.1201 14.3632 12.2681C13.8311 12.4161 13.5198 12.9674 13.6678 13.4995ZM9.49952 14.1949C8.96744 14.3429 8.41611 14.0316 8.2681 13.4995C8.12008 12.9674 8.43143 12.4161 8.96351 12.2681C9.49559 12.1201 10.0469 12.4314 10.1949 12.9635C10.3429 13.4956 10.0316 14.0469 9.49952 14.1949Z" fill="black"/>
</svg>
