<svg width="24" height="24" viewBox="0 0 24 24" fill="none" xmlns="http://www.w3.org/2000/svg">
<path fill-rule="evenodd" clip-rule="evenodd" d="M21.7863 15.4506C22.0624 14.9723 21.8986 14.3607 21.4203 14.0846C20.942 13.8085 20.3304 13.9723 20.0543 14.4506L19.8044 14.8834L18.6429 14.2128C18.8745 13.5173 18.9999 12.7733 18.9999 12C18.9999 11.1848 18.8605 10.4021 18.6043 9.67447L19.7824 8.99433L20.0325 9.4276C20.3087 9.9059 20.9203 10.0698 21.3985 9.79363C21.8768 9.51748 22.0407 8.90589 21.7646 8.4276L20.2646 5.82953C19.9884 5.35123 19.3768 5.18736 18.8985 5.4635C18.4203 5.73964 18.2564 6.35123 18.5325 6.82953L18.7824 7.26228L17.6752 7.90148C16.5885 6.39921 14.9198 5.3455 12.9999 5.07087V3.99963L13.4999 3.99963C14.0522 3.99963 14.4999 3.55192 14.4999 2.99963C14.4999 2.44735 14.0522 1.99963 13.4999 1.99963H10.4999C9.94761 1.99963 9.49989 2.44735 9.49989 2.99963C9.49989 3.55192 9.94761 3.99963 10.4999 3.99963L10.9999 3.99963L10.9999 5.07088C9.0786 5.3457 7.40898 6.4007 6.32226 7.90467L5.2096 7.26228L5.45945 6.82953C5.73559 6.35123 5.57172 5.73964 5.09343 5.4635C4.61513 5.18736 4.00354 5.35123 3.7274 5.82953L2.2274 8.4276C1.95126 8.9059 2.11513 9.51749 2.59343 9.79363C3.07172 10.0698 3.68331 9.9059 3.95945 9.4276L4.2096 8.99433L5.39414 9.67822C5.13878 10.4048 4.9999 11.1862 4.9999 12C4.9999 12.7719 5.12484 13.5146 5.3556 14.209L4.18758 14.8834L3.93773 14.4506C3.66158 13.9723 3.04999 13.8085 2.5717 14.0846C2.09341 14.3607 1.92953 14.9723 2.20567 15.4506L3.70567 18.0487C3.98182 18.527 4.59341 18.6909 5.0717 18.4147C5.54999 18.1386 5.71387 17.527 5.43773 17.0487L5.18758 16.6154L6.25429 15.9996C7.33868 17.5544 9.03808 18.6485 10.9999 18.9291V19.9996H10.4999C9.94761 19.9996 9.49989 20.4473 9.49989 20.9996C9.49989 21.5519 9.94761 21.9996 10.4999 21.9996H13.4999C14.0522 21.9996 14.4999 21.5519 14.4999 20.9996C14.4999 20.4473 14.0522 19.9996 13.4999 19.9996H12.9999V18.9291C14.9604 18.6487 16.6588 17.5559 17.7433 16.0028L18.8044 16.6154L18.5543 17.0487C18.2781 17.527 18.442 18.1386 18.9203 18.4147C19.3986 18.6909 20.0102 18.527 20.2863 18.0487L21.7863 15.4506ZM8.9999 10.75C8.9999 9.78349 9.7834 8.99999 10.7499 8.99999C11.7164 8.99999 12.4999 9.78349 12.4999 10.75C12.4999 11.7165 11.7164 12.5 10.7499 12.5C9.7834 12.5 8.9999 11.7165 8.9999 10.75ZM12.9999 15C12.9999 15.5523 12.5522 16 11.9999 16C11.4476 16 10.9999 15.5523 10.9999 15C10.9999 14.4477 11.4476 14 11.9999 14C12.5522 14 12.9999 14.4477 12.9999 15ZM15.9999 12C15.9999 12.5523 15.5522 13 14.9999 13C14.4476 13 13.9999 12.5523 13.9999 12C13.9999 11.4477 14.4476 11 14.9999 11C15.5522 11 15.9999 11.4477 15.9999 12Z" fill="black"/>
</svg>
