<svg width="48" height="49" viewBox="0 0 48 49" fill="none" xmlns="http://www.w3.org/2000/svg">
<g clip-path="url(#clip0)">
<path fill-rule="evenodd" clip-rule="evenodd" d="M48 0.75H0V48.75H48V0.75ZM34.4803 22.179C32.4956 22.67 30.7024 23.0395 29 23.2857V25.75H19V23.2595C17.3021 23.0113 15.5157 22.6492 13.5415 22.1843C12.4664 21.9311 11.8 20.8542 12.0533 19.7791C12.3065 18.7039 13.3833 18.0376 14.4585 18.2908C18.2945 19.1942 21.1756 19.6412 24.0074 19.652C26.8335 19.6627 29.7072 19.2392 33.5197 18.2961C34.592 18.0308 35.6762 18.685 35.9415 19.7573C36.2067 20.8295 35.5525 21.9138 34.4803 22.179ZM19 29.6904V27.75H29V29.6904C29 30.3236 28.4296 31.9502 26.6794 32.7296C26.4791 32.8188 26.2539 32.9306 26.0516 33.0311L25.9326 33.0901C25.6839 33.213 25.4433 33.3292 25.2 33.4323C24.6925 33.6473 24.2966 33.75 24 33.75C23.7033 33.75 23.3075 33.6473 22.8 33.4323C22.5567 33.3292 22.316 33.213 22.0674 33.0901L21.9483 33.0311L21.9482 33.031C21.7459 32.9305 21.5208 32.8188 21.3206 32.7296C19.5704 31.9502 19 30.3236 19 29.6904ZM17.9809 32.4495C18.4586 33.257 19.2526 34.0691 20.4348 34.6064C20.2573 34.7742 20.0873 34.9688 19.9267 35.2079C19.4264 35.9527 18.9966 36.8727 18.9966 37.7395C18.9966 38.5319 19.3217 39.2136 19.5679 39.73L19.5859 39.7677C19.8577 40.3384 20.0296 40.7223 20.0296 41.1283C20.0296 42.0409 19.2453 42.75 18.3187 42.75C17.4552 42.75 16.7719 42.1749 16.263 41.0617C15.7661 39.9747 15.5748 38.6334 15.5748 37.7395C15.5748 35.4984 16.4293 33.8001 17.9809 32.4495ZM30.0191 32.4494C29.5414 33.2569 28.7473 34.069 27.5652 34.6062C27.7428 34.7741 27.9128 34.9687 28.0735 35.2079C28.5737 35.9527 29.0035 36.8727 29.0035 37.7395C29.0035 38.5319 28.6785 39.2136 28.4322 39.73L28.4142 39.7677C28.1424 40.3384 27.9706 40.7223 27.9706 41.1283C27.9706 42.0409 28.7549 42.75 29.6814 42.75C30.5449 42.75 31.2282 42.1749 31.7371 41.0617C32.234 39.9747 32.4253 38.6334 32.4253 37.7395C32.4253 35.4983 31.5707 33.7999 30.0191 32.4494ZM29.5 12.25C29.5 15.2876 27.0376 17.75 24 17.75C20.9624 17.75 18.5 15.2876 18.5 12.25C18.5 9.21243 20.9624 6.75 24 6.75C27.0376 6.75 29.5 9.21243 29.5 12.25Z" fill="#333333"/>
</g>
<defs>
<clipPath id="clip0">
<rect width="48" height="48" fill="white" transform="translate(0 0.75)"/>
</clipPath>
</defs>
</svg>
