<svg width="48" height="48" viewBox="0 0 48 48" fill="none" xmlns="http://www.w3.org/2000/svg">
<path fill-rule="evenodd" clip-rule="evenodd" d="M0 0H48V48H0V0ZM24.1528 17.7832H41.8719C43.0472 17.7832 44 18.736 44 19.9113C44 21.0866 43.0472 22.0394 41.8719 22.0394H41.8689C41.9544 21.8724 42.0012 21.6912 42.0012 21.5016C42.0012 20.6732 41.1058 20.0016 40.0012 20.0016C38.8966 20.0016 38.0012 20.6732 38.0012 21.5016C38.0012 21.6912 38.0481 21.8724 38.1336 22.0394H25.1111V23.1034H32C33.1045 23.1034 34 23.9988 34 25.1034V25.3596C34 26.4641 33.1045 27.3596 32 27.3596H25.1111V28.4236H30.8889C31.9934 28.4236 32.8889 29.319 32.8889 30.4236V30.6798C32.8889 31.7843 31.9934 32.6798 30.8889 32.6798H22.8889V33.7438H27C28.1046 33.7438 29 34.6392 29 35.7438V36C29 37.1045 28.1046 38 27 38H15.4562C9.1291 38 3.99998 32.8709 3.99998 26.5438C3.99998 21.8892 6.81618 17.6973 11.1253 15.9377L24.0124 10.6755C24.9863 10.2778 26.106 10.589 26.735 11.4323C27.6143 12.6112 27.1815 14.3008 25.8436 14.9118L23.7374 15.8736C22.76 16.3199 23.0783 17.7832 24.1528 17.7832ZM40.0033 31.9975C41.6833 31.9975 43.0033 30.7404 43.0033 29.1404C43.0033 27.6547 40.0033 23.9975 40.0033 23.9975C40.0033 23.9975 37.0033 27.5404 37.0033 29.1404C37.0033 30.7404 38.3233 31.9975 40.0033 31.9975Z" fill="#333333"/>
</svg>
