<svg width="48" height="49" viewBox="0 0 48 49" fill="none" xmlns="http://www.w3.org/2000/svg">
<g clip-path="url(#clip0)">
<path fill-rule="evenodd" clip-rule="evenodd" d="M48 0.25H0V48.25H48V0.25ZM31 8.25C28.7909 8.25 27 10.0409 27 12.25C27 14.4591 28.7909 16.25 31 16.25H32V20.25H31C29.8954 20.25 29 19.3546 29 18.25H27C27 20.4591 28.7909 22.25 31 22.25H32V24.25H34V22.25H35C37.2091 22.25 39 20.4591 39 18.25C39 16.0409 37.2091 14.25 35 14.25H34V10.25H35C36.1046 10.25 37 11.1454 37 12.25H39C39 10.0409 37.2091 8.25 35 8.25H34V6.25H32V8.25H31ZM31 10.25H32V14.25H31C29.8954 14.25 29 13.3546 29 12.25C29 11.1454 29.8954 10.25 31 10.25ZM35 20.25H34V16.25H35C36.1046 16.25 37 17.1454 37 18.25C37 19.3546 36.1046 20.25 35 20.25ZM14.5002 13.25C16.4332 13.25 18.0002 11.683 18.0002 9.75C18.0002 7.817 16.4332 6.25 14.5002 6.25C12.5672 6.25 11.0002 7.817 11.0002 9.75C11.0002 11.683 12.5672 13.25 14.5002 13.25ZM18.5002 15.2505C18.6238 15.2505 18.7469 15.2658 18.8668 15.296C19.9805 15.5766 20.7287 16.2549 21.1996 17.1817C21.6118 17.9929 21.8128 19.0017 21.9798 20.0039L22.9798 26.0039C23.116 26.8211 22.564 27.5939 21.7468 27.7301C20.9297 27.8663 20.1568 27.3142 20.0207 26.4971L19.0207 20.4971C18.9278 19.9401 18.8423 19.5157 18.7554 19.1882L18.5002 22.25C18.5002 23.8564 20.2033 32.6109 20.7981 35.6196C20.9084 36.1772 20.5316 36.7108 19.9691 36.7926C15.8487 37.3918 13.152 37.4115 9.03036 36.7971C8.46827 36.7134 8.09448 36.1773 8.20716 35.6203C8.80628 32.6585 10.5001 24.1197 10.5002 22.2502L10.2451 19.1888C10.1582 19.5163 10.0727 19.9407 9.97983 20.4978L8.97983 26.4978C8.84363 27.315 8.07079 27.867 7.25364 27.7308C6.43648 27.5946 5.88445 26.8218 6.02064 26.0046L7.02064 20.0046C7.18768 19.0024 7.38866 17.9936 7.80088 17.1824C8.27178 16.2556 9.02 15.5773 10.1337 15.2967C10.2529 15.2666 10.3752 15.2514 10.4981 15.2512C10.7496 15.2508 11.6262 15.2508 12.4379 15.2509L12.9603 15.251C12.9736 15.2507 12.9869 15.2505 13.0002 15.2505V15.251H13.0003V15.2505H13.0005H13.0008H13.0012H13.0017H13.0023H13.003H13.0039H13.0048H13.0059H13.0071H13.0084H13.0098H13.0113H13.0129H13.0146H13.0164H13.0184H13.0204H13.0226H13.0248H13.0272H13.0297H13.0322H13.0349H13.0377H13.0406H13.0436H13.0466H13.0498H13.0531H13.0565H13.06H13.0636H13.0673H13.0711H13.075H13.079H13.0831H13.0873H13.0916H13.0959H13.1004H13.105H13.1097H13.1144H13.1193H13.1243H13.1293H13.1344H13.1397H13.145H13.1504H13.156H13.1616H13.1673H13.173H13.1789H13.1849H13.1909H13.1971H13.2033H13.2097H13.2161H13.2226H13.2291H13.2358H13.2426H13.2494H13.2563H13.2634H13.2705H13.2776H13.2849H13.2922H13.2997H13.3072H13.3148H13.3225H13.3302H13.3381H13.346H13.354H13.362H13.3702H13.3784H13.3867H13.3951H13.4036H13.4121H13.4207H13.4294H13.4382H13.4471H13.456H13.465H13.474H13.4832H13.4924H13.5017H13.511H13.5205H13.53H13.5395H13.5492H13.5589H13.5687H13.5785H13.5884H13.5984H13.6085H13.6186H13.6288H13.639H13.6493H13.6597H13.6702H13.6807H13.6913H13.7019H13.7126H13.7234H13.7342H13.7451H13.7561H13.7671H13.7782H13.7893H13.8005H13.8118H13.8231H13.8345H13.8459H13.8574H13.8689H13.8805H13.8922H13.9039H13.9157H13.9275H13.9394H13.9514H13.9634H13.9754H13.9875H13.9997H14.0119H14.0241H14.0365H14.0488H14.0612H14.0737H14.0862H14.0988H14.1114H14.124H14.1368H14.1495H14.1623H14.1752H14.1881H14.201H14.214H14.227H14.2401H14.2532H14.2664H14.2796H14.2929H14.3062H14.3195H14.3329H14.3463H14.3598H14.3733H14.3868H14.4004H14.414H14.4277H14.4414H14.4551H14.4689H14.4827H14.4966H14.5105H14.5244H14.5383H14.5523H14.5664H14.5804H14.5945H14.6086H14.6228H14.637H14.6512H14.6655H14.6798H14.6941H14.7084H14.7228H14.7372H14.7517H14.7661H14.7806H14.7952H14.8097H14.8243H14.8389H14.8535H14.8682H14.8828H14.8976H14.9123H14.927H14.9418H14.9566H14.9714H14.9863H15.0012H15.016H15.031H15.0459H15.0608H15.0758H15.0908H15.1058H15.1208H15.1359H15.1509H15.166H15.1811H15.1962H15.2114H15.2265H15.2417H15.2568H15.272H15.2872H15.3024H15.3177H15.3329H15.3482H15.3634H15.3787H15.394H15.4093H15.4246H15.4399H15.4552H15.4706H15.4859H15.5013H15.5166H15.532H15.5474H15.5627H15.5781H15.5935H15.6089H15.6243H15.6397H15.6551H15.6705H15.6859H15.7014H15.7168H15.7322H15.7476H15.763H15.7784H15.7939H15.8093H15.8247H15.8401H15.8555H15.8709H15.8863H15.9018H15.9172H15.9326H15.9479H15.9633H15.9787H15.9941H16.0095H16.0248H16.0402H16.0555H16.0709H16.0862H16.1015H16.1169H16.1322H16.1475H16.1628H16.178H16.1933H16.2085H16.2238H16.239H16.2542H16.2694H16.2846H16.2998H16.3149H16.3301H16.3452H16.3603H16.3754H16.3905H16.4056H16.4206H16.4356H16.4506H16.4656H16.4806H16.4956H16.5105H16.5254H16.5403H16.5551H16.57H16.5848H16.5996H16.6144H16.6291H16.6439H16.6586H16.6733H16.6879H16.7025H16.7171H16.7317H16.7463H16.7608H16.7753H16.7897H16.8042H16.8186H16.833H16.8473H16.8616H16.8759H16.8902H16.9044H16.9186H16.9328H16.9469H16.961H16.975H16.9891H17.0031H17.017H17.0309H17.0448H17.0587H17.0725H17.0862H17.1H17.1137H17.1273H17.141H17.1545H17.1681H17.1816H17.195H17.2085H17.2218H17.2352H17.2485H17.2617H17.2749H17.2881H17.3012H17.3143H17.3273H17.3403H17.3533H17.3662H17.379H17.3918H17.4046H17.4173H17.4299H17.4425H17.4551H17.4676H17.4801H17.4925H17.5048H17.5172H17.5294H17.5416H17.5538H17.5659H17.5779H17.5899H17.6019H17.6137H17.6256H17.6373H17.6491H17.6607H17.6723H17.6839H17.6954H17.7068H17.7182H17.7295H17.7407H17.7519H17.7631H17.7741H17.7852H17.7961H17.807H17.8178H17.8286H17.8393H17.8499H17.8605H17.871H17.8815H17.8919H17.9022H17.9124H17.9226H17.9327H17.9428H17.9528H17.9627H17.9725H17.9823H17.992H18.0016H18.0112H18.0207H18.0301H18.0395H18.0488H18.058H18.0671H18.0762H18.0852H18.0941H18.1029H18.1117H18.1204H18.129H18.1375H18.146H18.1544H18.1627H18.1709H18.179H18.1871H18.1951H18.203H18.2108H18.2186H18.2263H18.2339H18.2414H18.2488H18.2561H18.2634H18.2706H18.2777H18.2847H18.2916H18.2984H18.3052H18.3119H18.3184H18.3249H18.3313H18.3377H18.3439H18.35H18.3561H18.362H18.3679H18.3737H18.3794H18.385H18.3905H18.3959H18.4012H18.4065H18.4116H18.4167H18.4216H18.4265H18.4312H18.4359H18.4405H18.445H18.4493H18.4536H18.4578H18.4619H18.4659H18.4698H18.4735H18.4772H18.4808H18.4843H18.4877H18.491H18.4942H18.4973H18.5002ZM10.6314 38.3615L11.008 41.3741C11.0677 41.8518 11.4594 42.2192 11.94 42.2482C12.4206 42.2773 12.8536 41.9597 12.9704 41.4926L13.6901 38.6137C12.6984 38.5756 11.6907 38.4918 10.6314 38.3615ZM15.3159 38.6353L16.0301 41.4921C16.1469 41.9592 16.5799 42.2768 17.0605 42.2477C17.5411 42.2187 17.9328 41.8514 17.9925 41.3736L18.3566 38.4611C17.3144 38.5649 16.3132 38.6233 15.3159 38.6353ZM24 35.25C24 33.9438 24.8348 32.8325 26 32.4207V29.25V27.25V26.25H28V27.25L38 27.25V26.25H40V27.25V29.25V32.4207C41.1652 32.8325 42 33.9438 42 35.25V38.25V39.25V42.25H40V39.25H26V42.25H24V39.25V38.25V35.25ZM38 29.25H36V32.25H38V29.25ZM34 29.25L32 29.25V32.25H34V29.25ZM30 29.25H28V32.25H30V29.25ZM27 34.25C26.4477 34.25 26 34.6977 26 35.25V37.25H40V35.25C40 34.6977 39.5523 34.25 39 34.25H27Z" fill="#333333"/>
</g>
<defs>
<clipPath id="clip0">
<rect width="48" height="48" fill="white" transform="translate(0 0.25)"/>
</clipPath>
</defs>
</svg>
