<svg width="48" height="48" viewBox="0 0 48 48" fill="none" xmlns="http://www.w3.org/2000/svg">
<path fill-rule="evenodd" clip-rule="evenodd" d="M0 0H48V48H0V0ZM11.7646 6C7.44321 6 7.12476 6.01323 6.80974 6.03921C6.35215 6.07695 6 6.45925 6 6.91826V41.118C6 41.6051 6.39501 42 6.88228 42H13.5291C14.0164 42 14.4114 41.6051 14.4114 41.118V34.6807L18.0259 36.2293C18.488 36.4273 19.0498 36.6359 19.6364 36.7132C20.2339 36.7918 20.9119 36.7407 21.5425 36.3557C22.5551 35.7374 23.2342 34.6199 23.2342 33.343V30.6969C23.2342 30.2098 22.8392 29.8149 22.3519 29.8149L19.6364 28.9328C19.6364 28.0373 20.362 28.0429 21.2361 28.0496C21.313 28.0502 21.3909 28.0508 21.4696 28.0508H22.3519C22.8392 28.0508 23.2342 27.6559 23.2342 27.1688V25.4047H24.2325C25.6418 25.4047 26.4824 23.8344 25.7007 22.6621L23.2342 18.9634V17.4664C23.2342 11.1337 18.0991 6 11.7646 6ZM20.5874 19.6715C20.5874 20.4022 19.9948 20.9946 19.2639 20.9946C18.533 20.9946 17.9405 20.4022 17.9405 19.6715C17.9405 18.9408 18.533 18.3485 19.2639 18.3485C19.9948 18.3485 20.5874 18.9408 20.5874 19.6715ZM29.6842 29.9995C29.6842 30.8925 29.2051 31.6688 28.4955 32.0835L29.5045 33.8103C30.8085 33.0483 31.6842 31.6254 31.6842 29.9995C31.6842 28.3736 30.8085 26.9508 29.5045 26.1888L28.4955 27.9156C29.2051 28.3303 29.6842 29.1066 29.6842 29.9995ZM31.7823 34.6633C32.9952 33.7858 33.8947 32.0671 33.8947 29.9999C33.8947 27.9327 32.9952 26.214 31.7823 25.3365L32.9546 23.7161C34.7621 25.0238 35.8947 27.3893 35.8947 29.9999C35.8947 32.6106 34.7621 34.9761 32.9546 36.2837L31.7823 34.6633ZM35.1154 22.7835C36.841 24.152 38.1051 26.8185 38.1051 29.9999C38.1051 33.1813 36.841 35.8478 35.1154 37.2163L36.3581 38.7834C38.6597 36.9581 40.1051 33.6554 40.1051 29.9999C40.1051 26.3444 38.6597 23.0417 36.3581 21.2165L35.1154 22.7835Z" fill="#333333"/>
</svg>
