<svg width="48" height="49" viewBox="0 0 48 49" fill="none" xmlns="http://www.w3.org/2000/svg">
<g clip-path="url(#clip0)">
<path fill-rule="evenodd" clip-rule="evenodd" d="M48 0.5H0V48.5H48V0.5ZM37 12.5C37 14.7091 35.2091 16.5 33 16.5C30.7909 16.5 29 14.7091 29 12.5C29 10.2909 30.7909 8.5 33 8.5C35.2091 8.5 37 10.2909 37 12.5ZM40.0692 34.8392C39.6151 33.6434 38.8865 31.6591 38.307 29.7709C40.0962 29.5537 41.5 27.4562 41.5 24.9006C41.5 22.2005 39.933 20.0117 38 20.0117H37.9874C37.9957 19.9518 38 19.8905 38 19.8283C38 19.0947 37.4053 18.5 36.6717 18.5H29.3283C28.5947 18.5 28 19.0947 28 19.8283C28 19.8905 28.0043 19.9518 28.0126 20.0117H28V20.0118C26.067 20.0118 24.5 22.2006 24.5 24.9007C24.5 27.4829 25.9332 29.5975 27.749 29.7772C27.1768 31.6642 26.4402 33.6071 25.9689 34.7972C25.7332 35.3923 26.0989 36.0615 26.7302 36.1673C31.6606 36.9934 34.786 37.0147 39.3241 36.1802C39.9372 36.0675 40.2906 35.4219 40.0692 34.8392ZM30.5 20.0001C30.5 21.7493 30.3666 23.1074 29.9625 24.0086C29.7715 24.4347 29.5377 24.7158 29.2624 24.8972C28.9883 25.0778 28.5958 25.2105 28 25.2105V27.2105C28.9042 27.2105 29.6992 27.0045 30.3626 26.5674C31.0247 26.1312 31.4785 25.5159 31.7875 24.8269C32.3834 23.4979 32.5 21.7508 32.5 20.0001H30.5ZM36.0375 24.0086C35.6334 23.1074 35.5 21.7492 35.5 20H33.5C33.5 21.7508 33.6166 23.4979 34.2125 24.8269C34.5215 25.5159 34.9752 26.1311 35.6374 26.5673C36.3008 27.0044 37.0958 27.2105 38 27.2105V25.2105C37.4042 25.2105 37.0117 25.0777 36.7376 24.8972C36.4623 24.7158 36.2285 24.4347 36.0375 24.0086ZM28.5 37.6515V38.9999C28.5 39.7521 29.0571 40.3879 29.8028 40.4868C30.5485 40.5857 31.2521 40.117 31.4482 39.3908L31.8435 37.9263C30.7614 37.8897 29.6624 37.7985 28.5 37.6515ZM35.1411 37.8695L35.5518 39.3908C35.7479 40.117 36.4515 40.5857 37.1972 40.4868C37.9429 40.3879 38.5 39.7521 38.5 38.9999V37.5C37.3214 37.6739 36.2165 37.7975 35.1411 37.8695ZM18.445 12.5C18.445 14.7091 16.6542 16.5 14.445 16.5C12.2359 16.5 10.445 14.7091 10.445 12.5C10.445 10.2909 12.2359 8.5 14.445 8.5C16.6542 8.5 18.445 10.2909 18.445 12.5ZM20 38.5C20 39.5563 19.1785 40.4305 18.1243 40.4961C17.07 40.5618 16.1465 39.7962 16.0154 38.7481L15.2345 32.5H14.7913L13.9835 38.7561C13.8485 39.8022 12.9243 40.5636 11.8717 40.4959C10.8191 40.4282 10 39.5547 10 38.5V32.5V31.6149V29.7984C8.0268 29.4974 6.5 27.44 6.5 24.9467C6.5 22.3782 8.12046 20.2722 10.1801 20.0726C10.0666 19.9104 10 19.713 10 19.5C10 18.9477 10.4477 18.5 11 18.5H19C19.5523 18.5 20 18.9477 20 19.5C20 19.7129 19.9335 19.9103 19.82 20.0725C21.8801 20.2714 23.5012 22.3777 23.5012 24.9467C23.5012 27.4405 21.9738 29.4982 20 29.7986V30.4998V32.5V38.5ZM12.1059 20.0571C12.1059 21.9677 11.9413 23.3165 11.5285 24.1689C11.3355 24.5676 11.1029 24.8245 10.828 24.9907C10.5491 25.1594 10.1511 25.2802 9.55611 25.2802V27.2802C10.4245 27.2802 11.2019 27.1019 11.863 26.7021C12.5281 26.2998 13.0001 25.719 13.3286 25.0406C13.959 23.7388 14.1059 21.9761 14.1059 20.0571H12.1059ZM18.2519 24.1689C17.8391 23.3165 17.6745 21.9677 17.6745 20.0571H15.6745C15.6745 21.9761 15.8214 23.7388 16.4518 25.0406C16.7803 25.719 17.2523 26.2998 17.9174 26.7021C18.5785 27.1019 19.3559 27.2802 20.2243 27.2802V25.2802C19.6293 25.2802 19.2313 25.1594 18.9524 24.9907C18.6776 24.8245 18.445 24.5676 18.2519 24.1689Z" fill="#333333"/>
</g>
<defs>
<clipPath id="clip0">
<rect width="48" height="48" fill="white" transform="translate(0 0.5)"/>
</clipPath>
</defs>
</svg>
