<svg width="48" height="48" viewBox="0 0 48 48" fill="none" xmlns="http://www.w3.org/2000/svg">
<path fill-rule="evenodd" clip-rule="evenodd" d="M22.9645 9.16263C21.8055 8.05919 20.1386 7.51048 17.9672 8.04371C17.5014 7.41474 16.8092 6.77117 15.8899 6.37651C14.5542 5.8031 12.8769 5.815 10.9856 6.90161C9.0077 7.82463 8.05482 9.18247 7.79227 10.6063C7.61382 11.5741 7.76893 12.4919 8.02385 13.2165C6.34565 14.6843 5.84115 16.36 6.08212 17.9391C6.29052 19.3048 7.03706 20.472 7.76902 21.2642C7.64293 21.8429 7.62641 22.4092 7.73113 22.9423C8.04139 22.7211 8.18808 22.6205 8.52484 22.4831C9.07459 22.2587 9.52484 22.2333 10.0248 22.2333C11.5998 22.2333 12.511 22.4158 14.0129 22.8327C14.8986 23.0786 15.6186 23.3808 16.2798 23.7481C16.335 23.7787 16.3898 23.8098 16.4442 23.8414L16.7282 23.7186C17.0853 23.5642 17.4796 23.5173 17.863 23.5834L21.3761 24.1897C21.3246 23.916 21.2818 23.6403 21.2475 23.3687C21.1866 22.8868 21.1523 22.4175 21.1433 21.9934C21.115 20.6556 21.3701 19.3269 21.892 18.0946C22.4139 16.8622 23.1908 15.7541 24.1717 14.8428C24.4339 14.5992 24.7092 14.3711 24.9959 14.1595C25.2316 13.9856 25.475 13.8227 25.7254 13.6715C25.8698 13.5842 26.0165 13.5008 26.1654 13.4214C25.7816 13.0105 25.2933 12.6855 24.7267 12.4487C24.4961 11.3958 23.966 10.1161 22.9645 9.16263ZM13.1391 10.2801C13.6341 10.0356 14.2339 10.2383 14.4787 10.7328L15.2704 12.3325L16.8829 10.6061C17.2597 10.2027 17.8925 10.1808 18.2963 10.5572C18.7001 10.9336 18.722 11.5657 18.3452 11.9691L16.2179 14.2467L17.0206 15.8684L18.352 14.6585C18.7605 14.2872 19.393 14.3171 19.7646 14.7252C20.1362 15.1333 20.1063 15.7651 19.6978 16.1364L17.9427 17.7314L18.9987 19.865C19.2435 20.3596 19.0406 20.9587 18.5455 21.2032C18.0505 21.4478 17.4507 21.2451 17.2059 20.7505L16.1106 18.5376L14.1466 18.9347C13.6053 19.0441 13.0777 18.6945 12.9681 18.1537C12.8586 17.613 13.2086 17.0859 13.7499 16.9765L15.1935 16.6846L14.3982 15.0778L11.359 15.5351C10.8128 15.6173 10.3034 15.2416 10.2212 14.696C10.1389 14.1505 10.515 13.6416 11.0611 13.5594L13.4674 13.1974L12.6859 11.6184C12.4411 11.1238 12.644 10.5246 13.1391 10.2801Z" fill="currentColor"/>
<path fill-rule="evenodd" clip-rule="evenodd" d="M24.1363 24.6951C23.9386 24.6562 23.7677 24.623 23.6285 24.5961C23.4483 24.1014 23.3154 23.5918 23.2338 23.0733L23.2187 23.0121C23.1167 22.5961 23.0488 22.2287 23.0429 21.9532C23.0202 20.883 23.2243 19.82 23.6418 18.8341C24.0594 17.8482 24.6809 16.9617 25.4656 16.2327C25.5272 16.1755 25.5897 16.1255 25.653 16.0818C27.6684 14.2827 30.4862 13.969 32.6678 15.7554C32.6426 13.3026 33.6388 10.907 36.0482 9.51735L36.8927 10.9786C34.852 12.1556 34.0931 14.3584 34.431 16.7135C39.086 15.1835 42.709 19.5865 41.3494 24.6555C40.9207 26.2537 40.0143 27.6088 38.8016 28.6326C38.6055 28.5638 38.402 28.4927 38.1925 28.42C36.3851 27.7926 34.1097 27.0345 32.2913 26.5327C30.5241 26.0452 28.2486 25.5404 26.4286 25.1598C25.5156 24.9689 24.7119 24.8082 24.1363 24.6951ZM37.5538 19.9861C38.096 19.8811 38.6207 20.2352 38.7258 20.7768C39.0901 22.6554 38.4106 24.5203 36.9228 25.7254C36.4938 26.0729 35.8641 26.0072 35.5162 25.5786C35.1684 25.1501 35.2342 24.521 35.6632 24.1735C36.5773 23.4331 36.9861 22.311 36.7623 21.1568C36.6572 20.6152 37.0116 20.091 37.5538 19.9861Z" fill="currentColor"/>
<path fill-rule="evenodd" clip-rule="evenodd" d="M10.2356 41.9984C13.2354 41.8312 15.0922 40.9782 16.2365 39.7291C16.6912 40.3391 17.4545 40.6927 18.2797 40.5629C19.1258 40.4298 20.1689 40.255 21.3779 40.0319V35.3473H23.6072V39.6011C26.4277 39.0317 29.8589 38.2479 33.6392 37.1948V34.2338H35.8685V36.5536C37.3921 36.1013 38.9612 35.6065 40.5601 35.0658C42.48 34.4166 42.48 31.8239 40.5601 31.1747C36.4875 29.7976 32.6087 28.7178 29.1805 27.8817V34.2338L26.9512 34.2338L26.9512 27.3568C23.2611 26.5188 20.241 25.9862 18.2797 25.6776C17.4544 25.5478 16.6911 25.9015 16.2365 26.5115C15.0922 25.2624 13.2353 24.4094 10.2356 24.2423C9.62092 24.208 9.11458 24.7124 9.12342 25.3273C9.14947 27.1402 9.25973 28.5801 9.63771 29.7034C8.41338 30.167 7.25745 31.1032 6.2022 32.512C5.9326 32.8719 5.9326 33.3687 6.2022 33.7286C7.24888 35.126 8.39461 36.0584 9.60789 36.5259C9.28585 37.6167 9.15814 39.0452 9.12544 40.9104C9.11467 41.5253 9.62092 42.0326 10.2356 41.9984ZM12.4346 31.0259L10.4279 31.7858C9.87237 31.9962 9.24764 32.4074 8.58864 33.1203C9.24067 33.8257 9.85918 34.2358 10.4101 34.448L12.3275 35.1868L11.7462 37.1558C11.5747 37.7367 11.4602 38.5299 11.3992 39.6442C13.5484 39.3131 14.4568 38.5174 14.9264 37.792C15.6014 36.7492 15.8044 35.2273 15.8044 33.1203C15.8044 31.0133 15.6014 29.4915 14.9264 28.4487C14.4563 27.7226 13.5467 26.926 11.393 26.5955C11.4498 27.6754 11.5623 28.4334 11.7508 28.9938L12.4346 31.0259Z" fill="currentColor"/>
</svg>
