<svg width="48" height="48" viewBox="0 0 48 48" fill="none" xmlns="http://www.w3.org/2000/svg">
<path fill-rule="evenodd" clip-rule="evenodd" d="M11.7646 6.00003C7.44321 6.00003 7.12476 6.01326 6.80974 6.03925C6.35215 6.07699 6 6.45928 6 6.91829V41.118C6 41.6051 6.39501 42 6.88228 42H13.5291C14.0164 42 14.4114 41.6051 14.4114 41.118V34.6807L18.0259 36.2293C18.488 36.4273 19.0498 36.636 19.6364 36.7132C20.2339 36.7919 20.9119 36.7407 21.5425 36.3557C22.5551 35.7375 23.2342 34.6199 23.2342 33.343V30.6969C23.2342 30.2098 22.8392 29.8149 22.3519 29.8149L19.6364 28.9329C19.6364 27.9586 20.4951 28.0508 21.4696 28.0508H22.3519C22.8392 28.0508 23.2342 27.6559 23.2342 27.1688V25.4047H24.2325C25.6418 25.4047 26.4824 23.8345 25.7007 22.6622L23.2342 18.9635V17.4665C23.2342 11.1337 18.0991 6.00003 11.7646 6.00003ZM20.5874 19.6715C20.5874 20.4022 19.9948 20.9946 19.2639 20.9946C18.533 20.9946 17.9405 20.4022 17.9405 19.6715C17.9405 18.9408 18.533 18.3485 19.2639 18.3485C19.9948 18.3485 20.5874 18.9408 20.5874 19.6715Z" fill="#333333"/>
<path fill-rule="evenodd" clip-rule="evenodd" d="M28.4955 32.0835C29.2051 31.6688 29.6842 30.8925 29.6842 29.9996C29.6842 29.1066 29.2051 28.3303 28.4955 27.9156L29.5045 26.1888C30.8085 26.9508 31.6842 28.3737 31.6842 29.9996C31.6842 31.6255 30.8085 33.0483 29.5045 33.8103L28.4955 32.0835Z" fill="#333333"/>
<path fill-rule="evenodd" clip-rule="evenodd" d="M31.7823 34.6634C32.9952 33.7859 33.8947 32.0671 33.8947 29.9999C33.8947 27.9328 32.9952 26.214 31.7823 25.3365L32.9546 23.7161C34.7621 25.0238 35.8947 27.3893 35.8947 29.9999C35.8947 32.6106 34.7621 34.9761 32.9546 36.2838L31.7823 34.6634Z" fill="#333333"/>
<path fill-rule="evenodd" clip-rule="evenodd" d="M38.1051 29.9999C38.1051 26.8186 36.841 24.152 35.1154 22.7836L36.3581 21.2165C38.6597 23.0417 40.1051 26.3445 40.1051 29.9999C40.1051 33.6554 38.6597 36.9582 36.3581 38.7834L35.1154 37.2163C36.841 35.8479 38.1051 33.1813 38.1051 29.9999Z" fill="#333333"/>
</svg>
