<svg width="48" height="48" viewBox="0 0 48 48" fill="none" xmlns="http://www.w3.org/2000/svg">
<path fill-rule="evenodd" clip-rule="evenodd" d="M23.9586 26C29.4687 26 33.9356 21.5228 33.9356 16C33.9356 10.4772 29.4687 6 23.9586 6C18.4484 6 13.9816 10.4772 13.9816 16C13.9816 21.5228 18.4484 26 23.9586 26ZM23.9586 24C28.3667 24 31.9402 20.4183 31.9402 16C31.9402 11.5817 28.3667 8 23.9586 8C19.5505 8 15.977 11.5817 15.977 16C15.977 20.4183 19.5505 24 23.9586 24Z" fill="black"/>
<path d="M14.4132 33.4415C13.5558 33.9692 12.9839 34.9176 12.9839 36C12.9839 37.6568 14.324 39 15.977 39C17.63 39 18.9701 37.6568 18.9701 36C18.9701 34.476 17.8363 33.2174 16.368 33.0254C16.3353 32.9079 16.3012 32.7725 16.2665 32.6206C16.1469 32.0971 16.0328 31.4332 15.9479 30.7512C15.8629 30.0679 15.8101 29.3904 15.8066 28.8375C15.8053 28.6348 15.8108 28.4582 15.8219 28.3101C16.2058 28.1997 16.5907 28.1003 16.9747 28.0126C17.415 27.9121 17.6756 28.433 17.8867 28.8551C17.9161 28.9139 17.9446 28.9707 17.9724 29.0237H22.027C22.9347 29.0235 23.3863 29.0236 23.8402 29.0237H23.8568C24.3006 29.0238 24.7525 29.0239 25.6398 29.0237H27.9494V42H6V36.5699C6 33.5376 9.60162 30.6499 13.813 28.993C13.8243 29.6146 13.8831 30.3182 13.9679 30.9988C14.0593 31.7335 14.184 32.4653 14.3214 33.0669C14.3509 33.1958 14.3815 33.3213 14.4132 33.4415Z" fill="black"/>
<path d="M15.977 37.0147C16.5142 37.0147 16.9747 36.5742 16.9747 36C16.9747 35.4257 16.5142 34.9853 15.977 34.9853C15.4398 34.9853 14.9793 35.4257 14.9793 36C14.9793 36.5742 15.4398 37.0147 15.977 37.0147Z" fill="black"/>
<path fill-rule="evenodd" clip-rule="evenodd" d="M39.1735 26C39.1735 25.4477 38.7268 25 38.1758 25C37.6248 25 37.1781 25.4477 37.1781 26V26.2395H34.9333V26C34.9333 25.4477 34.4866 25 33.9356 25C33.3846 25 32.9379 25.4477 32.9379 26V26.2395H31.8155C30.7824 26.2395 29.9448 27.079 29.9448 28.1145V40.1249C29.9448 41.1605 30.7824 41.9999 31.8155 41.9999H40.1293C41.1625 41.9999 42 41.1605 42 40.1249V28.1145C42 27.079 41.1625 26.2395 40.1293 26.2395H39.1735V26ZM38.4521 31.4021C38.7838 31.1112 38.8174 30.6058 38.5271 30.2733C38.2369 29.9408 37.7326 29.9071 37.4009 30.198L35.0924 32.2226L34.4795 31.6507C34.1568 31.3496 33.6518 31.3678 33.3514 31.6912C33.0511 32.0146 33.0692 32.5208 33.3918 32.8218L34.5255 33.8795C34.8288 34.1625 35.2964 34.1697 35.6083 33.8962L38.4521 31.4021ZM38.452 35.6521C38.7837 35.3611 38.8173 34.8557 38.5271 34.5232C38.2368 34.1907 37.7325 34.157 37.4008 34.4479L35.0924 36.4725L34.4794 35.9006C34.1568 35.5996 33.6517 35.6177 33.3514 35.9411C33.051 36.2645 33.0691 36.7707 33.3918 37.0717L34.5254 38.1294C34.8287 38.4124 35.2964 38.4196 35.6082 38.1461L38.452 35.6521Z" fill="black"/>
</svg>
