<svg width="48" height="48" viewBox="0 0 48 48" fill="none" xmlns="http://www.w3.org/2000/svg">
<path d="M26 29.8571C26 31.0571 25.12 32 24 32C22.88 32 22 31.0571 22 29.8571C22 28.6571 24 26 24 26C24 26 26 28.7429 26 29.8571Z" fill="black"/>
<path fill-rule="evenodd" clip-rule="evenodd" d="M10.6487 21.3369C10.558 21.3308 10.4686 21.3161 10.3808 21.2925C8.51365 20.7922 8.04294 16.4945 9.32942 11.6933C10.6159 6.89213 13.1724 3.40556 15.0395 3.90586C15.1274 3.92942 15.2123 3.9614 15.294 4.00145C15.3696 4.00381 15.4462 4.01485 15.5225 4.03529L17.227 4.49203C17.241 4.49576 17.2548 4.49978 17.2685 4.50411C18.6111 4.9268 19.1722 6.21074 19.4706 7.68306C19.6931 8.78081 19.8162 10.2195 19.9022 12.0197L21.0743 12.3338C21.3032 11.3244 22.041 10.5082 23.0038 10.1694C23.0673 7.43445 23.9251 5.56159 25.4409 4.61939C26.99 3.65644 28.8735 3.88941 30.4139 4.5896C31.9682 5.29613 33.3998 6.56906 34.1713 8.07537C34.9614 9.61786 35.0837 11.4962 33.7809 13.1247C32.9015 14.224 32.5956 15.2253 32.6016 16.0869C32.6076 16.9575 32.9331 17.7858 33.4875 18.5251C34.6321 20.0511 36.5981 21 38 21C38.5523 21 39 21.4477 39 22C39 22.5523 38.5523 23 38 23C35.902 23 33.368 21.6989 31.8876 19.7251C31.1295 18.7143 30.6112 17.4802 30.6016 16.1008C30.592 14.7124 31.0986 13.2761 32.2192 11.8754C32.9164 11.0038 32.9137 10.0072 32.3913 8.98712C31.8503 7.9309 30.7819 6.95381 29.5862 6.41033C28.3766 5.8605 27.2601 5.84345 26.4967 6.31797C25.7922 6.75594 25.0658 7.8175 25.0043 10.1722C26.1672 10.5852 27 11.6953 27 13V17.9996C28.2145 18.9118 29 20.3642 29 22V22.8898L31.3522 24.75V31.625L32.8295 38.5625C33.4861 40.7059 32.2452 44 29.1364 44H18.8637C15.7549 44 14.514 40.7059 15.1706 38.5625L16.6479 31.625V24.75L19 22.8898V22C19 20.3642 19.7856 18.9118 21 17.9996V17.4903L18.5592 16.8362C17.6235 18.2858 16.8255 19.4234 16.1068 20.237C15.1122 21.3628 13.9843 22.1942 12.6103 21.889C12.5962 21.8859 12.5822 21.8824 12.5683 21.8787L10.8637 21.422C10.7874 21.4015 10.7155 21.3728 10.6487 21.3369ZM11.8407 18.2042C12.6936 17.0411 13.5633 15.2108 14.159 12.9874C14.7548 10.7641 14.9167 8.74414 14.7597 7.31037C14.6947 6.71648 14.5826 6.29537 14.4719 6.02444C14.2405 6.20369 13.9329 6.51237 13.5796 6.99417C12.7267 8.15733 11.857 9.98763 11.2613 12.211C10.6655 14.4343 10.5036 16.4542 10.6606 17.888C10.7257 18.4819 10.8377 18.903 10.9485 19.1739C11.1798 18.9947 11.4874 18.686 11.8407 18.2042ZM13.0235 19.9301C14.2165 18.5416 15.3591 16.236 16.0909 13.5051C16.8226 10.7741 16.9859 8.20612 16.647 6.40716L16.6835 6.41695C16.8939 6.48956 17.2396 6.74404 17.5104 8.08034C17.7694 9.3579 17.8875 11.2623 17.9793 14.0111C16.5254 16.3457 15.4709 17.9359 14.6079 18.9128C13.7052 19.9347 13.2785 19.9822 13.0601 19.9399L13.0235 19.9301ZM24 19C22.3432 19 21 20.3431 21 22H27C27 20.3431 25.6569 19 24 19ZM25 17V13C25 12.4477 24.5523 12 24 12C23.4478 12 23 12.4477 23 13V17H25ZM20.8204 24L18.6479 25.7181V31.8356L17.7251 36.1691C19.1337 36.6224 22.0485 37.2684 24.369 35.859C26.6522 34.4723 28.996 35.0754 30.1383 35.5269L29.3522 31.8356V25.7181L27.1797 24H20.8204Z" fill="black"/>
</svg>
