<svg width="48" height="48" viewBox="0 0 48 48" fill="none" xmlns="http://www.w3.org/2000/svg">
<path fill-rule="evenodd" clip-rule="evenodd" d="M25.1496 10C24.6481 10 24.2236 10.3688 24.1553 10.8638L22.2232 24.8638C22.1403 25.4646 22.6089 26 23.2175 26H32.1029V36H23.5717V30.3478H11.0257V24H12.9078C15.2363 24 16.7507 21.5569 15.7094 19.4805L12.8236 13.7263C11.6693 11.4246 8.3748 11.4246 7.22049 13.7263L4.33472 19.4805C3.2934 21.5569 4.80783 24 7.13629 24H9.01838V32.3478H21.5643V38H34.1103V26H42.9961C43.6048 26 44.0734 25.4646 43.9905 24.8638L42.0584 10.8638C41.9901 10.3688 41.5656 10 41.0641 10H25.1496ZM9.01838 24H11.0257V21.5C11.0257 20.9477 10.5764 20.5 10.0221 20.5C9.46774 20.5 9.01838 20.9477 9.01838 21.5V24ZM27.32 14.3707C27.3852 13.8726 27.8111 13.5 28.3152 13.5H37.8986C38.4027 13.5 38.8286 13.8726 38.8938 14.3707L39.4829 18.8707C39.5613 19.4692 39.0935 20 38.4877 20H27.7261C27.1202 20 26.6525 19.4692 26.7308 18.8707L27.32 14.3707ZM34.1106 23C34.1106 23.5523 33.6612 24 33.1069 24C32.5526 24 32.1032 23.5523 32.1032 23C32.1032 22.4477 32.5526 22 33.1069 22C33.6612 22 34.1106 22.4477 34.1106 23Z" fill="black"/>
</svg>
