<svg width="48" height="48" viewBox="0 0 48 48" fill="none" xmlns="http://www.w3.org/2000/svg">
<path fill-rule="evenodd" clip-rule="evenodd" d="M30.0313 9.99982C31.1215 9.98308 32 9.09417 32 8.00006V4.00006H16V8.00006C16 9.09052 16.8727 9.97715 17.9578 9.99962C17.9614 10.0843 17.9662 10.189 17.9724 10.3152C17.9925 10.7188 18.0279 11.342 18.0893 12.2287C18.2121 14.0021 18.4392 16.8312 18.8566 21.068C19.0063 22.587 19.8977 23.9454 20.6037 25.0214L20.6827 25.1419C21.0666 25.7279 21.3994 26.2416 21.6418 26.74C21.8822 27.2341 21.9969 27.6423 21.9969 28.0023C21.9969 28.2598 21.9977 29.0095 21.9985 29.694L22.0001 30.9989C22.0008 31.5508 22.4484 31.9981 23 31.9981L23 39.0017C23 39.553 23.4469 40 23.9983 40C24.5496 40 24.9965 39.553 24.9965 39.0017V38.9949H25V32.0144L25.0096 32.0145C25.5619 32.0145 26.0096 31.5668 26.0096 31.0144V27.9737C26.0096 27.6181 26.1247 27.217 26.3671 26.7304C26.6122 26.2386 26.9478 25.7341 27.3358 25.1542L27.4003 25.0579C28.1145 23.9919 29.0266 22.6305 29.1484 21.0816C29.4748 16.9302 29.7001 14.1029 29.8439 12.3136C29.9158 11.4189 29.9673 10.7838 30.0008 10.3724L30.0313 9.99982ZM28.0074 10.21L28.0246 10.0001H19.9597C19.9625 10.0626 19.9659 10.1344 19.97 10.2159C19.9893 10.6052 20.0239 11.2153 20.0845 12.0906C20.1215 12.625 20.1682 13.2582 20.2271 14.0001H27.7025C27.7591 13.2908 27.8082 12.6776 27.8504 12.1534C27.9223 11.2581 27.9739 10.6222 28.0074 10.21ZM24.1335 27.004C24.2372 26.5897 24.3969 26.1999 24.5771 25.8384C24.885 25.2204 25.2896 24.6159 25.6575 24.0661L25.6736 24.042C26.4714 22.8498 27.0778 21.9015 27.1546 20.9248C27.305 19.0115 27.434 17.3792 27.5434 16.0001H20.3935C20.5114 17.3597 20.6599 18.973 20.847 20.8719C20.9447 21.8635 21.5633 22.8362 22.3558 24.046C22.7266 24.6121 23.1326 25.2325 23.4404 25.8652C23.6131 26.2203 23.7662 26.6012 23.8679 27.004H24.1335Z" fill="black"/>
<path d="M22.3019 41.9658C22.4358 41.334 23.3404 40.9934 23.9862 40.9934C24.6444 40.9934 25.5539 41.3328 25.6934 41.9761L25.8422 42.6623C25.9359 43.094 25.7352 43.5387 25.3235 43.6989C24.9351 43.8501 24.4366 43.9999 23.9863 43.9999C23.5642 43.9999 23.0718 43.8496 22.6829 43.6982C22.2688 43.537 22.0634 43.091 22.1555 42.6563L22.3019 41.9658Z" fill="black"/>
</svg>
