<svg width="48" height="48" viewBox="0 0 48 48" fill="none" xmlns="http://www.w3.org/2000/svg">
<path fill-rule="evenodd" clip-rule="evenodd" d="M39.8435 9.97199C42.1819 12.5473 42.5882 16.1635 41.3674 19.2688C39.2798 24.5787 34.5828 29.3892 30.1271 33.9525C27.9479 36.1843 25.8265 38.357 24.0963 40.5C23.697 40.1108 23.2841 39.7103 22.8604 39.2993C17.1712 33.7804 9.53583 26.3737 6.68064 19.2688C6.22654 18.1389 6.00935 16.929 6.04233 15.713C6.0753 14.4971 6.35774 13.3005 6.87241 12.1964C7.38708 11.0922 8.1232 10.1037 9.03585 9.29101C12.6689 6.04659 18.3562 6.5524 21.8131 9.98079L24.0963 12.2451L26.7408 9.62255C27.6081 8.76244 28.643 8.0866 29.7824 7.63627C30.9218 7.18593 32.1418 6.97054 33.3679 7.00324C34.594 7.03593 35.8005 7.31604 36.9139 7.82645C38.0272 8.33687 39.024 9.06689 39.8435 9.97199ZM18.9687 24.8016L26.909 14.5359L25.3817 22.2861H29.9083C30.3237 22.2861 30.558 22.7634 30.3038 23.092L22.3635 33.3577L23.8908 25.6075H19.3642C18.9488 25.6075 18.7145 25.1302 18.9687 24.8016Z" fill="black"/>
</svg>
