<svg width="48" height="48" viewBox="0 0 48 48" fill="none" xmlns="http://www.w3.org/2000/svg">
<path fill-rule="evenodd" clip-rule="evenodd" d="M6 7C6 6.44772 6.44772 6 7 6H34C34.5523 6 35 6.44772 35 7V27C35 27.5523 34.5523 28 34 28H21V31H34C34.5523 31 35 31.4477 35 32V37C35 37.5523 34.5523 38 34 38H27V35.5C27 34.9477 26.5523 34.5 26 34.5C25.4477 34.5 25 34.9477 25 35.5V38H16V35.5C16 34.9477 15.5523 34.5 15 34.5C14.4477 34.5 14 34.9477 14 35.5V38H7C6.44772 38 6 37.5523 6 37V32C6 31.4477 6.44772 31 7 31H19V28H7C6.44772 28 6 27.5523 6 27V7ZM21.4955 10H19.4955V15.1364C19.4955 15.3519 19.4487 15.4465 19.4297 15.4782C19.4098 15.5113 19.3839 15.5357 19.3433 15.5583C19.2968 15.5841 19.2403 15.6016 19.1885 15.6112C19.1674 15.6151 19.1514 15.6169 19.1432 15.6176H17.9342L17.9353 15.5068C17.9519 13.9777 17.9841 11 15.6046 11C12.3449 11 10.0166 22.2694 11.4136 23.4194C12.8106 24.5693 15.6046 23.8794 17.0016 22.4994C17.9934 21.5197 18.0376 19.3884 17.9862 17.6176H19.1622C19.1644 17.6176 19.1633 17.6176 19.1633 17.6176L19.1644 17.6176L19.1668 17.6176L19.172 17.6176L19.184 17.6174L19.2058 17.6169L19.2142 17.6166C19.2371 17.6157 19.2654 17.6142 19.2986 17.6116C19.3646 17.6064 19.4514 17.5965 19.5526 17.5778C19.7508 17.5411 20.0276 17.466 20.3144 17.3066C20.3744 17.2733 20.4351 17.2362 20.4955 17.1949C20.556 17.2362 20.6166 17.2733 20.6766 17.3066C20.9635 17.466 21.2403 17.5411 21.4384 17.5778C21.5396 17.5965 21.6265 17.6064 21.6924 17.6116C21.7256 17.6142 21.754 17.6157 21.7769 17.6166C21.7883 17.617 21.7984 17.6173 21.8071 17.6174L21.8191 17.6176L21.8242 17.6176L21.8266 17.6176L21.8277 17.6176C21.8277 17.6176 21.8191 17.6176 21.8266 17.6176L21.8288 17.6176H23.0139C22.9624 19.3884 23.0066 21.5197 23.9984 22.4994C25.3954 23.8794 28.1894 24.5693 29.5864 23.4194C30.9834 22.2694 28.6551 11 25.3954 11C23.0159 11 23.0481 13.9777 23.0647 15.5068L23.0659 15.6176H21.8478C21.8396 15.6169 21.8236 15.6151 21.8026 15.6112C21.7508 15.6016 21.6942 15.5841 21.6478 15.5583C21.6071 15.5357 21.5812 15.5113 21.5613 15.4782C21.5424 15.4465 21.4956 15.3519 21.4956 15.1364V11.001L21.4955 11V10Z" fill="black"/>
<path d="M15.9989 42C14.8929 42 14 41.1031 14 40V38H16V40H25V38H27V40H36.8619C37.5484 40 37.9765 39.8733 38.2424 39.7312C38.4984 39.5943 38.6533 39.4176 38.7588 39.2198C38.9998 38.7681 38.9998 38.2056 38.9998 37.6762V24C38.4476 23.9999 38 23.5522 38 23V17C38 16.4478 38.4476 16.0001 38.9998 16V12.9048C38.9998 12.5385 38.9341 12.3705 38.8948 12.3022C38.866 12.2521 38.8254 12.2066 38.7121 12.1585C38.5764 12.1008 38.3638 12.0529 38.0302 12.0267C37.6988 12.0006 37.3203 12 36.8619 12V10H36.8847C37.316 9.99999 37.7694 9.99998 38.1871 10.0328C38.6099 10.0661 39.0697 10.1373 39.4943 10.3177C39.9414 10.5077 40.3491 10.8194 40.6284 11.3049C40.8973 11.7723 40.9998 12.3186 40.9998 12.9048V16C41.552 16 42 16.4477 42 17V23C42 23.5523 41.5523 24 41 24L40.9998 37.6667C40.9998 37.6941 40.9999 37.7244 41.0001 37.7573C41.003 38.2298 41.0092 39.2505 40.5235 40.1611C40.2479 40.6777 39.8201 41.1557 39.1852 41.495C38.5602 41.8291 37.7891 42 36.8619 42H15.9989Z" fill="black"/>
</svg>
