<svg width="48" height="48" viewBox="0 0 48 48" fill="none" xmlns="http://www.w3.org/2000/svg">
<path fill-rule="evenodd" clip-rule="evenodd" d="M14 36C17.3137 36 20 33.3137 20 30C20 26.6863 17.3137 24 14 24C10.6863 24 7.99996 26.6863 7.99996 30C7.99996 33.3137 10.6863 36 14 36ZM14 38C18.4182 38 22 34.4183 22 30C22 25.5817 18.4182 22 14 22C9.58168 22 5.99996 25.5817 5.99996 30C5.99996 34.4183 9.58168 38 14 38Z" fill="black"/>
<path fill-rule="evenodd" clip-rule="evenodd" d="M34 36C37.3137 36 40 33.3137 40 30C40 26.6863 37.3137 24 34 24C30.6862 24 28 26.6863 28 30C28 33.3137 30.6862 36 34 36ZM34 38C38.4182 38 42 34.4183 42 30C42 25.5817 38.4182 22 34 22C29.5817 22 26 25.5817 26 30C26 34.4183 29.5817 38 34 38Z" fill="black"/>
<path fill-rule="evenodd" clip-rule="evenodd" d="M23.9725 30C23.2364 30.0011 22.4653 30.184 21.3682 30.6185C20.8547 30.8218 20.2736 30.5704 20.0702 30.0569C19.8669 29.5435 20.1183 28.9624 20.6317 28.759C21.8394 28.2807 22.8773 28.0016 23.9695 28C25.0602 27.9984 26.1165 28.2735 27.3615 28.7564C27.8765 28.9561 28.132 29.5354 27.9323 30.0503C27.7326 30.5652 27.1533 30.8208 26.6384 30.6211C25.5015 30.1802 24.7101 29.9989 23.9725 30Z" fill="black"/>
<path fill-rule="evenodd" clip-rule="evenodd" d="M8.00545 10.5239C8.05903 10.0149 8.4882 9.62854 8.99996 9.62854H13C13.5522 9.62854 14 10.0763 14 10.6285C14 11.1808 13.5522 11.6285 13 11.6285H9.90022L7.99446 29.7332C7.93665 30.2825 7.44452 30.6809 6.89527 30.623C6.34602 30.5652 5.94764 30.0731 6.00545 29.5239L8.00545 10.5239Z" fill="black"/>
<path fill-rule="evenodd" clip-rule="evenodd" d="M39.9984 10.5239C39.9448 10.0149 39.5156 9.62854 39.0039 9.62854H35.0039C34.4516 9.62854 34.0039 10.0763 34.0039 10.6285C34.0039 11.1808 34.4516 11.6285 35.0039 11.6285H38.1036L40.0094 29.7332C40.0672 30.2825 40.5593 30.6809 41.1085 30.623C41.6578 30.5652 42.0562 30.0731 41.9984 29.5239L39.9984 10.5239Z" fill="black"/>
</svg>
