<svg width="48" height="48" viewBox="0 0 48 48" fill="none" xmlns="http://www.w3.org/2000/svg">
<path fill-rule="evenodd" clip-rule="evenodd" d="M6 26.2706C6 27.7504 7.15127 28.95 8.57143 28.95H11.1431V30.625H14V33C14 34.1819 14.2328 35.3523 14.6851 36.4442C15.1374 37.5361 15.8003 38.5282 16.636 39.364C17.4718 40.1997 18.4639 40.8626 19.5559 41.3149C20.6478 41.7672 21.8181 42 23 42C24.1819 42 25.3522 41.7672 26.4442 41.3149C27.5361 40.8626 28.5282 40.1997 29.364 39.364C30.1997 38.5282 30.8626 37.5361 31.3149 36.4441C31.7672 35.3522 32 34.1819 32 33V32C32.5523 32 33 31.5523 33 31V25C33 24.4477 32.5523 24 32 24V22H32.0075C32.0075 21.5414 32.0978 21.0872 32.2734 20.6635C32.4489 20.2397 32.7061 19.8547 33.0304 19.5304C33.3547 19.2061 33.7397 18.9489 34.1635 18.7734C34.5872 18.5978 35.0414 18.5075 35.5 18.5075C35.9586 18.5075 36.4128 18.5978 36.8365 18.7734C37.2603 18.9489 37.6453 19.2061 37.9696 19.5304C38.2939 19.8547 38.5511 20.2397 38.7267 20.6635C38.9022 21.0872 38.9925 21.5414 38.9925 22L41 22C41 21.2777 40.8577 20.5625 40.5813 19.8952C40.3049 19.228 39.8998 18.6216 39.3891 18.1109C38.8784 17.6002 38.272 17.1951 37.6048 16.9187C36.9375 16.6423 36.2223 16.5 35.5 16.5C34.7777 16.5 34.0625 16.6423 33.3952 16.9187C32.7279 17.1951 32.1216 17.6002 31.6109 18.1109C31.1002 18.6216 30.6951 19.228 30.4187 19.8952C30.1423 20.5625 30 21.2777 30 22V24C29.4477 24 29 24.4477 29 25V31C29 31.5523 29.4477 32 30 32V33H29.975C29.975 33.916 29.7946 34.823 29.4441 35.6692C29.0935 36.5155 28.5798 37.2844 27.9321 37.9321C27.2844 38.5798 26.5155 39.0935 25.6692 39.4441C24.823 39.7946 23.916 39.975 23 39.975C22.084 39.975 21.177 39.7946 20.3308 39.4441C19.4845 39.0935 18.7156 38.5798 18.0679 37.9321C17.4202 37.2844 16.9065 36.5155 16.5559 35.6692C16.2054 34.823 16.025 33.916 16.025 33H16V30.625H18.8574V28.95H21.4286C22.8487 28.95 24 27.7504 24 26.2706V10.271C24 8.79118 22.8487 7.59158 21.4286 7.59158H17.5714L16.8437 6.81164C15.834 5.72945 14.166 5.72945 13.1563 6.81164L12.4286 7.59158H8.57143C7.15127 7.59158 6 8.79117 6 10.2709V26.2706ZM17.5714 9.59158C17.017 9.59158 16.4874 9.3614 16.1091 8.956L15.3814 8.17606C15.2615 8.04755 15.1248 8 15 8C14.8752 8 14.7385 8.04755 14.6186 8.17606L13.8909 8.956C13.5126 9.3614 12.983 9.59158 12.4286 9.59158H8.57143C8.33255 9.59158 8 9.81744 8 10.2709V21.9775C8.40728 21.9855 8.80269 21.9985 9.18645 22.0123L9.54031 22.0253C10.397 22.0569 11.1842 22.0859 11.9541 22.07C13.6696 22.0344 15.2185 21.7749 16.8663 20.827C17.9288 20.2158 18.9347 19.9731 19.8602 20.0023C20.7009 20.0289 21.4188 20.2778 22 20.5983V10.271C22 9.81744 21.6674 9.59158 21.4286 9.59158H17.5714Z" fill="black"/>
<path d="M38.7788 25.6459C39.3404 24.7045 40 24 40 24C40 24 40.6596 24.7045 41.2212 25.6459C41.6375 26.3437 42 27.1718 42 27.9394C42 29.0774 41.1046 30 40 30C38.8954 30 38 29.0774 38 27.9394C38 27.1718 38.3625 26.3437 38.7788 25.6459Z" fill="black"/>
</svg>
