<svg width="48" height="48" viewBox="0 0 48 48" fill="none" xmlns="http://www.w3.org/2000/svg">
<path fill-rule="evenodd" clip-rule="evenodd" d="M18.1421 3.99994L4 18.1421L11.7782 25.9202L25.9203 11.7781L18.1421 3.99994ZM16.8136 8.35042L15.3994 9.76463L20.3491 14.7144L21.7633 13.3002L16.8136 8.35042ZM13.2781 11.8861L11.8639 13.3003L16.8136 18.25L18.2278 16.8358L13.2781 11.8861ZM9.74206 15.4215L8.32785 16.8357L13.2776 21.7854L14.6918 20.3712L9.74206 15.4215Z" fill="black"/>
<path fill-rule="evenodd" clip-rule="evenodd" d="M11.8639 23.1997L23.1776 11.886L40.8553 29.5637C43.9795 32.6879 43.9795 37.7532 40.8553 40.8774C37.7311 44.0016 32.6658 44.0016 29.5416 40.8774L11.8639 23.1997ZM14.6923 23.1997L30.9558 39.4632C33.2989 41.8063 37.0979 41.8063 39.4411 39.4632C41.7842 37.12 41.7842 33.3211 39.4411 30.9779L23.1776 14.7145L14.6923 23.1997Z" fill="black"/>
<path fill-rule="evenodd" clip-rule="evenodd" d="M19.6424 23.9067L27.4206 16.1286L39.4414 28.1494L31.6632 35.9275L19.6424 23.9067ZM22.4708 23.9067L31.6632 33.0991L36.6129 28.1494L27.4206 18.957L22.4708 23.9067Z" fill="black"/>
<path fill-rule="evenodd" clip-rule="evenodd" d="M27.0658 29.9173C27.0656 29.9174 27.0661 29.9173 27.0658 29.9173C25.6517 30.6245 23.8839 32.3922 23.5303 33.4528L30.2478 40.1705C32.9815 42.9041 37.4136 42.9041 40.1473 40.1704C42.8809 37.4368 42.881 33.0046 40.1473 30.271L38.0264 28.1501L31.6629 34.5135L27.0658 29.9173Z" fill="black"/>
<path fill-rule="evenodd" clip-rule="evenodd" d="M24.7549 33.2634L30.9558 39.4632C33.2989 41.8063 37.0979 41.8063 39.4411 39.4632C41.7842 37.12 41.7842 33.3211 39.4411 30.9779L38.0264 29.5643L31.6632 35.9275L26.9077 31.1726C26.4763 31.4662 26.0202 31.8469 25.6075 32.2596C25.2367 32.6304 24.9499 32.9781 24.7549 33.2634ZM24.1933 30.8454C24.9052 30.1334 25.7864 29.439 26.6186 29.0229L26.7383 28.9631L27.395 28.8314L31.6632 33.0991L38.0264 26.7359L40.8553 29.5637C43.9795 32.6879 43.9795 37.7532 40.8553 40.8774C37.7311 44.0016 32.6658 44.0016 29.5416 40.8774L22.4696 33.8065L22.5531 33.2221L22.5816 33.1366C22.8352 32.376 23.5063 31.5324 24.1933 30.8454Z" fill="black"/>
</svg>
