<svg width="48" height="48" viewBox="0 0 48 48" fill="none" xmlns="http://www.w3.org/2000/svg">
<path d="M23 39.9786V44H25V39.9811C27.424 39.8861 29.0398 39.442 30.1895 38.8289C30.4372 38.9389 30.7115 39 31 39C32.1046 39 33 38.1046 33 37C33 35.8954 32.1046 35 31 35C29.8954 35 29 35.8954 29 37C29 37.0619 29.0028 37.1232 29.0083 37.1837C28.1741 37.5745 26.9347 37.897 25 37.9796V30.9811C27.424 30.8861 29.0398 30.442 30.1895 29.8289C30.4372 29.9389 30.7115 30 31 30C32.1046 30 33 29.1046 33 28C33 26.8954 32.1046 26 31 26C29.8954 26 29 26.8954 29 28C29 28.0619 29.0028 28.1232 29.0083 28.1837C28.1741 28.5745 26.9347 28.897 25 28.9796V20.9811C27.424 20.8861 29.0398 20.442 30.1895 19.8289C30.4372 19.9389 30.7115 20 31 20C32.1046 20 33 19.1046 33 18C33 16.8954 32.1046 16 31 16C29.8954 16 29 16.8954 29 18C29 18.0619 29.0028 18.1232 29.0083 18.1837C28.1741 18.5745 26.9347 18.897 25 18.9796V11.9811C27.424 11.8861 29.0398 11.442 30.1895 10.8289C30.4372 10.9389 30.7115 11 31 11C32.1046 11 33 10.1046 33 9C33 7.89543 32.1046 7 31 7C29.8954 7 29 7.89543 29 9C29 9.06193 29.0028 9.1232 29.0083 9.1837C28.1741 9.5745 26.9347 9.89703 25 9.9796V4H23V9.97637C21.6291 9.90828 20.6539 9.69986 19.8953 9.43212C19.5682 9.31665 19.2748 9.18818 18.9994 9.04844C18.9998 9.03234 19 9.01619 19 9C19 7.89543 18.1046 7 17 7C15.8954 7 15 7.89543 15 9C15 10.1046 15.8954 11 17 11C17.3451 11 17.6698 10.9126 17.9532 10.7587C18.3338 10.9592 18.7539 11.1502 19.2297 11.3181C20.2232 11.6688 21.4236 11.9082 23 11.9786V18.9764C21.6291 18.9083 20.6539 18.6999 19.8953 18.4321C19.5682 18.3167 19.2748 18.1882 18.9994 18.0484C18.9998 18.0323 19 18.0162 19 18C19 16.8954 18.1046 16 17 16C15.8954 16 15 16.8954 15 18C15 19.1046 15.8954 20 17 20C17.3451 20 17.6698 19.9126 17.9532 19.7587C18.3338 19.9592 18.7539 20.1502 19.2297 20.3181C20.2232 20.6688 21.4236 20.9082 23 20.9786V28.9764C21.6291 28.9083 20.6539 28.6999 19.8953 28.4321C19.5682 28.3167 19.2748 28.1882 18.9994 28.0484C18.9998 28.0323 19 28.0162 19 28C19 26.8954 18.1046 26 17 26C15.8954 26 15 26.8954 15 28C15 29.1046 15.8954 30 17 30C17.3451 30 17.6698 29.9126 17.9532 29.7587C18.3338 29.9592 18.7539 30.1502 19.2297 30.3181C20.2232 30.6688 21.4236 30.9082 23 30.9786V37.9764C21.6291 37.9083 20.6539 37.6999 19.8953 37.4321C19.5682 37.3167 19.2748 37.1882 18.9994 37.0484C18.9998 37.0323 19 37.0162 19 37C19 35.8954 18.1046 35 17 35C15.8954 35 15 35.8954 15 37C15 38.1046 15.8954 39 17 39C17.3451 39 17.6698 38.9126 17.9532 38.7587C18.3338 38.9592 18.7539 39.1502 19.2297 39.3181C20.2232 39.6688 21.4236 39.9082 23 39.9786Z" fill="black"/>
</svg>
