<svg width="48" height="48" viewBox="0 0 48 48" fill="none" xmlns="http://www.w3.org/2000/svg">
<g clip-path="url(#clip0_6470_4742)">
<path d="M0 0H48V48H0V0Z" fill="white"/>
<path fill-rule="evenodd" clip-rule="evenodd" d="M48 0H0V48H48V0ZM20 30C20 33.3137 17.3137 36 14 36C10.6863 36 8 33.3137 8 30C8 29.8751 8.00382 29.7511 8.01134 29.6281L8.07032 29.0785C8.51364 26.2023 10.9996 24 14 24C17.3137 24 20 26.6863 20 30ZM8.60546 24.0924C10.0279 22.7927 11.9214 22 14 22C17.8488 22 21.0628 24.7179 21.8274 28.3392C22.5602 28.1215 23.2532 28.0011 23.9696 28C24.6968 27.9989 25.4086 28.1209 26.1713 28.3454C26.9335 24.721 30.149 22 34 22C36.0813 22 37.9769 22.7948 39.3999 24.0973L38.1016 12H35C34.4477 12 34 11.5523 34 11C34 10.4477 34.4477 10 35 10H39C39.511 10 39.9398 10.3852 39.9943 10.8933L41.9348 28.9742C41.9486 29.0819 41.9603 29.1903 41.9697 29.2992L41.9943 29.5281C42.0017 29.5968 42.0019 29.6647 41.9956 29.731C41.9985 29.8203 42 29.91 42 30C42 34.4183 38.4183 38 34 38C29.7131 38 26.2137 34.6281 26.0094 30.3918C25.1943 30.1163 24.566 29.9991 23.9726 30C23.3839 30.0009 22.7729 30.118 21.9908 30.387C21.7889 34.6256 18.2885 38 14 38C9.58172 38 6 34.4183 6 30C6 29.8949 6.00203 29.7902 6.00605 29.6861C6.00344 29.6342 6.00487 29.5814 6.01059 29.5281L6.01801 29.4589C6.03249 29.2421 6.0556 29.0277 6.08701 28.816L8.01059 10.8933C8.06512 10.3852 8.4939 10 9.00488 10H13.0049C13.5572 10 14.0049 10.4477 14.0049 11C14.0049 11.5523 13.5572 12 13.0049 12H9.90329L8.60546 24.0924ZM34 24C37.0491 24 39.5669 26.2743 39.9496 29.2191L39.9783 29.486C39.9927 29.6555 40 29.8269 40 30C40 33.3137 37.3137 36 34 36C30.6863 36 28 33.3137 28 30C28 26.6863 30.6863 24 34 24Z" fill="#333333"/>
</g>
<defs>
<clipPath id="clip0_6470_4742">
<rect width="48" height="48" fill="white"/>
</clipPath>
</defs>
</svg>
