<svg width="48" height="48" viewBox="0 0 48 48" fill="none" xmlns="http://www.w3.org/2000/svg">
<path fill-rule="evenodd" clip-rule="evenodd" d="M16.4 40.3168C12.0725 38.3012 8.72292 34.649 7.08821 30.1637C5.4535 25.6784 5.66751 20.7274 7.68317 16.4C9.69883 12.0725 13.351 8.72292 17.8363 7.08821C22.3216 5.4535 27.2726 5.66751 31.6001 7.68317C35.9276 9.69883 39.2771 13.351 40.9118 17.8363C42.5465 22.3216 42.3325 27.2726 40.3168 31.6001C38.3012 35.9276 34.649 39.2771 30.1637 40.9118C25.6784 42.5465 20.7274 42.3325 16.4 40.3168ZM17.2444 38.5039C21.0911 40.2956 25.4919 40.4858 29.4788 39.0327C33.4658 37.5796 36.7122 34.6023 38.5039 30.7556C40.2956 26.9089 40.4858 22.5081 39.0327 18.5212C37.5796 14.5342 34.6023 11.2878 30.7556 9.49615C26.909 7.70446 22.5081 7.51422 18.5212 8.9673C16.9329 9.54615 15.4622 10.3669 14.1541 11.3881C14.2945 11.5778 14.4387 11.7687 14.587 11.965C14.7636 12.1989 14.9461 12.4405 15.135 12.6969C15.5893 13.3135 16.0516 13.9786 16.3961 14.6465C16.7357 15.3047 17.0114 16.0598 16.9863 16.8415C16.9593 17.6806 16.5893 18.4381 15.8576 19.04L15.1104 19.6548C14.8484 19.8703 14.7732 20.0621 14.7547 20.1842C14.7354 20.3118 14.764 20.454 14.8607 20.5957C15.0509 20.8745 15.5451 21.171 16.3008 20.9696C16.8017 20.8361 17.4636 20.6885 18.0662 21.0152C18.3643 21.1768 18.5594 21.4064 18.6925 21.5945C18.8108 21.7618 18.9231 21.961 19.0212 22.135L19.0629 22.209L19.374 23.0049C20.0989 23.0472 20.7869 23.3528 21.3041 23.8607L21.0027 22.8918C20.5105 21.3097 21.394 19.6282 22.976 19.136C24.5581 18.6438 26.2396 19.5273 26.7318 21.1094L27.2755 22.8569L28.2244 22.6027C28.2287 22.6016 28.233 22.6004 28.2374 22.5993C27.4706 21.7923 27 20.7011 27 19.5C27 17.0147 29.0147 15 31.5 15C33.9853 15 36 17.0147 36 19.5C36 21.9526 34.0379 23.9469 31.5978 23.999C31.9604 24.6262 32.0889 25.3734 31.9396 26.1024C31.4412 28.5359 30.6799 30.9237 28.8059 32.6163C26.9025 34.3356 24.4027 34.8518 21.6937 34.9963C20.3996 35.0653 19.2076 34.2956 18.7379 33.0879L17.462 29.8071L16.0096 30.3258C14.4493 30.883 12.7326 30.0699 12.1753 28.5096C11.6181 26.9492 12.4312 25.2326 13.9916 24.6753L17.4092 23.4548L17.2769 23.1136C17.2049 22.9862 17.1548 22.8986 17.1145 22.8332C17.0451 22.8456 16.9486 22.8668 16.8157 22.9022C15.322 23.3002 13.9233 22.7704 13.2086 21.7228C12.8528 21.2014 12.6759 20.5554 12.7772 19.8854C12.8792 19.2101 13.2504 18.5951 13.8397 18.1103L14.587 17.4955C14.901 17.2372 14.9799 17.0074 14.9873 16.7772C14.9966 16.4896 14.8921 16.0934 14.6187 15.5635C14.3504 15.0433 13.967 14.4833 13.5248 13.8832C13.3676 13.6698 13.1975 13.4443 13.0245 13.215C12.9007 13.051 12.7755 12.8849 12.6525 12.7201C11.3585 14.0219 10.286 15.5487 9.49615 17.2444C7.70446 21.0911 7.51422 25.4919 8.9673 29.4788C10.4204 33.4658 13.3977 36.7122 17.2444 38.5039ZM31.5 22C32.8807 22 34 20.8807 34 19.5C34 18.1193 32.8807 17 31.5 17C30.1193 17 29 18.1193 29 19.5C29 20.8807 30.1193 22 31.5 22ZM23.5702 21.0457C24.0975 20.8816 24.658 21.1761 24.8221 21.7035L25.6512 24.3685C25.8107 24.881 26.3463 25.1763 26.8648 25.0374L28.7418 24.5346C29.0766 24.4449 29.434 24.535 29.6863 24.7727C29.9385 25.0103 30.0498 25.3616 29.9802 25.7012C29.4976 28.0579 28.837 29.8932 27.4653 31.1321C26.0842 32.3796 24.1648 32.8617 21.5872 32.9991C21.1558 33.0221 20.7585 32.7656 20.6019 32.363L18.9735 28.1758C18.7773 27.6712 18.2151 27.4144 17.7052 27.5965L15.3369 28.4423C14.8168 28.6281 14.2446 28.357 14.0588 27.8369C13.8731 27.3168 14.1441 26.7446 14.6642 26.5588L18.8642 25.0588C19.3741 24.8767 19.9363 25.1335 20.1326 25.6381L21.9202 30.2348C22.0883 30.667 22.5314 30.927 22.9907 30.8627C24.5063 30.6507 25.4583 30.2499 26.1247 29.648C26.3362 29.4569 26.5316 29.2345 26.7125 28.9721C26.9504 28.6271 26.9479 28.1704 26.7063 27.828C26.4647 27.4855 26.0353 27.3301 25.6305 27.4385L25.526 27.4665C25.0075 27.6054 24.4718 27.3102 24.3124 26.7976L22.9124 22.2976C22.7483 21.7703 23.0428 21.2098 23.5702 21.0457Z" fill="black"/>
</svg>
