<svg width="48" height="48" viewBox="0 0 48 48" fill="none" xmlns="http://www.w3.org/2000/svg">
<path fill-rule="evenodd" clip-rule="evenodd" d="M10.5235 8.01848C9.74267 8.02779 8.50279 8.03707 6.49976 8.03707V6.03707C8.49673 6.03707 9.72846 6.02782 10.4996 6.01862C10.9091 6.01373 11.1996 6.00863 11.4057 6.00501C11.5766 6.00201 11.6896 6.00003 11.7643 6.00003C18.5962 6.00003 24.234 11.2429 24.234 17.8294V18.9258L26.5174 22.1597C27.8288 24.0171 26.3431 26.3255 24.234 26.3267V26.9928C24.234 28.0585 23.3364 28.8258 22.3517 28.8258H21.6709L22.7073 29.5254C23.5423 29.6838 24.234 30.3894 24.234 31.3249V32.824C24.234 34.421 23.3338 35.7906 22.0418 36.5356C21.165 37.0412 20.2489 37.0908 19.5128 36.9993C18.7962 36.9102 18.1386 36.6744 17.6506 36.4769L15.4112 35.5707V40.167C15.4112 41.2327 14.5136 42 13.5289 42H11.4998V40H13.4112V34.0873C13.4112 33.7548 13.5765 33.444 13.8522 33.2581C14.1279 33.0723 14.478 33.0356 14.7863 33.1603L18.4008 34.6229C18.8369 34.7994 19.3031 34.9578 19.7596 35.0145C20.2185 35.0716 20.6584 35.0246 21.0428 34.803C21.7759 34.3802 22.234 33.6389 22.234 32.824V31.4849C22.0763 31.4662 21.9247 31.4102 21.7922 31.3207L19.0767 29.4877C18.8013 29.3017 18.6362 28.9911 18.6362 28.6588C18.6362 28.2734 18.728 27.8662 19.0008 27.5208C19.2705 27.1792 19.6247 27.0155 19.9203 26.9336C20.2068 26.8542 20.502 26.8339 20.7433 26.827C20.9088 26.8223 21.0967 26.8236 21.2667 26.8248C21.3384 26.8253 21.407 26.8258 21.4694 26.8258H22.234V25.3267C22.234 24.7744 22.6817 24.3267 23.234 24.3267H24.2323C24.5679 24.3267 24.8026 24.1574 24.9181 23.9537C25.0305 23.7553 25.0344 23.5268 24.8836 23.3133L22.4171 19.8201C22.2979 19.6513 22.234 19.4498 22.234 19.2433V17.8294C22.234 12.4541 17.6015 8.00003 11.7643 8.00003C11.6971 8.00003 11.6067 8.00167 11.4616 8.0043C11.2694 8.00779 10.9812 8.01302 10.5235 8.01848Z" fill="#333333"/>
<path d="M20.9998 19.5C20.9998 20.3285 20.3282 21 19.4998 21C18.6714 21 17.9998 20.3285 17.9998 19.5C17.9998 18.6716 18.6714 18 19.4998 18C20.3282 18 20.9998 18.6716 20.9998 19.5Z" fill="#333333"/>
<path fill-rule="evenodd" clip-rule="evenodd" d="M28.4953 32.0835C29.2049 31.6688 29.684 30.8925 29.684 29.9996C29.684 29.1066 29.2049 28.3303 28.4953 27.9156L29.5043 26.1888C30.8083 26.9508 31.684 28.3737 31.684 29.9996C31.684 31.6255 30.8083 33.0483 29.5043 33.8103L28.4953 32.0835Z" fill="#333333"/>
<path fill-rule="evenodd" clip-rule="evenodd" d="M31.7821 34.6634C32.995 33.7859 33.8945 32.0671 33.8945 29.9999C33.8945 27.9328 32.995 26.214 31.7821 25.3365L32.9543 23.7161C34.7619 25.0238 35.8945 27.3893 35.8945 29.9999C35.8945 32.6106 34.7619 34.9761 32.9544 36.2838L31.7821 34.6634Z" fill="#333333"/>
<path fill-rule="evenodd" clip-rule="evenodd" d="M38.1049 29.9999C38.1049 26.8186 36.8408 24.152 35.1152 22.7836L36.3579 21.2165C38.6595 23.0417 40.1049 26.3445 40.1049 29.9999C40.1049 33.6554 38.6595 36.9582 36.3579 38.7834L35.1152 37.2163C36.8408 35.8479 38.1049 33.1813 38.1049 29.9999Z" fill="#333333"/>
</svg>
