<svg width="48" height="48" viewBox="0 0 48 48" fill="none" xmlns="http://www.w3.org/2000/svg">
<path fill-rule="evenodd" clip-rule="evenodd" d="M33.9356 16C33.9356 21.5228 29.4687 26 23.9586 26C18.4484 26 13.9816 21.5228 13.9816 16C13.9816 10.4772 18.4484 6 23.9586 6C29.4687 6 33.9356 10.4772 33.9356 16ZM31.9402 16C31.9402 20.4183 28.3667 24 23.9586 24C19.5505 24 15.977 20.4183 15.977 16C15.977 11.5817 19.5505 8 23.9586 8C28.3667 8 31.9402 11.5817 31.9402 16Z" fill="black"/>
<path fill-rule="evenodd" clip-rule="evenodd" d="M17.8867 28.8551L17.8977 28.8771C17.9232 28.9281 17.948 28.9774 17.9724 29.0237H22.027C22.9308 29.0235 23.3824 29.0236 23.8343 29.0237H23.8606C24.3033 29.0238 24.7547 29.0239 25.6398 29.0237H27.9494V31.0237H25.6398C24.7353 31.0239 24.2891 31.0238 23.8484 31.0237C23.3974 31.0236 22.9521 31.0235 22.0274 31.0237H16.7679L16.3549 30.2375C16.2348 30.2722 16.1148 30.3081 15.9952 30.345C15.9886 30.4109 15.9834 30.4853 15.9803 30.5687C15.9674 30.9137 15.993 31.3228 16.0498 31.7399C16.1063 32.1557 16.1904 32.5546 16.284 32.8762C16.2989 32.9273 16.3137 32.9754 16.3283 33.0204C17.8158 33.1948 18.9701 34.4623 18.9701 36C18.9701 37.6568 17.63 39 15.977 39C14.324 39 12.9839 37.6568 12.9839 36C12.9839 34.9331 13.5396 33.9962 14.3767 33.4644L14.3684 33.4362C14.2438 33.0079 14.1408 32.5109 14.0727 32.0101C14.0313 31.7062 14.0015 31.3916 13.9887 31.0819C12.755 31.6098 11.6056 32.2477 10.6415 32.9527C8.72344 34.3554 7.9954 35.6669 7.9954 36.5699V40H27.9494V42H6V36.5699C6 32.7946 11.583 29.2434 16.9747 28.0126C17.415 27.9121 17.6756 28.4331 17.8867 28.8551ZM16.9747 36C16.9747 36.5742 16.5142 37.0147 15.977 37.0147C15.4398 37.0147 14.9793 36.5742 14.9793 36C14.9793 35.4257 15.4398 34.9853 15.977 34.9853C16.5142 34.9853 16.9747 35.4257 16.9747 36Z" fill="black"/>
<path d="M38.2111 35.7447C38.5387 35.4492 38.5653 34.9433 38.2704 34.6149C37.9755 34.2865 37.4708 34.2599 37.1432 34.5555L35.1997 36.3087L34.7372 35.8648C34.4188 35.5592 33.9135 35.5703 33.6087 35.8894C33.3038 36.2085 33.3148 36.7149 33.6332 37.0205L34.6242 37.9715C34.9298 38.2648 35.4092 38.2722 35.7237 37.9885L38.2111 35.7447Z" fill="black"/>
<path d="M38.2704 30.4648C38.5653 30.7932 38.5387 31.299 38.2111 31.5946L35.7237 33.8384C35.4092 34.122 34.9298 34.1146 34.6242 33.8214L33.6332 32.8703C33.3148 32.5648 33.3038 32.0584 33.6087 31.7392C33.9135 31.4201 34.4188 31.4091 34.7372 31.7147L35.1997 32.1585L37.1432 30.4053C37.4708 30.1098 37.9755 30.1364 38.2704 30.4648Z" fill="black"/>
<path fill-rule="evenodd" clip-rule="evenodd" d="M39.1735 26C39.1735 25.4477 38.7268 25 38.1758 25C37.6248 25 37.1781 25.4477 37.1781 26V26.2395H34.9333V26C34.9333 25.4477 34.4866 25 33.9356 25C33.3845 25 32.9379 25.4477 32.9379 26V26.2395H31.8155C30.7823 26.2395 29.9448 27.079 29.9448 28.1145V40.1249C29.9448 41.1605 30.7823 41.9999 31.8155 41.9999H40.1293C41.1625 41.9999 42 41.1605 42 40.1249V28.1145C42 27.079 41.1625 26.2395 40.1293 26.2395H39.1735V26ZM31.9402 39.9999V28.2395H40.0046V39.9999H31.9402Z" fill="black"/>
</svg>
